<svg xmlns="http://www.w3.org/2000/svg" width="317" height="230.281" viewBox="0 0 317 230.281">
  <g id="Grupo_222342" data-name="Grupo 222342" transform="translate(6808 7916)">
    <path id="Rectángulo_295408" data-name="Rectángulo 295408" d="M20,0H297a20,20,0,0,1,20,20V230a0,0,0,0,1,0,0H0a0,0,0,0,1,0,0V20A20,20,0,0,1,20,0Z" transform="translate(-6808 -7916)" fill="#4dd0e1"/>
    <g id="Grupo_210548" data-name="Grupo 210548" transform="translate(-6808 -7905.7)">
      <g id="Grupo_210544" data-name="Grupo 210544" transform="translate(0 0)">
        <path id="Trazado_222106" data-name="Trazado 222106" d="M704.867,2081.038c-19.279,0-279.931-.562-279.931-.593-.107-.253-33.089-40.676,8.441-82.939,20.578-20.941-18.9-48.071,0-71.364,32.369-39.9,64.4-17.43,91.079-28.651a42.877,42.877,0,0,0,14.181-10.062,52.721,52.721,0,0,1,8.715-7.235q.719-.479,1.453-.935a58.013,58.013,0,0,1,5.814-3.156q2.015-.95,4.106-1.758h0a67.246,67.246,0,0,1,6.806-2.216,77.018,77.018,0,0,1,10.15-1.991q2.264-.295,4.565-.466c29.813-2.241,63.364,10.365,80.678,28.791,3.486,3.71,19.337,22.909,6.842,49.3-7.889,16.66,25.161,32.572,36.9,51.6C734.531,2047.725,705.138,2080.408,704.867,2081.038Z" transform="translate(-412.415 -1861.544)" fill="#65e3f3"/>
        <g id="Grupo_210528" data-name="Grupo 210528" transform="translate(151.469 56.179)" opacity="0.8">
          <path id="Trazado_222107" data-name="Trazado 222107" d="M1650.2,2291.59a38.182,38.182,0,0,1-2.908,6.206,37.909,37.909,0,0,1-70.527-16.576,37.251,37.251,0,0,1,.048-5.781,38.169,38.169,0,0,1,5.716-17.029c.016-.027.032-.051.048-.077a38,38,0,0,1,21.6-16.135q1.388-.4,2.809-.688a37.7,37.7,0,0,1,20.541,1.515q1.359.494,2.655,1.08a37.639,37.639,0,0,1,15.361,12.682h0a38.041,38.041,0,0,1,6.061,13.753q.348,1.59.562,3.212a37.728,37.728,0,0,1-1.973,17.838Z" transform="translate(-1576.671 -2240.734)" fill="#bddcf6"/>
          <g id="Grupo_210527" data-name="Grupo 210527" transform="translate(5.853 0.775)">
            <path id="Trazado_222108" data-name="Trazado 222108" d="M1647.411,2263.484c-2.24,1.734-1.646,6.375-5.522,3.759s-6.311-4.038-7.408-1.755,2.336,3.532,1.432,6.02-2.744,2.75-4.682.708-2-4.008-5.138-3.943-4.482-1.227-4.329-3.585a3.324,3.324,0,0,0-.1-1.094c.016-.027.032-.051.048-.077a38,38,0,0,1,21.6-16.135q1.388-.4,2.809-.688a4.985,4.985,0,0,1,2.892,3.159c1.367,3.985,3.585,3.047,1.7,6.386s-1.109,4.156.947,4.769,4.426,1.474,4.1,3.1S1649.65,2261.75,1647.411,2263.484Z" transform="translate(-1621.661 -2246.693)" fill="#88c1f1"/>
            <path id="Trazado_222109" data-name="Trazado 222109" d="M1963.195,2491.977a38.172,38.172,0,0,1-2.908,6.206A37.687,37.687,0,0,1,1949.7,2509.8a4.325,4.325,0,0,1-2.82-1.112c-3.8-3.391,1.235-6.993,3.883-8.746s-2.27-2.334-4.749-5.749,3.326-8.043-.4-8.293-8.269-.491-9.029-4.489,3.165-3.174,2.478-6.541,2.559-4,6.032-3.037,3.9-1.6,8.2-.437,2.278,6.46,7.026,7.784,4.153,2.315,4.153,2.315a2.283,2.283,0,0,1,.891.553A37.961,37.961,0,0,1,1963.195,2491.977Z" transform="translate(-1895.523 -2441.897)" fill="#88c1f1"/>
            <path id="Trazado_222110" data-name="Trazado 222110" d="M2027.112,2374.791c-4.52.473-4.215-5.171-8.053-4.836-3.87.337-2.214-2.414-4.13-5.256s-8.377-1.3-7.064-4.177,4.92-.625,6.61-2.692,5.265-.1,5.265-.1a2.716,2.716,0,0,1,.746.094s0,0,0,0a38.048,38.048,0,0,1,6.061,13.753Q2026.9,2373.17,2027.112,2374.791Z" transform="translate(-1957.468 -2342.549)" fill="#88c1f1"/>
            <path id="Trazado_222111" data-name="Trazado 222111" d="M1878.232,2281.267s3.07-2.173.183-4.193-3.235-.876-5.626-2.045-4.068.4-2.967,3.181,1.145,7.364,3.614,5.827S1876.173,2280.753,1878.232,2281.267Z" transform="translate(-1837.236 -2271.003)" fill="#88c1f1"/>
          </g>
        </g>
        <path id="Trazado_222112" data-name="Trazado 222112" d="M570.429,3394.219h13.218c.708-.6-.49-1.966-1.742-2.057a7.7,7.7,0,0,0-2.017.239c-.182-2.416-1.221-13.276-5.135-12.84-4.4.489,0,4.782,1.244,7.325a60.45,60.45,0,0,1,2.338,5.858c-.357.077-.727.153-1.105.223-.583-1.791-2.754-7.817-5.515-7.466-3.241.411-1.938,2.827.359,4.261,1.685,1.055,3.755,2.553,4.739,3.277a14.027,14.027,0,0,1-2.585.207A5.57,5.57,0,0,0,570.429,3394.219Z" transform="translate(-549.299 -3175.209)" fill="#a8d29f"/>
        <path id="Trazado_222113" data-name="Trazado 222113" d="M2108.323,3401.2h-12.278c-.658-.558.456-1.826,1.618-1.911a7.193,7.193,0,0,1,1.874.222c.169-2.244,1.134-12.331,4.77-11.926,4.088.454,0,4.443-1.156,6.8a56.181,56.181,0,0,0-2.172,5.441c.332.072.676.143,1.027.207.542-1.664,2.558-7.26,5.122-6.935,3.01.382,1.8,2.626-.333,3.958-1.565.98-3.488,2.372-4.4,3.044a13.032,13.032,0,0,0,2.4.193A5.176,5.176,0,0,1,2108.323,3401.2Z" transform="translate(-1876.835 -3182.188)" fill="#a8d29f"/>
        <g id="Grupo_210529" data-name="Grupo 210529" transform="translate(228.321 119.093)">
          <path id="Trazado_222114" data-name="Trazado 222114" d="M2238.952,2854.949s.292-2.906-1.227-2.807-1.922.8-1.753,1.355a15.846,15.846,0,0,0,1.648,2.406Z" transform="translate(-2227.017 -2835.51)" fill="#ffb27d"/>
          <path id="Trazado_222115" data-name="Trazado 222115" d="M2270.447,2876.48a24.8,24.8,0,0,1-5.3,4.258c-.343.217-.7.435-1.08.654a40.065,40.065,0,0,1-4.956,2.439c-.209.086-.456.181-.732.281a35.732,35.732,0,0,1-8.63,1.992c-.215.009-.419.009-.609,0-3.763-.152-4.222-14.757-4.222-14.757a1.851,1.851,0,0,1,2.352-1.093s2.936,8.248,3.988,8.92c.934.6,6.306-7.545,10.93-8.115C2265.3,2870.679,2270.447,2876.48,2270.447,2876.48Z" transform="translate(-2234.831 -2851.218)" fill="#739af0"/>
          <path id="Trazado_222116" data-name="Trazado 222116" d="M2302.6,3457.6s.278,3.215-.4,3.55l-8.7-.018s0-1,1.4-1.227,3.851-1.041,4.266-2.862S2302.6,3457.6,2302.6,3457.6Z" transform="translate(-2277.096 -3361.114)" fill="#1c3154"/>
          <path id="Trazado_222117" data-name="Trazado 222117" d="M2314.188,3099.5c.043,2.1.144,4.271.342,6.219.939,9.247,1.269,20.42,1.4,22.574.234,3.74.973,9.714.973,9.714a4.776,4.776,0,0,0,4.321.727,97.242,97.242,0,0,0,2.9-17.664c.008-.149.016-.3.024-.448.061-1.2.125-2.567.191-4.044.435-9.892.908-24.587.908-24.587l-10.914-2.562S2314.081,3094.255,2314.188,3099.5Z" transform="translate(-2295.065 -3041.925)" fill="#2a4e96"/>
          <path id="Trazado_222118" data-name="Trazado 222118" d="M2314.188,3099.5c2.766,4.772,8.038,13.564,10.15,17.079.435-9.892.908-24.587.908-24.587l-10.914-2.562S2314.081,3094.255,2314.188,3099.5Z" transform="translate(-2295.065 -3041.925)" fill="#233862"/>
          <path id="Trazado_222119" data-name="Trazado 222119" d="M2290.678,2952.795a35.7,35.7,0,0,1-8.63,1.993c.378-.071,3.131-.616,4.149-1.845,1.093-1.321,2.934-4.91,4.4-3.446C2291.286,2950.186,2291.083,2951.549,2290.678,2952.795Z" transform="translate(-2267.13 -2919.901)" fill="#6385db"/>
          <path id="Trazado_222120" data-name="Trazado 222120" d="M2473.025,3153.795a16.949,16.949,0,0,1,.566,3.247,11.622,11.622,0,0,1-1.185,3.086c-.412.5-.429-2.156-.7-2.573s-.125.99-.345,1.105-.586-1.066-.749-1.484.586-1.876.655-2.92S2473.025,3153.795,2473.025,3153.795Z" transform="translate(-2431.139 -3097.778)" fill="#ffb27d"/>
          <path id="Trazado_222121" data-name="Trazado 222121" d="M2492.478,3433.357s1.548,1.413,1.246,2.416-1.7,1.673-1.888,2.9-.944,1.9-1.624,1.9h-3.24s-.5-.863.708-1.124,1.664-1.7,1.588-3.04a23.575,23.575,0,0,1,.113-3.123l2.567-.595Z" transform="translate(-2445.304 -3340.529)" fill="#1c3154"/>
          <path id="Trazado_222122" data-name="Trazado 222122" d="M2328.691,3088.635s10.217,21.859,15.653,31.45,7.136,12.268,7.136,12.268,3.115-1.227,3.4-2.063c0,0-2.079-18.516-5.72-23.03-2.057-2.551-4.474-10.2-4.587-12.882s-2.5-9.065-2.5-9.065Z" transform="translate(-2307.705 -3038.347)" fill="#2a4e96"/>
          <path id="Trazado_222123" data-name="Trazado 222123" d="M2313.955,2902.133a17.707,17.707,0,0,0,8.98,4.661c2.481.475,7.517.934,8.766-.832a3.159,3.159,0,0,0,.231-1.988c-.168-2.491-.795-7.309,2.035-16.989a16.515,16.515,0,0,0,.544-2.588c.618-4.952.551-8.691-3.746-10.688-6.438-2.993-9.08-.53-9.08-.53a10.783,10.783,0,0,0-4.989,6.263C2313.566,2888.769,2313.955,2902.133,2313.955,2902.133Z" transform="translate(-2294.872 -2852.983)" fill="#739af0"/>
          <path id="Trazado_222124" data-name="Trazado 222124" d="M2380.646,2834.275a4.779,4.779,0,0,1-4.809.315,5.51,5.51,0,0,1-.087-1.976c.035-.927.123-1.836.123-1.836l2.291-1.5,2.186-1.434C2380.086,2832.772,2381.135,2833.926,2380.646,2834.275Z" transform="translate(-2348.619 -2814.372)" fill="#ffb27d"/>
          <path id="Trazado_222125" data-name="Trazado 222125" d="M2380.128,2839.465a7.039,7.039,0,0,1-4.214,2.738c.035-.927.134-1.948.134-1.948l2.279-1.392Z" transform="translate(-2348.784 -2823.96)" fill="#ed985f"/>
          <path id="Trazado_222126" data-name="Trazado 222126" d="M2357.1,2785.926s5.542,2.068,6.776-1.347,2.779-5.447-.708-6.912-4.648-.408-5.342.631S2355.689,2785.3,2357.1,2785.926Z" transform="translate(-2331.898 -2770.1)" fill="#ffb27d"/>
          <path id="Trazado_222127" data-name="Trazado 222127" d="M2362.706,2763.006c.064-.049.193-.074.463-.036a1.1,1.1,0,0,0-.47-.239,1.369,1.369,0,0,0-.658-1.364.816.816,0,0,1,.274.654c-.589-.906-2.065-1.772-6.523-2.293-5.875-.686-4.7,3.395-4.038,3.984s2.786-.249,4.159.138,1.241,2.455,1.659,2.825.329-.156,1.027-.319.549.91.228,1.564.379,1.738.379,1.738l1.078-.782c1.079-.782,2.718-4.673,2.484-5.617C2362.747,2763.175,2362.727,2763.091,2362.706,2763.006Z" transform="translate(-2327.278 -2755.055)" fill="#2c3a64"/>
          <path id="Trazado_222128" data-name="Trazado 222128" d="M2429.268,2984.157c-.168-2.491-.8-7.309,2.035-16.989a16.528,16.528,0,0,0,.544-2.588h0c-2.1-.693-5.933.849-5.933.849S2425.012,2978.225,2429.268,2984.157Z" transform="translate(-2392.208 -2933.166)" fill="#6385db"/>
          <path id="Trazado_222129" data-name="Trazado 222129" d="M2390.455,2888.6s2.587.941,4.237,7.79c1.09,4.525,3.1,11.177,3.323,13.267s-2.294,14.328-2.294,14.328a1.641,1.641,0,0,1-1.227.085,2.025,2.025,0,0,1-1.222-.731s-.6-8.156-.447-12.008c.065-1.6-7.407-11.718-11.44-13.021C2379.8,2897.8,2390.455,2888.6,2390.455,2888.6Z" transform="translate(-2353.405 -2867.228)" fill="#739af0"/>
          <path id="Trazado_222130" data-name="Trazado 222130" d="M2174.041,2738.163a86.041,86.041,0,0,1,16.105,1.376l.9-2.272.989-2.489s-8.662-3.729-13.869-8.922Z" transform="translate(-2173.175 -2725.656)" fill="#4dd0e1"/>
          <path id="Trazado_222131" data-name="Trazado 222131" d="M2172.493,2724.4l-4.293,12.672h0a1.142,1.142,0,0,1-.752-1.477l3.778-10.648a.943.943,0,0,1,1.267-.548Z" transform="translate(-2167.382 -2724.316)" fill="#feca2e"/>
          <path id="Trazado_222132" data-name="Trazado 222132" d="M2229.847,2823h0a1.553,1.553,0,0,0,1.821-1.215l1.478-7.4a1.551,1.551,0,0,0-1.214-1.821h0a1.552,1.552,0,0,0-1.821,1.214l-1.478,7.4A1.553,1.553,0,0,0,2229.847,2823Z" transform="translate(-2220.638 -2801.064)" fill="#feca2e"/>
          <path id="Trazado_222133" data-name="Trazado 222133" d="M2174.041,2810.727a86.039,86.039,0,0,1,16.105,1.376l.9-2.271C2182.941,2808.176,2174.041,2810.727,2174.041,2810.727Z" transform="translate(-2173.175 -2798.22)" fill="#739af0"/>
          <path id="Trazado_222134" data-name="Trazado 222134" d="M2279.5,2790.109l2.337.411a2.576,2.576,0,0,0,2.893-1.526,1.558,1.558,0,0,0,.138-.422c.562-2.437-.776-2.886-.776-2.886l-3.007-1.172-.955,3.381v.012Z" transform="translate(-2264.913 -2776.683)" fill="#feca2e"/>
          <path id="Trazado_222135" data-name="Trazado 222135" d="M2279.5,2812.715l2.337.411a2.577,2.577,0,0,0,2.893-1.526c-1.322-.961-4.6-1.1-4.6-1.1v.011Z" transform="translate(-2264.913 -2799.289)" fill="#edb82b"/>
          <path id="Trazado_222136" data-name="Trazado 222136" d="M2232.9,2837.469s1.143.455.933.959-1.663,1.2-1.892.8S2232.178,2837.044,2232.9,2837.469Z" transform="translate(-2223.489 -2822.691)" fill="#ffb27d"/>
          <path id="Trazado_222137" data-name="Trazado 222137" d="M2257.013,2852.166a15.944,15.944,0,0,0,.229-1.706c.014-.537.077-.976-.05-.991s-.218.083-.27.257-.25,1.244-.25,1.244l.1,1.034Z" transform="translate(-2245.056 -2833.185)" fill="#ffb27d"/>
        </g>
        <g id="Grupo_210531" data-name="Grupo 210531" transform="translate(56.917 95.414)">
          <path id="Trazado_222138" data-name="Trazado 222138" d="M1346.707,2859.475l-6.476,76.993s-.678,4.667,2.793,4.675c5.708.014,28.411,0,28.411,0s-4.3-.971-4.244-3.157c.061-2.577,7.568-79.24,7.568-79.24Z" transform="translate(-1276.393 -2817.578)" fill="#636363"/>
          <path id="Trazado_222139" data-name="Trazado 222139" d="M1386.05,2930.437c-1.123,0-23.1.04-28.661-.031-2.423-.03-2.847-2.154-2.867-3.528a6.887,6.887,0,0,1,.074-1.146l.168-2,.429-5.1.379-4.506.487-5.79.41-4.888,4.6-54.709,28.053-.728s-3.162,32.083-5.4,55.438c-.25,2.6-.487,5.1-.707,7.426q-.107,1.115-.206,2.178c-.207,2.21-.4,4.239-.562,6.03q-.131,1.418-.24,2.626c-.286,3.149-.453,5.161-.455,5.542a3.233,3.233,0,0,0,.055.623C1382.072,2930.325,1385.629,2930.437,1386.05,2930.437Z" transform="translate(-1288.87 -2808.236)" fill="#afafaf"/>
          <path id="Trazado_222140" data-name="Trazado 222140" d="M866.7,2542.31l15.773,63.356,2.16,8.677,7.346,29.51h136.481l-27.077-101.542Z" transform="translate(-864.517 -2542.31)" fill="#f6f6f6"/>
          <path id="Trazado_222141" data-name="Trazado 222141" d="M852.085,2542.309l-2.186.729,24.559,103.018,2.906-2.2Z" transform="translate(-849.899 -2542.309)" fill="#e8e8e8"/>
          <path id="Trazado_222142" data-name="Trazado 222142" d="M1038.667,3325.013h135.641l3.746-2.2h-136.48Z" transform="translate(-1014.109 -3221.266)" fill="#afafaf"/>
          <rect id="Rectángulo_295403" data-name="Rectángulo 295403" width="29.368" height="1.396" transform="translate(101.56 123.595) rotate(180)" fill="#afafaf"/>
          <path id="Trazado_222143" data-name="Trazado 222143" d="M1387.458,3339.743l-.152,1.067-27.619,5.58.379-4.506.181-2.141Z" transform="translate(-1293.364 -3235.997)" fill="#636363"/>
          <path id="Trazado_222144" data-name="Trazado 222144" d="M1386.056,3423.208c-1.123,0-23.1.04-28.66-.031-2.422-.03-2.847-2.154-2.867-3.529l27.489-5.172c-.285,3.15-.453,5.161-.455,5.543a3.217,3.217,0,0,0,.055.623C1382.077,3423.1,1385.634,3423.208,1386.056,3423.208Z" transform="translate(-1288.876 -3301.008)" fill="#636363" opacity="0.4"/>
          <path id="Trazado_222145" data-name="Trazado 222145" d="M866.7,2542.309h134.682l21.853,81.608H887.017Z" transform="translate(-864.515 -2542.309)" fill="#fff"/>
          <path id="Trazado_222146" data-name="Trazado 222146" d="M1054.184,2649.611H928.08l-4.506-17.952-1.743-6.946-.711-2.833-4.632-18.448-.24-.96-2.448-9.751-1.1-4.363-.934-3.722-2.19-8.725h124.286l2.406,8.725,1.025,3.722,1.2,4.363,7.924,28.744h0l.672,2.435.312,1.131,5.471,19.845Z" transform="translate(-901.815 -2571.54)" fill="#9fcff7"/>
          <path id="Trazado_222147" data-name="Trazado 222147" d="M1036.275,2584.634h-124.5l-2.19-8.726H1033.87Z" transform="translate(-901.819 -2571.537)" fill="#5badf2"/>
          <g id="Grupo_210530" data-name="Grupo 210530" transform="translate(12.873 7.224)">
            <path id="Trazado_222148" data-name="Trazado 222148" d="M948.879,2598.926a.824.824,0,0,1,.819-1.091,1.49,1.49,0,0,1,1.363,1.091.824.824,0,0,1-.819,1.091A1.491,1.491,0,0,1,948.879,2598.926Z" transform="translate(-948.845 -2597.835)" fill="#e9f3fe"/>
            <path id="Trazado_222149" data-name="Trazado 222149" d="M976.737,2598.926a.824.824,0,0,1,.819-1.091,1.489,1.489,0,0,1,1.363,1.091.824.824,0,0,1-.819,1.091A1.49,1.49,0,0,1,976.737,2598.926Z" transform="translate(-973.079 -2597.835)" fill="#e9f3fe"/>
            <path id="Trazado_222150" data-name="Trazado 222150" d="M1006.734,2598.926a.824.824,0,0,1,.819-1.091,1.49,1.49,0,0,1,1.363,1.091.824.824,0,0,1-.819,1.091A1.49,1.49,0,0,1,1006.734,2598.926Z" transform="translate(-999.174 -2597.835)" fill="#e9f3fe"/>
          </g>
        </g>
        <path id="Trazado_222151" data-name="Trazado 222151" d="M1625.569,1857.978c5.1-5.984,12.957-18.005,18.248-24.161a1.952,1.952,0,0,0-1.487-3.223H1632.7l9.082-20.537a.805.805,0,0,0-1.381-.807l-21.961,29.393a1.215,1.215,0,0,0,1.122,1.934l10.9-1.343-6.485,17.815A.935.935,0,0,0,1625.569,1857.978Z" transform="translate(-1461.325 -1808.919)" fill="#0f2771"/>
        <path id="Trazado_222152" data-name="Trazado 222152" d="M1246.339,2209.091c1.147-5.881,1.871-16.8,3.082-22.873a1.488,1.488,0,0,0-2.193-1.584l-6.4,3.6-1.65-17.038a.614.614,0,0,0-1.219-.02l-3.592,27.736a.926.926,0,0,0,1.469.865l6.738-4.969,2.356,14.258A.713.713,0,0,0,1246.339,2209.091Z" transform="translate(-1127.429 -2123.583)" fill="#fff"/>
        <g id="Grupo_210535" data-name="Grupo 210535" transform="translate(89.152 54.5)">
          <path id="Trazado_222153" data-name="Trazado 222153" d="M1251.148,2376.376l-109.574,9.232a10.968,10.968,0,0,1-10.935-15.4l46.423-103.894a10.968,10.968,0,0,1,19.138-1.612l63.151,94.662A10.969,10.969,0,0,1,1251.148,2376.376Z" transform="translate(-1125.506 -2255.654)" fill="#e6efff"/>
          <g id="Grupo_210532" data-name="Grupo 210532">
            <path id="Trazado_222154" data-name="Trazado 222154" d="M1223.663,2352.7l-109.574,9.232a15.128,15.128,0,0,1-15.082-21.246l46.423-103.894a15.128,15.128,0,0,1,26.4-2.224l63.151,94.662a15.127,15.127,0,0,1-11.314,23.469Zm-64.993-116.521a6.722,6.722,0,0,0-5.645,4.008L1106.6,2344.076a6.809,6.809,0,0,0,6.788,9.562l109.574-9.232a6.809,6.809,0,0,0,5.093-10.563l-63.152-94.662A6.723,6.723,0,0,0,1158.67,2236.175Z" transform="translate(-1097.672 -2227.83)" fill="#0f2771"/>
          </g>
          <g id="Grupo_210534" data-name="Grupo 210534" transform="translate(52.808 30.887)">
            <g id="Grupo_210533" data-name="Grupo 210533">
              <path id="Trazado_222155" data-name="Trazado 222155" d="M1509.2,2539.18a10.027,10.027,0,0,1,.427-3.98,9.183,9.183,0,0,1,1.875-3.293,9.842,9.842,0,0,1,3.148-2.334,12.279,12.279,0,0,1,4.311-1.106,12.549,12.549,0,0,1,4.468.367,9.786,9.786,0,0,1,3.527,1.772,9.189,9.189,0,0,1,2.4,2.933,10.047,10.047,0,0,1,1.086,3.852,9.8,9.8,0,0,1-.429,3.947,9.261,9.261,0,0,1-1.878,3.262,9.76,9.76,0,0,1-3.181,2.336,12.552,12.552,0,0,1-4.344,1.109,12.277,12.277,0,0,1-4.435-.37,9.812,9.812,0,0,1-3.494-1.774,9.241,9.241,0,0,1-2.4-2.9A9.788,9.788,0,0,1,1509.2,2539.18Zm16.941-19.823-15.783,1.33-6.779-53.74,20.255-1.707Z" transform="translate(-1503.579 -2465.239)" fill="#0f2771"/>
            </g>
          </g>
        </g>
        <g id="Grupo_210539" data-name="Grupo 210539" transform="translate(44.896 119.424)">
          <path id="Trazado_222156" data-name="Trazado 222156" d="M1023.8,2890.7s.344-.772.566-1.138,1.173-1.438,1.335-1.2.809,1.876.465,2.334.022,1.254-1.688,1.735Z" transform="translate(-989.155 -2867.322)" fill="#ffb27d"/>
          <path id="Trazado_222157" data-name="Trazado 222157" d="M877.727,2869.036s8.754,7.308,12.167,6.631c2.669-.529,6.889-1.867,6.889-1.867a2.692,2.692,0,0,1,.8,2.329s-5.376,5.059-9.206,5.092c-5.987.051-8.811-2.967-8.811-2.967Z" transform="translate(-862.086 -2850.538)" fill="#ed992b"/>
          <path id="Trazado_222158" data-name="Trazado 222158" d="M759.719,3452.663s.254,4.1,1.047,4.158c.106.008,4.023.008,4.023.008l5-.029a1.622,1.622,0,0,0-1.494-1.459c-1.462-.255-3.908-1.282-4.794-3.214C762.57,3450.094,759.719,3452.663,759.719,3452.663Z" transform="translate(-759.431 -3357.089)" fill="#113c68"/>
          <path id="Trazado_222159" data-name="Trazado 222159" d="M757.5,3125.266a10.426,10.426,0,0,0,2.707.509,9.944,9.944,0,0,0,2.527-.36,69.193,69.193,0,0,1,1.861-8.866c.826-3.2,2-7.306,3.682-12.412,4.638-14.113,6.049-22.369,6.177-23.151.007-.041.01-.062.01-.062l-.015-.007-14.26-6.261s1.762,19.451-.486,26.917a31.492,31.492,0,0,0-.816,3.577C757.47,3113.26,757.5,3125.266,757.5,3125.266Z" transform="translate(-757.503 -3029.408)" fill="#2a4e96"/>
          <path id="Trazado_222160" data-name="Trazado 222160" d="M779.24,3116.549c.826-3.2,2-7.306,3.682-12.412,4.638-14.113,6.049-22.369,6.177-23.151,0-.023,0-.045-.005-.068l-14.26-6.261s1.762,19.451-.486,26.917C774.033,3102.616,779.24,3116.549,779.24,3116.549Z" transform="translate(-772.145 -3029.408)" fill="#233862"/>
          <path id="Trazado_222161" data-name="Trazado 222161" d="M845.326,3452.663s.254,4.1,1.047,4.158c.106.008,4.023.008,4.023.008l5-.029a1.622,1.622,0,0,0-1.494-1.459c-1.462-.255-3.908-1.282-4.794-3.214C848.177,3450.094,845.326,3452.663,845.326,3452.663Z" transform="translate(-833.9 -3357.089)" fill="#15447c"/>
          <path id="Trazado_222162" data-name="Trazado 222162" d="M806.1,3078.18a203.006,203.006,0,0,1-2,28.08c-2.181,15.476-1.441,22.045-1.441,22.045a14.8,14.8,0,0,1-2.1.534,9.539,9.539,0,0,1-3.12-.361s-3.121-15.482-2.227-23.228-4.274-26.581-4.274-26.581Z" transform="translate(-786.585 -3032.473)" fill="#2a4e96"/>
          <path id="Trazado_222163" data-name="Trazado 222163" d="M829.749,2809.8l2.783,1.825,2.536-.717a6.054,6.054,0,0,0,.593-3.039,18.874,18.874,0,0,0-.1-2.025l-3.755-1.657-1.4-.617c0,.021.109,1.15.124,1.315A9.584,9.584,0,0,1,829.749,2809.8Z" transform="translate(-820.35 -2793.588)" fill="#ffb27d"/>
          <path id="Trazado_222164" data-name="Trazado 222164" d="M790.456,2877.39c-3.464,3.345-16.577,2.783-17.385-.9s.881-31.374,6.8-33.113c1.228-.361,7.794,1.761,7.794,1.761a41.64,41.64,0,0,1,1.706,6.126c.131.668.514,7.743.8,14.363.133,3.1.247,6.093.3,8.287A23.914,23.914,0,0,1,790.456,2877.39Z" transform="translate(-770.881 -2828.179)" fill="#feca2e"/>
          <path id="Trazado_222165" data-name="Trazado 222165" d="M837.186,2809.06c.762,1.288,3.435,2.416,4.851,2.932a18.853,18.853,0,0,0-.1-2.024l-3.755-1.657C837.353,2808.3,836.847,2808.485,837.186,2809.06Z" transform="translate(-826.726 -2797.713)" fill="#fca56b"/>
          <path id="Trazado_222166" data-name="Trazado 222166" d="M828.891,2752.707s-6.051,1.887-7.168-1.9-2.651-6.093,1.165-7.458,5-.143,5.677,1.03S830.436,2752.118,828.891,2752.707Z" transform="translate(-812.263 -2740.68)" fill="#ffb27d"/>
          <path id="Trazado_222167" data-name="Trazado 222167" d="M810.725,2730.193s-.386,4.406-1.3,4.215-1.914-.6-1.781.728-.886,3.6-2.2,3.6c-2.818-.011-5.88-7.242-5.108-8.614C802.565,2726.165,813.942,2725.366,810.725,2730.193Z" transform="translate(-794.661 -2726.858)" fill="#163560"/>
          <path id="Trazado_222168" data-name="Trazado 222168" d="M832.781,2831.961c-.078-.033-4.5-2.019-5.022-1.848s-1.163,1.752-1.163,1.752l7.794,1.762A3.871,3.871,0,0,0,832.781,2831.961Z" transform="translate(-817.607 -2816.671)" fill="#edab2b"/>
          <g id="Grupo_210537" data-name="Grupo 210537" transform="translate(15.598 2.79)">
            <path id="Trazado_222169" data-name="Trazado 222169" d="M904.526,2993.342,879.713,3016.7c-.486.458-1.1.6-1.363.324l-.838-.89c-.263-.279-.081-.883.406-1.341l24.813-23.362c.486-.458,1.1-.6,1.363-.324l.838.889C905.194,2992.281,905.012,2992.885,904.526,2993.342Z" transform="translate(-877.392 -2959.399)" fill="#1f4d84"/>
            <path id="Trazado_222170" data-name="Trazado 222170" d="M890.6,3097.229l-10.888,10.252c-.486.458-1.1.6-1.363.324l-.838-.889c-.263-.28-.081-.883.406-1.341l10.888-10.252Z" transform="translate(-877.392 -3050.176)" fill="#739af0"/>
            <path id="Trazado_222171" data-name="Trazado 222171" d="M1036.478,2773.428a19.449,19.449,0,1,0,32.235-19.544c-.1-.1-.2-.2-.305-.294a19.449,19.449,0,0,0-31.93,19.839Zm5.559-17.949a17.914,17.914,0,1,1,.772,25.321A17.892,17.892,0,0,1,1042.036,2755.479Z" transform="translate(-1015.047 -2748.305)" fill="#1f4d84"/>
            <g id="Grupo_210536" data-name="Grupo 210536" transform="translate(22.122 1.535)" opacity="0.5">
              <path id="Trazado_222172" data-name="Trazado 222172" d="M1078.391,2790.293a17.914,17.914,0,1,1-.772-25.32A17.84,17.84,0,0,1,1078.391,2790.293Z" transform="translate(-1047.432 -2760.108)" fill="#b3cff9"/>
            </g>
          </g>
          <path id="Trazado_222173" data-name="Trazado 222173" d="M824.138,2926.308c-13.672-9.743-12.535-22.742-12.535-22.742,5,2.818,9.956,9.05,12.231,14.455C823.967,2921.117,824.08,2924.114,824.138,2926.308Z" transform="translate(-804.544 -2880.576)" fill="#ed992b"/>
          <g id="Grupo_210538" data-name="Grupo 210538" transform="translate(6.773 16.957)">
            <path id="Trazado_222174" data-name="Trazado 222174" d="M1000.881,3037.061a3.732,3.732,0,0,0,1.746-1.079s.411.028-.067.905c-.04.073-.129.262-.2.4a.085.085,0,0,0,.072.122,9.117,9.117,0,0,1,2.187.046c.148.031.191.385.185.536a1.367,1.367,0,0,1-.288.934,4.777,4.777,0,0,1-1.727.9,5.228,5.228,0,0,1-2.673-.336l-.875-.405.271-1.627.22.046C1000.085,3037.576,1000.517,3037.15,1000.881,3037.061Z" transform="translate(-974.567 -3012.721)" fill="#ffb27d"/>
            <path id="Trazado_222175" data-name="Trazado 222175" d="M814.094,2857.194s-12.285,2.339,3.614,20.129c2.543,2.845,16.281,6.55,16.281,6.55s1.393-1.186.691-2.146c0,0-9.459-6.868-11.54-7.961-.936-.491-3.634-10.963-5.16-13.485A6.881,6.881,0,0,0,814.094,2857.194Z" transform="translate(-809.566 -2857.194)" fill="#feca2e"/>
          </g>
          <path id="Trazado_222176" data-name="Trazado 222176" d="M1026.36,2888.178a6.266,6.266,0,0,0,.48-1.173,6.477,6.477,0,0,1,.793-1.794c.084-.083.359.024.391.382a2.08,2.08,0,0,1-.2.777,8.78,8.78,0,0,0-.26,1.544C1027.377,2888.533,1026.36,2888.178,1026.36,2888.178Z" transform="translate(-991.382 -2864.586)" fill="#ffb27d"/>
        </g>
        <g id="Grupo_210541" data-name="Grupo 210541" transform="translate(65.584 54.299)">
          <g id="Grupo_210540" data-name="Grupo 210540">
            <path id="Trazado_222177" data-name="Trazado 222177" d="M1062.661,2629.476a.74.74,0,0,0-.132.792l0,0a4.926,4.926,0,0,0,1.556,1.708c.094.076.177.145.25.208l.056.05.043.039c.684.631.426.775,1.655,2.055,1.4,1.459,2.366,1.485,2.64,1.353.232-.113-.239-.887-.762-1.756l-.076-.127c-.07-.115-.139-.233-.208-.349-.612-1.046-.455-1.537-.309-3.094.118-1.265,1.971-7.067,1.971-7.067l-2.685-.463s-.811,4.62-1.7,5.332c-.477.379-1.01.384-1.468.665-.032.02-.064.04-.1.06A3.512,3.512,0,0,0,1062.661,2629.476Z" transform="translate(-1043.482 -2571.239)" fill="#ffb27d"/>
            <path id="Trazado_222178" data-name="Trazado 222178" d="M1062.661,2669.972a.74.74,0,0,0-.132.792l0,0a5.7,5.7,0,0,0,1.558,1.7c.093.077.174.147.247.214.019.017.038.033.056.05l.043.039c.684.63.426.775,1.655,2.055,1.4,1.459,2.366,1.486,2.64,1.353.232-.113-.239-.887-.762-1.756a5.973,5.973,0,0,1-2.5-1.841c-.813-1.038-1.365-2.361-1.917-3.173l-.158-.03A3.531,3.531,0,0,0,1062.661,2669.972Z" transform="translate(-1043.482 -2611.734)" fill="#233862"/>
            <path id="Trazado_222179" data-name="Trazado 222179" d="M1216.042,2622.383c.166.829,1.347.691,2.667.369s1.006.061,2.886-.146,2.448-.908,2.506-1.187c.051-.248-.877-.336-1.873-.451l-.377-.045a8.13,8.13,0,0,1-2.968-1.463,11.922,11.922,0,0,1-2.41-2.865l-2.577.2s1.351,2.054,1.874,2.947a3.111,3.111,0,0,1,.252,1.756A3.3,3.3,0,0,0,1216.042,2622.383Z" transform="translate(-1175.208 -2565.815)" fill="#ffb27d"/>
            <path id="Trazado_222180" data-name="Trazado 222180" d="M1232.8,2651.993c1.32-.322,1.006.062,2.885-.146s2.448-.908,2.506-1.187c.051-.248-.877-.335-1.873-.451l-.009.019a5.3,5.3,0,0,1-2.691.835c-1.275.031-2.625-.335-3.505-.321a3.3,3.3,0,0,0,.019.882C1230.294,2652.453,1231.476,2652.315,1232.8,2651.993Z" transform="translate(-1189.294 -2595.057)" fill="#233862"/>
            <path id="Trazado_222181" data-name="Trazado 222181" d="M1095.394,2506.789l-2.411,6.481-3.147,8.462a5.08,5.08,0,0,1-1.671-.153,7.239,7.239,0,0,1-1.616-.787s.876-9.087,2.507-14.3a9.292,9.292,0,0,1,1.4-3.031C1092.985,2500.474,1095.394,2506.789,1095.394,2506.789Z" transform="translate(-1064.429 -2466.701)" fill="#233862"/>
            <path id="Trazado_222182" data-name="Trazado 222182" d="M979.934,2446.582c-1.371-.443-4.949-.009-8.829.692a2.632,2.632,0,0,1-2.717-1.228h0l-9.766-.766s-3.225,7.146-1.462,11.7a1.713,1.713,0,0,0,1.706,1.1h0s5.9.01,7.789.011c4.857,0,10.279-3.335,10.981-3.475,1.148-.229,1.606,2.067,2.754,4.478s10.788,10.68,10.788,10.68a8.506,8.506,0,0,0,2.094-.214,2.06,2.06,0,0,0,.9-.568S983.492,2447.731,979.934,2446.582Z" transform="translate(-951.414 -2416.789)" fill="#2a4e96"/>
            <path id="Trazado_222183" data-name="Trazado 222183" d="M932.732,2226.863a3.464,3.464,0,0,0-1.865-.486,5.147,5.147,0,0,1-.9-.055c-3.727-.548-5.973,4.865-6.105,6.5-.242,3-1.831,3.461-4.068,5.341-4.485,3.77-3.172,8.153-.721,9.782,1.471.978,4.064,0,4.064,0,.037.026,7.093-3.941,10.571-5.855C938.92,2241.353,934.826,2228.11,932.732,2226.863Z" transform="translate(-916.786 -2226.283)" fill="#233862"/>
            <path id="Trazado_222184" data-name="Trazado 222184" d="M992.37,2298.689a4.6,4.6,0,0,1-2.865.087,5.108,5.108,0,0,1-1.892-2.268c.494-.023,1.036-.455,1.455-3.289l.21.076,3.536,1.274s-.257,1.135-.423,2.215C992.252,2297.692,992.176,2298.561,992.37,2298.689Z" transform="translate(-978.364 -2284.511)" fill="#ffb27d"/>
            <path id="Trazado_222185" data-name="Trazado 222185" d="M1003.951,2295.074s-.141.612-.348,1.756a3.993,3.993,0,0,1-3.189-3.03Z" transform="translate(-989.501 -2285.016)" fill="#ed975d"/>
            <path id="Trazado_222186" data-name="Trazado 222186" d="M1002.111,2255.333s-4.839-.651-4.387-3.659.132-5.116,3.24-4.828,3.535,1.526,3.628,2.567S1003.381,2255.425,1002.111,2255.333Z" transform="translate(-987.134 -2244.149)" fill="#ffb27d"/>
            <path id="Trazado_222187" data-name="Trazado 222187" d="M995.137,2245.989s-3.1,2.669-5.206,2.883-2.9-.462-2.9-.462a8.223,8.223,0,0,0,1.99-2.694,1.482,1.482,0,0,1,1.222-.873C991.744,2244.713,994.6,2244.654,995.137,2245.989Z" transform="translate(-977.854 -2242.373)" fill="#233862"/>
            <path id="Trazado_222188" data-name="Trazado 222188" d="M1034.484,2248.368a7.624,7.624,0,0,1,1.362,1.746,5.854,5.854,0,0,1,.158,3.114s1.616-3.139.7-4.665A1.29,1.29,0,0,0,1034.484,2248.368Z" transform="translate(-1019.137 -2244.992)" fill="#233862"/>
            <path id="Trazado_222189" data-name="Trazado 222189" d="M968.654,2327.042c-.15,9.8-.043,7.749-1.115,8.678a4.113,4.113,0,0,1-1.939.419c-3,.2-8.284-.3-8.484-.853-.692-1.921-.2-2.518-.78-5.458-.06-.313-.134-.651-.222-1.02-.481-2.02-.95-2.707.761-5.951,1.552-2.939,3.163-5.323,3.308-5.237,4.09,2.43,4.421.389,4.421.389S968.728,2322.264,968.654,2327.042Z" transform="translate(-950.576 -2305.735)" fill="#feca2e"/>
            <path id="Trazado_222190" data-name="Trazado 222190" d="M1092.983,2538.891l-3.147,8.462a5.092,5.092,0,0,1-1.671-.153,7.239,7.239,0,0,1-1.616-.787s.876-9.087,2.507-14.3Z" transform="translate(-1064.429 -2492.322)" fill="#2a4e96"/>
            <path id="Trazado_222191" data-name="Trazado 222191" d="M1024.348,2320.619s4.209.715,4.7,2.528,2.117,12.814,2.117,12.814-1.187,1.159-2.176.17-3.108-10.294-3.108-10.294Z" transform="translate(-1010.32 -2308.346)" fill="#feca2e"/>
            <path id="Trazado_222192" data-name="Trazado 222192" d="M970.062,2390.51c-3,.2-8.284-.3-8.484-.853-.692-1.921-.2-2.518-.78-5.458l1.45-4.079s-.241,4.542,1.1,5.738,5.484,2.309,6.135,3.307A3.654,3.654,0,0,1,970.062,2390.51Z" transform="translate(-955.038 -2360.106)" fill="#edab2b"/>
            <path id="Trazado_222193" data-name="Trazado 222193" d="M1005.558,2442.231s2.964-.659,3.442-.4a6.962,6.962,0,0,1,1.792,1.554c.146.333-1.065-.253-1.458-.359a3.515,3.515,0,0,0-1.259.275,4.184,4.184,0,0,1-2.256.226Z" transform="translate(-993.975 -2413.738)" fill="#ffb27d"/>
            <path id="Trazado_222194" data-name="Trazado 222194" d="M926.128,2317.619s-3.979.244-5.357,2.164c-1.94,2.7-5.79,14.228-3.586,15.765,2.482,1.732,11.3.457,11.3.457a3.582,3.582,0,0,0-.114-2.035c-.408-.663-7.041-1.737-7.347-2.043s3.829-5.969,3.829-6.887S926.128,2317.619,926.128,2317.619Z" transform="translate(-916.523 -2305.736)" fill="#feca2e"/>
            <path id="Trazado_222195" data-name="Trazado 222195" d="M1033.112,2448.59a5.709,5.709,0,0,0,.824.9.6.6,0,0,0,.335.072l-.418-.753Z" transform="translate(-1017.944 -2419.668)" fill="#ffb27d"/>
            <path id="Trazado_222196" data-name="Trazado 222196" d="M1032.011,2442.251l1.8.877a.322.322,0,0,1-.3.115,4.309,4.309,0,0,1-.783-.215Z" transform="translate(-1016.986 -2414.154)" fill="#ffb27d"/>
          </g>
          <path id="Trazado_222197" data-name="Trazado 222197" d="M1024.409,2458.088l-18.856-.007v.416l18.689.007Z" transform="translate(-993.97 -2427.925)" fill="#233862"/>
          <path id="Trazado_222198" data-name="Trazado 222198" d="M1039.444,2389.879l14.28,0,4.3-10.68-14.257,0Z" transform="translate(-1023.452 -2359.305)" fill="#233862"/>
          <path id="Trazado_222199" data-name="Trazado 222199" d="M1112.233,2415.721a.5.5,0,0,0-.485-.68.975.975,0,0,0-.875.68.5.5,0,0,0,.485.68A.974.974,0,0,0,1112.233,2415.721Z" transform="translate(-1085.564 -2390.484)" fill="#fff"/>
        </g>
        <g id="Grupo_210543" data-name="Grupo 210543" transform="translate(172.13 124.909)">
          <path id="Trazado_222200" data-name="Trazado 222200" d="M1805.361,2769.266a4.1,4.1,0,0,0-3.255.167c-5.539.228-5.744,5.9-5.094,8.018.913,2.968-2.318,5.307,1.265,6.509,4.158,1.393,7.647-.26,7.409.458C1818.834,2785.453,1809.735,2770.719,1805.361,2769.266Z" transform="translate(-1788.597 -2769.02)" fill="#163560"/>
          <path id="Trazado_222201" data-name="Trazado 222201" d="M1765.463,2904.454a14.52,14.52,0,0,1-1.481,2.239c-1.151,1.441-7.189-1.979-6.669-2.239s3.555-9,4.277-10.1,3.185-1.669,3.185-1.669Z" transform="translate(-1754.445 -2876.595)" fill="#feca2e"/>
          <path id="Trazado_222202" data-name="Trazado 222202" d="M1936.434,3431.541s1.667,1.521,1.342,2.6-1.829,1.8-2.033,3.122-1.016,2.042-1.748,2.042h-3.489s-.539-.93.762-1.21,1.791-1.832,1.71-3.273a25.4,25.4,0,0,1,.122-3.362l2.764-.641Z" transform="translate(-1905.037 -3344.72)" fill="#1f447f"/>
          <path id="Trazado_222203" data-name="Trazado 222203" d="M1804.875,3441.322s.6,6.444-.132,6.8l-9.365-.019s0-1.081,1.5-1.321,4.147-1.121,4.594-3.082S1804.875,3441.322,1804.875,3441.322Z" transform="translate(-1787.585 -3353.856)" fill="#1c3154"/>
          <path id="Trazado_222204" data-name="Trazado 222204" d="M1810.615,2896.7a37.3,37.3,0,0,1,0,4.328c-.093,1.565-1.676,3.661-1.9,4.18-.563,1.3-1.2,1.512-1.2,1.512l-4.917,1.2-1.729.423-5.452-1.628s-2.483-6.931-1.486-10.833a29.987,29.987,0,0,1,2.521-6.611,38.9,38.9,0,0,1,10.241-.369Z" transform="translate(-1786.121 -2873.187)" fill="#feca2e"/>
          <path id="Trazado_222205" data-name="Trazado 222205" d="M1864.676,2955.092c-.093,1.565-2.144,3.606-2.369,4.125-.564,1.3-1.2,1.512-1.2,1.512l-4.917,1.205-.888-2.545s7.184-1.887,6.029-8.536Z" transform="translate(-1839.714 -2927.197)" fill="#ed9f2b"/>
          <path id="Trazado_222206" data-name="Trazado 222206" d="M1790.359,3034.849s-2.7,8.4-2.873,11.265,5.161,40.646,5.376,41.964c.2,1.243,1.745,2.035,1.745,2.035a2.337,2.337,0,0,0,1.723.133,4.262,4.262,0,0,0,1.85-.872s2.1-26.948.8-36.574a152.5,152.5,0,0,1-1.316-17.951Z" transform="translate(-1780.715 -3000.265)" fill="#233862"/>
          <path id="Trazado_222207" data-name="Trazado 222207" d="M1826.98,3032.923s4.119,5.526,4.5,9.261.6,16.856,1.42,20.5,3.823,10.649,3.823,22.007a2.266,2.266,0,0,1-1.277,1,10.43,10.43,0,0,1-1.123.311,1.766,1.766,0,0,1-1.975-.937c-2.032-4.091-8.5-17.285-8.836-20.024-.235-1.938-2.278-14.766-6.736-22.293-1.07-1.807.657-8.993.657-8.993Z" transform="translate(-1805.898 -2998.59)" fill="#2a4e96"/>
          <path id="Trazado_222208" data-name="Trazado 222208" d="M1805.259,3024.877a5.66,5.66,0,0,0,3.237.9c2.572.052,8.945-.656,8.945-.656a5.27,5.27,0,0,1,.272,1.626s-7.784,1.963-12.293.287A2.85,2.85,0,0,1,1805.259,3024.877Z" transform="translate(-1796.047 -2991.59)" fill="#233862"/>
          <g id="Grupo_210542" data-name="Grupo 210542" transform="translate(10.659 33.747)">
            <path id="Trazado_222209" data-name="Trazado 222209" d="M1818.575,3031.073a1.338,1.338,0,1,1,1.174-1.328A1.259,1.259,0,0,1,1818.575,3031.073Zm0-2.267a.955.955,0,1,0,.785.939A.873.873,0,0,0,1818.575,3028.806Z" transform="translate(-1817.402 -3028.417)" fill="#fff"/>
          </g>
          <path id="Trazado_222210" data-name="Trazado 222210" d="M1752.931,2976.951l-11.7.11-5.757-13.529,11.7-.109Z" transform="translate(-1735.476 -2938.132)" fill="#b5453c"/>
          <path id="Trazado_222211" data-name="Trazado 222211" d="M1817.756,3006.1l-.858-1.053a3.013,3.013,0,0,0-1-.605c-.421-.088-1.31-.6-1.4-.457s.683,1.176.683,1.176l.039.006c-.883.664-3.113.078-3.388.349-.334.329.459,1.039.884,1.437a3.122,3.122,0,0,0,2.59.769c.693-.216,1.784-.435,1.784-.435Z" transform="translate(-1801.831 -2973.394)" fill="#ffb27d"/>
          <path id="Trazado_222212" data-name="Trazado 222212" d="M1741.738,2978.922s.735-.835,1.2-.434-.123,2.372-.568,2.172S1741.482,2979.167,1741.738,2978.922Z" transform="translate(-1740.858 -2951.142)" fill="#ffb27d"/>
          <path id="Trazado_222213" data-name="Trazado 222213" d="M1853.889,2889.845s3.349.369,5.752,4.736c1.9,3.443,5.135,9.791,3.912,11.584-.537.787-5.681,3.589-15.6,1.987a3,3,0,0,1,.957-1.834s8.351-2.681,8.336-3.214c-.027-1.009-1.128-1.881-5.793-6.547C1850.182,2895.289,1853.889,2889.845,1853.889,2889.845Z" transform="translate(-1833.317 -2874.125)" fill="#feca2e"/>
          <path id="Trazado_222214" data-name="Trazado 222214" d="M1839.974,2856.967c.115-.155-.033-.646-.217-1.562a17.12,17.12,0,0,1-.443-3.558l-.247.042-4.151.7s.095,1.11.1,2.155v.026c.005.908-.245,2.28.061,2.459C1836.648,2858.149,1839.532,2857.562,1839.974,2856.967Z" transform="translate(-1821.98 -2841.071)" fill="#ffb27d"/>
          <path id="Trazado_222215" data-name="Trazado 222215" d="M1834.917,2852.864s.083,1.565.085,2.61c2.323-.056,3.562-2.311,4.065-3.309Z" transform="translate(-1821.98 -2841.348)" fill="#e8945b"/>
          <path id="Trazado_222216" data-name="Trazado 222216" d="M1813.94,2807.71s5.441-.775,4.906-4.156-.193-5.758-3.689-5.406-3.966,1.749-4.062,2.92S1812.511,2807.824,1813.94,2807.71Z" transform="translate(-1801.253 -2794.328)" fill="#ffb27d"/>
          <path id="Trazado_222217" data-name="Trazado 222217" d="M1823.247,2794.5s2.118,3.729,4.491,3.953,3.266-.545,3.266-.545a6.539,6.539,0,0,1-2.72-3.479S1824.067,2792.435,1823.247,2794.5Z" transform="translate(-1811.828 -2790.371)" fill="#163560"/>
          <path id="Trazado_222218" data-name="Trazado 222218" d="M1809.892,2799.417a3.409,3.409,0,0,0-1.361,1.463,5.531,5.531,0,0,0-.24,3.22s-1.549-2.517-.534-4.243C1808.834,2798.028,1809.892,2799.417,1809.892,2799.417Z" transform="translate(-1798.054 -2795.023)" fill="#163560"/>
        </g>
        <rect id="Rectángulo_295404" data-name="Rectángulo 295404" width="302.37" height="0.972" rx="0.486" transform="translate(1.854 219.009)" fill="#233862"/>
      </g>
      <g id="Grupo_210545" data-name="Grupo 210545" transform="translate(253.05 128.717)">
        <g id="Grupo_169414" data-name="Grupo 169414" transform="translate(2.141 1.063)">
          <g id="Grupo_169408" data-name="Grupo 169408" transform="translate(0 0.313)">
            <g id="Grupo_169407" data-name="Grupo 169407">
              <g id="Grupo_169406" data-name="Grupo 169406">
                <g id="Grupo_169405" data-name="Grupo 169405">
                  <path id="Trazado_207775" data-name="Trazado 207775" d="M2373.929,2809.057a.258.258,0,0,1,.322-.172.27.27,0,0,1,.2.321l0,.007a.258.258,0,0,1-.322.172.27.27,0,0,1-.2-.321Z" transform="translate(-2373.92 -2808.874)" fill="#283237"/>
                </g>
              </g>
            </g>
          </g>
          <g id="Grupo_169413" data-name="Grupo 169413" transform="translate(0.025)">
            <g id="Grupo_169412" data-name="Grupo 169412">
              <g id="Grupo_169411" data-name="Grupo 169411">
                <g id="Grupo_169410" data-name="Grupo 169410">
                  <g id="Grupo_169409" data-name="Grupo 169409">
                    <path id="Trazado_207776" data-name="Trazado 207776" d="M2374.246,2806.527a.711.711,0,0,1,.44-.043.737.737,0,0,1,.39.22c.076.086.1.155.077.167-.038.028-.215-.163-.5-.221s-.515.042-.54,0C2374.1,2806.63,2374.145,2806.575,2374.246,2806.527Z" transform="translate(-2374.112 -2806.467)" fill="#283237"/>
                  </g>
                </g>
              </g>
            </g>
          </g>
        </g>
        <g id="Grupo_169419" data-name="Grupo 169419" transform="translate(0 0.79)">
          <g id="Grupo_169418" data-name="Grupo 169418">
            <g id="Grupo_169417" data-name="Grupo 169417">
              <g id="Grupo_169416" data-name="Grupo 169416">
                <g id="Grupo_169415" data-name="Grupo 169415">
                  <path id="Trazado_207777" data-name="Trazado 207777" d="M2357.678,2806.6a.486.486,0,0,1-.12-.044.185.185,0,0,1-.1-.132.427.427,0,0,1,.1-.276l.326-.51a9.709,9.709,0,0,1,.9-1.27,9.849,9.849,0,0,1-.795,1.338l-.334.5a.38.38,0,0,0-.1.2c0,.052.067.081.138.1a1.918,1.918,0,0,1,.443.183A1.878,1.878,0,0,1,2357.678,2806.6Z" transform="translate(-2357.463 -2804.367)" fill="#283237"/>
                </g>
              </g>
            </g>
          </g>
        </g>
        <g id="Grupo_169426" data-name="Grupo 169426" transform="translate(2.336)">
          <g id="Grupo_169425" data-name="Grupo 169425">
            <g id="Grupo_169424" data-name="Grupo 169424">
              <g id="Grupo_169423" data-name="Grupo 169423">
                <path id="Trazado_207778" data-name="Trazado 207778" d="M2375.626,2798.3a1.153,1.153,0,0,1,.959.322c.092.1.123.181.1.21-.059.06-.306-.1-.633-.2s-.615-.137-.626-.22C2375.418,2798.372,2375.493,2798.324,2375.626,2798.3Z" transform="translate(-2375.422 -2798.292)" fill="#283237"/>
              </g>
            </g>
          </g>
        </g>
        <g id="Grupo_169437" data-name="Grupo 169437" transform="translate(0.275 3.785)">
          <path id="Trazado_207781" data-name="Trazado 207781" d="M2359.58,2827.511l.662-.114a.3.3,0,0,1,.147,0c.113.039.136.189.116.307a.626.626,0,0,1-.171.35.392.392,0,0,1-.363.106.437.437,0,0,1-.266-.243,1.3,1.3,0,0,1-.095-.358" transform="translate(-2359.58 -2827.387)" fill="#a06854"/>
        </g>
        <g id="Grupo_169439" data-name="Grupo 169439" transform="translate(0.142 3.734)">
          <g id="Grupo_169438" data-name="Grupo 169438">
            <path id="Trazado_207782" data-name="Trazado 207782" d="M2358.929,2827.83a.5.5,0,0,0,.266.047.533.533,0,0,0,.363-.183.584.584,0,0,0,.125-.483.519.519,0,0,0-.043-.13.173.173,0,0,0-.055-.068.15.15,0,0,0-.09-.023,1.139,1.139,0,0,0-.121.022l-.108.022c-.141.03-.267.059-.373.084a.178.178,0,1,0,.015.077c.108-.016.236-.036.377-.06l.109-.019c.035-.006.079-.016.106-.017s.023,0,.042.03a.46.46,0,0,1,.033.1.5.5,0,0,1-.094.4.473.473,0,0,1-.294.169.9.9,0,0,1-.333-.031C2358.849,2827.773,2358.872,2827.8,2358.929,2827.83Z" transform="translate(-2358.554 -2826.99)" fill="#283237"/>
          </g>
        </g>
      </g>
      <g id="Grupo_210546" data-name="Grupo 210546" transform="translate(182.374 131.889)">
        <g id="Grupo_169432" data-name="Grupo 169432">
          <g id="Grupo_169431" data-name="Grupo 169431">
            <g id="Grupo_169422" data-name="Grupo 169422" transform="translate(0.054 1.045)">
              <g id="Grupo_169421" data-name="Grupo 169421">
                <g id="Grupo_169420" data-name="Grupo 169420">
                  <g id="Grupo_169404" data-name="Grupo 169404" transform="translate(0 0.488)">
                    <g id="Grupo_169398" data-name="Grupo 169398" transform="translate(0.115 0.349)">
                      <g id="Grupo_169397" data-name="Grupo 169397">
                        <g id="Grupo_169396" data-name="Grupo 169396">
                          <g id="Grupo_169395" data-name="Grupo 169395">
                            <path id="Trazado_207773" data-name="Trazado 207773" d="M1815.52,2837.43a.262.262,0,0,1,.238-.283.274.274,0,0,1,.314.216v.008a.261.261,0,0,1-.238.283.273.273,0,0,1-.314-.216Z" transform="translate(-1815.519 -2837.144)" fill="#283237"/>
                          </g>
                        </g>
                      </g>
                    </g>
                    <g id="Grupo_169403" data-name="Grupo 169403">
                      <g id="Grupo_169402" data-name="Grupo 169402">
                        <g id="Grupo_169401" data-name="Grupo 169401">
                          <g id="Grupo_169400" data-name="Grupo 169400">
                            <g id="Grupo_169399" data-name="Grupo 169399">
                              <path id="Trazado_207774" data-name="Trazado 207774" d="M1814.72,2834.685a.744.744,0,0,1,.4-.212.784.784,0,0,1,.458.047c.106.048.152.1.14.122-.025.041-.269-.065-.562-.006s-.473.24-.513.213C1814.624,2834.836,1814.643,2834.769,1814.72,2834.685Z" transform="translate(-1814.636 -2834.458)" fill="#283237"/>
                            </g>
                          </g>
                        </g>
                      </g>
                    </g>
                  </g>
                  <g id="Grupo_169414-2" data-name="Grupo 169414" transform="translate(2.9)">
                    <g id="Grupo_169408-2" data-name="Grupo 169408" transform="translate(0.113 0.398)">
                      <g id="Grupo_169407-2" data-name="Grupo 169407">
                        <g id="Grupo_169406-2" data-name="Grupo 169406">
                          <g id="Grupo_169405-2" data-name="Grupo 169405">
                            <path id="Trazado_207775-2" data-name="Trazado 207775" d="M1837.792,2834.047a.262.262,0,0,1,.238-.283.274.274,0,0,1,.314.216v.007a.262.262,0,0,1-.238.283.274.274,0,0,1-.314-.216Z" transform="translate(-1837.791 -2833.761)" fill="#283237"/>
                          </g>
                        </g>
                      </g>
                    </g>
                    <g id="Grupo_169413-2" data-name="Grupo 169413">
                      <g id="Grupo_169412-2" data-name="Grupo 169412">
                        <g id="Grupo_169411-2" data-name="Grupo 169411">
                          <g id="Grupo_169410-2" data-name="Grupo 169410">
                            <g id="Grupo_169409-2" data-name="Grupo 169409">
                              <path id="Trazado_207776-2" data-name="Trazado 207776" d="M1837.008,2830.932a.749.749,0,0,1,.4-.212.782.782,0,0,1,.458.048c.107.048.153.1.14.122-.026.041-.269-.064-.562-.006s-.473.24-.513.212C1836.911,2831.083,1836.93,2831.016,1837.008,2830.932Z" transform="translate(-1836.924 -2830.705)" fill="#283237"/>
                            </g>
                          </g>
                        </g>
                      </g>
                    </g>
                  </g>
                  <g id="Grupo_169419-2" data-name="Grupo 169419" transform="translate(1.447 0.306)">
                    <g id="Grupo_169418-2" data-name="Grupo 169418">
                      <g id="Grupo_169417-2" data-name="Grupo 169417">
                        <g id="Grupo_169416-2" data-name="Grupo 169416">
                          <g id="Grupo_169415-2" data-name="Grupo 169415">
                            <path id="Trazado_207777-2" data-name="Trazado 207777" d="M1826.069,2835.53a.523.523,0,0,1-.131.007.19.19,0,0,1-.144-.082.414.414,0,0,1-.015-.292q.051-.283.107-.594a9.476,9.476,0,0,1,.351-1.514,9.413,9.413,0,0,1-.224,1.534l-.117.592a.362.362,0,0,0-.009.224c.022.047.1.048.172.042a2.007,2.007,0,0,1,.493-.007A2.034,2.034,0,0,1,1826.069,2835.53Z" transform="translate(-1825.76 -2833.055)" fill="#283237"/>
                          </g>
                        </g>
                      </g>
                    </g>
                  </g>
                </g>
              </g>
            </g>
            <g id="Grupo_169426-2" data-name="Grupo 169426" transform="translate(2.67)">
              <g id="Grupo_169425-2" data-name="Grupo 169425">
                <g id="Grupo_169424-2" data-name="Grupo 169424">
                  <g id="Grupo_169423-2" data-name="Grupo 169423">
                    <path id="Trazado_207778-2" data-name="Trazado 207778" d="M1834.894,2822.831a1.228,1.228,0,0,1,1.039-.083c.127.053.189.117.175.154-.033.078-.329.032-.682.064s-.639.116-.683.045C1834.724,2822.977,1834.776,2822.9,1834.894,2822.831Z" transform="translate(-1834.74 -2822.67)" fill="#283237"/>
                  </g>
                </g>
              </g>
            </g>
            <g id="Grupo_169430" data-name="Grupo 169430" transform="translate(0 0.682)">
              <g id="Grupo_169429" data-name="Grupo 169429">
                <g id="Grupo_169428" data-name="Grupo 169428">
                  <g id="Grupo_169427" data-name="Grupo 169427">
                    <path id="Trazado_207779" data-name="Trazado 207779" d="M1814.293,2828.137a.756.756,0,0,1,.8-.174c.1.044.146.1.132.139-.035.077-.251.061-.493.117s-.433.154-.5.1C1814.2,2828.291,1814.218,2828.219,1814.293,2828.137Z" transform="translate(-1814.218 -2827.916)" fill="#283237"/>
                  </g>
                </g>
              </g>
            </g>
          </g>
        </g>
        <g id="Grupo_169437-2" data-name="Grupo 169437" transform="translate(2.22 4.188)">
          <path id="Trazado_207781-2" data-name="Trazado 207781" d="M1831.278,2855.282l.584-.365a.319.319,0,0,1,.14-.058c.123-.008.2.12.232.236a.606.606,0,0,1-.024.387.407.407,0,0,1-.3.24.457.457,0,0,1-.349-.117,1.274,1.274,0,0,1-.232-.29" transform="translate(-1831.278 -2854.858)" fill="#a06854"/>
        </g>
        <g id="Grupo_169439-2" data-name="Grupo 169439" transform="translate(2.116 4.117)">
          <g id="Grupo_169438-2" data-name="Grupo 169438">
            <path id="Trazado_207782-2" data-name="Trazado 207782" d="M1831.077,2855.324a.538.538,0,0,0,.271-.062.544.544,0,0,0,.273-.31.561.561,0,0,0-.073-.49.527.527,0,0,0-.092-.1.175.175,0,0,0-.08-.04.156.156,0,0,0-.094.015,1.1,1.1,0,0,0-.107.068l-.094.063c-.122.083-.231.158-.321.223a.182.182,0,1,0,.045.065c.1-.056.21-.125.335-.2l.1-.06c.032-.019.069-.045.094-.057s.022-.009.052.011a.444.444,0,0,1,.072.081.462.462,0,0,1-.145.669.955.955,0,0,1-.329.1C1830.978,2855.3,1831.011,2855.32,1831.077,2855.324Z" transform="translate(-1830.48 -2854.319)" fill="#283237"/>
          </g>
        </g>
      </g>
      <g id="Grupo_210547" data-name="Grupo 210547" transform="translate(78.408 59.131)">
        <g id="Grupo_169432-2" data-name="Grupo 169432">
          <g id="Grupo_169431-2" data-name="Grupo 169431">
            <g id="Grupo_169422-2" data-name="Grupo 169422" transform="translate(0.001 1.045)">
              <g id="Grupo_169421-2" data-name="Grupo 169421">
                <g id="Grupo_169420-2" data-name="Grupo 169420">
                  <g id="Grupo_169404-2" data-name="Grupo 169404" transform="translate(2.9 0.488)">
                    <g id="Grupo_169398-2" data-name="Grupo 169398" transform="translate(0.414 0.349)">
                      <g id="Grupo_169397-2" data-name="Grupo 169397">
                        <g id="Grupo_169396-2" data-name="Grupo 169396">
                          <g id="Grupo_169395-2" data-name="Grupo 169395">
                            <path id="Trazado_207773-2" data-name="Trazado 207773" d="M1041.124,2278.193a.274.274,0,0,1-.314.217.263.263,0,0,1-.238-.283v-.008a.273.273,0,0,1,.314-.216.262.262,0,0,1,.238.283Z" transform="translate(-1040.571 -2277.9)" fill="#283237"/>
                          </g>
                        </g>
                      </g>
                    </g>
                    <g id="Grupo_169403-2" data-name="Grupo 169403">
                      <g id="Grupo_169402-2" data-name="Grupo 169402">
                        <g id="Grupo_169401-2" data-name="Grupo 169401">
                          <g id="Grupo_169400-2" data-name="Grupo 169400">
                            <g id="Grupo_169399-2" data-name="Grupo 169399">
                              <path id="Trazado_207774-2" data-name="Trazado 207774" d="M1038.466,2275.6c-.04.028-.219-.158-.513-.213s-.536.047-.562.006c-.013-.018.033-.073.14-.122a.787.787,0,0,1,.458-.047.749.749,0,0,1,.4.212C1038.467,2275.525,1038.486,2275.592,1038.466,2275.6Z" transform="translate(-1037.389 -2275.214)" fill="#283237"/>
                            </g>
                          </g>
                        </g>
                      </g>
                    </g>
                  </g>
                  <g id="Grupo_169414-3" data-name="Grupo 169414">
                    <g id="Grupo_169408-3" data-name="Grupo 169408" transform="translate(0.416 0.398)">
                      <g id="Grupo_169407-3" data-name="Grupo 169407">
                        <g id="Grupo_169406-3" data-name="Grupo 169406">
                          <g id="Grupo_169405-3" data-name="Grupo 169405">
                            <path id="Trazado_207775-3" data-name="Trazado 207775" d="M1018.853,2274.81a.274.274,0,0,1-.314.216.262.262,0,0,1-.238-.283v-.007a.274.274,0,0,1,.314-.216.263.263,0,0,1,.238.283Z" transform="translate(-1018.3 -2274.517)" fill="#283237"/>
                          </g>
                        </g>
                      </g>
                    </g>
                    <g id="Grupo_169413-3" data-name="Grupo 169413">
                      <g id="Grupo_169412-3" data-name="Grupo 169412">
                        <g id="Grupo_169411-3" data-name="Grupo 169411">
                          <g id="Grupo_169410-3" data-name="Grupo 169410">
                            <g id="Grupo_169409-3" data-name="Grupo 169409">
                              <path id="Trazado_207776-3" data-name="Trazado 207776" d="M1016.177,2271.852c-.041.028-.22-.158-.513-.212s-.536.046-.562.006c-.013-.018.033-.073.14-.122a.789.789,0,0,1,.458-.047.75.75,0,0,1,.4.212C1016.178,2271.771,1016.2,2271.839,1016.177,2271.852Z" transform="translate(-1015.1 -2271.461)" fill="#283237"/>
                            </g>
                          </g>
                        </g>
                      </g>
                    </g>
                  </g>
                  <g id="Grupo_169419-3" data-name="Grupo 169419" transform="translate(1.744 0.306)">
                    <g id="Grupo_169418-3" data-name="Grupo 169418">
                      <g id="Grupo_169417-3" data-name="Grupo 169417">
                        <g id="Grupo_169416-3" data-name="Grupo 169416">
                          <g id="Grupo_169415-3" data-name="Grupo 169415">
                            <path id="Trazado_207777-3" data-name="Trazado 207777" d="M1028.5,2276.2a2.034,2.034,0,0,1,.493.006c.076.007.15.005.172-.042a.363.363,0,0,0-.009-.224l-.117-.592a9.41,9.41,0,0,1-.224-1.534,9.5,9.5,0,0,1,.351,1.514l.107.594a.411.411,0,0,1-.015.291.19.19,0,0,1-.144.083.545.545,0,0,1-.131-.006A2.022,2.022,0,0,1,1028.5,2276.2Z" transform="translate(-1028.504 -2273.811)" fill="#283237"/>
                          </g>
                        </g>
                      </g>
                    </g>
                  </g>
                </g>
              </g>
            </g>
            <g id="Grupo_169426-3" data-name="Grupo 169426">
              <g id="Grupo_169425-3" data-name="Grupo 169425">
                <g id="Grupo_169424-3" data-name="Grupo 169424">
                  <g id="Grupo_169423-3" data-name="Grupo 169423">
                    <path id="Trazado_207778-3" data-name="Trazado 207778" d="M1016.455,2263.767c-.044.072-.33-.02-.683-.044s-.649.014-.681-.064c-.014-.037.048-.1.175-.154a1.227,1.227,0,0,1,1.039.082C1016.422,2263.66,1016.474,2263.733,1016.455,2263.767Z" transform="translate(-1015.089 -2263.426)" fill="#283237"/>
                  </g>
                </g>
              </g>
            </g>
            <g id="Grupo_169430-2" data-name="Grupo 169430" transform="translate(3.034 0.682)">
              <g id="Grupo_169429-2" data-name="Grupo 169429">
                <g id="Grupo_169428-2" data-name="Grupo 169428">
                  <g id="Grupo_169427-2" data-name="Grupo 169427">
                    <path id="Trazado_207779-2" data-name="Trazado 207779" d="M1039.4,2269.074c-.064.054-.254-.05-.5-.1s-.458-.041-.493-.117c-.015-.037.03-.095.132-.139a.756.756,0,0,1,.8.174C1039.412,2268.975,1039.428,2269.046,1039.4,2269.074Z" transform="translate(-1038.406 -2268.672)" fill="#283237"/>
                  </g>
                </g>
              </g>
            </g>
          </g>
        </g>
        <g id="Grupo_169437-3" data-name="Grupo 169437" transform="translate(0.843 4.188)">
          <path id="Trazado_207781-3" data-name="Trazado 207781" d="M1022.5,2296.07a1.282,1.282,0,0,1-.232.29.457.457,0,0,1-.349.117.408.408,0,0,1-.3-.24.6.6,0,0,1-.024-.386c.028-.116.109-.244.232-.235a.316.316,0,0,1,.14.058l.584.365" transform="translate(-1021.572 -2295.615)" fill="#a06854"/>
        </g>
        <g id="Grupo_169439-3" data-name="Grupo 169439" transform="translate(0.757 4.118)">
          <g id="Grupo_169438-3" data-name="Grupo 169438">
            <path id="Trazado_207782-3" data-name="Trazado 207782" d="M1021.574,2296.053a.96.96,0,0,1-.329-.1.462.462,0,0,1-.145-.669.432.432,0,0,1,.072-.081c.03-.021.025-.02.052-.011s.062.038.094.057l.1.06c.125.078.238.147.335.2a1.194,1.194,0,0,0,.325.164,1.164,1.164,0,0,0-.28-.229c-.09-.065-.2-.141-.321-.223l-.094-.063a1.2,1.2,0,0,0-.107-.067.153.153,0,0,0-.094-.015.176.176,0,0,0-.08.04.525.525,0,0,0-.092.1.561.561,0,0,0-.073.49.544.544,0,0,0,.273.31.535.535,0,0,0,.271.061C1021.542,2296.076,1021.576,2296.06,1021.574,2296.053Z" transform="translate(-1020.906 -2295.075)" fill="#283237"/>
          </g>
        </g>
      </g>
    </g>
  </g>
</svg>
