<svg xmlns="http://www.w3.org/2000/svg" width="183.213" height="152.393" viewBox="0 0 183.213 152.393">
  <g id="Grupo_222348" data-name="Grupo 222348" transform="translate(7233 -4145)">
    <g id="Grupo_222347" data-name="Grupo 222347">
      <g id="Grupo_152106" data-name="Grupo 152106" transform="translate(-7325.659 4145)">
        <g id="Grupo_152105" data-name="Grupo 152105" transform="translate(92.659)">
          <g id="Grupo_152103" data-name="Grupo 152103" transform="translate(5.41)">
            <path id="Trazado_199284" data-name="Trazado 199284" d="M239.9,108.489a2.274,2.274,0,0,0-1.063-3.828c-8.924-1.987-18.895-1.941-27.606,1.076-2.354.815-4.64,2.359-4.774,5.091-.109,2.2,1.315,3.955,2.115,5.885A20.687,20.687,0,0,1,203,139.778c-1.657,1.435-.146,3.841,1.686,3.965A32.978,32.978,0,0,0,239.9,108.489Z" transform="translate(-107.902 8.577)" fill="#4dd0e1"/>
            <path id="Trazado_199285" data-name="Trazado 199285" d="M299.053,81.737c-6.927-11.508-18.452-19.494-30.36-25.707S244.131,45,232.732,37.895c-8.191-5.106-15.918-11.472-25.279-13.829-8.8-2.217-18.12-.623-26.792,2.039-10.435,3.2-20.548,8.045-28.537,15.484-18.548,17.269-22.372,47.182-11.654,70.145s33.976,38.707,58.821,43.7,50.96.11,74.144-10.121c10.822-4.777,25.765-12.294,28.809-24.88C305.4,107.379,306.22,93.644,299.053,81.737Z" transform="translate(-134.555 -23.017)" fill="#4dd0e1"/>
          </g>
          <g id="Grupo_152104" data-name="Grupo 152104" transform="translate(21.202 32.043)">
            <path id="Trazado_199286" data-name="Trazado 199286" d="M149.092,91.942l3.234.3a1.254,1.254,0,0,1,1.024.739,29.668,29.668,0,0,0,2.344,4.2,1.258,1.258,0,0,1,.089,1.258l-1.444,2.912a2.112,2.112,0,0,0,.583,2.592l1.363,1.079,6,4.745,1.363,1.077a2.108,2.108,0,0,0,2.656-.031l2.5-2.075a1.256,1.256,0,0,1,1.246-.2,29.679,29.679,0,0,0,4.628,1.314,1.255,1.255,0,0,1,.953.826l1.038,3.078a2.11,2.11,0,0,0,2.244,1.423l1.727-.2,7.6-.886,1.725-.2a2.111,2.111,0,0,0,1.856-1.9l.3-3.234a1.255,1.255,0,0,1,.737-1.024,29.684,29.684,0,0,0,4.2-2.344,1.257,1.257,0,0,1,1.258-.089l2.911,1.442a2.111,2.111,0,0,0,2.593-.581L204.9,104.8l4.745-6,1.079-1.363a2.112,2.112,0,0,0-.031-2.657l-2.075-2.5a1.256,1.256,0,0,1-.2-1.246,29.674,29.674,0,0,0,1.313-4.628,1.255,1.255,0,0,1,.828-.953l3.078-1.038a2.11,2.11,0,0,0,1.421-2.245l-.2-1.725-.886-7.6-.2-1.725a2.112,2.112,0,0,0-1.9-1.858l-3.236-.3a1.257,1.257,0,0,1-1.024-.737,29.67,29.67,0,0,0-2.343-4.2,1.254,1.254,0,0,1-.091-1.258l1.444-2.911a2.111,2.111,0,0,0-.581-2.593l-1.363-1.077-6-4.745-1.363-1.079a2.11,2.11,0,0,0-2.656.031l-2.5,2.075a1.253,1.253,0,0,1-1.244.2,29.718,29.718,0,0,0-4.628-1.313,1.259,1.259,0,0,1-.955-.828l-1.038-3.078a2.111,2.111,0,0,0-2.244-1.423l-1.727.2-7.6.886-1.727.2a2.111,2.111,0,0,0-1.856,1.9l-.3,3.236a1.259,1.259,0,0,1-.739,1.024,29.519,29.519,0,0,0-4.2,2.343,1.257,1.257,0,0,1-1.26.091l-2.911-1.444a2.109,2.109,0,0,0-2.592.581l-1.079,1.363-4.745,6-1.077,1.361a2.11,2.11,0,0,0,.031,2.657l2.074,2.5a1.26,1.26,0,0,1,.2,1.246A29.57,29.57,0,0,0,151.23,74.8a1.26,1.26,0,0,1-.826.955l-3.08,1.037a2.112,2.112,0,0,0-1.421,2.245l.2,1.725.886,7.6.2,1.725A2.111,2.111,0,0,0,149.092,91.942Zm25.97-25.308a14.982,14.982,0,1,1-8.551,19.385A14.983,14.983,0,0,1,175.062,66.634Z" transform="translate(-145.888 -46.011)" fill="#0f2771"/>
            <path id="Trazado_199287" data-name="Trazado 199287" d="M197.532,95.586l2.765.258a1.076,1.076,0,0,1,.875.631,25.453,25.453,0,0,0,2,3.591,1.075,1.075,0,0,1,.077,1.076l-1.235,2.487a1.808,1.808,0,0,0,.5,2.217l1.165.921,5.128,4.057,1.164.921a1.806,1.806,0,0,0,2.271-.026l2.138-1.773a1.074,1.074,0,0,1,1.065-.174A25.256,25.256,0,0,0,219.4,110.9a1.075,1.075,0,0,1,.815.707l.886,2.632a1.806,1.806,0,0,0,1.919,1.215l1.476-.171,6.494-.758,1.474-.171a1.8,1.8,0,0,0,1.587-1.625l.258-2.766a1.074,1.074,0,0,1,.631-.875,25.444,25.444,0,0,0,3.591-2,1.071,1.071,0,0,1,1.076-.077l2.487,1.233a1.806,1.806,0,0,0,2.217-.5l.921-1.165,4.057-5.127.921-1.165a1.806,1.806,0,0,0-.026-2.271l-1.774-2.138a1.074,1.074,0,0,1-.173-1.065,25.241,25.241,0,0,0,1.123-3.955,1.072,1.072,0,0,1,.707-.815l2.632-.888a1.8,1.8,0,0,0,1.215-1.919l-.171-1.474-.758-6.494-.173-1.476a1.8,1.8,0,0,0-1.623-1.587l-2.766-.258a1.072,1.072,0,0,1-.875-.63,25.3,25.3,0,0,0-2-3.591,1.069,1.069,0,0,1-.077-1.076l1.233-2.489a1.8,1.8,0,0,0-.5-2.216l-1.165-.923-5.127-4.055-1.165-.923a1.806,1.806,0,0,0-2.271.026l-2.138,1.774a1.074,1.074,0,0,1-1.065.173,25.432,25.432,0,0,0-3.955-1.123,1.07,1.07,0,0,1-.815-.707l-.888-2.631a1.8,1.8,0,0,0-1.919-1.217l-1.474.173-6.494.757-1.476.173a1.805,1.805,0,0,0-1.587,1.625l-.258,2.765a1.076,1.076,0,0,1-.631.877,25.215,25.215,0,0,0-3.59,2,1.075,1.075,0,0,1-1.076.077l-2.489-1.233a1.8,1.8,0,0,0-2.216.5l-.923,1.165-4.055,5.128-.923,1.164a1.806,1.806,0,0,0,.026,2.271l1.774,2.138a1.074,1.074,0,0,1,.173,1.065,25.45,25.45,0,0,0-1.123,3.956,1.072,1.072,0,0,1-.707.815l-2.631.886a1.8,1.8,0,0,0-1.217,1.919l.173,1.476.757,6.494L195.907,94A1.8,1.8,0,0,0,197.532,95.586Zm22.2-21.632a12.806,12.806,0,1,1-7.309,16.571A12.807,12.807,0,0,1,219.731,73.954Z" transform="translate(-126.642 -41.952)" fill="#feca2e"/>
          </g>
          <path id="Trazado_199288" data-name="Trazado 199288" d="M267.179,87.979c-.2-1.947-3.275-1.968-3.071,0a35.459,35.459,0,0,1-14.553,32.3c-1.6,1.129-.072,3.792,1.55,2.652A38.5,38.5,0,0,0,267.179,87.979Z" transform="translate(-84.156 1.97)" fill="#4dd0e1"/>
          <path id="Trazado_199289" data-name="Trazado 199289" d="M152.588,26.458a30.37,30.37,0,0,0-21.862,21.731c-.481,1.916,2.479,2.734,2.961.815A27.282,27.282,0,0,1,153.4,29.419C155.322,28.95,154.509,25.989,152.588,26.458Z" transform="translate(-130.673 -21.682)" fill="#4dd0e1"/>
        </g>
      </g>
    </g>
  </g>
</svg>
