<svg xmlns="http://www.w3.org/2000/svg" width="183.824" height="138.498" viewBox="0 0 183.824 138.498">
  <g id="Grupo_222353" data-name="Grupo 222353" transform="translate(7234 -4825)">
    <g id="Grupo_222352" data-name="Grupo 222352">
      <g id="Grupo_222351" data-name="Grupo 222351">
        <g id="Grupo_152122" data-name="Grupo 152122" transform="translate(-7349.707 4825)">
          <g id="Grupo_152093" data-name="Grupo 152093" transform="translate(115.707)">
            <path id="Trazado_199255" data-name="Trazado 199255" d="M654.834,131.56a35.42,35.42,0,0,1-28.371,9.784c-1.932-.213-3.421-2.822-1.6-4.265a21.881,21.881,0,0,0,6.919-24.123c-.759-2.075-2.185-4-1.973-6.313.264-2.88,2.749-4.408,5.272-5.166,9.339-2.8,19.876-2.4,29.218.094a2.407,2.407,0,0,1,.952,4.093A35.481,35.481,0,0,1,654.834,131.56Z" transform="translate(-539.636 -3.051)" fill="#4dd0e1"/>
            <g id="Grupo_152090" data-name="Grupo 152090" transform="translate(11.788 3.581)">
              <path id="Trazado_199256" data-name="Trazado 199256" d="M727.539,77.307c-6.61,20.054-10.732,40.64-17.737,60.637a12.4,12.4,0,0,1-10.785,8.218c-26.992,2.034-53.97,4.25-80.963,6.279a12.474,12.474,0,0,1-12.289-7.319c-13.65-30.236-26.189-60.059-29.326-93.04a12.423,12.423,0,0,1,13.653-13.453c44.721,4.462,87.623,7.174,130,23.117A12.459,12.459,0,0,1,727.539,77.307Z" transform="translate(-576.383 -38.566)" fill="#4dd0e1"/>
            </g>
            <g id="Grupo_152091" data-name="Grupo 152091" transform="translate(0 8.137)">
              <path id="Trazado_199257" data-name="Trazado 199257" d="M582.437,62.011c3.07-.226,4.606-.322,7.68-.506a11.469,11.469,0,0,1-3.127-9.066A12.375,12.375,0,0,1,597.539,41.71a12.9,12.9,0,0,1,14.974,11.073,11.237,11.237,0,0,1-1.818,7.448,186.6,186.6,0,0,0,20.9-2.452,1.266,1.266,0,0,1,1.509.99c1.015,6.209,1.582,9.31,2.7,15.523a15.664,15.664,0,0,1,8.209-3c5.909-.44,11.366,2.673,13.068,7.931,2.321,7.172-2.91,15.015-10.805,16.413a14.144,14.144,0,0,1-6.785-.45c1.414,8.6,2.072,12.909,2.961,21.607a1.379,1.379,0,0,1-1.224,1.438c-8.2,1.17-12.309,1.685-20.527,2.685a11.3,11.3,0,0,1,2.694,8.644,12.8,12.8,0,0,1-8.829,10.656,13.518,13.518,0,0,1-17.182-10.13,11.123,11.123,0,0,1,.626-6.491c-2.787.328-4.181.492-6.966.829-8.247.993-16.41-4.413-17.84-12.222a315.033,315.033,0,0,1-4.518-34.707C568.066,69.7,574.352,62.6,582.437,62.011Z" transform="translate(-568.647 -41.555)" fill="#0f2771"/>
            </g>
            <g id="Grupo_152092" data-name="Grupo 152092" transform="translate(97.174 3.581)">
              <path id="Trazado_199258" data-name="Trazado 199258" d="M639.14,52.289a121.775,121.775,0,0,1,2.763-12.4A1.851,1.851,0,0,1,644,38.6q30.436,5.792,60.873,11.582a1.48,1.48,0,0,1,1.157,1.973c-2.12,6.443-3.058,9.685-4.8,16.19a13.276,13.276,0,0,1,8.873-.5A10.875,10.875,0,0,1,717.735,80.3c-1.24,7.406-8.376,12.94-15.405,11.931a10.687,10.687,0,0,1-6.119-3.066c-1.987,8.992-2.883,13.5-4.765,22.491a1.788,1.788,0,0,1-1.911,1.458c-7.111-1-10.636-1.6-17.708-2.965a13.269,13.269,0,0,1-.593,9.394,12.608,12.608,0,0,1-11.636,7.619c-7.817-.268-12.469-7.834-10.749-15.416a13.677,13.677,0,0,1,2.971-5.937c-7.153-1.711-10.752-2.642-18.086-4.62a1.818,1.818,0,0,1-1.285-2.077c1.432-7.39,1.9-11.162,2.84-18.706a1.446,1.446,0,0,1,1.623-1.31c6.063.718,11.363-3.588,12.28-10.072a13.651,13.651,0,0,0-8.9-14.8A1.738,1.738,0,0,1,639.14,52.289Z" transform="translate(-632.419 -38.566)" fill="#feca2e"/>
            </g>
            <path id="Trazado_199259" data-name="Trazado 199259" d="M677.15,36.268,687.789,38.8c2.706.643,6.124,1.03,7.927,3.418,1.982,2.625.561,6.449.017,9.347q-1,5.344-2.008,10.688c-.4,2.121-3.634,1.222-3.238-.893l1.746-9.293q.437-2.322.873-4.646c.2-1.079.631-2.514-.242-3.4A6.029,6.029,0,0,0,690,42.775c-1.414-.358-2.839-.677-4.257-1.015Q681,40.633,676.257,39.5C674.156,39,675.046,35.767,677.15,36.268Z" transform="translate(-512.912 -36.216)" fill="#4dd0e1"/>
            <path id="Trazado_199260" data-name="Trazado 199260" d="M582.931,107.224a1.724,1.724,0,0,1,1.679-1.679,1.693,1.693,0,0,1,1.679,1.679,14.646,14.646,0,0,0,4.487,11.913,14.46,14.46,0,0,0,12.058,3.614,1.728,1.728,0,0,1,2.065,1.173,1.691,1.691,0,0,1-1.172,2.065,18.055,18.055,0,0,1-15.11-4.28A17.839,17.839,0,0,1,582.931,107.224Z" transform="translate(-561.196 0.097)" fill="#4dd0e1"/>
          </g>
        </g>
      </g>
    </g>
  </g>
</svg>
