<svg xmlns="http://www.w3.org/2000/svg" width="420" height="320" viewBox="0 0 420 320">
  <g id="Grupo_222393" data-name="Grupo 222393" transform="translate(6569 3990)">
    <g id="Grupo_222392" data-name="Grupo 222392">
      <g id="Grupo_222391" data-name="Grupo 222391">
        <g id="Grupo_222390" data-name="Grupo 222390">
          <g id="Grupo_222389" data-name="Grupo 222389">
            <g id="Grupo_222299" data-name="Grupo 222299">
              <rect id="Rectángulo_295923" data-name="Rectángulo 295923" width="420" height="320" transform="translate(-6569 -3990)" fill="none"/>
              <g id="_14" data-name="14" transform="translate(-6513.869 -3988)">
                <g id="window_3" data-name="window 3" transform="translate(83.483 201.62)">
                  <path id="Trazado_224912" data-name="Trazado 224912" d="M192.891,494.584h73.662a8.186,8.186,0,0,0,8.19-8.186V389.174a8.19,8.19,0,0,0-8.19-8.19H192.891a8.189,8.189,0,0,0-8.186,8.19V486.4A8.185,8.185,0,0,0,192.891,494.584Z" transform="translate(-184.705 -380.984)" fill="#fff"/>
                  <circle id="Elipse_16234" data-name="Elipse 16234" cx="18.07" cy="18.07" r="18.07" transform="translate(26.981 12.992)" fill="#969aa8"/>
                  <path id="Trazado_224913" data-name="Trazado 224913" d="M214.234,410.722a18.08,18.08,0,0,1-21.924.076,13.008,13.008,0,0,1,8.939-7.109v-2.808a7.781,7.781,0,0,1-5.351-7.558,7.351,7.351,0,1,1,14.667,0,7.849,7.849,0,0,1-5.239,7.558v2.808A13.036,13.036,0,0,1,214.234,410.722Z" transform="translate(-158.199 -365.349)" fill="#fff"/>
                  <g id="Grupo_221855" data-name="Grupo 221855" transform="translate(12.473 72.841)">
                    <path id="Trazado_224914" data-name="Trazado 224914" d="M187.486,397.537h0Z" transform="translate(-187.485 -396.132)" fill="#fff"/>
                    <rect id="Rectángulo_295631" data-name="Rectángulo 295631" width="66.653" height="2.806" fill="#969aa8"/>
                  </g>
                  <g id="Grupo_221856" data-name="Grupo 221856" transform="translate(12.473 83.297)">
                    <path id="Trazado_224915" data-name="Trazado 224915" d="M187.486,399.868h0Z" transform="translate(-187.485 -398.465)" fill="#fff"/>
                    <rect id="Rectángulo_295632" data-name="Rectángulo 295632" width="66.653" height="2.806" fill="#969aa8"/>
                  </g>
                  <rect id="Rectángulo_295633" data-name="Rectángulo 295633" width="66.65" height="7.391" transform="translate(12.474 58.674)" fill="#969aa8"/>
                  <path id="Trazado_224916" data-name="Trazado 224916" d="M198.34,405.82a3.62,3.62,0,1,1-3.62-3.62A3.621,3.621,0,0,1,198.34,405.82Z" transform="translate(-162.413 -307.04)" fill="#0f2771"/>
                  <path id="Trazado_224917" data-name="Trazado 224917" d="M201.2,405.82a3.62,3.62,0,1,1-3.62-3.62A3.621,3.621,0,0,1,201.2,405.82Z" transform="translate(-152.434 -307.04)" fill="#feca2e"/>
                  <path id="Trazado_224918" data-name="Trazado 224918" d="M204,405.82a3.617,3.617,0,1,1-3.62-3.62A3.621,3.621,0,0,1,204,405.82Z" transform="translate(-142.658 -307.04)" fill="#d7d9dd"/>
                </g>
                <g id="window_2" data-name="window 2" transform="translate(164.373 223.443)">
                  <rect id="Rectángulo_295634" data-name="Rectángulo 295634" width="92.212" height="70.903" rx="2.705" transform="translate(92.212 70.903) rotate(180)" fill="#fff"/>
                  <g id="Grupo_221857" data-name="Grupo 221857" transform="translate(21.494 13.761)">
                    <rect id="Rectángulo_295635" data-name="Rectángulo 295635" width="37.731" height="39.96" fill="#4dd0e1"/>
                  </g>
                  <g id="Grupo_221858" data-name="Grupo 221858" transform="translate(59.225 21.721)">
                    <path id="Trazado_224919" data-name="Trazado 224919" d="M215.944,390.692h13.93l10.269,12.375v19.625h-24.2Z" transform="translate(-215.944 -390.692)" fill="#4dd0e1"/>
                  </g>
                  <g id="Grupo_221859" data-name="Grupo 221859" transform="translate(67.981 27.452)">
                    <path id="Trazado_224920" data-name="Trazado 224920" d="M233.339,398.614H217.9V391.97h9.93Z" transform="translate(-217.896 -391.97)" fill="#fff"/>
                  </g>
                  <g id="Grupo_221860" data-name="Grupo 221860" transform="translate(9.422 21.752)">
                    <path id="Trazado_224921" data-name="Trazado 224921" d="M231.241,393.507h-25a1.4,1.4,0,0,1,0-2.808h25a1.4,1.4,0,0,1,0,2.808Z" transform="translate(-204.84 -390.699)" fill="#4dd0e1"/>
                  </g>
                  <g id="Grupo_221861" data-name="Grupo 221861" transform="translate(9.422 29.951)">
                    <path id="Trazado_224922" data-name="Trazado 224922" d="M231.241,395.335h-25a1.4,1.4,0,0,1,0-2.808h25a1.4,1.4,0,0,1,0,2.808Z" transform="translate(-204.84 -392.527)" fill="#4dd0e1"/>
                  </g>
                  <g id="Grupo_221862" data-name="Grupo 221862" transform="translate(9.422 38.15)">
                    <path id="Trazado_224923" data-name="Trazado 224923" d="M231.241,397.163h-25a1.4,1.4,0,1,1,0-2.808h25a1.4,1.4,0,0,1,0,2.808Z" transform="translate(-204.84 -394.355)" fill="#4dd0e1"/>
                  </g>
                  <g id="Grupo_221863" data-name="Grupo 221863" transform="translate(29.629 46.587)">
                    <path id="Trazado_224924" data-name="Trazado 224924" d="M223.613,403.368a7.134,7.134,0,1,0-7.132,7.136A7.133,7.133,0,0,0,223.613,403.368Z" transform="translate(-209.345 -396.236)" fill="#fff"/>
                    <path id="Trazado_224925" data-name="Trazado 224925" d="M215.387,396.549a5.73,5.73,0,1,0,5.728,5.732A5.733,5.733,0,0,0,215.387,396.549Z" transform="translate(-208.251 -395.145)" fill="#4dd0e1"/>
                  </g>
                  <g id="Grupo_221864" data-name="Grupo 221864" transform="translate(64.193 46.587)">
                    <path id="Trazado_224926" data-name="Trazado 224926" d="M231.314,403.368a7.132,7.132,0,1,0-7.132,7.136A7.133,7.133,0,0,0,231.314,403.368Z" transform="translate(-217.051 -396.236)" fill="#fff"/>
                    <path id="Trazado_224927" data-name="Trazado 224927" d="M223.092,396.549a5.73,5.73,0,1,0,5.728,5.732A5.733,5.733,0,0,0,223.092,396.549Z" transform="translate(-215.96 -395.145)" fill="#4dd0e1"/>
                  </g>
                </g>
                <g id="window_1" data-name="window 1" transform="translate(40.451 13.748)">
                  <path id="Trazado_224928" data-name="Trazado 224928" d="M238.4,339.1H184.7a9.588,9.588,0,0,0-9.59,9.59v36.86a9.588,9.588,0,0,0,9.59,9.59h8.15s6.737.323,10.455,3a19.29,19.29,0,0,1,5.616,7.19l.045-10.186H238.4a9.588,9.588,0,0,0,9.59-9.59v-36.86A9.588,9.588,0,0,0,238.4,339.1Z" transform="translate(-175.111 -339.098)" fill="#fff"/>
                  <g id="Grupo_221865" data-name="Grupo 221865" transform="translate(13.828 12.101)">
                    <path id="Trazado_224929" data-name="Trazado 224929" d="M223.419,341.8l-19.547,23.988L197.6,373.6c-.072,0-6.338-7.818-6.338-7.818l-13.07-16.268h12.635l6.746,8.41L210.73,341.8Z" transform="translate(-178.194 -341.796)" fill="#0f2771"/>
                  </g>
                </g>
                <g id="hand" transform="translate(11.678 0)">
                  <path id="hand-2" data-name="hand" d="M224.17,428.643s1.767,8.58,4.629,11.419,9.172,3.485,11.334-.211a18.741,18.741,0,0,0,2.471-6.93s5.055,4.44,8.589,4.037,6.091-3.283,6.333-5.678a15.211,15.211,0,0,0-.431-5.333s4.611,3.445,8.9,2.153,5.355-5.553,4.288-9.163-3.664-30.388-11.953-37.457-34.891-28.89-48.594-22.812-36.362,27.024-28.3,44.858,15.129,6.351,27.45,10.935S224.17,428.643,224.17,428.643Z" transform="translate(-130.18 -260.824)" fill="#d87360"/>
                  <g id="Grupo_221898" data-name="Grupo 221898" transform="translate(104.838 0)">
                    <g id="Grupo_221866" data-name="Grupo 221866" transform="translate(3.641 0.001)">
                      <rect id="Rectángulo_295636" data-name="Rectángulo 295636" width="119.941" height="158.528" rx="1.825" transform="translate(12.57 0) rotate(4.548)" fill="#fff"/>
                    </g>
                    <path id="Trazado_224930" data-name="Trazado 224930" d="M253.559,376.229l-1.373,17.256-13.813-1.1-1.108,13.932-17.241-1.371,1.108-13.932-13.828-1.1,1.372-17.256,13.829,1.1,1.089-13.7,17.241,1.371-1.089,13.7Z" transform="translate(-138.973 -252.279)" fill="#94c1fc"/>
                    <g id="Grupo_221867" data-name="Grupo 221867" transform="translate(25.265 25.838)">
                      <path id="Trazado_224931" data-name="Trazado 224931" d="M197.727,342.105l73.851,5.876Z" transform="translate(-197.617 -340.707)" fill="#fff"/>
                      <path id="Trazado_224932" data-name="Trazado 224932" d="M271.556,350.467,197.7,344.592l.219-2.8,73.854,5.875Z" transform="translate(-197.702 -341.793)" fill="#969aa8"/>
                    </g>
                    <g id="Grupo_221868" data-name="Grupo 221868" transform="translate(23.607 46.689)">
                      <path id="Trazado_224933" data-name="Trazado 224933" d="M197.357,346.754l96.3,7.656Z" transform="translate(-197.248 -345.355)" fill="#fff"/>
                      <path id="Trazado_224934" data-name="Trazado 224934" d="M293.627,356.9l-96.294-7.658.219-2.8,96.294,7.658Z" transform="translate(-197.333 -346.442)" fill="#969aa8"/>
                    </g>
                    <g id="Grupo_221869" data-name="Grupo 221869" transform="translate(24.436 36.262)">
                      <path id="Trazado_224935" data-name="Trazado 224935" d="M197.542,344.429l96.3,7.661Z" transform="translate(-197.432 -343.031)" fill="#fff"/>
                      <path id="Trazado_224936" data-name="Trazado 224936" d="M293.811,354.578l-96.294-7.662.219-2.8,96.294,7.661Z" transform="translate(-197.518 -344.117)" fill="#969aa8"/>
                    </g>
                    <g id="Grupo_221870" data-name="Grupo 221870" transform="translate(22.784 57.047)">
                      <path id="Trazado_224937" data-name="Trazado 224937" d="M197.173,349.064l91.572,7.284Z" transform="translate(-197.067 -347.662)" fill="#fff"/>
                      <path id="Trazado_224938" data-name="Trazado 224938" d="M288.719,358.835l-91.57-7.285.219-2.8,91.57,7.285Z" transform="translate(-197.149 -348.751)" fill="#969aa8"/>
                    </g>
                    <g id="Grupo_221871" data-name="Grupo 221871" transform="translate(21.947 67.544)">
                      <path id="Trazado_224939" data-name="Trazado 224939" d="M196.987,351.4l73.855,5.871Z" transform="translate(-196.878 -350.003)" fill="#fff"/>
                      <path id="Trazado_224940" data-name="Trazado 224940" d="M270.817,359.765l-73.854-5.875.219-2.8,73.854,5.875Z" transform="translate(-196.963 -351.092)" fill="#969aa8"/>
                    </g>
                    <g id="Grupo_221872" data-name="Grupo 221872" transform="translate(21.118 77.967)">
                      <path id="Trazado_224941" data-name="Trazado 224941" d="M196.8,353.728l96.3,7.661Z" transform="translate(-196.693 -352.326)" fill="#fff"/>
                      <path id="Trazado_224942" data-name="Trazado 224942" d="M293.072,363.876l-96.294-7.661.219-2.8,96.294,7.662Z" transform="translate(-196.778 -353.416)" fill="#969aa8"/>
                    </g>
                    <g id="Grupo_221873" data-name="Grupo 221873" transform="translate(15.122 130.739)">
                      <path id="Trazado_224943" data-name="Trazado 224943" d="M195.858,365.6l41.821,3.328Z" transform="translate(-193.988 -363.731)" fill="#fff"/>
                      <path id="Trazado_224944" data-name="Trazado 224944" d="M239.133,372.246c-.153-.009-41.969-3.333-41.969-3.333a1.868,1.868,0,0,1-1.722-1.866,1.927,1.927,0,0,1,2.023-1.861l41.817,3.324A1.872,1.872,0,0,1,241,370.375,1.905,1.905,0,0,1,239.133,372.246Z" transform="translate(-195.441 -365.181)" fill="#969aa8"/>
                    </g>
                    <g id="Grupo_221874" data-name="Grupo 221874" transform="translate(15.952 120.312)">
                      <path id="Trazado_224945" data-name="Trazado 224945" d="M196.043,363.273,237.86,366.6Z" transform="translate(-194.173 -361.404)" fill="#fff"/>
                      <path id="Trazado_224946" data-name="Trazado 224946" d="M239.318,369.924c-.153-.009-41.969-3.337-41.969-3.337a1.864,1.864,0,0,1-1.722-1.861,1.923,1.923,0,0,1,2.018-1.866l41.821,3.328a1.872,1.872,0,0,1,1.722,1.866A1.908,1.908,0,0,1,239.318,369.924Z" transform="translate(-195.626 -362.856)" fill="#969aa8"/>
                    </g>
                    <g id="Grupo_221875" data-name="Grupo 221875" transform="translate(14.301 141.101)">
                      <path id="Trazado_224947" data-name="Trazado 224947" d="M195.674,367.907l41.821,3.328Z" transform="translate(-193.808 -366.042)" fill="#fff"/>
                      <path id="Trazado_224948" data-name="Trazado 224948" d="M238.945,374.554c-.152-.009-41.969-3.333-41.969-3.333a1.867,1.867,0,0,1-1.718-1.861,1.922,1.922,0,0,1,2.018-1.866l41.817,3.324a1.872,1.872,0,0,1,1.722,1.866A1.9,1.9,0,0,1,238.945,374.554Z" transform="translate(-195.258 -367.491)" fill="#969aa8"/>
                    </g>
                    <rect id="Rectángulo_295637" data-name="Rectángulo 295637" width="96.599" height="7.391" transform="translate(26.61 11.716) rotate(4.548)" fill="#969aa8"/>
                    <g id="Grupo_221876" data-name="Grupo 221876" transform="translate(0.483)">
                      <rect id="Rectángulo_295638" data-name="Rectángulo 295638" width="119.941" height="158.528" rx="1.825" transform="translate(54.939 0) rotate(20.277)" fill="#fff"/>
                    </g>
                    <path id="Trazado_224949" data-name="Trazado 224949" d="M255.526,386.981l-6,16.238-13-4.8-4.844,13.11-16.223-5.994,4.843-13.109-13.012-4.808,6-16.237,13.012,4.807,4.761-12.887,16.224,5.994-4.761,12.887Z" transform="translate(-139.013 -241.005)" fill="#94c1fc"/>
                    <g id="Grupo_221877" data-name="Grupo 221877" transform="translate(56.374 27.383)">
                      <path id="Trazado_224950" data-name="Trazado 224950" d="M204.747,342.431l69.491,25.679Z" transform="translate(-204.259 -341.117)" fill="#fff"/>
                      <rect id="Rectángulo_295639" data-name="Rectángulo 295639" width="2.804" height="74.087" transform="translate(0 2.631) rotate(-69.721)" fill="#969aa8"/>
                    </g>
                    <g id="Grupo_221878" data-name="Grupo 221878" transform="translate(49.126 47.003)">
                      <path id="Trazado_224951" data-name="Trazado 224951" d="M203.13,346.806l90.612,33.474Z" transform="translate(-202.646 -345.488)" fill="#fff"/>
                      <rect id="Rectángulo_295640" data-name="Rectángulo 295640" width="2.805" height="96.599" transform="matrix(0.347, -0.938, 0.938, 0.347, 0, 2.631)" fill="#969aa8"/>
                    </g>
                    <g id="Grupo_221879" data-name="Grupo 221879" transform="translate(52.75 37.193)">
                      <path id="Trazado_224952" data-name="Trazado 224952" d="M203.938,344.619l90.612,33.474Z" transform="translate(-203.454 -343.301)" fill="#fff"/>
                      <rect id="Rectángulo_295641" data-name="Rectángulo 295641" width="2.804" height="96.599" transform="translate(0 2.63) rotate(-69.723)" fill="#969aa8"/>
                    </g>
                    <g id="Grupo_221880" data-name="Grupo 221880" transform="translate(45.523 56.755)">
                      <path id="Trazado_224953" data-name="Trazado 224953" d="M202.327,348.979l86.167,31.837Z" transform="translate(-201.842 -347.666)" fill="#fff"/>
                      <rect id="Rectángulo_295642" data-name="Rectángulo 295642" width="2.804" height="91.863" transform="matrix(0.347, -0.938, 0.938, 0.347, 0, 2.63)" fill="#969aa8"/>
                    </g>
                    <g id="Grupo_221881" data-name="Grupo 221881" transform="translate(41.873 66.63)">
                      <path id="Trazado_224954" data-name="Trazado 224954" d="M201.514,351.181l69.5,25.674Z" transform="translate(-201.026 -349.867)" fill="#fff"/>
                      <rect id="Rectángulo_295643" data-name="Rectángulo 295643" width="2.805" height="74.089" transform="translate(0 2.631) rotate(-69.725)" fill="#969aa8"/>
                    </g>
                    <g id="Grupo_221882" data-name="Grupo 221882" transform="translate(34.625 86.25)">
                      <path id="Trazado_224955" data-name="Trazado 224955" d="M199.9,355.555l78.7,29.078Z" transform="translate(-199.41 -354.242)" fill="#fff"/>
                      <rect id="Rectángulo_295644" data-name="Rectángulo 295644" width="2.804" height="83.901" transform="translate(0 2.63) rotate(-69.724)" fill="#969aa8"/>
                    </g>
                    <g id="Grupo_221883" data-name="Grupo 221883" transform="translate(38.249 76.44)">
                      <path id="Trazado_224956" data-name="Trazado 224956" d="M200.706,353.368l90.613,33.478Z" transform="translate(-200.218 -352.054)" fill="#fff"/>
                      <rect id="Rectángulo_295645" data-name="Rectángulo 295645" width="2.805" height="96.599" transform="translate(0 2.631) rotate(-69.723)" fill="#969aa8"/>
                    </g>
                    <g id="Grupo_221884" data-name="Grupo 221884" transform="translate(18.361 125.98)">
                      <path id="Trazado_224957" data-name="Trazado 224957" d="M196.579,364.537l39.35,14.541Z" transform="translate(-194.713 -362.667)" fill="#fff"/>
                      <path id="Trazado_224958" data-name="Trazado 224958" d="M237.379,382.4a1.824,1.824,0,0,1-.646-.117l-39.35-14.537a1.872,1.872,0,0,1-1.22-1.754,1.806,1.806,0,0,1,.117-.646,1.86,1.86,0,0,1,2.4-1.108l39.35,14.537a1.871,1.871,0,0,1,1.224,1.754,1.809,1.809,0,0,1-.121.646A1.861,1.861,0,0,1,237.379,382.4Z" transform="translate(-196.163 -364.12)" fill="#969aa8"/>
                    </g>
                    <g id="Grupo_221885" data-name="Grupo 221885" transform="translate(21.985 116.168)">
                      <path id="Trazado_224959" data-name="Trazado 224959" d="M197.387,362.35l39.35,14.537Z" transform="translate(-195.521 -360.477)" fill="#fff"/>
                      <path id="Trazado_224960" data-name="Trazado 224960" d="M238.187,380.217a1.822,1.822,0,0,1-.646-.117l-39.35-14.541a1.871,1.871,0,0,1-1.22-1.754,1.805,1.805,0,0,1,.117-.646,1.862,1.862,0,0,1,2.4-1.108l39.35,14.541a1.871,1.871,0,0,1,1.225,1.754,1.906,1.906,0,0,1-.117.646A1.871,1.871,0,0,1,238.187,380.217Z" transform="translate(-196.971 -361.933)" fill="#969aa8"/>
                    </g>
                    <g id="Grupo_221886" data-name="Grupo 221886" transform="translate(14.754 135.729)">
                      <path id="Trazado_224961" data-name="Trazado 224961" d="M195.776,366.711l39.35,14.537Z" transform="translate(-193.906 -364.839)" fill="#fff"/>
                      <path id="Trazado_224962" data-name="Trazado 224962" d="M236.579,384.573a1.8,1.8,0,0,1-.646-.117l-39.35-14.537a1.875,1.875,0,0,1-1.224-1.754,1.908,1.908,0,0,1,.117-.646,1.869,1.869,0,0,1,2.4-1.108l39.35,14.537a1.871,1.871,0,0,1,1.22,1.754,1.805,1.805,0,0,1-.117.646A1.865,1.865,0,0,1,236.579,384.573Z" transform="translate(-195.359 -366.293)" fill="#969aa8"/>
                    </g>
                    <rect id="Rectángulo_295646" data-name="Rectángulo 295646" width="96.599" height="7.391" transform="translate(62.256 14.095) rotate(20.277)" fill="#969aa8"/>
                    <rect id="Rectángulo_295647" data-name="Rectángulo 295647" width="119.942" height="158.528" rx="1.825" transform="matrix(0.769, 0.639, -0.639, 0.769, 101.25, 13.658)" fill="#fff"/>
                    <g id="Grupo_221887" data-name="Grupo 221887" transform="translate(64.636 141.172)">
                      <path id="Trazado_224963" data-name="Trazado 224963" d="M252.181,397.975,241.125,411.3l-10.663-8.85L221.536,413.2l-13.308-11.046,8.926-10.754-10.674-8.86,11.056-13.32,10.674,8.859,8.775-10.571,13.308,11.047-8.775,10.571Z" transform="translate(-206.48 -367.507)" fill="#bddcf6"/>
                    </g>
                    <g id="Grupo_221888" data-name="Grupo 221888" transform="translate(92.173 40.123)">
                      <path id="Trazado_224964" data-name="Trazado 224964" d="M212.819,345.219l57,47.32Z" transform="translate(-211.924 -344.139)" fill="#fff"/>
                      <rect id="Rectángulo_295648" data-name="Rectángulo 295648" width="2.802" height="74.089" transform="translate(0 2.156) rotate(-50.304)" fill="#969aa8"/>
                    </g>
                    <g id="Grupo_221889" data-name="Grupo 221889" transform="translate(78.811 56.221)">
                      <path id="Trazado_224965" data-name="Trazado 224965" d="M209.84,348.807l74.331,61.7Z" transform="translate(-208.945 -347.732)" fill="#fff"/>
                      <rect id="Rectángulo_295649" data-name="Rectángulo 295649" width="2.802" height="96.597" transform="translate(0 2.156) rotate(-50.307)" fill="#969aa8"/>
                    </g>
                    <g id="Grupo_221890" data-name="Grupo 221890" transform="translate(85.49 48.172)">
                      <path id="Trazado_224966" data-name="Trazado 224966" d="M211.329,347.013l74.331,61.7Z" transform="translate(-210.435 -345.935)" fill="#fff"/>
                      <rect id="Rectángulo_295650" data-name="Rectángulo 295650" width="2.802" height="96.602" transform="matrix(0.639, -0.769, 0.769, 0.639, 0, 2.156)" fill="#969aa8"/>
                    </g>
                    <g id="Grupo_221891" data-name="Grupo 221891" transform="translate(72.173 64.219)">
                      <path id="Trazado_224967" data-name="Trazado 224967" d="M208.36,350.59l70.684,58.672Z" transform="translate(-207.465 -349.515)" fill="#fff"/>
                      <rect id="Rectángulo_295651" data-name="Rectángulo 295651" width="2.802" height="91.859" transform="translate(0 2.156) rotate(-50.306)" fill="#969aa8"/>
                    </g>
                    <g id="Grupo_221892" data-name="Grupo 221892" transform="translate(65.45 72.319)">
                      <path id="Trazado_224968" data-name="Trazado 224968" d="M206.861,352.4l57.008,47.316Z" transform="translate(-205.966 -351.317)" fill="#fff"/>
                      <rect id="Rectángulo_295652" data-name="Rectángulo 295652" width="2.802" height="74.086" transform="matrix(0.639, -0.769, 0.769, 0.639, 0, 2.156)" fill="#969aa8"/>
                    </g>
                    <g id="Grupo_221893" data-name="Grupo 221893" transform="translate(52.089 88.413)">
                      <path id="Trazado_224969" data-name="Trazado 224969" d="M203.882,355.985l64.562,53.586Z" transform="translate(-202.988 -354.906)" fill="#fff"/>
                      <rect id="Rectángulo_295653" data-name="Rectángulo 295653" width="2.802" height="83.902" transform="matrix(0.639, -0.769, 0.769, 0.639, 0, 2.156)" fill="#969aa8"/>
                    </g>
                    <g id="Grupo_221894" data-name="Grupo 221894" transform="translate(58.768 80.364)">
                      <path id="Trazado_224970" data-name="Trazado 224970" d="M205.372,354.191l74.326,61.7Z" transform="translate(-204.474 -353.109)" fill="#fff"/>
                      <rect id="Rectángulo_295654" data-name="Rectángulo 295654" width="2.802" height="96.602" transform="matrix(0.639, -0.769, 0.769, 0.639, 0, 2.156)" fill="#969aa8"/>
                    </g>
                    <g id="Grupo_221895" data-name="Grupo 221895" transform="translate(24.658 121.459)">
                      <path id="Trazado_224971" data-name="Trazado 224971" d="M197.767,363.353l32.276,26.791Z" transform="translate(-196.87 -362.273)" fill="#fff"/>
                      <rect id="Rectángulo_295655" data-name="Rectángulo 295655" width="2.802" height="41.95" transform="translate(0 2.156) rotate(-50.308)" fill="#969aa8"/>
                    </g>
                    <g id="Grupo_221896" data-name="Grupo 221896" transform="translate(31.34 113.411)">
                      <path id="Trazado_224972" data-name="Trazado 224972" d="M199.256,361.558l32.281,26.8Z" transform="translate(-198.363 -360.48)" fill="#fff"/>
                      <rect id="Rectángulo_295656" data-name="Rectángulo 295656" width="2.802" height="41.952" transform="matrix(0.639, -0.769, 0.769, 0.639, 0, 2.156)" fill="#969aa8"/>
                    </g>
                    <g id="Grupo_221897" data-name="Grupo 221897" transform="translate(18.023 129.457)">
                      <path id="Trazado_224973" data-name="Trazado 224973" d="M196.287,365.136l32.276,26.791Z" transform="translate(-195.393 -364.056)" fill="#fff"/>
                      <rect id="Rectángulo_295657" data-name="Rectángulo 295657" width="2.802" height="41.946" transform="translate(0 2.156) rotate(-50.304)" fill="#969aa8"/>
                    </g>
                    <rect id="Rectángulo_295658" data-name="Rectángulo 295658" width="96.599" height="7.391" transform="translate(103.01 29.223) rotate(39.694)" fill="#969aa8"/>
                  </g>
                  <path id="hand-3" data-name="hand" d="M306.137,405.589c-4.378,5.2-10.213,10.55-13.317,14.779-6.737,9.051-53.017,39.247-61.471,43.283-12.456,5.952-44.893,10.778-44.893,10.778l-15.9-43.624s25.777-31.765,29.594-37.524c3.817-5.723,12.989-23.983,17.21-26.414,10.572-6.091,49.93-10.554,59.722-12.115l-2.023,24.831c-6.584,2.62-22.157,5.391-23.319,8.572-1.269,3.552-4.449,18.82-1.606,21.364,2.88,2.543,15.936-3.292,21.66-5.163,3.7-1.2,7.033-4.117,10.1-6.809a54.654,54.654,0,0,1,4.714-3.929c4.118-2.884,18.408-7.782,23.494-2.884C313.919,394.479,310.892,399.937,306.137,405.589Z" transform="translate(-162.217 -270.79)" fill="#f9c0b9"/>
                  <g id="sleeve" transform="translate(0 152.789)">
                    <path id="Trazado_224974" data-name="Trazado 224974" d="M173.083,370.514,215.6,433.878,169.113,460.64V370.514Z" transform="translate(-167.241 -368.643)" fill="#fff"/>
                    <path id="Trazado_224975" data-name="Trazado 224975" d="M170.566,463.966a1.875,1.875,0,0,1-1.87-1.87V371.967a1.872,1.872,0,0,1,1.87-1.87h3.974a1.866,1.866,0,0,1,1.552.83l42.516,63.364a1.868,1.868,0,0,1-.624,2.664L171.5,463.719A1.908,1.908,0,0,1,170.566,463.966Zm1.87-90.128v85.019l41.947-24.144L173.54,373.838Z" transform="translate(-168.696 -370.097)" fill="#fff"/>
                  </g>
                </g>
                <rect id="telephone" width="17.412" height="282.579" rx="1.825" transform="translate(0 23.419)" fill="#969aa8"/>
                <g id="bubbles" transform="translate(36.791 102.105)">
                  <path id="Trazado_224976" data-name="Trazado 224976" d="M185.172,399.449a4.784,4.784,0,1,1-4.786-4.781A4.784,4.784,0,0,1,185.172,399.449Z" transform="translate(-169.729 -233.775)" fill="#fff"/>
                  <path id="Trazado_224977" data-name="Trazado 224977" d="M183.953,394.85a2.88,2.88,0,1,1-2.88-2.88A2.883,2.883,0,0,1,183.953,394.85Z" transform="translate(-160.706 -243.178)" fill="#fff"/>
                  <path id="Trazado_224978" data-name="Trazado 224978" d="M230.143,382.232a3.012,3.012,0,1,1-3.014-3.014A3.014,3.014,0,0,1,230.143,382.232Z" transform="translate(-0.643 -287.623)" fill="#fff"/>
                  <path id="Trazado_224979" data-name="Trazado 224979" d="M180.171,361.73a2.938,2.938,0,1,1-2.938-2.933A2.936,2.936,0,0,1,180.171,361.73Z" transform="translate(-174.295 -358.797)" fill="#fff"/>
                </g>
              </g>
            </g>
          </g>
        </g>
      </g>
    </g>
  </g>
</svg>
