<svg xmlns="http://www.w3.org/2000/svg" width="531" height="322" viewBox="0 0 531 322">
  <g id="Grupo_222351" data-name="Grupo 222351" transform="translate(6608 10139)">
    <g id="Grupo_222350" data-name="Grupo 222350">
      <g id="Grupo_222349" data-name="Grupo 222349">
        <g id="Grupo_222348" data-name="Grupo 222348">
          <g id="Grupo_222275" data-name="Grupo 222275">
            <rect id="Rectángulo_295900" data-name="Rectángulo 295900" width="531" height="322" transform="translate(-6608 -10139)" fill="none"/>
            <g id="_1d" data-name="1d" transform="translate(-6513.1 -10195.14)">
              <g id="Grupo_141108" data-name="Grupo 141108" transform="translate(10.1 61.14)">
                <g id="Grupo_141083" data-name="Grupo 141083" transform="translate(257.971 48.073)" opacity="0.3">
                  <rect id="Rectángulo_44084" data-name="Rectángulo 44084" width="34.178" height="97.583" rx="8.66" fill="#d2e1f1"/>
                </g>
                <path id="Trazado_192070" data-name="Trazado 192070" d="M308.687,134.28,303.556,187.6H219l5.124-53.318Z" transform="translate(-79.443 -85.418)" fill="#89d1de"/>
                <path id="Trazado_192071" data-name="Trazado 192071" d="M320.753,186.084H285.58l2.138-14.544h35.173Z" transform="translate(-101.543 -97.786)" fill="#daebe8"/>
                <g id="Grupo_141084" data-name="Grupo 141084" transform="translate(188.6 76.453)">
                  <path id="Trazado_192072" data-name="Trazado 192072" d="M305.8,176.415H293.47l.087-.835h12.326Z" transform="translate(-292.762 -175.58)" fill="#1d1d1b"/>
                  <path id="Trazado_192073" data-name="Trazado 192073" d="M304.736,187.108H292.41l.087-.828h12.326Z" transform="translate(-292.41 -179.132)" fill="#1d1d1b"/>
                  <path id="Trazado_192074" data-name="Trazado 192074" d="M311.592,181.388H292.98l.08-.828h18.619Z" transform="translate(-292.599 -177.233)" fill="#1d1d1b"/>
                  <path id="Trazado_192075" data-name="Trazado 192075" d="M327.826,176.415H315.5l.08-.835h12.326Z" transform="translate(-300.075 -175.58)" fill="#1d1d1b"/>
                </g>
                <path id="Trazado_192076" data-name="Trazado 192076" d="M217.08,134.28h6.407L218.363,187.6H217.08Z" transform="translate(-78.805 -85.418)" fill="#1d1d1b"/>
                <g id="Grupo_141087" data-name="Grupo 141087" transform="translate(146.078 55.069)">
                  <path id="Trazado_192077" data-name="Trazado 192077" d="M275.327,200.7c.16.428-33.957-.4-33.957-.4.174-3.761.334-7.83.387-11.284.147-9.306-.728-11.678,7.375-15.258.087-.04.174-.074.261-.114.174-.08.361-.154.548-.234a13.916,13.916,0,0,1,1.63-.488h0a.834.834,0,0,0,.107-.027h0c2.185-.548,7.923-.013,8.511.053,5.558.648,7.87,1.951,10.068,5.625C272.729,182.719,277.385,199.714,275.327,200.7Z" transform="translate(-232.946 -153.225)" fill="#0f2771"/>
                  <path id="Trazado_192078" data-name="Trazado 192078" d="M268.07,183.1a.475.475,0,1,1,.474.494A.485.485,0,0,1,268.07,183.1Z" transform="translate(-241.809 -156.53)" fill="#ffb27d"/>
                  <path id="Trazado_192079" data-name="Trazado 192079" d="M271.05,206.894a.475.475,0,1,1,.474.494A.485.485,0,0,1,271.05,206.894Z" transform="translate(-242.798 -164.426)" fill="#ffb27d"/>
                  <path id="Trazado_192080" data-name="Trazado 192080" d="M271.05,196.114a.475.475,0,1,1,.474.494A.485.485,0,0,1,271.05,196.114Z" transform="translate(-242.798 -160.848)" fill="#ffb27d"/>
                  <path id="Trazado_192081" data-name="Trazado 192081" d="M237.872,200.709c.147-.468.294-.942.441-1.416a.128.128,0,0,1,.02-.053c1.757-5.485,4.022-10.963,6.594-13.455l.261-11.07h0l.013-.661v-.174s-.094.027-.274.094c-1.844.675-12.286,5.151-15.118,20.616-.408,2.218-.762,4.262-1.049,6.126h9.106Z" transform="translate(-228.76 -153.632)" fill="#0f2771"/>
                  <path id="Trazado_192082" data-name="Trazado 192082" d="M242.41,209l-.14-.047c.134-.428.281-.875.461-1.423a.212.212,0,0,1,.02-.06c1.57-4.683,3.387-8.658,3.407-8.7l.134.06c-.02.04-1.83,4.015-3.4,8.691,0,.013-.013.033-.013.047-.187.554-.334,1-.461,1.43Z" transform="translate(-233.245 -161.894)" fill="#1d1d1b"/>
                  <path id="Trazado_192083" data-name="Trazado 192083" d="M284.2,204.092a49.1,49.1,0,0,0-.434-5.3v-.053a99.431,99.431,0,0,0-3.3-14.637l.14-.047a99.551,99.551,0,0,1,3.3,14.657v.06a46.019,46.019,0,0,1,.434,5.318H284.2Z" transform="translate(-245.925 -157.008)" fill="#1d1d1b"/>
                  <path id="Trazado_192084" data-name="Trazado 192084" d="M256.51,166.929a6.027,6.027,0,0,0,4.97,2.632c3.167.214,1.917-3.294,1.917-3.294a1.183,1.183,0,0,1-1.182-1.323l-.013-1v-.494l-.027-1.583-.02-1.423-.067-5.832-1.851,5.812-.314.989-1.089,3.407a3.1,3.1,0,0,1-2.3,2.111h-.013Z" transform="translate(-237.971 -147.235)" fill="#ffb27d"/>
                  <path id="Trazado_192085" data-name="Trazado 192085" d="M261.61,164.79s.822,1.777,2.278,2.044l-.02-1.583a22.616,22.616,0,0,0-2.258-.454Z" transform="translate(-239.664 -150.614)" fill="#1d1d1b"/>
                  <path id="Trazado_192086" data-name="Trazado 192086" d="M254.16,155.85a6.726,6.726,0,0,1,.408,2.9c-.047,2.973,3.273,3.273,3.855,2.265.073-.127-1.236-4.79-1.236-4.79l-1.122-.327-1.9-.047Z" transform="translate(-237.191 -147.647)" fill="#1d1d1b"/>
                  <path id="Trazado_192087" data-name="Trazado 192087" d="M266.758,151.156c-.9-3.594-3.908-5.872-6.7-5.084s-4.336,4.349-3.427,7.943,3.908,5.872,6.7,5.084S267.667,154.751,266.758,151.156Z" transform="translate(-237.924 -144.35)" fill="#ffb27d"/>
                  <path id="Trazado_192088" data-name="Trazado 192088" d="M261.538,146.492c-.094.241,1.55,3.367-4.209,5.846s-4.068-6.059.281-7.469c6.286-2.038,8.324,2.151,8.117,3.922s-4.2-2.3-4.2-2.3Z" transform="translate(-237.02 -143.82)" fill="#1d1d1b"/>
                  <path id="Trazado_192089" data-name="Trazado 192089" d="M258.455,154.45s-1.764,3.36-.234,5.859c0,0-1.817-1.209-2-1.8a25.557,25.557,0,0,1-.354-2.866l2.579-1.2Z" transform="translate(-237.759 -147.182)" fill="#1d1d1b"/>
                  <path id="Trazado_192090" data-name="Trazado 192090" d="M257.7,158a1.261,1.261,0,0,0,1.824-.374,1.513,1.513,0,0,0-.775-1.857,1.261,1.261,0,0,0-1.824.374A1.52,1.52,0,0,0,257.7,158Z" transform="translate(-238.077 -147.546)" fill="#ffb27d"/>
                  <path id="Trazado_192091" data-name="Trazado 192091" d="M264.365,155.665a.244.244,0,0,0,.06-.094.132.132,0,0,0-.1-.14,1.286,1.286,0,0,0-1.4.768.121.121,0,0,0,.047.167.124.124,0,0,0,.16-.053,2.049,2.049,0,0,1,1.169-.641.132.132,0,0,0,.073-.013Z" transform="translate(-240.094 -147.502)" fill="#080435"/>
                  <path id="Trazado_192092" data-name="Trazado 192092" d="M264.22,157.841c.06.287.281.481.481.434s.314-.327.247-.615-.281-.481-.481-.434S264.154,157.554,264.22,157.841Z" transform="translate(-240.524 -148.101)" fill="#080435"/>
                  <path id="Trazado_192093" data-name="Trazado 192093" d="M270.7,154.772a.112.112,0,0,0,.087-.06.121.121,0,0,0-.047-.167,1.247,1.247,0,0,0-1.577.154.126.126,0,0,0-.02.174.13.13,0,0,0,.167.02,1.946,1.946,0,0,1,1.309-.127.1.1,0,0,0,.073.013Z" transform="translate(-242.158 -147.143)" fill="#080435"/>
                  <path id="Trazado_192094" data-name="Trazado 192094" d="M269.825,156.6c-.047.294.08.561.281.595s.408-.174.454-.468-.08-.561-.281-.595S269.872,156.3,269.825,156.6Z" transform="translate(-242.388 -147.738)" fill="#080435"/>
                  <g id="Grupo_141085" data-name="Grupo 141085" transform="translate(20.96 5.896)" opacity="0.3">
                    <ellipse id="Elipse_4924" data-name="Elipse 4924" cx="2.031" cy="3.106" rx="2.031" ry="3.106" transform="translate(0 0.57) rotate(-8.06)" fill="#fff"/>
                  </g>
                  <g id="Grupo_141086" data-name="Grupo 141086" transform="translate(26.646 5.659)" opacity="0.3">
                    <path id="Trazado_192095" data-name="Trazado 192095" d="M268.656,154.606c.107,1.643,1.009,3.173,2.031,3.414s1.757-.889,1.657-2.532-1.009-3.173-2.031-3.414S268.555,152.962,268.656,154.606Z" transform="translate(-268.646 -152.042)" fill="#fff"/>
                  </g>
                  <path id="Trazado_192096" data-name="Trazado 192096" d="M260.72,155.451a3.937,3.937,0,0,1-.007-.561,4.046,4.046,0,0,1,.06-.508.1.1,0,0,0-.02.013c-.013.047-.02.1-.033.154-.02.1-.033.207-.047.314a1.2,1.2,0,0,1-.013.154v.307a1.245,1.245,0,0,1,.067.134Zm0,0a3.937,3.937,0,0,1-.007-.561,4.046,4.046,0,0,1,.06-.508.1.1,0,0,0-.02.013c-.013.047-.02.1-.033.154-.02.1-.033.207-.047.314a1.2,1.2,0,0,1-.013.154v.307a1.245,1.245,0,0,1,.067.134Zm0,0a3.937,3.937,0,0,1-.007-.561,4.046,4.046,0,0,1,.06-.508.1.1,0,0,0-.02.013c-.013.047-.02.1-.033.154-.02.1-.033.207-.047.314a1.2,1.2,0,0,1-.013.154v.307a1.245,1.245,0,0,1,.067.134Zm4.309-.314h0a2.253,2.253,0,0,0-.074-.381h0a3.521,3.521,0,0,0-1.677-2.432h0a2.325,2.325,0,0,0-.3-.114,1.6,1.6,0,0,0-1.416.287,2.97,2.97,0,0,0-1.009,2c-.013.127-.027.254-.033.381v.227h0a5.327,5.327,0,0,0,.04.661c.027.18.06.354.1.528.02.08.047.167.073.247h0a3.643,3.643,0,0,0,1.2,1.857.021.021,0,0,1,.013.007,2.057,2.057,0,0,0,.675.334,1.577,1.577,0,0,0,.681.04,1.326,1.326,0,0,0,.174-.04h0a1.759,1.759,0,0,0,.554-.287,2.717,2.717,0,0,0,.915-1.516,4.39,4.39,0,0,0,.127-.862,4.852,4.852,0,0,0-.047-.935Zm-.274,1.744a3.016,3.016,0,0,1-.381.9h0v.007a1.941,1.941,0,0,1-.454.5,1.586,1.586,0,0,1-.441.241.1.1,0,0,0-.04.013,1.366,1.366,0,0,1-.768,0,1.76,1.76,0,0,1-.655-.341.285.285,0,0,0-.047-.033,3.625,3.625,0,0,1-1.129-1.951h0c-.027-.127-.053-.254-.074-.387a3.386,3.386,0,0,1-.04-.374h0a3.941,3.941,0,0,1-.007-.561,4.064,4.064,0,0,1,.06-.508,2.015,2.015,0,0,1,.06-.274v-.04h0a3.208,3.208,0,0,1,.167-.488,2.21,2.21,0,0,1,.675-.909,1.4,1.4,0,0,1,1.249-.254,1.307,1.307,0,0,1,.227.08h0a3.254,3.254,0,0,1,1.623,2.338h0a3.62,3.62,0,0,1,.067.387h0a4.492,4.492,0,0,1,.04.848,3.992,3.992,0,0,1-.12.822Zm-4.035-1.43a3.937,3.937,0,0,1-.007-.561,4.046,4.046,0,0,1,.06-.508.1.1,0,0,0-.02.013c-.013.047-.02.1-.033.154-.02.1-.033.207-.047.314a1.2,1.2,0,0,1-.013.154v.307a1.245,1.245,0,0,1,.067.134Zm0,0a3.937,3.937,0,0,1-.007-.561,4.046,4.046,0,0,1,.06-.508.1.1,0,0,0-.02.013c-.013.047-.02.1-.033.154-.02.1-.033.207-.047.314a1.2,1.2,0,0,1-.013.154v.307a1.245,1.245,0,0,1,.067.134Z" transform="translate(-239.302 -146.42)" fill="#68a1bf"/>
                  <path id="Trazado_192097" data-name="Trazado 192097" d="M268.724,154.857s-.02,0-.027-.013a.049.049,0,0,1-.04-.013h0v.013h0v.013a1.548,1.548,0,0,0,.033.187v.04a.285.285,0,0,0,.013.073,1.077,1.077,0,0,0,.033.14.085.085,0,0,0,.007.04c.013.04.02.073.033.114l.04.14h0c.013.047.033.094.047.14s.027.073.04.107.02.053.027.08.02.053.033.08h0v.02a.743.743,0,0,0,.047.107.05.05,0,0,0,.007.027h0a5.128,5.128,0,0,1-.314-1.316Zm0,0s-.02,0-.027-.013a.049.049,0,0,1-.04-.013h0v.013h0v.013a1.548,1.548,0,0,0,.033.187v.04a.285.285,0,0,0,.013.073,1.077,1.077,0,0,0,.033.14.085.085,0,0,0,.007.04c.013.04.02.073.033.114l.04.14h0c.013.047.033.094.047.14s.027.073.04.107.02.053.027.08.02.053.033.08h0v.02a.743.743,0,0,0,.047.107.05.05,0,0,0,.007.027h0a5.128,5.128,0,0,1-.314-1.316Zm0,0s-.02,0-.027-.013a.049.049,0,0,1-.04-.013h0v.013h0v.013a1.548,1.548,0,0,0,.033.187v.04a.285.285,0,0,0,.013.073,1.077,1.077,0,0,0,.033.14.085.085,0,0,0,.007.04c.013.04.02.073.033.114l.04.14h0c.013.047.033.094.047.14s.027.073.04.107.02.053.027.08.02.053.033.08h0v.02a.743.743,0,0,0,.047.107.05.05,0,0,0,.007.027h0a5.128,5.128,0,0,1-.314-1.316Zm0,0s-.02,0-.027-.013a.049.049,0,0,1-.04-.013h0v.013h0v.013a1.548,1.548,0,0,0,.033.187v.04a.285.285,0,0,0,.013.073,1.077,1.077,0,0,0,.033.14.085.085,0,0,0,.007.04c.013.04.02.073.033.114l.04.14h0c.013.047.033.094.047.14s.027.073.04.107.02.053.027.08.02.053.033.08h0v.02a.743.743,0,0,0,.047.107.05.05,0,0,0,.007.027h0a5.128,5.128,0,0,1-.314-1.316Zm0,0s-.02,0-.027-.013a.049.049,0,0,1-.04-.013h0v.013h0v.013a1.548,1.548,0,0,0,.033.187v.04a.285.285,0,0,0,.013.073,1.077,1.077,0,0,0,.033.14.085.085,0,0,0,.007.04c.013.04.02.073.033.114l.04.14h0c.013.047.033.094.047.14s.027.073.04.107.02.053.027.08.02.053.033.08h0v.02a.743.743,0,0,0,.047.107.05.05,0,0,0,.007.027h0a5.128,5.128,0,0,1-.314-1.316Zm0,0s-.02,0-.027-.013a.049.049,0,0,1-.04-.013h0v.013h0v.013a1.548,1.548,0,0,0,.033.187v.04a.285.285,0,0,0,.013.073,1.077,1.077,0,0,0,.033.14.085.085,0,0,0,.007.04c.013.04.02.073.033.114l.04.14h0c.013.047.033.094.047.14s.027.073.04.107.02.053.027.08.02.053.033.08h0v.02a.743.743,0,0,0,.047.107.05.05,0,0,0,.007.027h0a5.128,5.128,0,0,1-.314-1.316Zm0,0s-.02,0-.027-.013a.049.049,0,0,1-.04-.013h0v.013h0v.013a1.548,1.548,0,0,0,.033.187v.04a.285.285,0,0,0,.013.073,1.077,1.077,0,0,0,.033.14.085.085,0,0,0,.007.04c.013.04.02.073.033.114l.04.14h0c.013.047.033.094.047.14s.027.073.04.107.02.053.027.08.02.053.033.08h0v.02a.743.743,0,0,0,.047.107.05.05,0,0,0,.007.027h0a5.128,5.128,0,0,1-.314-1.316Zm3.768.414c.04-1.764-.815-3.447-1.9-3.754-.027,0-.047-.013-.067-.013h0a1.278,1.278,0,0,0-.274-.033h0a1.145,1.145,0,0,0-.367.06h0a1.562,1.562,0,0,0-.428.227,3.2,3.2,0,0,0-.949,2.445v.207a3.762,3.762,0,0,0,.02.387h0a4.765,4.765,0,0,0,.14.828,4.358,4.358,0,0,0,.681,1.51h0a2.057,2.057,0,0,0,1.056.815c.027,0,.047.013.073.013h0a1.276,1.276,0,0,0,.595-.013,1.418,1.418,0,0,0,.468-.24,3.176,3.176,0,0,0,.949-2.445Zm-2.131,2.452h-.013a1.744,1.744,0,0,1-.661-.474,3.34,3.34,0,0,1-.608-1,.127.127,0,0,0-.02-.053h0a5.126,5.126,0,0,1-.314-1.316c-.013-.134-.02-.274-.027-.408h0v-.241a4.277,4.277,0,0,1,.247-1.37,2.189,2.189,0,0,1,.595-.889h0l.027-.027a1.182,1.182,0,0,1,.394-.207,1.006,1.006,0,0,1,.374-.033.981.981,0,0,1,.194.033c1,.281,1.79,1.877,1.757,3.547v.02h0v.013h0a2.96,2.96,0,0,1-.868,2.238,1.053,1.053,0,0,1-.862.227h0a.358.358,0,0,1-.107-.027.463.463,0,0,1-.087-.033h0Zm-1.637-2.873s-.02,0-.027-.013a.049.049,0,0,1-.04-.013h0v.013h0v.013a1.547,1.547,0,0,0,.033.187v.04a.285.285,0,0,0,.013.073,1.077,1.077,0,0,0,.033.14.085.085,0,0,0,.007.04c.013.04.02.073.033.114l.04.14h0c.013.047.033.094.047.14s.027.074.04.107.02.053.027.08.02.053.033.08h0v.02a.742.742,0,0,0,.047.107.05.05,0,0,0,.007.027h0a5.128,5.128,0,0,1-.314-1.316Zm0,0s-.02,0-.027-.013a.049.049,0,0,1-.04-.013h0v.013h0v.013a1.547,1.547,0,0,0,.033.187v.04a.285.285,0,0,0,.013.073,1.077,1.077,0,0,0,.033.14.085.085,0,0,0,.007.04c.013.04.02.073.033.114l.04.14h0c.013.047.033.094.047.14s.027.074.04.107.02.053.027.08.02.053.033.08h0v.02a.742.742,0,0,0,.047.107.05.05,0,0,0,.007.027h0a5.128,5.128,0,0,1-.314-1.316Zm0,0s-.02,0-.027-.013a.049.049,0,0,1-.04-.013h0v.013h0v.013a1.547,1.547,0,0,0,.033.187v.04a.285.285,0,0,0,.013.073,1.077,1.077,0,0,0,.033.14.085.085,0,0,0,.007.04c.013.04.02.073.033.114l.04.14h0c.013.047.033.094.047.14s.027.074.04.107.02.053.027.08.02.053.033.08h0v.02a.742.742,0,0,0,.047.107.05.05,0,0,0,.007.027h0a5.128,5.128,0,0,1-.314-1.316Zm0,0s-.02,0-.027-.013a.049.049,0,0,1-.04-.013h0v.013h0v.013a1.547,1.547,0,0,0,.033.187v.04a.285.285,0,0,0,.013.073,1.077,1.077,0,0,0,.033.14.085.085,0,0,0,.007.04c.013.04.02.073.033.114l.04.14h0c.013.047.033.094.047.14s.027.074.04.107.02.053.027.08.02.053.033.08h0v.02a.742.742,0,0,0,.047.107.05.05,0,0,0,.007.027h0a5.128,5.128,0,0,1-.314-1.316Zm0,0s-.02,0-.027-.013a.049.049,0,0,1-.04-.013h0v.013h0v.013a1.547,1.547,0,0,0,.033.187v.04a.285.285,0,0,0,.013.073,1.077,1.077,0,0,0,.033.14.085.085,0,0,0,.007.04c.013.04.02.073.033.114l.04.14h0c.013.047.033.094.047.14s.027.074.04.107.02.053.027.08.02.053.033.08h0v.02a.742.742,0,0,0,.047.107.05.05,0,0,0,.007.027h0a5.128,5.128,0,0,1-.314-1.316Zm0,0s-.02,0-.027-.013a.049.049,0,0,1-.04-.013h0v.013h0v.013a1.547,1.547,0,0,0,.033.187v.04a.285.285,0,0,0,.013.073,1.077,1.077,0,0,0,.033.14.085.085,0,0,0,.007.04c.013.04.02.073.033.114l.04.14h0c.013.047.033.094.047.14s.027.074.04.107.02.053.027.08.02.053.033.08h0v.02a.742.742,0,0,0,.047.107.05.05,0,0,0,.007.027h0a5.128,5.128,0,0,1-.314-1.316Zm0,0s-.02,0-.027-.013a.049.049,0,0,1-.04-.013h0v.013h0v.013a1.547,1.547,0,0,0,.033.187v.04a.285.285,0,0,0,.013.073,1.077,1.077,0,0,0,.033.14.085.085,0,0,0,.007.04c.013.04.02.073.033.114l.04.14h0c.013.047.033.094.047.14s.027.074.04.107.02.053.027.08.02.053.033.08h0v.02a.742.742,0,0,0,.047.107.05.05,0,0,0,.007.027h0a5.128,5.128,0,0,1-.314-1.316Zm0,0s-.02,0-.027-.013a.049.049,0,0,1-.04-.013h0v.013h0v.013a1.547,1.547,0,0,0,.033.187v.04a.285.285,0,0,0,.013.073,1.077,1.077,0,0,0,.033.14.085.085,0,0,0,.007.04c.013.04.02.073.033.114l.04.14h0c.013.047.033.094.047.14s.027.074.04.107.02.053.027.08.02.053.033.08h0v.02a.742.742,0,0,0,.047.107.05.05,0,0,0,.007.027h0a5.128,5.128,0,0,1-.314-1.316Z" transform="translate(-241.955 -146.193)" fill="#68a1bf"/>
                  <path id="Trazado_192098" data-name="Trazado 192098" d="M268.173,156.335a.171.171,0,0,0,.12-.114.194.194,0,0,0-.094-.254,1.93,1.93,0,0,0-1.65.18.2.2,0,0,0-.08.261.182.182,0,0,0,.247.08,1.585,1.585,0,0,1,1.336-.167.151.151,0,0,0,.12.007Z" transform="translate(-241.27 -147.651)" fill="#1d1d1b"/>
                  <path id="Trazado_192099" data-name="Trazado 192099" d="M255.381,173.05l-2.171.294a1.205,1.205,0,0,0,.568,1.577c1.022.441,1.236.454,1.51,1.323a1.607,1.607,0,0,0,2.058.728c.474-.267,1.209.9,1.951.942s1.276-1.3,1.049-2.231a13.354,13.354,0,0,1-4.97-2.632Z" transform="translate(-236.843 -153.356)" fill="#fff"/>
                  <path id="Trazado_192100" data-name="Trazado 192100" d="M265.867,172.029s1.1,3.414-1.917,3.294c0,0,1.47,1.757,2.619,1.169s.134-1.249.628-1.663,1.4-.628.969-1.176c-.194-.247-.174-.414-.087-.528a.4.4,0,0,0-.02-.534,2.321,2.321,0,0,0-2.191-.568Z" transform="translate(-240.441 -152.996)" fill="#fff"/>
                  <path id="Trazado_192101" data-name="Trazado 192101" d="M266.407,162.245a3.935,3.935,0,0,1-1.009-.14.06.06,0,0,1-.04-.08c.013-.033.047-.06.08-.04.02,0,2.024.628,2.786-.848a.08.08,0,0,1,.087-.027.07.07,0,0,1,.027.087,2.036,2.036,0,0,1-1.931,1.042Z" transform="translate(-240.907 -149.392)" fill="#020202"/>
                  <path id="Trazado_192102" data-name="Trazado 192102" d="M254.395,146.256a3.419,3.419,0,0,0-2.786-2.659c-2.271-.227-2.659,1.069-3.113,2.165s-1.944,2.846,0,4.075,4.6,0,4.6,0l1.289-3.581Z" transform="translate(-234.988 -143.571)" fill="#1d1d1b"/>
                </g>
                <path id="Trazado_192103" data-name="Trazado 192103" d="M323.273,157.324H288.1l2.138-14.544h35.173Z" transform="translate(-102.38 -88.24)" fill="#daebe8"/>
                <g id="Grupo_141088" data-name="Grupo 141088" transform="translate(190.283 57.239)">
                  <path id="Trazado_192104" data-name="Trazado 192104" d="M308.316,147.655H295.99l.087-.835H308.4Z" transform="translate(-295.282 -146.82)" fill="#1d1d1b"/>
                  <path id="Trazado_192105" data-name="Trazado 192105" d="M307.256,158.348H294.93l.087-.828h12.326Z" transform="translate(-294.93 -150.372)" fill="#1d1d1b"/>
                  <path id="Trazado_192106" data-name="Trazado 192106" d="M314.112,152.635H295.5l.08-.835H314.2Z" transform="translate(-295.119 -148.473)" fill="#1d1d1b"/>
                  <path id="Trazado_192107" data-name="Trazado 192107" d="M330.346,147.655H318.02l.08-.835h12.326Z" transform="translate(-302.595 -146.82)" fill="#1d1d1b"/>
                </g>
                <path id="Trazado_192108" data-name="Trazado 192108" d="M303.1,187.823H216.41V133.61h91.9L303.1,187.823Zm-85.8-.9h84.984l5.037-52.423H217.305Z" transform="translate(-78.583 -85.196)" fill="#1d1d1b"/>
                <rect id="Rectángulo_44085" data-name="Rectángulo 44085" width="4.082" height="133.238" transform="translate(77.668 29.729)" fill="#1d1d1b"/>
                <rect id="Rectángulo_44086" data-name="Rectángulo 44086" width="4.082" height="133.238" transform="translate(28.266 29.729)" fill="#1d1d1b"/>
                <rect id="Rectángulo_44087" data-name="Rectángulo 44087" width="4.082" height="133.238" transform="translate(238.357 29.729)" fill="#1d1d1b"/>
                <g id="Grupo_141090" data-name="Grupo 141090" transform="translate(88.579 70.463)">
                  <path id="Trazado_192112" data-name="Trazado 192112" d="M239,223.3s14.216,42.154,14.363,53.966-13.408-3.06-13.408-3.06l-7.723-46.263L239,223.3Z" transform="translate(-172.414 -185.43)" fill="#ffb27d"/>
                  <path id="Trazado_192113" data-name="Trazado 192113" d="M182,200.1a2.945,2.945,0,0,0-2.338-3.574c-3.053-.909-.962,6.293-8.551,5.518s-5.03,2.512-7.469,4.9-13.141-3.106-16.982,6.333,2.906,16.374,16.167,16.848,8.023,8,19.247,3.821,6.253-22.554,3.1-25.433S182,200.111,182,200.111Z" transform="translate(-143.654 -176.518)" fill="#1d1d1b"/>
                  <path id="Trazado_192114" data-name="Trazado 192114" d="M228.69,292.267s-.194,19.334-1.71,53.451c-1.189,26.749-.942,51.534-3.22,63.278-.815,4.2-31,2.058-30.671-2.565L200.23,323.8l1.363-26.161,27.1-5.378Z" transform="translate(-159.42 -208.321)" fill="#e84828"/>
                  <path id="Trazado_192115" data-name="Trazado 192115" d="M171.69,310.93c.254,2.138,12.012,1.877,26.415,0s25.607-5.077,25.36-7.215-11.865-2.4-26.268-.521-25.754,5.6-25.5,7.736Z" transform="translate(-152.318 -211.532)" fill="#1d1d1b"/>
                  <path id="Trazado_192116" data-name="Trazado 192116" d="M195.427,310.223l-26.8,104.164c-1.289,4.249-26.716,3.681-25.914-.828l20.8-98.519a3.1,3.1,0,0,1,2.124-2.352c5.765-1.71,30.37-6.661,29.8-2.465Z" transform="translate(-142.692 -213.737)" fill="#e84828"/>
                  <path id="Trazado_192117" data-name="Trazado 192117" d="M177.18,220.781s2.732-9.446,17.3-8.912c8,.294,16.408-2.018,20.155,10.856a255.563,255.563,0,0,1,8.792,51.086s-23.863-5.378-51.808,7.168c0,0-.835-42.963,5.565-60.2Z" transform="translate(-152.283 -181.629)" fill="#f4d402"/>
                  <path id="Trazado_192118" data-name="Trazado 192118" d="M164.42,219.1l9.132,7.709s34.445,9.012,39.476,3.775c3.454-3.594,5.291-8.725,4.122-11.384a35.309,35.309,0,0,0-24.4-8.184,48.559,48.559,0,0,1-5.745.047c-12.205-.708-22.58,8.03-22.58,8.03Z" transform="translate(-149.905 -181.34)" fill="#f4d402"/>
                  <path id="Trazado_192119" data-name="Trazado 192119" d="M198.474,378.192l-.514-.12,8.184-35.841A20.031,20.031,0,0,1,215,331l.267.448a19.509,19.509,0,0,0-8.611,10.916l-8.177,35.828Z" transform="translate(-161.038 -221.18)" fill="#020202"/>
                  <path id="Trazado_192120" data-name="Trazado 192120" d="M197.123,202.735a4.456,4.456,0,0,0,3.628-2.726l2-4.763.581-1.383,3.407-8.124-.588,8.418-.354,5.057-.1,1.443a2.288,2.288,0,0,0,1.844,2.425h.02c.608,1.015,1.443,3.073-1.056,3.888-2.939.962-7.689-1.416-9.393-4.229h.027Z" transform="translate(-160.756 -172.962)" fill="#ffb27d"/>
                  <path id="Trazado_192121" data-name="Trazado 192121" d="M206.17,199.056a6.284,6.284,0,0,0,2.605,4.322l.02-.013.354-5.057c-.862-.327-2.98.695-2.973.742Z" transform="translate(-163.763 -177.113)" fill="#1d1d1b"/>
                  <ellipse id="Elipse_4925" data-name="Elipse 4925" cx="7.723" cy="9.734" rx="7.723" ry="9.734" transform="matrix(0.955, -0.298, 0.298, 0.955, 35.095, 6.657)" fill="#ffb27d"/>
                  <path id="Trazado_192122" data-name="Trazado 192122" d="M189.02,310.1s28.74-5.638,38.059-2.98l-4.469,6.807L206,314.892l-16.975-4.79Z" transform="translate(-158.07 -213.016)" fill="#e84828"/>
                  <path id="Trazado_192123" data-name="Trazado 192123" d="M201.129,175.45c.835,1.57,4.73,1.49,7.429.668,3.367-1.022,4.6,3.387,5.238,1.343s.408-7.83-3.44-10.014-12.727.274-13.288,3.394C196.245,175.43,200.414,174.107,201.129,175.45Z" transform="translate(-160.706 -166.614)" fill="#1d1d1b"/>
                  <path id="Trazado_192124" data-name="Trazado 192124" d="M195.681,175.629s2.392-.234,2.639.808,2.452,2.392,1.216,3.554-1.45,1.67-1.062,2.786c.274.775-.461,2.973-.4,4.71a5.671,5.671,0,0,0,.915,2.051,7.7,7.7,0,0,1-7.449-6.774c-.808-4.469,2.559-7.2,4.142-7.128Z" transform="translate(-158.865 -169.599)" fill="#1d1d1b"/>
                  <path id="Trazado_192125" data-name="Trazado 192125" d="M199.919,191.226a1.867,1.867,0,0,0,2.632-.748,2.188,2.188,0,0,0-1.349-2.585,1.867,1.867,0,0,0-2.632.748A2.188,2.188,0,0,0,199.919,191.226Z" transform="translate(-161.207 -173.598)" fill="#ffb27d"/>
                  <path id="Trazado_192126" data-name="Trazado 192126" d="M179.846,233c-.708,1.142-4.743-.18-9.019-2.966s-7.168-5.959-6.46-7.108,4.743.18,9.019,2.966S180.554,231.851,179.846,233Z" transform="translate(-149.852 -185.17)" fill="#1d1d1b"/>
                  <rect id="Rectángulo_44088" data-name="Rectángulo 44088" width="7.876" height="3.922" transform="translate(35.076 42.424) rotate(-12.85)" fill="#daebe8"/>
                  <path id="Trazado_192127" data-name="Trazado 192127" d="M161.388,226.924s-11.076,34.124-10.108,57.046h15.325s1.744-31.085,6.5-46.724c.528-1.737.695-3.8-.568-5.1C169.471,228.989,162.764,223.971,161.388,226.924Z" transform="translate(-145.523 -186.335)" fill="#ffb27d"/>
                </g>
                <g id="Grupo_141091" data-name="Grupo 141091" transform="translate(49.245 158.129)">
                  <path id="Trazado_192128" data-name="Trazado 192128" d="M167.629,493.118h0c.708-.013,1.216-1.156,1.035-2.211l-2.919-17.6H161.79l4.236,18.585A1.365,1.365,0,0,0,167.629,493.118Z" transform="translate(-109.697 -356.086)" fill="#1d1d1b"/>
                  <path id="Trazado_192129" data-name="Trazado 192129" d="M99.707,484.018h0c-.708-.013-1.216-1.156-1.035-2.211l2.919-17.6h3.955L101.311,482.8A1.366,1.366,0,0,1,99.707,484.018Z" transform="translate(-88.733 -353.065)" fill="#1d1d1b"/>
                  <path id="Trazado_192130" data-name="Trazado 192130" d="M97.847,415.789l31.967,5.318,127.038-1.51a8.585,8.585,0,0,0,8.157-8.478l4.449-103.977c.214-5.064-3.554-9.293-8.284-9.293H92.108c-4.69,0-8.444,4.155-8.291,9.172L89.1,404.646C89.249,409.5,93.324,415.863,97.847,415.789Z" transform="translate(-83.813 -297.843)" fill="#12263f"/>
                  <path id="Trazado_192131" data-name="Trazado 192131" d="M150.287,421.27l162.2-1.684a8.585,8.585,0,0,0,8.157-8.478l4.449-103.977c.214-5.064-3.554-9.293-8.284-9.293H147.748c-4.69,0-8.444,4.155-8.291,9.172l3.24,106.742c.147,4.85,3.066,7.589,7.6,7.509Z" transform="translate(-102.282 -297.84)" fill="#0f2771"/>
                </g>
                <rect id="Rectángulo_44089" data-name="Rectángulo 44089" width="221.281" height="34.519" rx="13.48" transform="translate(10.916)" fill="#d2e1f1"/>
                <rect id="Rectángulo_44090" data-name="Rectángulo 44090" width="221.281" height="34.519" rx="13.48" transform="translate(43.838)" fill="#4dd0e1"/>
                <g id="Grupo_141095" data-name="Grupo 141095" transform="translate(210.201 93.687)">
                  <path id="Trazado_192132" data-name="Trazado 192132" d="M391.266,510.01s-.107,4.356-3.08,5.585-11.571,2.338-8.357,5.137c1.844,1.6,10.535.568,12.994.568s4.757,1.062,6.58-.568c2-1.79,0-10.722,0-10.722a9.879,9.879,0,0,1-4.022,1.049A7.867,7.867,0,0,1,391.266,510.01Z" transform="translate(-342.795 -303.826)" fill="#1d1d1b"/>
                  <path id="Trazado_192133" data-name="Trazado 192133" d="M335.871,262s-6.066.514-8.444-1.837-3.621-7.135-1.837-5.986a22.2,22.2,0,0,1,3.654,3.233s-3.788-4.65-2.311-5.057,4.736,3.668,4.736,3.668-4.062-5.892-2.539-5.825,4.576,4.563,4.576,4.563-3.561-5.632-1.79-5.518,2.913,4.67,4.389,4.262,6.3-.6,7.228,2.3L335.865,262Z" transform="translate(-324.745 -217.264)" fill="#ffb27d"/>
                  <path id="Trazado_192134" data-name="Trazado 192134" d="M367.724,343.495s-2.859,9.066,3.006,44.038c4.236,25.246,7.79,50.432,10.241,62.624a9.574,9.574,0,0,0,8.959,7.729l2.352.094a8.013,8.013,0,0,0,8.237-8.651l-5.946-82.512L393.11,339.66l-25.38,3.835Z" transform="translate(-338.78 -247.279)" fill="#f4d402"/>
                  <path id="Trazado_192135" data-name="Trazado 192135" d="M416.549,345.759c-.742,3.16-12.553,6.48-26.682,3.126S364.7,341.971,365.443,338.8s12.974-4.73,27.11-1.376,24.745,5.164,24,8.324Z" transform="translate(-338.242 -245.916)" fill="#1d1d1b"/>
                  <path id="Trazado_192136" data-name="Trazado 192136" d="M442.316,510.01s-.107,4.356-3.08,5.585-11.571,2.338-8.357,5.137c1.844,1.6,10.535.568,12.994.568s4.757,1.062,6.58-.568c2-1.79,0-10.722,0-10.722a9.879,9.879,0,0,1-4.022,1.049A7.867,7.867,0,0,1,442.316,510.01Z" transform="translate(-359.74 -303.826)" fill="#1d1d1b"/>
                  <path id="Trazado_192137" data-name="Trazado 192137" d="M368.069,344.47l26.475,48.374,20.59,60.573a10.646,10.646,0,0,0,9.941,7.509l1.984.033a7.5,7.5,0,0,0,7.422-8.905l-20.1-101.926c-.261-1.176-4.777-2.726-5.926-3.013-11.143-2.746-40.985-7.008-40.377-2.645Z" transform="translate(-339.125 -248.254)" fill="#f4d402"/>
                  <path id="Trazado_192138" data-name="Trazado 192138" d="M405.785,409.178l-7.289-27.33c-.261-.782-.514-1.65-.788-2.552-1.329-4.456-2.98-9.994-6.928-11.658l.214-.508c4.189,1.764,5.886,7.442,7.248,12.012.267.9.521,1.757.788,2.545l7.3,27.344-.534.147Z" transform="translate(-346.665 -256.398)" fill="#020202"/>
                  <path id="Trazado_192139" data-name="Trazado 192139" d="M395.96,208.474s-.207-7,6.033-7.095,4.449,4.429,5.471,5.705-2.118,4.536-5.131,4.743-6.367-3.36-6.367-3.36Z" transform="translate(-348.384 -201.378)" fill="#1d1d1b"/>
                  <path id="Trazado_192140" data-name="Trazado 192140" d="M366.813,274.188c-3.481-1.583-7.783,5.4-7.783,5.4-.06.047,6.28-29.061,26.388-26.288,2.151.294,11.731,2.191,13.709,2.986,14.958,6,13.395,9.513,13.642,24.738.24,14.61,1.717,36.189,1.67,36.79-27.243-12.2-51.113-6.36-51.113-6.36-.2-21.612,3.06-36.182,3.494-37.258Z" transform="translate(-336.125 -218.55)" fill="#fff"/>
                  <path id="Trazado_192141" data-name="Trazado 192141" d="M409.635,246.058c-2.385,2.752-5.071,3.641-8.565,3.641-5.291,0-2.826-5.4-2.826-5.4a1.934,1.934,0,0,0,2.118-1.971l.127-1.583.067-.782.207-2.505.187-2.245.762-9.219,2.438,9.386.414,1.6,1.43,5.5a5.02,5.02,0,0,0,3.608,3.581.04.04,0,0,1,.027.007Z" transform="translate(-348.952 -209.548)" fill="#ffb27d"/>
                  <path id="Trazado_192142" data-name="Trazado 192142" d="M406.005,242.417s-1.563,2.726-4.015,2.986l.207-2.505c1.53-.3,3.808-.488,3.808-.488Z" transform="translate(-350.386 -214.998)" fill="#1d1d1b"/>
                  <path id="Trazado_192143" data-name="Trazado 192143" d="M417.594,229.01a10.21,10.21,0,0,0-1,4.536c-.247,4.71-5.812,4.83-6.661,3.173-.107-.207,2.592-7.449,2.592-7.449l1.9-.4L417.6,229Z" transform="translate(-353.023 -210.504)" fill="#1d1d1b"/>
                  <ellipse id="Elipse_4926" data-name="Elipse 4926" cx="10.696" cy="8.732" rx="10.696" ry="8.732" transform="translate(41.498 25.095) rotate(-70.94)" fill="#ffb27d"/>
                  <path id="Trazado_192144" data-name="Trazado 192144" d="M399.913,213.123c.127.387-2.953,5.157,6.353,9.687s7.449-9.152.361-11.845c-10.235-3.881-14.1,2.519-13.949,5.344s7.235-3.193,7.235-3.193Z" transform="translate(-347.293 -204.157)" fill="#1d1d1b"/>
                  <path id="Trazado_192145" data-name="Trazado 192145" d="M412.127,226.27s2.559,5.5-.267,9.286c0,0,3.16-1.724,3.527-2.639a37.9,37.9,0,0,0,.9-4.489Z" transform="translate(-353.662 -209.641)" fill="#1d1d1b"/>
                  <path id="Trazado_192146" data-name="Trazado 192146" d="M412.859,232.056a2.163,2.163,0,0,1-3-.788,2.375,2.375,0,0,1,1.49-2.853,2.163,2.163,0,0,1,3,.788A2.375,2.375,0,0,1,412.859,232.056Z" transform="translate(-352.957 -210.262)" fill="#ffb27d"/>
                  <path id="Trazado_192147" data-name="Trazado 192147" d="M403.167,227.646a.192.192,0,0,1-.087-.154.2.2,0,0,1,.187-.207,2.165,2.165,0,0,1,2.251,1.363.2.2,0,0,1-.094.261.22.22,0,0,1-.267-.094,3.448,3.448,0,0,0-1.871-1.136A.231.231,0,0,1,403.167,227.646Z" transform="translate(-350.748 -209.974)" fill="#080435"/>
                  <path id="Trazado_192148" data-name="Trazado 192148" d="M403.774,231.146c-.14.448-.514.735-.842.635a.763.763,0,0,1-.347-1c.14-.448.514-.735.842-.635A.763.763,0,0,1,403.774,231.146Z" transform="translate(-350.566 -210.922)" fill="#080435"/>
                  <path id="Trazado_192149" data-name="Trazado 192149" d="M392.571,225.575a.209.209,0,0,1-.14-.107.2.2,0,0,1,.094-.261,2.164,2.164,0,0,1,2.605.408.2.2,0,0,1,.013.281.221.221,0,0,1-.281.013,3.472,3.472,0,0,0-2.165-.341.209.209,0,0,1-.127.013Z" transform="translate(-347.207 -209.2)" fill="#080435"/>
                  <path id="Trazado_192150" data-name="Trazado 192150" d="M394.6,228.587c.047.468-.194.875-.534.909s-.655-.321-.7-.788.194-.875.534-.909S394.556,228.12,394.6,228.587Z" transform="translate(-347.522 -210.147)" fill="#080435"/>
                  <g id="Grupo_141092" data-name="Grupo 141092" transform="translate(50.26 14.636)" opacity="0.3">
                    <path id="Trazado_192151" data-name="Trazado 192151" d="M406.934,227.457c-.06,2.659-1.67,5.124-3.587,5.5s-3.427-1.463-3.367-4.122,1.67-5.124,3.587-5.5S406.994,224.8,406.934,227.457Z" transform="translate(-399.977 -223.285)" fill="#fff"/>
                  </g>
                  <g id="Grupo_141093" data-name="Grupo 141093" transform="translate(42.159 13.315)" opacity="0.3">
                    <path id="Trazado_192152" data-name="Trazado 192152" d="M394.144,225.512c-.354,2.585-2.038,4.9-3.754,5.184s-2.826-1.59-2.472-4.175,2.038-4.9,3.754-5.184S394.5,222.926,394.144,225.512Z" transform="translate(-387.851 -221.308)" fill="#fff"/>
                  </g>
                  <path id="Trazado_192153" data-name="Trazado 192153" d="M406.776,228.165a6.751,6.751,0,0,0,.147-1.042c.007-.12.013-.247.02-.367,0-.207,0-.408-.013-.608a4.578,4.578,0,0,0-1.463-3.267,2.707,2.707,0,0,0-2.325-.608,2.816,2.816,0,0,0-.514.147,5.635,5.635,0,0,0-3.066,3.668,6.123,6.123,0,0,0-.16.6,6.748,6.748,0,0,0-.18,1.47,6.992,6.992,0,0,0,.12,1.376,4.227,4.227,0,0,0,1.356,2.5,2.881,2.881,0,0,0,.9.514,2.11,2.11,0,0,0,.294.08,2.819,2.819,0,0,0,1.136.013,3.611,3.611,0,0,0,1.176-.468,5.811,5.811,0,0,0,2.211-2.806c.053-.12.1-.254.147-.381a6.775,6.775,0,0,0,.227-.822Zm-6.587,2.759a4.62,4.62,0,0,1-.534-1.45,5.975,5.975,0,0,1-.114-1.309,6.824,6.824,0,0,1,.154-1.336,4.778,4.778,0,0,1,.16-.608,5.219,5.219,0,0,1,2.959-3.521,2.559,2.559,0,0,1,.387-.107,2.408,2.408,0,0,1,1,.007,2.368,2.368,0,0,1,1.049.528,3.514,3.514,0,0,1,1.015,1.51,4.7,4.7,0,0,1,.22.788.13.13,0,0,0,.007.047.04.04,0,0,0,.007.027,3.1,3.1,0,0,1,.067.434,6.464,6.464,0,0,1,.04.815,6.645,6.645,0,0,1-.073.9,5.274,5.274,0,0,1-.114.581c-.047.2-.107.4-.167.595h0a5.761,5.761,0,0,1-2.1,2.98,3.13,3.13,0,0,1-1.2.514,2.445,2.445,0,0,1-1.283-.087,2.363,2.363,0,0,1-.768-.448,3.1,3.1,0,0,1-.7-.842s0-.007-.013-.013Z" transform="translate(-349.466 -208.295)" fill="#68a1bf"/>
                  <path id="Trazado_192154" data-name="Trazado 192154" d="M393.779,226.268a4.047,4.047,0,0,0,.1-.408c-.06.013-.1.02-.127.027a7.833,7.833,0,0,1-.675,2.058.007.007,0,0,1,.007-.007,2.019,2.019,0,0,0,.107-.207c0-.013.013-.027.013-.033.04-.08.087-.167.12-.254.06-.127.12-.254.174-.387s.1-.261.147-.4.087-.261.12-.387Zm0,0a4.047,4.047,0,0,0,.1-.408c-.06.013-.1.02-.127.027a7.833,7.833,0,0,1-.675,2.058.007.007,0,0,1,.007-.007,2.019,2.019,0,0,0,.107-.207c0-.013.013-.027.013-.033.04-.08.087-.167.12-.254.06-.127.12-.254.174-.387s.1-.261.147-.4.087-.261.12-.387Zm0,0a4.047,4.047,0,0,0,.1-.408c-.06.013-.1.02-.127.027a7.833,7.833,0,0,1-.675,2.058.007.007,0,0,1,.007-.007,2.019,2.019,0,0,0,.107-.207c0-.013.013-.027.013-.033.04-.08.087-.167.12-.254.06-.127.12-.254.174-.387s.1-.261.147-.4.087-.261.12-.387Zm0,0a4.047,4.047,0,0,0,.1-.408c-.06.013-.1.02-.127.027a7.833,7.833,0,0,1-.675,2.058.007.007,0,0,1,.007-.007,2.019,2.019,0,0,0,.107-.207c0-.013.013-.027.013-.033.04-.08.087-.167.12-.254.06-.127.12-.254.174-.387s.1-.261.147-.4.087-.261.12-.387Zm0,0a4.047,4.047,0,0,0,.1-.408c-.06.013-.1.02-.127.027a7.833,7.833,0,0,1-.675,2.058.007.007,0,0,1,.007-.007,2.019,2.019,0,0,0,.107-.207c0-.013.013-.027.013-.033.04-.08.087-.167.12-.254.06-.127.12-.254.174-.387s.1-.261.147-.4.087-.261.12-.387Zm0,0a4.047,4.047,0,0,0,.1-.408c-.06.013-.1.02-.127.027a7.833,7.833,0,0,1-.675,2.058.007.007,0,0,1,.007-.007,2.019,2.019,0,0,0,.107-.207c0-.013.013-.027.013-.033.04-.08.087-.167.12-.254.06-.127.12-.254.174-.387s.1-.261.147-.4.087-.261.12-.387Zm0,0a4.047,4.047,0,0,0,.1-.408c-.06.013-.1.02-.127.027a7.833,7.833,0,0,1-.675,2.058.007.007,0,0,1,.007-.007,2.019,2.019,0,0,0,.107-.207c0-.013.013-.027.013-.033.04-.08.087-.167.12-.254.06-.127.12-.254.174-.387s.1-.261.147-.4.087-.261.12-.387Zm0,0a4.047,4.047,0,0,0,.1-.408c-.06.013-.1.02-.127.027a7.833,7.833,0,0,1-.675,2.058.007.007,0,0,1,.007-.007,2.019,2.019,0,0,0,.107-.207c0-.013.013-.027.013-.033.04-.08.087-.167.12-.254.06-.127.12-.254.174-.387s.1-.261.147-.4.087-.261.12-.387Zm.321-.441a4.683,4.683,0,0,0,.08-.615c.007-.107.013-.22.02-.334a4.915,4.915,0,0,0-1.309-3.968,2.4,2.4,0,0,0-.681-.408,2.108,2.108,0,0,0-.608-.134,2.163,2.163,0,0,0-.461.027h0a.9.9,0,0,0-.12.02c-1.837.367-3.447,2.939-3.574,5.732a4.915,4.915,0,0,0,1.309,3.968,2.276,2.276,0,0,0,.742.434,2.114,2.114,0,0,0,.982.087h.013a.99.99,0,0,0,.127-.02,3.445,3.445,0,0,0,1.85-1.176h0a6.883,6.883,0,0,0,1.3-2.318,7.428,7.428,0,0,0,.321-1.289Zm-1.056,2.2a5.5,5.5,0,0,1-1.122,1.523,2.866,2.866,0,0,1-1.149.681h-.007a.124.124,0,0,1-.047.013,1.03,1.03,0,0,1-.154.04,1.681,1.681,0,0,1-.18.027,1.772,1.772,0,0,1-1.4-.448,4.55,4.55,0,0,1-1.2-3.634V226.2h0v-.04c.127-2.652,1.61-5.091,3.314-5.431a1.963,1.963,0,0,1,.942.053,1.853,1.853,0,0,1,.635.367c.013.013.033.027.047.04a3.389,3.389,0,0,1,.9,1.47,6.138,6.138,0,0,1,.26,2.191c-.007.127-.013.254-.027.381-.02.214-.053.434-.087.648a7.837,7.837,0,0,1-.675,2.058c-.013.027-.033.053-.047.08Zm.735-1.757a4.028,4.028,0,0,0,.1-.408c-.06.013-.1.02-.127.027a7.835,7.835,0,0,1-.675,2.058.007.007,0,0,1,.007-.007,2.032,2.032,0,0,0,.107-.207c0-.013.013-.027.013-.033.04-.08.087-.167.12-.254.06-.127.12-.254.174-.387s.1-.261.147-.4.087-.261.12-.387Zm0,0a4.028,4.028,0,0,0,.1-.408c-.06.013-.1.02-.127.027a7.835,7.835,0,0,1-.675,2.058.007.007,0,0,1,.007-.007,2.032,2.032,0,0,0,.107-.207c0-.013.013-.027.013-.033.04-.08.087-.167.12-.254.06-.127.12-.254.174-.387s.1-.261.147-.4.087-.261.12-.387Zm0,0a4.028,4.028,0,0,0,.1-.408c-.06.013-.1.02-.127.027a7.835,7.835,0,0,1-.675,2.058.007.007,0,0,1,.007-.007,2.032,2.032,0,0,0,.107-.207c0-.013.013-.027.013-.033.04-.08.087-.167.12-.254.06-.127.12-.254.174-.387s.1-.261.147-.4.087-.261.12-.387Zm0,0a4.028,4.028,0,0,0,.1-.408c-.06.013-.1.02-.127.027a7.835,7.835,0,0,1-.675,2.058.007.007,0,0,1,.007-.007,2.032,2.032,0,0,0,.107-.207c0-.013.013-.027.013-.033.04-.08.087-.167.12-.254.06-.127.12-.254.174-.387s.1-.261.147-.4.087-.261.12-.387Zm0,0a4.028,4.028,0,0,0,.1-.408c-.06.013-.1.02-.127.027a7.835,7.835,0,0,1-.675,2.058.007.007,0,0,1,.007-.007,2.032,2.032,0,0,0,.107-.207c0-.013.013-.027.013-.033.04-.08.087-.167.12-.254.06-.127.12-.254.174-.387s.1-.261.147-.4.087-.261.12-.387Zm0,0a4.028,4.028,0,0,0,.1-.408c-.06.013-.1.02-.127.027a7.835,7.835,0,0,1-.675,2.058.007.007,0,0,1,.007-.007,2.032,2.032,0,0,0,.107-.207c0-.013.013-.027.013-.033.04-.08.087-.167.12-.254.06-.127.12-.254.174-.387s.1-.261.147-.4.087-.261.12-.387Zm0,0a4.028,4.028,0,0,0,.1-.408c-.06.013-.1.02-.127.027a7.835,7.835,0,0,1-.675,2.058.007.007,0,0,1,.007-.007,2.032,2.032,0,0,0,.107-.207c0-.013.013-.027.013-.033.04-.08.087-.167.12-.254.06-.127.12-.254.174-.387s.1-.261.147-.4.087-.261.12-.387Z" transform="translate(-345.555 -207.681)" fill="#68a1bf"/>
                  <path id="Trazado_192155" data-name="Trazado 192155" d="M396.466,228.31a.3.3,0,0,1-.194-.187.3.3,0,0,1,.187-.387,3.358,3.358,0,0,1,2.732.468.3.3,0,0,1,.1.421.305.305,0,0,1-.421.1,2.751,2.751,0,0,0-2.2-.408.3.3,0,0,1-.2,0Z" transform="translate(-348.482 -210.091)" fill="#1d1d1b"/>
                  <path id="Trazado_192156" data-name="Trazado 192156" d="M416.04,213.357s3.02-6.32,8.631-3.587,3.294,5.612,2.265,7.542c-.768,1.443-3.962,3.08-6.754,1.9s-4.142-5.866-4.142-5.866Z" transform="translate(-355.05 -203.936)" fill="#1d1d1b"/>
                  <path id="Trazado_192157" data-name="Trazado 192157" d="M413.063,246.117a.294.294,0,0,0,.107-.013.192.192,0,0,0,.1-.247,8.6,8.6,0,0,0-3.113-3.44.189.189,0,0,0-.2.321,8.277,8.277,0,0,1,2.966,3.273.2.2,0,0,0,.14.114Z" transform="translate(-353.001 -214.991)" fill="#1d1d1b"/>
                  <path id="Trazado_192158" data-name="Trazado 192158" d="M411.251,256.03l3.574.695a1.864,1.864,0,0,1-1.116,2.432c-1.75.588-2.1.588-2.666,1.931s-2.746,1.4-3.507.935-2.111,1.289-3.354,1.289-1.977-2.185-1.5-3.641A22.851,22.851,0,0,0,411.251,256.03Z" transform="translate(-350.567 -219.519)" fill="#85dbe8"/>
                  <path id="Trazado_192159" data-name="Trazado 192159" d="M396.692,253.045s-2.2,5.278,2.826,5.4c0,0-2.639,2.625-4.489,1.57s-.08-1.991-.862-2.692-1.65-1.209-.862-2.031.294-2.445.294-2.445,1.249-1.2,3.1.187Z" transform="translate(-347.399 -218.305)" fill="#85dbe8"/>
                  <path id="Trazado_192160" data-name="Trazado 192160" d="M395.117,272.622a.788.788,0,1,0-.788.782A.784.784,0,0,0,395.117,272.622Z" transform="translate(-347.581 -224.767)" fill="#1d1d1b"/>
                  <ellipse id="Elipse_4927" data-name="Elipse 4927" cx="0.788" cy="0.782" rx="0.788" ry="0.782" transform="translate(42.646 72.252)" fill="#1d1d1b"/>
                  <ellipse id="Elipse_4928" data-name="Elipse 4928" cx="0.788" cy="0.782" rx="0.788" ry="0.782" transform="translate(42.646 60.848)" fill="#1d1d1b"/>
                  <g id="Grupo_141094" data-name="Grupo 141094" transform="translate(68.004 105.582)">
                    <path id="Trazado_192161" data-name="Trazado 192161" d="M449.334,372.207l-1.884-.04.154-7.709a4.183,4.183,0,0,1,3.487-3.955l6.153-1.022a4.182,4.182,0,0,1,4.376,2.138l3.942,8.043-1.7.828-3.928-8.01a2.286,2.286,0,0,0-2.392-1.142l-6.153,1.022a2.279,2.279,0,0,0-1.911,2.151l-.154,7.7Z" transform="translate(-433.48 -359.421)" fill="#bddcf6"/>
                    <path id="Trazado_192162" data-name="Trazado 192162" d="M437.576,399.937l28.92-2.051a3.7,3.7,0,0,0,3.447-3.915l-1.316-20.489a3.718,3.718,0,0,0-4.236-3.42l-34.652,4.87a3.694,3.694,0,0,0-2.939,5.017l7.055,17.67a3.723,3.723,0,0,0,3.721,2.325Z" transform="translate(-426.538 -362.941)" fill="#0f2771"/>
                    <path id="Trazado_192163" data-name="Trazado 192163" d="M449.313,390.4l-.067-.013-20.676-3.748.08-.434,20.61,3.741,20.215-8.965.174.394Z" transform="translate(-427.212 -366.577)" fill="#bddcf6"/>
                    <path id="Trazado_192164" data-name="Trazado 192164" d="M458.736,395.809h0a1.207,1.207,0,0,0,1-1.383l-.194-1.142a1.2,1.2,0,0,0-1.39-.982h0a1.207,1.207,0,0,0-1,1.383l.194,1.142A1.2,1.2,0,0,0,458.736,395.809Z" transform="translate(-436.695 -370.33)" fill="#bddcf6"/>
                  </g>
                  <path id="Trazado_192165" data-name="Trazado 192165" d="M444.591,356.752a38.164,38.164,0,0,0,1.463-3.721,23.456,23.456,0,0,1,1.189-2.893c.367-.681,8.077-.768,8.077-.768a26.069,26.069,0,0,1,2.3,5.565,3.008,3.008,0,0,1,.214.641c.367,1.7,1.2,4.028.167,4.93-1.129.982-1.83-.708-2.118-1.63.194.848.421,2.479-.408,3.4-.875.969-1.877-1.684-2.318-3.026h-.013c.307,1.209.742,3.554-.367,4.2-1.309.755-2.318-2.853-2.585-3.681H450.1c-.762,5.131-2.812,2.539-3.273-1.41-.748.822-2.445,2.3-2.993,1.917-.635-.441.4-2.833.755-3.521Z" transform="translate(-364.207 -250.503)" fill="#ffb27d"/>
                  <path id="Trazado_192166" data-name="Trazado 192166" d="M420.4,257.99s20.5,5.906,25.68,32.822c2.432,12.613,3.714,21.705,2.96,26.749a3.4,3.4,0,0,1-2.786,2.826l-4.9.862a3.274,3.274,0,0,1-3.761-2.479c-2.011-8.8-8.4-34.251-16.728-41.907l-.468-18.873Z" transform="translate(-356.493 -220.17)" fill="#fff"/>
                  <path id="Trazado_192167" data-name="Trazado 192167" d="M348.063,306.434a12.368,12.368,0,0,0,4.95-1.744c5.024-3.066,8.391-9.533,10.923-20.984a55.843,55.843,0,0,1,4.6-11.691L357.6,265.863c-.174.321-4.656,8.084-6.206,15.112-.882,3.975-1.349-21.131-3.514-23.5-1.329-1.456-10.428,7.743-10.428,7.743-.862,3.227-1.577,24.184-1.436,27.938a24.033,24.033,0,0,0,.975,6.514c1.476,4.576,4.576,5.992,6.286,6.433a12.879,12.879,0,0,0,4.79.334Z" transform="translate(-328.479 -219.946)" fill="#fff"/>
                  <path id="Trazado_192168" data-name="Trazado 192168" d="M360.164,305.553l-.234-.033c.007-.067.855-7-1.73-12.419l.214-.1c2.619,5.485,1.757,12.479,1.75,12.553Z" transform="translate(-335.85 -231.791)" fill="#1d1d1b"/>
                  <path id="Trazado_192169" data-name="Trazado 192169" d="M436.89,318.678a140.392,140.392,0,0,0-7.97-21.131l.214-.107a141.117,141.117,0,0,1,7.983,21.177l-.227.06Z" transform="translate(-359.325 -233.265)" fill="#1d1d1b"/>
                  <path id="Trazado_192170" data-name="Trazado 192170" d="M365.524,308c-.321-14.069,6.186-33.67,6.253-33.871l.22.073c-.067.194-6.56,19.761-6.24,33.79h-.234Z" transform="translate(-338.277 -225.527)" fill="#1d1d1b"/>
                  <path id="Trazado_192171" data-name="Trazado 192171" d="M398.23,237.762a3.585,3.585,0,0,1-3.494-1.864.1.1,0,0,1,.053-.134.1.1,0,0,1,.134.047c1.109,2.4,4.523,1.63,4.556,1.623a.1.1,0,0,1,.12.073.1.1,0,0,1-.073.12,6.653,6.653,0,0,1-1.289.127Z" transform="translate(-347.975 -212.789)" fill="#020202"/>
                </g>
                <g id="Grupo_141107" data-name="Grupo 141107" transform="translate(0 99.086)">
                  <g id="Grupo_141099" data-name="Grupo 141099">
                    <g id="Grupo_141098" data-name="Grupo 141098" opacity="0.5">
                      <path id="Trazado_192215" data-name="Trazado 192215" d="M73.572,413.211H21.744L10.1,209.46h3.013Z" transform="translate(-10.1 -209.46)" fill="#4dd0e1"/>
                    </g>
                    <path id="Trazado_192216" data-name="Trazado 192216" d="M78.089,413.211H26.261L14.61,209.46H66.438Z" transform="translate(-11.597 -209.46)" fill="#fff"/>
                    <rect id="Rectángulo_44092" data-name="Rectángulo 44092" width="56.785" height="7.048" transform="translate(6.28 201.56)" fill="#1d1d1b"/>
                    <rect id="Rectángulo_44093" data-name="Rectángulo 44093" width="59.711" height="7.048" transform="translate(12.225 201.56)" fill="#1d1d1b"/>
                  </g>
                  <g id="Grupo_141106" data-name="Grupo 141106" transform="translate(7.79 2.345)">
                    <path id="Trazado_192217" data-name="Trazado 192217" d="M64.556,212.97l7.6,130.4h-42.5l-7.9-130.4Z" transform="translate(-21.76 -212.97)" fill="#85dbe8"/>
                    <g id="Grupo_141100" data-name="Grupo 141100" transform="translate(6.273 13.956)">
                      <path id="Trazado_192218" data-name="Trazado 192218" d="M45.553,234.9H31.217l-.067-1.042H45.487Z" transform="translate(-31.15 -233.86)" fill="#fff"/>
                      <path id="Trazado_192219" data-name="Trazado 192219" d="M46.44,248.322H32.1l-.073-1.042H46.367Z" transform="translate(-31.442 -238.315)" fill="#fff"/>
                      <path id="Trazado_192220" data-name="Trazado 192220" d="M53.279,241.149H31.627L31.56,240.1H53.212Z" transform="translate(-31.286 -235.931)" fill="#fff"/>
                      <path id="Trazado_192221" data-name="Trazado 192221" d="M71.173,234.9H56.837l-.067-1.042H71.107Z" transform="translate(-39.654 -233.86)" fill="#fff"/>
                    </g>
                    <g id="Grupo_141101" data-name="Grupo 141101" transform="translate(9.547 72.311)">
                      <path id="Trazado_192222" data-name="Trazado 192222" d="M50.48,322.252H36.144l-.094-1.042H50.387Z" transform="translate(-36.05 -321.21)" fill="#fff"/>
                      <path id="Trazado_192223" data-name="Trazado 192223" d="M51.66,335.672H37.324l-.094-1.042H51.567Z" transform="translate(-36.442 -325.665)" fill="#fff"/>
                      <path id="Trazado_192224" data-name="Trazado 192224" d="M58.345,328.5H36.694L36.6,327.46H58.252Z" transform="translate(-36.233 -323.285)" fill="#fff"/>
                      <path id="Trazado_192225" data-name="Trazado 192225" d="M76.093,322.252H61.757l-.087-1.042H76Z" transform="translate(-44.554 -321.21)" fill="#fff"/>
                    </g>
                    <g id="Grupo_141103" data-name="Grupo 141103" transform="translate(7.643 31.726)">
                      <path id="Trazado_192226" data-name="Trazado 192226" d="M35.625,288.812H65.8L63.383,260.46H33.2Z" transform="translate(-33.2 -260.46)" fill="#fff"/>
                      <g id="Grupo_141102" data-name="Grupo 141102" transform="translate(7.67 6.327)">
                        <path id="Trazado_192227" data-name="Trazado 192227" d="M62.725,275.67s2.218,11.858.6,12.653-18.044,1.129-18.565,0,1.61-9.046,3.654-9.1,3.688,9.527,5.919,4.683S61.5,271.04,62.725,275.67Z" transform="translate(-44.681 -271.374)" fill="#daebe8"/>
                        <path id="Trazado_192228" data-name="Trazado 192228" d="M55.419,272.3a2.284,2.284,0,0,0-2.225-2.372A2.356,2.356,0,0,0,50.91,272.3a2.284,2.284,0,0,0,2.225,2.372A2.356,2.356,0,0,0,55.419,272.3Z" transform="translate(-46.748 -269.93)" fill="#daebe8"/>
                      </g>
                    </g>
                    <g id="Grupo_141105" data-name="Grupo 141105" transform="translate(11.972 93.234)">
                      <path id="Trazado_192229" data-name="Trazado 192229" d="M42.1,380.889H72.275L69.856,352.53H39.68Z" transform="translate(-39.68 -352.53)" fill="#fff"/>
                      <g id="Grupo_141104" data-name="Grupo 141104" transform="translate(7.663 6.333)">
                        <path id="Trazado_192230" data-name="Trazado 192230" d="M69.195,367.74s2.218,11.858.6,12.653-18.044,1.129-18.565,0,1.61-9.046,3.654-9.1,3.688,9.527,5.919,4.683S67.965,363.11,69.195,367.74Z" transform="translate(-51.151 -363.451)" fill="#daebe8"/>
                        <path id="Trazado_192231" data-name="Trazado 192231" d="M61.9,364.382a2.284,2.284,0,0,0-2.225-2.372,2.355,2.355,0,0,0-2.285,2.372,2.284,2.284,0,0,0,2.225,2.372A2.355,2.355,0,0,0,61.9,364.382Z" transform="translate(-53.222 -362.01)" fill="#daebe8"/>
                      </g>
                    </g>
                  </g>
                </g>
              </g>
              <g id="Grupo_141109" data-name="Grupo 141109" transform="translate(143.497 141.057)">
                <path id="Trazado_192232" data-name="Trazado 192232" d="M216.748,181.463c-.047,0-1.162-.194-1.162-.194a.254.254,0,0,1,.087-.5l1.116.194a.256.256,0,0,1,.207.294A.245.245,0,0,1,216.748,181.463Z" transform="translate(-211.637 -180.766)"/>
                <path id="Trazado_192233" data-name="Trazado 192233" d="M210.034,181.869a.254.254,0,0,1-.06-.5l1.891-.461a.254.254,0,1,1,.12.494l-1.891.461h-.06Z" transform="translate(-209.779 -180.811)"/>
                <path id="Trazado_192234" data-name="Trazado 192234" d="M210.98,187.479a.251.251,0,0,1-.247-.207l-.234-1.356a.257.257,0,0,1,.107-.247l.949-.661a.254.254,0,1,1,.294.414l-.815.575.207,1.2a.255.255,0,0,1-.207.294h-.047Z" transform="translate(-210.017 -182.158)"/>
                <path id="Trazado_192235" data-name="Trazado 192235" d="M217.81,185.959a.251.251,0,0,1-.247-.207l-.234-1.356a.257.257,0,0,1,.107-.247l.949-.661a.254.254,0,1,1,.294.414l-.815.575.207,1.2a.255.255,0,0,1-.207.294h-.047Z" transform="translate(-212.284 -181.654)"/>
                <path id="Trazado_192236" data-name="Trazado 192236" d="M216.2,190.68a.235.235,0,0,1-.08-.013.252.252,0,0,1-.16-.321,5.246,5.246,0,0,0-.541-3.521.251.251,0,1,1,.441-.24,5.684,5.684,0,0,1,.581,3.921.251.251,0,0,1-.24.174Z" transform="translate(-211.64 -182.654)"/>
                <path id="Trazado_192237" data-name="Trazado 192237" d="M213.6,196.98c-1.182,0-1.663-1.343-1.684-1.4a.249.249,0,0,1,.033-.227.256.256,0,0,1,.207-.107h2.886a.256.256,0,0,1,.207.107.252.252,0,0,1,.033.227C215.26,195.644,214.779,196.98,213.6,196.98Zm-1.035-1.229a1.1,1.1,0,0,0,2.071,0h-2.078Z" transform="translate(-210.483 -185.574)"/>
              </g>
            </g>
          </g>
        </g>
      </g>
    </g>
  </g>
</svg>
