<svg xmlns="http://www.w3.org/2000/svg" width="366" height="238" viewBox="0 0 366 238">
  <g id="Grupo_222351" data-name="Grupo 222351" transform="translate(-1054 -15495)">
    <g id="Grupo_222350" data-name="Grupo 222350">
      <g id="Grupo_222349" data-name="Grupo 222349">
        <g id="Grupo_222128" data-name="Grupo 222128" transform="translate(7941 11521)">
          <rect id="Rectángulo_295776" data-name="Rectángulo 295776" width="366" height="238" rx="13" transform="translate(-6887 3974)" fill="#4dd0e1"/>
          <g id="Grupo_222116" data-name="Grupo 222116" transform="translate(-7028.223 3929.366)">
            <rect id="Rectángulo_295540" data-name="Rectángulo 295540" width="346.657" height="224.459" rx="13" transform="translate(148.72 51.104)" fill="#fff"/>
            <path id="Rectángulo_295542" data-name="Rectángulo 295542" d="M15,0H331.657a15,15,0,0,1,15,15V36.435a0,0,0,0,1,0,0H0a0,0,0,0,1,0,0V15A15,15,0,0,1,15,0Z" transform="translate(148.72 51.104)" fill="#4dd0e1"/>
            <g id="Grupo_215042" data-name="Grupo 215042" transform="translate(161.382 65.431)">
              <path id="Trazado_223295" data-name="Trazado 223295" d="M164.688,63.479a4.54,4.54,0,1,1-4.54-4.54A4.54,4.54,0,0,1,164.688,63.479Z" transform="translate(-155.609 -58.939)" fill="#fff"/>
              <path id="Trazado_223296" data-name="Trazado 223296" d="M172.394,63.479a4.54,4.54,0,1,1-4.54-4.54A4.54,4.54,0,0,1,172.394,63.479Z" transform="translate(-149.586 -58.939)" fill="#fff"/>
              <path id="Trazado_223297" data-name="Trazado 223297" d="M180.1,63.479a4.54,4.54,0,1,1-4.54-4.54A4.54,4.54,0,0,1,180.1,63.479Z" transform="translate(-143.563 -58.939)" fill="#fff"/>
            </g>
            <g id="Grupo_215140" data-name="Grupo 215140" transform="translate(148.223 50.633)">
              <path id="Trazado_223341" data-name="Trazado 223341" d="M474.391,275.564c-.005-.052,1.157.007,3.352-.246a28.075,28.075,0,0,0,9.051-2.564c3.506-1.7,7.26-4.716,8.655-9.024.763-2.134.45-4.531.5-7.071q-.012-3.816-.031-8.121c-.049-22.963-.121-56.163-.211-97.183-.026-20.517-.054-42.988-.082-67.111q-.008-9.046-.018-18.4a14.076,14.076,0,0,0-.45-4.581,10.693,10.693,0,0,0-2.581-4.19,19.423,19.423,0,0,0-10.7-5.19,37.7,37.7,0,0,0-6.792-.371l-7.028,0-14.205.005q-14.3,0-28.982.009l-254.657.036a35.7,35.7,0,0,0-8.175.563,20.942,20.942,0,0,0-6.925,2.849c-4.005,2.6-5.866,6.4-5.5,10.205q0,11.6,0,23.033,0,22.871-.01,45.032c-.013,29.525-.026,58-.039,85.131q-.015,20.345-.028,39.643c.023,1.6-.054,3.23.049,4.78a9.919,9.919,0,0,0,1.488,4.477,16.839,16.839,0,0,0,8.889,6.5,24.491,24.491,0,0,0,6.211,1.292c2.128.146,4.388.082,6.594.1l13.164.007,96.837.055c59.187.062,107.086.114,140.217.148l38.123.087,9.915.046c2.231.016,3.375.048,3.375.048s-1.144.03-3.375.046l-9.915.046-38.123.087c-33.131.034-81.03.086-140.217.148l-96.837.055q-6.528.005-13.164.007c-2.218-.016-4.411.057-6.725-.1a26.073,26.073,0,0,1-6.591-1.365c-4.139-1.431-7.581-3.889-9.442-6.891a10.574,10.574,0,0,1-1.594-4.755c-.105-1.636-.031-3.207-.057-4.823q-.011-19.279-.028-39.643c-.013-27.129-.026-55.606-.039-85.131q0-22.141-.01-45.032,0-11.435,0-23.033c-.4-3.895,1.612-8.131,5.915-10.875a22.528,22.528,0,0,1,7.45-3.064,37.651,37.651,0,0,1,8.576-.606l254.657.037,28.982.009,14.205.005,7.028,0a39.387,39.387,0,0,1,7.072.4,20.658,20.658,0,0,1,11.385,5.535,11.381,11.381,0,0,1,2.743,4.463,14.609,14.609,0,0,1,.468,4.755q-.008,9.351-.016,18.4c-.031,24.123-.057,46.594-.082,67.111-.09,41.02-.162,74.22-.213,97.183q-.015,4.3-.031,8.121c-.072,2.526.224,4.946-.573,7.132-1.465,4.381-5.313,7.419-8.889,9.117a27.992,27.992,0,0,1-9.182,2.5,22.58,22.58,0,0,1-2.522.144C474.679,275.57,474.391,275.564,474.391,275.564Z" transform="translate(-148.223 -50.633)" fill="#263238"/>
            </g>
          </g>
          <text id="Restaurante_simplificado_" data-name="Restaurante (simplificado)" transform="translate(-6782 4045)" fill="#12263f" font-size="13" font-family="Roboto-Bold, Roboto" font-weight="700"><tspan x="0" y="0">Restaurante (simplificado)</tspan></text>
          <text id="Probar_la_comida" data-name="Probar la comida" transform="translate(-6755 4079)" fill="#12263f" font-size="13" font-family="Roboto-Regular, Roboto"><tspan x="0" y="0">Probar la comida</tspan></text>
          <text id="Crítico_de_comidas" data-name="Crítico de
comidas" transform="translate(-6835 4162)" fill="#12263f" font-size="13" font-family="Roboto-Bold, Roboto" font-weight="700"><tspan x="-28.184" y="0">Crítico de</tspan><tspan x="-24.905" y="16">comidas</tspan></text>
          <text id="Chef" transform="translate(-6576 4162)" fill="#12263f" font-size="13" font-family="Roboto-Bold, Roboto" font-weight="700"><tspan x="-13.733" y="0">Chef</tspan></text>
          <text id="Pagar_la_comida" data-name="Pagar la comida" transform="translate(-6753 4113)" fill="#12263f" font-size="13" font-family="Roboto-Regular, Roboto"><tspan x="0" y="0">Pagar la comida</tspan></text>
          <text id="Beber_la_comida" data-name="Beber la comida" transform="translate(-6752 4147)" fill="#12263f" font-size="13" font-family="Roboto-Regular, Roboto"><tspan x="0" y="0">Beber la comida</tspan></text>
          <text id="Preparar_la_comida" data-name="Preparar la comida" transform="translate(-6760 4181)" fill="#12263f" font-size="13" font-family="Roboto-Regular, Roboto"><tspan x="0" y="0">Preparar la comida</tspan></text>
          <g id="Rectángulo_295783" data-name="Rectángulo 295783" transform="translate(-6790 4023)" fill="none" stroke="#bebbbb" stroke-width="2">
            <rect width="169" height="174" rx="8" stroke="none"/>
            <rect x="1" y="1" width="167" height="172" rx="7" fill="none"/>
          </g>
          <g id="Rectángulo_295784" data-name="Rectángulo 295784" transform="translate(-6773 4061)" fill="none" stroke="#bebbbb" stroke-width="2">
            <rect width="136" height="28" rx="8" stroke="none"/>
            <rect x="1" y="1" width="134" height="26" rx="7" fill="none"/>
          </g>
          <g id="Rectángulo_295785" data-name="Rectángulo 295785" transform="translate(-6773 4095)" fill="none" stroke="#bebbbb" stroke-width="2">
            <rect width="136" height="28" rx="8" stroke="none"/>
            <rect x="1" y="1" width="134" height="26" rx="7" fill="none"/>
          </g>
          <g id="Rectángulo_295786" data-name="Rectángulo 295786" transform="translate(-6773 4129)" fill="none" stroke="#bebbbb" stroke-width="2">
            <rect width="136" height="28" rx="8" stroke="none"/>
            <rect x="1" y="1" width="134" height="26" rx="7" fill="none"/>
          </g>
          <g id="Rectángulo_295787" data-name="Rectángulo 295787" transform="translate(-6773 4163)" fill="none" stroke="#bebbbb" stroke-width="2">
            <rect width="136" height="28" rx="8" stroke="none"/>
            <rect x="1" y="1" width="134" height="26" rx="7" fill="none"/>
          </g>
          <line id="Línea_470" data-name="Línea 470" y1="17" x2="34" transform="translate(-6806.5 4075.5)" fill="none" stroke="#bebbbb" stroke-width="2"/>
          <path id="Trazado_225607" data-name="Trazado 225607" d="M4.529,0H34" transform="translate(-6806.5 4109)" fill="none" stroke="#bebbbb" stroke-width="2"/>
          <line id="Línea_472" data-name="Línea 472" x2="44" y2="19.5" transform="translate(-6816.5 4123.5)" fill="none" stroke="#bebbbb" stroke-width="2"/>
          <line id="Línea_473" data-name="Línea 473" y1="60" x2="43" transform="translate(-6637.5 4116.5)" fill="none" stroke="#bebbbb" stroke-width="2"/>
          <g id="Grupo_222126" data-name="Grupo 222126">
            <circle id="Elipse_16269" data-name="Elipse 16269" cx="34.5" cy="34.5" r="34.5" transform="translate(-6870 4075)" fill="#0f2771"/>
            <g id="Grupo_222124" data-name="Grupo 222124" transform="translate(-6858.763 4083.494)">
              <path id="Trazado_221967" data-name="Trazado 221967" d="M49.066,171.883a7.028,7.028,0,1,1,7.027-7.027A7.035,7.035,0,0,1,49.066,171.883Zm0-12.538a5.511,5.511,0,1,0,5.511,5.511A5.517,5.517,0,0,0,49.066,159.345Z" transform="translate(-25.009 -157.828)" fill="#fff"/>
              <path id="Trazado_221968" data-name="Trazado 221968" d="M47.341,211.231a.762.762,0,0,1-.421-.127l-1.258-.838a11.657,11.657,0,0,0-6.488-1.964H27.853a.758.758,0,0,1-.758-.759V187.759a.758.758,0,0,1,.758-.758H39.174a13.172,13.172,0,0,1,7.33,2.219l1.258.838a.759.759,0,0,1,.338.631v19.783a.757.757,0,0,1-.4.668A.749.749,0,0,1,47.341,211.231Zm-18.73-4.447H39.174A13.18,13.18,0,0,1,46.5,209l.079.053V191.1l-.921-.614a11.664,11.664,0,0,0-6.488-1.964H28.611Z" transform="translate(-24.017 -159.765)" fill="#fff"/>
              <path id="Trazado_221969" data-name="Trazado 221969" d="M48.727,211.231a.758.758,0,0,1-.758-.758V190.69a.76.76,0,0,1,.337-.631l1.258-.838A13.172,13.172,0,0,1,56.894,187H68.948a.758.758,0,0,1,.758.758v19.783a.758.758,0,0,1-.758.759H56.894a11.657,11.657,0,0,0-6.488,1.964l-1.258.838A.759.759,0,0,1,48.727,211.231Zm.758-20.135v17.961l.079-.054a13.18,13.18,0,0,1,7.33-2.219h11.3V188.517h-11.3a11.664,11.664,0,0,0-6.488,1.964Z" transform="translate(-25.403 -159.765)" fill="#fff"/>
              <path id="Trazado_221970" data-name="Trazado 221970" d="M41.389,194.209H32.576a.758.758,0,0,1,0-1.516h8.813a.758.758,0,0,1,0,1.516Z" transform="translate(-24.331 -160.143)" fill="#fff"/>
              <path id="Trazado_221971" data-name="Trazado 221971" d="M41.389,199.212H32.576a.758.758,0,1,1,0-1.516h8.813a.758.758,0,1,1,0,1.516Z" transform="translate(-24.331 -160.475)" fill="#fff"/>
              <path id="Trazado_221972" data-name="Trazado 221972" d="M47.76,190.735a.759.759,0,0,1-.421-.127l-1.258-.839a11.664,11.664,0,0,0-6.488-1.964h-5.43a.758.758,0,0,1-.758-.758v-1.219a9.427,9.427,0,0,1,8.357-9.369c.746-.085,1.662-.148,2.72-.185a.758.758,0,1,1,.053,1.515c-1.019.036-1.893.1-2.6.176a7.91,7.91,0,0,0-7.012,7.862v.461h4.672a13.172,13.172,0,0,1,7.33,2.219l.837.558.837-.558a13.172,13.172,0,0,1,7.33-2.219h6.137v-.461a7.911,7.911,0,0,0-7.013-7.862c-.63-.072-1.4-.127-2.281-.164a.758.758,0,1,1,.063-1.514c.921.037,1.724.1,2.391.172a9.427,9.427,0,0,1,8.357,9.369v1.219a.759.759,0,0,1-.758.758h-6.9a11.664,11.664,0,0,0-6.488,1.964l-1.258.839A.754.754,0,0,1,47.76,190.735Z" transform="translate(-24.436 -159.053)" fill="#fff"/>
              <path id="Trazado_221973" data-name="Trazado 221973" d="M27.634,203.276h-.393a3.443,3.443,0,0,1,0-6.886h.393a.759.759,0,0,1,.758.758v5.37A.758.758,0,0,1,27.634,203.276Zm-.758-5.336a1.927,1.927,0,0,0,0,3.785Z" transform="translate(-23.798 -160.389)" fill="#fff"/>
              <path id="Trazado_221974" data-name="Trazado 221974" d="M70.779,203.276h-.393a.757.757,0,0,1-.758-.758v-5.37a.758.758,0,0,1,.758-.758h.393a3.443,3.443,0,1,1,0,6.886Zm.365-5.336v3.785a1.927,1.927,0,0,0,0-3.785Z" transform="translate(-26.841 -160.389)" fill="#fff"/>
            </g>
          </g>
          <g id="Grupo_222127" data-name="Grupo 222127">
            <circle id="Elipse_16270" data-name="Elipse 16270" cx="34.5" cy="34.5" r="34.5" transform="translate(-6611 4075)" fill="#feca2e"/>
            <g id="Grupo_222125" data-name="Grupo 222125" transform="translate(-6591.077 4080.037)">
              <path id="Trazado_221810" data-name="Trazado 221810" d="M209.666,262.19a.881.881,0,0,1-.88-.88V251.39a.88.88,0,1,1,1.76,0v9.921A.88.88,0,0,1,209.666,262.19Z" transform="translate(-188.753 -229.728)" fill="#0f2771"/>
              <path id="Trazado_221811" data-name="Trazado 221811" d="M204.254,242.389a5.529,5.529,0,1,1,5.529-5.529A5.535,5.535,0,0,1,204.254,242.389Zm0-9.3a3.769,3.769,0,1,0,3.769,3.769A3.774,3.774,0,0,0,204.254,233.092Z" transform="translate(-189.594 -231.332)" fill="#0f2771"/>
              <path id="Trazado_221812" data-name="Trazado 221812" d="M198.124,262.19a.88.88,0,0,1-.88-.88V251.39a.88.88,0,0,1,1.761,0v9.921A.881.881,0,0,1,198.124,262.19Z" transform="translate(-189.718 -229.728)" fill="#0f2771"/>
              <path id="Trazado_221813" data-name="Trazado 221813" d="M210.969,289.163h-4.7a.88.88,0,0,1-.88-.88V269a.669.669,0,0,0-.788-.66.732.732,0,0,0-.55.742v19.2a.88.88,0,0,1-.881.88h-4.7a.88.88,0,0,1-.88-.88V264.743a3.065,3.065,0,0,1-4.371-2.855V249.911a7.308,7.308,0,0,1,6.478-7.262.88.88,0,0,1,.2,1.749,5.547,5.547,0,0,0-4.919,5.514v11.976a1.366,1.366,0,0,0,1.039,1.361,1.307,1.307,0,0,0,1.572-1.28.88.88,0,0,1,1.761,0V287.4h2.943V269.079a2.494,2.494,0,0,1,2.027-2.479,2.43,2.43,0,0,1,2.832,2.4V287.4h2.944V261.969a.88.88,0,0,1,1.76,0,1.308,1.308,0,0,0,1.573,1.28,1.366,1.366,0,0,0,1.039-1.361V249.911a5.547,5.547,0,0,0-4.919-5.514.88.88,0,0,1,.2-1.749,7.308,7.308,0,0,1,6.478,7.262v11.976a3.066,3.066,0,0,1-4.372,2.855v23.541A.879.879,0,0,1,210.969,289.163Z" transform="translate(-190.056 -230.386)" fill="#0f2771"/>
              <path id="Trazado_221818" data-name="Trazado 221818" d="M218.739,285.709h-27.56a.88.88,0,0,1,0-1.76h27.56a.88.88,0,0,1,0,1.76Z" transform="translate(-190.299 -226.932)" fill="#0f2771"/>
            </g>
          </g>
        </g>
      </g>
    </g>
  </g>
</svg>
