<svg xmlns="http://www.w3.org/2000/svg" width="420" height="320" viewBox="0 0 420 320">
  <g id="Grupo_222400" data-name="Grupo 222400" transform="translate(6569 2968)">
    <g id="Grupo_222399" data-name="Grupo 222399">
      <g id="Grupo_222398" data-name="Grupo 222398">
        <g id="Grupo_222397" data-name="Grupo 222397">
          <g id="Grupo_222301" data-name="Grupo 222301">
            <rect id="Rectángulo_295925" data-name="Rectángulo 295925" width="420" height="320" transform="translate(-6569 -2968)" fill="none"/>
            <g id="_7" data-name="7" transform="translate(-6526 -2966.91)">
              <g id="Grupo_221929" data-name="Grupo 221929" transform="translate(215.723 87.292)">
                <rect id="Rectángulo_295677" data-name="Rectángulo 295677" width="118.495" height="30.927" rx="1.825" fill="#fff"/>
                <path id="Trazado_225074" data-name="Trazado 225074" d="M410.583,364.53a3.351,3.351,0,1,1-3.35-3.351A3.352,3.352,0,0,1,410.583,364.53Z" transform="translate(-370.823 -348.55)" fill="#969aa8"/>
                <path id="Trazado_225075" data-name="Trazado 225075" d="M415.907,364.53a3.351,3.351,0,1,1-3.351-3.351A3.352,3.352,0,0,1,415.907,364.53Z" transform="translate(-354.042 -348.55)" fill="#969aa8"/>
                <path id="Trazado_225076" data-name="Trazado 225076" d="M421.231,364.53a3.351,3.351,0,1,1-3.351-3.351A3.349,3.349,0,0,1,421.231,364.53Z" transform="translate(-337.262 -348.55)" fill="#969aa8"/>
                <path id="Trazado_225077" data-name="Trazado 225077" d="M426.555,364.53a3.351,3.351,0,1,1-3.35-3.351A3.349,3.349,0,0,1,426.555,364.53Z" transform="translate(-320.481 -348.55)" fill="#969aa8"/>
              </g>
              <g id="Grupo_221930" data-name="Grupo 221930" transform="translate(206.459 124.977)">
                <rect id="Rectángulo_295678" data-name="Rectángulo 295678" width="105.98" height="30.926" rx="1.825" fill="#fff"/>
                <path id="Trazado_225078" data-name="Trazado 225078" d="M405.337,373.606a3.351,3.351,0,1,1-3.351-3.35A3.352,3.352,0,0,1,405.337,373.606Z" transform="translate(-378.094 -357.626)" fill="#969aa8"/>
                <circle id="Elipse_16246" data-name="Elipse 16246" cx="3.35" cy="3.35" r="3.35" transform="translate(42.648 12.629)" fill="#969aa8"/>
                <path id="Trazado_225079" data-name="Trazado 225079" d="M415.985,373.606a3.351,3.351,0,1,1-3.35-3.35A3.352,3.352,0,0,1,415.985,373.606Z" transform="translate(-344.532 -357.626)" fill="#969aa8"/>
                <path id="Trazado_225080" data-name="Trazado 225080" d="M421.306,373.606a3.349,3.349,0,1,1-3.35-3.35A3.352,3.352,0,0,1,421.306,373.606Z" transform="translate(-327.748 -357.626)" fill="#969aa8"/>
              </g>
              <g id="Grupo_221934" data-name="Grupo 221934" transform="translate(196.996 27.611)">
                <path id="Trazado_225081" data-name="Trazado 225081" d="M467.177,343.763H398.986a7.58,7.58,0,0,0-7.577,7.581V481.938a7.577,7.577,0,0,0,7.577,7.577h8.167l.037,8.4a15.653,15.653,0,0,1,4.551-5.821c3.006-2.167,8.461-2.429,8.461-2.429,0-.145,16.927-.145,16.927-.145h30.047a7.577,7.577,0,0,0,7.577-7.577V351.344A7.58,7.58,0,0,0,467.177,343.763Z" transform="translate(-391.409 -343.763)" fill="#fff"/>
                <path id="Trazado_225082" data-name="Trazado 225082" d="M430.877,363.384a16.726,16.726,0,1,1-16.724-16.724A16.728,16.728,0,0,1,430.877,363.384Z" transform="translate(-372.447 -334.632)" fill="#969aa8"/>
                <path id="Trazado_225083" data-name="Trazado 225083" d="M419.308,371.624a16.735,16.735,0,0,1-20.294.071,12.059,12.059,0,0,1,8.279-6.581v-2.6a7.2,7.2,0,0,1-4.953-7,6.8,6.8,0,1,1,13.577,0,7.27,7.27,0,0,1-4.849,7v2.6A12.061,12.061,0,0,1,419.308,371.624Z" transform="translate(-367.439 -329.624)" fill="#fff"/>
                <g id="Grupo_221931" data-name="Grupo 221931" transform="translate(20.896 92.188)">
                  <path id="Trazado_225084" data-name="Trazado 225084" d="M438.119,378.684v16.024H425.292v12.936h-16.01V394.708H396.442V378.684h12.841V365.967h16.01v12.718Z" transform="translate(-396.442 -365.967)" fill="#bddcf6"/>
                </g>
                <g id="Grupo_221932" data-name="Grupo 221932" transform="translate(11.547 67.425)">
                  <path id="Trazado_225085" data-name="Trazado 225085" d="M394.191,360.316h0Z" transform="translate(-394.188 -359.015)" fill="#fff"/>
                  <rect id="Rectángulo_295679" data-name="Rectángulo 295679" width="61.697" height="2.597" fill="#969aa8"/>
                </g>
                <g id="Grupo_221933" data-name="Grupo 221933" transform="translate(11.547 77.106)">
                  <path id="Trazado_225086" data-name="Trazado 225086" d="M394.191,362.647h0Z" transform="translate(-394.188 -361.349)" fill="#fff"/>
                  <rect id="Rectángulo_295680" data-name="Rectángulo 295680" width="61.697" height="2.597" fill="#969aa8"/>
                </g>
                <rect id="Rectángulo_295681" data-name="Rectángulo 295681" width="61.696" height="6.842" transform="translate(11.549 54.312)" fill="#969aa8"/>
              </g>
              <path id="Trazado_225087" data-name="Trazado 225087" d="M488.431,344.42v15.549H369.263a2.564,2.564,0,0,0-2.562,2.566v161H351.186V351.7a7.279,7.279,0,0,1,7.278-7.278Z" transform="translate(-321.191 -314.081)" fill="#fff"/>
              <g id="Grupo_221935" data-name="Grupo 221935" transform="translate(12.291 118.89)">
                <path id="Trazado_225088" data-name="Trazado 225088" d="M397.845,391.207a25.462,25.462,0,1,1-25.464-25.459A25.464,25.464,0,0,1,397.845,391.207Z" transform="translate(-346.922 -365.748)" fill="#feca2e"/>
                <path id="Trazado_225089" data-name="Trazado 225089" d="M381.773,383.319a10.005,10.005,0,0,1-3.973,4.571l-.7.4-11.277,6.452-11.293-6.452-.714-.4A10.088,10.088,0,1,1,365.8,371.76a10.093,10.093,0,0,1,15.968,11.559Z" transform="translate(-340.349 -354.853)" fill="#fff"/>
              </g>
              <g id="Grupo_221936" data-name="Grupo 221936" transform="translate(12.291 184.577)">
                <path id="Trazado_225090" data-name="Trazado 225090" d="M397.845,407.028a25.462,25.462,0,1,1-25.464-25.459A25.464,25.464,0,0,1,397.845,407.028Z" transform="translate(-346.922 -381.569)" fill="#d7d9dd"/>
                <path id="Trazado_225091" data-name="Trazado 225091" d="M374.279,396.892a12.111,12.111,0,1,1-12.111-12.107A12.111,12.111,0,0,1,374.279,396.892Z" transform="translate(-337.041 -371.432)" fill="#fff"/>
              </g>
              <g id="Grupo_221937" data-name="Grupo 221937" transform="translate(12.291 53.203)">
                <path id="Trazado_225092" data-name="Trazado 225092" d="M397.845,375.386a25.462,25.462,0,1,1-25.464-25.459A25.464,25.464,0,0,1,397.845,375.386Z" transform="translate(-346.922 -349.927)" fill="#0f2771"/>
                <path id="Trazado_225093" data-name="Trazado 225093" d="M372.76,369.106a11.247,11.247,0,1,1-20.469-6.44l.548-.731,8.673-9.2,8.673,9.2.548.731A11.193,11.193,0,0,1,372.76,369.106Z" transform="translate(-336.385 -341.089)" fill="#fff"/>
              </g>
              <g id="Grupo_221944" data-name="Grupo 221944" transform="translate(74.94)">
                <rect id="Rectángulo_295682" data-name="Rectángulo 295682" width="111.025" height="89.745" rx="1.825" fill="#fff"/>
                <g id="Grupo_221938" data-name="Grupo 221938" transform="translate(78.581 58.707)">
                  <path id="Trazado_225094" data-name="Trazado 225094" d="M380.938,351.565h0Z" transform="translate(-380.938 -350.268)" fill="#fff"/>
                  <rect id="Rectángulo_295683" data-name="Rectángulo 295683" width="20.742" height="2.597" fill="#969aa8"/>
                </g>
                <g id="Grupo_221939" data-name="Grupo 221939" transform="translate(78.581 68.388)">
                  <path id="Trazado_225095" data-name="Trazado 225095" d="M380.938,353.9h0Z" transform="translate(-380.938 -352.599)" fill="#fff"/>
                  <rect id="Rectángulo_295684" data-name="Rectángulo 295684" width="20.742" height="2.597" fill="#969aa8"/>
                </g>
                <g id="Grupo_221940" data-name="Grupo 221940" transform="translate(12.479 9.676)">
                  <path id="Trazado_225096" data-name="Trazado 225096" d="M365.017,339.756h0Z" transform="translate(-365.017 -338.458)" fill="#fff"/>
                  <rect id="Rectángulo_295685" data-name="Rectángulo 295685" width="86.88" height="2.597" transform="translate(0.001)" fill="#969aa8"/>
                </g>
                <g id="Grupo_221943" data-name="Grupo 221943" transform="translate(11.597 26.244)">
                  <g id="Grupo_221942" data-name="Grupo 221942">
                    <g id="Grupo_221941" data-name="Grupo 221941">
                      <path id="Trazado_225097" data-name="Trazado 225097" d="M389.07,388.537l-11.309-24.074-10.961,13.2-2-1.661,13.572-16.341L389.4,383.115l24.763-39.681L428.684,360.5l23.393-9.52.981,2.4L427.926,363.62l-13.444-15.8Z" transform="translate(-364.805 -343.434)" fill="#feca2e"/>
                    </g>
                  </g>
                </g>
                <path id="Trazado_225098" data-name="Trazado 225098" d="M370.815,353.968a3.28,3.28,0,1,1-3.28-3.28A3.279,3.279,0,0,1,370.815,353.968Z" transform="translate(-354.94 -294.325)" fill="#feca2e"/>
                <circle id="Elipse_16247" data-name="Elipse 16247" cx="3.28" cy="3.28" r="3.28" transform="translate(21.583 41.593)" fill="#feca2e"/>
                <path id="Trazado_225099" data-name="Trazado 225099" d="M376.458,356.134a3.28,3.28,0,1,1-3.28-3.28A3.282,3.282,0,0,1,376.458,356.134Z" transform="translate(-337.154 -287.498)" fill="#feca2e"/>
                <circle id="Elipse_16248" data-name="Elipse 16248" cx="3.28" cy="3.28" r="3.28" transform="translate(57.835 25.158)" fill="#feca2e"/>
                <path id="Trazado_225100" data-name="Trazado 225100" d="M385.869,350.411a3.28,3.28,0,1,1-3.28-3.28A3.278,3.278,0,0,1,385.869,350.411Z" transform="translate(-307.491 -305.536)" fill="#feca2e"/>
                <circle id="Elipse_16249" data-name="Elipse 16249" cx="3.28" cy="3.28" r="3.28" transform="translate(96.08 31.717)" fill="#feca2e"/>
              </g>
              <g id="window_5" data-name="window 5" transform="translate(221.276 181.758)">
                <path id="Trazado_225101" data-name="Trazado 225101" d="M473.025,389.285h-9.678l-.037-8.395a15.614,15.614,0,0,1-4.546,5.821c-3.01,2.167-8.466,2.429-8.466,2.429,0,.145-45.463.145-45.463.145a7.577,7.577,0,0,0-7.577,7.577v36.429a7.577,7.577,0,0,0,7.577,7.577h68.191a7.577,7.577,0,0,0,7.577-7.577V396.862A7.577,7.577,0,0,0,473.025,389.285Z" transform="translate(-397.257 -380.89)" fill="#fff"/>
                <g id="Grupo_221945" data-name="Grupo 221945" transform="translate(8.362 19.759)">
                  <path id="Trazado_225102" data-name="Trazado 225102" d="M429.2,400.612a14.963,14.963,0,1,1-14.963-14.963A14.967,14.967,0,0,1,429.2,400.612Z" transform="translate(-399.271 -385.649)" fill="#fff"/>
                  <path id="Trazado_225103" data-name="Trazado 225103" d="M413.251,385.962a13.666,13.666,0,1,0,13.664,13.664A13.681,13.681,0,0,0,413.251,385.962Z" transform="translate(-398.288 -384.662)" fill="#969aa8"/>
                </g>
                <g id="Grupo_221946" data-name="Grupo 221946" transform="translate(8.358 34.722)">
                  <path id="Trazado_225104" data-name="Trazado 225104" d="M429.205,389.253a14.968,14.968,0,0,1-29.935,0Z" transform="translate(-399.27 -389.253)" fill="#fff"/>
                  <path id="Trazado_225105" data-name="Trazado 225105" d="M399.6,389.566a13.67,13.67,0,0,0,27.216,0Z" transform="translate(-398.236 -388.266)" fill="#969aa8"/>
                </g>
                <g id="Grupo_221947" data-name="Grupo 221947" transform="translate(46.451 34.722)">
                  <path id="Trazado_225106" data-name="Trazado 225106" d="M438.38,389.253a14.967,14.967,0,0,1-29.935,0Z" transform="translate(-408.445 -389.253)" fill="#fff"/>
                  <path id="Trazado_225107" data-name="Trazado 225107" d="M408.773,389.566a13.668,13.668,0,0,0,27.211,0Z" transform="translate(-407.411 -388.266)" fill="#969aa8"/>
                </g>
              </g>
              <g id="window_3" data-name="window 3" transform="translate(73.058 100.489)">
                <path id="Trazado_225108" data-name="Trazado 225108" d="M412.8,361.316H369.322a7.763,7.763,0,0,0-7.764,7.764v29.844a7.765,7.765,0,0,0,7.764,7.764h6.6s5.456.262,8.466,2.425a15.65,15.65,0,0,1,4.55,5.821l.033-8.246H412.8a7.765,7.765,0,0,0,7.764-7.764V369.08A7.763,7.763,0,0,0,412.8,361.316Z" transform="translate(-361.558 -361.316)" fill="#fff"/>
                <g id="Grupo_221948" data-name="Grupo 221948" transform="translate(11.198 9.798)">
                  <path id="Trazado_225109" data-name="Trazado 225109" d="M400.87,363.676l-15.827,19.418-5.078,6.332c-.054,0-5.128-6.332-5.128-6.332l-10.583-13.17h10.226l5.464,6.809,10.65-13.058Z" transform="translate(-364.255 -363.676)" fill="#bddcf6"/>
                </g>
              </g>
              <g id="human" transform="translate(120.818 131.855)">
                <path id="Trazado_225110" data-name="Trazado 225110" d="M393.159,378.516s2.724,13.34,1.8,15.329S386.3,399.4,386.3,399.4l-1.914-18.455Z" transform="translate(-337.354 -338.469)" fill="#773128"/>
                <path id="body" d="M463.092,490.645l-18.181.174-66.459.656-3.151.033,1.939-25,2.043-26.252c.556-.033,10.392-5.26,18.044-9.417,2.769-1.49,5.264-2.84,6.925-3.708,1.354-.76,2.151-1.212,2.151-1.212l-.834-2.529a18.838,18.838,0,0,1-4.534.556c-6.2.066-12.779-5.024-15.445-10.562a140.055,140.055,0,0,1-5.784-14.1c-.382-1.108-.731-2.184-1.075-3.189-1.7-4.916-2.666-8.412-2.666-8.412l.727-4.505L406.884,372.9c1.835,2.387,8.972,14.2,8.972,14.2s3.878-4.4,7.756-2.147a6.98,6.98,0,0,1,2.043,1.835c4.3,5.576.349,9.591-1.628,10.907a13.687,13.687,0,0,1-4.222,1.769s1.59,6.265.967,10.732c-.693,4.571-3.081,6.788-4.987,7.826l2.25,6.307s3.189,1.835,7.619,4.43c8.972,5.264,22.927,13.647,25.422,16.313,2.213,2.387,5.472,13.68,7.93,22.927q.673,2.541,1.246,4.779c.241.934.453,1.835.66,2.632.656,2.528,1.1,4.43,1.349,5.194C463.3,484.134,463.092,490.645,463.092,490.645Z" transform="translate(-366.005 -356.179)" fill="#f9c0b9"/>
                <path id="Trazado_225111" data-name="Trazado 225111" d="M380.614,396.582c4.986-2.7,9.039-4.92,9.039-4.92l-.834-2.528,10.218-5.368-5.223,5.572.548,1.877-10.575,5.509Z" transform="translate(-349.256 -321.925)" fill="#d87360"/>
                <path id="Trazado_225112" data-name="Trazado 225112" d="M423.031,384.95c-2.25,1.868-5.887,4.571-8.449,5.09-3.948.8-10.284-4.779-10.284-4.779s-4.679,6.128-10.5,8.935c-3.151,1.524-10.459,2.113-14.577,5.09-.382-1.108-.731-2.184-1.075-3.189-1.7-4.916-2.666-8.412-2.666-8.412l.727-4.505L406.3,372.9c1.835,2.387,8.972,14.2,8.972,14.2S419.154,382.7,423.031,384.95Z" transform="translate(-365.425 -356.179)" fill="#d87360"/>
                <path id="shirt" d="M462.77,445.485,448.7,449.3l-5.265.349-66.459.656-1.212-24.969,2.043-26.253c.556-.033,10.392-5.26,18.044-9.417,2.769-1.49,5.264-2.84,6.925-3.708.071.519.731,5.609,4.5,7.378,3.982,1.868,9.421,1.594,12.223-.382a18.732,18.732,0,0,0,4.675-5.368c8.972,5.264,22.927,13.647,25.422,16.313C452.237,406.739,458.273,426,462.77,445.485Z" transform="translate(-364.533 -315.009)" fill="#fff"/>
                <path id="Trazado_225113" data-name="Trazado 225113" d="M378.242,387.182s-.893-11.646,10.5-16.047c19.111-7.386,24.87,5.659,24.87,5.659a9.758,9.758,0,0,1,10.28-3.72c6.739,1.619,8.437,13.1,6.668,19.414-1.611,5.755-7.644,9.466-11.534,8.121-6.083-2.1-7.228-5.348-7.228-5.348s-2.387,10.38-18.966,11.567c-11.169.8-13.261-5.829-13.261-5.829s-5.792-.556-6.456-5.858S378.242,387.182,378.242,387.182Z" transform="translate(-373.061 -368.871)" fill="#a54d3c"/>
                <path id="Trazado_225114" data-name="Trazado 225114" d="M380.821,382.285a6.781,6.781,0,0,1,0-2.429c.278-.718,2.653-1.677,5.14-1.511a5.93,5.93,0,0,1,3.425,1.013s-4.2.959-5.638,1.42A12.971,12.971,0,0,0,380.821,382.285Z" transform="translate(-348.993 -339.07)" fill="#773128"/>
                <path id="Trazado_225115" data-name="Trazado 225115" d="M384.827,381.313s-.444-1.881-1.437-2.213a8.329,8.329,0,0,0-4.679.739,6.34,6.34,0,0,0-1.9,2.192,21.235,21.235,0,0,1,4.256-1.109A22.886,22.886,0,0,1,384.827,381.313Z" transform="translate(-361.233 -336.99)" fill="#773128"/>
                <path id="Trazado_225116" data-name="Trazado 225116" d="M384.357,381.676c.444,1.138.278,2.271-.369,2.524s-1.536-.469-1.98-1.611-.282-2.271.369-2.524S383.913,380.535,384.357,381.676Z" transform="translate(-345.654 -333.745)" fill="#773128"/>
                <path id="Trazado_225117" data-name="Trazado 225117" d="M380.831,382.5c.444,1.142.278,2.271-.369,2.524s-1.536-.465-1.98-1.607-.283-2.275.37-2.524S380.387,381.358,380.831,382.5Z" transform="translate(-356.772 -331.143)" fill="#773128"/>
                <path id="Trazado_225118" data-name="Trazado 225118" d="M386.76,394.924a4.008,4.008,0,0,1-3.55-1.594,3.78,3.78,0,0,1-.174-3.446,7.793,7.793,0,0,0,.025-5.061c-1.362-4.359-4.011-4.463-4.127-4.467a.569.569,0,0,1,.008-1.138c.141,0,3.583.058,5.206,5.269a8.993,8.993,0,0,1-.013,5.709c-.3,1.063-.486,1.711.033,2.52,1.013,1.6,4,.922,4.023.913a.588.588,0,0,1,.689.419.569.569,0,0,1-.419.689A7.733,7.733,0,0,1,386.76,394.924Z" transform="translate(-356.319 -336.259)" fill="#d87360"/>
                <path id="Trazado_225119" data-name="Trazado 225119" d="M382.5,386.561a2.654,2.654,0,0,1-.735-.1.572.572,0,0,1,.312-1.1c.087.029,1.877.473,3.1-1.918a.569.569,0,1,1,1.013.519A4.188,4.188,0,0,1,382.5,386.561Z" transform="translate(-346.928 -323.903)" fill="#d87360"/>
                <path id="Trazado_225120" data-name="Trazado 225120" d="M385.887,381.454a.582.582,0,0,1-.565-.648,4.618,4.618,0,0,1,2.99-3.654.569.569,0,0,1,.345,1.084,3.511,3.511,0,0,0-2.2,2.724A.572.572,0,0,1,385.887,381.454Z" transform="translate(-334.434 -342.852)" fill="#d87360"/>
                <path id="Trazado_225121" data-name="Trazado 225121" d="M415.245,422.62s-14.822,5.053-16.45,2.317c-.764-1.279-3.048-6.3-5.232-11.115-1.108-2.458-2.18-4.849-2.977-6.718-.972-2.146-1.594-3.566-1.594-3.566l7.133-10.322Z" transform="translate(-322.846 -292.136)" fill="#f9c0b9"/>
                <path id="Trazado_225122" data-name="Trazado 225122" d="M396.157,405.485c.432,4.1,3.218,17.911,2.246,18.982-1.108-2.458-8.229-18.492-9.026-20.361l5.647-9.94S395.721,401.375,396.157,405.485Z" transform="translate(-321.636 -289.139)" fill="#d87360"/>
                <path id="Trazado_225123" data-name="Trazado 225123" d="M400.576,392.326c2.537-.1,6.78,2.728,7.295,5.746s-2.358,13.78-5.9,13.925-9.064-2.948-9.064-2.948a22.843,22.843,0,0,1-2.234,7.37c-1.669,2.8-3.143,4.422-4.617,3.832s.735-6.116.81-10.757-.515-8.918.22-10.317S396.744,392.471,400.576,392.326Z" transform="translate(-333.682 -294.95)" fill="#f9c0b9"/>
              </g>
              <path id="table" d="M606.91,400.3H343.962l36.688,56.581,207.2-8.842Z" transform="translate(-343.962 -137.967)" fill="#d7d9dd"/>
              <g id="laptop" transform="translate(75.919 215.386)">
                <path id="Trazado_225124" data-name="Trazado 225124" d="M433.669,388.99H362.247l16.207,47.158h71.421Z" transform="translate(-362.247 -388.99)" fill="#969aa8"/>
                <g id="Grupo_221950" data-name="Grupo 221950" transform="translate(35.698 10.317)">
                  <path id="Trazado_225125" data-name="Trazado 225125" d="M375,391.891s10.168,6.078,11.052,11.717-2.209,7.959-5.526,8.843-8.4-1.769-9.176-6.3S375,391.891,375,391.891Z" transform="translate(-369.534 -390.161)" fill="#fff"/>
                  <path id="Trazado_225126" data-name="Trazado 225126" d="M380.477,415.662a9.745,9.745,0,0,1-5.19-1.611,9.369,9.369,0,0,1-4.33-6.294c-.839-4.916,3.3-14.224,3.778-15.266a1.73,1.73,0,0,1,1.059-.938,1.76,1.76,0,0,1,1.408.166c1.113.664,10.894,6.676,11.874,12.937.872,5.551-1.54,9.383-6.792,10.778A6.991,6.991,0,0,1,380.477,415.662ZM377.1,395.774c-1.333,3.3-3.189,8.719-2.728,11.4a6.027,6.027,0,0,0,2.786,3.969,5.694,5.694,0,0,0,4.231.951c3.5-.934,4.858-3.126,4.264-6.9C385.14,401.911,380.257,397.933,377.1,395.774Z" transform="translate(-370.845 -391.474)" fill="#fff"/>
                  <g id="Grupo_221949" data-name="Grupo 221949" transform="translate(6.601 12.605)">
                    <path id="Trazado_225127" data-name="Trazado 225127" d="M372.748,394.824l3.218,12.339Z" transform="translate(-371.449 -393.522)" fill="#969aa8"/>
                    <path id="Trazado_225128" data-name="Trazado 225128" d="M376.952,409.452a1.3,1.3,0,0,1-1.258-.972l-3.218-12.339a1.3,1.3,0,1,1,2.516-.656l3.218,12.339a1.3,1.3,0,0,1-1.258,1.627Z" transform="translate(-372.435 -394.51)" fill="#969aa8"/>
                  </g>
                </g>
              </g>
              <g id="window_1" data-name="window 1" transform="translate(22.329 244.691)">
                <rect id="Rectángulo_295686" data-name="Rectángulo 295686" width="85.357" height="65.632" rx="2.705" transform="translate(85.357 65.632) rotate(180)" fill="#fff"/>
                <g id="Grupo_221953" data-name="Grupo 221953" transform="translate(19.896 12.738)">
                  <g id="Grupo_221952" data-name="Grupo 221952">
                    <g id="Grupo_221951" data-name="Grupo 221951">
                      <rect id="Rectángulo_295687" data-name="Rectángulo 295687" width="34.926" height="36.99" fill="#4dd0e1"/>
                    </g>
                  </g>
                </g>
                <g id="Grupo_221956" data-name="Grupo 221956" transform="translate(54.822 20.106)">
                  <g id="Grupo_221955" data-name="Grupo 221955">
                    <g id="Grupo_221954" data-name="Grupo 221954">
                      <path id="Trazado_225129" data-name="Trazado 225129" d="M362.544,400.891h12.895l9.505,11.455v18.166h-22.4Z" transform="translate(-362.544 -400.891)" fill="#4dd0e1"/>
                    </g>
                  </g>
                </g>
                <g id="Grupo_221957" data-name="Grupo 221957" transform="translate(62.927 25.412)">
                  <path id="Trazado_225130" data-name="Trazado 225130" d="M378.791,408.318H364.5v-6.149h9.191Z" transform="translate(-364.496 -402.168)" fill="#fff"/>
                </g>
                <g id="Grupo_221958" data-name="Grupo 221958" transform="translate(8.724 20.134)">
                  <path id="Trazado_225131" data-name="Trazado 225131" d="M375.875,403.5H352.74a1.3,1.3,0,0,1,0-2.6h23.134a1.3,1.3,0,0,1,0,2.6Z" transform="translate(-351.441 -400.897)" fill="#4dd0e1"/>
                </g>
                <g id="Grupo_221959" data-name="Grupo 221959" transform="translate(8.724 27.723)">
                  <path id="Trazado_225132" data-name="Trazado 225132" d="M375.875,405.324H352.74a1.3,1.3,0,0,1,0-2.6h23.134a1.3,1.3,0,0,1,0,2.6Z" transform="translate(-351.441 -402.725)" fill="#4dd0e1"/>
                </g>
                <g id="Grupo_221960" data-name="Grupo 221960" transform="translate(8.724 35.313)">
                  <path id="Trazado_225133" data-name="Trazado 225133" d="M375.875,407.148H352.74a1.3,1.3,0,1,1,0-2.595h23.134a1.3,1.3,0,1,1,0,2.595Z" transform="translate(-351.441 -404.553)" fill="#4dd0e1"/>
                </g>
                <g id="Grupo_221961" data-name="Grupo 221961" transform="translate(27.428 43.127)">
                  <path id="Trazado_225134" data-name="Trazado 225134" d="M369.149,413.036a6.6,6.6,0,1,0-6.6,6.6A6.6,6.6,0,0,0,369.149,413.036Z" transform="translate(-355.946 -406.435)" fill="#fff"/>
                  <path id="Trazado_225135" data-name="Trazado 225135" d="M361.561,406.747a5.3,5.3,0,1,0,5.306,5.306A5.31,5.31,0,0,0,361.561,406.747Z" transform="translate(-354.96 -405.452)" fill="#4dd0e1"/>
                </g>
                <g id="Grupo_221962" data-name="Grupo 221962" transform="translate(59.419 43.127)">
                  <path id="Trazado_225136" data-name="Trazado 225136" d="M376.854,413.036a6.6,6.6,0,1,0-6.6,6.6A6.6,6.6,0,0,0,376.854,413.036Z" transform="translate(-363.651 -406.435)" fill="#fff"/>
                  <path id="Trazado_225137" data-name="Trazado 225137" d="M369.266,406.747a5.3,5.3,0,1,0,5.306,5.306A5.31,5.31,0,0,0,369.266,406.747Z" transform="translate(-362.665 -405.452)" fill="#4dd0e1"/>
                </g>
              </g>
              <g id="bubbles" transform="translate(85.768 116.565)">
                <circle id="Elipse_16250" data-name="Elipse 16250" cx="3.147" cy="3.147" r="3.147" transform="translate(0 63.677)" fill="#fff"/>
                <path id="Trazado_225138" data-name="Trazado 225138" d="M373.191,387.136a1.81,1.81,0,1,1-1.81-1.81A1.809,1.809,0,0,1,373.191,387.136Z" transform="translate(-349.012 -301.715)" fill="#fff"/>
                <path id="Trazado_225139" data-name="Trazado 225139" d="M371.437,379.47a2.211,2.211,0,1,1-2.209-2.209A2.208,2.208,0,0,1,371.437,379.47Z" transform="translate(-357.068 -327.135)" fill="#fff"/>
                <path id="Trazado_225140" data-name="Trazado 225140" d="M389.8,366.986a1.8,1.8,0,1,1-1.8-1.8A1.8,1.8,0,0,1,389.8,366.986Z" transform="translate(-296.596 -365.188)" fill="#fff"/>
                <path id="Trazado_225141" data-name="Trazado 225141" d="M396.475,388.152a1.142,1.142,0,1,1-1.142-1.142A1.145,1.145,0,0,1,396.475,388.152Z" transform="translate(-271.413 -296.407)" fill="#fff"/>
              </g>
            </g>
          </g>
        </g>
      </g>
    </g>
  </g>
</svg>
