<svg xmlns="http://www.w3.org/2000/svg" width="170" height="170" viewBox="0 0 170 170">
  <g id="Grupo_222355" data-name="Grupo 222355" transform="translate(-692 -17872.389)">
    <g id="Grupo_222354" data-name="Grupo 222354">
      <g id="Grupo_222353" data-name="Grupo 222353">
        <g id="Grupo_222226" data-name="Grupo 222226" transform="translate(359.941 -137.75)">
          <g id="Grupo_109189" data-name="Grupo 109189" transform="translate(332.059 18010.139)">
            <ellipse id="Elipse_4809" data-name="Elipse 4809" cx="85" cy="85" rx="85" ry="85" fill="#0f2771"/>
          </g>
          <g id="Grupo_210396" data-name="Grupo 210396" transform="translate(353.36 18030.5)">
            <path id="Trazado_221672" data-name="Trazado 221672" d="M560.441,133.865a2.237,2.237,0,0,1-2.236-2.238v-13.8a2.237,2.237,0,1,1,4.474,0v13.8A2.238,2.238,0,0,1,560.441,133.865Z" transform="translate(-484.083 -47.722)" fill="#fff"/>
            <path id="Trazado_221673" data-name="Trazado 221673" d="M556.707,145.411h-6.038a6.7,6.7,0,0,1-6.689-6.689V119.479a9.244,9.244,0,0,1,6.107-8.68l9.7-3.48a2.238,2.238,0,0,1,1.512,4.213l-9.7,3.48a4.759,4.759,0,0,0-3.14,4.467v19.243a2.213,2.213,0,0,0,2.212,2.212h6.038a2.238,2.238,0,1,1,0,4.477Z" transform="translate(-503.831 -59.345)" fill="#fff"/>
            <path id="Trazado_221674" data-name="Trazado 221674" d="M580.07,145.412H550.637a2.238,2.238,0,0,1-2.238-2.238v-13.8a2.238,2.238,0,0,1,4.477,0v11.557H580.07a2.225,2.225,0,0,0,2.222-2.222V119.482a4.754,4.754,0,0,0-3.145-4.467l-9.725-3.482a2.238,2.238,0,0,1,1.51-4.213l9.725,3.482a9.24,9.24,0,0,1,6.112,8.68v19.231A6.706,6.706,0,0,1,580.07,145.412Z" transform="translate(-497.585 -59.346)" fill="#fff"/>
            <path id="Trazado_221675" data-name="Trazado 221675" d="M561.768,125.5a13,13,0,1,1,13-13A13.015,13.015,0,0,1,561.768,125.5Zm0-21.524a8.524,8.524,0,1,0,8.524,8.524A8.534,8.534,0,0,0,561.768,103.972Z" transform="translate(-497.131 -70.125)" fill="#fff"/>
            <path id="Trazado_221676" data-name="Trazado 221676" d="M583.578,193.967a50.418,50.418,0,0,1-50.36-50.36,2.258,2.258,0,1,1,4.517,0,45.828,45.828,0,1,0,8.287-26.3,2.258,2.258,0,1,1-3.7-2.594,50.362,50.362,0,1,1,41.252,79.254Z" transform="translate(-518.941 -78.969)" fill="#fff"/>
            <path id="Trazado_221677" data-name="Trazado 221677" d="M591.841,216.506a64.638,64.638,0,1,1,64.638-64.638A64.711,64.711,0,0,1,591.841,216.506Zm0-124.767a60.13,60.13,0,1,0,60.13,60.13A60.2,60.2,0,0,0,591.841,91.739Z" transform="translate(-527.203 -87.231)" fill="#fff"/>
            <path id="Trazado_221678" data-name="Trazado 221678" d="M539.087,112.539a2.242,2.242,0,0,1-2.231-2.424l.9-10.807a2.238,2.238,0,1,1,4.46.37l-.653,7.89,7-1.291a2.238,2.238,0,1,1,.814,4.4l-9.879,1.823A2.181,2.181,0,0,1,539.087,112.539Z" transform="translate(-513.774 -73.275)" fill="#fff"/>
            <path id="Trazado_221679" data-name="Trazado 221679" d="M602.531,125.882H543a2.238,2.238,0,1,1,0-4.477h59.531a2.238,2.238,0,0,1,0,4.477Z" transform="translate(-508.128 -39.699)" fill="#fff"/>
            <path id="Trazado_221680" data-name="Trazado 221680" d="M588.814,130.115H546.66a2.237,2.237,0,1,1,0-4.474h42.153a2.237,2.237,0,1,1,0,4.474Z" transform="translate(-503.101 -33.808)" fill="#fff"/>
          </g>
        </g>
      </g>
    </g>
  </g>
</svg>
