<svg xmlns="http://www.w3.org/2000/svg" width="41.906" height="39.972" viewBox="0 0 41.906 39.972">
  <g id="Grupo_222427" data-name="Grupo 222427" transform="translate(-776 -8643.462)">
    <g id="Grupo_222426" data-name="Grupo 222426">
      <g id="Grupo_222425" data-name="Grupo 222425">
        <g id="Grupo_222424" data-name="Grupo 222424">
          <g id="Grupo_222423" data-name="Grupo 222423">
            <g id="Grupo_222422" data-name="Grupo 222422">
              <g id="Grupo_141336" data-name="Grupo 141336" transform="translate(776 8643.462)">
                <path id="Trazado_197611" data-name="Trazado 197611" d="M2946.9,5212.659l-11.159-3.587-.373-4.343v-.008a8.716,8.716,0,0,0,1.9-3.655l.106-.83a4.756,4.756,0,0,1,.614-1.807,6.092,6.092,0,0,0,.829-3.065v-4.431a.649.649,0,1,0-1.3,0v4.431a4.791,4.791,0,0,1-.652,2.412,6.048,6.048,0,0,0-.78,2.3l-.106.83a7.831,7.831,0,0,1-1.748,3.148.647.647,0,0,0-.142.581.638.638,0,0,0-.017.209l.41,4.773a.648.648,0,0,0,.448.562l11.572,3.72a4.883,4.883,0,0,1,3.42,4.671.649.649,0,0,0,1.3,0A6.174,6.174,0,0,0,2946.9,5212.659Z" transform="translate(-2909.317 -5179.244)" fill="#0f2771"/>
                <path id="Trazado_197612" data-name="Trazado 197612" d="M2955.683,5211.6l-.146-1.7a4.269,4.269,0,0,0,.886-1.79l.05-.393a1.916,1.916,0,0,1,.246-.725,3.218,3.218,0,0,0,.438-1.622v-1.89a4.2,4.2,0,0,0-8.394,0v1.978a3.238,3.238,0,0,0,.34,1.439l.059.117a1.919,1.919,0,0,1,.187.616l.061.478a4.231,4.231,0,0,0,.822,1.7l-.153,1.781-5.058,1.625a.649.649,0,1,0,.4,1.235l5.469-1.758a.649.649,0,0,0,.448-.562l.194-2.256a.628.628,0,0,0,0-.091.648.648,0,0,0-.126-.581,3.546,3.546,0,0,1-.707-1.262l-.061-.478a3.21,3.21,0,0,0-.314-1.032l-.059-.118a1.929,1.929,0,0,1-.2-.858v-1.978a2.9,2.9,0,1,1,5.8,0v1.89a1.92,1.92,0,0,1-.262.968,3.206,3.206,0,0,0-.413,1.214l-.05.393a3.447,3.447,0,0,1-.744,1.306.646.646,0,0,0-.157.5.659.659,0,0,0,0,.132l.194,2.256a.649.649,0,0,0,.448.562l2.637.848a.64.64,0,0,0,.2.031.649.649,0,0,0,.2-1.266Z" transform="translate(-2916.707 -5185.584)" fill="#0f2771"/>
                <path id="Trazado_197613" data-name="Trazado 197613" d="M2851.345,5213.667l2.99-.961a.649.649,0,0,0,.448-.562l.194-2.256a.707.707,0,0,0,0-.091.648.648,0,0,0-.126-.581,3.545,3.545,0,0,1-.707-1.262l-.061-.478a3.21,3.21,0,0,0-.314-1.032l-.059-.118a1.928,1.928,0,0,1-.2-.858v-1.978a2.9,2.9,0,0,1,5.8,0v1.89a1.92,1.92,0,0,1-.262.968,3.206,3.206,0,0,0-.413,1.214l-.05.393a3.453,3.453,0,0,1-.744,1.306,1.127,1.127,0,0,0-.159.628l.194,2.256a.649.649,0,0,0,.448.562l5.469,1.758a.655.655,0,0,0,.2.031.649.649,0,0,0,.2-1.267l-5.058-1.625-.146-1.7a4.269,4.269,0,0,0,.886-1.79l.05-.393a1.916,1.916,0,0,1,.246-.725,3.221,3.221,0,0,0,.438-1.622v-1.89a4.2,4.2,0,0,0-8.394,0v1.978a3.238,3.238,0,0,0,.34,1.439l.059.117a1.914,1.914,0,0,1,.187.616l.061.478a4.234,4.234,0,0,0,.823,1.7l-.153,1.781-2.58.829a.649.649,0,1,0,.4,1.235Z" transform="translate(-2850.498 -5185.584)" fill="#0f2771"/>
                <path id="Trazado_197614" data-name="Trazado 197614" d="M2878.594,5166.853a7.933,7.933,0,0,0-.054-.928.649.649,0,1,0-1.289.152,6.606,6.606,0,0,1,.045.776c0,2.969-1.968,5.385-4.386,5.385s-4.386-2.416-4.386-5.385,1.968-5.385,4.386-5.385a4.241,4.241,0,0,1,3.625,2.358l-1.776,1.108a2.354,2.354,0,0,0-1.849-.94,2.886,2.886,0,0,0,0,5.717,2.462,2.462,0,0,0,2.177-1.461.649.649,0,0,0-1.166-.568,1.18,1.18,0,0,1-1.01.732,1.617,1.617,0,0,1,0-3.123,1.035,1.035,0,0,1,.736.337l-1.079.674a.649.649,0,1,0,.687,1.1l13.034-8.134,1.791.906a.649.649,0,0,0,.634-.027l3.878-2.4a.649.649,0,0,0-.048-1.13l-1.686-.853v-2.1a.649.649,0,0,0-.987-.554l-3.892,2.377a.648.648,0,0,0-.311.554v2.09l-5.442,3.4a8.156,8.156,0,0,0-15.469,3.609v4.185a6.112,6.112,0,0,0,.642,2.721l.125.25a4.777,4.777,0,0,1,.467,1.535l.129,1.01a8.681,8.681,0,0,0,1.785,3.507.649.649,0,0,0-.034.156l-.374,4.344-11.156,3.586a6.175,6.175,0,0,0-4.325,5.908.649.649,0,0,0,1.3,0,4.883,4.883,0,0,1,3.423-4.672l11.569-3.719a.649.649,0,0,0,.448-.562l.41-4.773a9.722,9.722,0,0,0-.1-.9,7.88,7.88,0,0,1-1.655-3.04l-.129-1.01a6.064,6.064,0,0,0-.594-1.951l-.125-.25a4.811,4.811,0,0,1-.505-2.141v-4.185a6.858,6.858,0,0,1,13.064-2.918l-1.48.923a5.505,5.505,0,0,0-4.727-2.968c-3.134,0-5.683,3-5.683,6.682s2.55,6.682,5.683,6.682S2878.594,5170.538,2878.594,5166.853Zm9.746-8-.765-.387,2.574-1.606.777.394Zm-1.375-2.451,2.595-1.585v.882l-2.595,1.619Z" transform="translate(-2851.565 -5153.012)" fill="#0f2771"/>
              </g>
            </g>
          </g>
        </g>
      </g>
    </g>
  </g>
</svg>
