<svg xmlns="http://www.w3.org/2000/svg" width="531" height="322" viewBox="0 0 531 322">
  <g id="Grupo_222341" data-name="Grupo 222341" transform="translate(-837 -572)">
    <g id="Grupo_222340" data-name="Grupo 222340">
      <g id="Grupo_222272" data-name="Grupo 222272">
        <rect id="Rectángulo_295896" data-name="Rectángulo 295896" width="531" height="322" transform="translate(837 572)" fill="none"/>
        <g id="_1c" data-name="1c" transform="translate(842.15 481.14)">
          <path id="Trazado_191851" data-name="Trazado 191851" d="M190.224,393.462s37.1-14.653,41.393-42.518c5.289-34.278-2.046-50.154-2.046-50.154l-26.348,33.83-7.229,34.735-9.527,6.887-5.3,11.23,9.054,5.99Z" transform="translate(-32.067 -37.731)" fill="#ef7559"/>
          <g id="Grupo_141079" data-name="Grupo 141079" transform="translate(203.494 254.762)">
            <path id="Trazado_191852" data-name="Trazado 191852" d="M272.62,330.214c10.741,5.045,17.343,13.61,14.751,19.136s-13.406,5.917-24.148.864-17.343-13.61-14.751-19.136S261.879,325.161,272.62,330.214Z" transform="translate(-247.909 -297.28)" fill="#7b9b75"/>
            <path id="Trazado_191853" data-name="Trazado 191853" d="M333.876,315.206c-4.727,10.888-13.1,17.734-18.7,15.305s-6.308-13.227-1.581-24.107,13.1-17.734,18.7-15.305S338.6,304.326,333.876,315.206Z" transform="translate(-259.484 -290.609)" fill="#7b9b75"/>
            <path id="Trazado_191854" data-name="Trazado 191854" d="M280.03,378.912c-8.7-1.312-15.208-6.006-14.531-10.481s8.272-7.041,16.976-5.729,15.208,6.006,14.531,10.481S288.734,380.224,280.03,378.912Z" transform="translate(-251.155 -303.884)" fill="#7b9b75"/>
            <path id="Trazado_191855" data-name="Trazado 191855" d="M346.788,375.951c-8.443,2.469-16.316.945-17.587-3.4s4.548-9.861,12.991-12.331,16.316-.945,17.587,3.4S355.231,373.481,346.788,375.951Z" transform="translate(-262.917 -303.27)" fill="#7b9b75"/>
            <path id="Trazado_191856" data-name="Trazado 191856" d="M326.534,341.865c8.052-8.712,18.215-12.428,22.7-8.28s1.589,14.564-6.463,23.284-18.215,12.428-22.7,8.28S318.482,350.585,326.534,341.865Z" transform="translate(-260.87 -298.247)" fill="#7b9b75"/>
            <path id="Trazado_191857" data-name="Trazado 191857" d="M314.854,376.963a.487.487,0,0,1-.473-.375c-7.229-31.825,9.136-66.291,9.307-66.641a.488.488,0,1,1,.88.424c-.163.342-16.381,34.506-9.234,66.005a.485.485,0,0,1-.367.579.476.476,0,0,1-.106.016Z" transform="translate(-259.867 -294.136)" fill="#5f7c59"/>
            <path id="Trazado_191858" data-name="Trazado 191858" d="M306.986,382.086a.487.487,0,0,1-.473-.367c-9.845-38.687-40.92-43.349-41.238-43.39a.482.482,0,0,1-.416-.546.467.467,0,0,1,.546-.416c.318.041,32.037,4.768,42.045,44.115a.481.481,0,0,1-.35.587.632.632,0,0,1-.122.016Z" transform="translate(-251.044 -299.259)" fill="#5f7c59"/>
            <path id="Trazado_191859" data-name="Trazado 191859" d="M308.523,385.229a.487.487,0,0,1-.473-.367c-3.651-14.474-25.982-14.694-26.2-14.694a.489.489,0,1,1,0-.978c.236,0,23.308.228,27.147,15.428a.481.481,0,0,1-.35.587.628.628,0,0,1-.122.016Z" transform="translate(-254.098 -305.148)" fill="#5f7c59"/>
            <path id="Trazado_191860" data-name="Trazado 191860" d="M312.069,381.647a.556.556,0,0,1-.1-.008.49.49,0,0,1-.383-.571c.049-.244,5.077-24.368,29.4-40.5a.488.488,0,0,1,.538.815c-23.977,15.892-28.94,39.633-28.989,39.869a.494.494,0,0,1-.473.391Z" transform="translate(-259.689 -299.838)" fill="#5f7c59"/>
            <path id="Trazado_191861" data-name="Trazado 191861" d="M316.44,384.742a.472.472,0,0,1-.269-.082.485.485,0,0,1-.139-.668c.09-.139,9.128-13.521,31.6-17.424a.477.477,0,0,1,.562.391.487.487,0,0,1-.391.562c-22.029,3.822-30.863,16.87-30.945,17a.507.507,0,0,1-.407.22Z" transform="translate(-260.499 -304.661)" fill="#5f7c59"/>
            <path id="Trazado_191862" data-name="Trazado 191862" d="M327.661,426.96H303.2a2.523,2.523,0,0,1-2.567-2.184l-3.741-35.639a2.485,2.485,0,0,1,2.567-2.657H331.4a2.489,2.489,0,0,1,2.567,2.657l-3.741,35.639a2.523,2.523,0,0,1-2.567,2.184Z" transform="translate(-256.969 -308.347)" fill="#a79cad"/>
            <path id="Trazado_191863" data-name="Trazado 191863" d="M321.011,426.96H296.545a2.523,2.523,0,0,1-2.567-2.184l-3.741-35.639a2.485,2.485,0,0,1,2.567-2.657h31.947a2.489,2.489,0,0,1,2.567,2.657l-3.741,35.639A2.523,2.523,0,0,1,321.011,426.96Z" transform="translate(-255.738 -308.347)" fill="#bbafc0"/>
          </g>
          <path id="Trazado_191864" data-name="Trazado 191864" d="M144.663,428.095a.918.918,0,0,0,.709,1.108c2.437.57,9.356,1.874,13.561-.587,5.167-3.024,10.383-11.719,14-14.156s10.53-3.961,10.367-6.389-3.211-8.166-.244-13.349,5.346-7.156,4.637-9.185-18.891-10.668-20.26-10.5-3.586,8.3-4.05,8.891,3.154,4.344,1.964,5.33-3.912,1.654-5.64,3.113c-1.614,1.361-13.464,29.91-15.045,35.729Z" transform="translate(-25.308 -51.468)" fill="#536299"/>
          <path id="Trazado_191865" data-name="Trazado 191865" d="M217.314,342.3s-2.111,66.771-4.939,73.837-18.3,0-18.3,0l-3.651-72.354,26.9-1.483Z" transform="translate(-33.779 -45.411)" fill="#f48462"/>
          <path id="Trazado_191866" data-name="Trazado 191866" d="M230.828,276.793s2.7,14.083,3.92,28.084c1.035,11.793,1.3,24.857,0,26.006s-14.115,5.037-29.616,4.173-20.155-4.759-19.894-6.137,2.07-2.543,2.07-2.543-1.035-34.254,3.1-43.422,21.76-11.173,21.76-11.173l17.644-.35,1.019,5.346Z" transform="translate(-32.818 -32.299)" fill="#feca2e"/>
          <g id="Grupo_141080" data-name="Grupo 141080" transform="translate(126.935 113.698)">
            <rect id="Rectángulo_44068" data-name="Rectángulo 44068" width="150.47" height="88.442" rx="5.54" transform="translate(8.745)" fill="#c8bcce"/>
            <rect id="Rectángulo_44069" data-name="Rectángulo 44069" width="150.47" height="88.442" rx="5.54" transform="translate(3.113)" fill="#e2dfe5"/>
            <path id="Trazado_191867" data-name="Trazado 191867" d="M313.087,225.73H156.7a2.73,2.73,0,1,1,0-5.46H313.087a2.73,2.73,0,1,1,0,5.46Z" transform="translate(-153.97 -136.531)" fill="#a79cad"/>
            <path id="Trazado_191868" data-name="Trazado 191868" d="M199.389,217.984H173.53a10.028,10.028,0,0,1,10.024-10.024h5.811a10.028,10.028,0,0,1,10.024,10.024h0Z" transform="translate(-157.589 -134.253)" fill="#f7b369"/>
            <path id="Trazado_191869" data-name="Trazado 191869" d="M302.063,219.748H275.829a1.369,1.369,0,1,1,0-2.738h26.234a1.369,1.369,0,0,1,0,2.738Z" transform="translate(-176.263 -135.927)" fill="#6876aa"/>
            <rect id="Rectángulo_44070" data-name="Rectángulo 44070" width="6.773" height="18.573" transform="translate(17.758 44.27)" fill="#92b4ea"/>
            <rect id="Rectángulo_44071" data-name="Rectángulo 44071" width="6.773" height="18.573" transform="translate(79.664 44.27)" fill="#92b4ea"/>
            <rect id="Rectángulo_44072" data-name="Rectángulo 44072" width="6.773" height="28.076" transform="translate(33.235 34.71)" fill="#92b4ea"/>
            <rect id="Rectángulo_44073" data-name="Rectángulo 44073" width="6.773" height="36.153" transform="translate(48.711 26.625)" fill="#92b4ea"/>
            <rect id="Rectángulo_44074" data-name="Rectángulo 44074" width="6.773" height="44.131" transform="translate(64.188 18.793)" fill="#92b4ea"/>
            <path id="Trazado_191870" data-name="Trazado 191870" d="M316.541,167.5a18.851,18.851,0,1,1-32.648-12.836,18.566,18.566,0,0,1,6.609-4.588,18.741,18.741,0,0,1,7.18-1.434,18.831,18.831,0,0,1,18.851,18.842Z" transform="translate(-177.073 -123.278)" fill="#f7b369"/>
            <path id="Trazado_191871" data-name="Trazado 191871" d="M317.9,161.067l-17.726,6.422-7.93-12.706.75-4.719a18.741,18.741,0,0,1,7.18-1.434A18.86,18.86,0,0,1,317.9,161.05Z" transform="translate(-179.552 -123.276)" fill="#0f2771"/>
            <path id="Trazado_191872" data-name="Trazado 191872" d="M298.838,167.565l-13.8-12.836a18.777,18.777,0,0,1,10.5-5.729l3.293,18.557Z" transform="translate(-178.22 -123.344)" fill="#92b4ea"/>
          </g>
          <ellipse id="Elipse_4920" data-name="Elipse 4920" cx="252.701" cy="8.264" rx="252.701" ry="8.264" transform="translate(7.85 385.127)" fill="#c8bcce"/>
          <path id="Trazado_191873" data-name="Trazado 191873" d="M203,168.924s-12.1-2.445-16.316,9.625,2.266,43.936,2.266,43.936l25.941-7.066-5.208-25.672-6.691-20.823Z" transform="translate(-32.825 -13.295)"/>
          <circle id="Elipse_4921" data-name="Elipse 4921" cx="21.605" cy="21.605" r="21.605" transform="translate(7.858 96.86)" fill="#ddd7e0"/>
          <circle id="Elipse_4922" data-name="Elipse 4922" cx="16.943" cy="16.943" r="16.943" transform="translate(12.52 101.522)" fill="#c8bcce"/>
          <path id="Trazado_191874" data-name="Trazado 191874" d="M32.939,123.317a.7.7,0,0,1-.253-.049.71.71,0,0,1-.416-.473l-2.046-8.427a.683.683,0,1,1,1.328-.318l1.817,7.49,11.345-7.416a.683.683,0,1,1,.75,1.141l-12.151,7.946a.7.7,0,0,1-.375.114Z" transform="translate(-4.136 -3.084)" fill="#5c69a5"/>
          <g id="Grupo_141081" data-name="Grupo 141081" transform="translate(193.78 251.503)">
            <path id="Trazado_191875" data-name="Trazado 191875" d="M244.59,305.36h38.394a1.29,1.29,0,0,1,1.288,1.288v5.167a1.29,1.29,0,0,1-1.288,1.288H244.59a3.612,3.612,0,0,1-3.61-3.61v-.522a3.612,3.612,0,0,1,3.61-3.61Z" transform="translate(-236.913 -290.079)" fill="#7b9b75"/>
            <path id="Trazado_191876" data-name="Trazado 191876" d="M251.77,305.46h38.394a1.29,1.29,0,0,1,1.288,1.288v5.167a1.29,1.29,0,0,1-1.288,1.288H251.77a3.612,3.612,0,0,1-3.61-3.61v-.522a3.612,3.612,0,0,1,3.61-3.61Z" transform="translate(-238.242 -290.098)" fill="#a0bf99"/>
            <path id="Trazado_191877" data-name="Trazado 191877" d="M291.843,312.006h-39.07a2.453,2.453,0,0,1,0-4.906h39.07v4.914Z" transform="translate(-238.641 -290.401)" fill="#fff"/>
            <path id="Trazado_191878" data-name="Trazado 191878" d="M238.718,303.772H281.9a3.871,3.871,0,1,0,0-7.742H238.718a.1.1,0,0,0-.1.1v7.539a.1.1,0,0,0,.1.1Z" transform="translate(-236.477 -288.353)" fill="#0f2771"/>
            <path id="Trazado_191879" data-name="Trazado 191879" d="M237.2,303.772h33.39a3.871,3.871,0,0,0,0-7.742H237.2a1.217,1.217,0,0,0-1.214,1.214v5.314a1.217,1.217,0,0,0,1.214,1.214Z" transform="translate(-235.99 -288.353)" fill="#c199b0"/>
            <path id="Trazado_191880" data-name="Trazado 191880" d="M236,302.586h34.449a2.453,2.453,0,0,0,0-4.906H236v4.914Z" transform="translate(-235.992 -288.658)" fill="#fff"/>
            <path id="Trazado_191881" data-name="Trazado 191881" d="M242.97,294.352h34.71a3.871,3.871,0,1,0,0-7.742H242.97a.438.438,0,0,0-.44.44V293.9a.438.438,0,0,0,.44.44Z" transform="translate(-237.2 -286.61)" fill="#68b6d8"/>
            <path id="Trazado_191882" data-name="Trazado 191882" d="M241.47,294.352h26.862a3.871,3.871,0,1,0,0-7.742H241.47a1.1,1.1,0,0,0-1.1,1.1v5.534a1.1,1.1,0,0,0,1.1,1.1Z" transform="translate(-236.8 -286.61)" fill="#8cd2ea"/>
            <path id="Trazado_191883" data-name="Trazado 191883" d="M240.37,293.166h28.076a2.453,2.453,0,0,0,0-4.906H240.37v4.914Z" transform="translate(-236.8 -286.915)" fill="#fff"/>
          </g>
          <path id="Trazado_191884" data-name="Trazado 191884" d="M63.841,308.174H50.63V286.731a6.6,6.6,0,1,1,13.2,0v21.442Z" transform="translate(-7.915 -33.908)" fill="#92b4ea"/>
          <rect id="Rectángulo_44075" data-name="Rectángulo 44075" width="5.028" height="7.416" transform="translate(46.806 241.837)" fill="#92b4ea"/>
          <path id="Trazado_191885" data-name="Trazado 191885" d="M60.7,275.08H54.585a1.785,1.785,0,0,1,0-3.57H60.7a1.785,1.785,0,0,1,0,3.57Z" transform="translate(-8.317 -32.313)" fill="#f7b369"/>
          <path id="Trazado_191886" data-name="Trazado 191886" d="M52.718,299.082a.318.318,0,0,1-.318-.318v-12a.318.318,0,0,1,.318-.318.313.313,0,0,1,.318.318v12A.318.318,0,0,1,52.718,299.082Z" transform="translate(-8.243 -35.078)" fill="#fff"/>
          <path id="Trazado_191887" data-name="Trazado 191887" d="M364.021,308.174H350.81V286.731a6.6,6.6,0,1,1,13.2,0v21.442Z" transform="translate(-63.454 -33.908)" fill="#92b4ea"/>
          <rect id="Rectángulo_44076" data-name="Rectángulo 44076" width="5.028" height="7.416" transform="translate(291.447 241.837)" fill="#92b4ea"/>
          <path id="Trazado_191888" data-name="Trazado 191888" d="M360.877,275.08h-6.112a1.785,1.785,0,1,1,0-3.57h6.112a1.785,1.785,0,0,1,0,3.57Z" transform="translate(-63.855 -32.313)" fill="#40507f"/>
          <path id="Trazado_191889" data-name="Trazado 191889" d="M352.908,299.082a.318.318,0,0,1-.318-.318v-12a.318.318,0,0,1,.318-.318.313.313,0,0,1,.318.318v12A.318.318,0,0,1,352.908,299.082Z" transform="translate(-63.783 -35.078)" fill="#fff"/>
          <path id="Trazado_191890" data-name="Trazado 191890" d="M291.66,193.849s6.715-26.446,8.264-25.574S294.684,194,294.684,194l-3.024-.147Z" transform="translate(-52.51 -13.209)" fill="#5c69a5"/>
          <path id="Trazado_191891" data-name="Trazado 191891" d="M282.585,217.165s5.672-2.429,7.172-5.746-5.99-6.08-5.99-6.08l-3.757,6.08,2.575,5.754Z" transform="translate(-50.355 -20.071)" fill="#f48462"/>
          <path id="Trazado_191892" data-name="Trazado 191892" d="M285.623,199.66a5.622,5.622,0,0,1,1.923-1.866c2.608-1.606,10.709-4.8,12.934-2.453,2.127,2.258-2.315,4.173-2.315,4.173s3.887-.831,3.545,2.013a3.851,3.851,0,0,1-2.771,3.024s4.132-.473,2.453,2.861-10.3,5.909-13.406,5.64-.676-4.23-.676-4.23-3.317-.725-3.211-2.583c.106-1.964,2.779-2.567,2.779-2.567a2.669,2.669,0,0,1-1.247-4.034Z" transform="translate(-51.111 -18.067)" fill="#f48462"/>
          <path id="Trazado_191893" data-name="Trazado 191893" d="M273.43,202.614s7.905-9.478,9.918-10.041,11.728,2.249,10.741,4.662-8.362.636-8.362.636-1.394,11.964-5.566,12.551-6.724-7.816-6.724-7.816Z" transform="translate(-49.137 -17.695)" fill="#f48462"/>
          <path id="Trazado_191894" data-name="Trazado 191894" d="M288.648,204.891a.306.306,0,0,1-.293-.2.31.31,0,0,1,.179-.407l10.293-3.985a.315.315,0,0,1,.228.587l-10.293,3.985A.5.5,0,0,1,288.648,204.891Z" transform="translate(-51.894 -19.133)"/>
          <path id="Trazado_191895" data-name="Trazado 191895" d="M289.5,210.966a.309.309,0,0,1-.293-.2.317.317,0,0,1,.187-.408l10.383-3.879a.317.317,0,0,1,.22.595l-10.383,3.879A.716.716,0,0,1,289.5,210.966Z" transform="translate(-52.052 -20.277)"/>
          <path id="Trazado_191896" data-name="Trazado 191896" d="M218.493,204.032s12.51,3.6,24.009,3.431c9.959-.147,23.039-5.8,23.039-5.8L274.8,218.3s-24.286,22.738-40.969,15.216c-21.507-9.7-15.346-29.494-15.346-29.494Z" transform="translate(-38.82 -19.39)" fill="#0f2771"/>
          <path id="Trazado_191897" data-name="Trazado 191897" d="M283.909,211.153a.3.3,0,0,1-.236-.114.321.321,0,0,1,.033-.448,12.425,12.425,0,0,0,3.586-11.508.316.316,0,1,1,.619-.13,13.06,13.06,0,0,1-3.8,12.119.313.313,0,0,1-.2.073Z" transform="translate(-51.018 -18.842)"/>
          <path id="Trazado_191898" data-name="Trazado 191898" d="M198.749,203.214s-15.338,5.607-17.261,14.164,11.508,42.795,15.02,43.976,31.638-5.02,34.2-7.082-1.557-20.252-2.192-23.2-3.195-14.759-6.715-19.771-12.192-8.419-15.7-8.419-7.351.334-7.351.334Z" transform="translate(-32.092 -19.616)" fill="#0f2771"/>
          <path id="Trazado_191899" data-name="Trazado 191899" d="M199.088,195.69l.815,8.354s1.744,2.249,6.667,2.176c3.667-.057,4.865-1.011,4.865-1.011l-.921-4.181-.9-4.075-9.014-1.076-1.516-.179Z" transform="translate(-35.381 -18.285)" fill="#f48462"/>
          <path id="Trazado_191900" data-name="Trazado 191900" d="M200.948,195.91a2.673,2.673,0,0,0,.318.782c2.274,3.985,7.473,4.385,9.592,4.368l-.9-4.075-9.014-1.076Z" transform="translate(-35.725 -18.326)"/>
          <path id="Trazado_191901" data-name="Trazado 191901" d="M208.155,173.052s5.4,10.041,4.246,16.031-6.569,5.5-9.845,4.637a10.591,10.591,0,0,1-4.922-2.706,4.513,4.513,0,0,1-5.118-1.353c-2.217-2.608-1.255-5.892.383-6.756s3.765.2,3.765.2l-1.834-2.893s5.4-15.933,13.325-7.147Z" transform="translate(-33.927 -13.609)" fill="#f48462"/>
          <path id="Trazado_191902" data-name="Trazado 191902" d="M248.56,449.182a.931.931,0,0,0,.75-1.1c-.416-2.51-1.907-9.519-5.811-12.494-4.808-3.659-14.873-5.118-18.533-7.555s-7.759-8.321-9.943-7.2-6.3,6.235-12.249,5.5-8.7-2.192-10.293-.733-2.518,21.931-1.834,23.154,9.063.09,9.8.293,2.787-4.678,4.165-3.945,3.048,3.015,5.069,4.067c1.891.978,32.893.831,38.891.016Z" transform="translate(-33.778 -59.914)" fill="#5c69a5"/>
          <path id="Trazado_191903" data-name="Trazado 191903" d="M197.264,182.707s4.548.579,7.3-4.637,2.315-7.245,2.315-7.245l3.472,4.923s.432-3.619-1.157-5.795-3.04-1.589-3.04-1.589l-9.706,3.187-2.029,8.109,2.836,3.04Z" transform="translate(-34.519 -13.216)"/>
          <path id="Trazado_191904" data-name="Trazado 191904" d="M235.268,248.983s4.05-5.118,7.017-6.349c1.467-.611,7-1.63,7.514-.293s-4.76,4.27-4.76,4.27,12.8-4.833,14.939-3.8c2.583,1.247-1.141,2.9-1.141,2.9s4.124.2,3.464,1.614-3.162,2.869-3.162,2.869,4.58-.766,2.168,2.437-21.842,13.243-28.019,7.808c-3.048-2.689,1.98-11.451,1.98-11.451Z" transform="translate(-41.528 -26.795)" fill="#f48462"/>
          <path id="Trazado_191905" data-name="Trazado 191905" d="M252.968,250.658a.313.313,0,0,1-.293-.2.31.31,0,0,1,.179-.407l9.641-3.782a.315.315,0,0,1,.228.587l-9.641,3.782a.5.5,0,0,1-.114.024Z" transform="translate(-45.293 -27.638)"/>
          <path id="Trazado_191906" data-name="Trazado 191906" d="M255.418,255.565a.318.318,0,0,1-.293-.2.31.31,0,0,1,.179-.407l7.946-3.187a.32.32,0,0,1,.236.595l-7.946,3.187a.638.638,0,0,1-.114.024Z" transform="translate(-45.746 -28.658)"/>
          <path id="Trazado_191907" data-name="Trazado 191907" d="M244.2,248.392a.309.309,0,0,1-.31-.269.32.32,0,0,1,.269-.359l2.991-.416a.317.317,0,0,1,.09.628l-2.991.416h-.041Z" transform="translate(-43.671 -27.843)"/>
          <path id="Trazado_191908" data-name="Trazado 191908" d="M181.377,216.538S166.251,235.3,175.7,258.1c7.669,18.508,27.514,16.153,37.742,12.958s19.177-11.508,19.177-11.508l-9.429-16.569s-16.031,2.812-26.259,1.85-15.558-28.3-15.558-28.3Z" transform="translate(-30.481 -22.141)" fill="#0f2771"/>
          <path id="Trazado_191909" data-name="Trazado 191909" d="M201.4,250.783c-2.282-.09-9.723-.513-10.114-2.086-.155-.619.562-1.035.8-1.174,3.839-2.249,9.291,2.51,9.527,2.714a.325.325,0,0,1,.081.359.31.31,0,0,1-.293.2Zm-7-3.227a3.835,3.835,0,0,0-1.989.513c-.448.261-.513.432-.505.473.171.685,4.385,1.328,8.541,1.565-1.222-.913-3.733-2.551-6.039-2.551Z" transform="translate(-33.935 -27.764)" fill="#f7b369"/>
          <path id="Trazado_191910" data-name="Trazado 191910" d="M213.579,177.631h-.057l-1.4-.245a.327.327,0,0,1-.261-.367.32.32,0,0,1,.367-.261l1.4.245a.327.327,0,0,1,.261.367.314.314,0,0,1-.31.261Z" transform="translate(-37.745 -14.782)"/>
          <path id="Trazado_191911" data-name="Trazado 191911" d="M206.438,178.114a.318.318,0,0,1-.073-.628l2.363-.579a.314.314,0,0,1,.383.236.318.318,0,0,1-.236.383l-2.363.579a.633.633,0,0,1-.073.008Z" transform="translate(-36.683 -14.809)"/>
          <path id="Trazado_191912" data-name="Trazado 191912" d="M212.88,187.878a.329.329,0,0,1-.2-.073.314.314,0,0,1-.041-.448c1.337-1.622-.685-4.23-.7-4.254a.323.323,0,0,1,.057-.448.316.316,0,0,1,.448.057c.1.122,2.347,3.04.693,5.045a.33.33,0,0,1-.245.114Z" transform="translate(-37.747 -15.861)"/>
          <path id="Trazado_191913" data-name="Trazado 191913" d="M210.419,193.768c-1.475,0-2.078-1.679-2.1-1.752a.321.321,0,0,1,.041-.285.317.317,0,0,1,.261-.13h3.6a.328.328,0,0,1,.261.13.321.321,0,0,1,.041.285c-.024.073-.628,1.752-2.1,1.752Zm-1.3-1.54a1.38,1.38,0,0,0,2.592,0Z" transform="translate(-37.087 -17.529)"/>
          <path id="Trazado_191914" data-name="Trazado 191914" d="M197.444,191.074a.327.327,0,0,1-.187-.065l-3.765-2.787a.315.315,0,0,1,.375-.505l3.765,2.787a.314.314,0,0,1,.065.44A.325.325,0,0,1,197.444,191.074Z" transform="translate(-34.323 -16.798)"/>
          <path id="Trazado_191915" data-name="Trazado 191915" d="M193.678,191.913a.309.309,0,0,1-.277-.163.32.32,0,0,1,.122-.432L196,189.94a.313.313,0,0,1,.432.122.32.32,0,0,1-.122.432l-2.478,1.377A.337.337,0,0,1,193.678,191.913Z" transform="translate(-34.323 -17.214)"/>
          <path id="Trazado_191916" data-name="Trazado 191916" d="M252.36,216.028a1.2,1.2,0,0,1-.815-.318c-1.434-1.263-1.214-6.235-1.182-6.8a.3.3,0,0,1,.236-.285.313.313,0,0,1,.35.139c.326.505,3.17,5,2.461,6.626a1.032,1.032,0,0,1-.815.619,1.164,1.164,0,0,1-.236.024Zm-1.394-6.023c0,1.777.171,4.5.994,5.232a.552.552,0,0,0,.513.147.407.407,0,0,0,.342-.253c.367-.848-.791-3.3-1.858-5.126Z" transform="translate(-44.864 -20.677)" fill="#feca2e"/>
          <path id="Trazado_191917" data-name="Trazado 191917" d="M163.116,280.7,150.835,259.52l-9.715,20.342,13.406,12.111Z" transform="translate(-24.657 -30.095)" fill="#6876aa"/>
          <rect id="Rectángulo_44077" data-name="Rectángulo 44077" width="8.957" height="61.075" transform="translate(104.914 374.019) rotate(180)" fill="#40507f"/>
          <path id="Trazado_191918" data-name="Trazado 191918" d="M97.662,440.163h37.571a2.812,2.812,0,0,0,0-5.623H97.662a2.812,2.812,0,0,0,0,5.623Z" transform="translate(-16.097 -62.477)" fill="#40507f"/>
          <path id="Trazado_191919" data-name="Trazado 191919" d="M138.24,445.355A6.055,6.055,0,1,0,144.3,439.3,6.059,6.059,0,0,0,138.24,445.355Z" transform="translate(-24.124 -63.358)" fill="#40507f"/>
          <path id="Trazado_191920" data-name="Trazado 191920" d="M114.03,445.355a6.055,6.055,0,1,0,6.055-6.055A6.059,6.059,0,0,0,114.03,445.355Z" transform="translate(-19.645 -63.358)" fill="#40507f"/>
          <path id="Trazado_191921" data-name="Trazado 191921" d="M89.92,445.355a6.055,6.055,0,1,0,6.055-6.055A6.059,6.059,0,0,0,89.92,445.355Z" transform="translate(-15.184 -63.358)" fill="#40507f"/>
          <path id="Trazado_191922" data-name="Trazado 191922" d="M85.637,271.83s-18.8,11.206-15.362,47.285c3.105,32.51,34.009,44.514,58.768,36.136s20.635-32.526,20.635-32.526l-64.041-50.9Z" transform="translate(-11.472 -32.373)" fill="#feca2e"/>
          <path id="Trazado_191923" data-name="Trazado 191923" d="M86.738,351.774a.313.313,0,0,1-.2-.073c-6.552-5.542-9.234-16.846-9.266-16.96a.318.318,0,0,1,.619-.147c.024.114,2.665,11.214,9.054,16.617a.318.318,0,0,1-.2.562Z" transform="translate(-12.842 -43.94)" fill="#fff"/>
          <path id="Trazado_191924" data-name="Trazado 191924" d="M125.368,250.393s12.559,1.141,17.278,7.384-1.516,45.337-1.85,45.883-9.087,4.531-24.344,4.181S97.5,304.5,96.99,303.66s.359-45.158,4.059-48.9,15.126-5.509,24.319-4.36Z" transform="translate(-16.468 -28.344)" fill="#6876aa"/>
          <path id="Trazado_191925" data-name="Trazado 191925" d="M147.482,410.278v16.634L134.809,431.7l-7.979-8.949-1.32-15.4Z" transform="translate(-21.769 -57.448)" fill="#f48462"/>
          <ellipse id="Elipse_4923" data-name="Elipse 4923" cx="5.884" cy="18.842" rx="5.884" ry="18.842" transform="translate(74.771 304.366) rotate(-82.87)" fill="#f9ae64"/>
          <path id="Trazado_191926" data-name="Trazado 191926" d="M176.256,406.04v16.642l-13.5,4.792-8.508-8.948-1.394-15.4Z" transform="translate(-26.828 -56.665)" fill="#f48462"/>
          <path id="Trazado_191927" data-name="Trazado 191927" d="M143.472,312.1s32.273,16.234,36.234,22.836-.4,60.349-.4,60.349l-28.614.383-3.961-30.04-21.752-50.6,18.5-2.926Z" transform="translate(-21.671 -39.823)" fill="#68b6d8"/>
          <path id="Trazado_191928" data-name="Trazado 191928" d="M99.337,316.3s-1.3,14.425-.839,19.16,15.4,15.884,15.4,15.884l.742,46.169,33.088,1.475s.717-52.762.171-57.733-22.567-23.04-22.567-23.04l-25.99-1.923Z" transform="translate(-16.753 -40.598)" fill="#68b6d8"/>
          <path id="Trazado_191929" data-name="Trazado 191929" d="M122.919,241.25l-1.059,8.337s1.2,2.592,6.023,3.6c3.594.758,4.98.1,4.98.1l.033-4.287.024-4.181-8.565-3.056-1.434-.513Z" transform="translate(-21.094 -26.715)" fill="#f48462"/>
          <path id="Trazado_191930" data-name="Trazado 191930" d="M124.918,241.878a2.887,2.887,0,0,0,.139.831c1.337,4.4,6.324,5.949,8.394,6.4l.024-4.181-8.565-3.056Z" transform="translate(-21.658 -26.829)"/>
          <path id="Trazado_191931" data-name="Trazado 191931" d="M136.22,221.752s3.048,11.01.587,16.6-7.636,3.912-10.652,2.339a10.591,10.591,0,0,1-4.205-3.733,4.521,4.521,0,0,1-4.694-2.461c-1.589-3.04.081-6.031,1.883-6.512s3.635,1.027,3.635,1.027l-1.149-3.235s8.818-14.36,14.6-4.018Z" transform="translate(-20.124 -22.416)" fill="#f48462"/>
          <path id="Trazado_191932" data-name="Trazado 191932" d="M137.7,237.514a.288.288,0,0,1-.139-.033.319.319,0,0,1-.147-.424c.88-1.826-.245-4.107-.253-4.132a.315.315,0,1,1,.562-.285c.049.106,1.271,2.583.261,4.686a.322.322,0,0,1-.285.179Z" transform="translate(-23.919 -25.09)"/>
          <path id="Trazado_191933" data-name="Trazado 191933" d="M122.182,236.444a.325.325,0,0,1-.261-.139l-2.363-3.4a.316.316,0,1,1,.522-.359l2.363,3.4a.315.315,0,0,1-.081.44A.311.311,0,0,1,122.182,236.444Z" transform="translate(-20.658 -25.079)"/>
          <path id="Trazado_191934" data-name="Trazado 191934" d="M119.208,235.686a.318.318,0,0,1,0-.636H121.2a.314.314,0,1,1,0,.628h-1.989Z" transform="translate(-20.544 -25.568)"/>
          <path id="Trazado_191935" data-name="Trazado 191935" d="M132.718,232.47a.32.32,0,0,1-.318-.326l.041-1.964a.317.317,0,0,1,.318-.31.32.32,0,0,1,.318.326l-.041,1.964A.317.317,0,0,1,132.718,232.47Z" transform="translate(-23.044 -24.609)"/>
          <path id="Trazado_191936" data-name="Trazado 191936" d="M139.828,232.95a.313.313,0,0,1-.318-.318v-1.964a.324.324,0,0,1,.318-.318.313.313,0,0,1,.318.318v1.964A.324.324,0,0,1,139.828,232.95Z" transform="translate(-24.359 -24.698)"/>
          <path id="Trazado_191937" data-name="Trazado 191937" d="M131.738,228.2a.351.351,0,0,1-.2-.065.312.312,0,0,1-.057-.44,2.323,2.323,0,0,1,2.649-.538.318.318,0,0,1-.244.587c-.049-.024-1.271-.5-1.907.334a.316.316,0,0,1-.253.122Z" transform="translate(-22.863 -24.069)"/>
          <path id="Trazado_191938" data-name="Trazado 191938" d="M140.609,228.55a.309.309,0,0,1-.277-.163,1.525,1.525,0,0,0-.791-.668.893.893,0,0,0-.693.147.319.319,0,0,1-.342-.538,1.448,1.448,0,0,1,1.19-.228,2.128,2.128,0,0,1,1.182.978.328.328,0,0,1-.122.432.337.337,0,0,1-.155.041Z" transform="translate(-24.146 -24.088)"/>
          <path id="Trazado_191939" data-name="Trazado 191939" d="M123.59,229.272s3.089-1.475,3.35-4.385-.261-3.733-.261-3.733a27.7,27.7,0,0,0,6.145-.155,8.255,8.255,0,0,0,2.706-.831l.628,1c.831.09,3.472-4.645,2.363-5.721s-8.125.253-8.125.253-6.773-2.706-11.622,1.679-1.133,10.945-1.133,10.945,1.6-2.4,5.958.945Z" transform="translate(-20.061 -21.835)"/>
          <path id="Trazado_191940" data-name="Trazado 191940" d="M133.924,241.879a2.207,2.207,0,0,1-.929-.2,1.318,1.318,0,0,1-.742-.782,1.816,1.816,0,0,1,.114-1.263.369.369,0,0,1,.187-.163.319.319,0,0,1,.244.024l2.535,1.41a.328.328,0,0,1,.163.261.344.344,0,0,1-.139.277,2.75,2.75,0,0,1-1.434.432Zm-1.092-1.638a.969.969,0,0,0,.016.456.729.729,0,0,0,.416.407,1.733,1.733,0,0,0,1.222.057Z" transform="translate(-23.003 -26.382)"/>
          <path id="Trazado_191941" data-name="Trazado 191941" d="M150.07,444.272s.595-26.748,4.751-26.194,8.313,4.458,8.313,4.458,9.5-5.012,13.659-2.233,6.544,8.916,6.544,8.916l23.146,15.045s2.8,4.458,2,6.691c-.628,1.736-35.835.766-51.271.253a7.155,7.155,0,0,1-7.131-6.936h0Z" transform="translate(-26.313 -59.43)" fill="#8e657d"/>
          <path id="Trazado_191942" data-name="Trazado 191942" d="M156.871,438.34s-5.8-14.205-9.552-16.658-13.121,5.33-13.121,5.33-7.848-8.264-9.78-3.928-2.869,19.861-1.4,23.292,12.233,9.136,26.381,9.1c6.667-.016,16.283-2.078,16.283-4.368.008-3.6-6.536-10.391-8.81-12.763Z" transform="translate(-21.175 -60.009)" fill="#0f2771"/>
          <path id="Trazado_191943" data-name="Trazado 191943" d="M157.591,395.894a.32.32,0,0,1-.318-.326c.016-.489,1.214-49.266,0-54.987-.823-3.9-13.2-16.055-13.325-16.177a.324.324,0,0,1-.09-.293.305.305,0,0,1,.2-.228l8.924-3.276a.317.317,0,0,1,.22.595l-8.451,3.105c2.095,2.078,12.355,12.4,13.146,16.145,1.222,5.795.057,53.121,0,55.134a.317.317,0,0,1-.318.31Z" transform="translate(-25.163 -41.394)" fill="#40507f"/>
          <path id="Trazado_191944" data-name="Trazado 191944" d="M128.626,306.011s7.343,4.026,8.891,3.993,7.115,0,7.473-1.125l-1.646-3.781s2.918,1.646,5.126.815,4.963-2.706,5.664-4.3-1.736-1.548-1.736-1.548,4.173-3.293.9-5.151-19.177-3.822-25.835-.668S128.617,306,128.617,306Z" transform="translate(-21.633 -36.212)" fill="#f48462"/>
          <path id="Trazado_191945" data-name="Trazado 191945" d="M156.894,301.653a.288.288,0,0,1-.139-.033,18.456,18.456,0,0,0-7.359-1.565.318.318,0,0,1-.326-.31.324.324,0,0,1,.31-.326,18.742,18.742,0,0,1,7.645,1.63.313.313,0,0,1,.147.424.322.322,0,0,1-.285.179Z" transform="translate(-26.128 -37.477)"/>
          <path id="Trazado_191946" data-name="Trazado 191946" d="M117.639,361.116a.321.321,0,0,1-.171-.049.306.306,0,0,1-.139-.293c.016-.2.481-4.743,2.722-6.243a2.861,2.861,0,0,1,2.543-.326c.8.244,1.239.652,1.3,1.214.228,2.054-5.452,5.306-6.1,5.664a.366.366,0,0,1-.155.041Zm3.969-6.438a2.108,2.108,0,0,0-1.206.375c-1.54,1.027-2.16,3.879-2.363,5.151,2.282-1.353,5.346-3.586,5.224-4.727-.033-.285-.318-.513-.856-.676a2.841,2.841,0,0,0-.8-.122Z" transform="translate(-20.255 -47.585)" fill="#40507f"/>
          <path id="Trazado_191947" data-name="Trazado 191947" d="M143.4,305.163h40l11.426-25.843H156.4a2.42,2.42,0,0,0-2.217,1.443l-10.79,24.4Z" transform="translate(-25.077 -33.758)" fill="#fff"/>
          <path id="Trazado_191948" data-name="Trazado 191948" d="M147.66,305.163h40l10.2-23.064a1.979,1.979,0,0,0-1.809-2.779H159.086L147.66,305.163Z" transform="translate(-25.867 -33.758)" fill="#92b4ea"/>
          <path id="Trazado_191949" data-name="Trazado 191949" d="M126.58,314.29h56.478a1.63,1.63,0,1,0,0-3.26H126.58a1.63,1.63,0,1,0,0,3.26Z" transform="translate(-21.666 -39.625)"/>
          <path id="Trazado_191950" data-name="Trazado 191950" d="M99.1,317.44h-.628a.372.372,0,0,1-.367-.375.365.365,0,0,1,.367-.367,88.123,88.123,0,0,0,20.375-2.241.361.361,0,0,1,.448.269.373.373,0,0,1-.269.448A90.576,90.576,0,0,1,99.1,317.44Z" transform="translate(-16.7 -40.257)" fill="#ffba57"/>
          <path id="Trazado_191951" data-name="Trazado 191951" d="M174.4,294.4a3.4,3.4,0,1,0,3.4-3.4A3.4,3.4,0,0,0,174.4,294.4Z" transform="translate(-30.815 -35.919)" fill="#fff"/>
          <path id="Trazado_191952" data-name="Trazado 191952" d="M105.771,251.48s-9.486,1.051-16.8,12.241a56.47,56.47,0,0,0-8.614,22.787l24-1.972,1.418-33.056Z" transform="translate(-13.416 -28.607)" fill="#6876aa"/>
          <path id="Trazado_191953" data-name="Trazado 191953" d="M83.193,293.8s-2.355,10.261,4.645,15.11c6.772,4.686,33.023-2.967,33.023-2.967l.073-12.241-19.062-1.475Z" transform="translate(-13.869 -36.147)" fill="#f48462"/>
          <path id="Trazado_191954" data-name="Trazado 191954" d="M120.595,260.871a1.709,1.709,0,0,1-.416-.049,1.179,1.179,0,0,1-.766-.619c-1.019-1.964,1.369-8.2,1.646-8.908a.3.3,0,0,1,.236-.2.329.329,0,0,1,.293.1c5.55,6.031,10.424,3.733,10.627,3.627a.324.324,0,0,1,.359.049c.35.318,3.39,3.187,3.227,4.776a1.043,1.043,0,0,1-.513.815c-1.826,1.117-6.006-3.089-7.1-4.238C127.066,257.244,122.885,260.871,120.595,260.871Zm.88-8.875c-.791,2.119-2.192,6.577-1.5,7.913a.551.551,0,0,0,.35.3c1.63.391,5.737-2.918,7.449-4.458a12.284,12.284,0,0,1-6.3-3.757Zm7.278,3.9c1.948,2.037,5.1,4.7,6.21,4.026a.422.422,0,0,0,.212-.334c.09-.929-1.663-2.95-2.885-4.108a7.934,7.934,0,0,1-3.545.416Z" transform="translate(-20.595 -28.536)" fill="#feca2e"/>
          <path id="Trazado_191955" data-name="Trazado 191955" d="M109.728,290.8a.333.333,0,0,1-.318-.35l.693-6.553a.32.32,0,0,1,.636.065l-.693,6.553A.318.318,0,0,1,109.728,290.8Z" transform="translate(-18.79 -34.552)" fill="#f7b369"/>
          <path id="Trazado_191956" data-name="Trazado 191956" d="M150,290.38a.318.318,0,0,1-.318-.318V279.248a.318.318,0,0,1,.318-.318.313.313,0,0,1,.318.318v10.815A.318.318,0,0,1,150,290.38Z" transform="translate(-26.241 -33.686)" fill="#f7b369"/>
          <g id="Grupo_141082" data-name="Grupo 141082" transform="translate(260.263 153.004)">
            <path id="Trazado_191957" data-name="Trazado 191957" d="M378.711,415.92v11.222l-20.391-.8V415.92Z" transform="translate(-325.106 -212.036)" fill="#f48462"/>
            <path id="Trazado_191958" data-name="Trazado 191958" d="M436.825,414.37v11.222l-18.875-.8V414.37Z" transform="translate(-336.139 -211.749)" fill="#f48462"/>
            <path id="Trazado_191959" data-name="Trazado 191959" d="M379.269,264.6s-10.693,21.434-19.413,60.08a445.035,445.035,0,0,0-9.666,64.408H384.6s3.83-28.744,4.849-40.113a255.185,255.185,0,0,1,4.409-26.593s4.719,65.606,5.852,66.714,34.066.244,33.708-1.263-10.407-110.308-11.3-117.48c-2.738-22.053-42.835-5.754-42.835-5.754Z" transform="translate(-323.602 -182.967)" fill="#0f2771"/>
            <path id="Trazado_191960" data-name="Trazado 191960" d="M412.2,445.775c0,1.98.644,4.246,1.956,4.817s11.956,1.76,21.271.921c8.916-.807,10.766-1.491,11.426-2.331.318-.424-.31-2.4-1.027-4.328-.049-.1-.073-.2-.122-.3-.367-.97-.75-1.9-1.027-2.567a11.13,11.13,0,0,0-1.011-1.826,32.1,32.1,0,0,1-3.366-5.7c-.644-1.964-1.622-6.21-2.282-8.207a3.587,3.587,0,0,0-2.266-2.38s-18.337-1.3-19.649-.155c-1.3,1.125-1.956,10.472-1.956,11.882v1.41c0,1.312-.872,3.912-1.434,6.064-.155.538-.277,1.043-.367,1.508a6.533,6.533,0,0,0-.155,1.19Z" transform="translate(-335.073 -213.391)" fill="#92b4ea"/>
            <path id="Trazado_191961" data-name="Trazado 191961" d="M317.962,450.006c1.222.522,53.267,2,54.473,0,.367-.6.628-2.649.8-5.216.432-6.055.432-15.053.432-15.053a37.439,37.439,0,0,0,.31-4.5c-.057-1.41-25.093-.872-25.093-.872L332.607,437.66a30.167,30.167,0,0,0-9.348,0c-2.583.424-4.254,3.708-5.077,6.8-.733,2.738-.8,5.289-.212,5.542Z" transform="translate(-317.568 -213.58)" fill="#92b4ea"/>
            <path id="Trazado_191962" data-name="Trazado 191962" d="M317.96,454.59c1.222.522,53.267,2,54.473,0,.367-.6.628-2.649.8-5.216-9.894.725-34.246,2.111-55.06-.334-.733,2.738-.8,5.289-.212,5.542Z" transform="translate(-317.566 -218.164)" fill="#f7b369"/>
            <path id="Trazado_191963" data-name="Trazado 191963" d="M412.2,450.278c0,1.98.644,4.246,1.956,4.817s11.956,1.76,21.271.921c8.916-.807,10.766-1.491,11.426-2.331.318-.424-.31-2.4-1.027-4.328-8.272.652-23.219,1.239-33.113-1.777-.155.538-.277,1.043-.367,1.508a6.533,6.533,0,0,0-.155,1.19Z" transform="translate(-335.073 -217.894)" fill="#f7b369"/>
            <path id="Trazado_191964" data-name="Trazado 191964" d="M400.5,328.841c-.008-.139-1.084-14.27-1.394-20.546-.269-5.363-.318-8.337-.326-9.1l-10.962-5.053.269-.579,11.328,5.224v.2s.016,3.024.326,9.275,1.385,20.383,1.394,20.529Z" transform="translate(-330.564 -189.397)" fill="#fff"/>
            <path id="Trazado_191965" data-name="Trazado 191965" d="M437.134,434.667a.2.2,0,0,1-.082-.016c-.073-.016-7.229-1.989-10.831-1.353l-3.716.66a.317.317,0,0,1-.342-.171.312.312,0,0,1,.073-.375c.269-.244,6.707-5.868,10.562-4.165a.313.313,0,0,1,.163.416.32.32,0,0,1-.416.163c-2.681-1.19-7.05,1.817-8.949,3.292l2.51-.448c3.741-.668,10.815,1.28,11.116,1.361a.314.314,0,0,1,.22.391.321.321,0,0,1-.3.236Z" transform="translate(-336.912 -214.443)" fill="#fff"/>
            <path id="Trazado_191966" data-name="Trazado 191966" d="M340.728,435.925a.319.319,0,0,1-.033-.636l8.688-.929-2.861-3.488a.318.318,0,1,1,.489-.408l3.235,3.945a.321.321,0,0,1,.049.318.328.328,0,0,1-.261.2l-9.275.986h-.033Z" transform="translate(-321.792 -214.706)" fill="#fff"/>
            <path id="Trazado_191967" data-name="Trazado 191967" d="M435.9,289.954a20.042,20.042,0,0,1-7.514-10.627l.611-.147a19.793,19.793,0,0,0,7.27,10.261Z" transform="translate(-338.07 -186.737)" fill="#fff"/>
            <path id="Trazado_191968" data-name="Trazado 191968" d="M391.212,202.775s-1.279.293-1.589.766a7.228,7.228,0,0,0-.261,2.363s-13.708.122-26.438,15.631-15.371,23.7-11.173,30.374,24.914,4.825,24.914,4.825,6.039,6.487,21.866,7.237,24.221-6.52,24.221-6.52,26.4-6.055,24.653-24.156-28.052-26.691-33.879-28.019a42.555,42.555,0,0,0-10.163-1.133s-.236-.929-.505-1.092c-1.451-.88-11.646-.269-11.646-.269Z" transform="translate(-323.549 -172.564)" fill="#6876aa"/>
            <path id="Trazado_191969" data-name="Trazado 191969" d="M395.041,235.49s-4.189-2.453-3.309,4.865c.619,5.191,4.3-1.622,4.3-1.622l-1-3.235Z" transform="translate(-331.265 -178.58)" fill="#f48462"/>
            <path id="Trazado_191970" data-name="Trazado 191970" d="M399.267,183.54s-5.819-2.608-6.357,1.923c-.628,5.248,5.656,5.411,5.656,5.411l.693-7.335Z" transform="translate(-331.498 -168.904)" fill="#f48462"/>
            <path id="Trazado_191971" data-name="Trazado 191971" d="M396.547,188.5a.309.309,0,0,1-.277-.163l-1.9-3.39a.32.32,0,0,1,.122-.432.313.313,0,0,1,.432.122l1.9,3.39a.32.32,0,0,1-.122.432A.366.366,0,0,1,396.547,188.5Z" transform="translate(-331.769 -169.213)"/>
            <path id="Trazado_191972" data-name="Trazado 191972" d="M395.879,187.986h-1.671a.318.318,0,1,1,0-.636h1.671a.318.318,0,1,1,0,.636Z" transform="translate(-331.687 -169.747)"/>
            <path id="Trazado_191973" data-name="Trazado 191973" d="M410.968,198.773l-.065,6.153a12.882,12.882,0,0,1-5.371,1.231c-4.01,0-5.322-2.4-5.322-2.4l.163-7.213,10.595,2.233Z" transform="translate(-332.856 -171.447)" fill="#f48462"/>
            <path id="Trazado_191974" data-name="Trazado 191974" d="M410.875,198.894s-2.013,4.947-6.552,4.181c-3.659-.611-4.613-5.835-4.613-5.835Z" transform="translate(-332.764 -171.576)"/>
            <path id="Trazado_191975" data-name="Trazado 191975" d="M398.292,176.408s-2.779,11.214.359,16.267a7.6,7.6,0,0,0,11.076,2.355,9.393,9.393,0,0,0,3.48-5.1s3.855.839,5.2-2.29c1.418-3.284-.945-6.006-2.877-6.194s-2.16.155-2.16.155l.636-3.529s-11.516-13.284-15.713-1.654Z" transform="translate(-332.292 -166.841)" fill="#f48462"/>
            <path id="Trazado_191976" data-name="Trazado 191976" d="M417.658,189.378a.33.33,0,0,1-.245-.114.321.321,0,0,1,.041-.448l3.032-2.5a.318.318,0,0,1,.408.489l-3.032,2.5A.313.313,0,0,1,417.658,189.378Z" transform="translate(-336.026 -169.541)"/>
            <path id="Trazado_191977" data-name="Trazado 191977" d="M420.634,190.278a.351.351,0,0,1-.2-.065L418.7,188.86a.32.32,0,0,1,.391-.505l1.736,1.353a.322.322,0,0,1,.057.448A.316.316,0,0,1,420.634,190.278Z" transform="translate(-336.255 -169.92)"/>
            <path id="Trazado_191978" data-name="Trazado 191978" d="M410.588,185.566a.328.328,0,0,1-.318-.342l.147-1.891a.32.32,0,0,1,.342-.293.325.325,0,0,1,.293.342l-.147,1.891a.326.326,0,0,1-.318.293Z" transform="translate(-334.718 -168.949)"/>
            <path id="Trazado_191979" data-name="Trazado 191979" d="M401.7,184.916a.328.328,0,0,1-.318-.342l.147-1.891a.321.321,0,0,1,.342-.293.325.325,0,0,1,.293.342l-.147,1.891a.326.326,0,0,1-.318.293Z" transform="translate(-333.073 -168.829)"/>
            <path id="Trazado_191980" data-name="Trazado 191980" d="M405.654,190.38a.308.308,0,0,1-.31-.261,10.39,10.39,0,0,1,.505-5.493.318.318,0,1,1,.587.244,10.125,10.125,0,0,0-.464,5.134.314.314,0,0,1-.253.367h-.057Z" transform="translate(-333.777 -169.207)"/>
            <path id="Trazado_191981" data-name="Trazado 191981" d="M400.647,180.314a.33.33,0,0,1-.244-.114.314.314,0,0,1,.041-.448,3.727,3.727,0,0,1,2.225-.652.324.324,0,0,1,.31.326.319.319,0,0,1-.326.31,3.207,3.207,0,0,0-1.8.505.313.313,0,0,1-.2.073Z" transform="translate(-332.878 -168.22)"/>
            <path id="Trazado_191982" data-name="Trazado 191982" d="M411.585,181.42a.326.326,0,0,1-.187-.065,3.148,3.148,0,0,0-1.826-.4.315.315,0,1,1-.057-.628,3.772,3.772,0,0,1,2.266.522.314.314,0,0,1,.065.44.325.325,0,0,1-.253.13Z" transform="translate(-334.525 -168.446)"/>
            <path id="Trazado_191983" data-name="Trazado 191983" d="M417.73,183.318s-1.28,3.447-1.728,3.3.408-5.615,1.72-5.811,0,2.51,0,2.51Z" transform="translate(-335.756 -168.534)"/>
            <path id="Trazado_191984" data-name="Trazado 191984" d="M398.176,251.954s-.823,7.294-6.414,5.485-3.618-9.959-3.618-9.959l10.032,4.466Z" transform="translate(-330.562 -180.872)" fill="#f48462"/>
            <path id="Trazado_191985" data-name="Trazado 191985" d="M413.269,180.012a14.134,14.134,0,0,1-6.341-2.779,10.012,10.012,0,0,1-2.771-4.344,6.867,6.867,0,0,0-4.14.978c-2.486,1.3-2.975,5.819-2.975,5.819s-3.887-7.971-1.605-10.546,5.566-.09,5.566-.09-.269-5.061,6.544-2.649a12.244,12.244,0,0,1,7.995,8.517s2.388-.049,2.526,2.168a9.983,9.983,0,0,1-.9,4.385,2.571,2.571,0,0,0-2.592-.57l-1.622.481.318-1.377Z" transform="translate(-331.841 -165.75)"/>
            <path id="Trazado_191986" data-name="Trazado 191986" d="M400.246,202.818a6.978,6.978,0,0,0,4.3,1.85c3.105.424,6.112-1.785,6.112-1.785l1.6,3.9-5.3,2.469-8.231-1.63.416-3.724,1.1-1.092Z" transform="translate(-332.583 -172.607)" fill="#6876aa"/>
            <path id="Trazado_191987" data-name="Trazado 191987" d="M384.492,241.4a.22.22,0,0,1-.122-.024c-.106-.041-10.44-4.368-20.538-.522a.316.316,0,0,1-.408-.179.313.313,0,0,1,.179-.407c10.342-3.936,20.9.489,21.01.538a.318.318,0,0,1-.122.611Z" transform="translate(-326.046 -179.236)" fill="#fff"/>
            <path id="Trazado_191988" data-name="Trazado 191988" d="M423.713,247.964s-4.287-9.617-4.988-10.31-8.957-3.667-10.089-3.635.595,2.583,1.475,3.309,2.013,1.516,2.013,1.516-6.218-.114-6.813.929,1.051,2.037,1.051,2.037-2.233.147-1.459,1.589,6.846,3.154,6.846,3.154,1.051,6.088,5.134,7.6,6.006,1.141,6.006,1.141l.823-7.335Z" transform="translate(-333.695 -178.381)" fill="#f48462"/>
            <path id="Trazado_191989" data-name="Trazado 191989" d="M423.81,243.709s2.046-7.066,3.089-4.8.35,9.886.35,9.886l-3.024-1.043-.407-4.034Z" transform="translate(-337.223 -179.203)" fill="#f48462"/>
            <rect id="Rectángulo_44078" data-name="Rectángulo 44078" width="11.426" height="20.212" rx="1.95" transform="matrix(-0.998, -0.071, 0.071, -0.998, 74.565, 74.142)" fill="#fff"/>
            <rect id="Rectángulo_44079" data-name="Rectángulo 44079" width="11.426" height="20.212" rx="1.95" transform="matrix(-0.998, -0.071, 0.071, -0.998, 73.325, 74.051)"/>
            <path id="Trazado_191990" data-name="Trazado 191990" d="M390.076,244.064s-4.939-1.573-2.926-3.586,11.361-1.328,11.8,1.589-8.875,2-8.875,2Z" transform="translate(-330.351 -179.363)" fill="#f48462"/>
            <path id="Trazado_191991" data-name="Trazado 191991" d="M389.746,249.3s-4.939-1.573-2.926-3.586,11.361-1.328,11.8,1.589-8.875,2-8.875,2Z" transform="translate(-330.29 -180.333)" fill="#f48462"/>
            <path id="Trazado_191992" data-name="Trazado 191992" d="M392.6,254.076a6.5,6.5,0,0,1-3.235-1.157c-.839-.611-1.451-1.434-.522-2.282,1.858-1.7,10.1-.725,10.367,1.874C399.415,254.451,394.908,254.28,392.6,254.076Z" transform="translate(-330.667 -181.299)" fill="#f48462"/>
            <path id="Trazado_191993" data-name="Trazado 191993" d="M396.615,244.836c-.041,0-7.139-.856-7.139-.856a.375.375,0,0,1-.326-.416.365.365,0,0,1,.416-.326l7.1.856a.375.375,0,0,1,.326.416.37.37,0,0,1-.367.326Z" transform="translate(-330.81 -180.086)"/>
            <path id="Trazado_191994" data-name="Trazado 191994" d="M396.955,250.436c-.041,0-7.139-.856-7.139-.856a.375.375,0,0,1-.326-.416.361.361,0,0,1,.416-.326l7.1.856a.375.375,0,0,1,.326.416.37.37,0,0,1-.367.326Z" transform="translate(-330.872 -181.122)"/>
            <path id="Trazado_191995" data-name="Trazado 191995" d="M418.473,240.75l-4.784-.53a.35.35,0,0,1-.31-.391.346.346,0,0,1,.391-.31l4.743.53a.35.35,0,0,1,.31.391.346.346,0,0,1-.35.31Z" transform="translate(-335.292 -179.398)"/>
            <path id="Trazado_191996" data-name="Trazado 191996" d="M415.154,244.626l-4.588-.326a.348.348,0,0,1-.326-.375.33.33,0,0,1,.375-.326l4.564.326a.348.348,0,0,1,.326.375A.354.354,0,0,1,415.154,244.626Z" transform="translate(-334.712 -180.153)"/>
            <path id="Trazado_191997" data-name="Trazado 191997" d="M425.991,248.279a.358.358,0,0,1-.334-.236l-1.711-4.849a.351.351,0,0,1,.66-.236l1.711,4.849a.354.354,0,0,1-.212.448.3.3,0,0,1-.114.016Z" transform="translate(-337.244 -179.992)"/>
            <path id="Trazado_191998" data-name="Trazado 191998" d="M429.6,242.843a.315.315,0,0,1-.22-.09.32.32,0,0,1,0-.448,49.517,49.517,0,0,1,18.142-10.8.325.325,0,0,1,.4.212.321.321,0,0,1-.212.4,48.842,48.842,0,0,0-17.881,10.644.308.308,0,0,1-.22.09Z" transform="translate(-338.236 -177.914)" fill="#fff"/>
            <path id="Trazado_191999" data-name="Trazado 191999" d="M438.758,236.259a.337.337,0,0,1-.155-.041.323.323,0,0,1-.155-.35c.179-.758,1.866-7.392,4.678-7.229a.841.841,0,0,1,.848.522c.546,1.443-3.684,5.729-5,7.009a.315.315,0,0,1-.22.09Zm4.279-6.984c-1.622,0-2.991,3.382-3.659,5.6,2.233-2.3,4.246-4.849,4-5.485-.033-.081-.171-.106-.285-.114Z" transform="translate(-339.93 -177.385)" fill="#fff"/>
            <path id="Trazado_192000" data-name="Trazado 192000" d="M375.5,238.269a.374.374,0,0,1-.081-.008c-.513-.139-5.02-1.418-5.493-3.211a1.382,1.382,0,0,1,.473-1.394,1.652,1.652,0,0,1,1.524-.513c1.989.383,3.8,4.515,3.879,4.694a.329.329,0,0,1-.049.334.294.294,0,0,1-.236.106Zm-3.9-4.531a1.1,1.1,0,0,0-.766.359c-.407.4-.326.685-.3.782.253.962,2.6,2,4.385,2.567-.66-1.328-1.956-3.464-3.121-3.692a.73.73,0,0,0-.187-.016Z" transform="translate(-327.246 -178.214)" fill="#fff"/>
            <path id="Trazado_192001" data-name="Trazado 192001" d="M382.668,268.693a.315.315,0,0,1-.318-.3.318.318,0,0,1,.3-.334,12.6,12.6,0,0,0,6.569-2.453.322.322,0,0,1,.448.049.315.315,0,0,1-.049.448,13.037,13.037,0,0,1-6.936,2.592h-.016Z" transform="translate(-329.552 -184.212)" fill="#fff"/>
            <path id="Trazado_192002" data-name="Trazado 192002" d="M436.475,269.5c-5.754-.676-7.791-2.241-7.873-2.315a.305.305,0,0,1-.049-.44.322.322,0,0,1,.448-.057c.016.016,2.013,1.524,7.522,2.176a.318.318,0,0,1,.277.35.311.311,0,0,1-.318.277Z" transform="translate(-338.087 -184.413)" fill="#fff"/>
            <path id="Trazado_192003" data-name="Trazado 192003" d="M403.659,209.821a6.788,6.788,0,0,1-5.689-3.089.313.313,0,0,1,.122-.432.317.317,0,0,1,.432.114,6.09,6.09,0,0,0,6.512,2.632.315.315,0,1,1,.114.619,8.109,8.109,0,0,1-1.483.139Z" transform="translate(-332.434 -173.245)" fill="#fff"/>
            <path id="Trazado_192004" data-name="Trazado 192004" d="M406.435,196.313a3.031,3.031,0,0,1-1.972-1.043.318.318,0,0,1-.065-.293.308.308,0,0,1,.212-.212l3.667-1.157a.342.342,0,0,1,.318.073.325.325,0,0,1,.081.318c-.024.081-.628,1.964-1.842,2.266a1.608,1.608,0,0,1-.391.049Zm-1.117-1.108a1.689,1.689,0,0,0,1.361.448c.5-.122.9-.725,1.149-1.239l-2.51.8Z" transform="translate(-333.629 -170.902)"/>
          </g>
          <rect id="Rectángulo_44080" data-name="Rectángulo 44080" width="8.957" height="61.075" transform="translate(448.714 318.584)" fill="#92b4ea"/>
          <path id="Trazado_192005" data-name="Trazado 192005" d="M568.272,447.073H530.7a2.812,2.812,0,1,1,0-5.623h37.571a2.812,2.812,0,0,1,0,5.623Z" transform="translate(-96.217 -63.755)" fill="#92b4ea"/>
          <path id="Trazado_192006" data-name="Trazado 192006" d="M534.761,452.265a6.055,6.055,0,1,1-6.055-6.055A6.059,6.059,0,0,1,534.761,452.265Z" transform="translate(-95.247 -64.636)" fill="#92b4ea"/>
          <path id="Trazado_192007" data-name="Trazado 192007" d="M558.971,452.265a6.055,6.055,0,1,1-6.055-6.055A6.059,6.059,0,0,1,558.971,452.265Z" transform="translate(-99.727 -64.636)" fill="#92b4ea"/>
          <path id="Trazado_192008" data-name="Trazado 192008" d="M583.071,452.265a6.055,6.055,0,1,1-6.055-6.055A6.059,6.059,0,0,1,583.071,452.265Z" transform="translate(-104.186 -64.636)" fill="#92b4ea"/>
          <path id="Trazado_192009" data-name="Trazado 192009" d="M571.933,299.05s18.965,11.345,14.751,36.226c-4.849,28.63-33.4,37.913-58.157,31.149s-20.635-26.267-20.635-26.267l64.041-41.1Z" transform="translate(-92.469 -37.409)" fill="#5c69a5"/>
          <path id="Trazado_192010" data-name="Trazado 192010" d="M591.077,358.826a.317.317,0,0,1-.236-.106.313.313,0,0,1,.016-.448c6.137-5.672,7.319-16.821,7.327-16.927a.32.32,0,0,1,.636.065c-.049.465-1.223,11.491-7.53,17.335A.3.3,0,0,1,591.077,358.826Z" transform="translate(-107.848 -45.181)" fill="#d2f2fa"/>
          <path id="Trazado_192011" data-name="Trazado 192011" d="M540.126,257.308s-12.917,1.141-17.767,7.384,1.557,45.337,1.907,45.883,9.34,4.531,25.028,4.181,19.494-3.341,20.016-4.181,3.814-44.987,0-48.72-19.723-5.68-29.176-4.539Z" transform="translate(-94.859 -29.627)" fill="#92b4ea"/>
          <path id="Trazado_192012" data-name="Trazado 192012" d="M523.28,417.189v16.642l12.665,4.792,7.987-8.957,1.312-15.387Z" transform="translate(-95.364 -58.728)" fill="#f48462"/>
          <path id="Trazado_192013" data-name="Trazado 192013" d="M575.212,349.29c.962,3.105-6.308,8.117-16.243,11.206s-18.769,3.081-19.739-.024,6.308-8.117,16.243-11.206S574.242,346.185,575.212,349.29Z" transform="translate(-98.299 -46.272)" fill="#465884"/>
          <path id="Trazado_192014" data-name="Trazado 192014" d="M494.18,412.959V429.6l13.5,4.792,8.508-8.957,1.4-15.387Z" transform="translate(-89.98 -57.946)" fill="#f48462"/>
          <path id="Trazado_192015" data-name="Trazado 192015" d="M519.477,319.02s-32.273,16.234-36.234,22.836.4,60.349.4,60.349l28.614.383,3.961-30.04,21.752-50.6-18.5-2.926Z" transform="translate(-87.649 -41.104)" fill="#feca2e"/>
          <path id="Trazado_192016" data-name="Trazado 192016" d="M565.128,322.966s1.3,14.425.839,19.16-15.4,15.884-15.4,15.884l-.742,46.169-33.088,1.475s-.717-52.762-.171-57.733,24.213-26.031,24.213-26.031l24.344,1.068Z" transform="translate(-94.083 -41.635)" fill="#feca2e"/>
          <path id="Trazado_192017" data-name="Trazado 192017" d="M551.372,249.11l-.187,8.4s-1.573,2.38-6.5,2.673c-3.667.22-4.939-.644-4.939-.644l.6-4.246.595-4.14,8.916-1.752,1.5-.293Z" transform="translate(-98.411 -28.169)" fill="#f48462"/>
          <path id="Trazado_192018" data-name="Trazado 192018" d="M550.011,249.47a2.859,2.859,0,0,1-.261.807c-1.972,4.156-7.131,4.947-9.25,5.085l.595-4.14,8.916-1.752Z" transform="translate(-98.55 -28.236)"/>
          <path id="Trazado_192019" data-name="Trazado 192019" d="M538.684,227.386s-4.645,10.44-3.032,16.332,6.976,5,10.187,3.887a10.606,10.606,0,0,0,4.711-3.072,4.524,4.524,0,0,0,5.012-1.736c2.021-2.771.807-5.974-.9-6.724s-3.749.473-3.749.473l1.614-3.032s-6.6-15.5-13.847-6.129Z" transform="translate(-97.59 -23.593)" fill="#f48462"/>
          <path id="Trazado_192020" data-name="Trazado 192020" d="M539.822,243.256a.316.316,0,0,1-.3-.22c-.693-2.233.88-4.5.945-4.6a.315.315,0,0,1,.513.367c-.016.024-1.459,2.111-.864,4.042a.321.321,0,0,1-.212.4.41.41,0,0,1-.1.016Z" transform="translate(-98.336 -26.17)"/>
          <path id="Trazado_192021" data-name="Trazado 192021" d="M554.937,244.491a.3.3,0,0,1-.22-.09.32.32,0,0,1-.016-.448l2.844-3.015a.328.328,0,0,1,.448-.016.32.32,0,0,1,.016.448l-2.844,3.015a.322.322,0,0,1-.228.1Z" transform="translate(-101.162 -26.639)"/>
          <path id="Trazado_192022" data-name="Trazado 192022" d="M558.181,244.118c-.049,0-2.013-.3-2.013-.3a.32.32,0,0,1-.269-.359.315.315,0,0,1,.359-.269l1.964.3a.32.32,0,0,1,.269.359A.315.315,0,0,1,558.181,244.118Z" transform="translate(-101.398 -27.073)"/>
          <path id="Trazado_192023" data-name="Trazado 192023" d="M545.678,238.993a.331.331,0,0,1-.318-.359l.253-1.948a.316.316,0,0,1,.628.073l-.253,1.948a.317.317,0,0,1-.318.277Z" transform="translate(-99.449 -25.819)"/>
          <path id="Trazado_192024" data-name="Trazado 192024" d="M538.579,238.423a.32.32,0,0,1-.31-.367l.285-1.948a.317.317,0,1,1,.628.09l-.285,1.948a.315.315,0,0,1-.31.269Z" transform="translate(-98.136 -25.713)"/>
          <path id="Trazado_192025" data-name="Trazado 192025" d="M546.822,234.869a.309.309,0,0,1-.277-.163c-.513-.929-1.826-.619-1.834-.611a.315.315,0,0,1-.383-.228.319.319,0,0,1,.228-.383,2.338,2.338,0,0,1,2.543.921.327.327,0,0,1-.122.432.337.337,0,0,1-.155.041Z" transform="translate(-99.257 -25.265)"/>
          <path id="Trazado_192026" data-name="Trazado 192026" d="M538.058,233.934a.351.351,0,0,1-.2-.065.312.312,0,0,1-.057-.44,2.125,2.125,0,0,1,1.312-.791,1.467,1.467,0,0,1,1.141.4.318.318,0,0,1-.416.481.906.906,0,0,0-.66-.253,1.493,1.493,0,0,0-.872.546A.316.316,0,0,1,538.058,233.934Z" transform="translate(-98.039 -25.12)"/>
          <path id="Trazado_192027" data-name="Trazado 192027" d="M550.24,236.435a5.217,5.217,0,0,1-2.975-2.755c-.978-2.037.334-4.67.334-4.67s-1.312-2.665-5.607-3.39A3.333,3.333,0,0,0,539,226.729l-.5,1.076c-.839-.041-2.135-6.218-.978-7.245,2.258-1.989,8,1.451,8,1.451s7.1-1.671,11.247,3.382-.5,10.994-.5,10.994-1.231-2.6-6.031.057Z" transform="translate(-97.915 -22.772)"/>
          <path id="Trazado_192028" data-name="Trazado 192028" d="M542.794,248.142a2.67,2.67,0,0,1-1.687-.668.328.328,0,0,1-.1-.293.338.338,0,0,1,.2-.236l2.714-1.019a.317.317,0,0,1,.244.008.335.335,0,0,1,.163.187,1.774,1.774,0,0,1-.073,1.263,1.354,1.354,0,0,1-.848.66,2.109,2.109,0,0,1-.619.09Zm-.774-.823a1.659,1.659,0,0,0,1.214.122.7.7,0,0,0,.465-.342.961.961,0,0,0,.09-.448l-1.768.66Z" transform="translate(-98.643 -27.576)"/>
          <path id="Trazado_192029" data-name="Trazado 192029" d="M470.946,282.206l-.293-1.874s-7.2-5.477-11.622-7.286c-1.866-.758-4.474-.13-2.274,2.339a10.427,10.427,0,0,1,1.785,2.909,28.656,28.656,0,0,1-6-2.738c-1.565-1.035-3.847-5.2-5.183-4.295-2.127,1.434.318,5.493.318,5.493s-1.108-5.143-3.211-3.138,3.627,12.111,6.349,14.523,17.1,5.224,17.1,5.224l3.032-11.157Z" transform="translate(-80.699 -32.244)" fill="#f48462"/>
          <path id="Trazado_192030" data-name="Trazado 192030" d="M456.962,281.761c-3.374-.334-6.422-3.162-6.544-3.284a.32.32,0,0,1-.016-.448.328.328,0,0,1,.448-.016c.033.024,3.015,2.8,6.145,3.113a.319.319,0,0,1-.033.636Z" transform="translate(-81.864 -33.501)"/>
          <path id="Trazado_192031" data-name="Trazado 192031" d="M453.146,284.479a.327.327,0,0,1-.187-.065l-3.007-2.249a.315.315,0,0,1,.375-.505l2.836,2.127,6.121-3.716a.314.314,0,0,1,.326.538L453.3,284.43a.294.294,0,0,1-.163.049Z" transform="translate(-81.773 -33.889)"/>
          <path id="Trazado_192032" data-name="Trazado 192032" d="M467.376,284.364a.287.287,0,0,1-.1-.016,14.392,14.392,0,0,1-5.966-3.8.321.321,0,0,1,.033-.448.313.313,0,0,1,.448.033,13.941,13.941,0,0,0,5.68,3.61.307.307,0,0,1,.2.4A.313.313,0,0,1,467.376,284.364Z" transform="translate(-83.885 -33.888)"/>
          <path id="Trazado_192033" data-name="Trazado 192033" d="M514.159,264.4s-14.645,12.942-26.463,13.7c-5.7.367-13.349-2.355-13.349-2.355l-6.8,17.775s23.887,22.632,48.222,4.8c6.993-5.126-1.614-33.911-1.614-33.911Z" transform="translate(-85.053 -30.998)" fill="#92b4ea"/>
          <path id="Trazado_192034" data-name="Trazado 192034" d="M522.548,288.446a.318.318,0,0,1-.318-.318c0-2.233,3.773-13.667,3.928-14.148a.32.32,0,0,1,.4-.2.327.327,0,0,1,.2.4c-.041.114-3.9,11.825-3.9,13.952a.318.318,0,0,1-.318.318Z" transform="translate(-95.17 -32.73)" fill="#e6f4ff"/>
          <path id="Trazado_192035" data-name="Trazado 192035" d="M512.387,451.182s-.595-26.748-4.751-26.194-8.313,4.458-8.313,4.458-9.5-5.012-13.659-2.233-6.544,8.916-6.544,8.916l-23.145,15.045s-2.8,4.458-2,6.691c.628,1.736,35.835.766,51.27.253a7.155,7.155,0,0,0,7.131-6.935h0Z" transform="translate(-82.515 -60.708)" fill="#8e657d"/>
          <path id="Trazado_192036" data-name="Trazado 192036" d="M509.03,445.26s5.8-14.205,9.552-16.658,13.121,5.33,13.121,5.33,7.848-8.264,9.78-3.928,2.869,19.861,1.4,23.292-12.233,9.136-26.381,9.1c-6.667-.016-16.283-2.078-16.283-4.368-.008-3.6,6.536-10.391,8.81-12.763Z" transform="translate(-91.097 -61.29)" fill="#0f2771"/>
          <path id="Trazado_192037" data-name="Trazado 192037" d="M528.953,443.366H518.1a.318.318,0,0,1-.318-.318.313.313,0,0,1,.318-.318h10.856a.318.318,0,0,1,.318.318A.313.313,0,0,1,528.953,443.366Z" transform="translate(-94.346 -63.992)" fill="#fff"/>
          <path id="Trazado_192038" data-name="Trazado 192038" d="M543.021,263.3l-4.751,31.491h3.936l3.5-32.143Z" transform="translate(-98.137 -30.674)" fill="#a2c5f9"/>
          <path id="Trazado_192039" data-name="Trazado 192039" d="M.856,0H4.5a.856.856,0,0,1,.856.856V20.717a.856.856,0,0,1-.856.856H.856A.856.856,0,0,1,0,20.717V.856A.856.856,0,0,1,.856,0Z" transform="translate(388.858 243.727) rotate(18.45)" fill="#e6f4ff"/>
          <path id="Trazado_192040" data-name="Trazado 192040" d="M527.4,449.386H515.9a.318.318,0,0,1-.318-.318.313.313,0,0,1,.318-.318h11.5a.318.318,0,0,1,.318.318A.313.313,0,0,1,527.4,449.386Z" transform="translate(-93.939 -65.106)" fill="#fff"/>
          <path id="Trazado_192041" data-name="Trazado 192041" d="M490.248,441.1c-.041,0-6.96-.945-6.96-.945a.315.315,0,0,1-.269-.359.3.3,0,0,1,.359-.269l6.919.945a.315.315,0,0,1,.269.359.322.322,0,0,1-.31.277Z" transform="translate(-87.914 -63.398)" fill="#fff"/>
          <path id="Trazado_192042" data-name="Trazado 192042" d="M487.045,446.784c-.049,0-11.687-1.777-11.687-1.777a.317.317,0,0,1,.09-.628l11.646,1.769a.315.315,0,0,1-.041.628Z" transform="translate(-86.447 -64.297)" fill="#fff"/>
          <path id="Trazado_192043" data-name="Trazado 192043" d="M514.842,402.8a.322.322,0,0,1-.318-.31c-.049-2.013-1.222-49.339,0-55.134.791-3.749,11.043-14.067,13.146-16.145l-8.451-3.105a.314.314,0,0,1-.187-.408.321.321,0,0,1,.408-.187l8.924,3.276a.336.336,0,0,1,.2.228.3.3,0,0,1-.09.293c-.122.122-12.5,12.282-13.325,16.177-1.206,5.721,0,54.49,0,54.987a.324.324,0,0,1-.31.326h0Z" transform="translate(-93.641 -42.672)" fill="#40507f"/>
          <path id="Trazado_192044" data-name="Trazado 192044" d="M545.35,312.643s-7.767,3.138-9.3,2.926-7.066-.831-7.286-2l2.078-3.561s-3.1,1.3-5.191.212-4.613-3.268-5.118-4.939,1.9-1.337,1.9-1.337-2.73-1.7.742-3.154,18.459-3.619,24.71.3-2.526,11.548-2.526,11.548Z" transform="translate(-94.842 -37.376)" fill="#f48462"/>
          <path id="Trazado_192045" data-name="Trazado 192045" d="M522.818,305.169a.324.324,0,0,1-.3-.212.316.316,0,0,1,.2-.4,18.994,18.994,0,0,1,7.783-.725.32.32,0,0,1,.269.359.315.315,0,0,1-.359.269,18.6,18.6,0,0,0-7.49.693.408.408,0,0,1-.1.016Z" transform="translate(-95.219 -38.271)"/>
          <path id="Trazado_192046" data-name="Trazado 192046" d="M556.609,368.024a.337.337,0,0,1-.155-.041c-.652-.367-6.324-3.618-6.1-5.664.065-.562.5-.97,1.3-1.214a2.866,2.866,0,0,1,2.535.326c2.241,1.5,2.706,6.055,2.722,6.243a.307.307,0,0,1-.31.342Zm-3.969-6.438a2.842,2.842,0,0,0-.8.122c-.538.163-.823.391-.856.676-.122,1.141,2.934,3.366,5.216,4.719-.2-1.271-.823-4.124-2.363-5.151a2.089,2.089,0,0,0-1.206-.375Z" transform="translate(-100.373 -48.862)" fill="#40507f"/>
          <path id="Trazado_192047" data-name="Trazado 192047" d="M573.772,262.95s22.371,24.352,18.728,40.2-47.791,5.493-47.791,5.493l.481-18.525,22.95-3.594Z" transform="translate(-99.329 -30.73)" fill="#92b4ea"/>
          <path id="Trazado_192048" data-name="Trazado 192048" d="M581.161,292.5a46.86,46.86,0,0,1-6.952-.742.331.331,0,0,1-.261-.261.3.3,0,0,1,.163-.326c.277-.147,6.87-3.6,9.609-.66.44.473.571.9.375,1.263-.293.546-1.475.734-2.942.734Zm-5.843-1.2c3.855.6,7.865.831,8.231.163.033-.065-.016-.245-.277-.53-1.858-2-6.1-.456-7.954.367Z" transform="translate(-104.737 -35.61)" fill="#e6f4ff"/>
          <path id="Trazado_192049" data-name="Trazado 192049" d="M574.017,290.682a.293.293,0,0,1-.179-.057c-2.437-1.687-.554-6.7-.473-6.911a.315.315,0,0,1,.587.228c-.016.049-1.785,4.768.244,6.169a.315.315,0,0,1,.081.44.325.325,0,0,1-.261.139Z" transform="translate(-104.488 -34.534)" fill="#e6f4ff"/>
          <path id="Trazado_192050" data-name="Trazado 192050" d="M524.758,414.217a.315.315,0,0,1-.318-.3.318.318,0,0,1,.3-.334l26.014-1.361a.335.335,0,0,1,.334.3.319.319,0,0,1-.3.334l-26.014,1.361h-.016Z" transform="translate(-95.578 -58.347)" fill="#40507f"/>
          <path id="Trazado_192051" data-name="Trazado 192051" d="M509.539,412.856H486.328a.318.318,0,0,1-.318-.318.313.313,0,0,1,.318-.318h23.211a.318.318,0,0,1,.318.318A.313.313,0,0,1,509.539,412.856Z" transform="translate(-88.468 -58.347)" fill="#40507f"/>
          <rect id="Rectángulo_44081" data-name="Rectángulo 44081" width="5.363" height="21.581" rx="1.05" transform="translate(444.884 257.558)" fill="#e6f4ff"/>
          <path id="Trazado_192052" data-name="Trazado 192052" d="M539.865,257.835s-2.673,8.973-1.777,8.8,6.259-4.988,6.259-4.988,3.9,4.955,5.183,4.988,1.728-9.617,1.728-9.617-1.32,3.024-6.055,3.7-5.338-2.877-5.338-2.877Z" transform="translate(-98.07 -29.632)" fill="#e6f4ff"/>
          <path id="Trazado_192053" data-name="Trazado 192053" d="M39.48,320.94H50.1V444.907a3.982,3.982,0,0,1-3.977,3.977H43.465a3.982,3.982,0,0,1-3.977-3.977V320.94h0Z" transform="translate(-5.852 -41.459)" fill="#40507f"/>
          <path id="Trazado_192054" data-name="Trazado 192054" d="M414.55,321.06h10.619V445.027A3.983,3.983,0,0,1,421.192,449h-2.657a3.983,3.983,0,0,1-3.977-3.977V321.06h0Z" transform="translate(-75.247 -41.481)" fill="#40507f"/>
          <path id="Trazado_192055" data-name="Trazado 192055" d="M479.185,320.65H27a2.95,2.95,0,1,1,0-5.9H479.185a2.95,2.95,0,0,1,0,5.9Z" transform="translate(-2.997 -40.314)" fill="#40507f"/>
          <path id="Trazado_192056" data-name="Trazado 192056" d="M542.7,221.336s-2.037-3.643,1.532-4.295,7.05,2.755,7.05,2.755a1.807,1.807,0,0,1,2.388-1.222c1.907.57,6.194,5.118,4.857,7.457s-9.8-2.192-9.8-2.192l-6.031-2.51Z" transform="translate(-98.85 -22.22)"/>
          <path id="Trazado_192057" data-name="Trazado 192057" d="M518.855,305.293h-40L467.43,279.45h38.426a2.42,2.42,0,0,1,2.217,1.443l10.79,24.4Z" transform="translate(-85.031 -33.782)" fill="#fff"/>
          <path id="Trazado_192058" data-name="Trazado 192058" d="M514.826,305.293h-40l-10.2-23.064a1.979,1.979,0,0,1,1.809-2.779H503.4Z" transform="translate(-84.481 -33.782)" fill="#6876aa"/>
          <path id="Trazado_192059" data-name="Trazado 192059" d="M533.788,314.43H477.31a1.63,1.63,0,1,1,0-3.26h56.478a1.63,1.63,0,0,1,0,3.26Z" transform="translate(-86.557 -39.651)"/>
          <path id="Trazado_192060" data-name="Trazado 192060" d="M497.987,294.538a3.4,3.4,0,1,1-3.4-3.4A3.4,3.4,0,0,1,497.987,294.538Z" transform="translate(-89.427 -35.945)" fill="#fff"/>
          <path id="Trazado_192061" data-name="Trazado 192061" d="M199.421,204.3s-.986.179-1.051.807,4.572,10.929,7.636,11.654,4.7-8.81,4.857-8.663,5.827,3.733,6.389,3.561-2.266-4.58-3.969-6.259a15.971,15.971,0,0,0-2.738-2.282s.35,2.176.375,2.641-1.76,1.646-5.094,1.361c-4.768-.408-6.406-2.812-6.406-2.812Z" transform="translate(-35.249 -19.66)" fill="#feca2e"/>
          <rect id="Rectángulo_44082" data-name="Rectángulo 44082" width="21.271" height="6.398" rx="1.12" transform="matrix(0.552, 0.834, -0.834, 0.552, 192.576, 220.383)" fill="#feca2e"/>
          <rect id="Rectángulo_44083" data-name="Rectángulo 44083" width="21.271" height="6.398" rx="1.12" transform="matrix(0.552, 0.834, -0.834, 0.552, 226.901, 180.277)" fill="#feca2e"/>
          <path id="Trazado_192062" data-name="Trazado 192062" d="M225.849,433.43a.3.3,0,0,1-.3-.236.314.314,0,0,1,.22-.391l7.066-1.956a.308.308,0,0,1,.391.22.314.314,0,0,1-.22.391l-7.066,1.956a.46.46,0,0,1-.082.016Z" transform="translate(-40.276 -61.791)" fill="#fff"/>
          <path id="Trazado_192063" data-name="Trazado 192063" d="M146.964,441.05a.328.328,0,0,1-.31-.244.318.318,0,0,1,.236-.383l5.786-1.41-9.389-1.328a.32.32,0,0,1-.269-.293.317.317,0,0,1,.236-.326l11.027-2.918a.316.316,0,1,1,.163.611l-9.511,2.518,9.47,1.337a.32.32,0,0,1,.269.293.324.324,0,0,1-.244.326l-7.392,1.8a.637.637,0,0,1-.073.008Z" transform="translate(-25.009 -62.402)" fill="#f7b369"/>
          <path id="Trazado_192064" data-name="Trazado 192064" d="M190.66,439.886a.326.326,0,0,1-.269-.147.338.338,0,0,1,0-.35l2.2-3.219-9.91,1a.323.323,0,0,1-.326-.2.33.33,0,0,1,.1-.367l6.642-5.175a.319.319,0,1,1,.391.505l-5.778,4.507,9.495-.962a.321.321,0,0,1,.293.5l-2.168,3.178L198.712,438a.3.3,0,0,1,.359.261.314.314,0,0,1-.261.359l-8.109,1.271h-.049Z" transform="translate(-32.283 -61.89)" fill="#f7b369"/>
          <path id="Trazado_192065" data-name="Trazado 192065" d="M207.586,184.187a.308.308,0,0,1-.31-.261l-.367-2.111a.313.313,0,0,1,.1-.285l1.141-1.059a.317.317,0,0,1,.432.465l-1.019.937.334,1.94a.32.32,0,0,1-.261.367h-.057Z" transform="translate(-36.829 -15.453)"/>
          <path id="Trazado_192066" data-name="Trazado 192066" d="M214.365,182.945a.308.308,0,0,1-.31-.261l-.367-2.111a.314.314,0,0,1,.09-.277l.864-.848a.317.317,0,0,1,.448.448l-.75.733.334,1.948a.32.32,0,0,1-.261.367h-.057Z" transform="translate(-38.083 -15.264)"/>
          <path id="Trazado_192067" data-name="Trazado 192067" d="M238.342,236.342a.315.315,0,0,1-.318-.326c.473-14.083-6.055-17.97-6.121-18.011a.317.317,0,0,1,.31-.554c.285.163,6.935,4.075,6.438,18.582a.317.317,0,0,1-.318.31Z" transform="translate(-41.424 -22.304)" fill="#feca2e"/>
          <path id="Trazado_192068" data-name="Trazado 192068" d="M218.239,251.563l-14.621-.057a.324.324,0,0,1-.318-.318.318.318,0,0,1,.318-.318l14.621.057a.324.324,0,0,1,.318.318A.318.318,0,0,1,218.239,251.563Z" transform="translate(-36.162 -28.495)" fill="#feca2e"/>
          <path id="Trazado_192069" data-name="Trazado 192069" d="M228.108,304.657a.318.318,0,0,1-.318-.318V292.71a.3.3,0,0,1,.171-.277l7.066-3.651a.305.305,0,0,1,.424.139.312.312,0,0,1-.139.424l-6.895,3.561v11.442a.318.318,0,0,1-.318.318Z" transform="translate(-40.693 -35.502)" fill="#fff"/>
        </g>
      </g>
    </g>
  </g>
</svg>
