<svg xmlns="http://www.w3.org/2000/svg" width="293.5" height="239.399" viewBox="0 0 293.5 239.399">
  <g id="Grupo_222385" data-name="Grupo 222385" transform="translate(-180.75 -5704)">
    <g id="Grupo_222384" data-name="Grupo 222384">
      <g id="Grupo_222383" data-name="Grupo 222383">
        <g id="Grupo_222382" data-name="Grupo 222382">
          <g id="Grupo_222381" data-name="Grupo 222381">
            <g id="Grupo_222380" data-name="Grupo 222380">
              <g id="Grupo_222379" data-name="Grupo 222379">
                <g id="Grupo_222378" data-name="Grupo 222378">
                  <g id="Grupo_222377" data-name="Grupo 222377">
                    <g id="Grupo_148871" data-name="Grupo 148871" transform="translate(-0.75 5285.551)">
                      <g id="Grupo_109112" data-name="Grupo 109112" transform="translate(181.5 418.449)">
                        <g id="Grupo_108538" data-name="Grupo 108538" transform="translate(0 0)">
                          <rect id="Rectángulo_40278" data-name="Rectángulo 40278" width="293.5" height="239" fill="#bddcf6"/>
                          <path id="Trazado_196926" data-name="Trazado 196926" d="M2313.323-585.211s-41.777-15.661-81.4,18.488-33.672,82.474-33.672,82.474-44.469,8.783-51.593,54.347,7.278,60.953,7.278,60.953l248.212.58s38.666-125.574-1.852-184.738S2313.323-585.211,2313.323-585.211Z" transform="translate(-2133.296 607.768)" fill="#fff" opacity="0.24"/>
                        </g>
                      </g>
                    </g>
                    <g id="Grupo_218364" data-name="Grupo 218364" transform="translate(285.751 5753.547)">
                      <g id="Grupo_218248" data-name="Grupo 218248" transform="translate(24.28)">
                        <g id="Grupo_218247" data-name="Grupo 218247">
                          <g id="Grupo_218246" data-name="Grupo 218246">
                            <g id="Grupo_218245" data-name="Grupo 218245">
                              <g id="Grupo_218244" data-name="Grupo 218244">
                                <g id="Grupo_218243" data-name="Grupo 218243">
                                  <g id="Grupo_218242" data-name="Grupo 218242">
                                    <g id="Grupo_218241" data-name="Grupo 218241">
                                      <g id="Grupo_218240" data-name="Grupo 218240">
                                        <path id="Trazado_224033" data-name="Trazado 224033" d="M237.568,128.821c-3.056-2.341-3.417-7.176-1.362-10.431s5.96-5,9.8-5.274a17.713,17.713,0,0,1,14.759,6.379c1.9,2.335,3.345,5.291,6.09,6.527,2.413,1.086,5.237.546,7.821,1.116,3.465.763,6.249,3.519,7.778,6.721a25.7,25.7,0,0,1,2.063,10.361c.1,3.254.037,6.811,2.064,9.359,1.977,2.484,5.377,3.274,7.943,5.143a11.448,11.448,0,0,1,2.014,15.875c-1.211,1.47-2.877,2.769-3.168,4.652-.266,1.719.715,3.356,1.093,5.053.972,4.37-2.954,9.114-7.428,8.977-2.259-.069-4.59-1.157-6.694-.33s-3.047,3.169-4.489,4.891a9.663,9.663,0,0,1-12,2c-1.582-.957-3.025-2.433-4.873-2.471s-3.426,1.4-5.26,1.59c-2.4.248-4.491-1.689-5.724-3.766s-2.007-4.464-3.664-6.222c-2.169-2.3-5.43-3.11-8.318-4.4a24.461,24.461,0,0,1-10.75-35.348" transform="translate(-221.538 -113.075)" fill="#263238"/>
                                      </g>
                                    </g>
                                  </g>
                                </g>
                              </g>
                            </g>
                          </g>
                        </g>
                      </g>
                      <g id="Grupo_218257" data-name="Grupo 218257" transform="translate(69.202 59.482)">
                        <g id="Grupo_218256" data-name="Grupo 218256">
                          <g id="Grupo_218255" data-name="Grupo 218255">
                            <g id="Grupo_218254" data-name="Grupo 218254">
                              <g id="Grupo_218253" data-name="Grupo 218253">
                                <g id="Grupo_218252" data-name="Grupo 218252">
                                  <g id="Grupo_218251" data-name="Grupo 218251">
                                    <g id="Grupo_218250" data-name="Grupo 218250">
                                      <g id="Grupo_218249" data-name="Grupo 218249">
                                        <path id="Trazado_224034" data-name="Trazado 224034" d="M309.053,228.414a6.639,6.639,0,0,1,2.779-1.5l-.2-.03a3.875,3.875,0,0,1,.571-.046,2.623,2.623,0,0,1,2.031.435l-.019,0a4.88,4.88,0,0,1,2.454,2.548,5.775,5.775,0,0,1-1.2,5.867,4.413,4.413,0,0,1-7.934-2.221A5.48,5.48,0,0,1,309.053,228.414Z" transform="translate(-307.429 -226.802)" fill="#455a64"/>
                                      </g>
                                    </g>
                                  </g>
                                </g>
                              </g>
                            </g>
                          </g>
                        </g>
                      </g>
                      <g id="Grupo_218298" data-name="Grupo 218298" transform="translate(23.196 18.665)">
                        <path id="Trazado_224035" data-name="Trazado 224035" d="M272.141,169.151c-.031-9.2-5.431-20.8-14.617-20.378l-28.935,5.506a5.381,5.381,0,0,0-5.131,5.162L219.466,237l32.75-.175c.4-5.546,1.862-21.172,1.862-21.12,0,0,12.741-1.211,16.076-16.339C271.814,191.843,272.175,179.368,272.141,169.151Z" transform="translate(-219.466 -148.762)" fill="#ffbf9d"/>
                        <g id="Grupo_218261" data-name="Grupo 218261" transform="translate(41.889 31.025)">
                          <g id="Grupo_218260" data-name="Grupo 218260">
                            <g id="Grupo_218259" data-name="Grupo 218259">
                              <g id="Grupo_218258" data-name="Grupo 218258">
                                <path id="Trazado_224036" data-name="Trazado 224036" d="M303.478,209.969a1.961,1.961,0,0,1-2.006,1.863,1.877,1.877,0,0,1-1.914-1.887,1.962,1.962,0,0,1,2-1.864A1.878,1.878,0,0,1,303.478,209.969Z" transform="translate(-299.557 -208.081)" fill="#263238"/>
                              </g>
                            </g>
                          </g>
                        </g>
                        <g id="Grupo_218265" data-name="Grupo 218265" transform="translate(41.871 23.372)">
                          <g id="Grupo_218264" data-name="Grupo 218264">
                            <g id="Grupo_218263" data-name="Grupo 218263">
                              <g id="Grupo_218262" data-name="Grupo 218262">
                                <path id="Trazado_224037" data-name="Trazado 224037" d="M307.257,195.746c-.258.241-1.676-.946-3.784-1.066-2.1-.15-3.715.842-3.928.571-.106-.121.169-.567.872-1.018a5.385,5.385,0,0,1,3.164-.772,5.173,5.173,0,0,1,2.993,1.167C307.191,195.163,307.383,195.638,307.257,195.746Z" transform="translate(-299.522 -193.449)" fill="#263238"/>
                              </g>
                            </g>
                          </g>
                        </g>
                        <g id="Grupo_218269" data-name="Grupo 218269" transform="translate(22.931 29.721)">
                          <g id="Grupo_218268" data-name="Grupo 218268">
                            <g id="Grupo_218267" data-name="Grupo 218267">
                              <g id="Grupo_218266" data-name="Grupo 218266">
                                <path id="Trazado_224038" data-name="Trazado 224038" d="M267.23,207.476a1.962,1.962,0,0,1-2.006,1.864,1.876,1.876,0,0,1-1.913-1.886,1.963,1.963,0,0,1,2-1.865A1.877,1.877,0,0,1,267.23,207.476Z" transform="translate(-263.31 -205.588)" fill="#263238"/>
                              </g>
                            </g>
                          </g>
                        </g>
                        <g id="Grupo_218273" data-name="Grupo 218273" transform="translate(21.13 22.53)">
                          <g id="Grupo_218272" data-name="Grupo 218272">
                            <g id="Grupo_218271" data-name="Grupo 218271">
                              <g id="Grupo_218270" data-name="Grupo 218270">
                                <path id="Trazado_224039" data-name="Trazado 224039" d="M267.6,194.136c-.259.241-1.679-.946-3.786-1.066-2.1-.15-3.715.842-3.928.57-.105-.121.167-.567.872-1.017a5.388,5.388,0,0,1,3.164-.773,5.179,5.179,0,0,1,2.993,1.167C267.534,193.554,267.728,194.028,267.6,194.136Z" transform="translate(-259.866 -191.839)" fill="#263238"/>
                              </g>
                            </g>
                          </g>
                        </g>
                        <g id="Grupo_218277" data-name="Grupo 218277" transform="translate(35.582 23.295)">
                          <g id="Grupo_218276" data-name="Grupo 218276">
                            <g id="Grupo_218275" data-name="Grupo 218275">
                              <g id="Grupo_218274" data-name="Grupo 218274">
                                <path id="Trazado_224040" data-name="Trazado 224040" d="M287.5,210.92a13.957,13.957,0,0,1,3.46-.414c.541-.024,1.057-.1,1.169-.462a2.74,2.74,0,0,0-.264-1.617q-.643-2-1.347-4.193c-1.862-5.966-3.176-10.859-2.936-10.932s1.947,4.7,3.809,10.671q.668,2.205,1.279,4.213a3.118,3.118,0,0,1,.153,2.129,1.353,1.353,0,0,1-.932.734,3.629,3.629,0,0,1-.922.073A13.759,13.759,0,0,1,287.5,210.92Z" transform="translate(-287.498 -193.301)" fill="#263238"/>
                              </g>
                            </g>
                          </g>
                        </g>
                        <g id="Grupo_218281" data-name="Grupo 218281" transform="translate(15.536 60.098)">
                          <g id="Grupo_218280" data-name="Grupo 218280">
                            <g id="Grupo_218279" data-name="Grupo 218279">
                              <g id="Grupo_218278" data-name="Grupo 218278">
                                <path id="Trazado_224041" data-name="Trazado 224041" d="M268.377,270.31a36.724,36.724,0,0,1-19.207-6.641s3.411,11.72,18.78,11.2Z" transform="translate(-249.17 -263.669)" fill="#ff9a6c"/>
                              </g>
                            </g>
                          </g>
                        </g>
                        <g id="Grupo_218285" data-name="Grupo 218285" transform="translate(27.413 43.386)">
                          <g id="Grupo_218284" data-name="Grupo 218284">
                            <g id="Grupo_218283" data-name="Grupo 218283">
                              <g id="Grupo_218282" data-name="Grupo 218282">
                                <path id="Trazado_224042" data-name="Trazado 224042" d="M279.437,234.234a5.2,5.2,0,0,0-4.134-2.519,3.382,3.382,0,0,0-2.863,1.343,3.1,3.1,0,0,0,3.195,4.843,7.7,7.7,0,0,0,3.218-1.734,2.406,2.406,0,0,0,.714-.749,1.077,1.077,0,0,0-.019-1.074" transform="translate(-271.878 -231.714)" fill="#ff9a6c"/>
                              </g>
                            </g>
                          </g>
                        </g>
                        <g id="Grupo_218289" data-name="Grupo 218289" transform="translate(28.876 42)">
                          <g id="Grupo_218288" data-name="Grupo 218288">
                            <g id="Grupo_218287" data-name="Grupo 218287">
                              <g id="Grupo_218286" data-name="Grupo 218286">
                                <path id="Trazado_224043" data-name="Trazado 224043" d="M275.093,229.066c.344,0,.212,2.288,2.074,4.029s4.311,1.634,4.31,1.955c.024.145-.57.412-1.6.378a5.7,5.7,0,0,1-3.606-1.5,4.97,4.97,0,0,1-1.592-3.369C274.649,229.6,274.938,229.044,275.093,229.066Z" transform="translate(-274.677 -229.066)" fill="#263238"/>
                              </g>
                            </g>
                          </g>
                        </g>
                        <g id="Grupo_218293" data-name="Grupo 218293" transform="translate(20.64 14.368)">
                          <g id="Grupo_218292" data-name="Grupo 218292">
                            <g id="Grupo_218291" data-name="Grupo 218291">
                              <g id="Grupo_218290" data-name="Grupo 218290">
                                <path id="Trazado_224044" data-name="Trazado 224044" d="M268.6,178.071c-.242.561-2.329.164-4.82.314-2.494.1-4.53.706-4.828.172-.132-.255.248-.772,1.087-1.28a8.4,8.4,0,0,1,7.35-.37C268.279,177.327,268.708,177.8,268.6,178.071Z" transform="translate(-258.929 -176.234)" fill="#263238"/>
                              </g>
                            </g>
                          </g>
                        </g>
                        <g id="Grupo_218297" data-name="Grupo 218297" transform="translate(42.141 15.96)">
                          <g id="Grupo_218296" data-name="Grupo 218296">
                            <g id="Grupo_218295" data-name="Grupo 218295">
                              <g id="Grupo_218294" data-name="Grupo 218294">
                                <path id="Trazado_224045" data-name="Trazado 224045" d="M307.194,181.689c-.4.456-1.821-.127-3.565-.255-1.74-.188-3.244.13-3.554-.391-.134-.252.127-.718.8-1.132a5.176,5.176,0,0,1,5.736.52C307.2,180.96,307.372,181.465,307.194,181.689Z" transform="translate(-300.04 -179.277)" fill="#263238"/>
                              </g>
                            </g>
                          </g>
                        </g>
                      </g>
                      <g id="Grupo_218304" data-name="Grupo 218304" transform="translate(41.026 8.867)">
                        <g id="Grupo_218303" data-name="Grupo 218303">
                          <g id="Grupo_218302" data-name="Grupo 218302">
                            <g id="Grupo_218301" data-name="Grupo 218301">
                              <g id="Grupo_218300" data-name="Grupo 218300">
                                <g id="Grupo_218299" data-name="Grupo 218299">
                                  <path id="Trazado_224046" data-name="Trazado 224046" d="M298.972,156.883a10.5,10.5,0,0,0-3.509-6.119,38.871,38.871,0,0,1-3.218-2.273c-2.045-1.971-2.282-5.109-3.422-7.71a11.55,11.55,0,0,0-8.253-6.587c-2.992-.575-6.182.056-9.059-.945-2.127-.74-3.9-2.32-6.069-2.933-4.219-1.194-8.48,1.534-11.862,4.326-.282,3.071,1.983,5.341,4.165,7.519a10.693,10.693,0,0,0,8.425,3.037c2.382-.222,5.056-1.18,6.975.248,2.019,1.5,1.823,4.727,3.571,6.537,2.5,2.586,6.994.763,10.338,2.084,2.583,1.02,4.016,3.7,5.59,5.989s4.034,4.548,6.755,3.995A31.245,31.245,0,0,0,298.972,156.883Z" transform="translate(-253.557 -130.028)" fill="#263238"/>
                                </g>
                              </g>
                            </g>
                          </g>
                        </g>
                      </g>
                      <g id="Grupo_218310" data-name="Grupo 218310" transform="translate(0 9.041)">
                        <g id="Grupo_218309" data-name="Grupo 218309">
                          <g id="Grupo_218308" data-name="Grupo 218308">
                            <g id="Grupo_218307" data-name="Grupo 218307">
                              <g id="Grupo_218306" data-name="Grupo 218306">
                                <g id="Grupo_218305" data-name="Grupo 218305">
                                  <path id="Trazado_224047" data-name="Trazado 224047" d="M230.48,141.217c-1.875-.72-5.7-2.313-6.586-4.072-1.921-3.822-5.654-6.644-9.71-6.78a9.743,9.743,0,0,0-9.414,6.9,14.009,14.009,0,0,0-12.675,6.663,14.729,14.729,0,0,0-.919,1.723,10.658,10.658,0,0,0-1.5,8.851c.513,1.8,1.476,3.829.438,5.382-1.056,1.581-3.36,1.43-5.2,1.89a7.076,7.076,0,0,0-5.135,7.482c.146,1.178.6,2.381.255,3.517-.357,1.183-1.463,1.943-2.338,2.815a8.808,8.808,0,0,0,3.885,14.734c1.347.369,2.835.442,3.956,1.276,1.285.956,1.735,2.642,2.581,4a7.6,7.6,0,0,0,7.974,3.291,6.953,6.953,0,0,0,1.721-.684c.8,1.353,2.167,2.34,4.627,2.557l2.268-32.171a2.669,2.669,0,0,0,1.812,1.7c5.052,1.621,6.743-8.936,5.846-11.917a30.111,30.111,0,0,0,5.653-4.983c1.608-1.978,3.367-7.6,3.291-10.213C223.157,143.449,231.3,141.533,230.48,141.217Z" transform="translate(-175.115 -130.36)" fill="#263238"/>
                                </g>
                              </g>
                            </g>
                          </g>
                        </g>
                      </g>
                      <g id="Grupo_218328" data-name="Grupo 218328" transform="translate(20.838 46.472)">
                        <g id="Grupo_218327" data-name="Grupo 218327">
                          <g id="Grupo_218326" data-name="Grupo 218326">
                            <g id="Grupo_218325" data-name="Grupo 218325">
                              <g id="Grupo_218324" data-name="Grupo 218324">
                                <g id="Grupo_218323" data-name="Grupo 218323">
                                  <g id="Grupo_218322" data-name="Grupo 218322">
                                    <g id="Grupo_218321" data-name="Grupo 218321">
                                      <g id="Grupo_218320" data-name="Grupo 218320">
                                        <g id="Grupo_218319" data-name="Grupo 218319">
                                          <g id="Grupo_218318" data-name="Grupo 218318">
                                            <g id="Grupo_218317" data-name="Grupo 218317">
                                              <g id="Grupo_218316" data-name="Grupo 218316">
                                                <g id="Grupo_218315" data-name="Grupo 218315">
                                                  <g id="Grupo_218314" data-name="Grupo 218314">
                                                    <g id="Grupo_218313" data-name="Grupo 218313">
                                                      <g id="Grupo_218312" data-name="Grupo 218312">
                                                        <g id="Grupo_218311" data-name="Grupo 218311">
                                                          <path id="Trazado_224048" data-name="Trazado 224048" d="M224.9,205.468c.125-3.279-3.809-4.329-6.783-2.944-1.633.761-2.98,2.462-3.143,5.94-.434,9.277,8.969,7.8,9,7.535C223.988,215.834,224.753,209.307,224.9,205.468Z" transform="translate(-214.958 -201.928)" fill="#ffbf9d"/>
                                                        </g>
                                                      </g>
                                                    </g>
                                                  </g>
                                                </g>
                                              </g>
                                            </g>
                                          </g>
                                        </g>
                                      </g>
                                    </g>
                                  </g>
                                </g>
                              </g>
                            </g>
                          </g>
                        </g>
                      </g>
                      <g id="Grupo_218347" data-name="Grupo 218347" transform="translate(23.196 49.473)">
                        <g id="Grupo_218346" data-name="Grupo 218346">
                          <g id="Grupo_218345" data-name="Grupo 218345">
                            <g id="Grupo_218344" data-name="Grupo 218344">
                              <g id="Grupo_218343" data-name="Grupo 218343">
                                <g id="Grupo_218342" data-name="Grupo 218342">
                                  <g id="Grupo_218341" data-name="Grupo 218341">
                                    <g id="Grupo_218340" data-name="Grupo 218340">
                                      <g id="Grupo_218339" data-name="Grupo 218339">
                                        <g id="Grupo_218338" data-name="Grupo 218338">
                                          <g id="Grupo_218337" data-name="Grupo 218337">
                                            <g id="Grupo_218336" data-name="Grupo 218336">
                                              <g id="Grupo_218335" data-name="Grupo 218335">
                                                <g id="Grupo_218334" data-name="Grupo 218334">
                                                  <g id="Grupo_218333" data-name="Grupo 218333">
                                                    <g id="Grupo_218332" data-name="Grupo 218332">
                                                      <g id="Grupo_218331" data-name="Grupo 218331">
                                                        <g id="Grupo_218330" data-name="Grupo 218330">
                                                          <g id="Grupo_218329" data-name="Grupo 218329">
                                                            <path id="Trazado_224049" data-name="Trazado 224049" d="M223.451,215.089c-.04-.031-.167.106-.446.218a1.619,1.619,0,0,1-1.209-.031c-.963-.406-1.715-2-1.683-3.675a5.342,5.342,0,0,1,.561-2.292,1.868,1.868,0,0,1,1.273-1.184.824.824,0,0,1,.933.487c.112.265.045.448.093.466.025.024.207-.146.15-.533a1.03,1.03,0,0,0-.337-.6,1.222,1.222,0,0,0-.883-.278,2.273,2.273,0,0,0-1.755,1.359,5.485,5.485,0,0,0-.681,2.56c-.028,1.872.847,3.666,2.17,4.116a1.732,1.732,0,0,0,1.489-.176C223.424,215.312,223.482,215.107,223.451,215.089Z" transform="translate(-219.466 -207.666)" fill="#ff9a6c"/>
                                                          </g>
                                                        </g>
                                                      </g>
                                                    </g>
                                                  </g>
                                                </g>
                                              </g>
                                            </g>
                                          </g>
                                        </g>
                                      </g>
                                    </g>
                                  </g>
                                </g>
                              </g>
                            </g>
                          </g>
                        </g>
                      </g>
                      <g id="Grupo_218356" data-name="Grupo 218356" transform="translate(17.471 16.274)">
                        <g id="Grupo_218355" data-name="Grupo 218355">
                          <g id="Grupo_218354" data-name="Grupo 218354">
                            <g id="Grupo_218353" data-name="Grupo 218353">
                              <g id="Grupo_218352" data-name="Grupo 218352">
                                <g id="Grupo_218351" data-name="Grupo 218351">
                                  <g id="Grupo_218350" data-name="Grupo 218350">
                                    <g id="Grupo_218349" data-name="Grupo 218349">
                                      <g id="Grupo_218348" data-name="Grupo 218348">
                                        <path id="Trazado_224050" data-name="Trazado 224050" d="M233.907,144.2a5.547,5.547,0,0,0-1.98,1.382c-1.026,1.178-1.584,3.562-1.244,6.332l.029.237-.233.037a8.976,8.976,0,0,0-6.418,4.721,6.988,6.988,0,0,0-.677,2.213,13.658,13.658,0,0,0,.073,2.468,18.347,18.347,0,0,1,.12,2.662,4.361,4.361,0,0,1-.973,2.663c-1.3,1.648-3.228,2.346-4.889,3.041a15.6,15.6,0,0,0-4.54,2.433,11.6,11.6,0,0,0-4.135,7.44,12.1,12.1,0,0,0,.714,5.82c.5,1.315.965,1.963.91,2-.019.013-.141-.142-.359-.45a9.844,9.844,0,0,1-.787-1.45,11.782,11.782,0,0,1-.939-5.969,11.936,11.936,0,0,1,4.209-7.852,15.967,15.967,0,0,1,4.685-2.563c1.661-.7,3.478-1.394,4.614-2.85,1.147-1.313.851-3.186.728-4.865a14.076,14.076,0,0,1-.059-2.59,7.524,7.524,0,0,1,.758-2.419,9.4,9.4,0,0,1,6.89-4.928l-.2.274c-.3-2.9.358-5.359,1.519-6.578a3.9,3.9,0,0,1,1.55-1.051A2.27,2.27,0,0,1,233.907,144.2Z" transform="translate(-208.52 -144.19)" fill="#455a64"/>
                                      </g>
                                    </g>
                                  </g>
                                </g>
                              </g>
                            </g>
                          </g>
                        </g>
                      </g>
                      <g id="Grupo_218363" data-name="Grupo 218363" transform="translate(21.799 58.439)">
                        <g id="Grupo_218362" data-name="Grupo 218362">
                          <g id="Grupo_218361" data-name="Grupo 218361">
                            <g id="Grupo_218360" data-name="Grupo 218360">
                              <g id="Grupo_218359" data-name="Grupo 218359">
                                <g id="Grupo_218358" data-name="Grupo 218358">
                                  <g id="Grupo_218357" data-name="Grupo 218357">
                                    <path id="Trazado_224051" data-name="Trazado 224051" d="M218.42,226.422a6.627,6.627,0,0,1,2.779-1.5l-.2-.03a3.88,3.88,0,0,1,.571-.046,2.623,2.623,0,0,1,2.031.435l-.019,0a4.875,4.875,0,0,1,2.453,2.548,5.774,5.774,0,0,1-1.2,5.867,4.413,4.413,0,0,1-7.933-2.221A5.477,5.477,0,0,1,218.42,226.422Z" transform="translate(-216.795 -224.809)" fill="#455a64"/>
                                  </g>
                                </g>
                              </g>
                            </g>
                          </g>
                        </g>
                      </g>
                    </g>
                    <g id="Grupo_218372" data-name="Grupo 218372" transform="translate(236.021 5839.982)">
                      <path id="Trazado_224052" data-name="Trazado 224052" d="M119.965,308.333S80.034,347.1,80.377,359.614a3.1,3.1,0,0,1-.123.612,14.7,14.7,0,0,0,12.8,16.955L108.5,379.1l32.978-42.541L132.548,312.8Z" transform="translate(-80.034 -292.645)" fill="#4dd0e1"/>
                      <path id="Trazado_224053" data-name="Trazado 224053" d="M129.992,318.218a139.364,139.364,0,0,1,13.8-19.089c6.964-7.746,16.239-9.955,18.294-10.052,7.638-.361,39.833,1.812,60.487,2.635,7.673.306,15.251,4.764,20.265,10.579,11.232,13.026,30.92,36.236,34.878,43.386,5.605,10.126,1.67,33.18-2.263,36.257s-124.615-2.163-124.615-2.163Z" transform="translate(-103.863 -283.441)" fill="#4dd0e1"/>
                      <g id="Grupo_218365" data-name="Grupo 218365" transform="translate(141.459 62.053)">
                        <path id="Trazado_224054" data-name="Trazado 224054" d="M370.877,397.17a.909.909,0,0,1-.254.009l-.719-.027-.519-.026c-.189,0-.4.009-.617.013a14.4,14.4,0,0,0-1.5.078l-.869.088c-.3.033-.611.1-.934.157a20.5,20.5,0,0,0-2.034.467,21.267,21.267,0,0,0-8.311,4.581,20.526,20.526,0,0,0-1.481,1.471c-.217.244-.442.468-.631.706l-.539.688a14.5,14.5,0,0,0-.867,1.227c-.121.185-.242.353-.34.515l-.255.452-.361.622a.923.923,0,0,1-.143.21.883.883,0,0,1,.094-.234l.317-.649.236-.467c.092-.167.207-.34.324-.53a13.182,13.182,0,0,1,.842-1.261l.531-.706c.187-.244.41-.473.626-.724a19.739,19.739,0,0,1,1.481-1.506,20.726,20.726,0,0,1,8.41-4.635,19.688,19.688,0,0,1,2.064-.448c.327-.049.641-.115.947-.143l.88-.072a13.352,13.352,0,0,1,1.516-.039c.223,0,.43,0,.621.009l.52.05.719.078A.864.864,0,0,1,370.877,397.17Z" transform="translate(-350.502 -396.983)" fill="#263238"/>
                      </g>
                      <g id="Grupo_218366" data-name="Grupo 218366" transform="translate(41.224 26.541)">
                        <path id="Trazado_224055" data-name="Trazado 224055" d="M172.826,363.142a1.974,1.974,0,0,1-.1-.365l-.221-1.053c-.206-.912-.53-2.224-1-3.828a122.55,122.55,0,0,0-4.453-12.272c-1.965-4.71-3.986-8.868-5.561-11.817-.387-.742-.752-1.4-1.081-1.98s-.6-1.081-.845-1.479l-.543-.93a1.974,1.974,0,0,1-.174-.335,2.019,2.019,0,0,1,.22.305l.587.9c.258.391.55.884.886,1.458s.72,1.227,1.118,1.964a123.575,123.575,0,0,1,5.643,11.8,108.821,108.821,0,0,1,4.387,12.323c.446,1.616.743,2.94.917,3.861.071.441.128.795.172,1.065A1.983,1.983,0,0,1,172.826,363.142Z" transform="translate(-158.855 -329.083)" fill="#263238"/>
                      </g>
                      <g id="Grupo_218367" data-name="Grupo 218367" transform="translate(129.821 26.867)">
                        <path id="Trazado_224056" data-name="Trazado 224056" d="M333.333,329.706a.48.48,0,0,1,.01.131c0,.1,0,.229,0,.384q-.007.54-.02,1.477c-.02,1.282-.078,3.137-.176,5.427-.192,4.581-.589,10.906-1.289,17.868s-1.579,13.242-2.306,17.77c-.362,2.264-.676,4.093-.912,5.353l-.275,1.451-.078.376a.066.066,0,1,1-.027,0c.014-.1.03-.227.051-.38q.082-.534.224-1.459c.2-1.29.48-3.116.826-5.364.677-4.532,1.521-10.809,2.225-17.767s1.127-13.274,1.368-17.851c.11-2.271.2-4.118.263-5.422q.045-.934.072-1.474c.01-.155.018-.281.025-.383A.468.468,0,0,1,333.333,329.706Z" transform="translate(-328.251 -329.706)" fill="#263238"/>
                      </g>
                      <path id="Trazado_224057" data-name="Trazado 224057" d="M257.334,282.779a3.093,3.093,0,0,0-1.474-.419l-35.9-3.934c-1.227-.134-2.61-.224-3.545.582-1.186,1.022-1,2.911-.467,4.382s1.336,2.973,1.047,4.512l38.523,2.415c-.24-1.39.866-2.6,1.681-3.746S258.487,283.591,257.334,282.779Z" transform="translate(-144.665 -278.337)" fill="#4dd0e1"/>
                      <g id="Grupo_218368" data-name="Grupo 218368" transform="translate(72.204 7.724)">
                        <path id="Trazado_224058" data-name="Trazado 224058" d="M260.271,296.619a2.6,2.6,0,0,1-.423.111l-1.223.268c-.531.118-1.183.252-1.947.37s-1.628.29-2.595.4l-1.515.191c-.527.064-1.079.1-1.649.153-1.139.118-2.361.162-3.646.225a71.079,71.079,0,0,1-16.653-1.386c-1.257-.275-2.456-.521-3.559-.825-.553-.147-1.092-.273-1.6-.424L224,295.261c-.936-.266-1.762-.573-2.494-.821s-1.355-.483-1.858-.687l-1.162-.466a2.539,2.539,0,0,1-.4-.18,2.651,2.651,0,0,1,.418.129l1.179.418c.509.189,1.134.413,1.871.642s1.563.527,2.5.78l1.463.421c.509.144,1.047.265,1.6.407,1.1.294,2.3.531,3.553.8a74.009,74.009,0,0,0,16.6,1.381c1.281-.056,2.5-.091,3.635-.2.568-.049,1.119-.079,1.645-.137l1.513-.173c.966-.1,1.831-.247,2.594-.356s1.418-.222,1.951-.324l1.232-.218A2.615,2.615,0,0,1,260.271,296.619Z" transform="translate(-218.087 -293.106)" fill="#263238"/>
                      </g>
                      <g id="Grupo_218369" data-name="Grupo 218369" transform="translate(11.758 49.027)" opacity="0.3">
                        <path id="Trazado_224059" data-name="Trazado 224059" d="M117.375,372.342a19.014,19.014,0,0,0-14.86,13.084,13.059,13.059,0,0,0,4.813-3.5,20.142,20.142,0,0,1,12.513-6.489,20.626,20.626,0,0,1,9.766,1.766,21.284,21.284,0,0,1,4.3,1.742l1.69.384C131.626,373.612,124.246,371.231,117.375,372.342Z" transform="translate(-102.515 -372.076)"/>
                      </g>
                      <g id="Grupo_218370" data-name="Grupo 218370" transform="translate(74.868 8.728)" opacity="0.3">
                        <path id="Trazado_224060" data-name="Trazado 224060" d="M223.181,295.026a31.87,31.87,0,0,0,18.645,8.406,30.343,30.343,0,0,0,19.157-5.547C247.034,300.055,234.343,299.311,223.181,295.026Z" transform="translate(-223.181 -295.026)"/>
                      </g>
                      <g id="Grupo_218371" data-name="Grupo 218371" transform="translate(141.46 57.637)" opacity="0.3">
                        <path id="Trazado_224061" data-name="Trazado 224061" d="M371.52,389.168a5.9,5.9,0,0,0-3.873-.542c-8.294.984-16.326,6.635-17.143,15.746h0c3.49-6.756,10.68-11.712,18.256-11.057,1.276.11,2.791.259,3.611-.726C373.222,391.567,372.642,389.881,371.52,389.168Z" transform="translate(-350.504 -388.538)"/>
                      </g>
                    </g>
                    <g id="Grupo_218390" data-name="Grupo 218390" transform="translate(238.935 5910.944)">
                      <g id="Grupo_218386" data-name="Grupo 218386">
                        <path id="Trazado_224062" data-name="Trazado 224062" d="M86.208,459.6l68.025-.343s-.449,1.313,2.37,1.313l22.49-.157s1.66.157,1.69-1.156c0,0,52.735.889,65.76,1.252.976.027,2.7-.563,1.887-1.8l-4.544-5.445-75.24-7.308-53.373,5.606-18.3-6.61h-.605a1.557,1.557,0,0,0-1.264.647l-9.4,13.07A.6.6,0,0,0,86.208,459.6Z" transform="translate(-85.604 -428.77)" fill="#455a64"/>
                        <path id="Trazado_224063" data-name="Trazado 224063" d="M141.754,462.41l121.182.939-28.5-8.827-35.528,1L163.36,454.1Z" transform="translate(-112.386 -433.137)" opacity="0.2"/>
                        <path id="Trazado_224064" data-name="Trazado 224064" d="M185.211,440.9l.677-14.912s.135-8.2-9.742-10.935-22.191.746-33.692,1.367-11.366-.249-11.366-.249l-9.336,14.415,36.669,5.344s21.243,1.242,21.649,1.367S185.211,440.9,185.211,440.9Z" transform="translate(-102.845 -414.015)" fill="#fff"/>
                        <path id="Trazado_224065" data-name="Trazado 224065" d="M242.858,442.73l.8-14.013s-.135-8.2,9.742-10.935,22.191.746,33.692,1.367c8.046.435,10.541.362,11.314.279a.592.592,0,0,1,.56.257l8.829,13.63-36.669,5.344s-21.243,1.243-21.65,1.367S242.858,442.73,242.858,442.73Z" transform="translate(-160.611 -415.318)" fill="#fff"/>
                        <path id="Trazado_224066" data-name="Trazado 224066" d="M91.223,455.188l15.967-13.172s33.07-5.592,44.3-3.6,17.616,5.841,19.159,14.042l-10.77,2.734a33.412,33.412,0,0,0-14.343-3.6c-8.118-.125-28.414,3.6-28.414,3.6Z" transform="translate(-88.284 -425.448)" fill="#e0e0e0"/>
                        <path id="Trazado_224067" data-name="Trazado 224067" d="M254.57,454.027,243.2,451.168s.81-13.031,19.274-15.206c0,0,5.217-1.694,23.754,1.786s20.432,3.355,20.432,3.355l15.425,13.669a72.31,72.31,0,0,1-16.778-.745c-7.577-1.491-20.838-6.586-35.18-5.095S254.57,454.027,254.57,454.027Z" transform="translate(-160.776 -424.287)" fill="#e0e0e0"/>
                        <path id="Trazado_224068" data-name="Trazado 224068" d="M106.14,432.97l9.035-13.95-16.029,12.79L89.021,446.142h1.152Z" transform="translate(-87.234 -416.403)" fill="#e0e0e0"/>
                        <path id="Trazado_224069" data-name="Trazado 224069" d="M357.7,434.882l-7.362-12.374s14.667,12.755,14.8,13.112,7.99,12.931,7.99,12.931Z" transform="translate(-211.88 -418.066)" fill="#e0e0e0"/>
                        <path id="Trazado_224070" data-name="Trazado 224070" d="M221.354,468.27h22.732l-11.366-2.858-.6.124" transform="translate(-150.354 -438.531)" fill="#263238"/>
                        <g id="Grupo_218373" data-name="Grupo 218373" transform="translate(82.337 12.359)">
                          <path id="Trazado_224071" data-name="Trazado 224071" d="M243.059,452.168c-.075,0,0-3.257.172-7.266s.369-7.259.444-7.256,0,3.256-.172,7.267S243.134,452.171,243.059,452.168Z" transform="translate(-243.03 -437.646)" fill="#263238"/>
                        </g>
                        <g id="Grupo_218374" data-name="Grupo 218374" transform="translate(1.787 14.261)">
                          <path id="Trazado_224072" data-name="Trazado 224072" d="M122.07,441.286a1.51,1.51,0,0,1-.311.07l-.9.154-3.356.527-11.343,1.685.063-.027-2.179,1.678-10.588,8.1L90.227,455.9l-.886.65a2.034,2.034,0,0,1-.32.212,2.026,2.026,0,0,1,.287-.255l.855-.69,3.175-2.5,10.539-8.16,2.18-1.676.028-.021.035-.005,11.356-1.6,3.368-.446.909-.108A1.562,1.562,0,0,1,122.07,441.286Z" transform="translate(-89.021 -441.283)" fill="#263238"/>
                        </g>
                        <g id="Grupo_218375" data-name="Grupo 218375" transform="translate(26.71 10.102)">
                          <path id="Trazado_224073" data-name="Trazado 224073" d="M190.835,442.286a.6.6,0,0,1-.1-.107l-.276-.332c-.241-.291-.607-.713-1.113-1.222a19.8,19.8,0,0,0-4.9-3.554,28.039,28.039,0,0,0-8.542-2.735,69.871,69.871,0,0,0-11.017-.731,126.64,126.64,0,0,0-20.024,1.515c-2.542.4-4.587.791-6,1.071l-1.625.331-.424.081a.658.658,0,0,1-.146.018.572.572,0,0,1,.14-.046l.418-.107c.369-.089.911-.225,1.615-.381,1.406-.312,3.448-.735,5.99-1.157a120.1,120.1,0,0,1,20.055-1.6,68.381,68.381,0,0,1,11.058.756,27.786,27.786,0,0,1,8.591,2.812,19.2,19.2,0,0,1,4.883,3.65,14.777,14.777,0,0,1,1.08,1.263l.255.349A.594.594,0,0,1,190.835,442.286Z" transform="translate(-136.672 -433.33)" fill="#263238"/>
                        </g>
                        <g id="Grupo_218376" data-name="Grupo 218376" transform="translate(30.777 8.282)">
                          <path id="Trazado_224074" data-name="Trazado 224074" d="M194.545,438.806s-.036-.031-.095-.1l-.256-.306c-.108-.138-.251-.3-.424-.491s-.368-.411-.6-.646a19.468,19.468,0,0,0-4.477-3.381,26.643,26.643,0,0,0-7.83-2.8,57.411,57.411,0,0,0-10.185-.936,127.338,127.338,0,0,0-18.59.978c-2.366.3-4.273.6-5.589.819l-1.515.254-.395.061a.517.517,0,0,1-.137.011.509.509,0,0,1,.131-.039l.391-.087c.344-.072.85-.184,1.507-.3,1.311-.252,3.216-.581,5.582-.905a119.566,119.566,0,0,1,18.621-1.059,56.27,56.27,0,0,1,10.229.962,26.372,26.372,0,0,1,7.875,2.874,18.793,18.793,0,0,1,4.459,3.475c.231.242.427.466.588.667s.3.366.405.51l.235.324A.526.526,0,0,1,194.545,438.806Z" transform="translate(-144.449 -429.85)" fill="#263238"/>
                        </g>
                        <g id="Grupo_218377" data-name="Grupo 218377" transform="translate(31.261 6.462)">
                          <path id="Trazado_224075" data-name="Trazado 224075" d="M194.986,435.326a.535.535,0,0,1-.094-.1l-.254-.3c-.108-.136-.248-.3-.419-.487s-.364-.408-.6-.641a19.445,19.445,0,0,0-4.428-3.359,26.462,26.462,0,0,0-7.745-2.8,56.019,56.019,0,0,0-10.085-.961,127.376,127.376,0,0,0-18.419.919c-2.345.289-4.235.578-5.54.791l-1.5.245-.392.059a.514.514,0,0,1-.135.011.478.478,0,0,1,.13-.038l.387-.085c.341-.07.843-.178,1.494-.3,1.3-.245,3.188-.564,5.533-.878a119.6,119.6,0,0,1,18.45-1,54.923,54.923,0,0,1,10.13.989,26.2,26.2,0,0,1,7.79,2.879,18.758,18.758,0,0,1,4.409,3.453c.229.24.422.462.582.661s.3.363.4.505l.233.321A.49.49,0,0,1,194.986,435.326Z" transform="translate(-145.375 -426.37)" fill="#263238"/>
                        </g>
                        <g id="Grupo_218378" data-name="Grupo 218378" transform="translate(32.525 4.669)">
                          <path id="Trazado_224076" data-name="Trazado 224076" d="M196.139,431.871a.5.5,0,0,1-.092-.1l-.248-.3c-.213-.265-.543-.644-.989-1.109a23.04,23.04,0,0,0-11.667-6.491,44.223,44.223,0,0,0-9.88-.651c-7.06.045-13.447.346-18.046.831-2.3.234-4.155.48-5.434.671l-1.473.22-.384.052a.512.512,0,0,1-.133.009.486.486,0,0,1,.128-.036l.38-.079c.335-.063.827-.167,1.466-.27,1.275-.224,3.129-.5,5.43-.758a176.168,176.168,0,0,1,18.064-.912,43.626,43.626,0,0,1,9.936.678,22.3,22.3,0,0,1,7.493,3.135,21.47,21.47,0,0,1,4.2,3.528,13.823,13.823,0,0,1,.955,1.148l.227.315A.472.472,0,0,1,196.139,431.871Z" transform="translate(-147.791 -422.942)" fill="#263238"/>
                        </g>
                        <g id="Grupo_218379" data-name="Grupo 218379" transform="translate(33.001 2.823)">
                          <path id="Trazado_224077" data-name="Trazado 224077" d="M196.573,428.367a.489.489,0,0,1-.09-.1l-.244-.3c-.211-.264-.527-.65-.953-1.129a21.793,21.793,0,0,0-4.035-3.6,17.366,17.366,0,0,0-3.283-1.765,21.452,21.452,0,0,0-4.122-1.157,47.7,47.7,0,0,0-9.818-.616c-7,.209-13.322.884-17.9,1.239-2.29.187-4.145.32-5.429.393l-1.478.075-.385.012a.467.467,0,0,1-.132-.006.5.5,0,0,1,.13-.022l.383-.039,1.474-.126,5.419-.479c4.575-.4,10.891-1.11,17.912-1.319a46.912,46.912,0,0,1,9.871.641,21.408,21.408,0,0,1,4.161,1.195,17.307,17.307,0,0,1,3.307,1.815,20.832,20.832,0,0,1,4.006,3.689c.415.492.719.889.916,1.164l.223.314A.479.479,0,0,1,196.573,428.367Z" transform="translate(-148.701 -419.412)" fill="#263238"/>
                        </g>
                        <g id="Grupo_218384" data-name="Grupo 218384" transform="translate(84.156 4.546)">
                          <g id="Grupo_218380" data-name="Grupo 218380" transform="translate(0 5.523)">
                            <path id="Trazado_224078" data-name="Trazado 224078" d="M246.51,441.757a.6.6,0,0,1,.082-.123l.262-.344a14.612,14.612,0,0,1,1.1-1.242,19.21,19.21,0,0,1,4.949-3.56,27.806,27.806,0,0,1,8.641-2.654,68.456,68.456,0,0,1,11.07-.553,120.079,120.079,0,0,1,20.022,1.966c2.534.469,4.568.929,5.968,1.267.7.168,1.24.314,1.607.411l.416.115a.581.581,0,0,1,.14.048.608.608,0,0,1-.146-.021l-.423-.088-1.618-.361c-1.406-.306-3.444-.737-5.978-1.181a126.716,126.716,0,0,0-19.992-1.883,69.867,69.867,0,0,0-11.028.529,28.019,28.019,0,0,0-8.591,2.577,19.755,19.755,0,0,0-4.961,3.463c-.515.5-.889.915-1.136,1.2l-.281.326A.617.617,0,0,1,246.51,441.757Z" transform="translate(-246.509 -433.268)" fill="#263238"/>
                          </g>
                          <g id="Grupo_218381" data-name="Grupo 218381" transform="translate(0.033 3.704)">
                            <path id="Trazado_224079" data-name="Trazado 224079" d="M246.574,438.278a.519.519,0,0,1,.075-.115l.242-.32c.1-.142.244-.309.414-.5s.365-.417.6-.656a18.8,18.8,0,0,1,4.522-3.393,26.377,26.377,0,0,1,7.926-2.729,56.313,56.313,0,0,1,10.245-.775,119.589,119.589,0,0,1,18.6,1.4c2.36.368,4.258.732,5.565,1.008.654.133,1.159.254,1.5.332l.389.095a.5.5,0,0,1,.13.041.521.521,0,0,1-.136-.014l-.394-.068-1.51-.282c-1.311-.244-3.212-.578-5.572-.922a127.366,127.366,0,0,0-18.57-1.32,57.425,57.425,0,0,0-10.2.749,26.63,26.63,0,0,0-7.88,2.651,19.493,19.493,0,0,0-4.539,3.3c-.24.231-.445.444-.615.635s-.322.347-.433.483l-.262.3A.53.53,0,0,1,246.574,438.278Z" transform="translate(-246.573 -429.789)" fill="#263238"/>
                          </g>
                          <g id="Grupo_218382" data-name="Grupo 218382" transform="translate(0.067 1.884)">
                            <path id="Trazado_224080" data-name="Trazado 224080" d="M246.638,434.8a.524.524,0,0,1,.074-.113l.239-.316c.1-.141.241-.307.41-.5s.361-.415.594-.65a18.754,18.754,0,0,1,4.472-3.372,26.189,26.189,0,0,1,7.841-2.736,54.912,54.912,0,0,1,10.147-.8,119.554,119.554,0,0,1,18.428,1.339c2.339.357,4.221.71,5.516.979.649.13,1.149.248,1.489.324l.385.092a.52.52,0,0,1,.129.04.506.506,0,0,1-.135-.013l-.391-.066-1.5-.273c-1.3-.237-3.185-.561-5.524-.892a127.3,127.3,0,0,0-18.4-1.257,55.968,55.968,0,0,0-10.1.776,26.457,26.457,0,0,0-7.8,2.658,19.462,19.462,0,0,0-4.489,3.277c-.237.229-.439.441-.609.63s-.318.345-.428.479l-.259.3C246.674,434.768,246.641,434.8,246.638,434.8Z" transform="translate(-246.637 -426.309)" fill="#263238"/>
                          </g>
                          <g id="Grupo_218383" data-name="Grupo 218383" transform="translate(0.101)">
                            <path id="Trazado_224081" data-name="Trazado 224081" d="M246.7,429.939a8.807,8.807,0,0,1,1.31-1.491,15.673,15.673,0,0,1,4.571-2.882,36.4,36.4,0,0,1,3.511-1.294,31.555,31.555,0,0,1,4.155-1.094,46.969,46.969,0,0,1,9.817-.4c6.977.222,13.239,1.082,17.77,1.614l5.366.646,1.459.175.379.052a.51.51,0,0,1,.129.027.46.46,0,0,1-.131,0l-.381-.025-1.465-.124c-1.271-.116-3.109-.309-5.378-.561-4.537-.484-10.8-1.312-17.755-1.533a47.716,47.716,0,0,0-9.765.377,32.043,32.043,0,0,0-4.131,1.062c-1.279.4-2.456.811-3.5,1.255a16.166,16.166,0,0,0-4.576,2.784c-.242.207-.44.407-.61.583a5.8,5.8,0,0,0-.423.453l-.254.286A.493.493,0,0,1,246.7,429.939Z" transform="translate(-246.702 -422.707)" fill="#263238"/>
                          </g>
                        </g>
                        <path id="Trazado_224082" data-name="Trazado 224082" d="M290.144,445.556v8.849l2.931-2.652,2.87,2.512.167-8.616S291.4,445.4,290.144,445.556Z" transform="translate(-183.166 -429.034)" fill="#0f2771"/>
                        <g id="Grupo_218385" data-name="Grupo 218385" transform="translate(85.675 16.345)">
                          <path id="Trazado_224083" data-name="Trazado 224083" d="M303.887,450.58a.665.665,0,0,1-.15-.025l-.433-.1-1.66-.4c-1.441-.344-3.533-.82-6.133-1.33s-5.708-1.055-9.167-1.621l-5.427-.894a42.359,42.359,0,0,0-5.849-.63,52.723,52.723,0,0,0-5.887.086,31.624,31.624,0,0,0-5.411.805,22.464,22.464,0,0,0-8.293,3.989,27.418,27.418,0,0,0-2.678,2.351c-.751.736-1.361,1.405-1.859,1.954l-1.125,1.282-.294.333a.628.628,0,0,1-.107.107.661.661,0,0,1,.086-.125l.274-.35c.24-.308.608-.751,1.088-1.317s1.087-1.242,1.831-1.992a26.725,26.725,0,0,1,2.668-2.4,22.4,22.4,0,0,1,8.348-4.08,31.478,31.478,0,0,1,5.454-.828,52.146,52.146,0,0,1,5.918-.092,42.039,42.039,0,0,1,5.882.639l5.424.909c3.457.58,6.567,1.14,9.164,1.68s4.686,1.04,6.121,1.416c.719.184,1.273.342,1.648.449l.426.126A.622.622,0,0,1,303.887,450.58Z" transform="translate(-249.413 -445.266)" fill="#263238"/>
                        </g>
                      </g>
                      <g id="Grupo_218387" data-name="Grupo 218387" transform="translate(10.825 17.469)">
                        <path id="Trazado_224084" data-name="Trazado 224084" d="M173.96,457.656a.907.907,0,0,1-.131-.129l-.363-.4c-.161-.173-.348-.4-.589-.645l-.847-.837a26.463,26.463,0,0,0-6.209-4.313,34.521,34.521,0,0,0-10.713-3.254,53.432,53.432,0,0,0-13.744.1c-4.86.6-9.432,1.571-13.591,2.429s-7.917,1.6-11.1,2.06a69.65,69.65,0,0,1-7.579.713c-.9.026-1.6.035-2.07.022l-.538-.01a.942.942,0,0,1-.184-.013.957.957,0,0,1,.184-.015l.538-.016c.473-.005,1.169-.032,2.066-.073,1.792-.087,4.382-.317,7.555-.8s6.923-1.235,11.078-2.116,8.733-1.849,13.609-2.454a53.023,53.023,0,0,1,13.812-.076,34.3,34.3,0,0,1,10.766,3.331,25.716,25.716,0,0,1,6.2,4.408l.833.858c.236.254.417.485.572.664l.343.415A.885.885,0,0,1,173.96,457.656Z" transform="translate(-106.3 -447.415)" fill="#263238"/>
                      </g>
                      <g id="Grupo_218388" data-name="Grupo 218388" transform="translate(10.825 19.306)">
                        <path id="Trazado_224085" data-name="Trazado 224085" d="M173.96,461.168a.911.911,0,0,1-.131-.129l-.363-.4c-.161-.173-.348-.4-.589-.645l-.847-.838a26.446,26.446,0,0,0-6.209-4.312,34.506,34.506,0,0,0-10.713-3.255,53.426,53.426,0,0,0-13.744.1c-4.86.6-9.432,1.571-13.591,2.429s-7.917,1.6-11.1,2.06a69.663,69.663,0,0,1-7.579.713c-.9.026-1.6.035-2.07.023l-.538-.01a.917.917,0,0,1-.184-.013.906.906,0,0,1,.184-.015l.538-.017c.473-.005,1.169-.032,2.066-.073,1.792-.087,4.382-.316,7.555-.8s6.923-1.235,11.078-2.116,8.733-1.849,13.609-2.454a53.024,53.024,0,0,1,13.812-.076,34.286,34.286,0,0,1,10.766,3.332,25.717,25.717,0,0,1,6.2,4.407l.833.859c.236.253.417.485.572.664l.343.415A.943.943,0,0,1,173.96,461.168Z" transform="translate(-106.3 -450.927)" fill="#263238"/>
                      </g>
                      <g id="Grupo_218389" data-name="Grupo 218389" transform="translate(39.28 21.528)">
                        <path id="Trazado_224086" data-name="Trazado 224086" d="M194.534,461.637a1.759,1.759,0,0,1-.291-.213c-.189-.141-.444-.378-.808-.638a22.662,22.662,0,0,0-3.186-2.027,26.413,26.413,0,0,0-5.2-2.059,33.982,33.982,0,0,0-6.752-1.155,62.842,62.842,0,0,0-12.455.62l-3.755.529-1.022.14a1.865,1.865,0,0,1-.359.031,1.741,1.741,0,0,1,.35-.085l1.014-.191c.882-.159,2.16-.379,3.745-.615a58.777,58.777,0,0,1,12.5-.7,33.177,33.177,0,0,1,6.8,1.186,25.563,25.563,0,0,1,5.221,2.13,20.406,20.406,0,0,1,3.16,2.113c.356.275.6.525.779.68A1.788,1.788,0,0,1,194.534,461.637Z" transform="translate(-160.706 -455.176)" fill="#263238"/>
                      </g>
                    </g>
                    <g id="Grupo_218396" data-name="Grupo 218396" transform="translate(248.789 5891.341)">
                      <g id="Grupo_218394" data-name="Grupo 218394" transform="translate(34.907 5.713)">
                        <path id="Trazado_224087" data-name="Trazado 224087" d="M179.4,392.324l18.472-3.992s6.922-1.4,8.264-.659,9.052,6.911,9.715,7.486,8.039,9.407,8.039,9.407-.168,2.8-4.216,1.676c-2.085-.578-10.939-8.318-10.939-8.318l-2.061-1.626s3.229,5,3.163,6.642-2.117,4.922-2.821,5.374-4.245-.17-4.245-.17-2.509,2.711-4.481.575c0,0-3.364,3.5-6.094,1.471l-1.463-2.871-1.4-1.085s-.217,1.981-1.6,2.2-16.547-3.056-16.547-3.056l5.242-14.294Z" transform="translate(-171.189 -387.457)" fill="#ffbf9d"/>
                        <g id="Grupo_218391" data-name="Grupo 218391" transform="translate(27.844 9.919)">
                          <path id="Trazado_224088" data-name="Trazado 224088" d="M224.428,406.424a1.776,1.776,0,0,1,.427.288c.262.2.631.505,1.067.9a20.215,20.215,0,0,1,3.039,3.478,5.97,5.97,0,0,1,.6,1.2,2.292,2.292,0,0,1,.152,1.256,8.353,8.353,0,0,1-.555,2.017,6.491,6.491,0,0,1-.644,1.25c-.192.275-.344.39-.353.379s.1-.151.263-.435a8.458,8.458,0,0,0,.554-1.262,9.015,9.015,0,0,0,.485-1.975,2.705,2.705,0,0,0,.005-.567,2.767,2.767,0,0,0-.158-.57,5.9,5.9,0,0,0-.581-1.14,24.242,24.242,0,0,0-2.942-3.486C224.956,406.929,224.4,406.456,224.428,406.424Z" transform="translate(-224.427 -406.423)" fill="#ff9a6c"/>
                        </g>
                        <g id="Grupo_218392" data-name="Grupo 218392" transform="translate(18.312 11.276)">
                          <path id="Trazado_224089" data-name="Trazado 224089" d="M206.2,409.3a1.886,1.886,0,0,1,.57-.184,4.855,4.855,0,0,1,1.634-.067,6.958,6.958,0,0,1,4.556,2.707,8.931,8.931,0,0,1,1.282,2.679,17.139,17.139,0,0,1,.534,2.355c.107.678.165,1.23.194,1.612a2.416,2.416,0,0,1,.015.6c-.044.005-.142-.836-.4-2.174a19.814,19.814,0,0,0-.584-2.312,9.082,9.082,0,0,0-1.262-2.593,7.106,7.106,0,0,0-2.155-1.886,6.587,6.587,0,0,0-2.208-.792A7.3,7.3,0,0,0,206.2,409.3Z" transform="translate(-206.202 -409.017)" fill="#ff9a6c"/>
                        </g>
                        <g id="Grupo_218393" data-name="Grupo 218393" transform="translate(29.251 4.367)">
                          <path id="Trazado_224090" data-name="Trazado 224090" d="M227.116,395.935c0-.018.107-.052.318-.1a1.451,1.451,0,0,1,.391-.028,2.181,2.181,0,0,1,.518.056,6.169,6.169,0,0,1,2.6,1.413,12.862,12.862,0,0,1,2.021,2.158,3.85,3.85,0,0,1,.635,1.046,9.183,9.183,0,0,1-.787-.927,17.341,17.341,0,0,0-2.044-2.069,6.813,6.813,0,0,0-2.473-1.434A5.526,5.526,0,0,0,227.116,395.935Z" transform="translate(-227.116 -395.806)" fill="#ff9a6c"/>
                        </g>
                      </g>
                      <path id="Trazado_224091" data-name="Trazado 224091" d="M145.881,387.406l-9.24-3.6-17.024.873-8.485,11.442-3.4,16.48s31.177-6.847,32.166-6.938,2.577-1.7,2.577-1.7l3.328.7,4.261-14.281Z" transform="translate(-106.012 -380.001)" fill="#4dd0e1"/>
                      <g id="Grupo_218395" data-name="Grupo 218395">
                        <path id="Trazado_224092" data-name="Trazado 224092" d="M149.89,386.152a.449.449,0,0,1-.126-.035l-.36-.128-1.372-.515-5.028-1.939-7.443-2.909-4.39-1.73a35.785,35.785,0,0,0-4.768-1.639,14.393,14.393,0,0,0-4.981-.383,17.576,17.576,0,0,0-4.539,1.1,27.117,27.117,0,0,0-6.848,3.994c-1.8,1.39-3.154,2.634-4.1,3.479l-1.092.977-.288.25a.456.456,0,0,1-.1.078.493.493,0,0,1,.086-.1l.269-.27,1.057-1.015c.929-.869,2.269-2.137,4.057-3.552a26.79,26.79,0,0,1,6.877-4.077,17.689,17.689,0,0,1,4.6-1.132,14.575,14.575,0,0,1,5.072.384,35.479,35.479,0,0,1,4.8,1.656l4.384,1.745,7.422,2.963,4.995,2.02,1.353.562.349.152A.469.469,0,0,1,149.89,386.152Z" transform="translate(-104.447 -376.534)" fill="#263238"/>
                      </g>
                    </g>
                    <g id="Grupo_218403" data-name="Grupo 218403" transform="translate(369.836 5910.487)">
                      <path id="Trazado_224093" data-name="Trazado 224093" d="M336.175,428.681a2.061,2.061,0,0,1,.384-2.568L339.048,425a7.211,7.211,0,0,1,1.218-2.118c.636-.583,1.589-1.324,1.589-1.324a11.946,11.946,0,0,1,2.7-2.7c1.324-.794,4.555-1.642,5.667-2.6s4.608-4.025,7.044-2.86,4.184,5.262,6.091,6.127,2.6,3.725,3.336,4.89,1.536,2.013,1.642,2.913,2.172,2.7,2.542,5.138.158,3.283-.953,4.184-3.284,2.7-5.456,3.019c-1.218.178-2.887.29-4.117.354A2.461,2.461,0,0,1,358,438.612l-.15-.319s-5.561,2.807-8.209,2.436a1.779,1.779,0,0,1-1.589-2.648s-2.7,2.6-4.4,2.119-2.6-.424-2.754-1.907a5.544,5.544,0,0,1,1.108-3.183s-2.539.058-2.751-1.637a7.107,7.107,0,0,1,.689-3.5l-2.04-.231A2.3,2.3,0,0,1,336.175,428.681Z" transform="translate(-335.886 -413.141)" fill="#ffbf9d"/>
                      <g id="Grupo_218397" data-name="Grupo 218397" transform="translate(4.06 4.186)">
                        <path id="Trazado_224094" data-name="Trazado 224094" d="M354.109,421.145a2.976,2.976,0,0,1-.253.6,5,5,0,0,1-.361.675,9.149,9.149,0,0,1-.552.854,17.4,17.4,0,0,1-1.7,2.025c-.692.712-1.488,1.459-2.332,2.228s-1.634,1.512-2.322,2.216a17.9,17.9,0,0,0-1.683,1.995c-.864,1.211-1.2,2.082-1.257,2.056a3.007,3.007,0,0,1,.231-.61,4.82,4.82,0,0,1,.34-.687,8.4,8.4,0,0,1,.528-.869,16.141,16.141,0,0,1,1.659-2.058c.685-.721,1.476-1.474,2.32-2.244s1.64-1.506,2.336-2.2a19.609,19.609,0,0,0,1.722-1.963C353.683,421.974,354.056,421.119,354.109,421.145Z" transform="translate(-343.65 -421.145)" fill="#ff9a6c"/>
                      </g>
                      <g id="Grupo_218398" data-name="Grupo 218398" transform="translate(6.124 6.485)">
                        <path id="Trazado_224095" data-name="Trazado 224095" d="M362.888,425.54a.7.7,0,0,1-.066.216c-.051.139-.132.34-.245.6a19.585,19.585,0,0,1-1.094,2.106,20.3,20.3,0,0,1-2.062,2.856,20.672,20.672,0,0,1-3.165,2.931c-1.218.926-2.429,1.732-3.513,2.483s-2.042,1.449-2.81,2.082A21.385,21.385,0,0,0,348.2,440.4a5.545,5.545,0,0,1-.6.623,5.127,5.127,0,0,1,.525-.695,16.883,16.883,0,0,1,1.689-1.667c.758-.657,1.71-1.379,2.79-2.141s2.282-1.575,3.491-2.494a21.473,21.473,0,0,0,3.142-2.88,21.828,21.828,0,0,0,2.086-2.792c.531-.841.906-1.555,1.162-2.05A6.633,6.633,0,0,1,362.888,425.54Z" transform="translate(-347.595 -425.54)" fill="#ff9a6c"/>
                      </g>
                      <g id="Grupo_218399" data-name="Grupo 218399" transform="translate(20.29 7.14)">
                        <path id="Trazado_224096" data-name="Trazado 224096" d="M376.662,426.8c.05.057-.353.493-.9.974s-1.029.826-1.079.77.353-.493.9-.974S376.613,426.742,376.662,426.8Z" transform="translate(-374.68 -426.792)" fill="#ff9a6c"/>
                      </g>
                      <g id="Grupo_218400" data-name="Grupo 218400" transform="translate(12.166 13.533)">
                        <path id="Trazado_224097" data-name="Trazado 224097" d="M372.547,439.017a2.876,2.876,0,0,1-.211.676,8.812,8.812,0,0,1-.91,1.706,15.865,15.865,0,0,1-4.661,4.3c-2.089,1.341-4.043,2.438-5.409,3.308-.686.43-1.234.789-1.61,1.042a3.79,3.79,0,0,1-.6.374,3.223,3.223,0,0,1,.537-.46c.358-.28.892-.665,1.568-1.117,1.345-.915,3.287-2.041,5.366-3.375a16.81,16.81,0,0,0,4.65-4.184A15.487,15.487,0,0,0,372.547,439.017Z" transform="translate(-359.147 -439.016)" fill="#ff9a6c"/>
                      </g>
                      <g id="Grupo_218401" data-name="Grupo 218401" transform="translate(21.964 16.973)">
                        <path id="Trazado_224098" data-name="Trazado 224098" d="M386.895,445.593a1.7,1.7,0,0,1-.21.442,12.947,12.947,0,0,1-.706,1.129,19.944,19.944,0,0,1-4.738,4.865,15.233,15.233,0,0,1-1.68,1.044c-.246.138-.478.244-.682.336a5.077,5.077,0,0,1-.529.221,1.666,1.666,0,0,1-.468.142c-.018-.044.626-.3,1.585-.868a18.4,18.4,0,0,0,1.627-1.079c.586-.444,1.211-.958,1.834-1.536a25.08,25.08,0,0,0,2.9-3.239C386.492,446.16,386.857,445.57,386.895,445.593Z" transform="translate(-377.881 -445.593)" fill="#ff9a6c"/>
                      </g>
                      <g id="Grupo_218402" data-name="Grupo 218402" transform="translate(0.672 10.97)">
                        <path id="Trazado_224099" data-name="Trazado 224099" d="M341.844,434.127a16.09,16.09,0,0,1-2.3,1.07,19.711,19.711,0,0,1-2.368.919,8.611,8.611,0,0,1,2.262-1.17A9.509,9.509,0,0,1,341.844,434.127Z" transform="translate(-337.17 -434.116)" fill="#ff9a6c"/>
                      </g>
                    </g>
                  </g>
                </g>
              </g>
            </g>
          </g>
        </g>
      </g>
    </g>
  </g>
</svg>
