<svg xmlns="http://www.w3.org/2000/svg" width="42.921" height="42.561" viewBox="0 0 42.921 42.561">
  <g id="Grupo_222421" data-name="Grupo 222421" transform="translate(-543 -8644.089)">
    <g id="Grupo_222420" data-name="Grupo 222420">
      <g id="Grupo_222419" data-name="Grupo 222419">
        <g id="Grupo_222418" data-name="Grupo 222418">
          <g id="Grupo_222417" data-name="Grupo 222417">
            <g id="Grupo_222416" data-name="Grupo 222416">
              <g id="Grupo_222415" data-name="Grupo 222415">
                <g id="Grupo_222414" data-name="Grupo 222414">
                  <g id="Grupo_141332" data-name="Grupo 141332" transform="translate(543 8644.089)">
                    <path id="Trazado_197572" data-name="Trazado 197572" d="M2751.888,5177.48a.592.592,0,0,0-.06-.066,20.031,20.031,0,0,0-1.809-1.761.651.651,0,0,0-.845.99c.4.338.772.694,1.136,1.061a21.646,21.646,0,0,1-2.579,1.068.651.651,0,0,0,.423,1.23,22.513,22.513,0,0,0,3.077-1.308,18.393,18.393,0,0,1,2.42,3.627,2.528,2.528,0,0,0-.395.611,2.5,2.5,0,0,0-.215,1.282l-3.06,1.141a.651.651,0,0,0,.227,1.26.641.641,0,0,0,.227-.042l3.06-1.14a2.51,2.51,0,0,0,2.923.9h0a2.511,2.511,0,0,0-1.678-4.733A19.638,19.638,0,0,0,2751.888,5177.48Zm3.652,5.286a1.212,1.212,0,0,1,.424,2.347h0a1.212,1.212,0,1,1-.425-2.347Z" transform="translate(-2715.509 -5169.464)" fill="#0f2771"/>
                    <path id="Trazado_197573" data-name="Trazado 197573" d="M2726.648,5195.191a.651.651,0,0,0,.881-.265l1.546-2.875a2.462,2.462,0,0,0,.573.069,2.527,2.527,0,0,0,.727-.107,2.518,2.518,0,1,0-2.445-.579l-1.546,2.876A.651.651,0,0,0,2726.648,5195.191Zm1.936-6.159a1.212,1.212,0,1,1-.093.922A1.2,1.2,0,0,1,2728.584,5189.032Z" transform="translate(-2700.739 -5177.624)" fill="#0f2771"/>
                    <path id="Trazado_197574" data-name="Trazado 197574" d="M2683.978,5237.289a.65.65,0,0,0-.909-.14l-1.1.8a2.516,2.516,0,1,0,.783,1.039l1.083-.794A.651.651,0,0,0,2683.978,5237.289Zm-2.351,2.807a1.212,1.212,0,1,1-1.2-1.375,1.274,1.274,0,0,1,.166.011,1.212,1.212,0,0,1,1.037,1.364Z" transform="translate(-2666.682 -5212.765)" fill="#0f2771"/>
                    <path id="Trazado_197575" data-name="Trazado 197575" d="M2682.778,5183.15a2.5,2.5,0,0,0-1.269-1.445,2.465,2.465,0,0,0-.738-.23,19.806,19.806,0,0,0,.672-5.121,20.039,20.039,0,0,0-.176-2.646.65.65,0,0,0-1.289.173c.08.6.131,1.211.152,1.823h-8.164a37.277,37.277,0,0,0-.391-4.839.651.651,0,0,0-1.287.19,36,36,0,0,1,.371,4.649h-8.325v-8.343c.813-.014,1.624-.052,2.42-.115a.651.651,0,1,0-.1-1.3c-.761.061-1.538.1-2.316.111v-8.109c2.062.313,4.013,2.1,5.552,5.122a.651.651,0,1,0,1.159-.59,13.713,13.713,0,0,0-2.991-4.062,18.331,18.331,0,0,1,4.967,2.01l-.834.62a.65.65,0,1,0,.776,1.044l2.62-1.948a2.515,2.515,0,1,0-.775-1.045l-.662.492a19.77,19.77,0,0,0-19.964-.567,2.509,2.509,0,1,0-1.167.949l1.948,2.62a.65.65,0,0,0,1.044-.776l-1.22-1.641a18.36,18.36,0,0,1,4.523-1.757,13.772,13.772,0,0,0-3.023,4.128,22.5,22.5,0,0,0-1.066,2.5,23.694,23.694,0,0,1-4.649-1.683,18.341,18.341,0,0,1,1.451-1.321.65.65,0,1,0-.823-1.008,19.808,19.808,0,0,0-2.154,2.049.6.6,0,0,0-.05.056,19.9,19.9,0,0,0-2.943,4.282,2.449,2.449,0,0,0-.3-.137A2.513,2.513,0,0,0,2642,5172h0a2.488,2.488,0,0,0,.875.158,2.522,2.522,0,0,0,2.049-1.056l3.06,1.14a.651.651,0,1,0,.454-1.219l-3.06-1.14a2.5,2.5,0,0,0-.214-1.282,2.6,2.6,0,0,0-.123-.234,18.58,18.58,0,0,1,2.618-4,24.475,24.475,0,0,0,5.149,1.925,34.5,34.5,0,0,0-1.406,9.421h-8.166c.019-.544.061-1.088.126-1.624a.65.65,0,0,0-1.291-.158,20.022,20.022,0,0,0-.148,2.433,19.8,19.8,0,0,0,.667,5.1,2.513,2.513,0,1,0,2.377,2.022l2.93-1.443a.65.65,0,1,0-.575-1.167l-2.931,1.443a2.445,2.445,0,0,0-.277-.272,18.417,18.417,0,0,1-.878-5.028h8.167c.009.564.027,1.128.06,1.684a.651.651,0,0,0,.649.612l.04,0a.65.65,0,0,0,.61-.688c-.032-.529-.049-1.067-.058-1.6h8.327v8.346a36.4,36.4,0,0,0-6.952.778c-.02-.065-.041-.13-.061-.2a.651.651,0,1,0-1.246.374c.012.041.025.08.037.12a24.482,24.482,0,0,0-5.152,1.925,18.381,18.381,0,0,1-1.229-1.6.651.651,0,0,0-1.074.734,19.713,19.713,0,0,0,1.645,2.087c.015.018.031.034.047.051a20.041,20.041,0,0,0,3.565,3.1,2.512,2.512,0,1,0-.544,4.967,2.551,2.551,0,0,0,.528-.056,2.51,2.51,0,0,0,1.344-4.138l1.778-2.739a.65.65,0,1,0-1.091-.708l-1.11,1.709a18.637,18.637,0,0,1-2.94-2.416,23.69,23.69,0,0,1,4.643-1.68,17.922,17.922,0,0,0,3.136,5.655,10.444,10.444,0,0,0,.969.981,18.326,18.326,0,0,1-3.1-1.052.65.65,0,1,0-.526,1.189,19.81,19.81,0,0,0,16.578-.282.651.651,0,1,0-.567-1.171,18.286,18.286,0,0,1-3.663,1.314,13.757,13.757,0,0,0,3.03-4.135,22.5,22.5,0,0,0,1.066-2.5,23.671,23.671,0,0,1,4.65,1.684,18.508,18.508,0,0,1-2.529,2.129l-1-1.27a.65.65,0,0,0-1.021.807l2.026,2.562a2.519,2.519,0,1,0,1.021-.807l-.213-.269a19.752,19.752,0,0,0,3.242-2.866l.013-.014a19.787,19.787,0,0,0,1.635-2.061.65.65,0,1,0-1.071-.738,18.748,18.748,0,0,1-1.184,1.535,24.479,24.479,0,0,0-5.15-1.926,34.513,34.513,0,0,0,1.406-9.421h8.166a18.436,18.436,0,0,1-.768,4.667,2.506,2.506,0,0,0-.851.633l-2.93-1.443a.651.651,0,1,0-.575,1.167l2.931,1.443a2.511,2.511,0,1,0,4.841-.322Zm-8.358-25.946a1.212,1.212,0,1,1,1.446,1.944h0a1.212,1.212,0,0,1-1.446-1.944Zm-25.3,1.159a1.212,1.212,0,0,1,.969-1.935,1.3,1.3,0,0,1,.179.013,1.212,1.212,0,1,1-1.148,1.922Zm-6.661,12.413h0a1.212,1.212,0,1,1,1.558-.712A1.213,1.213,0,0,1,2642.457,5170.776Zm8.635,25.058a1.212,1.212,0,1,1-1.269-1.845,1.221,1.221,0,0,1,.255-.027,1.212,1.212,0,0,1,1.014,1.872Zm23.332-1.968a1.208,1.208,0,1,1-.143-.008A1.288,1.288,0,0,1,2674.423,5193.866Zm-18.973-30.731c1.544-3.061,3.506-4.871,5.584-5.185v8.106a35.1,35.1,0,0,1-6.535-.716A21.12,21.12,0,0,1,2655.45,5163.135Zm-12.408,21.911a1.212,1.212,0,1,1,.552-1.623h0A1.213,1.213,0,0,1,2643.042,5185.046Zm9.663-9.343a33.071,33.071,0,0,1,1.375-9.124,36.308,36.308,0,0,0,6.954.778v8.346Zm1.794,11.664a35.107,35.107,0,0,1,6.534-.716v8.108C2658.471,5194.362,2656.068,5191.638,2654.5,5187.368Zm13.419,2.206c-1.544,3.061-3.506,4.87-5.584,5.185v-8.106a35.064,35.064,0,0,1,6.535.717A21.113,21.113,0,0,1,2667.919,5189.573Zm1.37-3.444a36.346,36.346,0,0,0-6.954-.779V5177h8.329A33.077,33.077,0,0,1,2669.289,5186.129Zm12.2-1.634a1.211,1.211,0,1,1,.061-.925A1.206,1.206,0,0,1,2681.486,5184.495Z" transform="translate(-2639.993 -5155.127)" fill="#0f2771"/>
                  </g>
                </g>
              </g>
            </g>
          </g>
        </g>
      </g>
    </g>
  </g>
</svg>
