<svg xmlns="http://www.w3.org/2000/svg" width="190" height="89.947" viewBox="0 0 190 89.947">
  <g id="Grupo_222382" data-name="Grupo 222382" transform="translate(-180 -11297.837)">
    <g id="Grupo_222381" data-name="Grupo 222381">
      <g id="Grupo_210449" data-name="Grupo 210449" transform="translate(0 14.771)">
        <g id="Grupo_208013" data-name="Grupo 208013" transform="translate(0 10901.014)">
          <rect id="Rect치ngulo_41430" data-name="Rect치ngulo 41430" width="85" height="28" rx="14" transform="translate(285 383)" fill="#feca2e" opacity="0.2"/>
          <rect id="Rect치ngulo_41431" data-name="Rect치ngulo 41431" width="85" height="28" rx="14" transform="translate(180 444)" fill="#4dd0e1" opacity="0.2"/>
        </g>
        <g id="Grupo_210440" data-name="Grupo 210440" transform="translate(227.498 11283.066)">
          <path id="Trazado_221905" data-name="Trazado 221905" d="M449.88,103.3a1.328,1.328,0,0,1-1.328-1.329V95.456a1.328,1.328,0,1,1,2.656,0v6.518A1.329,1.329,0,0,1,449.88,103.3Z" transform="translate(-405.288 -81.957)" fill="#0f2771"/>
          <path id="Trazado_221906" data-name="Trazado 221906" d="M443.632,104.977a1.331,1.331,0,0,1-1.151-.664l-3.259-5.645a1.328,1.328,0,1,1,2.3-1.328l3.259,5.645a1.328,1.328,0,0,1-1.15,1.992Z" transform="translate(-411.328 -80.339)" fill="#0f2771"/>
          <path id="Trazado_221907" data-name="Trazado 221907" d="M439.056,109.551a1.317,1.317,0,0,1-.662-.178l-5.645-3.261a1.328,1.328,0,1,1,1.328-2.3l5.645,3.259a1.329,1.329,0,0,1-.666,2.479Z" transform="translate(-415.749 -75.917)" fill="#0f2771"/>
          <path id="Trazado_221908" data-name="Trazado 221908" d="M437.385,115.8h-6.52a1.328,1.328,0,0,1,0-2.656h6.52a1.328,1.328,0,1,1,0,2.656Z" transform="translate(-417.368 -69.878)" fill="#0f2771"/>
          <path id="Trazado_221909" data-name="Trazado 221909" d="M433.413,126.574a1.328,1.328,0,0,1-.664-2.479l5.645-3.259a1.328,1.328,0,0,1,1.328,2.3l-5.645,3.259A1.325,1.325,0,0,1,433.413,126.574Z" transform="translate(-415.749 -65.105)" fill="#0f2771"/>
          <path id="Trazado_221910" data-name="Trazado 221910" d="M440.372,134.459a1.328,1.328,0,0,1-1.149-1.992l3.259-5.647a1.328,1.328,0,0,1,2.3,1.328l-3.259,5.646A1.331,1.331,0,0,1,440.372,134.459Z" transform="translate(-411.328 -61.611)" fill="#0f2771"/>
          <path id="Trazado_221911" data-name="Trazado 221911" d="M449.88,137.345a1.327,1.327,0,0,1-1.328-1.328V129.5a1.328,1.328,0,1,1,2.656,0v6.518A1.328,1.328,0,0,1,449.88,137.345Z" transform="translate(-405.288 -60.331)" fill="#0f2771"/>
          <path id="Trazado_221912" data-name="Trazado 221912" d="M462.9,109.551a1.329,1.329,0,0,1-.666-2.479l5.647-3.259a1.328,1.328,0,0,1,1.328,2.3l-5.645,3.261A1.323,1.323,0,0,1,462.9,109.551Z" transform="translate(-397.021 -75.917)" fill="#0f2771"/>
          <path id="Trazado_221913" data-name="Trazado 221913" d="M457.392,104.977a1.328,1.328,0,0,1-1.148-1.992L459.5,97.34a1.328,1.328,0,1,1,2.3,1.328l-3.259,5.645A1.327,1.327,0,0,1,457.392,104.977Z" transform="translate(-400.515 -80.339)" fill="#0f2771"/>
          <path id="Trazado_221914" data-name="Trazado 221914" d="M445.52,99.532a1.327,1.327,0,0,1-1.282-.984l-.563-2.1a1.328,1.328,0,1,1,2.566-.687l.563,2.1a1.33,1.33,0,0,1-1.284,1.673Z" transform="translate(-408.415 -81.546)" fill="#0f2771"/>
          <path id="Trazado_221915" data-name="Trazado 221915" d="M437.971,103.89a1.318,1.318,0,0,1-.939-.389l-1.537-1.537a1.328,1.328,0,1,1,1.879-1.877l1.537,1.537a1.329,1.329,0,0,1-.94,2.266Z" transform="translate(-413.83 -78.419)" fill="#0f2771"/>
          <path id="Trazado_221916" data-name="Trazado 221916" d="M433.612,111.441a1.314,1.314,0,0,1-.343-.046l-2.1-.563a1.328,1.328,0,0,1,.687-2.566l2.1.563a1.329,1.329,0,0,1-.343,2.611Z" transform="translate(-416.956 -73.004)" fill="#0f2771"/>
          <path id="Trazado_221917" data-name="Trazado 221917" d="M431.511,120.939a1.328,1.328,0,0,1-.342-2.61l2.1-.563a1.327,1.327,0,0,1,.687,2.564l-2.1.563A1.317,1.317,0,0,1,431.511,120.939Z" transform="translate(-416.956 -66.971)" fill="#0f2771"/>
          <path id="Trazado_221918" data-name="Trazado 221918" d="M436.435,129.841a1.328,1.328,0,0,1-.94-2.266l1.537-1.537a1.328,1.328,0,1,1,1.877,1.879l-1.535,1.535A1.324,1.324,0,0,1,436.435,129.841Z" transform="translate(-413.83 -61.934)" fill="#0f2771"/>
          <path id="Trazado_221919" data-name="Trazado 221919" d="M444.959,134.982a1.33,1.33,0,0,1-1.284-1.673l.563-2.1a1.328,1.328,0,1,1,2.566.687l-.563,2.1A1.329,1.329,0,0,1,444.959,134.982Z" transform="translate(-408.415 -59.026)" fill="#0f2771"/>
          <path id="Trazado_221920" data-name="Trazado 221920" d="M455.019,134.982a1.327,1.327,0,0,1-1.282-.984l-.562-2.1a1.328,1.328,0,1,1,2.566-.687l.561,2.1a1.33,1.33,0,0,1-1.282,1.673Z" transform="translate(-402.381 -59.027)" fill="#0f2771"/>
          <path id="Trazado_221921" data-name="Trazado 221921" d="M462.386,103.89a1.328,1.328,0,0,1-.94-2.266l1.537-1.537a1.328,1.328,0,0,1,1.879,1.877l-1.537,1.537A1.324,1.324,0,0,1,462.386,103.89Z" transform="translate(-397.344 -78.419)" fill="#0f2771"/>
          <path id="Trazado_221922" data-name="Trazado 221922" d="M454.458,99.532a1.33,1.33,0,0,1-1.284-1.673l.563-2.1a1.327,1.327,0,1,1,2.564.687l-.561,2.1A1.331,1.331,0,0,1,454.458,99.532Z" transform="translate(-402.381 -81.546)" fill="#0f2771"/>
          <path id="Trazado_221923" data-name="Trazado 221923" d="M463.921,165.982a37.471,37.471,0,1,1,0-74.942,38.164,38.164,0,0,1,35.215,24.128,1.327,1.327,0,1,1-2.471.971A35.492,35.492,0,0,0,463.921,93.7a34.815,34.815,0,0,0,0,69.63,34.505,34.505,0,0,0,14.915-3.347,1.328,1.328,0,1,1,1.14,2.4A37.15,37.15,0,0,1,463.921,165.982Z" transform="translate(-419.329 -83.918)" fill="#0f2771"/>
          <path id="Trazado_221924" data-name="Trazado 221924" d="M452.017,123.437a6.83,6.83,0,1,1,6.829-6.829A6.837,6.837,0,0,1,452.017,123.437Zm0-11a4.174,4.174,0,1,0,4.173,4.175A4.179,4.179,0,0,0,452.017,112.434Z" transform="translate(-407.426 -72.015)" fill="#0f2771"/>
          <path id="Trazado_221925" data-name="Trazado 221925" d="M449.88,116.809a1.327,1.327,0,0,1-1.328-1.328V104.219a1.328,1.328,0,1,1,2.656,0v11.262A1.328,1.328,0,0,1,449.88,116.809Z" transform="translate(-405.288 -76.39)" fill="#0f2771"/>
          <path id="Trazado_221926" data-name="Trazado 221926" d="M449.15,115.8h-6.785a1.328,1.328,0,1,1,0-2.656h6.785a1.328,1.328,0,1,1,0,2.656Z" transform="translate(-410.062 -69.878)" fill="#0f2771"/>
          <path id="Trazado_221927" data-name="Trazado 221927" d="M472.638,126.191a9.039,9.039,0,1,1,9.038-9.04A9.05,9.05,0,0,1,472.638,126.191Zm0-15.422a6.383,6.383,0,1,0,6.382,6.382A6.39,6.39,0,0,0,472.638,110.769Z" transform="translate(-395.73 -73.073)" fill="#0f2771"/>
          <path id="Trazado_221928" data-name="Trazado 221928" d="M492.028,145.161H460.285a2.228,2.228,0,0,1-2.226-2.226V126.188a5.323,5.323,0,0,1,3.38-4.934l6.752-2.613a1.327,1.327,0,0,1,.958,2.476l-6.75,2.613a2.652,2.652,0,0,0-1.684,2.458v16.318H491.6V126.188a2.652,2.652,0,0,0-1.684-2.458l-6.75-2.613a1.327,1.327,0,1,1,.958-2.476l6.75,2.613a5.322,5.322,0,0,1,3.382,4.934v16.748A2.228,2.228,0,0,1,492.028,145.161Z" transform="translate(-399.249 -66.442)" fill="#0f2771"/>
          <path id="Trazado_221929" data-name="Trazado 221929" d="M475.649,140.628a1.328,1.328,0,0,1-1.328-1.328V127.016a1.329,1.329,0,0,1,2.657,0V139.3A1.328,1.328,0,0,1,475.649,140.628Z" transform="translate(-388.919 -61.909)" fill="#0f2771"/>
          <path id="Trazado_221930" data-name="Trazado 221930" d="M463.634,140.628a1.328,1.328,0,0,1-1.328-1.328V127.016a1.328,1.328,0,1,1,2.656,0V139.3A1.327,1.327,0,0,1,463.634,140.628Z" transform="translate(-396.551 -61.909)" fill="#0f2771"/>
          <path id="Trazado_221931" data-name="Trazado 221931" d="M466.686,175.87a44.592,44.592,0,1,1,42.644-57.664,1.328,1.328,0,0,1-2.54.778,41.948,41.948,0,1,0-12.76,44.088,1.328,1.328,0,1,1,1.733,2.013A44.583,44.583,0,0,1,466.686,175.87Z" transform="translate(-422.095 -86.685)" fill="#0f2771"/>
        </g>
      </g>
    </g>
  </g>
</svg>
