<svg xmlns="http://www.w3.org/2000/svg" width="190" height="96.484" viewBox="0 0 190 96.484">
  <g id="Grupo_222352" data-name="Grupo 222352" transform="translate(-180 -4493)">
    <g id="Grupo_222351" data-name="Grupo 222351">
      <g id="Grupo_210452" data-name="Grupo 210452" transform="translate(0 140.6)">
        <g id="Grupo_207478" data-name="Grupo 207478" transform="translate(0 3976.884)">
          <rect id="Rect치ngulo_41430" data-name="Rect치ngulo 41430" width="85" height="28" rx="14" transform="translate(285 383)" fill="#feca2e" opacity="0.2"/>
          <rect id="Rect치ngulo_41431" data-name="Rect치ngulo 41431" width="85" height="28" rx="14" transform="translate(180 444)" fill="#4dd0e1" opacity="0.2"/>
        </g>
        <g id="Grupo_210446" data-name="Grupo 210446" transform="translate(236.328 4352.4)">
          <path id="Trazado_222033" data-name="Trazado 222033" d="M309.4,295.12h-4.924a1.351,1.351,0,0,1-1.35-1.35V273.389a1.35,1.35,0,0,1,1.35-1.35H309.4a1.35,1.35,0,0,1,1.35,1.35V293.77A1.351,1.351,0,0,1,309.4,295.12Zm-3.574-2.7h2.223V274.739h-2.223Z" transform="translate(-245.605 -199.324)" fill="#0f2771"/>
          <path id="Trazado_222034" data-name="Trazado 222034" d="M308.453,251.673a8.429,8.429,0,1,1,4-1.019A8.407,8.407,0,0,1,308.453,251.673Zm-.008-14.139a5.719,5.719,0,1,0,1.627.238A5.729,5.729,0,0,0,308.445,237.534Z" transform="translate(-247.664 -223.97)" fill="#0f2771"/>
          <path id="Trazado_222035" data-name="Trazado 222035" d="M304.981,269.778l-12.759-.035a3.4,3.4,0,0,1-3.391-3.41,3.406,3.406,0,0,1,3.4-3.393l9.734.027a.478.478,0,0,0,.446-.306,1.4,1.4,0,0,1,.178-.319L311.4,250.5a1.35,1.35,0,1,1,2.166,1.613l-8.72,11.715a3.194,3.194,0,0,1-2.881,1.84l-9.734-.027a.7.7,0,0,0-.5,1.2.69.69,0,0,0,.494.206l12.751.033a.475.475,0,0,0,.439-.288,1.355,1.355,0,0,1,.146-.258l6.773-9.408a1.35,1.35,0,1,1,2.191,1.579l-6.7,9.3A3.169,3.169,0,0,1,304.981,269.778Z" transform="translate(-255.077 -213.953)" fill="#0f2771"/>
          <path id="Trazado_222036" data-name="Trazado 222036" d="M315.689,263.037H272.642a1.351,1.351,0,0,1,0-2.7h43.047a1.351,1.351,0,0,1,0,2.7Z" transform="translate(-266.695 -207.076)" fill="#0f2771"/>
          <path id="Trazado_222037" data-name="Trazado 222037" d="M317.947,276.683H301.172a2.841,2.841,0,0,1-2.838-2.838v-1.9a2.842,2.842,0,0,1,2.838-2.838h14.874a4.745,4.745,0,0,1,4.74,4.741A2.841,2.841,0,0,1,317.947,276.683ZM301.172,271.8a.138.138,0,0,0-.138.138v1.9a.138.138,0,0,0,.138.138h16.776a.138.138,0,0,0,.138-.138,2.043,2.043,0,0,0-2.04-2.041Z" transform="translate(-248.782 -201.268)" fill="#0f2771"/>
          <path id="Trazado_222038" data-name="Trazado 222038" d="M339.631,287H269.877a1.35,1.35,0,0,1,0-2.7h69.754a1.35,1.35,0,0,1,0,2.7Z" transform="translate(-268.527 -191.202)" fill="#0f2771"/>
          <path id="Trazado_222039" data-name="Trazado 222039" d="M294.665,312.177a4.859,4.859,0,0,1-4.853-4.854V280.866a3.662,3.662,0,0,1,3.657-3.657h13.374a.589.589,0,0,0,.587-.585l.03-10.771a1.35,1.35,0,1,1,2.7.008l-.03,10.769a3.293,3.293,0,0,1-3.287,3.28H293.469a.957.957,0,0,0-.958.956v26.456a2.154,2.154,0,1,0,4.307,0V287.071a2.857,2.857,0,0,1,2.853-2.854H316.23a2.278,2.278,0,0,0,2.276-2.274v-3.1l.1-25.645a4.191,4.191,0,0,0-4.548-4.2,4.377,4.377,0,0,0-3.834,4.442l-.05,4.349a1.39,1.39,0,0,1-1.365,1.335,1.351,1.351,0,0,1-1.335-1.365l.05-4.341a7.09,7.09,0,0,1,6.312-7.112,6.894,6.894,0,0,1,7.469,6.9l-.1,28.727a4.981,4.981,0,0,1-4.976,4.974H299.672a.154.154,0,0,0-.153.155v20.252A4.86,4.86,0,0,1,294.665,312.177Z" transform="translate(-254.427 -216.38)" fill="#0f2771"/>
          <path id="Trazado_222040" data-name="Trazado 222040" d="M309.4,287h-4.924a1.35,1.35,0,0,1,0-2.7H309.4a1.35,1.35,0,0,1,0,2.7Z" transform="translate(-245.605 -191.202)" fill="#0f2771"/>
          <path id="Trazado_222041" data-name="Trazado 222041" d="M276.524,287h-3.511a1.35,1.35,0,1,1,0-2.7h3.511a1.35,1.35,0,1,1,0,2.7Z" transform="translate(-266.45 -191.202)" fill="#0f2771"/>
          <path id="Trazado_222042" data-name="Trazado 222042" d="M283.767,302.955a4.939,4.939,0,0,1-4.932-4.932V265.35a4.932,4.932,0,1,1,9.865,0v32.672A4.939,4.939,0,0,1,283.767,302.955Zm0-39.837a2.234,2.234,0,0,0-2.231,2.233v32.672a2.232,2.232,0,0,0,4.464,0V265.35A2.234,2.234,0,0,0,283.767,263.118Z" transform="translate(-261.699 -207.022)" fill="#0f2771"/>
          <path id="Trazado_222043" data-name="Trazado 222043" d="M311.565,284.469a1.35,1.35,0,0,1-1.35-1.35V256.455a1.35,1.35,0,1,1,2.7,0v26.664A1.35,1.35,0,0,1,311.565,284.469Z" transform="translate(-240.911 -210.542)" fill="#0f2771"/>
          <path id="Trazado_222044" data-name="Trazado 222044" d="M291.163,231.882a3.582,3.582,0,1,1-3.581-3.583A3.582,3.582,0,0,1,291.163,231.882Z" transform="translate(-258.277 -228.299)" fill="#0f2771"/>
          <path id="Trazado_222045" data-name="Trazado 222045" d="M298.192,231.882a3.583,3.583,0,1,1-3.583-3.583A3.583,3.583,0,0,1,298.192,231.882Z" transform="translate(-253.622 -228.299)" fill="#0f2771"/>
          <path id="Trazado_222046" data-name="Trazado 222046" d="M305.22,231.882a3.583,3.583,0,1,1-3.583-3.583A3.583,3.583,0,0,1,305.22,231.882Z" transform="translate(-248.966 -228.299)" fill="#0f2771"/>
        </g>
      </g>
    </g>
  </g>
</svg>
