<svg xmlns="http://www.w3.org/2000/svg" width="190" height="91.35" viewBox="0 0 190 91.35">
  <g id="Grupo_222351" data-name="Grupo 222351" transform="translate(-180 -2856.399)">
    <g id="Grupo_222350" data-name="Grupo 222350">
      <g id="Grupo_210453" data-name="Grupo 210453">
        <rect id="Rect치ngulo_41430" data-name="Rect치ngulo 41430" width="85" height="28" rx="14" transform="translate(285 2858.551)" fill="#feca2e" opacity="0.2"/>
        <rect id="Rect치ngulo_41431" data-name="Rect치ngulo 41431" width="85" height="28" rx="14" transform="translate(180 2919.551)" fill="#4dd0e1" opacity="0.2"/>
        <g id="Grupo_210436" data-name="Grupo 210436" transform="translate(219.287 2856.399)">
          <path id="Trazado_221820" data-name="Trazado 221820" d="M477,76.415a1.552,1.552,0,0,1-1.551-1.551,15.65,15.65,0,1,0-31.3,0,1.551,1.551,0,0,1-3.1,0,18.752,18.752,0,1,1,37.5,0A1.552,1.552,0,0,1,477,76.415Z" transform="translate(-406.412 14.935)" fill="#0f2771"/>
          <path id="Trazado_221821" data-name="Trazado 221821" d="M455.136,63.833a8.968,8.968,0,1,1,8.968-8.968A8.978,8.978,0,0,1,455.136,63.833Zm0-14.835A5.867,5.867,0,1,0,461,54.864,5.873,5.873,0,0,0,455.136,49Z" transform="translate(-401.751 5.643)" fill="#0f2771"/>
          <path id="Trazado_221822" data-name="Trazado 221822" d="M495.011,76.415a1.552,1.552,0,0,1-1.551-1.551,15.65,15.65,0,1,0-31.3,0,1.552,1.552,0,0,1-3.1,0,18.752,18.752,0,1,1,37.5,0A1.551,1.551,0,0,1,495.011,76.415Z" transform="translate(-390.024 14.935)" fill="#0f2771"/>
          <path id="Trazado_221823" data-name="Trazado 221823" d="M473.149,63.833a8.968,8.968,0,1,1,8.968-8.968A8.979,8.979,0,0,1,473.149,63.833Zm0-14.835a5.867,5.867,0,1,0,5.867,5.867A5.873,5.873,0,0,0,473.149,49Z" transform="translate(-385.363 5.643)" fill="#0f2771"/>
          <path id="Trazado_221824" data-name="Trazado 221824" d="M458.984,76.415a1.551,1.551,0,0,1-1.551-1.551,15.651,15.651,0,0,0-31.3,0,1.551,1.551,0,0,1-3.1,0,18.752,18.752,0,1,1,37.5,0A1.552,1.552,0,0,1,458.984,76.415Z" transform="translate(-422.8 14.935)" fill="#0f2771"/>
          <path id="Trazado_221825" data-name="Trazado 221825" d="M437.122,63.833a8.968,8.968,0,1,1,8.968-8.968A8.978,8.978,0,0,1,437.122,63.833Zm0-14.835a5.867,5.867,0,1,0,5.867,5.867A5.873,5.873,0,0,0,437.122,49Z" transform="translate(-418.14 5.643)" fill="#0f2771"/>
          <path id="Trazado_221826" data-name="Trazado 221826" d="M424.461,63.435a1.55,1.55,0,0,1-1.467-2.053l4.431-12.948a15.161,15.161,0,0,1-3.644-9.723c0-9.847,10.17-17.856,22.669-17.856s22.667,8.01,22.667,17.856S458.947,56.57,446.45,56.57a27.925,27.925,0,0,1-8.749-1.377l-12.4,7.994A1.551,1.551,0,0,1,424.461,63.435ZM446.45,23.956c-10.79,0-19.568,6.619-19.568,14.755a12.312,12.312,0,0,0,3.443,8.334,1.553,1.553,0,0,1,.323,1.549l-3.273,9.566,9.28-5.983a1.551,1.551,0,0,1,1.369-.155,24.668,24.668,0,0,0,8.426,1.446c10.788,0,19.566-6.619,19.566-14.757S457.238,23.956,446.45,23.956Z" transform="translate(-422.91 -17.139)" fill="#0f2771"/>
          <circle id="Elipse_16210" data-name="Elipse 16210" cx="2.916" cy="2.916" r="2.916" transform="translate(20.722 18.374)" fill="#0f2771"/>
          <circle id="Elipse_16211" data-name="Elipse 16211" cx="2.916" cy="2.916" r="2.916" transform="translate(29.78 18.374)" fill="#0f2771"/>
          <circle id="Elipse_16212" data-name="Elipse 16212" cx="2.916" cy="2.916" r="2.916" transform="translate(11.665 18.374)" fill="#0f2771"/>
          <path id="Trazado_221827" data-name="Trazado 221827" d="M499.838,61.489a1.54,1.54,0,0,1-.84-.248l-12.4-7.994a27.913,27.913,0,0,1-8.747,1.377c-12.5,0-22.669-8.011-22.669-17.858s10.169-17.856,22.669-17.856,22.667,8.01,22.667,17.856a15.161,15.161,0,0,1-3.644,9.723L501.3,59.436a1.55,1.55,0,0,1-1.467,2.053ZM486.8,49.983a1.547,1.547,0,0,1,.84.248l9.28,5.983-3.273-9.566a1.553,1.553,0,0,1,.323-1.549,12.311,12.311,0,0,0,3.443-8.334c0-8.136-8.777-14.755-19.566-14.755s-19.566,6.619-19.566,14.755,8.775,14.755,19.566,14.755a24.683,24.683,0,0,0,8.426-1.444A1.527,1.527,0,0,1,486.8,49.983Z" transform="translate(-393.55 -18.909)" fill="#0f2771"/>
          <circle id="Elipse_16213" data-name="Elipse 16213" cx="2.916" cy="2.916" r="2.916" transform="translate(81.285 14.657)" fill="#0f2771"/>
          <path id="Trazado_221828" data-name="Trazado 221828" d="M460.73,29.5a2.916,2.916,0,1,0,2.916-2.916A2.914,2.914,0,0,0,460.73,29.5Z" transform="translate(-388.503 -11.927)" fill="#0f2771"/>
          <circle id="Elipse_16214" data-name="Elipse 16214" cx="2.916" cy="2.916" r="2.916" transform="translate(90.342 14.657)" fill="#0f2771"/>
          <circle id="Elipse_16215" data-name="Elipse 16215" cx="2.916" cy="2.916" r="2.916" transform="translate(51.011 17.289)" fill="#0f2771"/>
          <path id="Trazado_221829" data-name="Trazado 221829" d="M459.521,56a26.208,26.208,0,0,1-15.494-4.815,1.55,1.55,0,0,1-.107-2.408,12.843,12.843,0,0,0,4.679-9.551c0-3.99-2.1-7.736-5.914-10.546a1.552,1.552,0,0,1-.107-2.41,25.744,25.744,0,0,1,16.943-5.985A26.776,26.776,0,0,1,473.861,24.3a1.552,1.552,0,0,1,.263,2.4l-.094.092a15.509,15.509,0,0,0-1.079,1.224,13.888,13.888,0,0,0-.877,1.249,11.659,11.659,0,0,0-1.847,6.247,12.411,12.411,0,0,0,3.756,8.678c.185.189.376.378.573.561a17.978,17.978,0,0,0,2.572,1.992,1.551,1.551,0,0,1,.262,2.4C473.068,53.5,466.554,56,459.521,56ZM447.4,49.709A23.69,23.69,0,0,0,459.521,52.9a22.7,22.7,0,0,0,14.3-4.706c-.483-.376-.945-.77-1.381-1.178-.233-.218-.458-.441-.68-.668a15.447,15.447,0,0,1-4.633-10.836,14.722,14.722,0,0,1,2.319-7.889,16.888,16.888,0,0,1,1.071-1.526l.082-.1a24.215,24.215,0,0,0-11.077-2.6,23.277,23.277,0,0,0-13.447,4.058A15.948,15.948,0,0,1,451.7,39.228,15.449,15.449,0,0,1,447.4,49.709Z" transform="translate(-405.494 -17.655)" fill="#0f2771"/>
          <path id="Trazado_221830" data-name="Trazado 221830" d="M457.279,33.794a2.892,2.892,0,0,0,1.218-.275,12.928,12.928,0,0,1-1.02-4.99c0-.183.013-.363.021-.544-.075-.006-.143-.023-.22-.023a2.916,2.916,0,0,0,0,5.832Z" transform="translate(-394.296 -10.673)" fill="#0f2771"/>
          <path id="Trazado_221831" data-name="Trazado 221831" d="M446.832,27.962a2.859,2.859,0,0,0-.9.157,12.856,12.856,0,0,1,.686,4.127,12.515,12.515,0,0,1-.092,1.518c.1.01.2.031.3.031a2.916,2.916,0,0,0,0-5.832Z" transform="translate(-401.964 -10.673)" fill="#0f2771"/>
        </g>
      </g>
    </g>
  </g>
</svg>
