<svg xmlns="http://www.w3.org/2000/svg" width="236.453" height="215.898" viewBox="0 0 236.453 215.898">
  <g id="Grupo_222434" data-name="Grupo 222434" transform="translate(-392.686 -16214)">
    <g id="Grupo_222433" data-name="Grupo 222433">
      <g id="Grupo_208059" data-name="Grupo 208059" transform="translate(392.687 16214)">
        <g id="Grupo_140162" data-name="Grupo 140162" transform="translate(0 26.272)">
          <rect id="Rectángulo_295159" data-name="Rectángulo 295159" width="114.276" height="82.799" rx="0.956" fill="#f2b509"/>
          <path id="Trazado_196540" data-name="Trazado 196540" d="M380.683,194.51H271.794a1.783,1.783,0,0,1-1.782-1.782V118.9H382.465v73.833A1.782,1.782,0,0,1,380.683,194.51Z" transform="translate(-269.156 -112.509)" fill="#fff"/>
          <path id="Trazado_196541" data-name="Trazado 196541" d="M380.809,121.062l-110.8-.912V118.9H382.465v73.833C382.465,193.712,380.809,121.062,380.809,121.062Z" transform="translate(-269.156 -112.509)" fill="#d6d6d6"/>
          <ellipse id="Elipse_5278" data-name="Elipse 5278" cx="56.059" cy="0.428" rx="56.059" ry="0.428" transform="translate(1.19 0.684)" fill="#ffdb75"/>
          <path id="Trazado_196542" data-name="Trazado 196542" d="M273.778,122.051l-.7.7,1.277,1.277-1.277,1.278.7.7,1.981-1.981Z" transform="translate(-266.376 -109.644)" fill="#76a9ab"/>
          <path id="Trazado_196543" data-name="Trazado 196543" d="M275.234,124.6l-.7.7,1.277,1.277-1.277,1.278.7.7,1.981-1.981Z" transform="translate(-265.054 -107.331)" fill="#76a9ab"/>
          <path id="Trazado_196544" data-name="Trazado 196544" d="M273.778,129.692l-.7.7,1.277,1.277-1.277,1.278.7.7,1.981-1.981Z" transform="translate(-266.376 -102.706)" fill="#76a9ab"/>
          <path id="Trazado_196545" data-name="Trazado 196545" d="M275.961,127.145l-.7.7,1.277,1.277-1.277,1.278.7.7,1.982-1.981Z" transform="translate(-264.394 -105.018)" fill="#76a9ab"/>
          <path id="Trazado_196546" data-name="Trazado 196546" d="M275.961,132.239l-.7.7,1.277,1.277-1.277,1.278.7.7,1.982-1.981Z" transform="translate(-264.394 -100.393)" fill="#76a9ab"/>
          <rect id="Rectángulo_295160" data-name="Rectángulo 295160" width="16.245" height="1.678" transform="translate(13.306 13.55)" fill="#8a8a8a"/>
          <rect id="Rectángulo_295161" data-name="Rectángulo 295161" width="16.245" height="1.678" transform="translate(41.755 13.55)" fill="#8a8a8a"/>
          <rect id="Rectángulo_295162" data-name="Rectángulo 295162" width="29.944" height="1.678" transform="translate(14.591 18.409)" fill="#8a8a8a"/>
          <rect id="Rectángulo_295163" data-name="Rectángulo 295163" width="29.944" height="1.678" transform="translate(46.15 18.409)" fill="#8a8a8a"/>
          <rect id="Rectángulo_295164" data-name="Rectángulo 295164" width="29.944" height="1.678" transform="translate(64.233 23.269)" fill="#8a8a8a"/>
          <rect id="Rectángulo_295165" data-name="Rectángulo 295165" width="28.753" height="1.678" transform="translate(10.517 28.129)" fill="#8a8a8a"/>
          <rect id="Rectángulo_295166" data-name="Rectángulo 295166" width="45.629" height="1.678" transform="translate(15.492 23.269)" fill="#8a8a8a"/>
          <rect id="Rectángulo_295167" data-name="Rectángulo 295167" width="45.629" height="1.678" transform="translate(51.439 28.129)" fill="#8a8a8a"/>
          <rect id="Rectángulo_295168" data-name="Rectángulo 295168" width="45.629" height="1.678" transform="translate(46.659 32.988)" fill="#8a8a8a"/>
          <rect id="Rectángulo_295169" data-name="Rectángulo 295169" width="29.944" height="1.678" transform="translate(14.591 32.988)" fill="#8a8a8a"/>
          <rect id="Rectángulo_295170" data-name="Rectángulo 295170" width="7.37" height="1.678" transform="translate(31.552 13.55)" fill="#8a8a8a"/>
          <rect id="Rectángulo_295171" data-name="Rectángulo 295171" width="7.37" height="1.678" transform="translate(60.548 13.55)" fill="#8a8a8a"/>
          <rect id="Rectángulo_295172" data-name="Rectángulo 295172" width="7.37" height="1.678" transform="translate(70.568 13.55)" fill="#8a8a8a"/>
          <rect id="Rectángulo_295173" data-name="Rectángulo 295173" width="7.37" height="1.678" transform="translate(77.938 18.409)" fill="#8a8a8a"/>
          <rect id="Rectángulo_295174" data-name="Rectángulo 295174" width="7.37" height="1.678" transform="translate(96.137 23.269)" fill="#8a8a8a"/>
          <rect id="Rectángulo_295175" data-name="Rectángulo 295175" width="7.37" height="1.678" transform="translate(41.755 28.129)" fill="#8a8a8a"/>
          <rect id="Rectángulo_295176" data-name="Rectángulo 295176" width="7.37" height="1.678" transform="translate(87.268 18.409)" fill="#8a8a8a"/>
          <path id="Trazado_196547" data-name="Trazado 196547" d="M273.778,134.814l-.7.7,1.277,1.278-1.277,1.277.7.7,1.981-1.981Z" transform="translate(-266.376 -98.056)" fill="#76a9ab"/>
          <path id="Trazado_196548" data-name="Trazado 196548" d="M275.234,137.361l-.7.7,1.277,1.277-1.277,1.277.7.7,1.981-1.981Z" transform="translate(-265.054 -95.743)" fill="#76a9ab"/>
          <path id="Trazado_196549" data-name="Trazado 196549" d="M273.778,142.455l-.7.7,1.277,1.278-1.277,1.277.7.7,1.981-1.981Z" transform="translate(-266.376 -91.118)" fill="#76a9ab"/>
          <path id="Trazado_196550" data-name="Trazado 196550" d="M275.961,139.908l-.7.7,1.277,1.278-1.277,1.277.7.7,1.982-1.981Z" transform="translate(-264.394 -93.431)" fill="#76a9ab"/>
          <path id="Trazado_196551" data-name="Trazado 196551" d="M275.961,145l-.7.7,1.277,1.278-1.277,1.277.7.7,1.982-1.981Z" transform="translate(-264.394 -88.805)" fill="#76a9ab"/>
          <rect id="Rectángulo_295177" data-name="Rectángulo 295177" width="16.245" height="1.678" transform="translate(13.306 37.9)" fill="#8a8a8a"/>
          <rect id="Rectángulo_295178" data-name="Rectángulo 295178" width="16.245" height="1.678" transform="translate(41.755 37.9)" fill="#8a8a8a"/>
          <rect id="Rectángulo_295179" data-name="Rectángulo 295179" width="29.944" height="1.678" transform="translate(14.591 42.76)" fill="#8a8a8a"/>
          <rect id="Rectángulo_295180" data-name="Rectángulo 295180" width="29.944" height="1.678" transform="translate(46.15 42.76)" fill="#8a8a8a"/>
          <rect id="Rectángulo_295181" data-name="Rectángulo 295181" width="29.944" height="1.678" transform="translate(64.233 47.62)" fill="#8a8a8a"/>
          <rect id="Rectángulo_295182" data-name="Rectángulo 295182" width="28.753" height="1.678" transform="translate(10.517 52.479)" fill="#8a8a8a"/>
          <rect id="Rectángulo_295183" data-name="Rectángulo 295183" width="45.629" height="1.678" transform="translate(15.492 47.62)" fill="#8a8a8a"/>
          <rect id="Rectángulo_295184" data-name="Rectángulo 295184" width="45.629" height="1.678" transform="translate(51.439 52.479)" fill="#8a8a8a"/>
          <rect id="Rectángulo_295185" data-name="Rectángulo 295185" width="45.629" height="1.678" transform="translate(46.659 57.339)" fill="#8a8a8a"/>
          <rect id="Rectángulo_295186" data-name="Rectángulo 295186" width="29.944" height="1.678" transform="translate(14.591 57.339)" fill="#8a8a8a"/>
          <rect id="Rectángulo_295187" data-name="Rectángulo 295187" width="7.37" height="1.678" transform="translate(31.552 37.9)" fill="#8a8a8a"/>
          <rect id="Rectángulo_295188" data-name="Rectángulo 295188" width="7.37" height="1.678" transform="translate(60.548 37.9)" fill="#8a8a8a"/>
          <rect id="Rectángulo_295189" data-name="Rectángulo 295189" width="7.37" height="1.678" transform="translate(70.568 37.9)" fill="#8a8a8a"/>
          <rect id="Rectángulo_295190" data-name="Rectángulo 295190" width="7.37" height="1.678" transform="translate(77.938 42.76)" fill="#8a8a8a"/>
          <rect id="Rectángulo_295191" data-name="Rectángulo 295191" width="7.37" height="1.678" transform="translate(96.137 47.62)" fill="#8a8a8a"/>
          <rect id="Rectángulo_295192" data-name="Rectángulo 295192" width="7.37" height="1.678" transform="translate(41.755 52.479)" fill="#8a8a8a"/>
          <path id="Trazado_196552" data-name="Trazado 196552" d="M273.778,150l-.7.7,1.277,1.278-1.277,1.277.7.7,1.981-1.981Z" transform="translate(-266.376 -84.267)" fill="#76a9ab"/>
          <path id="Trazado_196553" data-name="Trazado 196553" d="M275.961,147.454l-.7.7,1.277,1.278-1.277,1.277.7.7,1.982-1.981Z" transform="translate(-264.394 -86.579)" fill="#76a9ab"/>
          <path id="Trazado_196554" data-name="Trazado 196554" d="M275.961,152.548l-.7.7,1.277,1.278-1.277,1.277.7.7,1.982-1.981Z" transform="translate(-264.394 -81.954)" fill="#76a9ab"/>
          <rect id="Rectángulo_295193" data-name="Rectángulo 295193" width="29.944" height="1.678" transform="translate(64.233 62.017)" fill="#8a8a8a"/>
          <rect id="Rectángulo_295194" data-name="Rectángulo 295194" width="28.753" height="1.678" transform="translate(10.517 66.877)" fill="#8a8a8a"/>
          <rect id="Rectángulo_295195" data-name="Rectángulo 295195" width="45.629" height="1.678" transform="translate(15.492 62.017)" fill="#8a8a8a"/>
          <rect id="Rectángulo_295196" data-name="Rectángulo 295196" width="45.629" height="1.678" transform="translate(51.439 66.877)" fill="#8a8a8a"/>
          <rect id="Rectángulo_295197" data-name="Rectángulo 295197" width="45.629" height="1.678" transform="translate(46.659 71.736)" fill="#8a8a8a"/>
          <rect id="Rectángulo_295198" data-name="Rectángulo 295198" width="29.944" height="1.678" transform="translate(14.591 71.736)" fill="#8a8a8a"/>
          <rect id="Rectángulo_295199" data-name="Rectángulo 295199" width="7.37" height="1.678" transform="translate(96.137 62.017)" fill="#8a8a8a"/>
          <rect id="Rectángulo_295200" data-name="Rectángulo 295200" width="7.37" height="1.678" transform="translate(41.755 66.877)" fill="#8a8a8a"/>
          <rect id="Rectángulo_295201" data-name="Rectángulo 295201" width="7.37" height="1.678" transform="translate(87.268 42.76)" fill="#8a8a8a"/>
          <path id="Trazado_196555" data-name="Trazado 196555" d="M321.1,118.233a1.555,1.555,0,1,1-1.555-1.555A1.555,1.555,0,0,1,321.1,118.233Z" transform="translate(-225.598 -114.521)" fill="#946e06"/>
          <path id="Trazado_196556" data-name="Trazado 196556" d="M320.481,118.034a1.137,1.137,0,1,1-1.137-1.137A1.138,1.138,0,0,1,320.481,118.034Z" transform="translate(-225.399 -114.323)" fill="#ff4040"/>
          <path id="Trazado_196557" data-name="Trazado 196557" d="M324,118.233a1.555,1.555,0,1,1-1.555-1.555A1.555,1.555,0,0,1,324,118.233Z" transform="translate(-222.967 -114.521)" fill="#946e06"/>
          <path id="Trazado_196558" data-name="Trazado 196558" d="M323.379,118.034a1.137,1.137,0,1,1-1.137-1.137A1.138,1.138,0,0,1,323.379,118.034Z" transform="translate(-222.768 -114.323)" fill="#eb6511"/>
          <path id="Trazado_196559" data-name="Trazado 196559" d="M326.893,118.233a1.555,1.555,0,1,1-1.555-1.555A1.554,1.554,0,0,1,326.893,118.233Z" transform="translate(-220.336 -114.521)" fill="#946e06"/>
          <path id="Trazado_196560" data-name="Trazado 196560" d="M326.278,118.034a1.138,1.138,0,1,1-1.139-1.137A1.138,1.138,0,0,1,326.278,118.034Z" transform="translate(-220.137 -114.323)" fill="#f2b509"/>
          <rect id="Rectángulo_295202" data-name="Rectángulo 295202" width="8.204" height="82.799" transform="translate(45.44)" fill="#303030" opacity="0.2"/>
        </g>
        <g id="Grupo_140163" data-name="Grupo 140163" transform="translate(53.644)">
          <rect id="Rectángulo_295203" data-name="Rectángulo 295203" width="159.856" height="110.479" fill="#4dd0e1"/>
          <rect id="Rectángulo_295204" data-name="Rectángulo 295204" width="4.373" height="4.373" transform="translate(123.354 3.903)" fill="#134c61"/>
          <rect id="Rectángulo_295205" data-name="Rectángulo 295205" width="4.373" height="4.373" transform="translate(131.815 3.903)" fill="#134c61"/>
          <rect id="Rectángulo_295206" data-name="Rectángulo 295206" width="4.373" height="4.373" transform="translate(140.018 3.903)" fill="#134c61"/>
          <rect id="Rectángulo_295207" data-name="Rectángulo 295207" width="156.196" height="1.783" transform="translate(1.83 1.069)" fill="#dbfaff"/>
          <rect id="Rectángulo_295208" data-name="Rectángulo 295208" width="156.196" height="96.83" transform="translate(1.83 11.351)" fill="#fff"/>
          <rect id="Rectángulo_295209" data-name="Rectángulo 295209" width="146.877" height="80.822" transform="translate(6.347 19.687)" fill="#4dd0e1"/>
          <path id="Trazado_196561" data-name="Trazado 196561" d="M307.295,113.675l-1.087,1.087,1.972,1.972-1.972,1.972,1.087,1.087,3.058-3.059Z" transform="translate(-289.937 -90.976)" fill="#fff"/>
          <path id="Trazado_196562" data-name="Trazado 196562" d="M309.542,117.607l-1.087,1.087,1.972,1.972-1.972,1.972,1.087,1.087,3.058-3.058Z" transform="translate(-287.897 -87.406)" fill="#fff"/>
          <path id="Trazado_196563" data-name="Trazado 196563" d="M307.295,125.47l-1.087,1.087,1.972,1.972-1.972,1.972,1.087,1.087,3.058-3.058Z" transform="translate(-289.937 -80.267)" fill="#fff"/>
          <path id="Trazado_196564" data-name="Trazado 196564" d="M310.665,121.538l-1.087,1.087,1.972,1.972-1.972,1.972,1.087,1.087,3.058-3.058Z" transform="translate(-286.877 -83.837)" fill="#fff"/>
          <path id="Trazado_196565" data-name="Trazado 196565" d="M310.665,129.4l-1.087,1.087,1.972,1.972-1.972,1.972,1.087,1.087,3.058-3.059Z" transform="translate(-286.877 -76.697)" fill="#fff"/>
          <rect id="Rectángulo_295210" data-name="Rectángulo 295210" width="25.075" height="2.59" transform="translate(26.471 24.463)" fill="#fff"/>
          <rect id="Rectángulo_295211" data-name="Rectángulo 295211" width="25.075" height="2.59" transform="translate(70.384 24.463)" fill="#fff"/>
          <rect id="Rectángulo_295212" data-name="Rectángulo 295212" width="46.221" height="2.59" transform="translate(28.454 31.964)" fill="#fff"/>
          <rect id="Rectángulo_295213" data-name="Rectángulo 295213" width="46.221" height="2.59" transform="translate(77.168 31.964)" fill="#fff"/>
          <rect id="Rectángulo_295214" data-name="Rectángulo 295214" width="44.383" height="2.59" transform="translate(22.166 46.967)" fill="#fff"/>
          <rect id="Rectángulo_295215" data-name="Rectángulo 295215" width="70.433" height="2.59" transform="translate(29.845 39.465)" fill="#fff"/>
          <rect id="Rectángulo_295216" data-name="Rectángulo 295216" width="46.221" height="2.59" transform="translate(28.454 54.468)" fill="#fff"/>
          <rect id="Rectángulo_295217" data-name="Rectángulo 295217" width="11.377" height="2.59" transform="translate(54.636 24.463)" fill="#fff"/>
          <rect id="Rectángulo_295218" data-name="Rectángulo 295218" width="11.377" height="2.59" transform="translate(99.392 24.463)" fill="#fff"/>
          <rect id="Rectángulo_295219" data-name="Rectángulo 295219" width="11.377" height="2.59" transform="translate(70.384 46.967)" fill="#fff"/>
          <path id="Trazado_196566" data-name="Trazado 196566" d="M307.295,133.376l-1.087,1.087,1.972,1.972-1.972,1.972,1.087,1.087,3.058-3.058Z" transform="translate(-289.937 -73.089)" fill="#fff"/>
          <rect id="Rectángulo_295220" data-name="Rectángulo 295220" width="25.075" height="2.59" transform="translate(26.471 62.05)" fill="#fff"/>
          <rect id="Rectángulo_295221" data-name="Rectángulo 295221" width="25.075" height="2.59" transform="translate(70.384 62.05)" fill="#fff"/>
          <rect id="Rectángulo_295222" data-name="Rectángulo 295222" width="11.377" height="2.59" transform="translate(54.636 62.05)" fill="#fff"/>
          <rect id="Rectángulo_295223" data-name="Rectángulo 295223" width="11.377" height="2.59" transform="translate(99.392 62.05)" fill="#fff"/>
          <path id="Trazado_196567" data-name="Trazado 196567" d="M307.295,137.887l-1.087,1.087,1.972,1.972-1.972,1.972L307.295,144l3.058-3.058Z" transform="translate(-289.937 -68.993)" fill="#fff"/>
          <path id="Trazado_196568" data-name="Trazado 196568" d="M309.542,141.818l-1.087,1.087,1.972,1.972-1.972,1.972,1.087,1.087,3.058-3.058Z" transform="translate(-287.897 -65.424)" fill="#fff"/>
          <path id="Trazado_196569" data-name="Trazado 196569" d="M307.295,149.682l-1.087,1.087,1.972,1.972-1.972,1.972,1.087,1.087,3.058-3.058Z" transform="translate(-289.937 -58.284)" fill="#fff"/>
          <path id="Trazado_196570" data-name="Trazado 196570" d="M310.665,145.75l-1.087,1.087,1.972,1.972-1.972,1.972,1.087,1.087,3.058-3.059Z" transform="translate(-286.877 -61.854)" fill="#fff"/>
          <rect id="Rectángulo_295224" data-name="Rectángulo 295224" width="25.075" height="2.59" transform="translate(26.471 70.657)" fill="#fff"/>
          <rect id="Rectángulo_295225" data-name="Rectángulo 295225" width="25.075" height="2.59" transform="translate(70.384 70.657)" fill="#fff"/>
          <rect id="Rectángulo_295226" data-name="Rectángulo 295226" width="46.221" height="2.59" transform="translate(28.454 78.158)" fill="#fff"/>
          <rect id="Rectángulo_295227" data-name="Rectángulo 295227" width="46.221" height="2.59" transform="translate(77.168 78.158)" fill="#fff"/>
          <rect id="Rectángulo_295228" data-name="Rectángulo 295228" width="44.383" height="2.59" transform="translate(22.166 93.161)" fill="#fff"/>
          <rect id="Rectángulo_295229" data-name="Rectángulo 295229" width="70.433" height="2.59" transform="translate(29.845 85.66)" fill="#fff"/>
          <rect id="Rectángulo_295230" data-name="Rectángulo 295230" width="11.377" height="2.59" transform="translate(54.636 70.657)" fill="#fff"/>
          <rect id="Rectángulo_295231" data-name="Rectángulo 295231" width="11.377" height="2.59" transform="translate(126.236 78.158)" fill="#fff"/>
          <rect id="Rectángulo_295232" data-name="Rectángulo 295232" width="11.377" height="2.59" transform="translate(70.384 93.161)" fill="#fff"/>
        </g>
        <g id="Grupo_140164" data-name="Grupo 140164" transform="translate(114.276 124.135)">
          <path id="Trazado_196596" data-name="Trazado 196596" d="M0,0H122.176V91.764H0Z" fill="#0f2771"/>
          <rect id="Rectángulo_295234" data-name="Rectángulo 295234" width="3.632" height="3.632" transform="translate(91.858 3.242)" fill="#b9ddfc"/>
          <rect id="Rectángulo_295235" data-name="Rectángulo 295235" width="3.632" height="3.632" transform="translate(98.885 3.242)" fill="#b9ddfc"/>
          <rect id="Rectángulo_295236" data-name="Rectángulo 295236" width="3.632" height="3.632" transform="translate(105.698 3.242)" fill="#b9ddfc"/>
          <rect id="Rectángulo_295237" data-name="Rectángulo 295237" width="119.136" height="1.481" transform="translate(1.52 0.888)" fill="#b9ddfc"/>
          <rect id="Rectángulo_295238" data-name="Rectángulo 295238" width="119.136" height="80.427" transform="translate(1.52 9.429)" fill="#fff"/>
          <rect id="Rectángulo_295239" data-name="Rectángulo 295239" width="119.071" height="80.416" transform="translate(1.52 9.429)" fill="#e8e8e8"/>
          <path id="Trazado_196571" data-name="Trazado 196571" d="M409.259,146.587a7.894,7.894,0,1,1-7.9-7.895A7.9,7.9,0,0,1,409.259,146.587Z" transform="translate(-314.192 -118.131)" fill="#333"/>
          <path id="Trazado_196572" data-name="Trazado 196572" d="M409.9,145.679A7.894,7.894,0,1,1,402,137.786,7.895,7.895,0,0,1,409.9,145.679Z" transform="translate(-313.615 -118.954)" fill="#949494"/>
          <ellipse id="Elipse_5279" data-name="Elipse 5279" cx="4.084" cy="4.084" rx="4.084" ry="4.084" transform="translate(86.155 20.287)" fill="#ababab"/>
          <path id="Trazado_196573" data-name="Trazado 196573" d="M382.566,139.489l.019-6.63-20.909,0c.488,7.136-3.476,10.585-8.961,12.293v21.086l2.885.011.04-10.274a21.935,21.935,0,0,0,6.79-2.789l7.242,7.3,7.019-6.968-7.243-7.3a21.888,21.888,0,0,0,2.841-6.769Z" transform="translate(-351.196 -123.429)" fill="#333"/>
          <path id="Trazado_196574" data-name="Trazado 196574" d="M363.349,149.094l-3.375,1.13,1.173,3.507a7.891,7.891,0,0,0-1.994,1.734l-3.31-1.652L354.254,157l3.31,1.65a7.909,7.909,0,0,0-.187,2.637l-3.507,1.172,1.13,3.375,3.507-1.171a7.881,7.881,0,0,0,1.734,1.992l-1.652,3.312,3.184,1.587,1.652-3.31a7.9,7.9,0,0,0,2.635.187l1.173,3.507,3.375-1.128-1.173-3.507a7.892,7.892,0,0,0,1.994-1.734l3.31,1.65,1.589-3.184-3.31-1.652a7.9,7.9,0,0,0,.187-2.635l3.507-1.171-1.13-3.377-3.507,1.173a7.929,7.929,0,0,0-1.734-1.994l1.652-3.31-3.184-1.589-1.652,3.31a7.954,7.954,0,0,0-2.635-.187Zm5.283,9.358a3.932,3.932,0,0,1-2.98,5.974,3.888,3.888,0,0,1-3.7-1.847,3.931,3.931,0,0,1,2.98-5.974A3.888,3.888,0,0,1,368.632,158.452Z" transform="translate(-350.147 -108.687)" fill="#333"/>
          <path id="Trazado_196575" data-name="Trazado 196575" d="M379.238,134.795l-4.993,1.669,1.734,5.188a11.728,11.728,0,0,0-2.948,2.564l-4.9-2.442-2.351,4.711,4.9,2.444a11.682,11.682,0,0,0-.277,3.9l-5.188,1.734,1.669,4.993,5.188-1.734a11.667,11.667,0,0,0,2.566,2.948l-2.444,4.9,4.713,2.351,2.442-4.9a11.694,11.694,0,0,0,3.9.277l1.734,5.188,4.993-1.669-1.734-5.188a11.69,11.69,0,0,0,2.948-2.564l4.9,2.442,2.349-4.711-4.9-2.444a11.632,11.632,0,0,0,.277-3.9l5.19-1.734-1.669-4.993-5.19,1.734a11.624,11.624,0,0,0-2.564-2.948l2.442-4.9-4.711-2.351-2.442,4.9a11.682,11.682,0,0,0-3.9-.277Zm7.815,13.842a5.809,5.809,0,1,1-5.476-2.732A5.753,5.753,0,0,1,387.053,148.637Z" transform="translate(-339.845 -121.67)" fill="#333"/>
          <path id="Trazado_196576" data-name="Trazado 196576" d="M408.416,151.328l-6.445,2.156,2.238,6.695a15.057,15.057,0,0,0-3.8,3.312l-6.321-3.154-3.035,6.081,6.321,3.154a15.151,15.151,0,0,0-.357,5.031l-6.695,2.238,2.154,6.447,6.7-2.24a15.132,15.132,0,0,0,3.31,3.806l-3.154,6.321,6.083,3.034,3.154-6.321a15.092,15.092,0,0,0,5.031.357l2.238,6.695,6.445-2.154-2.238-6.7a15.086,15.086,0,0,0,3.8-3.31l6.321,3.154,3.034-6.081-6.321-3.154a15.1,15.1,0,0,0,.357-5.031l6.7-2.24-2.156-6.445-6.7,2.238a15.047,15.047,0,0,0-3.31-3.8l3.154-6.321-6.081-3.034-3.154,6.321a15.1,15.1,0,0,0-5.031-.357ZM418.5,169.194a7.507,7.507,0,0,1-5.689,11.407,7.431,7.431,0,0,1-7.069-3.528,7.507,7.507,0,0,1,5.689-11.406A7.43,7.43,0,0,1,418.5,169.194Z" transform="translate(-317.056 -106.659)" fill="#333"/>
          <path id="Trazado_196577" data-name="Trazado 196577" d="M383.8,137.925l.019-5.066-20.909,0a10.9,10.9,0,0,1-10.194,10.877l0-.021v20.953l4.121.017.04-10.276a21.947,21.947,0,0,0,6.79-2.787l7.241,7.3,7.019-6.966-7.24-7.3a21.906,21.906,0,0,0,2.839-6.769Z" transform="translate(-351.196 -123.428)" fill="#949494"/>
          <path id="Trazado_196578" data-name="Trazado 196578" d="M364,148.275l-3.375,1.13,1.171,3.507a7.88,7.88,0,0,0-1.992,1.734l-3.312-1.652-1.589,3.184,3.312,1.652a7.9,7.9,0,0,0-.187,2.635l-3.507,1.173,1.128,3.375,3.507-1.173a7.894,7.894,0,0,0,1.734,1.994l-1.65,3.31,3.184,1.589,1.652-3.31a7.9,7.9,0,0,0,2.635.187l1.171,3.507,3.377-1.129-1.173-3.507a7.887,7.887,0,0,0,1.994-1.734l3.31,1.652,1.589-3.184-3.312-1.652a7.855,7.855,0,0,0,.187-2.635l3.509-1.173-1.129-3.375-3.507,1.172a7.918,7.918,0,0,0-1.734-1.992l1.65-3.31-3.184-1.589-1.65,3.31a7.914,7.914,0,0,0-2.637-.187Zm5.283,9.356a3.927,3.927,0,1,1-3.7-1.847A3.933,3.933,0,0,1,369.28,157.631Z" transform="translate(-349.559 -109.431)" fill="#949494"/>
          <path id="Trazado_196579" data-name="Trazado 196579" d="M379.886,133.975l-4.993,1.669,1.734,5.188a11.668,11.668,0,0,0-2.948,2.566l-4.9-2.444-2.351,4.713,4.9,2.442a11.681,11.681,0,0,0-.277,3.9l-5.188,1.736,1.669,4.993L372.722,157a11.726,11.726,0,0,0,2.564,2.948l-2.442,4.9,4.711,2.351L380,162.3a11.681,11.681,0,0,0,3.9.277l1.734,5.188,4.993-1.669-1.734-5.188a11.7,11.7,0,0,0,2.948-2.566l4.9,2.444,2.351-4.713-4.9-2.442a11.684,11.684,0,0,0,.277-3.9L399.652,148,397.983,143l-5.188,1.734a11.658,11.658,0,0,0-2.566-2.948l2.444-4.9-4.711-2.351-2.444,4.9a11.783,11.783,0,0,0-3.9-.277Zm7.815,13.842a5.815,5.815,0,0,1-4.409,8.838,5.753,5.753,0,0,1-5.476-2.732,5.817,5.817,0,0,1,4.409-8.837A5.756,5.756,0,0,1,387.7,147.817Z" transform="translate(-339.257 -122.414)" fill="#949494"/>
          <path id="Trazado_196580" data-name="Trazado 196580" d="M409.062,150.509l-6.445,2.154,2.24,6.7a15.131,15.131,0,0,0-3.806,3.31l-6.321-3.154L391.7,165.6l6.321,3.154a15.085,15.085,0,0,0-.357,5.031l-6.695,2.238,2.154,6.445,6.7-2.238a15.012,15.012,0,0,0,3.31,3.8l-3.154,6.323,6.082,3.032,3.154-6.321a15.037,15.037,0,0,0,5.031.357l2.238,6.7,6.445-2.156-2.24-6.695a15.063,15.063,0,0,0,3.806-3.312l6.321,3.154,3.034-6.081-6.323-3.154a14.992,14.992,0,0,0,.357-5.031l6.7-2.238-2.156-6.445-6.7,2.238a15.052,15.052,0,0,0-3.31-3.8l3.152-6.321-6.079-3.036-3.154,6.323a15.043,15.043,0,0,0-5.031-.357Zm10.087,17.866a7.506,7.506,0,0,1-5.691,11.406,7.425,7.425,0,0,1-7.067-3.526,7.506,7.506,0,0,1,5.689-11.406A7.429,7.429,0,0,1,419.149,168.375Z" transform="translate(-316.468 -107.402)" fill="#949494"/>
          <rect id="Rectángulo_295240" data-name="Rectángulo 295240" width="65.928" height="27.253" transform="translate(1.52 62.592)" fill="#828282"/>
          <path id="Trazado_196581" data-name="Trazado 196581" d="M361.944,187.975h-7.109l10.244-27.253h7.109Z" transform="translate(-349.271 -98.13)" fill="#ababab"/>
          <path id="Trazado_196582" data-name="Trazado 196582" d="M375.059,187.975h-13.5L371.8,160.722h13.5Z" transform="translate(-343.168 -98.13)" fill="#ababab"/>
          <path id="Trazado_196583" data-name="Trazado 196583" d="M388.06,164.708a2.4,2.4,0,1,1-2.406-2.4A2.4,2.4,0,0,1,388.06,164.708Z" transform="translate(-323.472 -96.694)" fill="#1a1a1a"/>
          <path id="Trazado_196584" data-name="Trazado 196584" d="M388.06,173.637a2.4,2.4,0,1,1-2.406-2.4A2.406,2.406,0,0,1,388.06,173.637Z" transform="translate(-323.472 -88.587)" fill="#1a1a1a"/>
          <path id="Trazado_196585" data-name="Trazado 196585" d="M471.787,213.274h-5.16l-.274-75.511-113.637-.274v-4.631H471.787Z" transform="translate(-351.195 -123.429)" fill="#303030" opacity="0.3"/>
        </g>
        <g id="Grupo_140165" data-name="Grupo 140165" transform="translate(38.631 92.291)">
          <path id="Trazado_218804" data-name="Trazado 218804" d="M0,0H107.313V63.688H0Z" fill="#d1a010"/>
          <rect id="Rectángulo_295242" data-name="Rectángulo 295242" width="107.313" height="45.223" transform="translate(0 9.623)" fill="#feca2e"/>
          <rect id="Rectángulo_295243" data-name="Rectángulo 295243" width="67.32" height="11.306" transform="translate(8.517 18.202)" fill="#fff"/>
          <rect id="Rectángulo_295244" data-name="Rectángulo 295244" width="11.179" height="11.306" transform="translate(8.517 18.202)" fill="#d1a010"/>
          <rect id="Rectángulo_295245" data-name="Rectángulo 295245" width="67.32" height="11.306" transform="translate(8.517 33.962)" fill="#fff"/>
          <rect id="Rectángulo_295246" data-name="Rectángulo 295246" width="11.179" height="11.306" transform="translate(8.517 33.962)" fill="#d1a010"/>
          <path id="Trazado_196586" data-name="Trazado 196586" d="M304.4,163.427a1.628,1.628,0,1,1-1.629-1.627A1.628,1.628,0,0,1,304.4,163.427Z" transform="translate(-279.522 -139.573)" fill="#3d2d02"/>
          <path id="Trazado_196587" data-name="Trazado 196587" d="M306.556,163.427a1.628,1.628,0,1,1-1.629-1.627A1.629,1.629,0,0,1,306.556,163.427Z" transform="translate(-277.565 -139.573)" fill="#3d2d02"/>
          <path id="Trazado_196588" data-name="Trazado 196588" d="M308.71,163.427a1.628,1.628,0,1,1-1.627-1.627A1.628,1.628,0,0,1,308.71,163.427Z" transform="translate(-275.61 -139.573)" fill="#3d2d02"/>
          <path id="Trazado_196589" data-name="Trazado 196589" d="M310.865,163.427a1.628,1.628,0,1,1-1.627-1.627A1.628,1.628,0,0,1,310.865,163.427Z" transform="translate(-273.653 -139.573)" fill="#3d2d02"/>
          <path id="Trazado_196590" data-name="Trazado 196590" d="M313.02,163.427a1.628,1.628,0,1,1-1.629-1.627A1.629,1.629,0,0,1,313.02,163.427Z" transform="translate(-271.697 -139.573)" fill="#3d2d02"/>
          <path id="Trazado_196591" data-name="Trazado 196591" d="M315.175,163.427a1.628,1.628,0,1,1-1.629-1.627A1.629,1.629,0,0,1,315.175,163.427Z" transform="translate(-269.74 -139.573)" fill="#3d2d02"/>
          <path id="Trazado_196592" data-name="Trazado 196592" d="M304.4,171.687a1.628,1.628,0,1,1-1.629-1.627A1.629,1.629,0,0,1,304.4,171.687Z" transform="translate(-279.522 -132.073)" fill="#3d2d02"/>
          <path id="Trazado_196593" data-name="Trazado 196593" d="M306.556,171.687a1.628,1.628,0,1,1-1.629-1.627A1.629,1.629,0,0,1,306.556,171.687Z" transform="translate(-277.565 -132.073)" fill="#3d2d02"/>
          <path id="Trazado_196594" data-name="Trazado 196594" d="M308.71,171.687a1.628,1.628,0,1,1-1.627-1.627A1.628,1.628,0,0,1,308.71,171.687Z" transform="translate(-275.61 -132.073)" fill="#3d2d02"/>
          <path id="Trazado_196595" data-name="Trazado 196595" d="M310.865,171.687a1.628,1.628,0,1,1-1.627-1.627A1.628,1.628,0,0,1,310.865,171.687Z" transform="translate(-273.653 -132.073)" fill="#3d2d02"/>
        </g>
      </g>
    </g>
  </g>
</svg>
