<svg xmlns="http://www.w3.org/2000/svg" width="317" height="230.281" viewBox="0 0 317 230.281">
  <g id="Grupo_222341" data-name="Grupo 222341" transform="translate(7185 7916)">
    <path id="Rectángulo_295407" data-name="Rectángulo 295407" d="M20,0H297a20,20,0,0,1,20,20V230a0,0,0,0,1,0,0H0a0,0,0,0,1,0,0V20A20,20,0,0,1,20,0Z" transform="translate(-7185 -7916)" fill="#4dd0e1"/>
    <g id="Grupo_210526" data-name="Grupo 210526" transform="translate(-7183 -7882.469)">
      <g id="Grupo_210524" data-name="Grupo 210524" transform="translate(0 0)">
        <path id="Trazado_222054" data-name="Trazado 222054" d="M474.645,492.369c-5.784,0-17.636.557-17.762.811H427l-8.746-.025H339.944l-22.87-.026H256.782L231.6,493.1H186.061l-.226-.611-.025-.051a.261.261,0,0,1-.025-.076c-.1-.2-37.9-81.054,24.506-120.91,24.416-15.594,11.55-46.733,47.687-65.6,46.593-24.321,59.292,11.017,114.386,2.473,47.85-7.42,69.652,16.212,66.294,51.359-1.577,16.509,9.252,29.163,19.935,31.433,29.472,6.262,28.416,42.94,26.007,69.888C483.114,477.625,474.849,492.369,474.645,492.369Z" transform="translate(-172.51 -297.166)" fill="#65e3f3"/>
        <path id="Trazado_222055" data-name="Trazado 222055" d="M1282.148,1187.083a2.723,2.723,0,0,0-1.285-.819c-.771-.194-2.437-1.008-2.244-.581s1.124.93.969,1.24c0,0-2.648-.736-2.726-.271a3.814,3.814,0,0,0,2.067,2.623,17.453,17.453,0,0,0,2.984-.375Z" transform="translate(-1113.535 -1055.441)" fill="#f2a16b"/>
        <g id="Grupo_210508" data-name="Grupo 210508" transform="translate(24.961 92.805)">
          <path id="Trazado_222056" data-name="Trazado 222056" d="M341.847,1039.354s-7.649,7.931-8.011,10.916,3.664,7.645,3.664,7.645Z" transform="translate(-333.577 -1023.453)" fill="#fff"/>
          <path id="Trazado_222057" data-name="Trazado 222057" d="M412.261,1592.6s.27,4.207,1.084,4.265c.108.008,4.128,0,4.128,0l5.132-.041a1.665,1.665,0,0,0-1.537-1.495c-1.5-.258-4.014-1.307-4.927-3.288C415.181,1589.96,412.261,1592.6,412.261,1592.6Z" transform="translate(-400.535 -1494.509)" fill="#2358a5"/>
          <path id="Trazado_222058" data-name="Trazado 222058" d="M334.218,1592.772s.27,4.207,1.084,4.265c.108.008,4.128,0,4.128,0l5.132-.041a1.665,1.665,0,0,0-1.537-1.495c-1.5-.258-4.014-1.307-4.927-3.287C337.138,1590.13,334.218,1592.772,334.218,1592.772Z" transform="translate(-333.922 -1494.654)" fill="#2358a5"/>
          <path id="Trazado_222059" data-name="Trazado 222059" d="M349.511,1254.418s-1.324,8.587-6.3,23.837-5.642,21.85-5.642,21.85l-5.372-.139s-.082-16.654,2.209-24.322.438-27.627.438-27.627Z" transform="translate(-332.2 -1201.554)" fill="#163560"/>
          <path id="Trazado_222060" data-name="Trazado 222060" d="M377.482,1250.972A208.341,208.341,0,0,1,375.5,1279.8c-2.2,15.888-1.43,22.629-1.43,22.629l-5.36.19s-3.238-15.882-2.337-23.834-4.446-27.27-4.446-27.27Z" transform="translate(-357.569 -1204.076)" fill="#1c468a"/>
          <path id="Trazado_222061" data-name="Trazado 222061" d="M396.852,1007.164l2.86,1.867,4.126-.778c-.058-.333-.333-1.714-.584-2.964-.015-.074-.03-.148-.045-.22-.215-1.064-.4-1.978-.4-1.978l-3.859-1.693-1.439-.631c0,.022.114,1.181.129,1.35A9.829,9.829,0,0,1,396.852,1007.164Z" transform="translate(-387.383 -990.518)" fill="#ffb27d"/>
          <path id="Trazado_222062" data-name="Trazado 222062" d="M400.309,1030.3c-.08-.034-4.974-1.466-5.5-1.289s-.843,1.205-.843,1.205l8,1.791A3.971,3.971,0,0,0,400.309,1030.3Z" transform="translate(-384.915 -1014.612)" fill="#ed7d2b"/>
          <path id="Trazado_222063" data-name="Trazado 222063" d="M346.639,1070c.837,3.78,14.635,4.2,18.183.758.4-.392.42-2.213.262-4.667-.309-4.795-1.283-12.006-1.328-15.692a29.168,29.168,0,0,0-.6-5.252,42.641,42.641,0,0,0-1.764-6.284s-6.743-2.164-8-1.791C347.318,1038.873,345.8,1066.222,346.639,1070Z" transform="translate(-344.343 -1021.471)" fill="#fff"/>
          <path id="Trazado_222064" data-name="Trazado 222064" d="M434.467,1109.281c-.309-4.795-1.283-12.006-1.328-15.692a29.17,29.17,0,0,0-.6-5.252l-4.055-.707S424.555,1103.828,434.467,1109.281Z" transform="translate(-413.726 -1064.659)" fill="#fff"/>
          <path id="Trazado_222065" data-name="Trazado 222065" d="M446.515,1186.182a.954.954,0,0,0,.306,1.1,1.85,1.85,0,0,1,.827,1.685c-.132.525-1.4,1.385-1.844,1.247s-1.341-.827-1.245-1.1-.609-2.429.465-3.26A.868.868,0,0,1,446.515,1186.182Z" transform="translate(-427.983 -1148.24)" fill="#ffb27d"/>
          <path id="Trazado_222066" data-name="Trazado 222066" d="M424.85,1042.974s3.955.731,7.115,5.367,5.24,8.082,4.663,9.757-5.853,7.488-6.765,7.49a2.445,2.445,0,0,1-2.471-2.15s3.484-5.8,2.749-6.634c-.314-.356-4.616-3.807-5.257-2.147C423.821,1057.4,424.85,1042.974,424.85,1042.974Z" transform="translate(-410.898 -1026.543)" fill="#fff"/>
          <path id="Trazado_222067" data-name="Trazado 222067" d="M403.567,1005.844c.849,1.432,4.007,2.666,5.324,3.119-.015-.074-.03-.148-.045-.22-.215-1.064-.4-1.978-.4-1.978l-3.859-1.693C403.735,1005.063,403.217,1005.255,403.567,1005.844Z" transform="translate(-393.02 -994.193)" fill="#fca56b"/>
          <path id="Trazado_222068" data-name="Trazado 222068" d="M396.887,955.487s-6.206,1.951-7.361-1.933-2.734-6.247,1.179-7.657,5.128-.158,5.829,1.044S398.471,954.879,396.887,955.487Z" transform="translate(-380.008 -943.152)" fill="#ffb27d"/>
          <path id="Trazado_222069" data-name="Trazado 222069" d="M380.671,934.207s-.386,4.523-1.322,4.329-1.784-.338-1.644,1.025,1.44,2.934-1.441,3.182-7.041-7.176-6.252-8.585C372.287,930.091,383.962,929.246,380.671,934.207Z" transform="translate(-364.39 -930.79)" fill="#163560"/>
        </g>
        <g id="Grupo_210509" data-name="Grupo 210509" transform="translate(54.407 78.555)">
          <path id="Trazado_222070" data-name="Trazado 222070" d="M608.472,950.265a36.332,36.332,0,0,1-6.419-.569,35.6,35.6,0,0,1-5.654-1.5,45.917,45.917,0,0,1-8.576.009,54.863,54.863,0,0,1-23.553-7.551,18.6,18.6,0,0,1-4.923.387,20.009,20.009,0,0,1-11.551-4.59,33.365,33.365,0,0,1-8.686-11.05c-4.172-8.132-6.237-18.351-5.814-28.775a64.2,64.2,0,0,1,10-32.1c4.78-7.442,10.061-13.22,15.7-17.175a35.891,35.891,0,0,1,20.3-6.786,52.225,52.225,0,0,1,16.233-6.234,38.58,38.58,0,0,1,27.928,4.678c11.124,6.653,20.024,19.034,26.452,36.8q.552,1.524,1.023,3.041c1.475.762,3.067,1.62,4.845,2.578l.116.063c5.557,2.994,14.225,5.389,23.189,6.408,7.474.849,18.574,1.146,29.014-2.266,9.756-3.188,16.649-8.886,20.488-16.937l.84.4c-3.953,8.29-11.031,14.151-21.039,17.421-10.6,3.463-21.843,3.165-29.408,2.306-9.075-1.031-17.869-3.466-23.525-6.514l-.116-.063c-1.463-.789-2.795-1.506-4.031-2.155a55.131,55.131,0,0,1,1.483,25.963,45.8,45.8,0,0,1-10.842,22.13,40.21,40.21,0,0,1-5.1,4.756c-.125.275-.253.548-.383.816a6.742,6.742,0,0,1,.953,3.407c-.11,1.666-2,3.131-5.624,4.355q-.448.151-.925.3a26.5,26.5,0,0,1-10.694,6.561A37.274,37.274,0,0,1,608.472,950.265Zm-9.863-2.332a34.785,34.785,0,0,0,3.609.848,36.092,36.092,0,0,0,17.658-1.287,25.9,25.9,0,0,0,9.082-5.154,95.961,95.961,0,0,1-18.591,2.3q-.417.179-.84.351A46.526,46.526,0,0,1,598.608,947.932Zm-33.07-7.6a54.256,54.256,0,0,0,22.371,6.948,44.934,44.934,0,0,0,6.482.131,34.273,34.273,0,0,1-6.668-3.77,76.079,76.079,0,0,1-9.136-1.787,34.852,34.852,0,0,1-8.71-3.431A18.887,18.887,0,0,1,565.538,940.33Zm24.21,3.568a33.7,33.7,0,0,0,6.77,3.351,45.661,45.661,0,0,0,11.128-2.535c-3.469.067-7.021.009-10.524-.185C594.571,944.387,592.1,944.175,589.748,943.9Zm-1.657-1.142c2.822.382,5.859.666,9.083.845,4.339.241,8.75.271,12.979.115a43.4,43.4,0,0,0,7.287-4.022,20.42,20.42,0,0,1-3.644-.567,11.725,11.725,0,0,1-6.948-5.1,53.135,53.135,0,0,1-8.9-.5c-7.219-1.009-13.131-3.2-17.675-6.541-.751,1.32-1.5,2.491-2.233,3.529a31.779,31.779,0,0,0,8.636,11.144Q587.368,942.224,588.091,942.755Zm30.893-3.016A43.725,43.725,0,0,1,612.6,943.6a82.6,82.6,0,0,0,17.768-2.61,26.469,26.469,0,0,0,2.451-2.918,30.375,30.375,0,0,0,2.415-3.949,33.559,33.559,0,0,1-6.923,3.737A25.992,25.992,0,0,1,618.983,939.74Zm-48.21-1.884c3.614,2.025,8.892,3.6,15.448,4.628l-.138-.113a32.673,32.673,0,0,1-8.666-11,31.9,31.9,0,0,1-2.788,3.271A24.406,24.406,0,0,1,570.774,937.856Zm65.161-3.061a30.2,30.2,0,0,1-3.771,5.605c2.719-1.007,4.245-2.167,4.32-3.3A5.034,5.034,0,0,0,635.935,934.8Zm-58.214-93.248c-1.016.074-1.97.189-2.884.324a35.611,35.611,0,0,0-15.313,6.241c-5.535,3.885-10.732,9.576-15.447,16.916a63.269,63.269,0,0,0-9.851,31.634c-.417,10.266,1.612,20.321,5.712,28.313a32.451,32.451,0,0,0,8.438,10.747,19.1,19.1,0,0,0,11.019,4.389,17.842,17.842,0,0,0,3.719-.19,41.276,41.276,0,0,1-10.688-9.972,37.235,37.235,0,0,1-3.7-6.16,20.527,20.527,0,0,1-7.748-7.362,30.781,30.781,0,0,1-4.215-16.365,40.908,40.908,0,0,1,.8-7.913c-.287-7.559,2.827-16.31,8.8-24.7,5.726-8.041,13.2-14.492,20.514-17.7q1.226-.537,2.418-.941a38.461,38.461,0,0,1,3.393-3.428A42.361,42.361,0,0,1,577.721,841.547ZM550.1,924.465a36.4,36.4,0,0,0,3.071,4.932A40.636,40.636,0,0,0,564.43,939.66a17.718,17.718,0,0,0,4.555-1.8,13.459,13.459,0,0,1-2.664-2.291,64.831,64.831,0,0,1-6.582-8.95,32.59,32.59,0,0,1-4.592-.57A23.486,23.486,0,0,1,550.1,924.465Zm57.858,9.514a10.644,10.644,0,0,0,6.061,4.244,19.834,19.834,0,0,0,4.657.585,38.839,38.839,0,0,0,7.108-6.791,35.375,35.375,0,0,0,2.883-4.141A44.817,44.817,0,0,1,607.961,933.98Zm22.149-6.75a36.05,36.05,0,0,1-3.6,5.372,39.469,39.469,0,0,1-6.246,6.163,25.64,25.64,0,0,0,7.711-1.77,32.787,32.787,0,0,0,7.05-3.859,32.8,32.8,0,0,0-3.76-4.706Q630.709,927.835,630.11,927.23Zm-69.259-.569a64.2,64.2,0,0,0,6.172,8.3,12.928,12.928,0,0,0,2.858,2.368,23.088,23.088,0,0,0,4.087-3.341,31.511,31.511,0,0,0,3-3.578q-.423-.943-.793-1.921-.386-1.018-.71-2.063-.5-.108-.995-.246a16.005,16.005,0,0,1-2.417-.889A41.743,41.743,0,0,1,560.851,926.661Zm20.658.053c4.326,2.976,9.866,4.947,16.568,5.884a52.521,52.521,0,0,0,8.184.508,31.177,31.177,0,0,1-3.068-7.471q-.164-.571-.317-1.16-1.853-.256-3.7-.645a36.6,36.6,0,0,1-4.56-1.262,47.867,47.867,0,0,1-8.707,3.338A28.44,28.44,0,0,1,581.509,926.715Zm22.362-2.111q.105.392.215.777a29.059,29.059,0,0,0,3.252,7.7,43.811,43.811,0,0,0,21.943-6.667c-1.261-1.228-2.64-2.477-4.11-3.727q-2.025.615-4.067,1.065A51.505,51.505,0,0,1,603.871,924.6Zm26.881,1.953q.619.624,1.193,1.238a34.323,34.323,0,0,1,3.83,4.792l.313-.239a45.31,45.31,0,0,0,2.952-9.521q.432-2.15.725-4.476a42.293,42.293,0,0,1-9.014,8.206Zm10.11-9.6q-.333,3.18-.91,6.053a47.892,47.892,0,0,1-2.337,8.1,39.761,39.761,0,0,0,3.636-3.545,44.82,44.82,0,0,0,10.544-21.3,64.789,64.789,0,0,1-8.728,7.465Q642.041,915.392,640.863,916.957ZM576.5,926.613q.254.78.543,1.543.261.689.549,1.362c.558-.816,1.125-1.712,1.694-2.694A18.8,18.8,0,0,1,576.5,926.613Zm-.307-.994a17.616,17.616,0,0,0,2.683.264,25.7,25.7,0,0,1-2.14-2.02q-.463.163-.931.319Q575.989,924.907,576.2,925.62Zm6.9-4.391c-.717,1.69-1.453,3.219-2.192,4.6a26.78,26.78,0,0,0,4.762-.823,45.364,45.364,0,0,0,7.73-2.889,27.711,27.711,0,0,1-5.888-3.164C586.117,919.729,584.643,920.5,583.1,921.228Zm-22.824,4.485a39.781,39.781,0,0,0,10.524-1.074,19.718,19.718,0,0,1-6.216-5.817,34.364,34.364,0,0,1-2.62-4.326,52.419,52.419,0,0,1-6.345-1.583l-.448-.144A38.648,38.648,0,0,0,560.276,925.714Zm65.942-3.36c1.3,1.116,2.519,2.229,3.65,3.327a32.768,32.768,0,0,0,2.168-5.577A57.816,57.816,0,0,1,626.217,922.353Zm-76.778.757a21.983,21.983,0,0,0,5.89,2.026,31.515,31.515,0,0,0,3.838.515,49.576,49.576,0,0,1-2.449-4.793,32.931,32.931,0,0,1-2.546-8.432,31.556,31.556,0,0,1-8.112-4.2A37.1,37.1,0,0,0,549.439,923.11Zm28.259.406a24.989,24.989,0,0,0,2.286,2.067c.62-1.148,1.239-2.4,1.847-3.769C580.5,922.418,579.116,922.99,577.7,923.517Zm-4.183,1.377a15.336,15.336,0,0,0,1.652.507q-.129-.463-.245-.93Q574.223,924.691,573.515,924.894Zm59.627-5.3a33.553,33.553,0,0,1-1.985,5.55,41.351,41.351,0,0,0,8.807-8.54c.028-.274.054-.55.079-.828q-.959.61-1.981,1.212Q635.632,918.414,633.143,919.593Zm-70.027-4.9a33.4,33.4,0,0,0,2.226,3.591,18.181,18.181,0,0,0,6.8,6.024q1.3-.339,2.564-.742-.319-1.432-.53-2.906l-.16-.24a27.045,27.045,0,0,1-2.64-5.186A44.416,44.416,0,0,1,563.116,914.692Zm40.5,8.944a50.594,50.594,0,0,0,17.284-.8q1.712-.378,3.414-.874a115.434,115.434,0,0,0-12.975-9.28c-1.017.631-2.086,1.309-3.2,2.014-1.778,1.128-3.676,2.332-5.656,3.526C602.821,920.122,603.194,921.932,603.62,923.636Zm-7.83-1.654a36.416,36.416,0,0,0,3.573.938q1.631.343,3.266.581c-.369-1.515-.7-3.107-.994-4.764C599.743,919.862,597.785,920.968,595.79,921.982Zm-20.39.34q.092.479.2.954l.467-.159Q575.724,922.726,575.4,922.322Zm-.33-2.006a24.02,24.02,0,0,0,1.94,2.466c1.859-.677,3.655-1.436,5.371-2.24q.876-2.1,1.7-4.539-.289-.3-.568-.613A22.734,22.734,0,0,1,582,913.5q-.651.2-1.308.375A40.237,40.237,0,0,1,574.7,915,40.429,40.429,0,0,0,575.07,920.316Zm-37.115-24.672a39.339,39.339,0,0,0-.259,4.421,29.859,29.859,0,0,0,4.074,15.871,19.767,19.767,0,0,0,6.306,6.4,38.342,38.342,0,0,1-2.958-14.839A19.757,19.757,0,0,1,537.955,895.644Zm74.274,16.5a115.778,115.778,0,0,1,13.153,9.5,57.049,57.049,0,0,0,6.963-2.7,33.7,33.7,0,0,0,.859-10.675,18.813,18.813,0,0,1-4.469,2.76c-4.164,1.791-7.949,1.856-11.25.193a12.839,12.839,0,0,1-1.763-1.078C614.658,910.692,613.488,911.373,612.23,912.14Zm-23.82,6.306a27.462,27.462,0,0,0,6.144,3.115c2.361-1.165,4.683-2.473,6.909-3.8-.407-2.4-.755-4.933-1.072-7.554-1.7,1.374-3.447,2.7-5.217,3.94C593.3,915.46,591.01,916.957,588.41,918.446Zm-3.591-1.712q-.581,1.687-1.189,3.207c1.056-.52,2.08-1.056,3.062-1.6A24.031,24.031,0,0,1,584.819,916.734Zm-12.458-1.541a26.642,26.642,0,0,0,1.569,3.294q-.146-1.672-.157-3.394Q573.07,915.155,572.361,915.193Zm61.714-7.68a34.8,34.8,0,0,1-.65,10.912q2.1-1.029,4.167-2.24,1.328-.78,2.549-1.578a105.8,105.8,0,0,0-.04-15.051A29.161,29.161,0,0,1,634.075,907.512Zm-48.927,8.244a23.083,23.083,0,0,0,2.43,2.094c2.725-1.543,5.117-3.1,7.063-4.469,1.972-1.384,3.853-2.819,5.622-4.269q-.142-1.213-.277-2.449-1.549-.674-3.022-1.225a46.083,46.083,0,0,1-10.658,6.483Q585.749,913.937,585.148,915.756Zm16.1-6.252c.319,2.686.667,5.279,1.076,7.737,1.86-1.128,3.648-2.262,5.326-3.327.97-.615,1.908-1.21,2.808-1.771q-.372-.225-.744-.445c-2.32-1.374-4.575-2.6-6.744-3.655Q602.117,908.781,601.245,909.5Zm39.787,5.629v.006l.007-.01ZM582.938,913.2q.6.814,1.274,1.568c.068.076.136.152.205.227q.407-1.265.8-2.622Q584.084,912.823,582.938,913.2Zm-20.351.459a43.967,43.967,0,0,0,8.457.65,43.59,43.59,0,0,1-1.848-17.27q-.693-.631-1.334-1.324-.394-.426-.768-.874c-2.112.977-3.974,1.919-5.492,2.768a14.692,14.692,0,0,0-2.51,1.754c0,.1.006.2.01.306A34.435,34.435,0,0,0,562.587,913.661Zm7.49-15.86a41.725,41.725,0,0,0,1.94,16.477q.884-.041,1.761-.12a48.049,48.049,0,0,1,.4-5.439,33.961,33.961,0,0,1,1.415-7.626A22.221,22.221,0,0,1,570.076,897.8Zm6.391,3.639a33.782,33.782,0,0,0-1.365,7.336l0,.043a47.175,47.175,0,0,0-.39,5.245,39.3,39.3,0,0,0,5.745-1.089q.5-.134,1-.281a25.412,25.412,0,0,1-3.887-10.875Q577.008,901.642,576.467,901.44Zm64.445-3.516a110.847,110.847,0,0,1,.206,16.032q.645-.436,1.254-.871a42.628,42.628,0,0,0,6.212-22.976c-.062-3.748-1.168-6.271-3.381-7.714a7.146,7.146,0,0,0-.752-.426A37.881,37.881,0,0,1,640.913,897.924Zm-85.891,13.814q.434.147.878.287a51.932,51.932,0,0,0,5.556,1.426,35.366,35.366,0,0,1-3.261-13.221,12.08,12.08,0,0,0-3.108,6.348A17.659,17.659,0,0,0,555.021,911.738Zm23.519-9.63a24.329,24.329,0,0,0,3.837,10.3q1.592-.514,3.15-1.165c.758-2.8,1.345-5.544,1.779-8.105q-.516-.029-1.007-.03A29.207,29.207,0,0,1,578.54,902.108Zm65.886-21.173a8.232,8.232,0,0,1,1.287.682c2.457,1.6,3.736,4.454,3.8,8.477a43.638,43.638,0,0,1-5.27,21.61,57.705,57.705,0,0,0,7.861-7.138,54.887,54.887,0,0,0-1.951-25.07,52.559,52.559,0,0,0-6.219-2.8,28.44,28.44,0,0,1,.472,3.861C644.414,880.683,644.421,880.809,644.426,880.935Zm-40.7,26.444c2.086,1.03,4.247,2.206,6.463,3.519q.58.343,1.158.7c1.28-.787,2.477-1.494,3.577-2.082a23.4,23.4,0,0,1-5.356-7.02q-.5.136-1,.246C607.066,904.3,605.437,905.856,603.721,907.379Zm12.95,2.287a11.568,11.568,0,0,0,1.232.721c3.087,1.555,6.51,1.485,10.464-.217a18.227,18.227,0,0,0,4.733-3.034,39.158,39.158,0,0,0-1.616-7.606,23.716,23.716,0,0,0-1.133-2.917c-4.26,6.474-8.932,11.161-12.508,12.546C617.471,909.3,617.081,909.472,616.671,909.666ZM546.05,907.06a29.307,29.307,0,0,0,7.993,4.331,18.291,18.291,0,0,1,.127-4.971,12.934,12.934,0,0,1,3.982-7.463,38.851,38.851,0,0,1,3.3-16.279,43.1,43.1,0,0,1-.886-9.016q-1.465-.076-2.9-.047a67.119,67.119,0,0,0-10.607,24.309A46.027,46.027,0,0,0,546.05,907.06Zm42.185-3.849c-.4,2.4-.938,4.947-1.62,7.558a45.239,45.239,0,0,0,9.321-5.7A34.432,34.432,0,0,0,588.235,903.211Zm22.249-.995a21.74,21.74,0,0,0,5.337,6.828c.6-.3,1.158-.549,1.685-.753,3.368-1.3,8.013-6.008,12.124-12.276q.12-.183.239-.367a19.074,19.074,0,0,0-4.9-5.976,22.52,22.52,0,0,1-5.362,7.188A25.238,25.238,0,0,1,610.484,902.217Zm-9.515,4.885q.073.655.147,1.3.475-.4.939-.8Q601.508,907.346,600.969,907.1Zm-.117-1.07q.971.431,1.967.908c1.5-1.319,2.893-2.635,4.175-3.924a15.962,15.962,0,0,1-3.586.089,5.392,5.392,0,0,1-2.646-1.028l-.3.285Q600.656,904.216,600.852,906.032ZM630.943,895.7a24.455,24.455,0,0,1,1.428,3.551,40.383,40.383,0,0,1,1.576,7.11,29.188,29.188,0,0,0,5.712-7.979q.156-.313.307-.63-.449-5.532-1.373-11.615a43.446,43.446,0,0,0-.885-4.332A67,67,0,0,1,630.943,895.7ZM538.5,892.221q.006.137.013.273a19.191,19.191,0,0,0,4.352,11.482,20.33,20.33,0,0,0,2.268,2.322,47.377,47.377,0,0,1,1.009-8.563A67.951,67.951,0,0,1,556.5,873.656a35.767,35.767,0,0,0-5.076.61c-3.754.734-7.241,3.887-9.819,8.879A35.212,35.212,0,0,0,538.5,892.221Zm59.291,12.54q1.024.393,2.082.844-.131-1.214-.258-2.444Q598.71,903.989,597.789,904.761Zm-9.4-2.468a36.475,36.475,0,0,1,8.4,2.093q1.3-1.069,2.566-2.25l.143-.134-.12-1.174a22.567,22.567,0,0,1-3.381-5.4c-2.388.681-4.318.965-5.619.649-.386-.094-.8-.207-1.246-.34C589,897.679,588.76,899.9,588.384,902.293Zm13.047-.878a4.451,4.451,0,0,0,2.062.764,15.75,15.75,0,0,0,4.6-.289q.387-.4.758-.8a58.014,58.014,0,0,1-2.295-5.508A63.071,63.071,0,0,1,601.432,901.415Zm-23.011-.308a28.06,28.06,0,0,0,7.878,1.07q.564,0,1.158.037c.393-2.487.639-4.782.756-6.769a40.1,40.1,0,0,1-7.5-3.443q-.6.943-1.151,1.938c-.462.84-.876,1.675-1.248,2.5A30.41,30.41,0,0,0,578.42,901.106Zm31.552.129.075.148a24.257,24.257,0,0,0,8.933-5.21,21.5,21.5,0,0,0,5.231-7.08,21,21,0,0,0-4.632-2.522q-.3-.12-.609-.232-.736.29-1.47.585a30.3,30.3,0,0,1-.738,4.143C616.138,893.473,613.667,897.173,609.973,901.235Zm-9.705-.8q.209.214.424.405a62.428,62.428,0,0,0,5.493-6.306q-.434-1.251-.842-2.55c-2.029.836-3.951,1.6-5.721,2.245.213,1.976.415,3.951.616,5.911C600.247,900.239,600.257,900.336,600.267,900.435Zm-23.527.113q.355.133.717.256-.088-1-.11-2.017Q577.011,899.689,576.74,900.548Zm30.488-5.853c.365,1.027.746,2.033,1.145,3.009q.569,1.389,1.159,2.633c3.5-3.891,5.765-7.327,6.328-9.5a28.636,28.636,0,0,0,.656-3.512c-2.009.817-3.993,1.65-5.911,2.458Q609,892.334,607.228,894.694Zm-37.074,1.955a21.229,21.229,0,0,0,5.711,3.55,38.825,38.825,0,0,1,1.531-3.994,34.627,34.627,0,0,1,.841-5.792l-.091-.063c-2.7.961-5.283,1.977-7.659,2.989Q570.277,895.029,570.154,896.649Zm26.736-1.493a25.9,25.9,0,0,0,2.312,4.005q-.236-2.3-.482-4.612Q597.771,894.882,596.89,895.157Zm-35.08-10.94a38.689,38.689,0,0,0-2.732,13.951,16.16,16.16,0,0,1,2.068-1.368c1.486-.831,3.3-1.75,5.348-2.7A27.433,27.433,0,0,1,561.81,884.217ZM638.458,881a44.291,44.291,0,0,1,1.055,5q.789,5.189,1.233,9.989a36.651,36.651,0,0,0,2.77-14.4A13.765,13.765,0,0,0,638.458,881Zm-70.487,13.441q.28.328.572.644.363.393.745.765.09-1.03.213-2.088Q568.719,894.1,567.971,894.442Zm21.206.337c.507.156.981.286,1.414.392a11.122,11.122,0,0,0,5-.6c-.983-2.15-1.917-4.543-2.868-6.978q-.258-.661-.518-1.324c-1.361.3-2.677.614-3.928.94a11.748,11.748,0,0,1,.888,3.709A34.468,34.468,0,0,1,589.178,894.779Zm36.171-6a19.832,19.832,0,0,1,5.092,5.968,65.639,65.639,0,0,0,6.521-13.636,52.606,52.606,0,0,0-10.469,2.48A15.99,15.99,0,0,1,625.349,888.783Zm-44.126,2.448a39.217,39.217,0,0,0,7.039,3.251,32.792,32.792,0,0,0-.022-3.5,10.851,10.851,0,0,0-.868-3.532c-1.414.382-2.826.794-4.226,1.23Q582.127,889.9,581.222,891.23Zm11.907-5.157.462,1.182c.964,2.471,1.911,4.9,2.9,7.05.676-.209,1.386-.446,2.127-.707-.305-2.788-.636-5.577-1.02-8.331C596.073,885.5,594.578,885.773,593.129,886.073Zm-14.066,4.9q-.317,1.433-.508,2.872.095-.177.192-.353.557-1.012,1.17-1.971Q579.49,891.254,579.063,890.973ZM562.42,882.78a27,27,0,0,0,4.942,10.917q1.1-.5,2.271-1,.554-4.232,1.633-8.876a23.289,23.289,0,0,1-2.38-3.9,20.549,20.549,0,0,1-1.634-4.84,31.225,31.225,0,0,0-4.536,7.06Q562.565,882.458,562.42,882.78Zm43.784,8.847q.319,1.012.656,2,1.151-1.562,2.233-3.214Q607.621,891.037,606.2,891.628Zm-7.686-6.495c.376,2.693.7,5.418,1,8.142,1.73-.634,3.6-1.381,5.548-2.183-.639-2.092-1.235-4.259-1.8-6.46C601.67,884.741,600.082,884.914,598.518,885.133Zm-26.512-.377q-.88,3.909-1.378,7.515c2.075-.873,4.3-1.746,6.609-2.581A30.535,30.535,0,0,1,572.006,884.755Zm7.284,5.26q.567.381,1.136.733.541-.8,1.123-1.559-1.129.368-2.24.753Zm24.917-5.442c.529,2.051,1.1,4.125,1.721,6.161,1.23-.511,2.486-1.04,3.753-1.574l.294-.124q1.283-2.058,2.447-4.227A46.641,46.641,0,0,0,604.206,884.574Zm-31.935-.969a29.441,29.441,0,0,0,6.013,5.71l.249-.087a37.056,37.056,0,0,1,2.757-7.189q.3-.6.624-1.175l0,0a32.179,32.179,0,0,0-7.672-4.242q-.485,1.33-.878,2.75Q572.763,881.527,572.271,883.6Zm10.38-2.152q-.273.5-.532,1.008a36.18,36.18,0,0,0-2.519,6.4q1.488-.508,3.008-.985a32.128,32.128,0,0,1,3.137-3.211A19.007,19.007,0,0,0,582.651,881.452Zm30.751,3.494q-.941,1.771-1.961,3.474c1.695-.712,3.436-1.438,5.194-2.15q.031-.317.058-.643A31.315,31.315,0,0,0,613.4,884.946Zm6.847.894a21.937,21.937,0,0,1,4.325,2.367,15.112,15.112,0,0,0,.968-4.3C623.8,884.5,622.024,885.155,620.25,885.84Zm-52.141-35.593q-.427.172-.859.362c-7.056,3.094-14.582,9.594-20.13,17.386-4.736,6.652-7.64,13.519-8.427,19.794a33.326,33.326,0,0,1,2.086-5.069c2.711-5.25,6.428-8.576,10.467-9.366a36.99,36.99,0,0,1,5.914-.65q1.779-2.527,3.722-4.825a34.61,34.61,0,0,1,7.228-17.631Zm18.173,35.184q-1.021.915-1.961,1.919,1.319-.393,2.645-.753Q586.659,886.008,586.282,885.431Zm.709-.616a14.516,14.516,0,0,1,.9,1.536q2.021-.53,3.975-.961c-.422-1.068-.852-2.133-1.293-3.178q-.673.421-1.32.872Q588.077,883.9,586.991,884.815Zm30.682.119q.652.192,1.279.411c2.221-.872,4.449-1.7,6.624-2.433a15.642,15.642,0,0,0-2.091-7.623c-1.81.134-3.782.3-5.948.5-.065.173-.131.345-.2.518A43.479,43.479,0,0,1,617.673,884.934Zm-26.3-3.208c.483,1.14.95,2.3,1.41,3.466q2.4-.5,4.683-.854-.373-2.583-.819-5.112A34.361,34.361,0,0,0,591.372,881.726Zm22.487,2.347q1.5.246,2.9.608a42.511,42.511,0,0,0-.138-6.57Q615.359,881.162,613.859,884.073Zm-16.326-5.168c.313,1.744.595,3.513.852,5.3q2.389-.337,4.641-.5c-.443-1.75-.868-3.52-1.285-5.289q-.079-.338-.148-.68A40.186,40.186,0,0,0,597.534,878.905Zm-14.417,1.725a20.12,20.12,0,0,1,3.334,3.424q1.091-.914,2.265-1.733.725-.506,1.482-.974a47.925,47.925,0,0,0-3.116-6.14A32.018,32.018,0,0,0,583.117,880.63Zm23.934,2.923a43.41,43.41,0,0,1,5.837.374,77.821,77.821,0,0,0,3.5-7.733c-.015-.1-.029-.2-.044-.3-2.62.244-5.513.529-8.725.85a47.832,47.832,0,0,0-5.115.785q.068.336.146.668c.413,1.757.851,3.586,1.32,5.442l.409-.022Q605.742,883.554,607.051,883.553Zm-38.918-8.827a19.555,19.555,0,0,0,1.592,4.792,22.168,22.168,0,0,0,1.825,3.109q.422-1.726.914-3.508.4-1.464.905-2.835A42.508,42.508,0,0,0,568.133,874.726Zm56.373.489a16.559,16.559,0,0,1,2,7.39c1.136-.37,2.256-.71,3.35-1.012a42.6,42.6,0,0,1,7.394-1.445,41.958,41.958,0,0,0-1.936-5.16A85,85,0,0,0,624.506,875.216Zm-63.015-1.5a43.285,43.285,0,0,0,.625,7.526,31.7,31.7,0,0,1,4.5-6.842A44.036,44.036,0,0,0,561.49,873.721Zm26.251.787A47.435,47.435,0,0,1,591,880.865a35.4,35.4,0,0,1,5.475-2.568q-.467-2.513-1.032-4.941-.463-1.974-.985-3.794A24.433,24.433,0,0,0,587.741,874.508Zm51.617,5.541a14.16,14.16,0,0,1,4.119.544,27.268,27.268,0,0,0-.563-4.242,27.9,27.9,0,0,0-3.44-.867c-.317,1.509-.718,3.044-1.2,4.594Q638.832,880.048,639.359,880.048Zm-64.785-4.312a33.14,33.14,0,0,1,7.807,4.312,32.789,32.789,0,0,1,4.181-5.648c-2.468-3.672-5.152-5.468-8.187-5.473A28.667,28.667,0,0,0,574.573,875.736Zm61.79-.67q.766,1.749,1.373,3.56.475-1.667.82-3.3C637.853,875.219,637.127,875.132,636.364,875.066Zm7.343.569a47.579,47.579,0,0,1,6.057,2.621q-.347-1.063-.732-2.13c-6.354-17.559-15.12-29.779-26.055-36.319a37.665,37.665,0,0,0-27.264-4.565,51.661,51.661,0,0,0-14.562,5.326A48.107,48.107,0,0,1,592,842.194a37.273,37.273,0,0,1,13.455-1.29c5.9.589,10.464,2.763,13.179,6.16,5.161-1.22,10.437.381,15.248,4.72,4.313,3.89,6.494,9.427,6.445,16.224q.208.29.406.588A21.84,21.84,0,0,1,643.706,875.635Zm-48.393-6.47q.55,1.907,1.036,3.978.558,2.375,1.014,4.837a41.29,41.29,0,0,1,4.064-1.161,26.537,26.537,0,0,1,.36-9.833A34.028,34.028,0,0,0,595.314,869.165Zm7.474-2.384a25.741,25.741,0,0,0-.449,9.836,48.736,48.736,0,0,1,5.187-.794c3.2-.32,6.07-.6,8.666-.842a37.8,37.8,0,0,0-1.055-4.418,32.645,32.645,0,0,0-1.128-3.129A21.718,21.718,0,0,0,602.787,866.781Zm-34.372,7.047A43.091,43.091,0,0,1,573.7,875.4a29.9,29.9,0,0,1,3.448-6.39A15.616,15.616,0,0,0,568.416,873.828Zm71.241.743a28.672,28.672,0,0,1,3.009.73,20.951,20.951,0,0,0-2.389-5.694,38.346,38.346,0,0,1-.586,4.785Q639.673,874.482,639.656,874.571Zm-20.323-4.17c-.423,1.459-.9,2.938-1.44,4.424,1.82-.164,3.5-.305,5.052-.423A17.413,17.413,0,0,0,619.333,870.4Zm-4.134-2.5c.317.818.591,1.62.826,2.393a38.49,38.49,0,0,1,1.014,4.16c.565-1.568,1.066-3.125,1.5-4.657q-.4-.286-.81-.551A17.816,17.816,0,0,0,615.2,867.9Zm20.728,6.2c.618.045,1.213.1,1.791.173q.519.063,1.021.141c.012-.064.024-.127.036-.191a36.119,36.119,0,0,0,.614-5.924,17.756,17.756,0,0,0-9.3-6.394c-1.085-.332-2.269-.675-3.534-1.015A46.736,46.736,0,0,1,635.927,874.1Zm-16.32-4.67A18.333,18.333,0,0,1,624,874.325a92.474,92.474,0,0,1,10.87-.288,46.574,46.574,0,0,0-10.128-13.618c-1.061-.265-2.169-.524-3.315-.77A54.851,54.851,0,0,1,619.607,869.431Zm-40.515-1.405c3.02.254,5.691,2.126,8.127,5.687a25.222,25.222,0,0,1,6.975-5.057,52.512,52.512,0,0,0-3.37-8.624,29.782,29.782,0,0,0-4.359,1.946A25.467,25.467,0,0,0,579.091,868.026ZM561.5,872.792a45.134,45.134,0,0,1,5.5.734,24.347,24.347,0,0,1,2.035-12.483,60.38,60.38,0,0,0-7.263,7.221q-.065.591-.112,1.188Q561.528,871.157,561.5,872.792Zm9.144-13.037q-.121.247-.239.5a24.312,24.312,0,0,0-2.517,12.8c3.041-3,6.483-4.808,9.889-5.034l.13-.008a26.366,26.366,0,0,1,8.112-6.846,30.584,30.584,0,0,1,4.373-1.962,29.741,29.741,0,0,0-4.844-6.746l-.155-.156a35.824,35.824,0,0,0-9.56,3.956A48.444,48.444,0,0,0,570.643,859.755Zm-12.187,12.928q1.054,0,2.114.053.029-1.572.153-3.208-1.237,1.527-2.408,3.155ZM614.7,866.7a18.8,18.8,0,0,1,3.528,1.765q.291.186.573.382a53.116,53.116,0,0,0,1.706-9.384,81.659,81.659,0,0,0-11.762-1.569A27.784,27.784,0,0,1,614.7,866.7Zm-22.991-6.966a53.49,53.49,0,0,1,3.334,8.535,34.561,34.561,0,0,1,6.978-2.283,31.2,31.2,0,0,1,1.484-4.4,30.6,30.6,0,0,1,1.917-3.789h-.141A44.212,44.212,0,0,0,591.713,859.73Zm33.485-.153c1.886.475,3.622.969,5.162,1.44a18.809,18.809,0,0,1,9.015,5.775c-.173-5.023-1.684-10.319-6.115-14.316s-9.276-5.551-14.017-4.584a12.671,12.671,0,0,1,1.812,4.129,19.983,19.983,0,0,1,.491,4.41q1.331,1.055,2.628,2.209Q624.695,859.1,625.2,859.576Zm-55.368-9.959A33.669,33.669,0,0,0,562,866.592a59.582,59.582,0,0,1,7.91-7.443,30.229,30.229,0,0,1,8.726-10.392,14.023,14.023,0,0,0-1.392-.176A19.143,19.143,0,0,0,569.831,849.617Zm37.54,15.8a21.155,21.155,0,0,1,6.128.875,26.312,26.312,0,0,0-6.183-8.462c-.27-.009-.538-.016-.809-.021a29.658,29.658,0,0,0-2.141,4.138,30.413,30.413,0,0,0-1.33,3.849A25.826,25.826,0,0,1,607.37,865.414Zm14.118-6.7q.93.2,1.824.406-.879-.775-1.777-1.5Q621.521,858.155,621.489,858.714Zm-35.028-6.651a31.049,31.049,0,0,1,4.821,6.831A45.648,45.648,0,0,1,606,856.87l.063-.1a25.573,25.573,0,0,0-8.021-4.2A22.806,22.806,0,0,0,586.46,852.063Zm21.235,4.85a81.007,81.007,0,0,1,12.879,1.611q.046-.841.049-1.636A67.787,67.787,0,0,0,612.2,851.3a24.818,24.818,0,0,0-4.892,5.283Q607.506,856.747,607.7,856.913Zm-27.865-7.884a29.949,29.949,0,0,0-8.137,8.792q1.81-1.286,3.671-2.37a37.246,37.246,0,0,1,9.208-3.905A12.406,12.406,0,0,0,579.83,849.029Zm11.593,1.594a22.445,22.445,0,0,1,6.9,1.064,26.538,26.538,0,0,1,8.26,4.311,25.981,25.981,0,0,1,4.74-5.184,81.139,81.139,0,0,0-10.5-4.785c-3.327-1.24-6.257-2.172-8.866-2.858a39.855,39.855,0,0,0-6.421,2.442,37.543,37.543,0,0,0-4.747,2.737,13.424,13.424,0,0,1,4.88,2.928A26.393,26.393,0,0,1,591.423,850.623Zm21.59.068a68.993,68.993,0,0,1,7.586,5,18.022,18.022,0,0,0-.449-3.456,11.685,11.685,0,0,0-1.883-4.113,16.221,16.221,0,0,0-3.91,1.689Q613.676,850.218,613.013,850.691Zm-19.2-8c2.509.725,4.956,1.578,7.341,2.467a81.925,81.925,0,0,1,10.971,5.033,19.742,19.742,0,0,1,1.761-1.176,17.49,17.49,0,0,1,3.759-1.681c-2.592-3.023-6.831-4.96-12.28-5.5A35.667,35.667,0,0,0,593.81,842.691ZM579.6,841.462a42.243,42.243,0,0,0-6.3,4.62q-1.2,1.07-2.283,2.214a19.077,19.077,0,0,1,6.287-.642,14.69,14.69,0,0,1,2.324.362,38.011,38.011,0,0,1,5.5-3.24,40.516,40.516,0,0,1,5.075-2.041A42.621,42.621,0,0,0,579.6,841.462Z" transform="translate(-533.242 -833.5)" fill="#2b478b"/>
        </g>
        <g id="Grupo_210511" data-name="Grupo 210511" transform="translate(93.729 30.898)">
          <path id="Trazado_222071" data-name="Trazado 222071" d="M802.246,527.027c2.6-10.11,7-18.9,18.9-18.9a19.584,19.584,0,0,1,19.219,20.529c-.633,10.42-9.681,19.246-20.758,18.006C809.235,545.5,799.268,538.6,802.246,527.027Z" transform="translate(-801.711 -508.125)" fill="#0f2771"/>
          <g id="Grupo_210510" data-name="Grupo 210510" transform="translate(11.517 7.355)" opacity="0.8">
            <path id="Trazado_222072" data-name="Trazado 222072" d="M885.407,576.647a13.652,13.652,0,0,1,.149-2.157,6.487,6.487,0,0,1,1.371-3.118,15.791,15.791,0,0,1,1.328-1.45q.593-.577,1.109-1.092a8.844,8.844,0,0,0,.908-1.057,4.794,4.794,0,0,0,.62-1.153,3.887,3.887,0,0,0,.227-1.362,3.529,3.529,0,0,0-.812-2.506,3.116,3.116,0,0,0-2.385-.865,4.327,4.327,0,0,0-1.223.175,3.019,3.019,0,0,0-1.065.559,2.843,2.843,0,0,0-.76.978,3.255,3.255,0,0,0-.288,1.432h-4.245a6.919,6.919,0,0,1,.6-2.891,5.975,5.975,0,0,1,1.607-2.1,6.946,6.946,0,0,1,2.393-1.275,10.848,10.848,0,0,1,6.123.026,6.411,6.411,0,0,1,2.341,1.327,5.645,5.645,0,0,1,1.459,2.131,7.682,7.682,0,0,1,.5,2.847A6.164,6.164,0,0,1,895,567.25a8.168,8.168,0,0,1-.978,1.869,13.345,13.345,0,0,1-1.4,1.677q-.786.8-1.624,1.59a4.334,4.334,0,0,0-1.284,1.913,8.264,8.264,0,0,0-.341,2.349Zm-.3,5.433a2.573,2.573,0,0,1,.157-.909,2.065,2.065,0,0,1,1.214-1.223,3.079,3.079,0,0,1,2.044,0,2.1,2.1,0,0,1,.751.489,2.21,2.21,0,0,1,.472.733,2.447,2.447,0,0,1,.166.909,2.213,2.213,0,0,1-.629,1.607,2.372,2.372,0,0,1-1.782.646,2.342,2.342,0,0,1-1.773-.646A2.229,2.229,0,0,1,885.11,582.08Z" transform="translate(-880.341 -558.341)" fill="#fff"/>
          </g>
        </g>
        <g id="Grupo_210512" data-name="Grupo 210512" transform="translate(148.008 17.588)">
          <path id="Trazado_222073" data-name="Trazado 222073" d="M1189.256,449.414l-16.961,4.875,10.395-9.424.933,2.428,4.314.177Z" transform="translate(-1172.296 -440.82)" fill="#eabe96"/>
          <path id="Trazado_222074" data-name="Trazado 222074" d="M1172.3,438.7l13.367-9.427,14.014-2.673Z" transform="translate(-1172.296 -425.228)" fill="#f9ddbf"/>
          <path id="Trazado_222075" data-name="Trazado 222075" d="M1182.69,421.294l-10.395,9.424,7.188-13.468Z" transform="translate(-1172.296 -417.249)" fill="#f9ddbf"/>
        </g>
        <g id="Grupo_210522" data-name="Grupo 210522" transform="translate(162.503 20.652)">
          <path id="Trazado_222076" data-name="Trazado 222076" d="M1272.458,480.464c5.821-22.624,15.662-42.3,42.3-42.3,23.361,0,44.549,20.579,43.009,45.939-1.416,23.318-21.665,43.069-46.452,40.293C1288.1,521.8,1265.792,506.369,1272.458,480.464Z" transform="translate(-1271.261 -438.166)" fill="#0f2771"/>
          <g id="Grupo_210518" data-name="Grupo 210518" transform="translate(25.682 21.919)">
            <path id="Trazado_222077" data-name="Trazado 222077" d="M1482.372,605.6a17.813,17.813,0,0,1-4.056,11.451,14.967,14.967,0,0,0-3.441,9.49v5a5.788,5.788,0,0,1-5.77,5.769h-9.233a5.786,5.786,0,0,1-5.77-5.769v-4.991a14.908,14.908,0,0,0-3.424-9.477,17.888,17.888,0,0,1,9.913-28.822q.341-.077.688-.138c.123-.022.246-.043.369-.063a17.892,17.892,0,0,1,20.725,17.551Z" transform="translate(-1446.604 -587.82)" fill="#feca2e"/>
            <path id="Trazado_222078" data-name="Trazado 222078" d="M1541.751,925.693l-.02.154-.254,1.945-.067.512v0l-.068.516-.253,1.944-.067.512v0l-.067.517-.037.285a2.443,2.443,0,0,1-2.6,1.74h-3.039a3.47,3.47,0,0,1-.914-.121h0a2.946,2.946,0,0,1-.708-.294l-.016-.01a2.336,2.336,0,0,1-.46-.351,1.664,1.664,0,0,1-.5-.946l-.108-.754-.069-.475h0v-.01h0l-.067-.465-.258-1.8-.068-.473,0-.01-.067-.467-.279-1.953Z" transform="translate(-1519.283 -876.206)" fill="#ed7d2b"/>
            <g id="Grupo_210513" data-name="Grupo 210513" transform="translate(12.751 49.487)">
              <path id="Trazado_222079" data-name="Trazado 222079" d="M1542.174,925.693h-1.717c-2.771.8-5.52,1.593-6.794,1.953l.067.467,0,.01.068.473c1.031-.286,3.507-.995,9.56-2.75l.02-.154Z" transform="translate(-1533.663 -925.693)" fill="#f99746"/>
              <path id="Trazado_222080" data-name="Trazado 222080" d="M1536.422,943.092h0v.01h0l.068.475c1.193-.335,3.653-1.041,8.778-2.526l.068-.516v0l.067-.512c-3.238.938-7.158,2.07-9.049,2.607Z" transform="translate(-1535.961 -937.922)" fill="#f99746"/>
              <path id="Trazado_222081" data-name="Trazado 222081" d="M1541.918,962.973l.016.01a2.947,2.947,0,0,0,.708.294h0c1.406-.4,3.492-1.005,6.595-1.9l.067-.517v0l.067-.512c-2.771.8-5.951,1.721-7.915,2.282A2.346,2.346,0,0,0,1541.918,962.973Z" transform="translate(-1540.316 -955.265)" fill="#f99746"/>
            </g>
            <g id="Grupo_210517" data-name="Grupo 210517" transform="translate(10.403 26.158)">
              <g id="Grupo_210514" data-name="Grupo 210514" transform="translate(0 0.381)">
                <rect id="Rectángulo_295398" data-name="Rectángulo 295398" width="0.809" height="23.207" transform="translate(0 0.135) rotate(-9.615)" fill="#ed7d2b"/>
              </g>
              <g id="Grupo_210515" data-name="Grupo 210515" transform="translate(9.931 0.737)">
                <rect id="Rectángulo_295399" data-name="Rectángulo 295399" width="22.894" height="0.809" transform="matrix(0.18, -0.984, 0.984, 0.18, 0, 22.52)" fill="#ed7d2b"/>
              </g>
              <g id="Grupo_210516" data-name="Grupo 210516" transform="translate(0.392)">
                <path id="Trazado_222082" data-name="Trazado 222082" d="M1529.532,771.012a1.578,1.578,0,0,1-.349-.043.5.5,0,0,1-.4-.434,3.756,3.756,0,0,1,.861-2.218,2.18,2.18,0,0,0-1.085-1.05c-.6-.182-1.522.372-2.164,1.081a4.818,4.818,0,0,1,.316.514c.329.621.565,1.415.242,1.782-.12.136-.365.259-.85.076a1.007,1.007,0,0,1-.6-1.408,3.239,3.239,0,0,1,.574-.982,2.193,2.193,0,0,0-1.816-1.059,2.008,2.008,0,0,0-.9.339,2.709,2.709,0,0,1,.225,2.3.729.729,0,0,1-.973.323c-.309-.11-.47-.535-.411-1.082a2.5,2.5,0,0,1,.839-1.6,2.077,2.077,0,0,0-.465-.522,1.541,1.541,0,0,0-2.1.1l-.176-.17a1.812,1.812,0,0,1,2.425-.128,2.3,2.3,0,0,1,.51.566,2.25,2.25,0,0,1,.994-.37,2.4,2.4,0,0,1,2.009,1.114,2.769,2.769,0,0,1,2.387-1.11,2.338,2.338,0,0,1,1.168,1.077,4.2,4.2,0,0,1,.941-.926c.511-.338.844-.261,1.033-.136a1.848,1.848,0,0,1,.5.5,2.747,2.747,0,0,1,.475-.306,1.341,1.341,0,0,1,1.531.061l-.158.187a1.149,1.149,0,0,0-1.263-.029,2.554,2.554,0,0,0-.455.295,2.589,2.589,0,0,1,.245,2.085.518.518,0,0,1-.693.272.919.919,0,0,1-.681-.839,2.2,2.2,0,0,1,.81-1.563,1.606,1.606,0,0,0-.441-.454c-.231-.152-.543-.01-.763.136a4.135,4.135,0,0,0-.946.951,3.188,3.188,0,0,1,.418,2.038A.792.792,0,0,1,1529.532,771.012Zm.243-2.455a3.366,3.366,0,0,0-.748,1.935.263.263,0,0,0,.21.239c.479.109.774-.031.876-.416A2.855,2.855,0,0,0,1529.775,768.557Zm-3.54-.018a2.906,2.906,0,0,0-.494.85.763.763,0,0,0,.452,1.1c.2.074.455.132.58-.009.192-.218.079-.837-.275-1.505A4.618,4.618,0,0,0,1526.235,768.539Zm-3.061-.776a2.253,2.253,0,0,0-.721,1.411c-.045.418.057.757.249.825a.5.5,0,0,0,.676-.21A2.45,2.45,0,0,0,1523.174,767.763Zm9.034.156a1.962,1.962,0,0,0-.692,1.336.69.69,0,0,0,.52.623.277.277,0,0,0,.39-.152A2.345,2.345,0,0,0,1532.208,767.92Z" transform="translate(-1520.309 -766.412)" fill="#ed7d2b"/>
              </g>
            </g>
            <path id="Trazado_222083" data-name="Trazado 222083" d="M1598.051,624.279c1.47,1.385,1.286,3.934-.605,4.5a4.165,4.165,0,0,1-4.6-1.963c-1.051-1.82-.566-3.316.723-4.06S1596.522,622.838,1598.051,624.279Z" transform="translate(-1570.935 -617.401)" fill="#fff0e3"/>
          </g>
          <g id="Grupo_210521" data-name="Grupo 210521" transform="translate(10.153 9.379)">
            <rect id="Rectángulo_295400" data-name="Rectángulo 295400" width="1.309" height="8.185" rx="0.655" transform="translate(32.281 0.992)" fill="#fff0e3"/>
            <g id="Grupo_210519" data-name="Grupo 210519" transform="translate(44.089)">
              <path id="Rectángulo_295401" data-name="Rectángulo 295401" d="M.655,0h0a.655.655,0,0,1,.655.655v3.8a.654.654,0,0,1-.654.654h0A.655.655,0,0,1,0,4.456V.655A.655.655,0,0,1,.655,0Z" transform="matrix(0.5, 0.866, -0.866, 0.5, 14.301, 14.167)" fill="#fff0e3"/>
              <path id="Trazado_222084" data-name="Trazado 222084" d="M1727.691,684.277h0a.656.656,0,0,1,.654-.655h8.738a.656.656,0,0,1,.655.655h0a.657.657,0,0,1-.655.655h-8.738A.656.656,0,0,1,1727.691,684.277Z" transform="translate(-1715.081 -657.05)" fill="#fff0e3"/>
              <path id="Trazado_222085" data-name="Trazado 222085" d="M1641.993,514.333h0a.656.656,0,0,1-.345-.859l4.638-10.874a.657.657,0,0,1,.859-.345h0a.657.657,0,0,1,.345.859l-4.638,10.874A.656.656,0,0,1,1641.993,514.333Z" transform="translate(-1641.596 -502.202)" fill="#fff0e3"/>
            </g>
            <g id="Grupo_210520" data-name="Grupo 210520">
              <path id="Trazado_222086" data-name="Trazado 222086" d="M1399.066,603.33l.094-.163a.562.562,0,0,0-.205-.766l-3.455-1.995a.562.562,0,0,0-.766.205l-.094.163a.562.562,0,0,0,.205.766l3.456,2A.562.562,0,0,0,1399.066,603.33Z" transform="translate(-1386.658 -585.959)" fill="#fff0e3"/>
              <path id="Trazado_222087" data-name="Trazado 222087" d="M1350.625,684.277h0a.656.656,0,0,0-.655-.655h-8.738a.657.657,0,0,0-.655.655h0a.657.657,0,0,0,.655.655h8.738A.657.657,0,0,0,1350.625,684.277Z" transform="translate(-1340.578 -657.05)" fill="#fff0e3"/>
              <path id="Trazado_222088" data-name="Trazado 222088" d="M1460.218,514.333h0a.656.656,0,0,0,.345-.859l-4.638-10.874a.656.656,0,0,0-.859-.345h0a.656.656,0,0,0-.345.859l4.638,10.874A.656.656,0,0,0,1460.218,514.333Z" transform="translate(-1437.958 -502.202)" fill="#fff0e3"/>
            </g>
          </g>
        </g>
        <g id="Grupo_210523" data-name="Grupo 210523" transform="translate(166.749 90.899)">
          <path id="Trazado_222089" data-name="Trazado 222089" d="M1412.4,920.834c.009-.247.2-2.914,4.261-3.053,0,0-2,.238-2.342,1.116,0,0,1.36-1.085,2.467-.736s1.758,2.289,1.764,2.927-.609,2.7-1.312,2.87a2.145,2.145,0,0,1-.851,0,9.592,9.592,0,0,1,.545.974c1.621,3.326-.051,6.577-1.422,6.218-.88-.23-1.129,1.271-1.129,1.271l-8.548-6.92S1408.979,919.005,1412.4,920.834Z" transform="translate(-1390.374 -917.781)" fill="#2c3a64"/>
          <path id="Trazado_222090" data-name="Trazado 222090" d="M1430.345,1278.924l1.816.676s7.886-10.937,8.857-20.561a14.613,14.613,0,0,0-.259-4.92s.077-.44.212-1.219c.062-.363.14-.8.227-1.3.256-1.469.609-3.479,1.012-5.768.928-5.267,2.13-12,3.064-16.949l-.489-.157-5.293-1.708-1.094-3.474-3.942-1.038s-.88,1.723-1.668,9.859c-.145,1.067-.277,2.244-.376,3.521a69.685,69.685,0,0,0,.375,14.253q.271,2.121.692,4.374a19.511,19.511,0,0,1,.151,4.32C1433.233,1266.7,1430.345,1278.924,1430.345,1278.924Z" transform="translate(-1411.291 -1177.873)" fill="#1c468a"/>
          <path id="Trazado_222091" data-name="Trazado 222091" d="M1444.453,1225.391l8.559,17.015c.062-.363.14-.8.227-1.3.256-1.469.609-3.479,1.012-5.768.928-5.267,2.13-12,3.064-16.949l-.489-.157-5.293-1.708-1.094-3.475-5.119-2.838s0,.792-.446,9.449C1444.729,1220.727,1444.552,1224.115,1444.453,1225.391Z" transform="translate(-1423.333 -1167.38)" fill="#163560"/>
          <path id="Trazado_222092" data-name="Trazado 222092" d="M1470.161,1208.621l.2-1.7c3.319.882,12.574-3.242,12.574-3.242s2.831,3.6,2.409,10.381c-.206,3.307-.583,17.361-.976,21.52-.142,1.507-.267,2.58-.318,3.008a.007.007,0,0,0,0,0,.594.594,0,0,0,.1.368,19.541,19.541,0,0,1,1.451,3.052c3.859,10.283-.594,22.947-.594,22.947l-1.156-.466s-2.534-14.093-4.593-20.32a12.324,12.324,0,0,0-.992-2.382,26.9,26.9,0,0,1-2.48-6.614,162.637,162.637,0,0,1-3.336-17.546A52.234,52.234,0,0,0,1470.161,1208.621Z" transform="translate(-1445.275 -1161.805)" fill="#1c468a"/>
          <path id="Trazado_222093" data-name="Trazado 222093" d="M1307.841,1089.021l-.258,1.953s1.176-.157,1.369-.17c.6-.041,2.394-.157,4.056-.336,2.5-.247,4.313-.3,5.495-1.033,1.8-1.1,4.754-4.466,6.678-7.832a2.162,2.162,0,0,0,.137-.247,12.088,12.088,0,0,0,1.759-4.974,7.1,7.1,0,0,0-.234-2.253,5.745,5.745,0,0,0-1.017-2.034,1.031,1.031,0,0,0-.192-.234,4.746,4.746,0,0,0-1.306-1.113c-.33-.137-1.425,1.191-1.8,1.59l-.31.921c-.3.316-3.622,10.987-5.119,12.649-.646.714-3.654,1.837-6.395,2.6A13,13,0,0,1,1307.841,1089.021Z" transform="translate(-1306.509 -1048.335)" fill="#f2a16b"/>
          <path id="Trazado_222094" data-name="Trazado 222094" d="M1426.864,1024.7a10.335,10.335,0,0,0,3.823.9c5.707.313,7-4.69,7.238-8.01a4.787,4.787,0,0,0-1.958-.248c-.331.018-.674.049-.979.084a.549.549,0,0,1-.4-.113c-.719-.564-1.813-2.272-2.471-4.963l-.246.114-4.118,1.936s.437,1.34.76,2.622a13.442,13.442,0,0,1,.309,1.523.9.9,0,0,1-.546.936h0a.011.011,0,0,1,0,0A28.267,28.267,0,0,0,1426.864,1024.7Z" transform="translate(-1408.32 -998.498)" fill="#ffb27d"/>
          <path id="Trazado_222095" data-name="Trazado 222095" d="M1436.06,1070.688c-.047,2.111-14.911,3.983-17.469,2.566,0,0-.663-3.2-1.508-6.8-.254-1.082-.526-2.2-.8-3.276a42.989,42.989,0,0,0-1.814-5.936c-.053-.115-.1-.225-.143-.339-1.139-3.02.994-6.249-.479-7.2a11.513,11.513,0,0,1,3.316-1.764.012.012,0,0,1,0,0,6.707,6.707,0,0,0,.163,2.932c.826,1.55,4.055.739,5.528-1.174a10.422,10.422,0,0,0,1.836-3.31l.169-.592a10.694,10.694,0,0,1,4.254.251,11.758,11.758,0,0,0-.826,2.761c-.022.138-.039.276-.053.414a5.439,5.439,0,0,0-.022.868,1.667,1.667,0,0,0,.526,1.037,8.133,8.133,0,0,0,1.1.91c.284.2.588.418.9.653a73.973,73.973,0,0,0,.223,7.5,5.051,5.051,0,0,0,.729,2.129,5.231,5.231,0,0,0,.54.727C1433.836,1064.853,1436.114,1070.442,1436.06,1070.688Z" transform="translate(-1397.211 -1026.957)" fill="#fff"/>
          <path id="Trazado_222096" data-name="Trazado 222096" d="M1432.915,1015.071s.438,1.339.76,2.622c2.407-.672,3.138-3.2,3.358-4.558Z" transform="translate(-1413.484 -999.169)" fill="#ed985f"/>
          <path id="Trazado_222097" data-name="Trazado 222097" d="M1408.117,975s5.759-1.333,4.874-4.906-.738-6.152-4.452-5.452-4.088,2.24-4.083,3.5S1406.6,975.251,1408.117,975Z" transform="translate(-1389.194 -957.677)" fill="#ffb27d"/>
          <path id="Trazado_222098" data-name="Trazado 222098" d="M1400.751,962.317c.619-1.3,1.348-1.226,1.8-1a4.131,4.131,0,0,1,5.36-.458,7.032,7.032,0,0,0,3.235,3.476s-.885.906-3.449.886a4.221,4.221,0,0,1-2.287-.861,13.793,13.793,0,0,0,3,2.239c-3.21-.614-5.362-4.33-5.583-4.725a4.631,4.631,0,0,0-.836,1.978c-.06.981.278,2.886-.284,2.958C1401.715,966.814,1399.823,964.26,1400.751,962.317Z" transform="translate(-1385.813 -953.881)" fill="#2c3a64"/>
          <path id="Trazado_222099" data-name="Trazado 222099" d="M1405.421,1073.079s-.511.294-1.445,3.15a3.2,3.2,0,0,0,2.376,1.205S1406.526,1073.405,1405.421,1073.079Z" transform="translate(-1388.784 -1050.333)" fill="#f3f9ff"/>
          <path id="Trazado_222100" data-name="Trazado 222100" d="M1525.608,1598.477h9.145a5.021,5.021,0,0,0-.258-2.451c-.458-1.015-1.174-1.476-1-2.7a3.294,3.294,0,0,1-2.85,1.091,10.032,10.032,0,0,1-1.587,2.057C1528.457,1596.9,1525.792,1596.746,1525.608,1598.477Z" transform="translate(-1492.601 -1494.378)" fill="#2358a5"/>
          <path id="Trazado_222101" data-name="Trazado 222101" d="M1391.551,1600.867h9.145a3.8,3.8,0,0,0-.259-2.451,1.763,1.763,0,0,1,.066-2.105,3.555,3.555,0,0,1-1.54.29,3.224,3.224,0,0,1-1.36-.478,32.887,32.887,0,0,1-2.605,2.737C1394.4,1599.289,1391.735,1599.136,1391.551,1600.867Z" transform="translate(-1378.179 -1496.769)" fill="#2358a5"/>
          <path id="Trazado_222102" data-name="Trazado 222102" d="M1305.365,1135.819a5.612,5.612,0,0,0-1.3-1.308c-.5-.227-.976-1.622-1.253-1.2-.169.26.258,1.226.149,1.444s-1.215-.243-1.409-.553c-.13-.208-1.27-1.584-1.3-.95a7.6,7.6,0,0,0,1.46,3.378,13.013,13.013,0,0,0,2.349.728Z" transform="translate(-1300.253 -1101.556)" fill="#ffb27d"/>
          <path id="Trazado_222103" data-name="Trazado 222103" d="M1441.439,1111.219c-2.068,5.058-10.026,11.324-10.026,11.324l-.138-.155c-.254-1.082-.526-2.2-.8-3.276l8.478-7.894Z" transform="translate(-1411.403 -1082.887)" fill="#ed7d2b"/>
          <path id="Trazado_222104" data-name="Trazado 222104" d="M1326.52,1065.168l-.259,1.443s4.549,1.04,5.552,1.26l.012.006c1.733.344,3.687.7,5.39.878a14.462,14.462,0,0,0,3.069.037,1.733,1.733,0,0,0,.232-.045c1.949-.388,5.12-2.71,8.008-5.434.4-.375.787-.757,1.169-1.126a37.583,37.583,0,0,0,3.606-4.088,14.764,14.764,0,0,0,1.377-2.1,6.13,6.13,0,0,0,.306-.631c1.641-3.631.074-4.958.074-4.958-.032-.03-.063-.06-.108-.095-.289-.194-.711-.131-1.238.126a12.474,12.474,0,0,0-2.422,1.744c-1.453,1.283-10.166,11.89-12.2,12.294C1337.324,1064.825,1326.52,1065.168,1326.52,1065.168Z" transform="translate(-1322.452 -1030.803)" fill="#ffb27d"/>
          <path id="Trazado_222105" data-name="Trazado 222105" d="M1479.718,1047.6a2.766,2.766,0,0,1,1.931,2.359c.155,1.86-.087,7.617-.087,7.617s-5.8-1.664-8.168-5.214C1473.394,1052.366,1477.657,1047.651,1479.718,1047.6Z" transform="translate(-1448.035 -1028.59)" fill="#f3f9ff"/>
        </g>
        <path id="Rectángulo_295402" data-name="Rectángulo 295402" d="M.876,0H311.214a.876.876,0,0,1,.876.876v0a.876.876,0,0,1-.876.876H.876A.876.876,0,0,1,0,.876v0A.876.876,0,0,1,.876,0Z" transform="translate(0 194.998)" fill="#2e3552"/>
      </g>
      <g id="Grupo_210525" data-name="Grupo 210525" transform="translate(182.568 101.567)">
        <g id="Grupo_169432" data-name="Grupo 169432">
          <g id="Grupo_169431" data-name="Grupo 169431">
            <g id="Grupo_169422" data-name="Grupo 169422" transform="translate(0.056 1.069)">
              <g id="Grupo_169421" data-name="Grupo 169421">
                <g id="Grupo_169420" data-name="Grupo 169420">
                  <g id="Grupo_169404" data-name="Grupo 169404" transform="translate(0 0.499)">
                    <g id="Grupo_169398" data-name="Grupo 169398" transform="translate(0.117 0.357)">
                      <g id="Grupo_169397" data-name="Grupo 169397">
                        <g id="Grupo_169396" data-name="Grupo 169396">
                          <g id="Grupo_169395" data-name="Grupo 169395">
                            <path id="Trazado_207773" data-name="Trazado 207773" d="M1409.442,1004.055a.268.268,0,0,1,.244-.289.28.28,0,0,1,.321.221v.008a.268.268,0,0,1-.243.289.28.28,0,0,1-.321-.221Z" transform="translate(-1409.441 -1003.762)" fill="#283237"/>
                          </g>
                        </g>
                      </g>
                    </g>
                    <g id="Grupo_169403" data-name="Grupo 169403">
                      <g id="Grupo_169402" data-name="Grupo 169402">
                        <g id="Grupo_169401" data-name="Grupo 169401">
                          <g id="Grupo_169400" data-name="Grupo 169400">
                            <g id="Grupo_169399" data-name="Grupo 169399">
                              <path id="Trazado_207774" data-name="Trazado 207774" d="M1408.725,1001.555a.765.765,0,0,1,.41-.217.8.8,0,0,1,.468.048c.109.049.156.106.143.125-.026.042-.275-.066-.575-.006s-.483.246-.525.217C1408.626,1001.709,1408.646,1001.641,1408.725,1001.555Z" transform="translate(-1408.639 -1001.323)" fill="#283237"/>
                            </g>
                          </g>
                        </g>
                      </g>
                    </g>
                  </g>
                  <g id="Grupo_169414" data-name="Grupo 169414" transform="translate(2.965)">
                    <g id="Grupo_169408" data-name="Grupo 169408" transform="translate(0.115 0.406)">
                      <g id="Grupo_169407" data-name="Grupo 169407">
                        <g id="Grupo_169406" data-name="Grupo 169406">
                          <g id="Grupo_169405" data-name="Grupo 169405">
                            <path id="Trazado_207775" data-name="Trazado 207775" d="M1429.672,1000.982a.268.268,0,0,1,.243-.29.28.28,0,0,1,.321.221v.007a.268.268,0,0,1-.243.29.28.28,0,0,1-.321-.221Z" transform="translate(-1429.671 -1000.689)" fill="#283237"/>
                          </g>
                        </g>
                      </g>
                    </g>
                    <g id="Grupo_169413" data-name="Grupo 169413">
                      <g id="Grupo_169412" data-name="Grupo 169412">
                        <g id="Grupo_169411" data-name="Grupo 169411">
                          <g id="Grupo_169410" data-name="Grupo 169410">
                            <g id="Grupo_169409" data-name="Grupo 169409">
                              <path id="Trazado_207776" data-name="Trazado 207776" d="M1428.969,998.146a.766.766,0,0,1,.41-.217.8.8,0,0,1,.468.048c.109.049.156.106.143.125-.026.042-.275-.066-.574-.006s-.484.246-.525.217C1428.871,998.3,1428.89,998.232,1428.969,998.146Z" transform="translate(-1428.883 -997.914)" fill="#283237"/>
                            </g>
                          </g>
                        </g>
                      </g>
                    </g>
                  </g>
                  <g id="Grupo_169419" data-name="Grupo 169419" transform="translate(1.48 0.313)">
                    <g id="Grupo_169418" data-name="Grupo 169418">
                      <g id="Grupo_169417" data-name="Grupo 169417">
                        <g id="Grupo_169416" data-name="Grupo 169416">
                          <g id="Grupo_169415" data-name="Grupo 169415">
                            <path id="Trazado_207777" data-name="Trazado 207777" d="M1419.059,1002.578a.558.558,0,0,1-.134.007.194.194,0,0,1-.147-.084.42.42,0,0,1-.016-.3l.109-.607a9.658,9.658,0,0,1,.359-1.548,9.639,9.639,0,0,1-.229,1.568l-.12.605a.37.37,0,0,0-.01.229c.023.048.1.049.176.043a2.087,2.087,0,0,1,.5-.007A2.065,2.065,0,0,1,1419.059,1002.578Z" transform="translate(-1418.743 -1000.048)" fill="#283237"/>
                          </g>
                        </g>
                      </g>
                    </g>
                  </g>
                </g>
              </g>
            </g>
            <g id="Grupo_169426" data-name="Grupo 169426" transform="translate(2.73)">
              <g id="Grupo_169425" data-name="Grupo 169425">
                <g id="Grupo_169424" data-name="Grupo 169424">
                  <g id="Grupo_169423" data-name="Grupo 169423">
                    <path id="Trazado_207778" data-name="Trazado 207778" d="M1427.057,990.78a1.256,1.256,0,0,1,1.062-.084c.13.055.193.12.179.157-.033.079-.337.033-.7.065s-.653.118-.7.045C1426.883,990.929,1426.937,990.855,1427.057,990.78Z" transform="translate(-1426.899 -990.616)" fill="#283237"/>
                  </g>
                </g>
              </g>
            </g>
            <g id="Grupo_169430" data-name="Grupo 169430" transform="translate(0 0.698)">
              <g id="Grupo_169429" data-name="Grupo 169429">
                <g id="Grupo_169428" data-name="Grupo 169428">
                  <g id="Grupo_169427" data-name="Grupo 169427">
                    <path id="Trazado_207779" data-name="Trazado 207779" d="M1408.336,995.606a.773.773,0,0,1,.814-.178c.1.045.15.1.135.142-.036.078-.257.062-.5.12s-.443.157-.509.1C1408.243,995.763,1408.259,995.69,1408.336,995.606Z" transform="translate(-1408.259 -995.38)" fill="#283237"/>
                  </g>
                </g>
              </g>
            </g>
          </g>
        </g>
        <g id="Grupo_169437" data-name="Grupo 169437" transform="translate(2.27 4.282)">
          <path id="Trazado_207781" data-name="Trazado 207781" d="M1423.755,1020.286l.6-.373a.322.322,0,0,1,.143-.06c.126-.009.209.122.237.241a.619.619,0,0,1-.024.4.416.416,0,0,1-.31.245.466.466,0,0,1-.357-.12,1.305,1.305,0,0,1-.237-.3" transform="translate(-1423.755 -1019.853)" fill="#a06854"/>
        </g>
        <g id="Grupo_169439" data-name="Grupo 169439" transform="translate(2.163 4.211)">
          <g id="Grupo_169438" data-name="Grupo 169438">
            <path id="Trazado_207782" data-name="Trazado 207782" d="M1423.64,1020.39a.548.548,0,0,0,.277-.063.555.555,0,0,0,.279-.316.574.574,0,0,0-.075-.5.54.54,0,0,0-.094-.1.181.181,0,0,0-.081-.041.159.159,0,0,0-.1.015,1.212,1.212,0,0,0-.109.069l-.1.065c-.125.084-.236.162-.328.228a.187.187,0,1,0,.046.066c.1-.057.214-.128.342-.208l.1-.062c.032-.02.071-.047.1-.058s.022-.009.053.012a.445.445,0,0,1,.074.082.473.473,0,0,1-.148.684.977.977,0,0,1-.336.105C1423.539,1020.37,1423.573,1020.386,1423.64,1020.39Z" transform="translate(-1423.03 -1019.363)" fill="#283237"/>
          </g>
        </g>
      </g>
    </g>
  </g>
</svg>
