<svg xmlns="http://www.w3.org/2000/svg" width="317" height="230" viewBox="0 0 317 230">
  <g id="Grupo_222343" data-name="Grupo 222343" transform="translate(6430 7916)">
    <path id="Rectángulo_295409" data-name="Rectángulo 295409" d="M20,0H297a20,20,0,0,1,20,20V230a0,0,0,0,1,0,0H0a0,0,0,0,1,0,0V20A20,20,0,0,1,20,0Z" transform="translate(-6430 -7916)" fill="#4dd0e1"/>
    <g id="Grupo_210570" data-name="Grupo 210570" transform="translate(-6419.4 -7898)">
      <g id="Grupo_210567" data-name="Grupo 210567" transform="translate(0)">
        <g id="Grupo_210566" data-name="Grupo 210566" transform="translate(7.429)">
          <path id="Trazado_222219" data-name="Trazado 222219" d="M878.66,3867.2c-5.223,0-15.927.6-16.041.869H835.634l-7.9-.027H757.014l-20.654-.028H681.912l-22.742-.026H618.045l-.2-.655-.023-.055a.314.314,0,0,1-.023-.082c-.091-.218-34.223-86.863,22.131-129.575,22.049-16.712,10.43-50.083,43.065-70.3,42.077-26.064,53.545,11.806,103.3,2.651,43.213-7.952,62.9,17.374,59.869,55.039-1.425,17.692,8.356,31.253,18,33.686,26.616,6.71,25.662,46.017,23.486,74.9C886.309,3851.4,878.845,3867.2,878.66,3867.2Z" transform="translate(-607.47 -3658.007)" fill="#65e3f3"/>
          <g id="Grupo_210550" data-name="Grupo 210550" transform="translate(172.382 100.997)">
            <path id="Trazado_222220" data-name="Trazado 222220" d="M1709.7,4487.376s-.567-.936-.914-1.453-1.038-1.163-1.215-1,.531.852.5,1.081-1.217-.541-1.345-.713c-.257-.347-.935-.72-1.018-.284a5.721,5.721,0,0,0,.65,2.2,4.331,4.331,0,0,0,1.714,1.2c.529.187,1.435.622,1.435.622Z" transform="translate(-1705.697 -4456.03)" fill="#ffb27d"/>
            <path id="Trazado_222221" data-name="Trazado 222221" d="M1797.859,4302.045a4.611,4.611,0,0,0-3.645-.39c-6.192-.727-8,6.493-7.914,8.979s.368,5.152-2.4,8.38c-7.987,9.324,8.74,9.734,8.74,9.734.141-7.449,9.071-4.73,8.679-3.976C1812.769,4327.52,1802.46,4304.433,1797.859,4302.045Z" transform="translate(-1769.806 -4301.451)" fill="#163560"/>
            <path id="Trazado_222222" data-name="Trazado 222222" d="M1744.459,4435.412a16.329,16.329,0,0,1-1.665,2.519c-1.294,1.621-3.289,3.493-5.794,3.862a6.226,6.226,0,0,1-3.442-.559h0a15.7,15.7,0,0,1-5.329-4.456,2.5,2.5,0,0,1,.341-2.455s6.142,1.382,6.727,1.089,4-10.123,4.81-11.359,3.582-1.876,3.582-1.876Z" transform="translate(-1724.543 -4403.227)" fill="#feca2e"/>
            <path id="Trazado_222223" data-name="Trazado 222223" d="M1772.37,4505.062c-1.294,1.62-3.289,3.492-5.794,3.862a6.209,6.209,0,0,1-3.442-.559c.119.016,3.157.392,4.368-1.774,1.235-2.21,2.571-5.721,4.406-4.551C1772.7,4502.544,1772.666,4503.8,1772.37,4505.062Z" transform="translate(-1754.119 -4470.358)" fill="#eda62b"/>
            <path id="Trazado_222224" data-name="Trazado 222224" d="M1942.115,4924.578s1.874,1.71,1.508,2.925-2.057,2.026-2.285,3.512-1.143,2.3-1.966,2.3h-3.923s-.606-1.046.857-1.361,2.014-2.061,1.923-3.681a28.566,28.566,0,0,1,.137-3.781l3.109-.721Z" transform="translate(-1899.281 -4826.086)" fill="#2358a5"/>
            <path id="Trazado_222225" data-name="Trazado 222225" d="M1820.155,4933.558s.675,7.246-.148,7.651l-10.531-.022s0-1.215,1.691-1.486,4.663-1.26,5.166-3.466S1820.155,4933.558,1820.155,4933.558Z" transform="translate(-1793.186 -4834.34)" fill="#2358a5"/>
            <path id="Trazado_222226" data-name="Trazado 222226" d="M1830.154,4414.055c-2.167-4.859-3.493-6.255-3.24-7.763.188-1.123-.573-20.932-.573-20.932-.257-.08-.773-.152-1.055-.214a2.642,2.642,0,0,1-1.931-1.679,13.486,13.486,0,0,1-.655-4.47l-.277.055-4.668.924s.106,1.469.109,2.853c0,.012,0,.023,0,.034a2.686,2.686,0,0,1-1.938,2.6l-1.1.315a42.81,42.81,0,0,0-2.041,9.92c-.327,5.027,3.117,7.211-.026,17.256C1809.548,4423.21,1831.351,4416.741,1830.154,4414.055Z" transform="translate(-1795.68 -4366.825)" fill="#ffb27d"/>
            <path id="Trazado_222227" data-name="Trazado 222227" d="M1846.331,4380.271s.106,1.468.109,2.853c2.612-.074,3.993-2.457,4.558-3.777Z" transform="translate(-1824.257 -4367.12)" fill="#e8945b"/>
            <path id="Trazado_222228" data-name="Trazado 222228" d="M1829.719,4337.576s6.18.1,6.184-3.748.8-6.429-3.141-6.657-4.714,1.24-5.028,2.525S1828.111,4337.45,1829.719,4337.576Z" transform="translate(-1808.516 -4323.115)" fill="#ffb27d"/>
            <path id="Trazado_222229" data-name="Trazado 222229" d="M1842.23,4322.495s1.692,4.517,4.289,5.184,3.723-.028,3.723-.028a7.353,7.353,0,0,1-2.405-4.344S1843.506,4320.345,1842.23,4322.495Z" transform="translate(-1820.799 -4318.532)" fill="#163560"/>
            <path id="Trazado_222230" data-name="Trazado 222230" d="M1828.1,4325.079a3.838,3.838,0,0,0-1.771,1.383,6.227,6.227,0,0,0-.835,3.534s-1.275-3.069.158-4.806C1827.166,4323.349,1828.1,4325.079,1828.1,4325.079Z" transform="translate(-1806.246 -4320.749)" fill="#163560"/>
            <path id="Trazado_222231" data-name="Trazado 222231" d="M1826.935,4428.292a41.935,41.935,0,0,1,0,4.868c-.1,1.76-1.885,4.117-2.137,4.7-.634,1.463-1.349,1.7-1.349,1.7l-5.529,1.355-1.944.476-6.131-1.831s-2.792-7.794-1.671-12.182a33.713,33.713,0,0,1,2.834-7.434s5,4.9,11.517-.416Z" transform="translate(-1791.865 -4400.994)" fill="#feca2e"/>
            <path id="Trazado_222232" data-name="Trazado 222232" d="M1866.191,4501.385a17.2,17.2,0,0,1-.519,3.981c-.634,1.463-1.349,1.7-1.349,1.7l-5.529,1.355-2.4-.706s8.017-1.215,7.128-8.111Z" transform="translate(-1832.739 -4468.502)" fill="#f2ccaa"/>
            <path id="Trazado_222233" data-name="Trazado 222233" d="M1805.351,4554.687s-3.036,9.451-3.231,12.668,5.8,45.708,6.045,47.191c.227,1.4,1.963,2.288,1.963,2.288a2.624,2.624,0,0,0,1.937.149,4.774,4.774,0,0,0,2.08-.98s2.363-30.3.9-41.129a171.433,171.433,0,0,1-1.48-20.187Z" transform="translate(-1786.981 -4514.938)" fill="#163560"/>
            <path id="Trazado_222234" data-name="Trazado 222234" d="M1840.963,4552.891s4.631,6.214,5.063,10.415.678,18.956,1.6,23.051,4.3,11.976,4.3,24.749a2.547,2.547,0,0,1-1.436,1.122,11.679,11.679,0,0,1-1.263.349,1.984,1.984,0,0,1-2.221-1.054c-2.285-4.6-9.563-19.438-9.936-22.517-.264-2.18-2.562-16.606-7.575-25.071-1.2-2.031.739-10.114.739-10.114Z" transform="translate(-1809.729 -4513.423)" fill="#1c468a"/>
            <path id="Trazado_222235" data-name="Trazado 222235" d="M1818.716,4545.392a6.366,6.366,0,0,0,3.64,1.014c2.892.058,10.059-.738,10.059-.738a5.932,5.932,0,0,1,.305,1.83s-8.753,2.207-13.824.322A3.2,3.2,0,0,1,1818.716,4545.392Z" transform="translate(-1800.831 -4507.102)" fill="#233862"/>
            <g id="Grupo_210549" data-name="Grupo 210549" transform="translate(19.512 38.808)">
              <path id="Trazado_222236" data-name="Trazado 222236" d="M1831.323,4551.679a1.505,1.505,0,1,1,1.32-1.494A1.416,1.416,0,0,1,1831.323,4551.679Zm0-2.549a1.073,1.073,0,1,0,.882,1.056A.982.982,0,0,0,1831.323,4549.129Z" transform="translate(-1830.003 -4548.691)" fill="#fff"/>
            </g>
            <rect id="Rectángulo_295405" data-name="Rectángulo 295405" width="11.891" height="16.277" transform="matrix(0.754, -0.657, 0.657, 0.754, 21.351, 35.533)" fill="#fff"/>
            <path id="Trazado_222237" data-name="Trazado 222237" d="M1875.359,4556.466s-3.486.536-3.476,1.316.721,2.19,1.426,2.3c.895.142,2.674-2.167,2.674-2.167Z" transform="translate(-1845.797 -4516.438)" fill="#ffb27d"/>
            <path id="Trazado_222238" data-name="Trazado 222238" d="M1874.717,4556.067a4.555,4.555,0,0,0-2.025-.25c-.857.176-1.649.046-1.454.358s1.354.2,1.538.318.186.046.186.046Z" transform="translate(-1845.229 -4515.854)" fill="#ffb27d"/>
            <path id="Trazado_222239" data-name="Trazado 222239" d="M1890.338,4419.528a7.481,7.481,0,0,1,6.068,4.4c1.682,4.088,4.872,10.951,4.872,12.105s-1.782,4.715-11.354,6.761c0,0-.99-1.041-.93-1.865,0,0,5.975-5.132,5.959-5.731-.03-1.135-.979-2.633-6.225-7.88C1887.3,4425.887,1890.338,4419.528,1890.338,4419.528Z" transform="translate(-1859.678 -4400.994)" fill="#feca2e"/>
          </g>
          <g id="Grupo_210551" data-name="Grupo 210551" transform="translate(108.566 91.041)">
            <path id="Trazado_222240" data-name="Trazado 222240" d="M1377.323,4274.619l18.944,2.7-12.573-8.565-.638,2.747-4.607.836Z" transform="translate(-1365.05 -4263.928)" fill="#edcbab"/>
            <path id="Trazado_222241" data-name="Trazado 222241" d="M1330.352,4275.534l-15.766-8.124-15.451-.773Z" transform="translate(-1299.135 -4262.145)" fill="#f9ddbf"/>
            <path id="Trazado_222242" data-name="Trazado 222242" d="M1417.911,4242.844l12.573,8.566-9.735-13.389Z" transform="translate(-1399.268 -4238.021)" fill="#f9ddbf"/>
          </g>
          <g id="Grupo_210562" data-name="Grupo 210562" transform="translate(42.071 72.908)">
            <g id="Grupo_210553" data-name="Grupo 210553" transform="translate(7.869 2.091)">
              <g id="Grupo_210552" data-name="Grupo 210552">
                <path id="Trazado_222243" data-name="Trazado 222243" d="M988.3,4258.536a64.066,64.066,0,0,1-47.143-20.983c-10.046-11.251-14.7-25.2-13.1-39.287l.239.027-.239-.027c2.187-19.262,8.7-34.188,19.349-44.363,10.1-9.651,23.858-14.985,40.88-15.854,19.915-1.014,35.239,4.657,45.546,16.861a57.609,57.609,0,0,1,10.541,19.668,95.5,95.5,0,0,1,4.169,23.7,73.441,73.441,0,0,1-2.42,24.836,46.3,46.3,0,0,1-10.646,19.007C1025.193,4253.014,1009.32,4258.536,988.3,4258.536Zm4.445-120.122q-2.178,0-4.433.115c-16.9.862-30.555,6.151-40.573,15.72-10.569,10.1-17.03,24.923-19.2,44.07-1.583,13.946,3.026,27.767,12.98,38.914a63.579,63.579,0,0,0,46.785,20.823c20.886,0,36.641-5.472,46.828-16.264a45.821,45.821,0,0,0,10.535-18.812,72.966,72.966,0,0,0,2.4-24.674,95.014,95.014,0,0,0-4.146-23.58,57.143,57.143,0,0,0-10.451-19.506C1024.036,4144.058,1010.35,4138.414,992.742,4138.414Z" transform="translate(-927.414 -4137.602)" fill="#2b478b"/>
                <path id="Trazado_222244" data-name="Trazado 222244" d="M986.512,4257.084a64.405,64.405,0,0,1-47.391-21.094c-10.031-11.235-14.718-25.149-13.218-39.217h0l.075-.66h0c2.233-19.183,8.763-34.064,19.412-44.236,10.163-9.708,23.989-15.072,41.093-15.945,20.025-1.021,35.44,4.692,45.816,16.978a57.952,57.952,0,0,1,10.6,19.782,95.834,95.834,0,0,1,4.184,23.782,73.767,73.767,0,0,1-2.433,24.949,46.619,46.619,0,0,1-10.723,19.141C1023.584,4251.526,1007.63,4257.084,986.512,4257.084Zm4.445-120.122c-1.438,0-2.924.039-4.416.114-16.823.858-30.4,6.117-40.361,15.63-10.511,10.04-16.938,24.8-19.1,43.867-1.573,13.851,3.008,27.579,12.9,38.654a63.243,63.243,0,0,0,46.537,20.712c20.791,0,36.465-5.437,46.586-16.16a45.493,45.493,0,0,0,10.457-18.678,72.614,72.614,0,0,0,2.389-24.561,94.7,94.7,0,0,0-4.13-23.5,56.821,56.821,0,0,0-10.389-19.394C1022.072,4142.576,1008.457,4136.962,990.957,4136.962Z" transform="translate(-925.629 -4135.817)" fill="#2b478b"/>
              </g>
            </g>
            <g id="Grupo_210555" data-name="Grupo 210555" transform="translate(1.909 2.196)">
              <g id="Grupo_210554" data-name="Grupo 210554">
                <path id="Trazado_222245" data-name="Trazado 222245" d="M958.429,4261.775c-9.99,0-20.984-2.837-32.873-8.5a64.066,64.066,0,0,1-33.538-39.217c-4.232-14.478-2.431-29.075,5.069-41.1,10.258-16.449,22.553-27.125,36.546-31.731,13.272-4.368,27.983-3.27,43.725,3.268,18.417,7.647,29.812,19.358,33.869,34.808a57.612,57.612,0,0,1,1.058,22.29,95.5,95.5,0,0,1-6.428,23.189,73.43,73.43,0,0,1-12.865,21.382,44.815,44.815,0,0,1-34.562,15.613Zm-61.139-88.692.2.127c-7.426,11.91-9.207,26.369-5.015,40.713a63.581,63.581,0,0,0,33.284,38.918c18.857,8.981,35.434,10.816,49.271,5.453a45.818,45.818,0,0,0,17.6-12.454,72.961,72.961,0,0,0,12.778-21.243,95.056,95.056,0,0,0,6.4-23.073,57.138,57.138,0,0,0-1.047-22.1c-4.017-15.3-15.318-26.9-33.589-34.486-15.633-6.492-30.231-7.586-43.391-3.256-13.883,4.57-26.092,15.178-36.289,31.53Z" transform="translate(-889.444 -4138.272)" fill="#2b478b"/>
                <path id="Trazado_222246" data-name="Trazado 222246" d="M956.643,4260.32c-10.021,0-21.129-2.871-33.016-8.532a64.4,64.4,0,0,1-33.714-39.423c-4.258-14.569-2.445-29.263,5.106-41.371,10.3-16.519,22.656-27.241,36.724-31.872,13.35-4.393,28.139-3.292,43.956,3.276,18.518,7.689,29.978,19.475,34.063,35.03a57.939,57.939,0,0,1,1.066,22.418,95.83,95.83,0,0,1-6.45,23.271,73.766,73.766,0,0,1-12.925,21.478,45.143,45.143,0,0,1-34.81,15.724ZM895.989,4171.6c-7.376,11.828-9.144,26.191-4.978,40.444a63.24,63.24,0,0,0,33.108,38.71c18.771,8.941,35.259,10.772,49.008,5.444a45.482,45.482,0,0,0,17.473-12.365,72.63,72.63,0,0,0,12.718-21.146,94.724,94.724,0,0,0,6.375-22.991,56.8,56.8,0,0,0-1.039-21.977c-3.989-15.191-15.225-26.719-33.395-34.264C959.7,4137,945.181,4135.9,932.1,4140.21,918.293,4144.754,906.143,4155.315,895.989,4171.6Z" transform="translate(-887.658 -4136.486)" fill="#2b478b"/>
              </g>
            </g>
            <g id="Grupo_210557" data-name="Grupo 210557" transform="translate(8.487)">
              <g id="Grupo_210556" data-name="Grupo 210556">
                <path id="Trazado_222247" data-name="Trazado 222247" d="M997.14,4253.677c-14.5,0-29.386-6.966-44.314-20.743a66.324,66.324,0,0,1-21.132-49.062c.257-15.612,6.514-29.493,17.619-39.084l.162.188-.162-.188c15.188-13.118,30.62-19.9,45.868-20.165,14.456-.248,28.67,5.351,42.23,16.643,15.864,13.21,23.538,28.285,22.811,44.805a59.639,59.639,0,0,1-5.79,22.364,98.918,98.918,0,0,1-13.469,20.957,76.018,76.018,0,0,1-19.279,17.2,47.92,47.92,0,0,1-21.443,6.984Q998.694,4253.678,997.14,4253.677ZM996.1,4125.112c-.3,0-.607,0-.912.007-15.128.26-30.454,7-45.551,20.043-11,9.5-17.193,23.248-17.447,38.717a65.817,65.817,0,0,0,20.972,48.689c15.889,14.665,31.715,21.564,47.043,20.506a47.429,47.429,0,0,0,21.222-6.915,75.534,75.534,0,0,0,19.151-17.084,98.411,98.411,0,0,0,13.4-20.849,59.162,59.162,0,0,0,5.745-22.177c.72-16.358-6.894-31.3-22.632-44.4C1023.915,4130.673,1010.127,4125.112,996.1,4125.112Z" transform="translate(-931.354 -4124.283)" fill="#2b478b"/>
                <path id="Trazado_222248" data-name="Trazado 222248" d="M995.356,4252.224h0c-14.576,0-29.561-7.008-44.539-20.831a66.661,66.661,0,0,1-21.238-49.312c.257-15.591,6.463-29.467,17.484-39.113h0l.5-.434h0c15.167-13.029,30.584-19.766,45.828-20.028,14.54-.252,28.825,5.375,42.448,16.72,15.948,13.279,23.662,28.445,22.93,45.075a59.967,59.967,0,0,1-5.821,22.488,99.208,99.208,0,0,1-13.514,21.028,76.375,76.375,0,0,1-19.365,17.27,48.254,48.254,0,0,1-21.592,7.03c-1.034.071-2.085.107-3.124.107Zm-1.038-128.565c-.3,0-.6,0-.906.008-15.048.258-30.3,6.975-45.34,19.963-10.924,9.435-17.079,23.1-17.332,38.471a65.481,65.481,0,0,0,20.865,48.439c14.768,13.63,29.472,20.522,43.752,20.523q1.525,0,3.043-.1a47.117,47.117,0,0,0,21.074-6.869,75.213,75.213,0,0,0,19.065-17.01A98.06,98.06,0,0,0,1051.9,4206.3a58.823,58.823,0,0,0,5.715-22.052c.716-16.249-6.859-31.1-22.513-44.132C1021.983,4129.2,1008.263,4123.658,994.318,4123.658Z" transform="translate(-929.57 -4122.497)" fill="#2b478b"/>
              </g>
            </g>
            <g id="Grupo_210559" data-name="Grupo 210559" transform="translate(0 0.911)">
              <g id="Grupo_210558" data-name="Grupo 210558">
                <path id="Trazado_222249" data-name="Trazado 222249" d="M933.662,4257.5a46.245,46.245,0,0,1-16.189-2.833c-14.536-5.4-26.214-18.293-34.71-38.331a66.324,66.324,0,0,1,.947-53.411c6.664-14.122,18.082-24.194,32.151-28.361,19.243-5.7,36.1-5.527,50.1.513,13.281,5.729,23.923,16.683,31.63,32.557,9.016,18.57,9.8,35.468,2.336,50.224a59.647,59.647,0,0,1-14.486,17.995,98.9,98.9,0,0,1-20.9,13.55,76.016,76.016,0,0,1-24.65,7.73A53.668,53.668,0,0,1,933.662,4257.5Zm-17.73-122.7.071.239c-13.932,4.126-25.241,14.105-31.843,28.1a65.82,65.82,0,0,0-.939,53.005c8.441,19.906,20.023,32.711,34.425,38.059a47.423,47.423,0,0,0,22.186,2.438,75.546,75.546,0,0,0,24.487-7.682,98.4,98.4,0,0,0,20.8-13.481,59.149,59.149,0,0,0,14.368-17.843c7.392-14.609,6.605-31.358-2.34-49.782-7.653-15.763-18.211-26.636-31.38-32.317-13.893-5.994-30.636-6.16-49.764-.493Z" transform="translate(-877.28 -4130.085)" fill="#2b478b"/>
                <path id="Trazado_222250" data-name="Trazado 222250" d="M931.881,4256.052a46.679,46.679,0,0,1-16.305-2.854c-14.625-5.43-26.367-18.387-34.9-38.513a66.661,66.661,0,0,1,.953-53.683c6.7-14.209,18.2-24.343,32.357-28.538,19.32-5.723,36.252-5.545,50.328.526,13.356,5.762,24.054,16.77,31.8,32.717,9.064,18.669,9.849,35.665,2.333,50.518a59.981,59.981,0,0,1-14.565,18.1,99.234,99.234,0,0,1-20.974,13.6,76.338,76.338,0,0,1-24.758,7.763A54.5,54.5,0,0,1,931.881,4256.052Zm-17.566-122.474c-13.84,4.1-25.075,14.015-31.637,27.92a65.483,65.483,0,0,0-.934,52.734c8.4,19.818,19.922,32.562,34.235,37.876a47.088,47.088,0,0,0,22.033,2.419,75.213,75.213,0,0,0,24.378-7.649,98.043,98.043,0,0,0,20.728-13.436,58.819,58.819,0,0,0,14.289-17.742c7.343-14.511,6.555-31.161-2.342-49.486-7.617-15.689-18.119-26.509-31.213-32.158C950.033,4128.1,933.366,4127.934,914.315,4133.578Z" transform="translate(-875.499 -4128.301)" fill="#2b478b"/>
              </g>
            </g>
            <g id="Grupo_210561" data-name="Grupo 210561" transform="translate(11.429 2.091)">
              <g id="Grupo_210560" data-name="Grupo 210560">
                <path id="Trazado_222251" data-name="Trazado 222251" d="M1010.92,4258.536c-17.788,0-32.843-9.338-44.575-22.477-10.046-11.251-17.266-23.709-15.667-37.793,2.187-19.262,8.7-34.188,19.349-44.363,10.1-9.651,23.858-14.985,40.881-15.854,19.916-1.014,35.239,4.657,45.546,16.861a57.616,57.616,0,0,1,10.541,19.668,95.531,95.531,0,0,1,4.168,23.7,73.438,73.438,0,0,1-2.42,24.836,46.294,46.294,0,0,1-10.646,19.007C1047.816,4253.014,1031.943,4258.536,1010.92,4258.536Zm-60-60.243.239.027c-1.583,13.946,6.036,26.394,15.99,37.542,11.642,13.039,26.122,22.195,43.775,22.195,20.886,0,36.641-5.472,46.827-16.264a45.822,45.822,0,0,0,10.535-18.812,72.975,72.975,0,0,0,2.4-24.674,95.042,95.042,0,0,0-4.146-23.58,57.139,57.139,0,0,0-10.451-19.506c-10.2-12.083-25.4-17.7-45.154-16.691-16.9.862-30.555,6.151-40.574,15.72-10.569,10.1-17.03,24.923-19.2,44.07Z" transform="translate(-950.12 -4137.603)" fill="#2b478b"/>
                <path id="Trazado_222252" data-name="Trazado 222252" d="M1009.114,4257.086a52.073,52.073,0,0,1-24.715-6.351,73.931,73.931,0,0,1-20.108-16.238,72.325,72.325,0,0,1-12.255-17.917,37.342,37.342,0,0,1-3.495-20.134c2.2-19.342,8.74-34.335,19.45-44.566,10.163-9.708,23.989-15.072,41.093-15.944,20.026-1.02,35.44,4.691,45.817,16.979a57.946,57.946,0,0,1,10.6,19.781,95.845,95.845,0,0,1,4.184,23.782,73.784,73.784,0,0,1-2.433,24.95,46.626,46.626,0,0,1-10.723,19.141C1046.187,4251.528,1030.233,4257.086,1009.114,4257.086Zm-59.435-60.511c-1.338,11.782,3.717,23.628,15.908,37.282,13.084,14.653,27.729,22.084,43.527,22.084,20.791,0,36.465-5.437,46.586-16.16a45.485,45.485,0,0,0,10.457-18.677,72.624,72.624,0,0,0,2.388-24.561,94.716,94.716,0,0,0-4.13-23.5,56.814,56.814,0,0,0-10.389-19.394c-10.134-12-25.233-17.577-44.884-16.574-16.823.857-30.4,6.117-40.361,15.629C958.272,4162.748,951.844,4177.507,949.68,4196.575Zm3.278,20.41a72.918,72.918,0,0,0,11.83,17.07,85.067,85.067,0,0,0,7.054,7.047,87.88,87.88,0,0,1-6.75-6.8A77.539,77.539,0,0,1,952.958,4216.985Z" transform="translate(-948.314 -4135.819)" fill="#2b478b"/>
              </g>
            </g>
          </g>
          <g id="Grupo_210563" data-name="Grupo 210563" transform="translate(56.436 115.63)">
            <path id="Trazado_222253" data-name="Trazado 222253" d="M1137.361,4624.168c-.029.053-.06.106-.091.161-.722,1.254-2.377,4.328-4.2,7.691-.863,1.6-1.766,3.258-2.623,4.821-1.476,2.7-2.819,5.1-3.6,6.371-.8,1.291-1.384,2.2-1.621,2.561l0,0a.6.6,0,0,0-.077.375,19.56,19.56,0,0,1-.052,3.383,25.952,25.952,0,0,1-8.48,16.809l-2.194.325s3.105-11.5,4.02-18.008a12.507,12.507,0,0,0,.168-2.578,26.924,26.924,0,0,1,.708-7.039,157.786,157.786,0,0,1,4.487-16.292c.1-.318,3.188-11.48,3.188-11.48,2.59,2.263,12.036,3.2,12.036,3.2S1140.626,4618.361,1137.361,4624.168Z" transform="translate(-1091.28 -4577.272)" fill="#feca2e"/>
            <path id="Trazado_222254" data-name="Trazado 222254" d="M1085.078,4954.511h9.158a5.027,5.027,0,0,0-.259-2.455c-.458-1.017-1.112-1.048-.083-2.641-.582.6-2.453.847-3.776.669a11.224,11.224,0,0,1-1.588,2.417C1087.931,4952.93,1085.262,4952.777,1085.078,4954.511Z" transform="translate(-1066.546 -4862.342)" fill="#2358a5"/>
            <path id="Trazado_222255" data-name="Trazado 222255" d="M1225.466,4664.444l-.091.161c-.722,1.254-4.625,8.464-6.449,11.827a48.769,48.769,0,0,0,.643-17.388Z" transform="translate(-1179.386 -4617.548)" fill="#eda62b"/>
            <path id="Trazado_222256" data-name="Trazado 222256" d="M1035.366,4398.628s-.363-3.952,4.053-3.952a5.18,5.18,0,0,0-2.03,1.089,5.22,5.22,0,0,1,5.88.887c3.064,2.54,1.16,8.911,2.092,10.121s4.561,1.451,4.117,5.362-11.517,8.81-10.806,12.046c0,0-4.34-6.379-1.237-9.291a5.753,5.753,0,0,0-1.667,3.118s-.41-3.306,1.693-4.363c1.862-.937,3.387-4.359,3.226-4.971S1035.366,4398.628,1035.366,4398.628Z" transform="translate(-1024.631 -4394.676)" fill="#202d4f"/>
            <path id="Trazado_222257" data-name="Trazado 222257" d="M983.982,4525.56s-6.281,15.851-7.635,15.264-9.331-3.121-9.331-3.121a17.549,17.549,0,0,0,.414,2.361c1.168.925,7.041,5.455,10.559,5.686,3.906.256,9.2-11.252,9.2-11.252Z" transform="translate(-967.016 -4505.016)" fill="#ffb27d"/>
            <path id="Trazado_222258" data-name="Trazado 222258" d="M1016.374,4415.965a36.815,36.815,0,0,1,5.5,2.688c2.481,2.752,1.774,6.344.354,6.378-.911.023-.734,1.536-.734,1.536l-10.143-4.291S1012.57,4415.155,1016.374,4415.965Z" transform="translate(-1004.39 -4412.569)" fill="#202d4f"/>
            <path id="Trazado_222259" data-name="Trazado 222259" d="M1057.823,4527.664s-1.351,1.4-1.351,5.586c0,0,1.861,2.938,6.688,3.682C1063.161,4536.932,1059.01,4527.662,1057.823,4527.664Z" transform="translate(-1042.431 -4506.789)" fill="#1c468a"/>
            <path id="Trazado_222260" data-name="Trazado 222260" d="M1214.941,4604.885l-.031-1.713c3.412.431,11.767-4.078,11.767-4.078s3.57,2.375,4.059,9.156c.239,3.31,1.748,17.308,1.915,21.487.061,1.515.081,2.6.088,3.028,0,0,0,0,0,0a.591.591,0,0,0,.145.353,19.539,19.539,0,0,1,1.849,2.834c5.207,9.688,2.484,22.853,2.484,22.853l-1.209-.308s-4.4-13.647-7.281-19.551a12.35,12.35,0,0,0-1.3-2.23,26.925,26.925,0,0,1-3.348-6.232C1221.949,4625.411,1214.941,4604.885,1214.941,4604.885Z" transform="translate(-1176 -4567.008)" fill="#feca2e"/>
            <path id="Trazado_222261" data-name="Trazado 222261" d="M1310.622,4954.155h9.158a5.025,5.025,0,0,0-.258-2.454c-.459-1.017-1.176-1.478-1-2.708a3.3,3.3,0,0,1-2.854,1.093,10.057,10.057,0,0,1-1.589,2.059C1313.475,4952.575,1310.806,4952.421,1310.622,4954.155Z" transform="translate(-1256.688 -4861.986)" fill="#2358a5"/>
            <path id="Trazado_222262" data-name="Trazado 222262" d="M1071.035,4509c1.23.21-.2,1.188,1.491,1.373a30.549,30.549,0,0,1,6.2.962,1.4,1.4,0,0,1,.892.722c.565,1.7,3.052,4.317,3.052,4.317,15.946-.726,17.7-7.4,17.7-7.4-10.349-10.051-19.865-15.979-27.131-16.763-1.243-.135-2.816.655-3.936,1.153-2.545,1.133-4.218,4.4-4.218,4.4S1066.361,4508.2,1071.035,4509Z" transform="translate(-1049.687 -4476.891)" fill="#1c468a"/>
            <path id="Trazado_222263" data-name="Trazado 222263" d="M1112.521,4538.3a30.582,30.582,0,0,1,6.2.962,25.4,25.4,0,0,0-3.221-13.935S1113.048,4535.29,1112.521,4538.3Z" transform="translate(-1089.682 -4504.819)" fill="#163560"/>
            <path id="Trazado_222264" data-name="Trazado 222264" d="M1076.14,4516.71s6.056-.331,7.132,3.471-2.019,18.977-2.686,20.543c-1.214,2.852-7.125,10.99-7.125,10.99l-1.63-.838s3.4-12.257,4.278-13.488C1077.49,4535.458,1074.328,4518.364,1076.14,4516.71Z" transform="translate(-1055.379 -4497.549)" fill="#ffb27d"/>
            <path id="Trazado_222265" data-name="Trazado 222265" d="M1061.766,4727.181a7.5,7.5,0,0,1-1.493,2.774,4.948,4.948,0,0,0-.881,2.528s-.074.583.18.526.538-1.322.991-1.259a8.767,8.767,0,0,1-.481,1.811c-.24.4-.382,1.628-.041,1.779.825.364,2.047-1.193,2.773-2.17s.012-4.939.012-4.939Z" transform="translate(-1044.884 -4674.99)" fill="#ffb27d"/>
            <path id="Trazado_222266" data-name="Trazado 222266" d="M1096.9,4519.234c-.016.089-5.73,1.051-9.305-.763,0,0-2.986-9.354,1.281-8.907s6.794,1.792,6.9,3.835A39.331,39.331,0,0,0,1096.9,4519.234Z" transform="translate(-1067.81 -4491.517)" fill="#1c468a"/>
            <path id="Trazado_222267" data-name="Trazado 222267" d="M1056.671,4482.573s-1.684,6.282-4.217,4.4a5.191,5.191,0,0,0-.892-2.08c-.666-1.145-1.459-2.314-1.459-2.314l3.427-3,.2-.18A9.039,9.039,0,0,0,1056.671,4482.573Z" transform="translate(-1037.061 -4466.097)" fill="#ffb27d"/>
            <path id="Trazado_222268" data-name="Trazado 222268" d="M1050.105,4483.542s.792,1.167,1.458,2.313c2.13-1.313,2.132-3.951,1.968-5.316Z" transform="translate(-1037.063 -4467.062)" fill="#ed985f"/>
            <path id="Trazado_222269" data-name="Trazado 222269" d="M1019.5,4452.153s5.172-2.878,3.33-6.072-2.415-5.716-5.8-4.013-3.314,3.288-2.958,4.5S1018.1,4452.819,1019.5,4452.153Z" transform="translate(-1006.551 -4434.167)" fill="#ffb27d"/>
            <path id="Trazado_222270" data-name="Trazado 222270" d="M1009.2,4442.385c.237-1.418.957-1.554,1.459-1.459a4.137,4.137,0,0,1,5.031-1.927,7.042,7.042,0,0,0,4.077,2.449s-.6,1.117-3.073,1.809a4.228,4.228,0,0,1-2.44-.2,13.781,13.781,0,0,0,3.51,1.323c-3.259.3-6.36-2.681-6.681-3a4.637,4.637,0,0,0-.256,2.134c.215.961,1.067,2.7.547,2.926C1011.375,4446.445,1008.846,4444.511,1009.2,4442.385Z" transform="translate(-1002.551 -4431.842)" fill="#202d4f"/>
          </g>
          <g id="Grupo_210565" data-name="Grupo 210565" transform="translate(91.615 23.808)">
            <path id="Trazado_222271" data-name="Trazado 222271" d="M1191.71,3829.872c2.778-10.8,7.475-20.188,20.188-20.188a20.917,20.917,0,0,1,20.527,21.926c-.676,11.129-10.34,20.556-22.171,19.231C1199.175,3849.6,1188.529,3842.236,1191.71,3829.872Z" transform="translate(-1191.139 -3809.684)" fill="#0f2771"/>
            <g id="Grupo_210564" data-name="Grupo 210564" transform="translate(17.761 5.73)" opacity="0.8">
              <path id="Trazado_222272" data-name="Trazado 222272" d="M1304.29,3874.386a2.933,2.933,0,0,1,.2-1.094,2.652,2.652,0,0,1,.567-.883,2.529,2.529,0,0,1,.9-.589,3.708,3.708,0,0,1,2.46,0,2.535,2.535,0,0,1,.9.589,2.663,2.663,0,0,1,.568.883,2.958,2.958,0,0,1,.2,1.094,2.663,2.663,0,0,1-.757,1.934,3.346,3.346,0,0,1-4.289,0A2.664,2.664,0,0,1,1304.29,3874.386Zm5.025-6.6h-4.394l-.484-21.594h5.383Z" transform="translate(-1304.29 -3846.191)" fill="#fff"/>
            </g>
          </g>
        </g>
        <path id="Rectángulo_295406" data-name="Rectángulo 295406" d="M.938,0H287.111a.939.939,0,0,1,.939.939v0a.939.939,0,0,1-.939.939H.939A.939.939,0,0,1,0,.938v0A.938.938,0,0,1,.938,0Z" transform="translate(0 209.123)" fill="#2e3552"/>
      </g>
      <g id="Grupo_210568" data-name="Grupo 210568" transform="translate(72.599 126.796)">
        <g id="Grupo_169432" data-name="Grupo 169432">
          <g id="Grupo_169431" data-name="Grupo 169431">
            <g id="Grupo_169422" data-name="Grupo 169422" transform="translate(0.311 1.083)">
              <g id="Grupo_169421" data-name="Grupo 169421">
                <g id="Grupo_169420" data-name="Grupo 169420">
                  <g id="Grupo_169404" data-name="Grupo 169404" transform="translate(0 1.37)">
                    <g id="Grupo_169398" data-name="Grupo 169398" transform="translate(0.184 0.462)">
                      <g id="Grupo_169397" data-name="Grupo 169397">
                        <g id="Grupo_169396" data-name="Grupo 169396">
                          <g id="Grupo_169395" data-name="Grupo 169395">
                            <path id="Trazado_207773" data-name="Trazado 207773" d="M1025.836,4484.781a.289.289,0,0,1,.17-.371.3.3,0,0,1,.4.138l0,.008a.289.289,0,0,1-.17.37.3.3,0,0,1-.4-.138Z" transform="translate(-1025.818 -4484.382)" fill="#283237"/>
                          </g>
                        </g>
                      </g>
                    </g>
                    <g id="Grupo_169403" data-name="Grupo 169403">
                      <g id="Grupo_169402" data-name="Grupo 169402">
                        <g id="Grupo_169401" data-name="Grupo 169401">
                          <g id="Grupo_169400" data-name="Grupo 169400">
                            <g id="Grupo_169399" data-name="Grupo 169399">
                              <path id="Trazado_207774" data-name="Trazado 207774" d="M1024.692,4481.877a.82.82,0,0,1,.364-.343.857.857,0,0,1,.5-.084c.127.02.193.065.185.088-.015.051-.305.01-.6.158s-.432.395-.484.377C1024.634,4482.067,1024.634,4481.989,1024.692,4481.877Z" transform="translate(-1024.643 -4481.442)" fill="#283237"/>
                            </g>
                          </g>
                        </g>
                      </g>
                    </g>
                  </g>
                  <g id="Grupo_169414" data-name="Grupo 169414" transform="translate(2.942)">
                    <g id="Grupo_169408" data-name="Grupo 169408" transform="translate(0.196 0.513)">
                      <g id="Grupo_169407" data-name="Grupo 169407">
                        <g id="Grupo_169406" data-name="Grupo 169406">
                          <g id="Grupo_169405" data-name="Grupo 169405">
                            <path id="Trazado_207775" data-name="Trazado 207775" d="M1044.658,4476.387a.289.289,0,0,1,.17-.371.3.3,0,0,1,.4.138l0,.006a.29.29,0,0,1-.17.372.3.3,0,0,1-.4-.139Z" transform="translate(-1044.639 -4475.988)" fill="#283237"/>
                          </g>
                        </g>
                      </g>
                    </g>
                    <g id="Grupo_169413" data-name="Grupo 169413">
                      <g id="Grupo_169412" data-name="Grupo 169412">
                        <g id="Grupo_169411" data-name="Grupo 169411">
                          <g id="Grupo_169410" data-name="Grupo 169410">
                            <g id="Grupo_169409" data-name="Grupo 169409">
                              <path id="Trazado_207776" data-name="Trazado 207776" d="M1043.437,4473.151a.821.821,0,0,1,.364-.343.869.869,0,0,1,.5-.084c.128.021.193.065.185.089-.015.051-.3.01-.6.158s-.432.394-.484.376C1043.379,4473.341,1043.379,4473.263,1043.437,4473.151Z" transform="translate(-1043.388 -4472.717)" fill="#283237"/>
                            </g>
                          </g>
                        </g>
                      </g>
                    </g>
                  </g>
                  <g id="Grupo_169419" data-name="Grupo 169419" transform="translate(1.872 0.829)">
                    <g id="Grupo_169418" data-name="Grupo 169418">
                      <g id="Grupo_169417" data-name="Grupo 169417">
                        <g id="Grupo_169416" data-name="Grupo 169416">
                          <g id="Grupo_169415" data-name="Grupo 169415">
                            <path id="Trazado_207777" data-name="Trazado 207777" d="M1037.13,4480.678a.619.619,0,0,1-.138.045.209.209,0,0,1-.177-.046.453.453,0,0,1-.1-.305c-.019-.21-.039-.432-.06-.664a10.449,10.449,0,0,1-.07-1.713,10.369,10.369,0,0,1,.211,1.7q.026.349.049.665a.4.4,0,0,0,.056.241c.037.044.116.023.2-.006a2.277,2.277,0,0,1,.523-.152A2.222,2.222,0,0,1,1037.13,4480.678Z" transform="translate(-1036.567 -4477.995)" fill="#283237"/>
                          </g>
                        </g>
                      </g>
                    </g>
                  </g>
                </g>
              </g>
            </g>
            <g id="Grupo_169426" data-name="Grupo 169426" transform="translate(2.631)">
              <g id="Grupo_169425" data-name="Grupo 169425">
                <g id="Grupo_169424" data-name="Grupo 169424">
                  <g id="Grupo_169423" data-name="Grupo 169423">
                    <path id="Trazado_207778" data-name="Trazado 207778" d="M1039.54,4466.212a1.353,1.353,0,0,1,1.081-.392c.151.02.235.069.231.112-.012.091-.341.131-.706.268s-.646.311-.714.247C1039.4,4466.416,1039.437,4466.324,1039.54,4466.212Z" transform="translate(-1039.422 -4465.814)" fill="#283237"/>
                  </g>
                </g>
              </g>
            </g>
            <g id="Grupo_169430" data-name="Grupo 169430" transform="translate(0 1.572)">
              <g id="Grupo_169429" data-name="Grupo 169429">
                <g id="Grupo_169428" data-name="Grupo 169428">
                  <g id="Grupo_169427" data-name="Grupo 169427">
                    <path id="Trazado_207779" data-name="Trazado 207779" d="M1022.7,4476.252a.834.834,0,0,1,.8-.418c.121.017.186.066.181.109-.014.091-.25.138-.49.269s-.416.29-.5.25C1022.652,4476.443,1022.648,4476.363,1022.7,4476.252Z" transform="translate(-1022.662 -4475.832)" fill="#283237"/>
                  </g>
                </g>
              </g>
            </g>
          </g>
        </g>
        <g id="Grupo_169437" data-name="Grupo 169437" transform="translate(3.41 4.638)">
          <path id="Trazado_207781" data-name="Trazado 207781" d="M1044.389,4496.037l.514-.559a.349.349,0,0,1,.132-.1c.128-.045.253.068.316.183a.669.669,0,0,1,.088.418.45.45,0,0,1-.252.344.506.506,0,0,1-.406-.022,1.388,1.388,0,0,1-.332-.241" transform="translate(-1044.389 -4495.364)" fill="#a06854"/>
        </g>
        <g id="Grupo_169439" data-name="Grupo 169439" transform="translate(3.331 4.555)">
          <g id="Grupo_169438" data-name="Grupo 169438">
            <path id="Trazado_207782" data-name="Trazado 207782" d="M1044.635,4495.988a.585.585,0,0,0,.271-.145.6.6,0,0,0,.2-.409.62.62,0,0,0-.222-.5.59.59,0,0,0-.128-.081.186.186,0,0,0-.1-.019.175.175,0,0,0-.1.043c-.033.033-.064.067-.093.1l-.081.095c-.105.124-.2.236-.277.331a.2.2,0,1,0,.067.056c.086-.088.186-.195.3-.314l.084-.092c.028-.029.06-.069.083-.089s.021-.016.058,0a.5.5,0,0,1,.1.065.51.51,0,0,1,.042.754,1.057,1.057,0,0,1-.32.206C1044.524,4496,1044.564,4496,1044.635,4495.988Z" transform="translate(-1043.881 -4494.834)" fill="#283237"/>
          </g>
        </g>
      </g>
      <g id="Grupo_210569" data-name="Grupo 210569" transform="translate(199.113 107.521)">
        <g id="Grupo_169432-2" data-name="Grupo 169432">
          <g id="Grupo_169431-2" data-name="Grupo 169431">
            <g id="Grupo_169422-2" data-name="Grupo 169422" transform="translate(0 1.282)">
              <g id="Grupo_169421-2" data-name="Grupo 169421">
                <g id="Grupo_169420-2" data-name="Grupo 169420">
                  <g id="Grupo_169404-2" data-name="Grupo 169404">
                    <g id="Grupo_169398-2" data-name="Grupo 169398" transform="translate(0.083 0.394)">
                      <g id="Grupo_169397-2" data-name="Grupo 169397">
                        <g id="Grupo_169396-2" data-name="Grupo 169396">
                          <g id="Grupo_169395-2" data-name="Grupo 169395">
                            <path id="Trazado_207773-2" data-name="Trazado 207773" d="M1829.2,4353.988a.337.337,0,0,1,.369-.3.352.352,0,0,1,.344.349v.009a.337.337,0,0,1-.369.3.351.351,0,0,1-.344-.349Z" transform="translate(-1829.203 -4353.687)" fill="#283237"/>
                          </g>
                        </g>
                      </g>
                    </g>
                    <g id="Grupo_169403-2" data-name="Grupo 169403">
                      <g id="Grupo_169402-2" data-name="Grupo 169402">
                        <g id="Grupo_169401-2" data-name="Grupo 169401">
                          <g id="Grupo_169400-2" data-name="Grupo 169400">
                            <g id="Grupo_169399-2" data-name="Grupo 169399">
                              <path id="Trazado_207774-2" data-name="Trazado 207774" d="M1828.816,4351.349a.965.965,0,0,1,.557-.17,1.011,1.011,0,0,1,.566.17c.123.087.168.168.147.188-.042.045-.323-.146-.708-.144s-.655.189-.7.144C1828.658,4351.517,1828.7,4351.437,1828.816,4351.349Z" transform="translate(-1828.674 -4351.178)" fill="#283237"/>
                            </g>
                          </g>
                        </g>
                      </g>
                    </g>
                  </g>
                  <g id="Grupo_169414-2" data-name="Grupo 169414" transform="translate(3.778 0.086)">
                    <g id="Grupo_169408-2" data-name="Grupo 169408" transform="translate(0.069 0.454)">
                      <g id="Grupo_169407-2" data-name="Grupo 169407">
                        <g id="Grupo_169406-2" data-name="Grupo 169406">
                          <g id="Grupo_169405-2" data-name="Grupo 169405">
                            <path id="Trazado_207775-2" data-name="Trazado 207775" d="M1853.181,4354.918a.337.337,0,0,1,.369-.3.352.352,0,0,1,.344.349v.008a.337.337,0,0,1-.369.3.352.352,0,0,1-.344-.349Z" transform="translate(-1853.18 -4354.617)" fill="#283237"/>
                          </g>
                        </g>
                      </g>
                    </g>
                    <g id="Grupo_169413-2" data-name="Grupo 169413">
                      <g id="Grupo_169412-2" data-name="Grupo 169412">
                        <g id="Grupo_169411-2" data-name="Grupo 169411">
                          <g id="Grupo_169410-2" data-name="Grupo 169410">
                            <g id="Grupo_169409-2" data-name="Grupo 169409">
                              <path id="Trazado_207776-2" data-name="Trazado 207776" d="M1852.883,4351.9a.965.965,0,0,1,.557-.17,1.01,1.01,0,0,1,.566.17c.123.087.168.168.147.188-.042.045-.323-.146-.707-.144s-.655.189-.7.144C1852.725,4352.064,1852.765,4351.982,1852.883,4351.9Z" transform="translate(-1852.741 -4351.725)" fill="#283237"/>
                            </g>
                          </g>
                        </g>
                      </g>
                    </g>
                  </g>
                  <g id="Grupo_169419-2" data-name="Grupo 169419" transform="translate(1.412 0.1)">
                    <g id="Grupo_169418-2" data-name="Grupo 169418">
                      <g id="Grupo_169417-2" data-name="Grupo 169417">
                        <g id="Grupo_169416-2" data-name="Grupo 169416">
                          <g id="Grupo_169415-2" data-name="Grupo 169415">
                            <path id="Trazado_207777-2" data-name="Trazado 207777" d="M1838.009,4354.895a.711.711,0,0,1-.167-.023.245.245,0,0,1-.161-.139.529.529,0,0,1,.051-.371l.279-.724a12.222,12.222,0,0,1,.81-1.826,12.081,12.081,0,0,1-.654,1.881l-.291.719a.47.47,0,0,0-.066.28c.017.065.109.083.208.094a2.679,2.679,0,0,1,.624.111A2.537,2.537,0,0,1,1838.009,4354.895Z" transform="translate(-1837.667 -4351.812)" fill="#283237"/>
                          </g>
                        </g>
                      </g>
                    </g>
                  </g>
                </g>
              </g>
            </g>
            <g id="Grupo_169426-2" data-name="Grupo 169426" transform="translate(3.684)">
              <g id="Grupo_169425-2" data-name="Grupo 169425">
                <g id="Grupo_169424-2" data-name="Grupo 169424">
                  <g id="Grupo_169423-2" data-name="Grupo 169423">
                    <path id="Trazado_207778-2" data-name="Trazado 207778" d="M1852.379,4343.1a1.584,1.584,0,0,1,1.331.148c.147.1.21.193.183.237-.06.09-.424-.039-.875-.084s-.835-.009-.872-.109C1852.129,4343.238,1852.213,4343.159,1852.379,4343.1Z" transform="translate(-1852.143 -4343.012)" fill="#283237"/>
                  </g>
                </g>
              </g>
            </g>
            <g id="Grupo_169430-2" data-name="Grupo 169430" transform="translate(0.138 0.189)">
              <g id="Grupo_169429-2" data-name="Grupo 169429">
                <g id="Grupo_169428-2" data-name="Grupo 169428">
                  <g id="Grupo_169427-2" data-name="Grupo 169427">
                    <path id="Trazado_207779-2" data-name="Trazado 207779" d="M1829.687,4344.381a.97.97,0,0,1,1.047-.028c.118.081.16.165.133.208-.062.088-.332.015-.65.028s-.584.089-.652,0C1829.536,4344.553,1829.573,4344.467,1829.687,4344.381Z" transform="translate(-1829.556 -4344.213)" fill="#283237"/>
                  </g>
                </g>
              </g>
            </g>
          </g>
        </g>
        <g id="Grupo_169437-2" data-name="Grupo 169437" transform="translate(2.079 5.195)">
          <path id="Trazado_207781-2" data-name="Trazado 207781" d="M1841.916,4376.47l.825-.319a.406.406,0,0,1,.191-.04c.157.019.229.2.236.353a.781.781,0,0,1-.124.483.525.525,0,0,1-.44.229.587.587,0,0,1-.412-.233,1.643,1.643,0,0,1-.222-.422" transform="translate(-1841.916 -4376.11)" fill="#a06854"/>
        </g>
        <g id="Grupo_169439-2" data-name="Grupo 169439" transform="translate(1.922 5.114)">
          <g id="Grupo_169438-2" data-name="Grupo 169438">
            <path id="Trazado_207782-2" data-name="Trazado 207782" d="M1841.574,4376.8a.721.721,0,0,0,.777-.337.719.719,0,0,0,.026-.635.663.663,0,0,0-.092-.151.211.211,0,0,0-.091-.069.2.2,0,0,0-.122-.005c-.051.018-.1.038-.151.06l-.134.057c-.174.075-.329.144-.459.2a1.551,1.551,0,0,0-.409.222,1.523,1.523,0,0,0,.449-.128c.135-.048.3-.107.472-.175l.135-.053c.044-.017.1-.041.132-.049s.03-.007.062.026a.545.545,0,0,1,.071.12.593.593,0,0,1-.344.809,1.231,1.231,0,0,1-.44.051C1841.454,4376.746,1841.492,4376.774,1841.574,4376.8Z" transform="translate(-1840.919 -4375.59)" fill="#283237"/>
          </g>
        </g>
      </g>
    </g>
  </g>
</svg>
