<svg xmlns="http://www.w3.org/2000/svg" xmlns:xlink="http://www.w3.org/1999/xlink" width="100.595" height="113.667" viewBox="0 0 100.595 113.667">
  <defs>
    <linearGradient id="linear-gradient" x1="0.5" y1="1" x2="0.5" gradientUnits="objectBoundingBox">
      <stop offset="0" stop-color="#ffd328"/>
      <stop offset="1" stop-color="#ffa700"/>
    </linearGradient>
    <radialGradient id="radial-gradient" cx="0.5" cy="0.5" r="1.249" gradientTransform="translate(0.352) scale(0.295 1)" gradientUnits="objectBoundingBox">
      <stop offset="0" stop-color="#f3e6ee"/>
      <stop offset="0.51" stop-color="#efe4ed"/>
      <stop offset="0.962" stop-color="#e4deed"/>
      <stop offset="0.983" stop-color="#e4deed"/>
    </radialGradient>
    <radialGradient id="radial-gradient-2" cx="0.43" cy="0.106" r="0.952" gradientTransform="matrix(1, 0, 0, 0.78, 0, 0.023)" gradientUnits="objectBoundingBox">
      <stop offset="0" stop-color="#71a6ff"/>
      <stop offset="0.006" stop-color="#71e2ff"/>
      <stop offset="1" stop-color="#31bdbd"/>
    </radialGradient>
    <radialGradient id="radial-gradient-3" cx="0.418" cy="0.307" r="0.32" gradientTransform="matrix(2.745, 0.164, -0.456, 0.986, -0.506, -0.058)" gradientUnits="objectBoundingBox">
      <stop offset="0" stop-color="#51d7ff"/>
      <stop offset="0.006" stop-color="#515bff"/>
      <stop offset="0.03" stop-color="#515add"/>
      <stop offset="1" stop-color="#35aebb"/>
    </radialGradient>
    <linearGradient id="linear-gradient-2" x1="0.466" y1="1.049" x2="0.466" y2="0.068" gradientUnits="objectBoundingBox">
      <stop offset="0.017" stop-color="#bdaee0"/>
      <stop offset="0.096" stop-color="#c3b3e2"/>
      <stop offset="0.375" stop-color="#d5c4e8"/>
      <stop offset="0.669" stop-color="#e0cdec"/>
      <stop offset="1" stop-color="#e4d1ee"/>
    </linearGradient>
    <radialGradient id="radial-gradient-4" cx="0.824" cy="0.73" r="0.672" gradientTransform="matrix(0, 1, -0.619, 0, 1.21, -0.646)" gradientUnits="objectBoundingBox">
      <stop offset="0" stop-color="#aea8c2"/>
      <stop offset="0.983" stop-color="#8c74b1"/>
    </radialGradient>
    <radialGradient id="radial-gradient-5" cx="0.357" cy="0.936" r="0.512" gradientTransform="matrix(1.868, 0.164, -0.31, 0.986, -0.828, -0.213)" gradientUnits="objectBoundingBox">
      <stop offset="0" stop-color="#471371"/>
      <stop offset="0.994" stop-color="#20003b"/>
    </radialGradient>
    <radialGradient id="radial-gradient-6" cx="0.452" cy="0.85" r="1.177" gradientTransform="matrix(0.762, 0.164, -0.127, 0.986, 0.208, -0.028)" gradientUnits="objectBoundingBox">
      <stop offset="0" stop-color="#ffa100"/>
      <stop offset="1" stop-color="#ff9700"/>
    </radialGradient>
    <linearGradient id="linear-gradient-3" x1="0.5" y1="1" x2="0.5" gradientUnits="objectBoundingBox">
      <stop offset="0.017" stop-color="#d1c7e0"/>
      <stop offset="0.038" stop-color="#d2c8e0"/>
      <stop offset="0.335" stop-color="#e4d8e8"/>
      <stop offset="0.648" stop-color="#efe2ec"/>
      <stop offset="1" stop-color="#f3e6ee"/>
    </linearGradient>
  </defs>
  <g id="Grupo_222361" data-name="Grupo 222361" transform="translate(11623.332 12081.142)">
    <g id="Grupo_222360" data-name="Grupo 222360">
      <g id="Grupo_222359" data-name="Grupo 222359">
        <g id="Grupo_222358" data-name="Grupo 222358">
          <g id="Grupo_222357" data-name="Grupo 222357">
            <g id="Grupo_222356" data-name="Grupo 222356">
              <g id="Grupo_222355" data-name="Grupo 222355">
                <g id="Grupo_222354" data-name="Grupo 222354">
                  <g id="Grupo_210368" data-name="Grupo 210368">
                    <g id="Grupo_135709" data-name="Grupo 135709" transform="translate(-12620.233 -12236.059)">
                      <path id="Trazado_194166" data-name="Trazado 194166" d="M1062.653,258.067c21.094-12.432,19.571-30.891,18.271-47.67s7.2-35.4-20.8-33.764-64.261,21.9-63.2,48.776,25.131,16.9,45.161,19.38S1053.314,263.571,1062.653,258.067Z" fill="#feca2e"/>
                      <path id="Trazado_194167" data-name="Trazado 194167" d="M1050.954,252.2c2.409-2.4,6.6,5.691,4.277,10.061s-7.656,7.854-10.879,5.632.744-8.508,3.243-11.105S1050.056,253.094,1050.954,252.2Z" fill="#feca2e"/>
                      <path id="Trazado_194168" data-name="Trazado 194168" d="M1083.183,234.188c1.727,6,13.595-3.483,14.263-15.744s-5.43-19.225-11-17.941-4.443,7.717-3.495,16.844S1082.213,230.814,1083.183,234.188Z" fill="#feca2e"/>
                    </g>
                    <g id="Grupo_151980" data-name="Grupo 151980" transform="translate(-11942.74 -12136.01)">
                      <path id="Trazado_199198" data-name="Trazado 199198" d="M401.749,63.559s-.224-5.3,1.744-8.691h6.338s-3.447,4.375-3.857,8.845Z" transform="translate(-43.218 0)" fill-rule="evenodd" fill="url(#linear-gradient)"/>
                      <path id="Trazado_199199" data-name="Trazado 199199" d="M379.938,80.748l1.95-10.248h43.518l-2.955,13.422Z" transform="translate(-30.323 -9.245)" fill-rule="evenodd" fill="url(#radial-gradient)"/>
                      <path id="Trazado_199200" data-name="Trazado 199200" d="M486.621,70.5l2.77,1.021v1.565l6.555,2.51L492.48,87.751l-9.036-2.732Z" transform="translate(-91.539 -9.245)" fill="#afafaf" fill-rule="evenodd"/>
                      <g id="Grupo_151979" data-name="Grupo 151979" transform="translate(328.666 71.321)">
                        <path id="Trazado_199201" data-name="Trazado 199201" d="M388.637,96.741l-44.024-1.6L328.666,163.05l46.329,8.941Z" transform="translate(-328.666 -95.137)" fill-rule="evenodd" fill="url(#radial-gradient-2)"/>
                        <path id="Trazado_199202" data-name="Trazado 199202" d="M456.679,176.954l13.24-72.395s-3-3.622-12.123-5.137l-15.741,75.1Z" transform="translate(-395.727 -97.671)" fill-rule="evenodd" fill="url(#radial-gradient-3)"/>
                        <path id="Trazado_199203" data-name="Trazado 199203" d="M461.606,148.415a98.437,98.437,0,0,1,10.737,2.346l8.49-43.174s-2.717-3.1-10.081-4.237Z" transform="translate(-407.289 -99.994)" fill-rule="evenodd" fill="url(#linear-gradient-2)"/>
                        <ellipse id="Elipse_5237" data-name="Elipse 5237" cx="7.353" cy="4.549" rx="7.353" ry="4.549" transform="matrix(0.164, -0.986, 0.986, 0.164, 51.665, 70.549)" fill="#9a2463" opacity="0.5" style="mix-blend-mode: multiply;isolation: isolate"/>
                        <ellipse id="Elipse_5238" data-name="Elipse 5238" cx="7.353" cy="4.549" rx="7.353" ry="4.549" transform="translate(51.827 69.576) rotate(-80.568)" fill="url(#radial-gradient-4)"/>
                        <path id="Trazado_199204" data-name="Trazado 199204" d="M468.39,242.18c-.5,3.032-2.434,5.236-4.309,4.924a2.184,2.184,0,0,1-.657-.22c-1.469-.765-2.269-3.173-1.828-5.832s1.978-4.679,3.615-4.928a2.193,2.193,0,0,1,.693,0C467.78,236.439,468.893,239.149,468.39,242.18Z" transform="translate(-407.212 -178.504)" fill="#5a448e" fill-rule="evenodd"/>
                        <path id="Trazado_199205" data-name="Trazado 199205" d="M467.036,241.993c-.441,2.656-1.977,4.676-3.612,4.928-1.469-.765-2.269-3.173-1.828-5.832s1.978-4.679,3.615-4.928C466.677,236.929,467.477,239.337,467.036,241.993Z" transform="translate(-407.212 -178.541)" fill-rule="evenodd" fill="url(#radial-gradient-5)"/>
                        <path id="Trazado_199206" data-name="Trazado 199206" d="M463.438,233.485l.831.839a3.631,3.631,0,0,1,3.291-1.082l.39-1.23S466.016,230.742,463.438,233.485Z" transform="translate(-408.373 -175.914)" fill="#fff" fill-rule="evenodd" style="mix-blend-mode: soft-light;isolation: isolate"/>
                        <path id="Trazado_199207" data-name="Trazado 199207" d="M467.136,262.085l.593-1.44a4.332,4.332,0,0,0,3.166-2.2l.145,1.154S469.422,262.233,467.136,262.085Z" transform="translate(-410.56 -191.72)" fill="#fff" fill-rule="evenodd" style="mix-blend-mode: soft-light;isolation: isolate"/>
                        <path id="Trazado_199208" data-name="Trazado 199208" d="M478.213,122.737A20.251,20.251,0,0,1,488.6,125.5l-1.234,6.275s-2.836-1.774-10.483-2.51Z" transform="translate(-416.324 -111.455)" fill-rule="evenodd" fill="url(#radial-gradient-6)"/>
                        <path id="Trazado_199209" data-name="Trazado 199209" d="M474.181,147.257a37.367,37.367,0,0,1,10.513,2.482l-.677,3.444a55.81,55.81,0,0,0-10.5-2.667Z" transform="translate(-414.334 -125.962)" fill="#feca2e" fill-rule="evenodd" opacity="0.2" style="mix-blend-mode: multiply;isolation: isolate"/>
                        <path id="Trazado_199210" data-name="Trazado 199210" d="M454.869,99.21l-2.1-.147-15.665,74.859,2.023.39Z" transform="translate(-392.799 -97.459)" fill="#4dd0e1" fill-rule="evenodd"/>
                      </g>
                      <path id="Trazado_199211" data-name="Trazado 199211" d="M498.743,87.978l2.785-10.15-2.261-.866,5.727-.445-5.38,11.863Z" transform="translate(-100.587 -12.804)" fill-rule="evenodd" fill="url(#linear-gradient-3)"/>
                    </g>
                  </g>
                </g>
              </g>
            </g>
          </g>
        </g>
      </g>
    </g>
  </g>
</svg>
