<svg xmlns="http://www.w3.org/2000/svg" xmlns:xlink="http://www.w3.org/1999/xlink" width="190" height="115" viewBox="0 0 190 115">
  <defs>
    <clipPath id="clip-path">
      <rect id="Rectángulo_44950" data-name="Rectángulo 44950" width="100.032" height="100" fill="#0f2771"/>
    </clipPath>
  </defs>
  <g id="Grupo_222361" data-name="Grupo 222361" transform="translate(-179 -21420.012)">
    <g id="Grupo_222360" data-name="Grupo 222360">
      <g id="Grupo_222359" data-name="Grupo 222359">
        <g id="Grupo_210464" data-name="Grupo 210464" transform="translate(-1 15803.012)">
          <rect id="Rectángulo_43992" data-name="Rectángulo 43992" width="190" height="115" transform="translate(180 5617)" fill="none"/>
          <g id="Grupo_146383" data-name="Grupo 146383" transform="translate(0 5223)">
            <rect id="Rectángulo_41430" data-name="Rectángulo 41430" width="85" height="28" rx="14" transform="translate(285 407)" fill="#feca2e" opacity="0.2"/>
            <rect id="Rectángulo_41431" data-name="Rectángulo 41431" width="85" height="28" rx="14" transform="translate(180 468)" fill="#4dd0e1" opacity="0.2"/>
          </g>
          <g id="Grupo_146880" data-name="Grupo 146880" transform="translate(225 5625)">
            <g id="Grupo_146881" data-name="Grupo 146881" clip-path="url(#clip-path)">
              <path id="Trazado_203665" data-name="Trazado 203665" d="M98.989,86.536,88.377,77.981a2.442,2.442,0,0,0-3.975,1.9v2.487H77.34a35.593,35.593,0,0,0,7.392-14.452,1.465,1.465,0,1,0-2.845-.7A33,33,0,0,1,72.96,82.786a32.659,32.659,0,0,1-22.44,9.351H1.465a1.465,1.465,0,0,0,0,2.931H84.4v2.487a2.423,2.423,0,0,0,1.389,2.2,2.424,2.424,0,0,0,2.586-.3L98.989,90.9a2.8,2.8,0,0,0,0-4.364Zm-11.656,10V93.6a1.465,1.465,0,0,0-1.465-1.465H64.224A35.7,35.7,0,0,0,74.572,85.3h11.3a1.464,1.464,0,0,0,1.465-1.465V80.9l9.693,7.815Z" fill="#0f2771"/>
              <path id="Trazado_203666" data-name="Trazado 203666" d="M1.465,85.3H14.108a1.465,1.465,0,1,0,0-2.93H1.465a1.466,1.466,0,0,0,0,2.931" fill="#0f2771"/>
              <path id="Trazado_203667" data-name="Trazado 203667" d="M50.377,82.367H20.947a1.466,1.466,0,0,0,0,2.931H50.409a25.985,25.985,0,0,0-.392-51.967,25.811,25.811,0,0,0-8.762,1.52,1.465,1.465,0,0,0,.991,2.758,23.055,23.055,0,1,1,8.131,44.759" fill="#0f2771"/>
              <path id="Trazado_203668" data-name="Trazado 203668" d="M11.306,68.793l10.575,8.6a2.937,2.937,0,0,0,2.351.567,2.79,2.79,0,0,0,1.918-1.475l6.162-12.158a2.442,2.442,0,0,0-2.686-3.493l-2.571.547c-.062-.692-.093-1.383-.093-2.068A23.138,23.138,0,0,1,36.573,40.6a1.465,1.465,0,0,0-1.713-2.378A25.967,25.967,0,0,0,24.35,63.374,1.464,1.464,0,0,0,26.1,64.58l3.135-.666-5.63,11.107-9.66-7.857,2.588-.55a1.465,1.465,0,0,0,1.139-1.682,32.824,32.824,0,1,1,65.165-5.618c0,.484-.01.972-.031,1.451a1.465,1.465,0,0,0,2.928.127c.022-.522.034-1.053.034-1.578A35.883,35.883,0,0,0,67.887,28.357a8.563,8.563,0,0,1-4.37-7.337A8.3,8.3,0,0,1,79.985,19.5l-2.1-.258a2.442,2.442,0,0,0-2.371,3.714l7.2,11.574a2.8,2.8,0,0,0,2.039,1.3,2.9,2.9,0,0,0,.347.021,2.789,2.789,0,0,0,1.947-.791l9.785-9.49a2.442,2.442,0,0,0-1.4-4.177l-2.6-.32a21.343,21.343,0,0,0-2.094-9.2,1.465,1.465,0,0,0-2.636,1.281,17.762,17.762,0,0,1,1.773,6.851,18.521,18.521,0,0,1-.017,2.259,1.465,1.465,0,0,0,1.283,1.554l2.923.359-8.938,8.668L78.54,22.28l2.873.353a1.468,1.468,0,0,0,1.164-.369,1.738,1.738,0,0,0,.477-1.244A11.234,11.234,0,1,0,61.5,25.447a35.345,35.345,0,0,0-7.539-1.67,17.952,17.952,0,0,1-.214-2.757c-.233-9.787,8.7-18.6,18.626-18.064A18.014,18.014,0,0,1,84.43,8.1,1.465,1.465,0,1,0,86.475,6,20.937,20.937,0,0,0,72.461.027C61.072-.591,50.547,9.488,50.817,21.02a21.014,21.014,0,0,0,.159,2.555,35.759,35.759,0,0,0-36.4,40.46l-2.235.475a2.442,2.442,0,0,0-1.033,4.283Z" fill="#0f2771"/>
            </g>
          </g>
        </g>
      </g>
    </g>
  </g>
</svg>
