<svg xmlns="http://www.w3.org/2000/svg" width="327" height="312.364" viewBox="0 0 327 312.364">
  <g id="Grupo_222377" data-name="Grupo 222377" transform="translate(7015 -9895.012)">
    <g id="Grupo_222376" data-name="Grupo 222376">
      <g id="Grupo_184304" data-name="Grupo 184304" transform="translate(-7652 8171.012)">
        <rect id="Rect치ngulo_40610" data-name="Rect치ngulo 40610" width="327" height="311.958" rx="19" transform="translate(637 1724.406)" fill="#ffe595"/>
        <text id="Mapa_de_proceso_representado:_muestra_el_estado_actual_o_futuro_de_los_procesos." data-name="Mapa de proceso representado: muestra el estado actual o futuro de los procesos." transform="translate(657 1925.406)" fill="#12263f" font-size="16" font-family="Roboto-Bold, Roboto" font-weight="700"><tspan x="29.977" y="17">Mapa de proceso representado: </tspan><tspan x="3.055" y="41" font-family="Roboto-Regular, Roboto" font-weight="400">muestra el estado actual o futuro de los </tspan><tspan x="108.977" y="65" font-family="Roboto-Regular, Roboto" font-weight="400">procesos.</tspan></text>
        <path id="Rect치ngulo_44881" data-name="Rect치ngulo 44881" d="M20,0H307a20,20,0,0,1,20,20V178a0,0,0,0,1,0,0H0a0,0,0,0,1,0,0V20A20,20,0,0,1,20,0Z" transform="translate(637 1724)" fill="#4dd0e1"/>
        <g id="Grupo_222269" data-name="Grupo 222269" transform="translate(720.933 1736.207)">
          <g id="Grupo_222251" data-name="Grupo 222251" transform="translate(2.583 10.331)">
            <path id="Trazado_226006" data-name="Trazado 226006" d="M106.331,101.166A5.166,5.166,0,1,1,101.166,96,5.166,5.166,0,0,1,106.331,101.166Z" transform="translate(-67.589 -75.338)" fill="#4dd0e1"/>
            <path id="Trazado_226007" data-name="Trazado 226007" d="M18.331,101.166A5.166,5.166,0,1,1,13.166,96,5.166,5.166,0,0,1,18.331,101.166Z" transform="translate(-8 -75.338)" fill="#4dd0e1"/>
            <path id="Trazado_226008" data-name="Trazado 226008" d="M210.331,37.166A5.166,5.166,0,1,1,205.166,32,5.166,5.166,0,0,1,210.331,37.166Z" transform="translate(-138.013 -32)" fill="#4dd0e1"/>
            <path id="Trazado_226009" data-name="Trazado 226009" d="M256.6,161.343a5.075,5.075,0,0,1,1.73,3.823A5.166,5.166,0,1,1,253.166,160,4.981,4.981,0,0,1,256.6,161.343Z" transform="translate(-170.516 -118.675)" fill="#4dd0e1"/>
            <path id="Trazado_226010" data-name="Trazado 226010" d="M328.808,81.524a5.057,5.057,0,0,1,1.524,3.642,5.18,5.18,0,0,1-5.166,5.166,4.981,4.981,0,0,1-3.435-1.343A5.075,5.075,0,0,1,320,85.166,5.18,5.18,0,0,1,325.166,80,5.057,5.057,0,0,1,328.808,81.524Z" transform="translate(-219.271 -64.503)" fill="#4dd0e1"/>
          </g>
          <path id="Trazado_226011" data-name="Trazado 226011" d="M337.519,192v29.754A35.7,35.7,0,0,0,326.8,216.64l.387-1.395V192Z" transform="translate(-221.293 -130.013)" fill="#ffeaa7"/>
          <path id="Trazado_226012" data-name="Trazado 226012" d="M274.331,232v10.331A35.957,35.957,0,0,0,264,243.83V232Z" transform="translate(-178.767 -157.099)" fill="#ffeaa7"/>
          <path id="Trazado_226013" data-name="Trazado 226013" d="M402.331,152v72.318h-5.166A35.948,35.948,0,0,0,392,205.7V152Z" transform="translate(-265.443 -102.927)" fill="#ffeaa7"/>
          <path id="Trazado_226014" data-name="Trazado 226014" d="M456,88h10.331v92.981H456Z" transform="translate(-308.78 -59.589)" fill="#ffeaa7"/>
          <path id="Trazado_226015" data-name="Trazado 226015" d="M79.414,222.373a36.394,36.394,0,0,0-9.427,10.435l-.077-.052q.077-1.006.077-2.014a23.255,23.255,0,1,0-4.52,13.767,38.021,38.021,0,0,0-.646,6.9A36.037,36.037,0,0,0,66.4,262.019l-3-2.144A32.787,32.787,0,0,1,55.55,263.1l-1.059,6.38h-15.5l-1.059-6.38a32.787,32.787,0,0,1-7.852-3.229l-5.269,3.746-10.95-10.95,3.746-5.269a32.788,32.788,0,0,1-3.229-7.852L8,238.49v-15.5l6.38-1.059a32.788,32.788,0,0,1,3.229-7.852l-3.746-5.269,10.95-10.95,5.269,3.746a32.789,32.789,0,0,1,7.852-3.229L38.994,192h15.5l1.059,6.38a32.789,32.789,0,0,1,7.852,3.229l5.269-3.746,10.95,10.95-3.746,5.269a32.788,32.788,0,0,1,3.229,7.852Z" transform="translate(-5.417 -130.013)" fill="#feca2e"/>
          <path id="Trazado_226016" data-name="Trazado 226016" d="M102.49,263.245q0,1.006-.077,2.014l.077.052A35.407,35.407,0,0,0,98,276.985l-.025.026a23.24,23.24,0,1,1,4.52-13.767Zm-10.331,0a12.914,12.914,0,1,0-12.914,12.914A12.92,12.92,0,0,0,92.159,263.245Z" transform="translate(-37.92 -162.516)" fill="#fcd770"/>
          <path id="Trazado_226017" data-name="Trazado 226017" d="M251.153,281.537A36.174,36.174,0,1,1,184,300.159a38.02,38.02,0,0,1,.646-6.9l.025-.027a35.408,35.408,0,0,1,4.495-11.675A36.039,36.039,0,0,1,209.828,265.5a36.254,36.254,0,0,1,41.325,16.039Z" transform="translate(-124.596 -178.767)" fill="#4dd0e1"/>
          <path id="Trazado_226018" data-name="Trazado 226018" d="M267.656,321.828A25.828,25.828,0,1,1,241.828,296,25.828,25.828,0,0,1,267.656,321.828Z" transform="translate(-146.264 -200.436)" fill="#e6e9ed"/>
          <path id="Trazado_226019" data-name="Trazado 226019" d="M118.7,288.4a10.316,10.316,0,0,1-14.3,14.3L101.551,307a15.483,15.483,0,0,0,21.458-21.461Z" transform="translate(-68.765 -193.355)"/>
          <path id="Trazado_226020" data-name="Trazado 226020" d="M95.5,269.166a10.265,10.265,0,0,1,5.685,1.718l2.854-4.306a15.483,15.483,0,0,0-21.458,21.461l4.308-2.851A10.317,10.317,0,0,1,95.5,269.166Z" transform="translate(-54.172 -178.767)"/>
          <path id="Trazado_226021" data-name="Trazado 226021" d="M288,336v15.5h10.331v-5.166h-5.166V336Z" transform="translate(-195.019 -227.522)"/>
          <path id="Trazado_226022" data-name="Trazado 226022" d="M258.291,288a28.467,28.467,0,0,0-17.979,6.415l3.275,4a23.258,23.258,0,0,1,12.121-5.086v5h5.166v-5.013a23.276,23.276,0,0,1,20.51,20.51H276.37v5.166h5a23.267,23.267,0,0,1-5.086,12.123l4,3.273A28.406,28.406,0,0,0,258.291,288Z" transform="translate(-162.727 -195.019)"/>
          <path id="Trazado_226023" data-name="Trazado 226023" d="M238.994,361.374v-5h-5.166v5.013a23.276,23.276,0,0,1-20.51-20.51h5.013v-5.166h-5a23.267,23.267,0,0,1,5.086-12.123l-4-3.272a28.407,28.407,0,0,0,39.971,39.974l-3.275-4A23.25,23.25,0,0,1,238.994,361.374Z" transform="translate(-140.847 -216.9)"/>
          <path id="Trazado_226024" data-name="Trazado 226024" d="M144.637,172.981h-5.166V100.662h-15.5v48.65a38.913,38.913,0,0,0-5.166-4.67V113.576h-15.5V137.6a38.918,38.918,0,0,0-5.166-.651V126.49H82.65v12.591a38.531,38.531,0,0,0-7.379,3.541,35.729,35.729,0,0,0-1.785-4.2L77.57,132.7,63.522,118.651,57.8,122.737a35.958,35.958,0,0,0-5.383-2.221l-1.154-6.94H31.388l-1.154,6.94a35.968,35.968,0,0,0-5.382,2.221l-5.721-4.086L5.082,132.7l4.084,5.719a35.482,35.482,0,0,0-2.223,5.383L0,144.965v19.873l6.94,1.156a35.748,35.748,0,0,0,2.223,5.383L5.08,177.095l14.048,14.054,5.722-4.086a35.962,35.962,0,0,0,5.383,2.221l1.154,6.943H51.261l1.154-6.94a35.969,35.969,0,0,0,5.382-2.221l1.033.738a38.7,38.7,0,0,0,75.344-9.656h25.959V80h-15.5Zm-15.5-67.153h5.166v67.153h-.131a38.443,38.443,0,0,0-5.035-16.662Zm-20.662,12.914h5.166v22.584a38.407,38.407,0,0,0-5.166-2.242ZM87.815,131.656h5.166v5.3a38.652,38.652,0,0,0-5.166.652Zm-31.11,50.128a30.743,30.743,0,0,1-7.248,2.993l-1.6.434-.976,5.85H35.764l-.976-5.85-1.6-.434a30.78,30.78,0,0,1-7.248-2.993l-1.439-.825L19.686,184.4l-7.865-7.862,3.443-4.821-.825-1.439a30.7,30.7,0,0,1-2.993-7.245l-.431-1.6-5.85-.973V149.341l5.85-.973.434-1.6a30.766,30.766,0,0,1,2.992-7.245l.825-1.439-3.443-4.821,7.864-7.862,4.816,3.443,1.439-.825a30.742,30.742,0,0,1,7.248-2.993l1.6-.434.976-5.85H46.885l.976,5.85,1.6.434a30.779,30.779,0,0,1,7.248,2.993l1.439.825,4.816-3.443,7.865,7.862-3.443,4.821.825,1.439a30.712,30.712,0,0,1,2.647,6.227,39.177,39.177,0,0,0-4.2,4.112,25.928,25.928,0,1,0-9.83,25.632c0,.023,0,.047,0,.069a38.671,38.671,0,0,0,.493,5.871Zm5.217-25.362a38.546,38.546,0,0,0-4.244,11.07A20.635,20.635,0,1,1,61.987,154.9C61.987,155.416,61.958,155.919,61.923,156.422ZM95.564,209.14a33.576,33.576,0,1,1,33.576-33.576A33.615,33.615,0,0,1,95.564,209.14ZM149.8,85.166h5.166v87.815H149.8Z" transform="translate(0 -54.172)"/>
          <path id="Trazado_226025" data-name="Trazado 226025" d="M144.637,0V5.166h5.55L131.915,19.785l-7.94-7.94L111.8,24.022a7.625,7.625,0,0,0-3.319-.777,7.759,7.759,0,0,0-7.748,7.748,7.657,7.657,0,0,0,.969,3.672l-13.5,15a7.707,7.707,0,0,0-2.965-.594c-.049,0-.093.013-.142.015L74.7,21.391a7.735,7.735,0,1,0-12.54-4.268L40.992,30.151a7.661,7.661,0,0,0-12.106,3.425H15.021a7.748,7.748,0,1,0,0,5.166H28.889a7.729,7.729,0,0,0,14.844-4.21L64.906,21.5a7.654,7.654,0,0,0,4.83,1.74c.049,0,.093-.013.142-.015L80.264,50.924a7.765,7.765,0,1,0,11.749,2.225l13.5-15a7.74,7.74,0,0,0,10.713-7.154,7.625,7.625,0,0,0-.777-3.319l8.525-8.525,7.557,7.557L154.968,7.958V15.5h5.166V0ZM7.748,38.742a2.583,2.583,0,1,1,2.583-2.583A2.586,2.586,0,0,1,7.748,38.742Zm28.411,0a2.583,2.583,0,1,1,2.583-2.583A2.586,2.586,0,0,1,36.159,38.742ZM67.153,15.5a2.583,2.583,0,1,1,2.583,2.583A2.586,2.586,0,0,1,67.153,15.5ZM85.232,59.4a2.583,2.583,0,1,1,2.583-2.583A2.586,2.586,0,0,1,85.232,59.4Zm23.245-25.828a2.583,2.583,0,1,1,2.583-2.583A2.586,2.586,0,0,1,108.478,33.576Z"/>
        </g>
      </g>
    </g>
  </g>
</svg>
