<svg xmlns="http://www.w3.org/2000/svg" xmlns:xlink="http://www.w3.org/1999/xlink" width="450" height="340" viewBox="0 0 450 340">
  <defs>
    <clipPath id="clip-path">
      <rect id="Rectángulo_45165" data-name="Rectángulo 45165" width="449" height="275.99" fill="none"/>
    </clipPath>
    <clipPath id="clip-path-3">
      <rect id="Rectángulo_45147" data-name="Rectángulo 45147" width="1.562" height="1.562" fill="none"/>
    </clipPath>
    <clipPath id="clip-path-6">
      <rect id="Rectángulo_45156" data-name="Rectángulo 45156" width="1.219" height="1.219" fill="none"/>
    </clipPath>
    <clipPath id="clip-path-9">
      <rect id="Rectángulo_45162" data-name="Rectángulo 45162" width="27.647" height="31.691" fill="none"/>
    </clipPath>
    <clipPath id="clip-path-10">
      <rect id="Rectángulo_45163" data-name="Rectángulo 45163" width="2.713" height="16.737" fill="none"/>
    </clipPath>
  </defs>
  <g id="Grupo_222387" data-name="Grupo 222387" transform="translate(9763 7059)">
    <g id="Grupo_222386" data-name="Grupo 222386">
      <g id="Grupo_222385" data-name="Grupo 222385">
        <g id="Grupo_222289" data-name="Grupo 222289">
          <rect id="Rectángulo_295913" data-name="Rectángulo 295913" width="450" height="340" transform="translate(-9763 -7059)" fill="none"/>
          <g id="Grupo_210496" data-name="Grupo 210496" transform="translate(-9762 -7027)">
            <g id="Grupo_147135" data-name="Grupo 147135" clip-path="url(#clip-path)">
              <rect id="Rectángulo_45146" data-name="Rectángulo 45146" width="97.452" height="65.25" transform="translate(0.174 31.84)" fill="#fff"/>
              <g id="Grupo_147134" data-name="Grupo 147134">
                <g id="Grupo_147133" data-name="Grupo 147133" clip-path="url(#clip-path)">
                  <path id="Trazado_205048" data-name="Trazado 205048" d="M97.626,101.039s-.01-.408-.015-1.187-.009-1.936-.016-3.443c-.008-3.02-.02-7.45-.036-13.122-.017-11.337-.042-27.632-.073-47.5l.14.14L.182,35.964H.174l.175-.175C.344,59.035.339,81.14.334,101.039l-.16-.16,70.208.079L90.44,101l5.336.02,1.377.009c.31,0,.473.01.473.01s-.15.006-.454.01l-1.359.009-5.3.02-20.022.043L.174,101.2H.014v-.16c0-19.9-.009-42-.014-65.25v-.174H.182l97.444.035h.14v.14c-.031,19.9-.056,36.228-.074,47.584-.015,5.659-.027,10.079-.036,13.091-.006,1.495-.012,2.639-.015,3.417s-.015,1.158-.015,1.158" transform="translate(0 -3.949)" fill="#e1e1e1"/>
                  <path id="Trazado_205049" data-name="Trazado 205049" d="M.2,42.338c0-.1,21.8-.175,48.682-.175s48.688.078,48.688.175-21.795.174-48.688.174S.2,42.434.2,42.338" transform="translate(-0.022 -4.675)" fill="#e1e1e1"/>
                  <g id="Grupo_147111" data-name="Grupo 147111" transform="translate(2.457 33.944)" opacity="0.3">
                    <g id="Grupo_147110" data-name="Grupo 147110">
                      <g id="Grupo_147109" data-name="Grupo 147109" clip-path="url(#clip-path-3)">
                        <path id="Trazado_205050" data-name="Trazado 205050" d="M4.326,38.96a.781.781,0,1,1-.781-.781.781.781,0,0,1,.781.781" transform="translate(-2.764 -38.178)" fill="#e1e1e1"/>
                      </g>
                    </g>
                  </g>
                  <g id="Grupo_147114" data-name="Grupo 147114" transform="translate(5.134 33.944)" opacity="0.3">
                    <g id="Grupo_147113" data-name="Grupo 147113">
                      <g id="Grupo_147112" data-name="Grupo 147112" clip-path="url(#clip-path-3)">
                        <path id="Trazado_205051" data-name="Trazado 205051" d="M7.336,38.96a.781.781,0,1,1-.781-.781.781.781,0,0,1,.781.781" transform="translate(-5.774 -38.178)" fill="#e1e1e1"/>
                      </g>
                    </g>
                  </g>
                  <g id="Grupo_147117" data-name="Grupo 147117" transform="translate(7.772 33.944)" opacity="0.3">
                    <g id="Grupo_147116" data-name="Grupo 147116">
                      <g id="Grupo_147115" data-name="Grupo 147115" clip-path="url(#clip-path-3)">
                        <path id="Trazado_205052" data-name="Trazado 205052" d="M10.3,38.96a.781.781,0,1,1-.781-.781.781.781,0,0,1,.781.781" transform="translate(-8.741 -38.178)" fill="#e1e1e1"/>
                      </g>
                    </g>
                  </g>
                  <rect id="Rectángulo_45150" data-name="Rectángulo 45150" width="25.995" height="25.995" transform="translate(8.552 44.468)" fill="#e1e1e1"/>
                  <path id="Trazado_205053" data-name="Trazado 205053" d="M89.124,58.256c0,.1-10.139.175-22.642.175s-22.644-.078-22.644-.175,10.136-.174,22.644-.174,22.642.078,22.642.174" transform="translate(-4.861 -6.441)" fill="#e1e1e1"/>
                  <path id="Trazado_205054" data-name="Trazado 205054" d="M89.124,63.689c0,.1-10.139.175-22.642.175s-22.644-.078-22.644-.175,10.136-.174,22.644-.174,22.642.078,22.642.174" transform="translate(-4.861 -7.043)" fill="#e1e1e1"/>
                  <path id="Trazado_205055" data-name="Trazado 205055" d="M89.124,69.122c0,.1-10.139.174-22.642.174s-22.644-.078-22.644-.174,10.136-.174,22.644-.174,22.642.077,22.642.174" transform="translate(-4.861 -7.646)" fill="#e1e1e1"/>
                  <path id="Trazado_205056" data-name="Trazado 205056" d="M70.6,74.555a6.073,6.073,0,0,1-1.052.068l-2.868.056c-2.421.032-5.767.052-9.462.052s-7.042-.02-9.464-.052l-2.867-.056a6.073,6.073,0,0,1-1.052-.068,6.073,6.073,0,0,1,1.052-.068l2.867-.056c2.422-.031,5.768-.051,9.464-.051s7.041.02,9.462.051l2.868.056a6.073,6.073,0,0,1,1.052.068" transform="translate(-4.861 -8.248)" fill="#e1e1e1"/>
                  <rect id="Rectángulo_45151" data-name="Rectángulo 45151" width="12.216" height="12.216" transform="translate(10.179 79.227)" fill="#e1e1e1"/>
                  <rect id="Rectángulo_45152" data-name="Rectángulo 45152" width="12.216" height="12.216" transform="translate(32.334 79.227)" fill="#e1e1e1"/>
                  <rect id="Rectángulo_45153" data-name="Rectángulo 45153" width="12.216" height="12.216" transform="translate(54.489 79.227)" fill="#e1e1e1"/>
                  <rect id="Rectángulo_45154" data-name="Rectángulo 45154" width="12.216" height="12.216" transform="translate(76.644 79.227)" fill="#e1e1e1"/>
                  <rect id="Rectángulo_45155" data-name="Rectángulo 45155" width="83.945" height="34.097" transform="translate(112.006 0.133)" fill="#fff"/>
                  <path id="Trazado_205057" data-name="Trazado 205057" d="M209.9,34.23s-.007-.21-.01-.609-.006-.995-.011-1.769c-.005-1.554-.012-3.841-.023-6.785-.012-5.886-.029-14.4-.051-24.933l.094.092-83.939.04h-.006l.133-.132c0,11.94,0,23.466-.007,34.1l-.126-.126c24.323.023,45.292.045,60.186.059l17.459.036,4.674.016,1.209.008c.272,0,.416.007.416.007s-.132.005-.4.008l-1.195.008-4.646.016-17.43.036c-14.916.013-35.915.036-60.273.059h-.127V34.23c0-10.63,0-22.157-.006-34.1V0h.14c32.858.015,62.583.03,83.939.039H210V.133c-.021,10.559-.038,19.091-.051,24.99-.01,2.934-.017,5.213-.023,6.764,0,.767-.008,1.351-.01,1.752s-.009.589-.009.589" transform="translate(-13.953)" fill="#e1e1e1"/>
                  <path id="Trazado_205058" data-name="Trazado 205058" d="M126.07,5.3c0-.074,18.764-.133,41.9-.133s41.908.06,41.908.133-18.759.132-41.908.132-41.9-.06-41.9-.132" transform="translate(-13.98 -0.573)" fill="#e1e1e1"/>
                  <g id="Grupo_147120" data-name="Grupo 147120" transform="translate(114.386 2.065)" opacity="0.3">
                    <g id="Grupo_147119" data-name="Grupo 147119">
                      <g id="Grupo_147118" data-name="Grupo 147118" clip-path="url(#clip-path-6)">
                        <path id="Trazado_205059" data-name="Trazado 205059" d="M129.871,2.932a.609.609,0,1,1-.609-.609.609.609,0,0,1,.609.609" transform="translate(-128.652 -2.323)" fill="#ececec"/>
                      </g>
                    </g>
                  </g>
                  <g id="Grupo_147123" data-name="Grupo 147123" transform="translate(116.473 2.065)" opacity="0.3">
                    <g id="Grupo_147122" data-name="Grupo 147122">
                      <g id="Grupo_147121" data-name="Grupo 147121" clip-path="url(#clip-path-6)">
                        <path id="Trazado_205060" data-name="Trazado 205060" d="M132.218,2.932a.609.609,0,1,1-.609-.609.609.609,0,0,1,.609.609" transform="translate(-131 -2.323)" fill="#ececec"/>
                      </g>
                    </g>
                  </g>
                  <g id="Grupo_147126" data-name="Grupo 147126" transform="translate(118.531 2.065)" opacity="0.3">
                    <g id="Grupo_147125" data-name="Grupo 147125">
                      <g id="Grupo_147124" data-name="Grupo 147124" clip-path="url(#clip-path-6)">
                        <path id="Trazado_205061" data-name="Trazado 205061" d="M134.533,2.932a.609.609,0,1,1-.609-.609.609.609,0,0,1,.609.609" transform="translate(-133.314 -2.323)" fill="#ececec"/>
                      </g>
                    </g>
                  </g>
                  <rect id="Rectángulo_45159" data-name="Rectángulo 45159" width="20.276" height="20.276" transform="translate(119.141 10.274)" fill="#e1e1e1"/>
                  <path id="Trazado_205062" data-name="Trazado 205062" d="M208.045,17.649c0,.074-10.434.132-23.3.132s-23.3-.059-23.3-.132,10.431-.132,23.3-.132,23.3.059,23.3.132" transform="translate(-17.902 -1.942)" fill="#e1e1e1"/>
                  <path id="Trazado_205063" data-name="Trazado 205063" d="M208.045,22.3c0,.074-10.434.133-23.3.133s-23.3-.06-23.3-.133,10.431-.133,23.3-.133,23.3.06,23.3.133" transform="translate(-17.902 -2.458)" fill="#e1e1e1"/>
                  <path id="Trazado_205064" data-name="Trazado 205064" d="M191.442,26.941a1.37,1.37,0,0,1-.3.027l-.874.025-3.215.043-10.606.038-10.608-.038-3.215-.043-.874-.025a1.37,1.37,0,0,1-.3-.027,1.37,1.37,0,0,1,.3-.027l.874-.025,3.215-.043,10.608-.038,10.606.038,3.215.043.874.025a1.371,1.371,0,0,1,.3.027" transform="translate(-17.902 -2.973)" fill="#e1e1e1"/>
                  <path id="Trazado_205065" data-name="Trazado 205065" d="M475.133,49.771a3.136,3.136,0,0,1,.476-.541l1.38-1.386c1.174-1.16,2.812-2.747,4.634-4.486l.042-.039,0,.235c-1.837-1.706-3.484-3.261-4.666-4.4L475.612,37.8a3.1,3.1,0,0,1-.479-.53,3.038,3.038,0,0,1,.564.438l1.456,1.283c1.221,1.094,2.893,2.623,4.73,4.328l.125.116-.124.118-.042.04c-1.822,1.738-3.484,3.3-4.7,4.417-.573.517-1.057.957-1.449,1.312a3.141,3.141,0,0,1-.562.449" transform="translate(-52.688 -4.133)" fill="#e1e1e1"/>
                  <path id="Trazado_205066" data-name="Trazado 205066" d="M458.334,37.268a3.11,3.11,0,0,1-.476.54l-1.38,1.387c-1.175,1.16-2.812,2.747-4.634,4.485l-.042.04,0-.235c1.837,1.706,3.484,3.261,4.666,4.4l1.388,1.358a3.1,3.1,0,0,1,.479.53,3.037,3.037,0,0,1-.564-.438l-1.456-1.283c-1.221-1.094-2.893-2.623-4.73-4.328l-.125-.116.124-.118.042-.04c1.822-1.738,3.484-3.3,4.7-4.417.573-.517,1.057-.957,1.449-1.312a3.14,3.14,0,0,1,.562-.449" transform="translate(-50.063 -4.133)" fill="#e1e1e1"/>
                  <path id="Trazado_205067" data-name="Trazado 205067" d="M463.284,52.326c-.083-.031,1.4-4.213,3.323-9.339s3.54-9.258,3.622-9.227-1.4,4.213-3.323,9.34-3.54,9.257-3.622,9.226" transform="translate(-51.374 -3.744)" fill="#e1e1e1"/>
                  <path id="Trazado_205068" data-name="Trazado 205068" d="M487.478,60s-.01-.243-.014-.7-.009-1.137-.016-2.011c-.008-1.767-.02-4.34-.034-7.619-.017-6.56-.041-15.933-.069-27.235l.133.134-46.1.027h0l.16-.161c-.006,13.579-.012,26.4-.017,37.565l-.143-.143,33.29.071,9.436.038,2.5.017.647.009c.147,0,.225.008.225.008s-.068.005-.208.008l-.632.009-2.476.017-9.4.038-33.383.071h-.142V60c-.005-11.161-.012-23.985-.018-37.565v-.161h.164l46.1.027h.134v.134c-.028,11.337-.052,20.74-.069,27.32-.014,3.266-.026,5.829-.034,7.589-.007.862-.012,1.527-.015,1.986s-.015.67-.015.67" transform="translate(-48.927 -2.47)" fill="#e1e1e1"/>
                  <path id="Trazado_205069" data-name="Trazado 205069" d="M487.856,28.7c0,.089-10.407.161-23.241.161s-23.243-.072-23.243-.161,10.4-.161,23.243-.161,23.241.072,23.241.161" transform="translate(-48.944 -3.165)" fill="#e1e1e1"/>
                  <path id="Trazado_205070" data-name="Trazado 205070" d="M445.472,25.563a.621.621,0,1,1-.621-.623.622.622,0,0,1,.621.623" transform="translate(-49.261 -2.766)" fill="#e1e1e1"/>
                  <path id="Trazado_205071" data-name="Trazado 205071" d="M448.017,25.563a.621.621,0,1,1-.621-.623.622.622,0,0,1,.621.623" transform="translate(-49.543 -2.766)" fill="#e1e1e1"/>
                  <path id="Trazado_205072" data-name="Trazado 205072" d="M450.561,25.563a.621.621,0,1,1-.621-.623.622.622,0,0,1,.621.623" transform="translate(-49.826 -2.766)" fill="#e1e1e1"/>
                  <path id="Trazado_205073" data-name="Trazado 205073" d="M379.05,275.754H68.777A12.952,12.952,0,0,1,55.826,262.8V60.335a6.891,6.891,0,0,1,6.891-6.891H386.009A5.992,5.992,0,0,1,392,59.437V262.8a12.952,12.952,0,0,1-12.952,12.952" transform="translate(-6.191 -5.926)" fill="#375a64"/>
                  <path id="Trazado_205074" data-name="Trazado 205074" d="M392.035,304.44H52.212a12.2,12.2,0,0,1-12.2-12.2v-7.252H404.236v7.252a12.2,12.2,0,0,1-12.2,12.2" transform="translate(-4.437 -31.603)" fill="#375a64"/>
                  <rect id="Rectángulo_45160" data-name="Rectángulo 45160" width="317.189" height="187.737" transform="translate(58.659 56.35)" fill="#e1e1e1"/>
                  <path id="Trazado_205075" data-name="Trazado 205075" d="M207.6,284.988l4.519,7.189h63.6l4.2-7.189Z" transform="translate(-23.021 -31.603)" fill="#1a2e35"/>
                  <rect id="Rectángulo_45161" data-name="Rectángulo 45161" width="299.132" height="176.861" transform="translate(68.07 67.226)" fill="#1a2e35"/>
                  <path id="Trazado_205076" data-name="Trazado 205076" d="M102.337,247.708c-.155,0-.281-37.668-.281-84.123,0-46.472.126-84.132.281-84.132s.281,37.66.281,84.132c0,46.455-.126,84.123-.281,84.123" transform="translate(-11.317 -8.811)" fill="#e1e1e1"/>
                  <path id="Trazado_205077" data-name="Trazado 205077" d="M94.374,96.571a21.287,21.287,0,0,1-4.859.281,21.281,21.281,0,0,1-4.859-.281,21.28,21.28,0,0,1,4.859-.281,21.286,21.286,0,0,1,4.859.281" transform="translate(-9.388 -10.678)" fill="#e1e1e1"/>
                  <path id="Trazado_205078" data-name="Trazado 205078" d="M94.795,85.833a21.286,21.286,0,0,1-4.859.281,21.291,21.291,0,0,1-4.86-.281,21.292,21.292,0,0,1,4.86-.281,21.287,21.287,0,0,1,4.859.281" transform="translate(-9.434 -9.487)" fill="#e1e1e1"/>
                  <path id="Trazado_205079" data-name="Trazado 205079" d="M94.374,108.146a21.286,21.286,0,0,1-4.859.281,21.28,21.28,0,0,1-4.859-.281,21.28,21.28,0,0,1,4.859-.281,21.287,21.287,0,0,1,4.859.281" transform="translate(-9.388 -11.961)" fill="#e1e1e1"/>
                  <path id="Trazado_205080" data-name="Trazado 205080" d="M94.374,119.72a21.286,21.286,0,0,1-4.859.281,21.28,21.28,0,0,1-4.859-.281,21.281,21.281,0,0,1,4.859-.281,21.287,21.287,0,0,1,4.859.281" transform="translate(-9.388 -13.245)" fill="#e1e1e1"/>
                  <path id="Trazado_205081" data-name="Trazado 205081" d="M94.374,131.294a21.284,21.284,0,0,1-4.859.281,21.278,21.278,0,0,1-4.859-.281,21.281,21.281,0,0,1,4.859-.281,21.288,21.288,0,0,1,4.859.281" transform="translate(-9.388 -14.528)" fill="#e1e1e1"/>
                  <path id="Trazado_205082" data-name="Trazado 205082" d="M94.374,142.868a21.286,21.286,0,0,1-4.859.281,21.28,21.28,0,0,1-4.859-.281,21.281,21.281,0,0,1,4.859-.281,21.288,21.288,0,0,1,4.859.281" transform="translate(-9.388 -15.812)" fill="#e1e1e1"/>
                  <path id="Trazado_205083" data-name="Trazado 205083" d="M94.374,154.443a21.288,21.288,0,0,1-4.859.281,21.281,21.281,0,0,1-4.859-.281,21.278,21.278,0,0,1,4.859-.281,21.284,21.284,0,0,1,4.859.281" transform="translate(-9.388 -17.095)" fill="#e1e1e1"/>
                  <path id="Trazado_205084" data-name="Trazado 205084" d="M94.374,166.017a21.286,21.286,0,0,1-4.859.281,21.28,21.28,0,0,1-4.859-.281,21.281,21.281,0,0,1,4.859-.281,21.287,21.287,0,0,1,4.859.281" transform="translate(-9.388 -18.379)" fill="#e1e1e1"/>
                  <path id="Trazado_205085" data-name="Trazado 205085" d="M94.374,177.591a21.287,21.287,0,0,1-4.859.281,21.281,21.281,0,0,1-4.859-.281,21.28,21.28,0,0,1,4.859-.281,21.286,21.286,0,0,1,4.859.281" transform="translate(-9.388 -19.662)" fill="#e1e1e1"/>
                  <path id="Trazado_205086" data-name="Trazado 205086" d="M94.374,189.165a21.287,21.287,0,0,1-4.859.281,21.281,21.281,0,0,1-4.859-.281,21.28,21.28,0,0,1,4.859-.281,21.286,21.286,0,0,1,4.859.281" transform="translate(-9.388 -20.946)" fill="#e1e1e1"/>
                  <path id="Trazado_205087" data-name="Trazado 205087" d="M94.374,200.74a21.286,21.286,0,0,1-4.859.281,21.28,21.28,0,0,1-4.859-.281,21.28,21.28,0,0,1,4.859-.281,21.286,21.286,0,0,1,4.859.281" transform="translate(-9.388 -22.229)" fill="#e1e1e1"/>
                  <path id="Trazado_205088" data-name="Trazado 205088" d="M94.374,212.314a21.288,21.288,0,0,1-4.859.281,21.281,21.281,0,0,1-4.859-.281,21.28,21.28,0,0,1,4.859-.281,21.286,21.286,0,0,1,4.859.281" transform="translate(-9.388 -23.513)" fill="#e1e1e1"/>
                  <path id="Trazado_205089" data-name="Trazado 205089" d="M94.374,223.888a21.286,21.286,0,0,1-4.859.281,21.28,21.28,0,0,1-4.859-.281,21.28,21.28,0,0,1,4.859-.281,21.286,21.286,0,0,1,4.859.281" transform="translate(-9.388 -24.796)" fill="#e1e1e1"/>
                  <path id="Trazado_205090" data-name="Trazado 205090" d="M94.374,235.462a21.286,21.286,0,0,1-4.859.281,21.28,21.28,0,0,1-4.859-.281,21.28,21.28,0,0,1,4.859-.281,21.286,21.286,0,0,1,4.859.281" transform="translate(-9.388 -26.079)" fill="#e1e1e1"/>
                  <path id="Trazado_205091" data-name="Trazado 205091" d="M94.374,247.037a21.288,21.288,0,0,1-4.859.281,21.281,21.281,0,0,1-4.859-.281,21.279,21.279,0,0,1,4.859-.281,21.285,21.285,0,0,1,4.859.281" transform="translate(-9.388 -27.363)" fill="#e1e1e1"/>
                  <path id="Trazado_205092" data-name="Trazado 205092" d="M94.374,258.611a21.288,21.288,0,0,1-4.859.281,21.281,21.281,0,0,1-4.859-.281,21.278,21.278,0,0,1,4.859-.281,21.284,21.284,0,0,1,4.859.281" transform="translate(-9.388 -28.646)" fill="#e1e1e1"/>
                  <path id="Trazado_205093" data-name="Trazado 205093" d="M136.25,95.889c0,.155-5.647.281-12.61.281s-12.61-.126-12.61-.281,5.645-.281,12.61-.281,12.61.126,12.61.281" transform="translate(-12.312 -10.602)" fill="#4dd0e1"/>
                  <path id="Trazado_205094" data-name="Trazado 205094" d="M136.25,258.611c0,.155-5.647.281-12.61.281s-12.61-.126-12.61-.281,5.645-.281,12.61-.281,12.61.126,12.61.281" transform="translate(-12.312 -28.646)" fill="#4dd0e1"/>
                  <path id="Trazado_205095" data-name="Trazado 205095" d="M173.015,119.72c0,.155-10.564.281-23.592.281s-23.6-.126-23.6-.281,10.563-.281,23.6-.281,23.592.126,23.592.281" transform="translate(-13.953 -13.245)" fill="#4dd0e1"/>
                  <path id="Trazado_205096" data-name="Trazado 205096" d="M234.384,119.72c0,.155-10.564.281-23.593.281s-23.6-.126-23.6-.281,10.563-.281,23.6-.281,23.593.126,23.593.281" transform="translate(-20.758 -13.245)" fill="#e1e1e1"/>
                  <path id="Trazado_205097" data-name="Trazado 205097" d="M208.141,131.294c0,.155-15.569.281-34.77.281s-34.773-.126-34.773-.281,15.566-.281,34.773-.281,34.77.126,34.77.281" transform="translate(-15.369 -14.528)" fill="#e1e1e1"/>
                  <path id="Trazado_205098" data-name="Trazado 205098" d="M208.141,142.868c0,.155-15.569.281-34.77.281s-34.773-.126-34.773-.281,15.566-.281,34.773-.281,34.77.126,34.77.281" transform="translate(-15.369 -15.812)" fill="#e1e1e1"/>
                  <path id="Trazado_205099" data-name="Trazado 205099" d="M261.98,177.591c0,.155-15.569.281-34.77.281s-34.773-.126-34.773-.281,15.566-.281,34.773-.281,34.77.126,34.77.281" transform="translate(-21.34 -19.662)" fill="#e1e1e1"/>
                  <path id="Trazado_205100" data-name="Trazado 205100" d="M238.748,154.443c0,.155-15.569.281-34.77.281s-34.773-.126-34.773-.281,15.566-.281,34.773-.281,34.77.126,34.77.281" transform="translate(-18.763 -17.095)" fill="#e1e1e1"/>
                  <path id="Trazado_205101" data-name="Trazado 205101" d="M334.329,154.443c0,.155-15.569.281-34.77.281s-34.773-.126-34.773-.281,15.566-.281,34.773-.281,34.77.126,34.77.281" transform="translate(-29.362 -17.095)" fill="#e1e1e1"/>
                  <path id="Trazado_205102" data-name="Trazado 205102" d="M301.088,131.294c0,.155-15.569.281-34.769.281s-34.773-.126-34.773-.281,15.566-.281,34.773-.281,34.769.126,34.769.281" transform="translate(-25.676 -14.528)" fill="#fafafa"/>
                  <path id="Trazado_205103" data-name="Trazado 205103" d="M355.117,177.591c0,.155-15.569.281-34.77.281s-34.773-.126-34.773-.281,15.566-.281,34.773-.281,34.77.126,34.77.281" transform="translate(-31.668 -19.662)" fill="#fafafa"/>
                  <path id="Trazado_205104" data-name="Trazado 205104" d="M339.533,142.868c0,.155-24.176.281-53.991.281s-54-.126-54-.281,24.17-.281,54-.281,53.991.126,53.991.281" transform="translate(-25.676 -15.812)" fill="#375a64"/>
                  <path id="Trazado_205105" data-name="Trazado 205105" d="M136.25,108.146c0,.155-5.647.281-12.61.281s-12.61-.126-12.61-.281,5.645-.281,12.61-.281,12.61.126,12.61.281" transform="translate(-12.312 -11.961)" fill="#fafafa"/>
                  <path id="Trazado_205106" data-name="Trazado 205106" d="M136.25,247.037c0,.155-5.647.281-12.61.281s-12.61-.126-12.61-.281,5.645-.281,12.61-.281,12.61.126,12.61.281" transform="translate(-12.312 -27.363)" fill="#fafafa"/>
                  <path id="Trazado_205107" data-name="Trazado 205107" d="M150.3,154.443c0,.155-5.647.281-12.61.281s-12.61-.126-12.61-.281,5.645-.281,12.61-.281,12.61.126,12.61.281" transform="translate(-13.871 -17.095)" fill="#fafafa"/>
                  <path id="Trazado_205108" data-name="Trazado 205108" d="M377.647,154.443c0,.155-5.646.281-12.609.281s-12.611-.126-12.611-.281,5.645-.281,12.611-.281,12.609.126,12.609.281" transform="translate(-39.081 -17.095)" fill="#4dd0e1"/>
                  <path id="Trazado_205109" data-name="Trazado 205109" d="M173.015,200.672c0,.155-10.564.281-23.592.281s-23.6-.126-23.6-.281,10.563-.281,23.6-.281,23.592.126,23.592.281" transform="translate(-13.953 -22.222)" fill="#4dd0e1"/>
                  <path id="Trazado_205110" data-name="Trazado 205110" d="M234.384,200.672c0,.155-10.564.281-23.593.281s-23.6-.126-23.6-.281,10.563-.281,23.6-.281,23.593.126,23.593.281" transform="translate(-20.758 -22.222)" fill="#e1e1e1"/>
                  <path id="Trazado_205111" data-name="Trazado 205111" d="M208.141,212.246c0,.155-15.569.281-34.77.281s-34.773-.126-34.773-.281,15.566-.281,34.773-.281,34.77.126,34.77.281" transform="translate(-15.369 -23.505)" fill="#e1e1e1"/>
                  <path id="Trazado_205112" data-name="Trazado 205112" d="M208.141,223.82c0,.155-15.569.281-34.77.281s-34.773-.126-34.773-.281,15.566-.281,34.773-.281,34.77.126,34.77.281" transform="translate(-15.369 -24.788)" fill="#e1e1e1"/>
                  <path id="Trazado_205113" data-name="Trazado 205113" d="M238.748,235.394c0,.155-15.569.281-34.77.281s-34.773-.126-34.773-.281,15.566-.281,34.773-.281,34.77.126,34.77.281" transform="translate(-18.763 -26.072)" fill="#e1e1e1"/>
                  <path id="Trazado_205114" data-name="Trazado 205114" d="M334.329,235.394c0,.155-15.569.281-34.77.281s-34.773-.126-34.773-.281,15.566-.281,34.773-.281,34.77.126,34.77.281" transform="translate(-29.362 -26.072)" fill="#e1e1e1"/>
                  <path id="Trazado_205115" data-name="Trazado 205115" d="M301.088,212.246c0,.155-15.569.281-34.769.281s-34.773-.126-34.773-.281,15.566-.281,34.773-.281,34.769.126,34.769.281" transform="translate(-25.676 -23.505)" fill="#fafafa"/>
                  <path id="Trazado_205116" data-name="Trazado 205116" d="M339.533,223.82c0,.155-24.176.281-53.991.281s-54-.126-54-.281,24.17-.281,54-.281,53.991.126,53.991.281" transform="translate(-25.676 -24.788)" fill="#375a64"/>
                  <path id="Trazado_205117" data-name="Trazado 205117" d="M150.3,235.394c0,.155-5.647.281-12.61.281s-12.61-.126-12.61-.281,5.645-.281,12.61-.281,12.61.126,12.61.281" transform="translate(-13.871 -26.072)" fill="#fafafa"/>
                  <path id="Trazado_205118" data-name="Trazado 205118" d="M377.647,235.394c0,.155-5.646.281-12.609.281s-12.611-.126-12.611-.281,5.645-.281,12.611-.281,12.609.126,12.609.281" transform="translate(-39.081 -26.072)" fill="#4dd0e1"/>
                  <path id="Trazado_205119" data-name="Trazado 205119" d="M352.476,292.274c0,.092-64.4.166-143.817.166-79.447,0-143.83-.074-143.83-.166s64.383-.166,143.83-.166c79.42,0,143.817.075,143.817.166" transform="translate(-7.189 -32.392)" fill="#1a2e35"/>
                  <path id="Trazado_205120" data-name="Trazado 205120" d="M404.819,33.314H233.341v106.2H377.7l8.937,20.562,7.923-20.562h10.262Z" transform="translate(-25.875 -3.694)" fill="#fafafa"/>
                  <path id="Trazado_205121" data-name="Trazado 205121" d="M404.8,33.3c0,1.03.049,40.927.127,106.2v.128H404.8l-10.263.005.125-.085c-2.482,6.444-5.155,13.392-7.916,20.564l-.124.323-.139-.317c-2.8-6.442-5.833-13.407-8.944-20.558l.137.09-130.544.018H233.155v-.166c.005-37.848.01-73.767.014-106.2v-.152h.152L404.8,33.3l-171.478.152.152-.152c0,32.431.009,68.35.014,106.2l-.166-.166h13.811l130.544.018h.1l.039.09c3.107,7.153,6.133,14.12,8.931,20.563l-.263.006c2.767-7.171,5.446-14.115,7.933-20.558l.033-.085h.09l10.263,0-.128.128c.077-65.271.127-105.169.128-106.2" transform="translate(-25.855 -3.675)" fill="#1a2e35"/>
                  <path id="Trazado_205122" data-name="Trazado 205122" d="M404.763,44.941c0,.13-38.313.234-85.562.234-47.265,0-85.569-.1-85.569-.234s38.3-.234,85.569-.234c47.249,0,85.562.1,85.562.234" transform="translate(-25.908 -4.958)" fill="#1a2e35"/>
                  <path id="Trazado_205123" data-name="Trazado 205123" d="M243.241,39.518a1.405,1.405,0,1,1-1.406-1.406,1.406,1.406,0,0,1,1.406,1.406" transform="translate(-26.662 -4.226)" fill="#1a2e35"/>
                  <path id="Trazado_205124" data-name="Trazado 205124" d="M248.962,39.518a1.406,1.406,0,1,1-1.407-1.406,1.407,1.407,0,0,1,1.407,1.406" transform="translate(-27.296 -4.226)" fill="#1a2e35"/>
                  <path id="Trazado_205125" data-name="Trazado 205125" d="M254.682,39.518a1.405,1.405,0,1,1-1.406-1.406,1.406,1.406,0,0,1,1.406,1.406" transform="translate(-27.93 -4.226)" fill="#1a2e35"/>
                  <path id="Trazado_205126" data-name="Trazado 205126" d="M253.737,66.218l-4.073,1.571,4.073,1.572v.952l-5.14-2.031V67.3l5.14-2.031Z" transform="translate(-27.567 -7.237)" fill="#1a2e35"/>
                  <path id="Trazado_205127" data-name="Trazado 205127" d="M258.671,61.756h1l-3.785,10.806h-1Z" transform="translate(-28.264 -6.848)" fill="#1a2e35"/>
                  <path id="Trazado_205128" data-name="Trazado 205128" d="M265.794,67.3v.986l-5.14,2.031v-.952l4.085-1.572-4.085-1.571v-.952Z" transform="translate(-28.904 -7.237)" fill="#1a2e35"/>
                  <path id="Trazado_205129" data-name="Trazado 205129" d="M267.9,71.711a.766.766,0,0,1,.78-.78.755.755,0,0,1,.758.78.765.765,0,0,1-.758.792.776.776,0,0,1-.78-.792" transform="translate(-29.707 -7.866)" fill="#1a2e35"/>
                  <path id="Trazado_205130" data-name="Trazado 205130" d="M270.827,71.711a.766.766,0,0,1,.78-.78.755.755,0,0,1,.758.78.765.765,0,0,1-.758.792.776.776,0,0,1-.78-.792" transform="translate(-30.032 -7.866)" fill="#1a2e35"/>
                  <path id="Trazado_205131" data-name="Trazado 205131" d="M273.757,71.711a.766.766,0,0,1,.78-.78.755.755,0,0,1,.758.78.765.765,0,0,1-.758.792.776.776,0,0,1-.78-.792" transform="translate(-30.357 -7.866)" fill="#1a2e35"/>
                  <path id="Trazado_205132" data-name="Trazado 205132" d="M362.043,83.362c0,.129-25.349.234-56.611.234s-56.618-.1-56.618-.234,25.344-.234,56.618-.234,56.611.1,56.611.234" transform="translate(-27.591 -9.218)" fill="#375a64"/>
                  <path id="Trazado_205133" data-name="Trazado 205133" d="M395.606,83.739a63.146,63.146,0,0,1-10.879,0,63.384,63.384,0,0,1,10.879,0" transform="translate(-42.663 -9.26)" fill="#1a2e35"/>
                  <path id="Trazado_205134" data-name="Trazado 205134" d="M413.364,83.739a75.314,75.314,0,0,1-11.883,0,75.6,75.6,0,0,1,11.883,0" transform="translate(-44.521 -9.26)" fill="#1a2e35"/>
                  <path id="Trazado_205135" data-name="Trazado 205135" d="M320.931,94.092c0,.129-16.112.234-35.983.234s-35.986-.1-35.986-.234,16.109-.233,35.986-.233,35.983.1,35.983.233" transform="translate(-27.608 -10.408)" fill="#375a64"/>
                  <path id="Trazado_205136" data-name="Trazado 205136" d="M320.352,134.13c0,.129-16.112.234-35.983.234s-35.986-.1-35.986-.234,16.109-.234,35.986-.234,35.983.1,35.983.234" transform="translate(-27.543 -14.848)" fill="#375a64"/>
                  <path id="Trazado_205137" data-name="Trazado 205137" d="M356.872,94.092c0,.129-4.384.234-9.791.234s-9.792-.1-9.792-.234,4.383-.233,9.792-.233,9.791.1,9.791.233" transform="translate(-37.402 -10.408)" fill="#1a2e35"/>
                  <path id="Trazado_205138" data-name="Trazado 205138" d="M356.642,134.13c0,.129-4.384.234-9.791.234s-9.792-.1-9.792-.234,4.383-.234,9.792-.234,9.791.1,9.791.234" transform="translate(-37.377 -14.848)" fill="#1a2e35"/>
                  <path id="Trazado_205139" data-name="Trazado 205139" d="M253.669,99.551a12.71,12.71,0,0,1-4.854,0,12.758,12.758,0,0,1,4.854,0" transform="translate(-27.591 -11.013)" fill="#ff735d"/>
                  <path id="Trazado_205140" data-name="Trazado 205140" d="M271.784,99.664a59.546,59.546,0,0,1-10.544,0,59.547,59.547,0,0,1,10.544,0" transform="translate(-28.969 -11.026)" fill="#1a2e35"/>
                  <path id="Trazado_205141" data-name="Trazado 205141" d="M284.019,99.664a43.78,43.78,0,0,1-9.038,0,43.782,43.782,0,0,1,9.038,0" transform="translate(-30.493 -11.026)" fill="#1a2e35"/>
                  <path id="Trazado_205142" data-name="Trazado 205142" d="M299.246,99.664a45.41,45.41,0,0,1-9.2,0,45.412,45.412,0,0,1,9.2,0" transform="translate(-32.163 -11.026)" fill="#1a2e35"/>
                  <path id="Trazado_205143" data-name="Trazado 205143" d="M312.715,99.664a37.551,37.551,0,0,1-8.368,0,37.552,37.552,0,0,1,8.368,0" transform="translate(-33.749 -11.026)" fill="#1a2e35"/>
                  <path id="Trazado_205144" data-name="Trazado 205144" d="M353.4,99.664c0,.129-8.243.234-18.41.234s-18.412-.1-18.412-.234,8.242-.234,18.412-.234,18.41.1,18.41.234" transform="translate(-35.106 -11.026)" fill="#1a2e35"/>
                  <path id="Trazado_205145" data-name="Trazado 205145" d="M253,106.516a9.475,9.475,0,0,1-4.184,0,9.511,9.511,0,0,1,4.184,0" transform="translate(-27.591 -11.786)" fill="#ff735d"/>
                  <path id="Trazado_205146" data-name="Trazado 205146" d="M253.166,113.67a10.238,10.238,0,0,1-4.351,0,10.238,10.238,0,0,1,4.351,0" transform="translate(-27.591 -12.579)" fill="#ff735d"/>
                  <path id="Trazado_205147" data-name="Trazado 205147" d="M253.166,121.764a10.238,10.238,0,0,1-4.351,0,10.238,10.238,0,0,1,4.351,0" transform="translate(-27.591 -13.477)" fill="#ff735d"/>
                  <path id="Trazado_205148" data-name="Trazado 205148" d="M294.273,121.388c0,.129-7.269.234-16.234.234s-16.235-.1-16.235-.234,7.268-.234,16.235-.234,16.234.1,16.234.234" transform="translate(-29.032 -13.435)" fill="#1a2e35"/>
                  <path id="Trazado_205149" data-name="Trazado 205149" d="M291.261,113.67c0,.13-6.931.234-15.481.234s-15.482-.1-15.482-.234,6.931-.234,15.482-.234,15.481.1,15.481.234" transform="translate(-28.865 -12.579)" fill="#1a2e35"/>
                  <path id="Trazado_205150" data-name="Trazado 205150" d="M366.117,106.14c0,.129-23.606.234-52.719.234s-52.724-.1-52.724-.234,23.6-.234,52.724-.234,52.719.1,52.719.234" transform="translate(-28.906 -11.744)" fill="#1a2e35"/>
                  <path id="Trazado_205151" data-name="Trazado 205151" d="M436.307,82.16v90.249l-14.032,11.708h73.385V82.16Z" transform="translate(-46.827 -9.111)" fill="#fafafa"/>
                  <path id="Trazado_205152" data-name="Trazado 205152" d="M436.254,82.144s.347-.009,1.038-.013l3.068-.013,11.817-.032,43.43-.067h.125v.125c.011,27.241.025,62.819.041,101.957v.166H485.315l-63.094-.012h-.428l.328-.274q7.274-6.063,14.037-11.7l-.052.113c.031-26.983.056-49.559.075-65.4.016-7.9.029-14.117.038-18.366.007-2.113.013-3.736.017-4.838q.005-.812.009-1.237c0-.277.008-.413.008-.413s.005.148.008.429.005.7.009,1.253c0,1.107.01,2.739.017,4.865.009,4.257.022,10.486.039,18.4.018,15.815.043,38.359.074,65.3v.068l-.052.044L422.321,184.22l-.1-.274,63.094-.012h10.291l-.166.166c.015-39.138.029-74.716.04-101.957l.126.125L452.253,82.2l-11.845-.032-3.091-.013c-.7,0-1.063-.013-1.063-.013" transform="translate(-46.773 -9.095)" fill="#1a2e35"/>
                  <path id="Trazado_205153" data-name="Trazado 205153" d="M443.82,87.06a1.2,1.2,0,1,1-1.2-1.2,1.2,1.2,0,0,1,1.2,1.2" transform="translate(-48.949 -9.521)" fill="#1a2e35"/>
                  <path id="Trazado_205154" data-name="Trazado 205154" d="M448.715,87.06a1.2,1.2,0,1,1-1.2-1.2,1.2,1.2,0,0,1,1.2,1.2" transform="translate(-49.492 -9.521)" fill="#1a2e35"/>
                  <path id="Trazado_205155" data-name="Trazado 205155" d="M453.61,87.06a1.2,1.2,0,1,1-1.2-1.2,1.2,1.2,0,0,1,1.2,1.2" transform="translate(-50.035 -9.521)" fill="#1a2e35"/>
                  <path id="Trazado_205156" data-name="Trazado 205156" d="M482.272,118.461c0,.107-7.525.192-16.8.192s-16.807-.085-16.807-.192,7.524-.192,16.807-.192,16.8.086,16.8.192" transform="translate(-49.753 -13.115)" fill="#4dd0e1"/>
                  <path id="Trazado_205157" data-name="Trazado 205157" d="M489.244,127.643c0,.107-9.157.192-20.45.192s-20.453-.085-20.453-.192,9.155-.192,20.453-.192,20.45.086,20.45.192" transform="translate(-49.717 -14.133)" fill="#4dd0e1"/>
                  <path id="Trazado_205158" data-name="Trazado 205158" d="M490.779,161.9c0,.107-9.764.192-21.805.192s-21.808-.085-21.808-.192,9.762-.192,21.808-.192,21.805.086,21.805.192" transform="translate(-49.587 -17.932)" fill="#4dd0e1"/>
                  <path id="Trazado_205159" data-name="Trazado 205159" d="M451.689,132.314a11.322,11.322,0,0,1-4.153,0,11.322,11.322,0,0,1,4.153,0" transform="translate(-49.628 -14.651)" fill="#4dd0e1"/>
                  <path id="Trazado_205160" data-name="Trazado 205160" d="M467.19,132.411a53.083,53.083,0,0,1-9.023,0,53.083,53.083,0,0,1,9.023,0" transform="translate(-50.807 -14.662)" fill="#4dd0e1"/>
                  <path id="Trazado_205161" data-name="Trazado 205161" d="M477.66,132.411a39.032,39.032,0,0,1-7.734,0,39.032,39.032,0,0,1,7.734,0" transform="translate(-52.111 -14.662)" fill="#4dd0e1"/>
                  <path id="Trazado_205162" data-name="Trazado 205162" d="M451.116,138.274a8.44,8.44,0,0,1-3.58,0,8.44,8.44,0,0,1,3.58,0" transform="translate(-49.628 -15.312)" fill="#4dd0e1"/>
                  <path id="Trazado_205163" data-name="Trazado 205163" d="M451.26,144.4a9.121,9.121,0,0,1-3.724,0,9.121,9.121,0,0,1,3.724,0" transform="translate(-49.628 -15.991)" fill="#4dd0e1"/>
                  <path id="Trazado_205164" data-name="Trazado 205164" d="M451.26,151.322a9.12,9.12,0,0,1-3.724,0,9.121,9.121,0,0,1,3.724,0" transform="translate(-49.628 -16.759)" fill="#4dd0e1"/>
                  <path id="Trazado_205165" data-name="Trazado 205165" d="M486.435,151c0,.107-6.22.192-13.891.192s-13.893-.085-13.893-.192,6.219-.192,13.893-.192,13.891.086,13.891.192" transform="translate(-50.86 -16.723)" fill="#4dd0e1"/>
                  <path id="Trazado_205166" data-name="Trazado 205166" d="M483.857,144.4c0,.106-5.932.192-13.247.192s-13.249-.086-13.249-.192,5.93-.192,13.249-.192,13.247.085,13.247.192" transform="translate(-50.717 -15.991)" fill="#4dd0e1"/>
                  <path id="Trazado_205167" data-name="Trazado 205167" d="M454.31,171.049a9.12,9.12,0,0,1-3.724,0,9.12,9.12,0,0,1,3.724,0" transform="translate(-49.966 -18.947)" fill="#4dd0e1"/>
                  <path id="Trazado_205168" data-name="Trazado 205168" d="M454.31,177.976a9.12,9.12,0,0,1-3.724,0,9.12,9.12,0,0,1,3.724,0" transform="translate(-49.966 -19.715)" fill="#4dd0e1"/>
                  <path id="Trazado_205169" data-name="Trazado 205169" d="M489.485,177.654c0,.106-6.22.192-13.891.192s-13.893-.086-13.893-.192,6.219-.192,13.893-.192,13.891.086,13.891.192" transform="translate(-51.198 -19.679)" fill="#4dd0e1"/>
                  <path id="Trazado_205170" data-name="Trazado 205170" d="M486.907,171.049c0,.107-5.931.192-13.247.192s-13.249-.085-13.249-.192,5.93-.192,13.249-.192,13.247.086,13.247.192" transform="translate(-51.056 -18.947)" fill="#4dd0e1"/>
                  <path id="Trazado_205171" data-name="Trazado 205171" d="M493.744,137.952c0,.107-8.073.192-18.029.192s-18.03-.085-18.03-.192,8.071-.192,18.03-.192,18.029.086,18.029.192" transform="translate(-50.753 -15.276)" fill="#4dd0e1"/>
                  <path id="Trazado_205172" data-name="Trazado 205172" d="M496.924,92.486c0,.107-13.033.192-29.106.192s-29.109-.085-29.109-.192,13.03-.192,29.109-.192,29.106.086,29.106.192" transform="translate(-48.649 -10.235)" fill="#1a2e35"/>
                  <path id="Trazado_205173" data-name="Trazado 205173" d="M460.938,112.924a98.481,98.481,0,0,1-12.295,0,98.481,98.481,0,0,1,12.295,0" transform="translate(-49.751 -12.501)" fill="#4dd0e1"/>
                  <path id="Trazado_205174" data-name="Trazado 205174" d="M453.921,100.4a21.989,21.989,0,0,1-5.8,0,21.989,21.989,0,0,1,5.8,0" transform="translate(-49.693 -11.112)" fill="#4dd0e1"/>
                  <path id="Trazado_205175" data-name="Trazado 205175" d="M388.534,240.13l12.888-12.742L378.438,188.03a22.19,22.19,0,0,0-8.821-6.136l-8.094-3.076L341.4,175.126l-14.286,5.626a8.541,8.541,0,0,0-5.352,8.955l3.737,31.458,2.2,40.961,51.913-9-5.224-15.15.175-23.62Z" transform="translate(-35.674 -19.42)" fill="#feca2e"/>
                  <path id="Trazado_205176" data-name="Trazado 205176" d="M381.445,240.121c.122,0,.153-8.183.07-18.275s-.248-18.273-.369-18.272-.153,8.182-.07,18.276.248,18.272.369,18.271" transform="translate(-42.253 -22.575)" fill="#1a2e35"/>
                  <path id="Trazado_205177" data-name="Trazado 205177" d="M372.234,243.672l-31.368-12.627a7.168,7.168,0,0,1-4.47-6.1l-2.3-30.074s.271-12.79-7.717-13.413l-4.545,1.791c-5.874,3.119-7.329,11.671-6.53,18.274,1.136,9.383,1.609,22.66,2.881,30.8a17.433,17.433,0,0,0,11.375,14.236l38.634,8.364Z" transform="translate(-34.943 -20.122)" fill="#feca2e"/>
                  <path id="Trazado_205178" data-name="Trazado 205178" d="M336.974,201.7a4.365,4.365,0,0,1,.1.689q.075.735.2,1.981c.16,1.763.386,4.245.663,7.293.266,3.093.581,6.756.93,10.82q.128,1.528.262,3.128a23.549,23.549,0,0,0,.4,3.219,5.341,5.341,0,0,0,1.56,2.818,10.576,10.576,0,0,0,2.894,1.8c8.649,3.742,16.621,6.833,22.407,9l6.87,2.53,1.868.689a4.276,4.276,0,0,1,.642.266,4.242,4.242,0,0,1-.669-.186l-1.895-.614c-1.641-.544-4.008-1.359-6.918-2.407-5.82-2.1-13.8-5.143-22.479-8.9a10.946,10.946,0,0,1-3.008-1.88,5.756,5.756,0,0,1-1.672-3.028,23.493,23.493,0,0,1-.4-3.275q-.127-1.6-.249-3.13c-.316-4.068-.6-7.734-.84-10.83-.221-3.054-.4-5.539-.53-7.3q-.077-1.25-.124-1.987a4.371,4.371,0,0,1-.014-.7" transform="translate(-37.367 -22.367)" fill="#1a2e35"/>
                  <path id="Trazado_205179" data-name="Trazado 205179" d="M316.759,220.088a1.513,1.513,0,0,1,.062.4c.028.314.062.7.1,1.161.093,1.071.219,2.514.372,4.268.172,1.8.39,3.941.7,6.309a59.943,59.943,0,0,0,1.416,7.618,11.357,11.357,0,0,0,1.53,3.632,20.782,20.782,0,0,0,2.344,2.879,20.063,20.063,0,0,0,5.019,3.766,18.856,18.856,0,0,0,5.51,1.8,1.43,1.43,0,0,1-.408-.009,8.663,8.663,0,0,1-1.16-.149,15.318,15.318,0,0,1-4.076-1.381,19.66,19.66,0,0,1-5.16-3.758,20.836,20.836,0,0,1-2.409-2.921,11.637,11.637,0,0,1-1.594-3.75,56.725,56.725,0,0,1-1.4-7.68c-.293-2.379-.481-4.528-.615-6.335s-.2-3.27-.239-4.282c-.01-.467-.018-.852-.025-1.167a1.45,1.45,0,0,1,.022-.408" transform="translate(-35.123 -24.406)" fill="#1a2e35"/>
                  <path id="Trazado_205180" data-name="Trazado 205180" d="M331.848,242.831a4.609,4.609,0,0,1,.571-1.672,10.782,10.782,0,0,1,6.363-5.435,4.587,4.587,0,0,1,1.742-.3c.012.07-.647.2-1.644.582a12.2,12.2,0,0,0-6.2,5.3c-.533.925-.765,1.554-.831,1.531" transform="translate(-36.798 -26.104)" fill="#1a2e35"/>
                  <g id="Grupo_147129" data-name="Grupo 147129" transform="translate(300.63 188.275)" opacity="0.3">
                    <g id="Grupo_147128" data-name="Grupo 147128">
                      <g id="Grupo_147127" data-name="Grupo 147127" clip-path="url(#clip-path-9)">
                        <path id="Trazado_205181" data-name="Trazado 205181" d="M365.772,243.447c-3.354-1.895-6.636-3.35-10.143-4.944s-6.942-3.639-9.238-6.733c-4.328-5.834-3.836-14.256-8.267-20.013q.435,5.807.869,11.614c.265,3.548-.279,7.058,2.007,9.469,1.925,2.032,5.68,3.589,8.338,4.466,5.341,1.762,11.093,4.379,16.434,6.141" transform="translate(-338.125 -211.757)"/>
                      </g>
                    </g>
                  </g>
                  <g id="Grupo_147132" data-name="Grupo 147132" transform="translate(338.899 183.214)" opacity="0.3">
                    <g id="Grupo_147131" data-name="Grupo 147131">
                      <g id="Grupo_147130" data-name="Grupo 147130" clip-path="url(#clip-path-10)">
                        <path id="Trazado_205182" data-name="Trazado 205182" d="M381.167,206.065,383.88,222.8l-2.569-4.742Z" transform="translate(-381.167 -206.065)"/>
                      </g>
                    </g>
                  </g>
                  <path id="Trazado_205183" data-name="Trazado 205183" d="M333.615,194.434a3.071,3.071,0,0,1-.726.056l-1.979.05c-1.67.042-3.974.126-6.515.308s-4.835.429-6.493.625l-1.966.232a3.082,3.082,0,0,1-.727.049,3.063,3.063,0,0,1,.708-.177c.459-.093,1.126-.21,1.953-.338,1.654-.257,3.952-.54,6.5-.724s4.863-.229,6.537-.211c.838.009,1.514.028,1.982.056a3.072,3.072,0,0,1,.726.074" transform="translate(-34.954 -21.546)" fill="#375a64"/>
                  <path id="Trazado_205184" data-name="Trazado 205184" d="M334.621,212.464c.008.092-4.1.507-9.183.926s-9.2.686-9.21.594,4.1-.506,9.184-.926,9.2-.686,9.209-.594" transform="translate(-35.067 -23.558)" fill="#375a64"/>
                  <path id="Trazado_205185" data-name="Trazado 205185" d="M336.323,231.4a3.259,3.259,0,0,1-.651.372c-.427.224-1.06.517-1.854.852a38.49,38.49,0,0,1-13.088,2.931c-.862.036-1.559.04-2.04.02a3.231,3.231,0,0,1-.747-.059,3.243,3.243,0,0,1,.746-.071c.479-.02,1.173-.06,2.027-.125a45.813,45.813,0,0,0,13.015-2.914c.8-.3,1.445-.564,1.888-.75a3.278,3.278,0,0,1,.7-.254" transform="translate(-35.257 -25.66)" fill="#375a64"/>
                  <path id="Trazado_205186" data-name="Trazado 205186" d="M350.5,241.116a12.519,12.519,0,0,0-5.276,5.845,3.1,3.1,0,0,1,.346-1.146,9.145,9.145,0,0,1,3.826-4.238,3.111,3.111,0,0,1,1.1-.461" transform="translate(-38.281 -26.737)" fill="#375a64"/>
                  <path id="Trazado_205187" data-name="Trazado 205187" d="M363.918,252.824a12.273,12.273,0,0,1,3.351-6.119c.077.064-.909,1.287-1.827,2.976s-1.428,3.173-1.524,3.143" transform="translate(-40.354 -27.357)" fill="#375a64"/>
                  <path id="Trazado_205188" data-name="Trazado 205188" d="M342.7,183.854a62.007,62.007,0,0,1-8.931,1.615,61.679,61.679,0,0,1,8.931-1.615" transform="translate(-37.012 -20.386)" fill="#375a64"/>
                  <path id="Trazado_205189" data-name="Trazado 205189" d="M376.055,185.209a114.227,114.227,0,0,1-12.263-1.455,114.91,114.91,0,0,1,12.263,1.455" transform="translate(-40.341 -20.375)" fill="#375a64"/>
                  <path id="Trazado_205190" data-name="Trazado 205190" d="M375.655,201.07a1.711,1.711,0,0,1-.393.026l-1.126.009L370,201.1c-3.494,0-8.32.027-13.649.162s-10.153.357-13.642.54l-4.133.218-1.124.049a1.783,1.783,0,0,1-.394-.005,1.709,1.709,0,0,1,.389-.062l1.12-.111c.974-.092,2.384-.2,4.127-.324,3.488-.243,8.313-.5,13.648-.637s10.164-.128,13.66-.065c1.747.031,3.162.07,4.139.111l1.125.053a1.725,1.725,0,0,1,.391.042" transform="translate(-37.376 -22.269)" fill="#375a64"/>
                  <path id="Trazado_205191" data-name="Trazado 205191" d="M376.295,220.993c.006.092-8.223.709-18.379,1.377s-18.4,1.136-18.4,1.044,8.222-.708,18.381-1.376,18.394-1.136,18.4-1.045" transform="translate(-37.649 -24.505)" fill="#375a64"/>
                  <path id="Trazado_205192" data-name="Trazado 205192" d="M377.587,238.517a3.283,3.283,0,0,1-.693.3c-.453.171-1.113.4-1.936.669-1.643.537-3.937,1.21-6.5,1.828s-4.918,1.06-6.626,1.328c-.854.134-1.547.23-2.028.284a3.352,3.352,0,0,1-.751.052,3.3,3.3,0,0,1,.732-.18l2.007-.388c1.694-.327,4.029-.806,6.588-1.42s4.855-1.251,6.513-1.73l1.964-.566a3.26,3.26,0,0,1,.733-.172" transform="translate(-39.816 -26.449)" fill="#375a64"/>
                  <path id="Trazado_205193" data-name="Trazado 205193" d="M393.2,206.751a116.155,116.155,0,0,1-12.034,3.112,115.729,115.729,0,0,1,12.034-3.112" transform="translate(-42.268 -22.926)" fill="#375a64"/>
                  <path id="Trazado_205194" data-name="Trazado 205194" d="M386.975,193.3a22.337,22.337,0,0,1-5.355.964,22.245,22.245,0,0,1,5.355-.964" transform="translate(-42.318 -21.432)" fill="#375a64"/>
                  <path id="Trazado_205195" data-name="Trazado 205195" d="M335.461,196.019c-.065.012-.163-1.062-.749-2.672A13.466,13.466,0,0,0,325.2,184.8c-1.663-.41-2.74-.393-2.736-.459a2.85,2.85,0,0,1,.752-.028,11.617,11.617,0,0,1,2.037.258,13.03,13.03,0,0,1,9.678,8.7,11.5,11.5,0,0,1,.473,2,2.867,2.867,0,0,1,.052.751" transform="translate(-35.759 -20.438)" fill="#1a2e35"/>
                  <path id="Trazado_205196" data-name="Trazado 205196" d="M379.114,187.883a53.318,53.318,0,0,1,1.105,5.85,53.088,53.088,0,0,1,.775,5.9,53.325,53.325,0,0,1-1.1-5.851,53.425,53.425,0,0,1-.776-5.9" transform="translate(-42.039 -20.835)" fill="#1a2e35"/>
                  <path id="Trazado_205197" data-name="Trazado 205197" d="M417.744,293.956s24.11,6.673,25.077,7.013c1.452.511,1.208,5.833-1.052,5.75-1.07-.039-18.519.65-20.724.512s-8.856-2.759-8.856-2.759Z" transform="translate(-45.708 -32.597)" fill="#feca2e"/>
                  <path id="Trazado_205198" data-name="Trazado 205198" d="M429.727,303.7a10.583,10.583,0,0,1,2.767-4.808,5.36,5.36,0,0,0-2.767,4.808" transform="translate(-47.648 -33.144)" fill="#1a2e35"/>
                  <path id="Trazado_205199" data-name="Trazado 205199" d="M426.9,302.446c.118.02.363-1.119,1-2.378s1.4-2.141,1.313-2.224a6.048,6.048,0,0,0-2.317,4.6" transform="translate(-47.335 -33.028)" fill="#1a2e35"/>
                  <path id="Trazado_205200" data-name="Trazado 205200" d="M424.234,301.711a8.462,8.462,0,0,1,1.877-4.8,4.526,4.526,0,0,0-1.877,4.8" transform="translate(-47.026 -32.924)" fill="#1a2e35"/>
                  <path id="Trazado_205201" data-name="Trazado 205201" d="M424.5,298.109a4.275,4.275,0,0,0,.259-1.794,8.461,8.461,0,0,0-.245-1.966,8.335,8.335,0,0,0-.358-1.119,1.344,1.344,0,0,0-.387-.59.643.643,0,0,0-.828.041,1.061,1.061,0,0,0-.321.682,4.723,4.723,0,0,0-.032.637,5.315,5.315,0,0,0,.149,1.18,7.141,7.141,0,0,0,.742,1.843,4.847,4.847,0,0,0,1.084,1.452c.055-.038-.349-.6-.83-1.583a7.879,7.879,0,0,1-.632-1.792,5.259,5.259,0,0,1-.116-1.1c.011-.371.005-.834.222-1.012a.234.234,0,0,1,.319-.027,1.023,1.023,0,0,1,.264.421,9.041,9.041,0,0,1,.365,1.063,9.693,9.693,0,0,1,.318,1.883c.071,1.092-.039,1.774.027,1.784" transform="translate(-46.861 -32.436)" fill="#1a2e35"/>
                  <path id="Trazado_205202" data-name="Trazado 205202" d="M424.1,298.5a3.369,3.369,0,0,0-1.556-.251,6.982,6.982,0,0,0-1.71.21,3.7,3.7,0,0,0-.985.363,1.017,1.017,0,0,0-.546,1.1,1.2,1.2,0,0,0,.869.861,2.208,2.208,0,0,0,1.081,0,4.136,4.136,0,0,0,1.567-.771,4.221,4.221,0,0,0,1.121-1.1,10.55,10.55,0,0,0-1.285.87,4.269,4.269,0,0,1-1.479.64,1.9,1.9,0,0,1-.894-.012.818.818,0,0,1-.587-.573.622.622,0,0,1,.358-.673,3.635,3.635,0,0,1,.876-.341,8.1,8.1,0,0,1,1.624-.285c.943-.066,1.535.031,1.545-.034" transform="translate(-46.494 -33.073)" fill="#1a2e35"/>
                  <path id="Trazado_205203" data-name="Trazado 205203" d="M433.877,304.085a6.511,6.511,0,0,1,1.656-4.061,3.458,3.458,0,0,0-1.656,4.061" transform="translate(-48.092 -33.269)" fill="#1a2e35"/>
                  <path id="Trazado_205204" data-name="Trazado 205204" d="M414.979,305.844a4.98,4.98,0,0,0,.933.438,20.624,20.624,0,0,0,2.682.832,38.3,38.3,0,0,0,9.2.872c3.613-.04,6.869-.2,9.231-.3l2.794-.148a4.94,4.94,0,0,0,1.022-.109,5.1,5.1,0,0,0-1.028-.047l-2.8.02-9.224.181a43.162,43.162,0,0,1-9.14-.747c-2.3-.474-3.651-1.067-3.678-.992" transform="translate(-46.017 -33.915)" fill="#1a2e35"/>
                  <path id="Trazado_205205" data-name="Trazado 205205" d="M414.177,306.207c.033.056.693-.33,1.807-.818a8.393,8.393,0,0,1,4.562-.759,7.226,7.226,0,0,1,3.943,2.346,14.155,14.155,0,0,0,1.39,1.419,7.5,7.5,0,0,0-1.18-1.613,9.571,9.571,0,0,0-1.6-1.495,5.734,5.734,0,0,0-2.491-1.056,7.974,7.974,0,0,0-4.746.9,6.385,6.385,0,0,0-1.686,1.077" transform="translate(-45.928 -33.728)" fill="#1a2e35"/>
                  <path id="Trazado_205206" data-name="Trazado 205206" d="M383.338,287.661s-22.815,14.938-23.633,15.556c-1.229.928.181,5.349,2.308,4.583,1.007-.362,20.152-5.688,22.21-6.489s7.6-5.319,7.6-5.319Z" transform="translate(-39.837 -31.899)" fill="#feca2e"/>
                  <path id="Trazado_205207" data-name="Trazado 205207" d="M378.212,300.481a5.359,5.359,0,0,0-4.1-3.74,10.572,10.572,0,0,1,4.1,3.74" transform="translate(-41.486 -32.904)" fill="#1a2e35"/>
                  <path id="Trazado_205208" data-name="Trazado 205208" d="M380.577,298.409a6.041,6.041,0,0,0-3.605-3.681c-.058.1.942.7,1.926,1.72s1.574,2.017,1.68,1.961" transform="translate(-41.803 -32.681)" fill="#1a2e35"/>
                  <path id="Trazado_205209" data-name="Trazado 205209" d="M382.933,296.887a4.526,4.526,0,0,0-3.246-4,8.458,8.458,0,0,1,3.246,4" transform="translate(-42.104 -32.476)" fill="#1a2e35"/>
                  <path id="Trazado_205210" data-name="Trazado 205210" d="M381.669,293.485c.06-.029-.253-.646-.517-1.707a9.662,9.662,0,0,1-.268-1.891,8.92,8.92,0,0,1,.025-1.125,1.019,1.019,0,0,1,.124-.481.234.234,0,0,1,.312-.072c.26.1.4.547.519.9a5.319,5.319,0,0,1,.223,1.085,7.879,7.879,0,0,1-.058,1.9c-.16,1.084-.374,1.741-.31,1.761a4.859,4.859,0,0,0,.591-1.712,7.2,7.2,0,0,0,.148-1.982,5.32,5.32,0,0,0-.217-1.17,4.711,4.711,0,0,0-.223-.6,1.064,1.064,0,0,0-.513-.552.643.643,0,0,0-.8.213,1.341,1.341,0,0,0-.188.68,8.438,8.438,0,0,0,.362,3.123,4.284,4.284,0,0,0,.791,1.631" transform="translate(-42.193 -31.912)" fill="#1a2e35"/>
                  <path id="Trazado_205211" data-name="Trazado 205211" d="M381.764,293.793c.029.059.564-.213,1.483-.437a8.1,8.1,0,0,1,1.634-.223,3.645,3.645,0,0,1,.936.06.622.622,0,0,1,.546.532.818.818,0,0,1-.385.725,1.9,1.9,0,0,1-.848.284,4.278,4.278,0,0,1-1.6-.161,10.437,10.437,0,0,0-1.487-.438,4.243,4.243,0,0,0,1.4.71,4.157,4.157,0,0,0,1.727.259,2.217,2.217,0,0,0,1.031-.326,1.2,1.2,0,0,0,.565-1.084,1.017,1.017,0,0,0-.854-.884,3.766,3.766,0,0,0-1.048-.047,7.011,7.011,0,0,0-1.694.32,3.384,3.384,0,0,0-1.406.711" transform="translate(-42.334 -32.463)" fill="#1a2e35"/>
                  <path id="Trazado_205212" data-name="Trazado 205212" d="M365.327,308.672c.026.036.384-.231.558-.884a3.367,3.367,0,0,0-.428-2.476,9.018,9.018,0,0,0-.764-1.139,4.222,4.222,0,0,0-.774-.831,1.355,1.355,0,0,0-.729-.3c-.191-.008-.288.038-.285.062a2.142,2.142,0,0,1,.83.461,5.133,5.133,0,0,1,.658.832,12.748,12.748,0,0,1,.711,1.114,3.523,3.523,0,0,1,.5,2.225c-.083.59-.332.9-.278.942" transform="translate(-40.243 -33.604)" fill="#1a2e35"/>
                  <path id="Trazado_205213" data-name="Trazado 205213" d="M374.49,302.069a3.459,3.459,0,0,0-2.811-3.367,6.5,6.5,0,0,1,2.811,3.367" transform="translate(-41.216 -33.121)" fill="#1a2e35"/>
                  <path id="Trazado_205214" data-name="Trazado 205214" d="M389.655,297.938a8.131,8.131,0,0,0-1,.688,28.748,28.748,0,0,1-2.813,1.724,37.022,37.022,0,0,1-4.468,1.988c-1.728.645-3.665,1.252-5.714,1.846-4.1,1.182-7.821,2.263-10.5,3.069l-3.171.974a6.888,6.888,0,0,0-1.147.41,7,7,0,0,0,1.191-.26l3.205-.85c2.7-.736,6.427-1.772,10.536-2.955,2.053-.595,4-1.217,5.734-1.886a33.638,33.638,0,0,0,4.474-2.087,22.559,22.559,0,0,0,2.769-1.847,6.263,6.263,0,0,0,.909-.814" transform="translate(-40.014 -33.039)" fill="#1a2e35"/>
                  <path id="Trazado_205215" data-name="Trazado 205215" d="M392.892,298.2a6.367,6.367,0,0,0-1.933-.514,7.979,7.979,0,0,0-4.795.585,5.721,5.721,0,0,0-2.053,1.763,9.548,9.548,0,0,0-1.069,1.91,7.494,7.494,0,0,0-.635,1.895,14.046,14.046,0,0,0,.893-1.775,7.227,7.227,0,0,1,3.045-3.432,8.4,8.4,0,0,1,4.577-.663c1.209.127,1.955.294,1.969.231" transform="translate(-42.405 -32.997)" fill="#1a2e35"/>
                  <path id="Trazado_205216" data-name="Trazado 205216" d="M431.59,245.492a10.927,10.927,0,0,1,6.873,10.119c.055,14.7-29.7,30.9-29.7,30.9l-39.6-26.238-2.482-1s53.456-20.081,64.911-13.78" transform="translate(-40.661 -27.087)" fill="#1a2e35"/>
                  <path id="Trazado_205217" data-name="Trazado 205217" d="M392.032,274.607a7.3,7.3,0,0,0,1.031-.7c.649-.47,1.576-1.168,2.708-2.045,2.268-1.752,5.352-4.237,8.671-7.084s6.241-5.524,8.316-7.5c1.038-.988,1.868-1.8,2.431-2.368a7.27,7.27,0,0,0,.847-.914,7.375,7.375,0,0,0-.955.8l-2.517,2.273c-2.123,1.92-5.071,4.557-8.384,7.4s-6.365,5.359-8.585,7.167l-2.627,2.145a7.422,7.422,0,0,0-.935.823" transform="translate(-43.473 -28.166)" fill="#375a64"/>
                  <path id="Trazado_205218" data-name="Trazado 205218" d="M426.214,251.813A9.809,9.809,0,0,0,419,253.94c.066.1,1.51-.815,3.508-1.394,1.991-.6,3.7-.61,3.7-.734" transform="translate(-46.464 -27.913)" fill="#375a64"/>
                  <path id="Trazado_205219" data-name="Trazado 205219" d="M422.827,249.218a6.014,6.014,0,0,0-3.58,4.433c.115.04.548-1.194,1.546-2.414.982-1.232,2.1-1.915,2.033-2.019" transform="translate(-46.489 -27.635)" fill="#375a64"/>
                  <path id="Trazado_205220" data-name="Trazado 205220" d="M441.859,301.566c.021-.046-.472-.141-1.021.309a3.7,3.7,0,0,0-1.144,2.3,4.513,4.513,0,0,0,.361,2.535c.28.6.589.884.622.855.055-.037-.162-.372-.358-.962a5.155,5.155,0,0,1-.226-2.371,3.976,3.976,0,0,1,.936-2.144c.421-.44.838-.457.83-.521" transform="translate(-48.753 -33.436)" fill="#1a2e35"/>
                  <path id="Trazado_205221" data-name="Trazado 205221" d="M426.844,221.724l-11.266,30.348a4.374,4.374,0,0,1-4.157,2.851l-62.014-.816v-4.712l23.011.84,9.77-30.293a2.472,2.472,0,0,1,2.361-1.713l40,.116a2.472,2.472,0,0,1,2.293,3.38" transform="translate(-38.746 -24.2)" fill="#e1e1e1"/>
                  <path id="Trazado_205222" data-name="Trazado 205222" d="M426.832,221.713s.007-.033.027-.1a2.6,2.6,0,0,0,.076-.283,2.419,2.419,0,0,0-.025-1.14,2.468,2.468,0,0,0-1.089-1.466,2.4,2.4,0,0,0-1.126-.356c-.428-.02-.89-.005-1.377-.01l-16.689-.02-11.693-.022-6.57-.013-3.452-.008a2.722,2.722,0,0,0-1.651.363,2.412,2.412,0,0,0-1.026,1.35l-9.739,30.24-.023.07-.074,0-23.011-.838.1-.1V254.1l-.1-.1,39,.523,16.951.232,3.908.054,1.9.027a4.534,4.534,0,0,0,1.8-.263,4.291,4.291,0,0,0,2.485-2.393l1.21-3.235c3.144-8.429,5.681-15.235,7.437-19.944l2.026-5.406c.465-1.234.718-1.878.718-1.878s-.229.654-.681,1.892-1.129,3.07-1.992,5.418c-1.742,4.715-4.26,11.528-7.378,19.967l-1.207,3.241a4.438,4.438,0,0,1-2.567,2.48,4.681,4.681,0,0,1-1.857.276l-1.9-.023-3.907-.049-16.952-.213-39-.505h-.1V249.28l.1,0,23.011.843-.1.068c3.516-10.887,6.807-21.075,9.764-30.232a2.581,2.581,0,0,1,1.1-1.439,2.9,2.9,0,0,1,1.74-.386l3.451.012,6.57.025,11.693.045,16.689.077c.489.007.946,0,1.381.018a2.464,2.464,0,0,1,1.15.372,2.5,2.5,0,0,1,1.1,1.5,2.4,2.4,0,0,1,.009,1.151,2.594,2.594,0,0,1-.121.374" transform="translate(-38.734 -24.189)" fill="#1a2e35"/>
                  <path id="Trazado_205223" data-name="Trazado 205223" d="M405.429,235.028a2.787,2.787,0,0,1,3.014.322,2.436,2.436,0,0,1,.59,2.671,2.642,2.642,0,0,1-2.265,1.582,2.38,2.38,0,0,1-2.393-1.581,2.673,2.673,0,0,1,1.054-2.994" transform="translate(-44.83 -26.028)" fill="#fff"/>
                  <path id="Trazado_205224" data-name="Trazado 205224" d="M410.664,288.566s-55.888-35.8-58.355-37.2c-2.1-1.195-7.713-4.652-13.25-3.124s-10.5,6.49-12.982,13.746c-1.418,4.144-2.088,11.217-2.4,16.52a24.512,24.512,0,0,0,5.736,17.475,15.636,15.636,0,0,0,6.976,4.952c.583.181,1.188.338,1.808.473a26.314,26.314,0,0,0,27.393-11.5l1.305-1.986s36.6,13.446,37.174,13.256Z" transform="translate(-35.888 -27.485)" fill="#1a2e35"/>
                  <path id="Trazado_205225" data-name="Trazado 205225" d="M355.162,253.33a.6.6,0,0,1-.141-.082l-.39-.268c-.342-.236-.846-.586-1.511-1.012a29.5,29.5,0,0,0-5.935-3.016,15.931,15.931,0,0,0-4.47-.942,12.85,12.85,0,0,0-5.142.838,16.622,16.622,0,0,0-4.941,3A22.763,22.763,0,0,0,330.44,254a16.039,16.039,0,0,0-1.815,2.582,26.462,26.462,0,0,0-2.411,5.758c-.526,1.95-.949,3.877-1.35,5.695a52.044,52.044,0,0,0-1.287,9.805,35.545,35.545,0,0,0,.509,6.647c.122.78.261,1.377.345,1.784.036.188.067.341.092.464a.6.6,0,0,1,.02.162.64.64,0,0,1-.053-.153c-.033-.122-.073-.273-.124-.458-.1-.4-.264-1-.407-1.776a33.32,33.32,0,0,1-.616-6.673,50.716,50.716,0,0,1,1.222-9.866c.4-1.832.807-3.743,1.336-5.721a26.526,26.526,0,0,1,2.436-5.834,16.327,16.327,0,0,1,1.854-2.634,22.839,22.839,0,0,1,2.232-2.185,16.8,16.8,0,0,1,5.045-3.036,13.062,13.062,0,0,1,5.264-.828,16.021,16.021,0,0,1,4.536,1,27.99,27.99,0,0,1,5.926,3.129c.656.445,1.149.812,1.479,1.066l.372.294c.083.068.124.1.12.109" transform="translate(-35.856 -27.47)" fill="#375a64"/>
                  <path id="Trazado_205226" data-name="Trazado 205226" d="M343.667,278.77s.1.052.307.136l.916.363,3.548,1.366,13.182,4.967c5.6,2.089,12.307,4.573,19.832,7.311s15.867,5.739,24.773,8.755l.162.054.08-.152,4.371-8.347c.764-1.459,1.52-2.907,2.228-4.257l.085-.164-.155-.1L370.317,261.61l-12.82-8.086-3.482-2.173-.909-.556c-.206-.124-.316-.178-.316-.178s.1.077.3.212l.888.589,3.443,2.234,12.752,8.192,42.608,27.2-.068-.262-2.229,4.256-4.368,8.35.241-.1c-8.9-3.008-17.247-6-24.779-8.711l-19.861-7.228L348.488,280.5l-3.572-1.3-.929-.329c-.21-.072-.32-.1-.32-.1" transform="translate(-38.11 -27.791)" fill="#375a64"/>
                  <path id="Trazado_205227" data-name="Trazado 205227" d="M346.565,145.329a28.821,28.821,0,0,1-2.483-5.941,9.688,9.688,0,0,1,.331-6.323c.521-1.145,1.339-2.149,1.747-3.339.562-1.638.332-3.569,1.346-4.973,1.583-2.193,4.975-1.681,7.424-2.83,1.907-.894,3.24-2.824,5.247-3.467a7.816,7.816,0,0,1,5.356.7,20.217,20.217,0,0,0,5.168,1.887,36.257,36.257,0,0,0,3.933.011,5.183,5.183,0,0,1,3.629,1.251,2.492,2.492,0,0,1,.117,3.5c2.3-.389,4.458,1.9,4.428,4.229a6.332,6.332,0,0,1-3.9,5.346,13.873,13.873,0,0,1-6.856.85c-6.571-.511-13.174-3.01-17.648-7.85" transform="translate(-38.114 -13.11)" fill="#6d5415"/>
                  <path id="Trazado_205228" data-name="Trazado 205228" d="M347.944,137.7l-4.477,32.537a9.77,9.77,0,1,0,19.359,2.649c.334-2.449.619-4.492.669-4.742,0,0,8.39.361,10.116-7.755.834-3.922,1.895-12.14,2.768-19.585a15.455,15.455,0,0,0-12.328-16.947l-.784-.157c-8.564-1.2-14.364,5.408-15.324,14" transform="translate(-38.077 -13.701)" fill="#ffc09d"/>
                  <path id="Trazado_205229" data-name="Trazado 205229" d="M364.8,172.934a19.3,19.3,0,0,1-10-5.133s1.337,6.355,9.6,7.244Z" transform="translate(-39.344 -18.608)" fill="#ff9b6c"/>
                  <path id="Trazado_205230" data-name="Trazado 205230" d="M376.1,150.57a1.184,1.184,0,0,1-1.354.949,1.134,1.134,0,0,1-.989-1.287,1.185,1.185,0,0,1,1.353-.95,1.135,1.135,0,0,1,.99,1.288" transform="translate(-41.445 -16.553)" fill="#1a2e35"/>
                  <path id="Trazado_205231" data-name="Trazado 205231" d="M377.062,146.834c-.174.123-.924-.705-2.176-.951-1.246-.264-2.292.2-2.4.016-.052-.082.148-.325.606-.536a3.244,3.244,0,0,1,1.956-.2,3.119,3.119,0,0,1,1.694.946c.325.372.4.672.317.726" transform="translate(-41.305 -16.09)" fill="#1a2e35"/>
                  <path id="Trazado_205232" data-name="Trazado 205232" d="M362.984,148.306a1.184,1.184,0,0,1-1.354.949,1.133,1.133,0,0,1-.989-1.287,1.185,1.185,0,0,1,1.354-.949,1.133,1.133,0,0,1,.989,1.287" transform="translate(-39.99 -16.302)" fill="#1a2e35"/>
                  <path id="Trazado_205233" data-name="Trazado 205233" d="M363.188,144.334c-.174.123-.926-.705-2.176-.951-1.246-.264-2.292.2-2.4.016-.053-.082.147-.325.606-.536a3.243,3.243,0,0,1,1.956-.2,3.123,3.123,0,0,1,1.694.946c.325.372.4.672.316.726" transform="translate(-39.766 -15.813)" fill="#1a2e35"/>
                  <path id="Trazado_205234" data-name="Trazado 205234" d="M366.778,154.686a8.436,8.436,0,0,1,2.1.039c.326.031.641.028.738-.18a1.65,1.65,0,0,0-.024-.989q-.219-1.248-.458-2.619a42.568,42.568,0,0,1-.85-6.783,42.649,42.649,0,0,1,1.393,6.7q.219,1.375.416,2.626a1.884,1.884,0,0,1-.084,1.286.816.816,0,0,1-.619.362,2.165,2.165,0,0,1-.557-.033,8.311,8.311,0,0,1-2.059-.408" transform="translate(-40.672 -15.985)" fill="#1a2e35"/>
                  <path id="Trazado_205235" data-name="Trazado 205235" d="M362.4,156.145c.205.028-.063,1.386.906,2.582s2.444,1.335,2.417,1.527c0,.089-.375.2-.989.093a3.443,3.443,0,0,1-2.033-1.2,3,3,0,0,1-.673-2.147c.062-.578.28-.884.372-.857" transform="translate(-40.144 -17.315)" fill="#1a2e35"/>
                  <path id="Trazado_205236" data-name="Trazado 205236" d="M364.5,138.923c-.191.316-1.407-.1-2.909-.212-1.5-.147-2.769.047-2.9-.3-.057-.164.212-.442.757-.676a5.076,5.076,0,0,1,4.428.388c.5.325.713.646.628.8" transform="translate(-39.774 -15.237)" fill="#6d5415"/>
                  <path id="Trazado_205237" data-name="Trazado 205237" d="M377.4,142.654c-.276.24-1.079-.227-2.112-.447-1.025-.258-1.951-.192-2.094-.529-.06-.162.135-.419.573-.611a3.124,3.124,0,0,1,3.388.787c.308.365.369.681.244.8" transform="translate(-41.383 -15.62)" fill="#6d5415"/>
                  <path id="Trazado_205238" data-name="Trazado 205238" d="M347.122,146.3c-.126-.088-5.26-2.77-6.194,2.827s4.879,5.38,4.915,5.222,1.279-8.049,1.279-8.049" transform="translate(-37.795 -16.143)" fill="#ffc09d"/>
                  <path id="Trazado_205239" data-name="Trazado 205239" d="M344.671,152.158c-.021-.022-.109.052-.286.1a.994.994,0,0,1-.732-.107,2.448,2.448,0,0,1-.755-2.352,3.254,3.254,0,0,1,.506-1.351,1.143,1.143,0,0,1,.858-.626.5.5,0,0,1,.531.364c.049.169-.005.275.023.289.013.017.136-.074.129-.312a.629.629,0,0,0-.162-.388.742.742,0,0,0-.516-.232,1.388,1.388,0,0,0-1.163.7,3.355,3.355,0,0,0-.6,1.5,2.568,2.568,0,0,0,1.019,2.655,1.059,1.059,0,0,0,.917,0c.2-.109.247-.229.229-.243" transform="translate(-37.977 -16.361)" fill="#ff9b6c"/>
                  <path id="Trazado_205240" data-name="Trazado 205240" d="M378.413,133.1c-.961,2.069-5.9,2.867-9.521,1.775-3.338-1.007-4.548-3.126-6.672-4.973-1.344-1.169-1.344-1.169-3.536-1.4-1.772-.183-3.195,1.582-4.534,2.755.746,4.449-1.232,8.853-3.161,12.931a2.252,2.252,0,0,1-.9,1.154c-.759.374-1.665-.218-2.119-.933a7,7,0,0,1-.785-3.928,23.338,23.338,0,0,1,1.856-9.012,15.887,15.887,0,0,1,5.852-7.007,15.051,15.051,0,0,1,11.133-1.843,18.477,18.477,0,0,1,9.761,5.858,10.828,10.828,0,0,1,2.629,4.617" transform="translate(-38.499 -13.559)" fill="#6d5415"/>
                  <path id="Trazado_205241" data-name="Trazado 205241" d="M369.5,148.973c.048,0,.031-.483.255-1.3a5.4,5.4,0,0,1,1.981-2.877,5.266,5.266,0,0,1,4.954-.713A5.162,5.162,0,0,1,379.1,145.9a5.186,5.186,0,0,1,0,6.14,5.157,5.157,0,0,1-2.409,1.821,5.266,5.266,0,0,1-4.954-.713,5.4,5.4,0,0,1-1.982-2.877c-.223-.818-.206-1.3-.254-1.3a1,1,0,0,0-.028.348,4.22,4.22,0,0,0,.112,1,5.4,5.4,0,0,0,1.959,3.089,5.577,5.577,0,0,0,7.915-1.1,5.589,5.589,0,0,0,0-6.665,5.576,5.576,0,0,0-7.914-1.1,5.394,5.394,0,0,0-1.959,3.088,4.22,4.22,0,0,0-.112,1,1.007,1.007,0,0,0,.028.349" transform="translate(-40.971 -15.898)" fill="#1a2e35"/>
                  <path id="Trazado_205242" data-name="Trazado 205242" d="M354.564,146.366c.048,0,.031-.483.254-1.3a5.408,5.408,0,0,1,1.982-2.877,5.266,5.266,0,0,1,4.954-.713,5.162,5.162,0,0,1,2.409,1.821,5.186,5.186,0,0,1,0,6.14,5.157,5.157,0,0,1-2.409,1.821,5.266,5.266,0,0,1-4.954-.713,5.4,5.4,0,0,1-1.982-2.877c-.223-.818-.206-1.3-.254-1.3a1.006,1.006,0,0,0-.028.348,4.22,4.22,0,0,0,.112,1,5.4,5.4,0,0,0,1.959,3.089,5.577,5.577,0,0,0,7.915-1.1,5.591,5.591,0,0,0,0-6.666,5.577,5.577,0,0,0-7.914-1.1,5.394,5.394,0,0,0-1.959,3.088,4.22,4.22,0,0,0-.112,1,1.009,1.009,0,0,0,.028.349" transform="translate(-39.315 -15.609)" fill="#1a2e35"/>
                  <path id="Trazado_205243" data-name="Trazado 205243" d="M366.87,147.216c.056.113.767-.22,1.6.034s1.24.916,1.351.852c.052-.024.025-.237-.161-.519a1.99,1.99,0,0,0-2.364-.71c-.313.132-.452.294-.421.344" transform="translate(-40.682 -16.271)" fill="#1a2e35"/>
                  <path id="Trazado_205244" data-name="Trazado 205244" d="M346.107,145.416a35.252,35.252,0,0,0,7.967-.112,35.116,35.116,0,0,0-7.967.112" transform="translate(-38.38 -16.093)" fill="#1a2e35"/>
                  <path id="Trazado_205245" data-name="Trazado 205245" d="M383.717,128.444a1.615,1.615,0,0,1-.087.533,2.621,2.621,0,0,1-.839,1.2,3.714,3.714,0,0,1-2.013.824,10.135,10.135,0,0,1-2.67-.14,45.543,45.543,0,0,1-4.75-.959c-.6-.156-1.083-.293-1.415-.4l-.38-.121a.493.493,0,0,1-.129-.052.55.55,0,0,1,.136.026l.388.1,1.423.355c1.2.288,2.878.644,4.746.918a10.333,10.333,0,0,0,2.636.149,3.68,3.68,0,0,0,1.968-.775,2.678,2.678,0,0,0,.849-1.149c.115-.324.12-.519.136-.517" transform="translate(-41.189 -14.243)" fill="#fff"/>
                  <path id="Trazado_205246" data-name="Trazado 205246" d="M385.6,129.873a5.158,5.158,0,0,1-.48,1.531,6.548,6.548,0,0,1-6.313,3.774,5.131,5.131,0,0,1-1.576-.3,3.174,3.174,0,0,1,.422.08,7.123,7.123,0,0,0,1.157.128,6.8,6.8,0,0,0,6.659-4.8,3.169,3.169,0,0,1,.13-.41" transform="translate(-41.832 -14.402)" fill="#fff"/>
                </g>
              </g>
            </g>
          </g>
        </g>
      </g>
    </g>
  </g>
</svg>
