<svg xmlns="http://www.w3.org/2000/svg" width="420" height="320" viewBox="0 0 420 320">
  <g id="Grupo_222406" data-name="Grupo 222406" transform="translate(6569 1900)">
    <g id="Grupo_222405" data-name="Grupo 222405">
      <g id="Grupo_222404" data-name="Grupo 222404">
        <g id="Grupo_222303" data-name="Grupo 222303">
          <rect id="Rectángulo_295927" data-name="Rectángulo 295927" width="420" height="320" transform="translate(-6569 -1900)" fill="none"/>
          <g id="_15" data-name="15" transform="translate(-6528 -1900)">
            <g id="Grupo_221813" data-name="Grupo 221813" transform="translate(25.957 19.947)">
              <path id="Trazado_224828" data-name="Trazado 224828" d="M608.221,449.4a14.454,14.454,0,0,1-5.38-4.2c-2-2.78-2.239-7.819-2.239-7.819V361.444a7,7,0,0,0-7-7H523.3a7,7,0,0,0-7,7v81.019a7,7,0,0,0,7,7H593.6C593.643,449.457,608.221,449.4,608.221,449.4Z" transform="translate(-516.301 -343.269)" fill="#fff"/>
              <path id="Trazado_224829" data-name="Trazado 224829" d="M522.7,362.518s2.347,20.622,4.594,22.969,7.232,4.084,12.24,3.881,5.829-31.136,5.829-31.136Z" transform="translate(-498.175 -332.54)" fill="#773128"/>
              <path id="Trazado_224830" data-name="Trazado 224830" d="M585.46,440.333H518.8s0-2.784,2.143-12.378,5.023-16.024,9.5-18.486c2.623-1.407,9.019-4.352,13.942-6.557,2.178-.959,4.03-1.791,5.15-2.3.736-.318,1.154-.51,1.154-.51l-.1-4.958c-4.414-1.377-7.424-3.838-9.022-7.612-.127-.226-.157-.353-.223-.479a19.785,19.785,0,0,1-1.12-3.424s-3.808.322-5.437-1.472-1.917-5.05-1.089-6.427c1.346-2.143,5.215-2.174,5.437-2.174l-.253-4.7-.13-2.561c.544-2.143,1.346-5.18,2.113-7.964l19.671-1.215,7.194,4.64s.2,3.294.288,7.546c.2,6.749.2,15.994-.959,18.586a12.283,12.283,0,0,1-9.337,7.45l.192,4.54s.575.257,1.5.736c4.222,2.048,15.928,8.029,18.294,11.515C580.567,416.409,585.46,440.333,585.46,440.333Z" transform="translate(-509.204 -335.72)" fill="#f9c0b9"/>
              <path id="Trazado_224831" data-name="Trazado 224831" d="M527.959,364.352l4.958.978s-2.308,2.868-3.321,2.343S527.959,364.352,527.959,364.352Z" transform="translate(-483.257 -315.19)" fill="#fff"/>
              <path id="Trazado_224832" data-name="Trazado 224832" d="M524.01,366.289c.544-2.143,1.346-5.18,2.113-7.964l19.671-1.215,7.194,4.64s.2,3.294.291,7.546c-3.2-2.27-7.232-2.588-10.077-3.2a60.643,60.643,0,0,1-12.156-4.157,13.261,13.261,0,0,1-2.427,4.222,11.9,11.9,0,0,1-4.478,2.688Z" transform="translate(-494.45 -335.72)" fill="#d87360"/>
              <path id="Trazado_224833" data-name="Trazado 224833" d="M537.386,376.654s7.63,4.176,15.514,4.045,15.695-4.739,12.535-13.5c-3.555-9.855-12.711-9.118-12.711-9.118s-1.346-6.173-6.772-6.526a8.75,8.75,0,0,0-9.517,6.684,7.96,7.96,0,0,0-7.8,2.182c-2.65,2.673-.8,9.352-.8,9.352s-5.783.529-6.093,4.31c-.487,5.9,2.88,10.5,8.463,8.478C534.326,381.072,537.386,376.654,537.386,376.654Z" transform="translate(-500.992 -351.531)" fill="#a54d3c"/>
              <path id="Trazado_224834" data-name="Trazado 224834" d="M529.306,371.352a.4.4,0,0,1-.111-.786c.019,0,2.19-.652,2.159-2.059a1.542,1.542,0,0,0-.813-1.411,2.907,2.907,0,0,1-1.1-1.285,12.048,12.048,0,0,1-.379-4.164.393.393,0,0,1,.426-.372.4.4,0,0,1,.368.429,11.68,11.68,0,0,0,.326,3.8,2.217,2.217,0,0,0,.84.951,2.3,2.3,0,0,1,1.131,2.032c.042,2.021-2.627,2.811-2.738,2.845A.6.6,0,0,1,529.306,371.352Z" transform="translate(-480.577 -323.915)" fill="#d87360"/>
              <path id="Trazado_224835" data-name="Trazado 224835" d="M527.238,364.886a.408.408,0,0,1-.341-.188,2.3,2.3,0,0,0-2.96-1.2.407.407,0,0,1-.533-.192.4.4,0,0,1,.192-.533,3.124,3.124,0,0,1,3.98,1.5.4.4,0,0,1-.13.548A.368.368,0,0,1,527.238,364.886Z" transform="translate(-496.279 -320.31)" fill="#d87360"/>
              <path id="Trazado_224836" data-name="Trazado 224836" d="M526.1,362.928a8.3,8.3,0,0,1,2.5-2.105c1.446-.617,3.405-.92,3.85-.625s.817,1.837.817,1.837a8.249,8.249,0,0,0-3.048-.2A20.18,20.18,0,0,0,526.1,362.928Z" transform="translate(-488.523 -327.287)" fill="#773128"/>
              <path id="Trazado_224837" data-name="Trazado 224837" d="M529.578,361.759s.284-1.641,1.208-1.676a6.946,6.946,0,0,1,3.513,1.223,3.1,3.1,0,0,1,1.154,1.672,8.131,8.131,0,0,0-2.9-1.223A11.756,11.756,0,0,0,529.578,361.759Z" transform="translate(-478.667 -327.295)" fill="#773128"/>
              <path id="Trazado_224838" data-name="Trazado 224838" d="M529.195,363.374c0,.939-.471,1.7-1.054,1.7s-1.055-.763-1.055-1.7.472-1.7,1.055-1.7S529.195,362.434,529.195,363.374Z" transform="translate(-485.731 -322.789)" fill="#773128"/>
              <path id="Trazado_224839" data-name="Trazado 224839" d="M532.086,363.374c0,.939-.472,1.7-1.054,1.7s-1.055-.763-1.055-1.7.472-1.7,1.055-1.7S532.086,362.434,532.086,363.374Z" transform="translate(-477.536 -322.789)" fill="#773128"/>
              <path id="Trazado_224840" data-name="Trazado 224840" d="M541.891,375.731l-5.054,2.078v3.631l-8.286,1.871c3.551-1.6,6.3-2.814,6.3-2.814l-.1-4.958c-4.414-1.377-7.424-3.838-9.023-7.612-.127-.226-.157-.353-.223-.479a19.77,19.77,0,0,1-1.12-3.424c2.209,5.437,4.061,7.263,6.492,8.635a22.079,22.079,0,0,0,7.945,2.876A25.263,25.263,0,0,0,541.891,375.731Z" transform="translate(-493.362 -316.12)" fill="#d87360"/>
              <path id="Trazado_224841" data-name="Trazado 224841" d="M585.46,408.925H518.8s0-4.364,2.143-13.958,5.023-16.024,9.5-18.486c2.623-1.407,4.548-2.328,9.475-4.532,2.174-.962,3.347-1.515,4.467-2.025,0,0,6.407,5.426,11.561,5.426,4.594,0,5.69-6.6,5.69-6.6,4.222,2.048,13.712,6.9,16.078,10.388C580.567,383.422,585.46,408.925,585.46,408.925Z" transform="translate(-509.204 -302.733)" fill="#4dd0e1"/>
              <path id="Trazado_224842" data-name="Trazado 224842" d="M535.194,385.638a1.24,1.24,0,0,0,1.235,1.127c1.53.146,3.777-3.539,3.367-5.92s-4.218-.752-4.218-.752-.2-2.243-1.771-2.515-3.536,1.327-3.536,1.327a3.017,3.017,0,0,0-2.485-.648c-1.361.341-1.994,2.044-1.994,2.044s-1.491-1.772-3.09-.767A2.064,2.064,0,0,0,522,382a12.163,12.163,0,0,0,1.5,3.1c.625,1.032.985,1.292,1.392,1.331.794.073,1.07-.89,1.07-.89a2.476,2.476,0,0,0,1.791,1.043,4.121,4.121,0,0,0,2.519-.633,2.906,2.906,0,0,0,2.04.951A10.969,10.969,0,0,0,535.194,385.638Z" transform="translate(-500.53 -277.79)" fill="#f9c0b9"/>
              <path id="Trazado_224843" data-name="Trazado 224843" d="M531.317,385c-.334-1.426-.1-5.257.763-6.327s2.45-1.48,3.267-.613a6.34,6.34,0,0,0,1.277,1.124,3.027,3.027,0,0,1,2.04-1.124,4.391,4.391,0,0,1,2.4.817,7.075,7.075,0,0,1,2.857-.46c1.074.2,2.4-.46,3.317.2s1.024,3.628.46,4.291-2.55.468-3.06.713-2.91,1.277-3.984.92l-1.07-.36a2.655,2.655,0,0,1-2.3,1.584,15.916,15.916,0,0,1-2.554-.257s.054.564-1.223.663A1.932,1.932,0,0,1,531.317,385Z" transform="translate(-474.153 -277.674)" fill="#f9c0b9"/>
            </g>
            <g id="telephone" transform="translate(121.309 6.25)">
              <g id="Grupo_221833" data-name="Grupo 221833" transform="translate(7.083 11.159)">
                <rect id="background" width="108.234" height="208.707" rx="1.77" fill="#fff"/>
                <g id="Grupo_221827" data-name="Grupo 221827" transform="translate(5.542 144.646)">
                  <rect id="Rectángulo_295620" data-name="Rectángulo 295620" width="97.684" height="76.788" rx="1.825" fill="#bddcf6"/>
                  <g id="Grupo_221814" data-name="Grupo 221814" transform="translate(5.541 11.371)">
                    <path id="Trazado_224844" data-name="Trazado 224844" d="M582.63,396.227a1.207,1.207,0,0,1-.751-.265c-.015,0-1.664-.92-9.341-1.649-8.444-.794-25.208,0-25.377.008a1.227,1.227,0,0,1-1.254-1.143,1.2,1.2,0,0,1,1.139-1.258c.694-.031,17.1-.809,25.718.008,8.344.79,10.238,1.856,10.622,2.167a1.2,1.2,0,0,1-.755,2.132Z" transform="translate(-545.906 -391.557)" fill="#fff"/>
                  </g>
                  <g id="Grupo_221815" data-name="Grupo 221815" transform="translate(25.103 12.113)">
                    <path id="Trazado_224845" data-name="Trazado 224845" d="M564.005,399.832c-5.99,0-11.684-4.084-11.684-4.084a3.419,3.419,0,0,1-.648-3.581l13.862,2Z" transform="translate(-549.823 -390.57)" fill="#fff"/>
                    <path id="Trazado_224846" data-name="Trazado 224846" d="M565.19,402.612c-6.431,0-12.366-4.2-12.616-4.383a1.582,1.582,0,0,1-.241-.211,4.978,4.978,0,0,1-.936-5.322,1.646,1.646,0,0,1,1.687-.936l13.862,2.005a1.574,1.574,0,0,1,1.108.706,1.593,1.593,0,0,1,.211,1.3l-1.53,5.664A1.6,1.6,0,0,1,565.19,402.612Zm-10.61-6.883a22.758,22.758,0,0,0,9.4,3.628l.729-2.684-10.426-1.507A1.673,1.673,0,0,0,554.58,395.729Z" transform="translate(-551.007 -391.751)" fill="#fff"/>
                  </g>
                  <g id="Grupo_221816" data-name="Grupo 221816" transform="translate(55.398 12.112)">
                    <path id="Trazado_224847" data-name="Trazado 224847" d="M560.855,399.832c5.986,0,11.684-4.084,11.684-4.084a3.419,3.419,0,0,0,.648-3.581l-13.862,2Z" transform="translate(-557.725 -390.569)" fill="#fff"/>
                    <path id="Trazado_224848" data-name="Trazado 224848" d="M562.038,402.612a1.6,1.6,0,0,1-1.545-1.185l-1.53-5.663a1.606,1.606,0,0,1,1.315-2l13.862-2.005a1.637,1.637,0,0,1,1.691.936,4.979,4.979,0,0,1-.94,5.326C574.4,398.41,568.464,402.612,562.038,402.612Zm.483-5.94.725,2.684a22.787,22.787,0,0,0,9.4-3.628,1.7,1.7,0,0,0,.3-.564Z" transform="translate(-558.908 -391.75)" fill="#fff"/>
                  </g>
                  <g id="Grupo_221817" data-name="Grupo 221817" transform="translate(14.678 22.625)">
                    <path id="Trazado_224849" data-name="Trazado 224849" d="M563.407,404.96a16.061,16.061,0,0,1-5.756-.813c-4.122-1.73-8.888-7.447-9.088-7.692a1.2,1.2,0,0,1,1.848-1.53c.046.057,4.59,5.51,8.167,7.009,2.926,1.235,10.28.361,12.865-.077a1.213,1.213,0,0,1,1.38.982,1.2,1.2,0,0,1-.982,1.384A57.3,57.3,0,0,1,563.407,404.96Z" transform="translate(-548.288 -394.492)" fill="#fff"/>
                  </g>
                  <g id="Grupo_221818" data-name="Grupo 221818" transform="translate(11.139 35.418)">
                    <path id="Trazado_224850" data-name="Trazado 224850" d="M561.444,407.333c-2.968,0-5.617-.257-6.764-1.058a60,60,0,0,1-6.99-6.427,1.2,1.2,0,1,1,1.748-1.641,59.372,59.372,0,0,0,6.618,6.1c1.469,1.031,9.724.7,16.856-.207a1.2,1.2,0,0,1,.3,2.381A105.446,105.446,0,0,1,561.444,407.333Z" transform="translate(-547.365 -397.828)" fill="#fff"/>
                  </g>
                  <g id="Grupo_221819" data-name="Grupo 221819" transform="translate(9.621 49.304)">
                    <path id="Trazado_224851" data-name="Trazado 224851" d="M558.329,410.436a8.229,8.229,0,0,1-2.8-.4c-4.636-1.741-8.171-6.469-8.321-6.672a1.2,1.2,0,0,1,1.929-1.43c.031.046,3.275,4.367,7.236,5.851,3.206,1.208,12.776-1.848,16.189-3.125a1.2,1.2,0,1,1,.843,2.243C572.283,407.322,563.8,410.436,558.329,410.436Z" transform="translate(-546.97 -401.45)" fill="#fff"/>
                  </g>
                  <g id="Grupo_221820" data-name="Grupo 221820" transform="translate(54.343 11.37)">
                    <path id="Trazado_224852" data-name="Trazado 224852" d="M559.819,396.27a1.212,1.212,0,0,1-.936-.46,1.241,1.241,0,0,1,.219-1.714c.383-.311,2.278-1.377,10.622-2.167,8.62-.817,25.02-.042,25.718-.008a1.2,1.2,0,0,1-.119,2.4c-.165-.008-16.926-.8-25.373-.008-7.742.736-9.352,1.664-9.418,1.7A1.127,1.127,0,0,1,559.819,396.27Z" transform="translate(-558.633 -391.557)" fill="#fff"/>
                  </g>
                  <g id="Grupo_221821" data-name="Grupo 221821" transform="translate(56.946 15.69)">
                    <path id="Trazado_224853" data-name="Trazado 224853" d="M560.913,399.968a1.6,1.6,0,0,1-.529-3.106l11.684-4.084a1.6,1.6,0,0,1,1.461,2.807C573.279,395.765,567.343,399.968,560.913,399.968Z" transform="translate(-559.311 -392.683)" fill="#fff"/>
                  </g>
                  <g id="Grupo_221822" data-name="Grupo 221822" transform="translate(58.602 22.624)">
                    <path id="Trazado_224854" data-name="Trazado 224854" d="M569.178,404.961a57.215,57.215,0,0,1-8.436-.736,1.2,1.2,0,0,1-.982-1.384,1.212,1.212,0,0,1,1.38-.982c2.588.441,9.939,1.3,12.865.077,3.581-1.5,8.121-6.952,8.168-7.009a1.2,1.2,0,0,1,1.848,1.53c-.2.246-4.97,5.963-9.088,7.692A16.072,16.072,0,0,1,569.178,404.961Z" transform="translate(-559.743 -394.492)" fill="#fff"/>
                  </g>
                  <g id="Grupo_221823" data-name="Grupo 221823" transform="translate(59.796 35.418)">
                    <path id="Trazado_224855" data-name="Trazado 224855" d="M572.875,407.333a105.44,105.44,0,0,1-11.772-.851,1.205,1.205,0,0,1-1.039-1.342,1.186,1.186,0,0,1,1.342-1.039c7.136.905,15.384,1.239,16.857.207a59.72,59.72,0,0,0,6.618-6.1,1.2,1.2,0,1,1,1.749,1.641,60.176,60.176,0,0,1-6.994,6.427C578.492,407.076,575.843,407.333,572.875,407.333Z" transform="translate(-560.055 -397.828)" fill="#fff"/>
                  </g>
                  <g id="Grupo_221824" data-name="Grupo 221824" transform="translate(61.002 49.304)">
                    <path id="Trazado_224856" data-name="Trazado 224856" d="M576.22,410.436c-5.472,0-13.954-3.114-15.073-3.535a1.2,1.2,0,1,1,.843-2.243c3.409,1.281,12.961,4.337,16.189,3.125,3.961-1.484,7.2-5.805,7.236-5.851a1.2,1.2,0,0,1,1.929,1.43c-.149.2-3.689,4.931-8.321,6.672A8.242,8.242,0,0,1,576.22,410.436Z" transform="translate(-560.369 -401.45)" fill="#fff"/>
                  </g>
                  <g id="Grupo_221825" data-name="Grupo 221825" transform="translate(44.243 26.044)">
                    <path id="Trazado_224857" data-name="Trazado 224857" d="M557.958,437.442c-.41-1.02-1.449-34.3-1.541-38.176s5.215-5.307,5.625,0-.817,40.557-.817,40.557Z" transform="translate(-554.816 -394.203)" fill="#fff"/>
                    <path id="Trazado_224858" data-name="Trazado 224858" d="M562.408,442.6a1.594,1.594,0,0,1-.943-.307l-3.267-2.381a1.591,1.591,0,0,1-.541-.7c-.614-1.53-1.649-38.364-1.656-38.732a4.768,4.768,0,0,1,4.337-5.1c2-.107,4.21,1.384,4.479,4.939.414,5.334-.759,39.288-.813,40.73a1.59,1.59,0,0,1-.9,1.38A1.554,1.554,0,0,1,562.408,442.6Zm-1.783-4.877.284.207c.284-8.635,1.047-33.107.721-37.364-.076-.982-.326-1.994-1.131-1.99a1.638,1.638,0,0,0-1.3,1.833C559.317,405.466,560.214,433.274,560.625,437.726Z" transform="translate(-555.998 -395.384)" fill="#fff"/>
                  </g>
                  <g id="Grupo_221826" data-name="Grupo 221826" transform="translate(39.217 14.117)">
                    <path id="Trazado_224859" data-name="Trazado 224859" d="M560.4,404.619c-2.607-2.864-6.269-3.815-5.058-8.305s4.666-3.539,7.642-3.539,6.638-.84,7.876,3.539c1.02,3.6-1.633,5.955-5.023,8.528A3.919,3.919,0,0,1,560.4,404.619Z" transform="translate(-553.507 -391.095)" fill="#fff"/>
                    <path id="Trazado_224860" data-name="Trazado 224860" d="M564.37,408.623a5.549,5.549,0,0,1-3.973-1.752,18.475,18.475,0,0,0-2.048-1.837c-2.013-1.641-4.525-3.677-3.371-7.961,1.369-5.069,5.315-4.874,7.915-4.762.828.035,1.622.038,2.466.008,2.7-.115,6.81-.253,8.221,4.736,1.4,4.931-2.642,7.995-5.594,10.238A5.909,5.909,0,0,1,564.37,408.623Zm-1.614-3.907a2.3,2.3,0,0,0,3.3.031c3.559-2.7,5.131-4.414,4.448-6.822-.694-2.458-2.113-2.527-5.023-2.408-.932.034-1.818.034-2.734-.012-2.757-.134-4.007-.084-4.674,2.4-.59,2.189.226,2.96,2.3,4.644A21.506,21.506,0,0,1,562.756,404.716Z" transform="translate(-554.688 -392.273)" fill="#fff"/>
                  </g>
                </g>
                <g id="Grupo_221832" data-name="Grupo 221832" transform="translate(5.542 18.062)">
                  <rect id="Rectángulo_295621" data-name="Rectángulo 295621" width="97.684" height="76.789" rx="1.825" fill="#bddcf6"/>
                  <path id="Trazado_224861" data-name="Trazado 224861" d="M579.047,363.969c.157,2.991,1.35,36.42-1.369,40.5s-9.655,8.493-17.551,8.221-12.466-4.486-12.113-12.792c.51-12.079,1.634-16.469,10.073-25.181s12.113-11.431,15.242-13.2S578.855,360.3,579.047,363.969Z" transform="translate(-534.442 -341.497)" fill="#fff"/>
                  <path id="Trazado_224862" data-name="Trazado 224862" d="M559.791,363.969c-.157,2.991-1.35,36.42,1.369,40.5s9.655,8.493,17.55,8.221,12.462-4.486,12.113-12.792c-.51-12.079-1.633-16.469-10.073-25.181s-12.113-11.431-15.242-13.2S559.983,360.3,559.791,363.969Z" transform="translate(-502.126 -341.497)" fill="#fff"/>
                  <g id="Grupo_221828" data-name="Grupo 221828" transform="translate(29.134 4.664)">
                    <path id="Trazado_224863" data-name="Trazado 224863" d="M553.257,403.822a1.2,1.2,0,0,1-.79-2.105c7.4-6.492,17.715-11.918,20.453-13.306V358a1.2,1.2,0,1,1,2.4,0v31.155a1.2,1.2,0,0,1-.675,1.078c-.122.061-12.427,6.12-20.595,13.294A1.206,1.206,0,0,1,553.257,403.822Z" transform="translate(-552.058 -356.796)" fill="#121e30"/>
                  </g>
                  <g id="Grupo_221829" data-name="Grupo 221829" transform="translate(30.473 41.759)">
                    <path id="Trazado_224864" data-name="Trazado 224864" d="M560.074,379.346a1.209,1.209,0,0,1-1.2-1.231l.2-8-5.725-1.277a1.2,1.2,0,1,1,.522-2.343l7.65,1.706-.245,9.974A1.206,1.206,0,0,1,560.074,379.346Z" transform="translate(-552.408 -366.47)" fill="#121e30"/>
                  </g>
                  <g id="Grupo_221830" data-name="Grupo 221830" transform="translate(49.996 4.664)">
                    <path id="Trazado_224865" data-name="Trazado 224865" d="M579.559,403.822a1.2,1.2,0,0,1-.79-.3c-8.175-7.182-20.476-13.233-20.6-13.294a1.2,1.2,0,0,1-.671-1.078V358a1.2,1.2,0,1,1,2.4,0v30.415c2.738,1.388,13.053,6.814,20.453,13.306a1.2,1.2,0,0,1,.108,1.695A1.191,1.191,0,0,1,579.559,403.822Z" transform="translate(-557.499 -356.796)" fill="#121e30"/>
                  </g>
                  <g id="Grupo_221831" data-name="Grupo 221831" transform="translate(62.803 41.759)">
                    <path id="Trazado_224866" data-name="Trazado 224866" d="M562.285,379.346a1.206,1.206,0,0,1-1.2-1.17l-.245-9.974,7.65-1.706a1.2,1.2,0,1,1,.521,2.343l-5.725,1.277.2,8a1.2,1.2,0,0,1-1.17,1.231Z" transform="translate(-560.839 -366.47)" fill="#121e30"/>
                  </g>
                </g>
              </g>
              <g id="Grupo_221834" data-name="Grupo 221834">
                <path id="Trazado_224867" data-name="Trazado 224867" d="M655.9,347.959H548.845a7.68,7.68,0,0,0-7.677,7.677V576.261a7.677,7.677,0,0,0,7.677,7.677H655.9a7.677,7.677,0,0,0,7.673-7.677V355.636A7.679,7.679,0,0,0,655.9,347.959Zm.575,213.079a6.785,6.785,0,0,1-6.783,6.779H555.049a6.811,6.811,0,0,1-6.814-6.779V365.9a6.814,6.814,0,0,1,6.814-6.779h37.007a10.315,10.315,0,0,0,20.629,0h37a6.787,6.787,0,0,1,6.783,6.779Z" transform="translate(-541.168 -347.959)" fill="#969aa8"/>
                <path id="Trazado_224868" data-name="Trazado 224868" d="M562.36,353.091a3.008,3.008,0,1,1-3.01-3.006A3.01,3.01,0,0,1,562.36,353.091Z" transform="translate(-498.152 -341.933)" fill="#121e30"/>
              </g>
              <g id="Grupo_221838" data-name="Grupo 221838" transform="translate(12.627 112.715)">
                <path id="Trazado_224869" data-name="Trazado 224869" d="M619.065,413.456H551.459a7,7,0,0,1-7-7V384.352a7,7,0,0,1,7-7H678.891a7,7,0,0,1,7,7v22.106a7,7,0,0,1-7,7H619.065Z" transform="translate(-544.461 -377.354)" fill="#fff"/>
                <g id="Grupo_221835" data-name="Grupo 221835" transform="translate(7.19 18.333)">
                  <path id="Trazado_224870" data-name="Trazado 224870" d="M546.336,382.448h0Z" transform="translate(-546.336 -381.248)" fill="#fff"/>
                  <rect id="Rectángulo_295622" data-name="Rectángulo 295622" width="123.735" height="2.399" transform="translate(0.002)" fill="#969aa8"/>
                </g>
                <g id="Grupo_221836" data-name="Grupo 221836" transform="translate(7.19 27.275)">
                  <path id="Trazado_224871" data-name="Trazado 224871" d="M546.336,384.78h0Z" transform="translate(-546.336 -383.58)" fill="#fff"/>
                  <rect id="Rectángulo_295623" data-name="Rectángulo 295623" width="123.735" height="2.398" transform="translate(0.002)" fill="#969aa8"/>
                </g>
                <rect id="Rectángulo_295624" data-name="Rectángulo 295624" width="41.724" height="6.319" transform="translate(7.191 6.222)" fill="#969aa8"/>
                <g id="Grupo_221837" data-name="Grupo 221837" transform="translate(14.912 34.902)">
                  <path id="Trazado_224872" data-name="Trazado 224872" d="M608.042,388.856H549.55a1.2,1.2,0,1,1,0-2.4h58.491a1.2,1.2,0,0,1,0,2.4Z" transform="translate(-548.35 -386.456)" fill="#969aa8"/>
                </g>
              </g>
            </g>
            <g id="doctor" transform="translate(253.258 49.964)">
              <path id="Trazado_224873" data-name="Trazado 224873" d="M602.663,360.664c-1.772-.134-9.122,1.771-12.251,6.534a41.1,41.1,0,0,0-5.867,15.449c-.667,4.559-2.573,9.728-.8,13.133s9.092,8.164,9.092,8.164V411.7h9.828V401.359s14.46-10.345,14.375-18.647-1.445-21.243-6.484-22.056A19.906,19.906,0,0,0,602.663,360.664Z" transform="translate(-554.517 -356.696)" fill="#f9c0b9"/>
              <path id="Trazado_224874" data-name="Trazado 224874" d="M585.224,384.014s7.213-2.04,6.668,2.995-6.124,5.372-6.124,5.372,0,9.057,4.218,11.776,10.752,1.906,12.523,1.089,17.558-15.514,16.059-27.489-11.569-19.6-20.687-18.241-10.208,3.677-11.7,12.658S585.224,384.014,585.224,384.014Z" transform="translate(-548.513 -359.359)" fill="#682f2c"/>
              <path id="Trazado_224875" data-name="Trazado 224875" d="M582.156,380.216s8.44-8.033,16.879-7.9,14.564,3.405,17.558,10.48S582.156,380.216,582.156,380.216Z" transform="translate(-556.936 -322.626)" fill="#4dd0e1"/>
              <path id="Trazado_224876" data-name="Trazado 224876" d="M579.748,434.394c-1.074,1.936,1.5,2.178,1.5,2.178h26.4s.272,0,1.361-1.089l1.089-1.089a1.042,1.042,0,0,0,.134,1.089,3.46,3.46,0,0,0,1.5,1.089h8.846a2.8,2.8,0,0,0,1.768-1.089c.682-.951,1.5-7.213.748-8.371s-27.152,0-27.152,0S580.43,433.171,579.748,434.394Z" transform="translate(-564.506 -168.771)" fill="#121e30"/>
              <path id="Trazado_224877" data-name="Trazado 224877" d="M581.276,409.162c0,.614,9.594,67.372,9.594,67.372h27.152l4.509-67.372Z" transform="translate(-559.431 -218.193)" fill="#969aa8"/>
              <g id="Grupo_221839" data-name="Grupo 221839" transform="translate(43.92 191.07)">
                <path id="Trazado_224878" data-name="Trazado 224878" d="M589.457,477.66a1.2,1.2,0,0,1-1.2-1.177l-1.223-66.068a1.2,1.2,0,1,1,2.4-.046l1.227,66.072a1.2,1.2,0,0,1-1.181,1.219Z" transform="translate(-587.033 -409.188)" fill="#121e30"/>
              </g>
              <g id="Grupo_221840" data-name="Grupo 221840" transform="translate(55.954 190.419)">
                <path id="Trazado_224879" data-name="Trazado 224879" d="M591.374,478.792a1.217,1.217,0,0,1-1.2-1.281l4.509-67.372a1.172,1.172,0,0,1,1.277-1.112,1.193,1.193,0,0,1,1.116,1.277l-4.509,67.368A1.2,1.2,0,0,1,591.374,478.792Z" transform="translate(-590.171 -409.019)" fill="#121e30"/>
              </g>
              <g id="Grupo_221841" data-name="Grupo 221841" transform="translate(0 55.296)">
                <path id="Trazado_224880" data-name="Trazado 224880" d="M587.182,380.541s16.162-6.672,29.637-6.76,29.5,11.342,29.5,11.342,15.821,38.261,14.192,48.326-18.375,29.027-18.375,29.027l.406,52.295-55.359,1.319V452.859s-11.6-14.774-11.6-19.41S587.182,380.541,587.182,380.541Z" transform="translate(-575.579 -373.78)" fill="#fff"/>
              </g>
              <path id="Trazado_224881" data-name="Trazado 224881" d="M590.415,393.961s3.673-.272,5.985.951a28.435,28.435,0,0,1,3.4,2.044,28.406,28.406,0,0,1,5.035-2.044c2.178-.544,8.3.249,8.3.249l1.771,15.675s-4.766,3.129-8.44,3.4-8.3-2.174-8.3-2.174a9.215,9.215,0,0,1-3.811.679c-2.45,0-11.434-8.643-11.434-8.643l3.267-11.638Z" transform="translate(-554.754 -265.529)" fill="#f9c0b9"/>
            </g>
            <g id="window_4" data-name="window 4" transform="translate(76.896 258.849)">
              <rect id="Rectángulo_295625" data-name="Rectángulo 295625" width="131.645" height="28.562" rx="1.825" fill="#fff"/>
              <path id="Trazado_224882" data-name="Trazado 224882" d="M538.88,419.971a3.094,3.094,0,1,1-3.094-3.095A3.1,3.1,0,0,1,538.88,419.971Z" transform="translate(-520.783 -405.213)" fill="#969aa8"/>
              <path id="Trazado_224883" data-name="Trazado 224883" d="M544.2,419.971a3.094,3.094,0,1,1-3.094-3.095A3.093,3.093,0,0,1,544.2,419.971Z" transform="translate(-505.692 -405.213)" fill="#969aa8"/>
              <path id="Trazado_224884" data-name="Trazado 224884" d="M549.528,419.971a3.095,3.095,0,1,1-3.095-3.095A3.093,3.093,0,0,1,549.528,419.971Z" transform="translate(-490.601 -405.213)" fill="#969aa8"/>
              <path id="Trazado_224885" data-name="Trazado 224885" d="M554.852,419.971a3.094,3.094,0,1,1-3.094-3.095A3.093,3.093,0,0,1,554.852,419.971Z" transform="translate(-475.51 -405.213)" fill="#969aa8"/>
              <path id="Trazado_224886" data-name="Trazado 224886" d="M560.173,419.971a3.092,3.092,0,1,1-3.094-3.095A3.093,3.093,0,0,1,560.173,419.971Z" transform="translate(-460.417 -405.213)" fill="#969aa8"/>
              <path id="Trazado_224887" data-name="Trazado 224887" d="M565.5,419.971a3.092,3.092,0,1,1-3.09-3.095A3.092,3.092,0,0,1,565.5,419.971Z" transform="translate(-445.326 -405.213)" fill="#969aa8"/>
            </g>
            <g id="window_3" data-name="window 3" transform="translate(146.283 253.498)">
              <path id="Trazado_224888" data-name="Trazado 224888" d="M641.9,412.443c-.042,0-87.219,0-87.219,0a7,7,0,0,0-7,7v37.8a7,7,0,0,0,7,7h87.177a7,7,0,0,0,7-7V424.525s.242-5.039,2.243-7.819a14.47,14.47,0,0,1,5.376-4.2Z" transform="translate(-547.681 -412.439)" fill="#fff"/>
              <g id="Grupo_221842" data-name="Grupo 221842" transform="translate(11.99 27.098)">
                <path id="Trazado_224889" data-name="Trazado 224889" d="M550.808,419.506V433c0,2.316,2.443,4.2,5.449,4.2s5.453-1.887,5.453-4.2v-13.49Z" transform="translate(-550.808 -419.506)" fill="#feca2e"/>
              </g>
              <g id="Grupo_221843" data-name="Grupo 221843" transform="translate(31.063 27.098)">
                <path id="Trazado_224890" data-name="Trazado 224890" d="M555.782,419.506V433c0,2.316,2.5,4.2,5.576,4.2s5.583-1.887,5.583-4.2v-13.49Z" transform="translate(-555.782 -419.506)" fill="#feca2e"/>
              </g>
              <g id="Grupo_221844" data-name="Grupo 221844" transform="translate(11.99 7.769)">
                <path id="Trazado_224891" data-name="Trazado 224891" d="M550.808,432.157V418.671c0-2.32,2.443-4.206,5.449-4.206s5.453,1.887,5.453,4.206v13.486Z" transform="translate(-550.808 -414.465)" fill="#feca2e"/>
              </g>
              <g id="Grupo_221845" data-name="Grupo 221845" transform="translate(31.063 7.769)">
                <path id="Trazado_224892" data-name="Trazado 224892" d="M555.782,432.157V418.671c0-2.32,2.5-4.206,5.576-4.206s5.583,1.887,5.583,4.206v13.486Z" transform="translate(-555.782 -414.465)" fill="#feca2e"/>
              </g>
              <g id="Grupo_221846" data-name="Grupo 221846" transform="translate(51.635 26.968)">
                <path id="Trazado_224893" data-name="Trazado 224893" d="M577.014,427.406a7.934,7.934,0,1,1-7.933-7.934A7.932,7.932,0,0,1,577.014,427.406Z" transform="translate(-561.147 -419.472)" fill="#fff"/>
                <path id="Trazado_224894" data-name="Trazado 224894" d="M568.2,419.785a6.735,6.735,0,1,0,6.733,6.733A6.743,6.743,0,0,0,568.2,419.785Z" transform="translate(-560.263 -418.585)" fill="#969aa8"/>
              </g>
              <g id="Grupo_221847" data-name="Grupo 221847" transform="translate(51.743 34.902)">
                <path id="Trazado_224895" data-name="Trazado 224895" d="M576.816,421.541a7.821,7.821,0,1,1-15.641,0Z" transform="translate(-561.175 -421.541)" fill="#fff"/>
                <path id="Trazado_224896" data-name="Trazado 224896" d="M561.514,421.854a6.609,6.609,0,0,0,13.041,0Z" transform="translate(-560.214 -420.654)" fill="#969aa8"/>
              </g>
              <g id="Grupo_221848" data-name="Grupo 221848" transform="translate(74.213 26.968)">
                <path id="Trazado_224897" data-name="Trazado 224897" d="M582.9,427.406a7.934,7.934,0,1,1-7.934-7.934A7.932,7.932,0,0,1,582.9,427.406Z" transform="translate(-567.035 -419.472)" fill="#fff"/>
                <path id="Trazado_224898" data-name="Trazado 224898" d="M574.084,419.785a6.735,6.735,0,1,0,6.733,6.733A6.743,6.743,0,0,0,574.084,419.785Z" transform="translate(-566.151 -418.585)" fill="#969aa8"/>
              </g>
              <g id="Grupo_221849" data-name="Grupo 221849" transform="translate(74.32 34.902)">
                <path id="Trazado_224899" data-name="Trazado 224899" d="M582.7,421.541a7.821,7.821,0,1,1-15.641,0Z" transform="translate(-567.063 -421.541)" fill="#fff"/>
                <path id="Trazado_224900" data-name="Trazado 224900" d="M567.4,421.854a6.609,6.609,0,0,0,13.041,0Z" transform="translate(-566.102 -420.654)" fill="#969aa8"/>
              </g>
              <g id="Grupo_221850" data-name="Grupo 221850" transform="translate(51.628 12.65)">
                <path id="Trazado_224901" data-name="Trazado 224901" d="M577.016,415.738a7.936,7.936,0,0,1-15.871,0Z" transform="translate(-561.145 -415.738)" fill="#fff"/>
                <path id="Trazado_224902" data-name="Trazado 224902" d="M561.485,416.05a6.738,6.738,0,0,0,13.26,0Z" transform="translate(-560.181 -414.854)" fill="#969aa8"/>
              </g>
            </g>
            <g id="window_2" data-name="window 2" transform="translate(32.472 173.83)">
              <rect id="Rectángulo_295626" data-name="Rectángulo 295626" width="79.994" height="59.889" rx="1.825" fill="#fff"/>
              <g id="Grupo_221851" data-name="Grupo 221851" transform="translate(39.073 17.861)">
                <path id="Trazado_224903" data-name="Trazado 224903" d="M552.907,396.362a44.576,44.576,0,0,0-12.961,1.327c-5.92,1.737-11.024,7.761-11.741,11.741s24.7,1.837,24.7,1.837Z" transform="translate(-528.19 -396.32)" fill="#d7d9dd"/>
              </g>
              <g id="Grupo_221852" data-name="Grupo 221852" transform="translate(16.203 27.703)">
                <rect id="Rectángulo_295627" data-name="Rectángulo 295627" width="47.589" height="14.325" fill="#d7d9dd"/>
              </g>
              <g id="Grupo_221853" data-name="Grupo 221853" transform="translate(15.004 15.881)">
                <path id="Trazado_224904" data-name="Trazado 224904" d="M570.7,430.871a1.2,1.2,0,0,1-1.2-1.2v-6.522H524.313v6.522a1.2,1.2,0,0,1-2.4,0v-7.723a1.2,1.2,0,0,1,1.2-1.2H569.5V397a1.2,1.2,0,1,1,2.4,0v32.67A1.2,1.2,0,0,1,570.7,430.871Z" transform="translate(-521.913 -395.804)" fill="#121e30"/>
              </g>
            </g>
            <g id="window_1" data-name="window 1" transform="translate(0 138.206)">
              <rect id="Rectángulo_295628" data-name="Rectángulo 295628" width="109.537" height="26.723" rx="1.825" fill="#fff"/>
              <g id="Grupo_221854" data-name="Grupo 221854" transform="translate(6.952 18.816)">
                <path id="Trazado_224905" data-name="Trazado 224905" d="M511.345,387.592h0Z" transform="translate(-511.344 -386.392)" fill="#fff"/>
                <rect id="Rectángulo_295629" data-name="Rectángulo 295629" width="96.446" height="2.399" fill="#969aa8"/>
              </g>
              <rect id="Rectángulo_295630" data-name="Rectángulo 295630" width="41.723" height="6.319" transform="translate(6.952 6.707)" fill="#969aa8"/>
            </g>
            <g id="bubbles" transform="translate(42.717)">
              <path id="Trazado_224906" data-name="Trazado 224906" d="M529.7,415.383a3.34,3.34,0,1,1-3.34-3.34A3.337,3.337,0,0,1,529.7,415.383Z" transform="translate(-514.028 -160.063)" fill="#fff"/>
              <path id="Trazado_224907" data-name="Trazado 224907" d="M583.2,350.827a4.5,4.5,0,1,1-4.5-4.5A4.5,4.5,0,0,1,583.2,350.827Z" transform="translate(-368.947 -346.329)" fill="#fff"/>
              <path id="Trazado_224908" data-name="Trazado 224908" d="M581.492,351.812a1.971,1.971,0,1,1-1.971-1.971A1.97,1.97,0,0,1,581.492,351.812Z" transform="translate(-359.452 -336.374)" fill="#fff"/>
              <path id="Trazado_224909" data-name="Trazado 224909" d="M580.09,374.1a1.971,1.971,0,1,1-1.971-1.971A1.97,1.97,0,0,1,580.09,374.1Z" transform="translate(-363.425 -273.191)" fill="#fff"/>
              <path id="Trazado_224910" data-name="Trazado 224910" d="M540.581,350.22a1.971,1.971,0,1,1-1.971-1.971A1.97,1.97,0,0,1,540.581,350.22Z" transform="translate(-475.414 -340.887)" fill="#fff"/>
              <path id="Trazado_224911" data-name="Trazado 224911" d="M524.614,415.561a1.971,1.971,0,1,1-1.971-1.971A1.971,1.971,0,0,1,524.614,415.561Z" transform="translate(-520.672 -155.678)" fill="#fff"/>
            </g>
          </g>
        </g>
      </g>
    </g>
  </g>
</svg>
