<svg xmlns="http://www.w3.org/2000/svg" xmlns:xlink="http://www.w3.org/1999/xlink" width="820" height="486" viewBox="0 0 820 486">
  <defs>
    <radialGradient id="radial-gradient" cx="0.473" cy="0.354" r="0.422" gradientTransform="translate(-0.568) scale(2.137 1)" gradientUnits="objectBoundingBox">
      <stop offset="0" stop-color="#ffc9bd"/>
      <stop offset="0.154" stop-color="#e5b2ad"/>
      <stop offset="0.553" stop-color="#a77b86"/>
      <stop offset="0.847" stop-color="#81596f"/>
      <stop offset="1" stop-color="#734c66"/>
    </radialGradient>
    <clipPath id="clip-path">
      <circle id="Elipse_16276" data-name="Elipse 16276" cx="8.54" cy="8.54" r="8.54" transform="translate(976.897 272.164)" fill="none"/>
    </clipPath>
  </defs>
  <g id="Grupo_222344" data-name="Grupo 222344" transform="translate(-390 -680)">
    <g id="Grupo_222343" data-name="Grupo 222343">
      <g id="Grupo_222154" data-name="Grupo 222154" transform="translate(4298 11711)">
        <g id="Grupo_207476" data-name="Grupo 207476" transform="translate(-3855.466 -11030.066)">
          <rect id="Rectángulo_41096" data-name="Rectángulo 41096" width="163" height="485" transform="translate(604.466 0.067)" fill="#4dd0e1"/>
          <line id="Línea_250" data-name="Línea 250" x1="603" transform="translate(0.466 0.067)" fill="none" stroke="#4dd0e1" stroke-width="2" opacity="0.2"/>
          <line id="Línea_251" data-name="Línea 251" x1="603" transform="translate(0.466 484.067)" fill="none" stroke="#4dd0e1" stroke-width="2" opacity="0.2"/>
        </g>
        <rect id="Rectángulo_295872" data-name="Rectángulo 295872" width="806" height="463" rx="16" transform="translate(-3908 -11019)" fill="#fff"/>
        <path id="Rectángulo_295873" data-name="Rectángulo 295873" d="M20,0H191a0,0,0,0,1,0,0V180a0,0,0,0,1,0,0H0a0,0,0,0,1,0,0V20A20,20,0,0,1,20,0Z" transform="translate(-3892 -10969)" fill="#feca2e"/>
        <path id="Rectángulo_295880" data-name="Rectángulo 295880" d="M0,0H191a0,0,0,0,1,0,0V180a0,0,0,0,1,0,0H20A20,20,0,0,1,0,160V0A0,0,0,0,1,0,0Z" transform="translate(-3892 -10785)" fill="#4dd0e1"/>
        <path id="Rectángulo_295876" data-name="Rectángulo 295876" d="M0,0H171a20,20,0,0,1,20,20V180a0,0,0,0,1,0,0H0a0,0,0,0,1,0,0V0A0,0,0,0,1,0,0Z" transform="translate(-3309 -10969)" fill="#feca2e"/>
        <path id="Rectángulo_295877" data-name="Rectángulo 295877" d="M0,0H191a0,0,0,0,1,0,0V160a20,20,0,0,1-20,20H0a0,0,0,0,1,0,0V0A0,0,0,0,1,0,0Z" transform="translate(-3309 -10785)" fill="#4dd0e1"/>
        <rect id="Rectángulo_295874" data-name="Rectángulo 295874" width="191" height="180" transform="translate(-3698 -10969)" fill="#feca2e"/>
        <rect id="Rectángulo_295879" data-name="Rectángulo 295879" width="191" height="180" transform="translate(-3698 -10785)" fill="#feca2e"/>
        <rect id="Rectángulo_295875" data-name="Rectángulo 295875" width="191" height="180" transform="translate(-3503 -10969)" fill="#4dd0e1"/>
        <rect id="Rectángulo_295878" data-name="Rectángulo 295878" width="191" height="180" transform="translate(-3503 -10785)" fill="#0f2771"/>
        <path id="Unión_7" data-name="Unión 7" d="M42.68,62.5H17A16.5,16.5,0,0,1,.5,46V17A16.5,16.5,0,0,1,17,.5H128A16.5,16.5,0,0,1,144.5,17V46A16.5,16.5,0,0,1,128,62.5H51.365L27.65,89.5Z" transform="translate(-3851 -10957)" fill="#fff" stroke="#707070" stroke-width="1"/>
        <path id="Unión_8" data-name="Unión 8" d="M34.546,62.5H17A16.5,16.5,0,0,1,.5,46V17A16.5,16.5,0,0,1,17,.5H128A16.5,16.5,0,0,1,144.5,17V46A16.5,16.5,0,0,1,128,62.5H43.153L19.65,90.15Z" transform="translate(-3851 -10772)" fill="#fff" stroke="#707070" stroke-width="1"/>
        <path id="Unión_5" data-name="Unión 5" d="M71.361,62.5H17A16.5,16.5,0,0,1,.5,46V17A16.5,16.5,0,0,1,17,.5H128A16.5,16.5,0,0,1,144.5,17V46A16.5,16.5,0,0,1,128,62.5H79.969L56.466,90.15Z" transform="translate(-3657 -10772)" fill="#fff" stroke="#707070" stroke-width="1"/>
        <path id="Unión_3" data-name="Unión 3" d="M88.2,62.5H17A16.5,16.5,0,0,1,.5,46V17A16.5,16.5,0,0,1,17,.5H128A16.5,16.5,0,0,1,144.5,17V46A16.5,16.5,0,0,1,128,62.5H96.89l15.031,27Z" transform="translate(-3296 -10957)" fill="#fff" stroke="#707070" stroke-width="1"/>
        <text id="Necesito_conocer_sus_requisitos_antes_de_empezar_a_desarrollar_su_software." data-name="Necesito conocer sus requisitos antes de empezar a desarrollar su software." transform="translate(-3835 -10950)" fill="#12263f" font-size="10" font-family="Roboto-Bold, Roboto" font-weight="700"><tspan x="0" y="10">Necesito conocer sus </tspan><tspan x="0" y="22">requisitos antes de </tspan><tspan x="0" y="34">empezar a desarrollar su </tspan><tspan x="0" y="46">software.</tspan></text>
        <text id="no_voy_a_saber_lo_que_quiero_hacer_hasta_que_usted_me_diga_lo_que_el_software_puede_hacer." data-name="no voy a saber lo que quiero hacer hasta que usted me diga lo que el software puede hacer." transform="translate(-3838 -10765)" fill="#12263f" font-size="10" font-family="Roboto-Bold, Roboto" font-weight="700"><tspan x="0" y="10">No voy a saber lo que </tspan><tspan x="0" y="22">quiero hacer hasta que </tspan><tspan x="0" y="34">usted me diga lo que el </tspan><tspan x="0" y="46">software puede hacer.</tspan></text>
        <text id="intente_poner_esto_en_su_mente:_el_software_puede_hacer_cualquier_cosa_que_usted_desee" data-name="intente poner esto en su mente: el software puede hacer cualquier cosa que usted desee" transform="translate(-3644 -10765)" fill="#12263f" font-size="10" font-family="Roboto-Bold, Roboto" font-weight="700"><tspan x="0" y="10">Intente poner esto en su </tspan><tspan x="0" y="22">mente: el software puede </tspan><tspan x="0" y="34">hacer cualquier cosa que </tspan><tspan x="0" y="46">usted desee</tspan></text>
        <text id="quiero_decir_Qué_está_queriendo_hacer_con_su_software_" data-name="quiero decir, ¿Qué está queriendo hacer con su software?" transform="translate(-3282 -10944)" fill="#12263f" font-size="10" font-family="Roboto-Bold, Roboto" font-weight="700"><tspan x="0" y="10">Quiero decir, ¿Qué está </tspan><tspan x="0" y="22">queriendo hacer con su </tspan><tspan x="0" y="34">software?</tspan></text>
        <g id="Grupo_222159" data-name="Grupo 222159" transform="translate(-4154.538 -10850.775)">
          <g id="Grupo_222158" data-name="Grupo 222158" transform="translate(845.538 121.375)">
            <path id="Trazado_225650" data-name="Trazado 225650" d="M882.774,176.935l-31.472.424a3.016,3.016,0,0,0-2.95,3.632l4.555,23.368a3.225,3.225,0,0,0,3.185,2.525l10.653-.029c4.026,10.963,13.525,7.11,13.525,7.11a9.93,9.93,0,0,1-6.225-7.131l6.738-.019a3.045,3.045,0,0,0,3.1-2.681l2.177-23.722A3.208,3.208,0,0,0,882.774,176.935Z" transform="translate(-844.964 -109.786)" fill="#0f2771"/>
            <path id="Trazado_225651" data-name="Trazado 225651" d="M891.576,121.377l-41.963,1.3a4.048,4.048,0,0,0-4.02,4.607l5.016,29.461a4.07,4.07,0,0,0,4.131,3.209l14.269-.092c5.07,14.179,18.139,9.172,18.139,9.172a12.629,12.629,0,0,1-8.269-9.236l9.174-.059a4.226,4.226,0,0,0,4.306-3.494l3.58-30.518A4.025,4.025,0,0,0,891.576,121.377Z" transform="translate(-845.538 -121.375)" fill="#06a3da"/>
            <path id="Trazado_225652" data-name="Trazado 225652" d="M925.162,134.435l39.266.933c2.434.058,4.306,1.981,3.988,4.1l-4.118,27.5a3.874,3.874,0,0,1-4.061,3.075l-14.171-.278c-4.857,12.765-16.755,8.27-16.755,8.27,5.265-1.679,7.424-4.415,7.94-8.5l-9.77-.129a3.972,3.972,0,0,1-4.045-3.384l-2.4-27.785C920.856,136.133,922.765,134.378,925.162,134.435Z" transform="translate(-829.792 -118.651)" fill="#0f2771"/>
            <path id="Trazado_225653" data-name="Trazado 225653" d="M923.366,180.529l25.411,2.1a2.479,2.479,0,0,1,2.195,2.969L947.4,203.445a2.434,2.434,0,0,1-2.423,1.9l-8.282-.106c-1.975,5.747-10.389,4.074-10.389,4.074,3.258-1.107,4.545-2.128,4.508-4.149l-5.586-.071a2.6,2.6,0,0,1-2.635-2.2l-2.042-19.646A2.5,2.5,0,0,1,923.366,180.529Z" transform="translate(-829.894 -109.038)" fill="#d9d6cf"/>
            <g id="Grupo_222157" data-name="Grupo 222157" transform="translate(35.016 23.837)">
              <path id="Trazado_225654" data-name="Trazado 225654" d="M874.515,145.43l3.579,84.523a4.122,4.122,0,0,0,3.835,3.968c8.441.529,29.873,1.588,47.98.087a4.127,4.127,0,0,0,3.75-3.984l3.214-84.612a4.129,4.129,0,0,0-4.095-4.313H878.608A4.129,4.129,0,0,0,874.515,145.43Z" transform="translate(-874.511 -141.098)" fill="#1a282e"/>
              <path id="Trazado_225655" data-name="Trazado 225655" d="M931.5,174.119l1.09-28.708a4.129,4.129,0,0,0-4.095-4.313H895.055C902.581,148.421,927.044,170.283,931.5,174.119Z" transform="translate(-870.226 -141.098)" fill="#8a8c8e" opacity="0.75" style="mix-blend-mode: screen;isolation: isolate"/>
              <path id="Trazado_225656" data-name="Trazado 225656" d="M875.152,157.1c4.044,3.638,58.223,50.588,59.318,51.267l.428-11.252c-.08-.06-.161-.118-.24-.178-8.94-6.69-56.041-51.115-59.3-54.494a4.179,4.179,0,0,0-.84,2.7l.5,11.83C875.061,157.019,875.1,157.062,875.152,157.1Z" transform="translate(-874.511 -140.816)" fill="#8a8c8e" opacity="0.75" style="mix-blend-mode: screen;isolation: isolate"/>
              <path id="Trazado_225657" data-name="Trazado 225657" d="M875.846,176.144l.346,8.158L929.629,226.7a4.105,4.105,0,0,0,3.675-3.411C932.844,222.92,882.907,182.772,875.846,176.144Z" transform="translate(-874.232 -133.788)" fill="#8a8c8e" opacity="0.75" style="mix-blend-mode: screen;isolation: isolate"/>
              <path id="Trazado_225658" data-name="Trazado 225658" d="M878.9,145.309l3.234,77.019h0s26.1,2.081,45.6,0l2.9-77.019H878.9Z" transform="translate(-873.595 -140.22)" fill="#0b0b0b"/>
              <path id="Trazado_225659" data-name="Trazado 225659" d="M878.9,145.309l3.234,77.019h0s26.1,2.081,45.6,0l2.9-77.019H878.9Z" transform="translate(-873.595 -140.22)" fill="#0b0b0b"/>
              <path id="Trazado_225660" data-name="Trazado 225660" d="M879.91,146.831l3.082,73.383h0s24.869,1.983,43.453,0l2.764-73.383h-49.3Z" transform="translate(-873.385 -139.902)" fill="#f2f3ed"/>
              <path id="Trazado_225661" data-name="Trazado 225661" d="M903.421,214.366a2.463,2.463,0,1,1-2.453-2.252A2.359,2.359,0,0,1,903.421,214.366Z" transform="translate(-869.504 -126.285)" fill="#b9b1bb"/>
              <path id="Trazado_225662" data-name="Trazado 225662" d="M901.919,214.817a1.794,1.794,0,0,1-1.866-1.711,1.555,1.555,0,0,1,.065-.425A1.715,1.715,0,0,0,899,214.248a1.8,1.8,0,0,0,1.867,1.713,1.838,1.838,0,0,0,1.8-1.288A1.984,1.984,0,0,1,901.919,214.817Z" transform="translate(-869.403 -126.167)" fill="#8d7f90"/>
              <path id="Trazado_225663" data-name="Trazado 225663" d="M894.413,142.827v2.025h11.3v-1.731Z" transform="translate(-870.359 -140.737)" fill="#b9b1bb"/>
              <path id="Trazado_225664" data-name="Trazado 225664" d="M907.514,143.84a1.17,1.17,0,1,1-1.159-1.013A1.094,1.094,0,0,1,907.514,143.84Z" transform="translate(-868.11 -140.737)" fill="#b9b1bb"/>
              <g id="Grupo_222156" data-name="Grupo 222156" transform="translate(10.161 14.972)">
                <path id="Trazado_225665" data-name="Trazado 225665" d="M907.355,190.3c-3.846-1.467-2.975-10.567-2.975-10.567l-3.083.428-3.083-.428s.87,9.1-2.974,10.567c0,0,1.155,3.1,6.021,3.111h.073C906.2,193.4,907.355,190.3,907.355,190.3Z" transform="translate(-880.348 -148.011)" fill="#f89470"/>
                <path id="Trazado_225666" data-name="Trazado 225666" d="M897,187.909c2.531,1.916,5.624,1.454,7.995.319-1.49-3.158-.987-8.49-.987-8.49l-3.083.428-3.083-.428S898.318,184.725,897,187.909Z" transform="translate(-879.98 -148.011)" fill="#eb7768"/>
                <path id="Trazado_225667" data-name="Trazado 225667" d="M893.25,170.611s-2.306-1.93-3.7-.3-.419,4.426,4.892,6.523Z" transform="translate(-881.655 -150.113)" fill="#f89470"/>
                <path id="Trazado_225668" data-name="Trazado 225668" d="M908.328,170.611s2.306-1.93,3.7-.3.419,4.426-4.892,6.523Z" transform="translate(-877.865 -150.113)" fill="#f89470"/>
                <path id="Trazado_225669" data-name="Trazado 225669" d="M911.957,161.732c-2.1-3.915-9.832-3.076-9.832-3.076s-7.735-.839-9.832,3.076-.56,15.94.839,18.837,5.337,7.091,8.993,7.091,7.6-4.194,8.993-7.091S914.054,165.645,911.957,161.732Z" transform="translate(-881.177 -152.424)" fill="#f89470"/>
                <path id="Trazado_225670" data-name="Trazado 225670" d="M897.527,158.24s1.362,4.67-3.773,9.243a20.837,20.837,0,0,0,1.117,10.441,3.657,3.657,0,0,1-1.627.664c-.679-.011-.608-4.518-2.845-9.271s-3.893-9.719,1.257-11.955C894.032,156.33,897.527,158.24,897.527,158.24Z" transform="translate(-881.805 -152.742)" fill="#1a282e"/>
                <path id="Trazado_225671" data-name="Trazado 225671" d="M909.04,162.472c-.5,0-1.456-.673-1.824-.56,0,0,1.417,2.446,1.491,2.727.46,1.694-.589,8.759-1.935,12.276a3.657,3.657,0,0,0,1.627.664c.679-.011.694-4.2,2.93-8.956a24.359,24.359,0,0,0,1.634-3.03C912.3,165.718,909.787,162.472,909.04,162.472Z" transform="translate(-877.942 -151.731)" fill="#1a282e"/>
                <path id="Trazado_225672" data-name="Trazado 225672" d="M904.963,170.564a1.3,1.3,0,1,1-1.292-1.4A1.348,1.348,0,0,1,904.963,170.564Z" transform="translate(-878.859 -150.216)" fill="#1a282e"/>
                <path id="Trazado_225673" data-name="Trazado 225673" d="M898.57,170.564a1.3,1.3,0,1,1-1.293-1.4A1.349,1.349,0,0,1,898.57,170.564Z" transform="translate(-880.192 -150.216)" fill="#1a282e"/>
                <g id="Grupo_222154-2" data-name="Grupo 222154" transform="translate(19.246 20.347)">
                  <path id="Trazado_225674" data-name="Trazado 225674" d="M900.257,175.471a3,3,0,0,1-.742-.076c-.54-.151-.653-.489-.671-.678a.42.42,0,0,1,.376-.459.409.409,0,0,1,.458.377,5.346,5.346,0,0,0,2.018-.2,30.606,30.606,0,0,0-1.445-3.519.419.419,0,0,1,.76-.353c1.812,3.883,1.6,4.16,1.451,4.363A3.671,3.671,0,0,1,900.257,175.471Z" transform="translate(-898.842 -170.322)" fill="#cf6543"/>
                </g>
                <path id="Trazado_225675" data-name="Trazado 225675" d="M897.356,175.667h7s-.7,3.4-3.533,3.4S897.356,175.667,897.356,175.667Z" transform="translate(-879.906 -148.86)" fill="#fff"/>
                <path id="Trazado_225676" data-name="Trazado 225676" d="M907.394,168.13a41.221,41.221,0,0,1-4.925,0c-.8-.195-.424-2.088.925-2.041S908.814,167.045,907.394,168.13Z" transform="translate(-878.927 -150.858)" fill="#1a282e"/>
                <path id="Trazado_225677" data-name="Trazado 225677" d="M894.081,168.13a41.219,41.219,0,0,0,4.925,0c.8-.195.424-2.088-.924-2.041S892.661,167.045,894.081,168.13Z" transform="translate(-880.651 -150.858)" fill="#1a282e"/>
                <path id="Trazado_225678" data-name="Trazado 225678" d="M894.727,158.915s1.62-2.306,6.022-4.473,10.049-.482,13.2,3.359,4.591,10.766-1.9,12.943a5.135,5.135,0,0,0-2.355-4.56c-2.586-1.537-4.458,2.181-8.946.28S895.764,162.828,894.727,158.915Z" transform="translate(-880.455 -153.486)" fill="#1a282e"/>
                <g id="Grupo_222155" data-name="Grupo 222155" transform="translate(0 42.216)">
                  <path id="Trazado_225679" data-name="Trazado 225679" d="M919.473,188.984a67.448,67.448,0,0,1-9.73-.568,8.788,8.788,0,0,1-5.964,2.105,8.979,8.979,0,0,1-5.969-2.053,66.7,66.7,0,0,1-9.4.516c-3.167-.209-5.7,11.246-5.473,23.242l20.922.193h.169l20.922-.193C925.177,200.23,922.64,188.775,919.473,188.984Z" transform="translate(-882.918 -188.416)" fill="#feca2e"/>
                  <path id="Trazado_225680" data-name="Trazado 225680" d="M890.475,197.88c-.325-.378-.326,8.437-.311,12.452l1.558.014C891.44,206.508,890.8,198.255,890.475,197.88Z" transform="translate(-881.407 -186.444)" fill="#006695"/>
                  <path id="Trazado_225681" data-name="Trazado 225681" d="M909.749,197.88c.325-.378.326,8.437.311,12.452l-1.558.014C908.785,206.508,909.428,198.255,909.749,197.88Z" transform="translate(-877.581 -186.444)" fill="#006695"/>
                </g>
              </g>
              <path id="Trazado_225682" data-name="Trazado 225682" d="M878.9,145.309l3.234,77.019s26.1,2.081,45.6,0l2.9-77.019Zm47.755,75.223c-18.583,1.983-43.453,0-43.453,0h0l-3.082-73.383h49.3Z" transform="translate(-873.595 -140.22)" fill="#0b0b0b"/>
              <path id="Trazado_225683" data-name="Trazado 225683" d="M912.242,158.821c4.2,3.744,8.656,7.528,12.981,11.443l.911-24.194H897.572C902.51,150.171,907.282,154.4,912.242,158.821Z" transform="translate(-869.701 -140.061)" fill="#c8d7d8" opacity="0.55" style="mix-blend-mode: screen;isolation: isolate"/>
            </g>
          </g>
          <path id="Trazado_225684" data-name="Trazado 225684" d="M873.123,153.165l2.115-.013.21,4.969A14.541,14.541,0,0,1,873.123,153.165Z" transform="translate(5.754 6.628)" opacity="0.25" fill="url(#radial-gradient)" style="mix-blend-mode: overlay;isolation: isolate"/>
        </g>
        <g id="Grupo_222163" data-name="Grupo 222163" transform="translate(-4707.896 -10971.281)">
          <g id="Grupo_222162" data-name="Grupo 222162">
            <path id="Trazado_225685" data-name="Trazado 225685" d="M841.837,290.53s3.439,22.7-3.955,28.2c0,0,4.528,6.762,10.832,7.106s7.044-6.52,5.764-7.684c-1.575-1.431-3.259-4.3-2.927-9.962C852.153,297.923,845.62,289.756,841.837,290.53Z" fill="#f89470"/>
            <path id="Trazado_225686" data-name="Trazado 225686" d="M841.218,313.4a26.08,26.08,0,0,0,3.065,1.64,14.277,14.277,0,0,0,8.479.77,14.912,14.912,0,0,1-1.211-7.622c.6-10.265-5.931-18.432-9.714-17.658C841.837,290.53,843.986,304.743,841.218,313.4Z" fill="#eb7768"/>
            <path id="Trazado_225687" data-name="Trazado 225687" d="M848.027,276.173s10.4-1.462,13.583,1.977,3.524,8.769,3.868,13.411c.127,1.707.676,4.645.928,7.784.434,5.4-1.081,11.9-4.991,12.734-4.75,1.011-12.185-2.464-17.257-11.319,0,0-5.76-.516-6.963-5.416s3.868-5.674,6.447-1.8C843.642,293.539,839.946,279.955,848.027,276.173Z" fill="#f89470"/>
            <path id="Trazado_225688" data-name="Trazado 225688" d="M849.058,280.3a12.807,12.807,0,0,1,1.147,10.746c-2.121,5.846-2.923,3.783-2.78,7.336,0,0-1,1.032-1.92.4,0,0-2.671-7.556-6.809-7.532,0,0-2.934-6.681-.814-11.954s5.388-2.349,5.388-2.349S847.855,278.609,849.058,280.3Z" fill="#1a282e"/>
            <path id="Trazado_225689" data-name="Trazado 225689" d="M842.639,276.889s2.751-6.362,7.909-4.929,5.509,2.6,8.54,1.433c3.439-1.318,6.362-1.318,8.2.344,5.284,4.788.573,12.781-8.2,11.766C847.39,284.148,845.734,280.156,842.639,276.889Z" fill="#1a282e"/>
            <path id="Trazado_225690" data-name="Trazado 225690" d="M865.382,294.03a1.558,1.558,0,1,1-1.553-1.681A1.62,1.62,0,0,1,865.382,294.03Z" fill="#1a282e"/>
            <ellipse id="Elipse_16272" data-name="Elipse 16272" cx="1.669" cy="1.806" rx="1.669" ry="1.806" transform="translate(854.602 293.27)" fill="#1a282e"/>
            <g id="Grupo_222160" data-name="Grupo 222160">
              <path id="Trazado_225691" data-name="Trazado 225691" d="M860.412,302.009a3.825,3.825,0,0,1-.958-.1c-.7-.2-.842-.632-.865-.875a.541.541,0,0,1,.484-.592.529.529,0,0,1,.592.486,6.861,6.861,0,0,0,2.6-.258,39.789,39.789,0,0,0-1.864-4.541.54.54,0,1,1,.98-.456c2.337,5.012,2.068,5.369,1.872,5.631C862.94,301.73,861.519,302.009,860.412,302.009Z" fill="#cf6543"/>
            </g>
            <path id="Trazado_225692" data-name="Trazado 225692" d="M855.791,303.676l8.381-.415s-.633,4.109-4.03,4.277S855.791,303.676,855.791,303.676Z" fill="#fff"/>
            <path id="Trazado_225693" data-name="Trazado 225693" d="M851.729,292.072a53.062,53.062,0,0,0,6.291-.913c.992-.4.155-2.746-1.559-2.435S849.714,290.95,851.729,292.072Z" fill="#1a282e"/>
            <path id="Trazado_225694" data-name="Trazado 225694" d="M865.25,288.717a7.913,7.913,0,0,0-2.609-.6,1.267,1.267,0,0,0-.225,2.513,19.953,19.953,0,0,0,2.966-.04C865.284,289.9,865.336,289.252,865.25,288.717Z" fill="#1a282e"/>
            <path id="Trazado_225695" data-name="Trazado 225695" d="M854.853,318.456a32.759,32.759,0,0,1,5.128,4.15c2.835,3,9.71,19.62,12,21.224s24.759,4.585,24.759,4.585v7.566s-28.915.114-31.938-1.834S854.572,322.426,854.853,318.456Z" fill="#feca2e"/>
            <path id="Trazado_225696" data-name="Trazado 225696" d="M854.6,318.26s.725,4.346-4.628,3.333c-2.2-.416-10.138-5.075-10.138-5.075s-5.818,4.371-7.939,5.231.539,10.619.769,11.192.487,23.613-.917,31.981c0,0,20.131,2.98,30.526.114a111.656,111.656,0,0,1-.861-25.676C862.276,328.815,856.416,320.1,854.6,318.26Z" fill="#ca9f1f"/>
            <g id="Grupo_222161" data-name="Grupo 222161">
              <path id="Trazado_225697" data-name="Trazado 225697" d="M893.848,336.824l-9.485,18.1,1.576,1.061,11.536.245,10.9-18.071-1.719-1.333Z" fill="#1a282e"/>
              <path id="Trazado_225698" data-name="Trazado 225698" d="M893.848,336.824l-9.485,18.1,1.576,1.061,9.027-17.911,13.411.086-1.719-1.333Z" fill="#465156"/>
              <path id="Trazado_225699" data-name="Trazado 225699" d="M893.848,336.824l-9.485,18.1,1.576,1.061,9.027-17.911Z" fill="#021118"/>
            </g>
            <path id="Trazado_225700" data-name="Trazado 225700" d="M902.123,353.416a10.607,10.607,0,0,0,1.325-2.347,6.044,6.044,0,0,0-.12-4.544l-.8,1.331s-4.189-1.676-4.676-.673,3.491,2.637,3.491,2.637-4.483-1.834-5.171-.832c-.535.781,2.55,2.1,3.9,2.933,0,0-3.9-1.743-4.437-.9s3.411,2.605,3.411,2.605-2.451-1.074-2.835-.441c-.731,1.2,1.982,1.855,1.982,1.855C899.61,356.059,901.222,354.648,902.123,353.416Z" fill="#f89470"/>
            <path id="Trazado_225701" data-name="Trazado 225701" d="M883.41,352.848a3.493,3.493,0,0,0,1.54-.722c.387-.472.262-2.953.735-3.813a4.475,4.475,0,0,1,3.078-1.788l-1.591,3.036s-.216,1.913,1.123,1.745,4.428-2.972,5.725-2.017c.817.6-1.8,2.2-3.911,3.117,0,0,4.577-1.629,4.706-.684s-2.471,2.532-4.706,2.489c0,0,4.294-.571,4.591.524.145.537-.228,1.751-4.14,1.385,0,0,2.753.19,2.085,1.422-.263.484-2.857.3-4.729-.064a16.17,16.17,0,0,0-3.911.194Z" fill="#f89470"/>
            <path id="Trazado_225702" data-name="Trazado 225702" d="M883.274,352.066s-26.738-2.218-28.671-4.8-8.353-28.771-20.79-26.249,7,30.837,10.2,34.962,16.619,6.131,40.347,2.349Z" fill="#feca2e"/>
            <path id="Trazado_225703" data-name="Trazado 225703" d="M901.785,279.813c-15.249,0-27.611,8.643-27.611,19.3,0,6.572,4.705,12.368,11.878,15.854-2.384,4.488-3.807,9.478,1.835,17.644,0,0-1.332-11.075,8.535-14.6,1.314.134,4,.408,5.363.408,15.249,0,27.611-8.643,27.611-19.3S917.034,279.813,901.785,279.813Z" fill="#06a3da"/>
            <path id="Trazado_225704" data-name="Trazado 225704" d="M839.231,293.065a3.235,3.235,0,0,1,1.987.816c1.277,1.151,2.407,3.523,1.421,4.079-.881.5-1.723.231-1.935-.634-.193-.79.334-1.382.136-1.963A7.179,7.179,0,0,0,839.231,293.065Z" fill="#cf6543"/>
          </g>
        </g>
        <g id="Grupo_222178" data-name="Grupo 222178" transform="translate(-4135.208 -11011.186)">
          <g id="Grupo_222176" data-name="Grupo 222176">
            <g id="Grupo_222166" data-name="Grupo 222166">
              <g id="Grupo_222165" data-name="Grupo 222165">
                <path id="Trazado_225705" data-name="Trazado 225705" d="M772.759,327.742c-.96,13.691-5.695,23.094-12.876,30.165-8.537,8.4-20.606,13.176-34.973,13.176-26.453,0-47.945-20.429-47.945-43.341s14.407-43.4,49.942-43.4C753.36,284.346,774.448,303.664,772.759,327.742Z" fill="#06a3da"/>
                <g id="Grupo_222164" data-name="Grupo 222164">
                  <path id="Trazado_225706" data-name="Trazado 225706" d="M683.7,316.011c-.636,2.745-.606,4.856-2.029,7.529-1.3,2.449-1.91,3.643-1.873,6.613.048,3.818-1.155,15.23,5.573,13.459,5.567-1.466,2.527-8.8,6.479-12,1.872-1.515,4.3-.919,5.448-3.345,1.046-2.2-.322-4.582,1.518-6.625,3.278-3.635,10.062-2.1,12.5-6.472-3.983-2.334-8.477-4.313-6.24-10.31.834-2.236,3.5-4.059,3.481-6.688-.023-3.495-2.519-1.012-4.813-2.787-1.9-1.47-.01-4.242-1.714-5.51a3.01,3.01,0,0,0-2.621,0,38.292,38.292,0,0,0-16.546,14.948C689,304.014,684.232,313.734,683.7,316.011Z" fill="#96d8ef"/>
                  <path id="Trazado_225707" data-name="Trazado 225707" d="M700.423,332.173c.161-.048.292-.1.414-.134a3.254,3.254,0,0,0,.7-.981Z" fill="#96d8ef"/>
                  <path id="Trazado_225708" data-name="Trazado 225708" d="M700.837,332.039c-1.417,1.325-3.38-.019-4.872,1.243-.6.51-1.426,5.568-.85,6.428,1.979,2.951,6.571-5.576,6.652-7.49A.91.91,0,0,0,700.837,332.039Z" fill="#96d8ef"/>
                  <path id="Trazado_225709" data-name="Trazado 225709" d="M750.243,359.065c-2.515,1.075-5.6.339-8.227,1.5-4.059,1.8-10.66,9.089-1.9,7.32,1.075-.218,2.435-1.071,3.434-.464a1.244,1.244,0,0,1,.408.432c1.115-.4,2.191-.85,3.257-1.317a43.852,43.852,0,0,0,10.945-7.033,2.926,2.926,0,0,0-2.809-2.663S753.053,357.863,750.243,359.065Z" fill="#96d8ef"/>
                  <path id="Trazado_225710" data-name="Trazado 225710" d="M761.17,350.007c-1.289,1.86.191,3.885.537,5.978.615-.684,1.212-1.385,1.783-2.111C763.705,351.856,762.992,349.677,761.17,350.007Z" fill="#96d8ef"/>
                  <path id="Trazado_225711" data-name="Trazado 225711" d="M756.433,343.04c-1.558,1.235-3.809.524-5.287,1.742a2.553,2.553,0,0,0,.822,4.395c3.192,1.3,3.067-1.85,3.963-3.635.391-.779,1.971-1.6,1.915-2.509C757.755,341.539,757.087,342.522,756.433,343.04Z" fill="#96d8ef"/>
                  <path id="Trazado_225712" data-name="Trazado 225712" d="M743.336,338.86c-.82,1.725.6,3.7.572,5.573-.013,1.02-.764,6.265,1.739,2.785.99-1.376.043-7.465-1.6-8.414A.52.52,0,0,0,743.336,338.86Z" fill="#96d8ef"/>
                  <path id="Trazado_225713" data-name="Trazado 225713" d="M761.964,335a3,3,0,0,0-1.9.181c.231,3.474-2.371,4.7.059,8.094,1.094-1.1,1.11-2.306,1.336-3.857.068-.462-.257-1.427-.229-1.938C761.282,336.59,762.173,336.15,761.964,335Z" fill="#96d8ef"/>
                  <path id="Trazado_225714" data-name="Trazado 225714" d="M719.664,307.867c-1.008-1.463-1.119-1.119-1.407-3-.33-2.163.441-4.1-.767-5.921a6.607,6.607,0,0,0-2.6-2.157l.026,0h-.033a2,2,0,0,0-1.814-.048c-1.724-.027-3.562.14-4.365,1.721-.666,1.31-.349,4.713-.685,6.408-1.319,6.665,2.89,6.688,8.29,6.688,1.865,0,5.266.92,5.03-1.686C721.258,309.016,720.094,308.492,719.664,307.867Z" fill="#96d8ef"/>
                  <path id="Trazado_225715" data-name="Trazado 225715" d="M751.58,290.6q1.869,1.044,3.611,2.242A9.475,9.475,0,0,0,751.58,290.6Z" fill="#96d8ef"/>
                  <path id="Trazado_225716" data-name="Trazado 225716" d="M748.421,291.28c-3.207,2.646.767,3.4.229,5.509-.314,1.234-1.906.927-2.82,1.123.2-.043-3.493.441-2.98.624a.24.24,0,0,1-.294.169c-.215-2.631-2.734-5.175-5.28-3.358-2.4-2.494,1.553-4.385,1.837-6.883-1.43-.064-3.167-.339-4.345.573-1.557,1.205-.783,2.648-2.795,3.232-.283.082-1.355-.782-2.012-.522-1.005.4-1.031,1.433-1.612,2.256-.861,1.22-1.678,3.149-2.847,4.173-1.282,1.123-2.04,2.2-2.855,0-.893-2.413,1.66-2.291,2.018-4.2.5-2.671-5.227-4.015-4.778.252-2.067.163-3.638-1.915-6.1-1.63-3.275.381-2.257,1.313.564,2.229,5.636,1.831,5.134,4.177,6.471,9.134,1.47,5.452,7.287,2.96,7.462,8.422.088,2.766.917,3.456,1.881,5.852,1.059,2.629.1,3.678-.5,6.116-.42,1.7-1.57,4.674.572,5.03,2.206-1.112,3.853-1.419,5.015-3.9.573-1.224-.232-1.737,1.117-2.584,1.134-.712,2.531.186,3.621.09,2.029-.177,3.911-1.966,5.845-.585,2.675,1.911.43,4.215.844,6.423s3.418,2.685,3.983,4.669c.6,2.1-3.088,3.09-2.6,5.084.979,4.032,2.652-1.941,3.064-2.3.7-.613,2.368-.047,2.882-.679.485-.6.289-2.636.211-3.425-.219-2.216-1.438-3.641,1.379-4.465,2.005-.587,4.544,1.539,6.416.57,2.948-1.527-.446-2.6-.787-4.242-.433-2.085,1.993-3.581,1.094-5.81,3.138-1.755,3.038,3.41,3.072,5.265,2.891.01.172-4.329-.11-5.747-.478-2.4.882-4.1.57-6.471-.573-4.354-2.959-10.774-6.09-13.716-1.176-1.106-2.8-3.113-4.571-4.711q-1.74-1.2-3.611-2.242A3.337,3.337,0,0,0,748.421,291.28Z" fill="#96d8ef"/>
                  <path id="Trazado_225717" data-name="Trazado 225717" d="M711.785,287.093c.81,1.417-1.407,3.545.621,4.121,1.2.341,1.329-1.116,2.243-1.341a8.992,8.992,0,0,1,2.215-.125c1.568-.043,2.911,1.1,3.934-.759a6.134,6.134,0,0,0-.828-.613c.117-1.273.774-1.7-.041-2.739a8.043,8.043,0,0,0-.85-.92,66.224,66.224,0,0,0-9.574,1.578C710.4,286.211,711.211,286.09,711.785,287.093Z" fill="#96d8ef"/>
                </g>
              </g>
            </g>
            <g id="Grupo_222167" data-name="Grupo 222167">
              <path id="Trazado_225718" data-name="Trazado 225718" d="M743.768,317.917a4.743,4.743,0,1,1-4.728-5.117A4.935,4.935,0,0,1,743.768,317.917Z" fill="#1a282e"/>
              <path id="Trazado_225719" data-name="Trazado 225719" d="M715.509,317.917a4.744,4.744,0,1,1-4.729-5.117A4.935,4.935,0,0,1,715.509,317.917Z" fill="#1a282e"/>
              <path id="Trazado_225720" data-name="Trazado 225720" d="M710.505,329.211h28.686s-2.853,15.673-14.48,15.673S710.505,329.211,710.505,329.211Z" fill="#1a282e"/>
              <path id="Trazado_225721" data-name="Trazado 225721" d="M724.848,329.211h-12c.71,1.591,1.435,3.175,2.213,4.734a1.477,1.477,0,0,0,1.321.812h16.932a1.476,1.476,0,0,0,1.321-.812c.778-1.559,1.5-3.143,2.213-4.734Z" fill="#fff"/>
              <path id="Trazado_225722" data-name="Trazado 225722" d="M734.4,339.978c-1.507-2.1-5.192-3.586-9.509-3.586-4.4,0-8.145,1.547-9.592,3.713a11.818,11.818,0,0,0,9.455,4.779A12.1,12.1,0,0,0,734.4,339.978Z" fill="#e4463b"/>
            </g>
            <g id="Grupo_222170" data-name="Grupo 222170">
              <g id="Grupo_222168" data-name="Grupo 222168">
                <path id="Trazado_225723" data-name="Trazado 225723" d="M697.529,362.954q-2.344.616-4.6,1.133a.785.785,0,0,0,.175,1.55.76.76,0,0,0,.176-.02q2.281-.522,4.654-1.145a.785.785,0,0,0-.4-1.518Z" fill="#feca2e"/>
                <path id="Trazado_225724" data-name="Trazado 225724" d="M706.63,360.27q-2.3.747-4.532,1.406a.784.784,0,0,0,.222,1.537.816.816,0,0,0,.222-.032q2.256-.664,4.574-1.418a.785.785,0,0,0-.486-1.493Z" fill="#feca2e"/>
                <path id="Trazado_225725" data-name="Trazado 225725" d="M688.29,365.048c-1.577.3-3.148.553-4.667.768a.785.785,0,0,0,.108,1.562,1.05,1.05,0,0,0,.111-.007c1.543-.218,3.137-.48,4.737-.781a.784.784,0,1,0-.289-1.542Z" fill="#feca2e"/>
                <path id="Trazado_225726" data-name="Trazado 225726" d="M715.585,357.115q-2.25.854-4.459,1.633a.785.785,0,0,0,.261,1.525.8.8,0,0,0,.262-.044q2.226-.789,4.492-1.645a.785.785,0,0,0-.556-1.469Z" fill="#feca2e"/>
                <path id="Trazado_225727" data-name="Trazado 225727" d="M678.932,366.343c-1.633.134-3.215.207-4.7.218a.785.785,0,0,0,.005,1.57h.006c1.526-.011,3.147-.086,4.818-.224a.785.785,0,1,0-.128-1.564Z" fill="#feca2e"/>
                <path id="Trazado_225728" data-name="Trazado 225728" d="M665.593,340.788a.783.783,0,0,0,.581-.256c1.015-1.115,2.12-2.257,3.282-3.394a.785.785,0,1,0-1.1-1.123c-1.184,1.159-2.31,2.323-3.346,3.459a.786.786,0,0,0,.58,1.314Z" fill="#feca2e"/>
                <path id="Trazado_225729" data-name="Trazado 225729" d="M657.2,356.411a14.7,14.7,0,0,1,1.109-4.358.785.785,0,0,0-1.455-.592,16.314,16.314,0,0,0-1.219,4.828.784.784,0,0,0,.722.843.426.426,0,0,0,.061,0A.785.785,0,0,0,657.2,356.411Z" fill="#feca2e"/>
                <path id="Trazado_225730" data-name="Trazado 225730" d="M766.049,289.627a.837.837,0,0,0,.11-.008c1.609-.227,3.188-.4,4.691-.529a.784.784,0,0,0,.718-.846.8.8,0,0,0-.847-.717c-1.533.125-3.142.308-4.781.538a.785.785,0,0,0,.109,1.562Z" fill="#feca2e"/>
                <path id="Trazado_225731" data-name="Trazado 225731" d="M724.389,353.552q-2.2.947-4.383,1.828a.785.785,0,0,0,.294,1.513.8.8,0,0,0,.294-.057q2.195-.889,4.414-1.843a.784.784,0,1,0-.619-1.441Z" fill="#feca2e"/>
                <path id="Trazado_225732" data-name="Trazado 225732" d="M676.62,329.724a.784.784,0,0,0-1.1-.106q-1.9,1.566-3.645,3.122a.785.785,0,0,0,1.045,1.171q1.719-1.535,3.6-3.081A.785.785,0,0,0,676.62,329.724Z" fill="#feca2e"/>
                <path id="Trazado_225733" data-name="Trazado 225733" d="M669.555,366.362a27.544,27.544,0,0,1-4.555-.813.786.786,0,0,0-.417,1.515,29.117,29.117,0,0,0,4.817.858.683.683,0,0,0,.078.005.784.784,0,0,0,.077-1.565Z" fill="#feca2e"/>
                <path id="Trazado_225734" data-name="Trazado 225734" d="M661.894,343.154a45.61,45.61,0,0,0-2.79,3.965.784.784,0,1,0,1.333.827,44.281,44.281,0,0,1,2.694-3.826.785.785,0,0,0-1.237-.966Z" fill="#feca2e"/>
                <path id="Trazado_225735" data-name="Trazado 225735" d="M660.855,363.777a8.014,8.014,0,0,1-2.918-3.142.785.785,0,0,0-1.406.7A9.565,9.565,0,0,0,660,365.1a.785.785,0,0,0,.852-1.319Z" fill="#feca2e"/>
                <path id="Trazado_225736" data-name="Trazado 225736" d="M780.336,318.318c-1.081,1.056-2.245,2.141-3.461,3.225a.784.784,0,1,0,1.044,1.171c1.234-1.1,2.416-2.2,3.514-3.274a.785.785,0,1,0-1.1-1.122Z" fill="#feca2e"/>
                <path id="Trazado_225737" data-name="Trazado 225737" d="M773.277,324.623q-1.786,1.472-3.71,2.952a.785.785,0,0,0,.957,1.245q1.945-1.5,3.751-2.986a.785.785,0,1,0-1-1.211Z" fill="#feca2e"/>
                <path id="Trazado_225738" data-name="Trazado 225738" d="M765.763,330.411q-1.89,1.366-3.885,2.729a.785.785,0,0,0,.886,1.3q2.012-1.376,3.919-2.754a.785.785,0,1,0-.92-1.272Z" fill="#feca2e"/>
                <path id="Trazado_225739" data-name="Trazado 225739" d="M786.666,311.338c-.914,1.168-1.939,2.375-3.046,3.589a.785.785,0,0,0,1.161,1.057c1.132-1.241,2.182-2.48,3.121-3.677a.785.785,0,0,0-1.236-.969Z" fill="#feca2e"/>
                <path id="Trazado_225740" data-name="Trazado 225740" d="M790.019,291.394a.783.783,0,0,0-.237-1.083,16.613,16.613,0,0,0-4.584-1.955.785.785,0,0,0-.414,1.515,15.053,15.053,0,0,1,4.151,1.761.784.784,0,0,0,1.084-.238Z" fill="#feca2e"/>
                <path id="Trazado_225741" data-name="Trazado 225741" d="M793.3,294.129l-.034-.069a.755.755,0,0,0-1.034-.317.818.818,0,0,0-.338,1.084,7.685,7.685,0,0,1,.753,3.42c0,.265-.011.533-.034.808a.784.784,0,0,0,.72.844l.064,0a.786.786,0,0,0,.782-.722q.037-.475.038-.933A9.25,9.25,0,0,0,793.3,294.129Z" fill="#feca2e"/>
                <path id="Trazado_225742" data-name="Trazado 225742" d="M792.523,302.982a.784.784,0,0,0-1.024.431,27.419,27.419,0,0,1-2.135,4.1.785.785,0,1,0,1.332.831,29.087,29.087,0,0,0,2.257-4.34A.784.784,0,0,0,792.523,302.982Z" fill="#feca2e"/>
                <path id="Trazado_225743" data-name="Trazado 225743" d="M780.3,289.069a.785.785,0,0,0,.077-1.567c-1.38-.136-2.868-.205-4.431-.205l-.414,0a.785.785,0,0,0,.008,1.57h.009l.4,0c1.5,0,2.94.067,4.268.2Z" fill="#feca2e"/>
                <path id="Trazado_225744" data-name="Trazado 225744" d="M741.524,345.351q-2.082,1.1-4.221,2.177a.786.786,0,0,0,.705,1.4q2.152-1.083,4.251-2.2a.784.784,0,1,0-.735-1.386Z" fill="#feca2e"/>
                <path id="Trazado_225745" data-name="Trazado 225745" d="M733.039,349.622q-2.16,1.035-4.306,2.01a.785.785,0,0,0,.326,1.5.777.777,0,0,0,.324-.071q2.159-.981,4.333-2.022a.785.785,0,1,0-.677-1.416Z" fill="#feca2e"/>
                <path id="Trazado_225746" data-name="Trazado 225746" d="M749.831,340.737q-2.031,1.184-4.129,2.352a.784.784,0,1,0,.763,1.37q2.112-1.173,4.157-2.367a.784.784,0,0,0-.791-1.355Z" fill="#feca2e"/>
                <path id="Trazado_225747" data-name="Trazado 225747" d="M762.117,289.467a.785.785,0,0,0-.917-.625q-2.291.432-4.7.98a.784.784,0,0,0,.174,1.549.761.761,0,0,0,.176-.02q2.371-.54,4.636-.967A.785.785,0,0,0,762.117,289.467Z" fill="#feca2e"/>
                <path id="Trazado_225748" data-name="Trazado 225748" d="M757.924,335.766q-1.967,1.271-4.018,2.529a.785.785,0,0,0,.411,1.455.769.769,0,0,0,.409-.117q2.067-1.266,4.05-2.549a.785.785,0,0,0-.852-1.318Z" fill="#feca2e"/>
              </g>
              <g id="Grupo_222169" data-name="Grupo 222169">
                <path id="Trazado_225749" data-name="Trazado 225749" d="M684.056,330.411a.785.785,0,1,0-.919,1.272q1.9,1.38,3.919,2.754a.785.785,0,0,0,.886-1.3Q685.947,331.778,684.056,330.411Z" fill="#feca2e"/>
                <path id="Trazado_225750" data-name="Trazado 225750" d="M676.543,324.623a.785.785,0,1,0-1,1.211q1.8,1.489,3.751,2.986a.785.785,0,0,0,.956-1.245Q678.331,326.1,676.543,324.623Z" fill="#feca2e"/>
                <path id="Trazado_225751" data-name="Trazado 225751" d="M693.141,291.371a.784.784,0,0,0,.174-1.549q-2.4-.551-4.7-.98a.785.785,0,1,0-.291,1.542q2.262.428,4.636.967A.755.755,0,0,0,693.141,291.371Z" fill="#feca2e"/>
                <path id="Trazado_225752" data-name="Trazado 225752" d="M721.086,351.632q-2.144-.978-4.3-2.01a.785.785,0,1,0-.678,1.416q2.175,1.039,4.333,2.022a.784.784,0,1,0,.65-1.428Z" fill="#feca2e"/>
                <path id="Trazado_225753" data-name="Trazado 225753" d="M712.517,347.528q-2.139-1.074-4.222-2.177a.784.784,0,1,0-.734,1.386q2.1,1.11,4.251,2.2a.786.786,0,0,0,.705-1.4Z" fill="#feca2e"/>
                <path id="Trazado_225754" data-name="Trazado 225754" d="M674.283,287.3l-.422,0c-1.556,0-3.043.069-4.423.205a.785.785,0,0,0,.077,1.567l.078,0c1.328-.132,2.765-.2,4.259-.2l.414,0h.009a.785.785,0,0,0,.008-1.57Z" fill="#feca2e"/>
                <path id="Trazado_225755" data-name="Trazado 225755" d="M704.118,343.089q-2.1-1.168-4.129-2.352a.784.784,0,0,0-.791,1.355q2.044,1.194,4.157,2.367a.784.784,0,1,0,.763-1.37Z" fill="#feca2e"/>
                <path id="Trazado_225756" data-name="Trazado 225756" d="M695.914,338.3q-2.052-1.256-4.018-2.529a.785.785,0,1,0-.852,1.318q1.981,1.281,4.05,2.549a.767.767,0,0,0,.409.117.785.785,0,0,0,.411-1.455Z" fill="#feca2e"/>
                <path id="Trazado_225757" data-name="Trazado 225757" d="M657.2,299.055c-.022-.275-.033-.543-.033-.808a7.682,7.682,0,0,1,.751-3.416l.034-.069-.7-.351-.739-.277a9.251,9.251,0,0,0-.914,4.113q0,.457.038.933a.785.785,0,0,0,.782.722l.064,0A.783.783,0,0,0,657.2,299.055Z" fill="#feca2e"/>
                <path id="Trazado_225758" data-name="Trazado 225758" d="M678.97,289.09c1.5.124,3.081.3,4.691.529a.825.825,0,0,0,.11.008.785.785,0,0,0,.109-1.562c-1.639-.23-3.248-.413-4.781-.538a.8.8,0,0,0-.847.717A.784.784,0,0,0,678.97,289.09Z" fill="#feca2e"/>
                <path id="Trazado_225759" data-name="Trazado 225759" d="M783.646,340.532a.785.785,0,0,0,1.16-1.058c-1.035-1.136-2.161-2.3-3.345-3.459a.785.785,0,0,0-1.1,1.123C781.526,338.275,782.631,339.417,783.646,340.532Z" fill="#feca2e"/>
                <path id="Trazado_225760" data-name="Trazado 225760" d="M669.484,318.318a.785.785,0,0,0-1.1,1.122c1.1,1.073,2.281,2.175,3.515,3.274a.776.776,0,0,0,.522.2.784.784,0,0,0,.522-1.37C671.729,320.459,670.565,319.374,669.484,318.318Z" fill="#feca2e"/>
                <path id="Trazado_225761" data-name="Trazado 225761" d="M663.154,311.338a.785.785,0,0,0-1.236.969c.938,1.2,1.988,2.436,3.121,3.677a.785.785,0,0,0,1.161-1.057C665.093,313.713,664.068,312.506,663.154,311.338Z" fill="#feca2e"/>
                <path id="Trazado_225762" data-name="Trazado 225762" d="M665.586,288.906a.79.79,0,0,0-.964-.55,16.633,16.633,0,0,0-4.585,1.955.785.785,0,0,0,.848,1.321,15.039,15.039,0,0,1,4.151-1.761A.787.787,0,0,0,665.586,288.906Z" fill="#feca2e"/>
                <path id="Trazado_225763" data-name="Trazado 225763" d="M658.32,303.413a.784.784,0,1,0-1.453.591,29.087,29.087,0,0,0,2.257,4.34.785.785,0,1,0,1.332-.831A27.516,27.516,0,0,1,658.32,303.413Z" fill="#feca2e"/>
                <path id="Trazado_225764" data-name="Trazado 225764" d="M775.589,366.561c-1.486-.011-3.068-.084-4.7-.218a.785.785,0,1,0-.129,1.564c1.672.138,3.293.213,4.819.224h.006a.785.785,0,0,0,.005-1.57Z" fill="#feca2e"/>
                <path id="Trazado_225765" data-name="Trazado 225765" d="M774.3,329.618a.785.785,0,0,0-1,1.212q1.876,1.547,3.6,3.081a.785.785,0,1,0,1.045-1.171Q776.208,331.187,774.3,329.618Z" fill="#feca2e"/>
                <path id="Trazado_225766" data-name="Trazado 225766" d="M766.2,365.816c-1.52-.215-3.09-.472-4.667-.768a.785.785,0,0,0-.29,1.542c1.6.3,3.2.563,4.738.781a1.031,1.031,0,0,0,.11.007.785.785,0,0,0,.109-1.562Z" fill="#feca2e"/>
                <path id="Trazado_225767" data-name="Trazado 225767" d="M784.82,365.549a27.582,27.582,0,0,1-4.555.813.784.784,0,0,0,.077,1.565.683.683,0,0,0,.078-.005,29.135,29.135,0,0,0,4.817-.858.786.786,0,0,0-.417-1.515Z" fill="#feca2e"/>
                <path id="Trazado_225768" data-name="Trazado 225768" d="M790.05,348.317a.784.784,0,0,0,.666-1.2,45.61,45.61,0,0,0-2.79-3.965.785.785,0,0,0-1.237.966,44.047,44.047,0,0,1,2.693,3.826A.785.785,0,0,0,790.05,348.317Z" fill="#feca2e"/>
                <path id="Trazado_225769" data-name="Trazado 225769" d="M792.934,360.281a.786.786,0,0,0-1.051.354,8.029,8.029,0,0,1-2.918,3.142.785.785,0,0,0,.852,1.319,9.556,9.556,0,0,0,3.471-3.762A.784.784,0,0,0,792.934,360.281Z" fill="#feca2e"/>
                <path id="Trazado_225770" data-name="Trazado 225770" d="M792.968,351.461a.785.785,0,0,0-1.455.592,14.692,14.692,0,0,1,1.108,4.358.786.786,0,0,0,.782.724.434.434,0,0,0,.062,0,.785.785,0,0,0,.722-.843A16.316,16.316,0,0,0,792.968,351.461Z" fill="#feca2e"/>
                <path id="Trazado_225771" data-name="Trazado 225771" d="M738.694,358.748q-2.208-.78-4.459-1.633a.785.785,0,0,0-.556,1.469q2.265.856,4.492,1.645a.8.8,0,0,0,.261.044.785.785,0,0,0,.262-1.525Z" fill="#feca2e"/>
                <path id="Trazado_225772" data-name="Trazado 225772" d="M729.814,355.38q-2.177-.881-4.383-1.828a.784.784,0,1,0-.62,1.441q2.22.955,4.415,1.843a.8.8,0,0,0,.294.057.785.785,0,0,0,.294-1.513Z" fill="#feca2e"/>
                <path id="Trazado_225773" data-name="Trazado 225773" d="M747.722,361.676q-2.235-.66-4.532-1.406a.785.785,0,1,0-.486,1.493q2.318.752,4.574,1.418a.816.816,0,0,0,.222.032.784.784,0,0,0,.222-1.537Z" fill="#feca2e"/>
                <path id="Trazado_225774" data-name="Trazado 225774" d="M756.894,364.087q-2.258-.518-4.6-1.133a.785.785,0,0,0-.4,1.518q2.371.626,4.653,1.145a.768.768,0,0,0,.177.02.785.785,0,0,0,.174-1.55Z" fill="#feca2e"/>
              </g>
            </g>
            <g id="Grupo_222171" data-name="Grupo 222171">
              <path id="Trazado_225775" data-name="Trazado 225775" d="M729.107,261.29l-16.666.4a1.625,1.625,0,0,0-1.693,1.739L712.5,275.1a1.644,1.644,0,0,0,1.723,1.305l6.015-.118a5.436,5.436,0,0,0,7.112,3.511c-2.235-.713-3.152-1.875-3.37-3.61l4.146-.055a1.685,1.685,0,0,0,1.717-1.436l1.019-11.794A1.6,1.6,0,0,0,729.107,261.29Z" fill="#feca2e"/>
              <path id="Trazado_225776" data-name="Trazado 225776" d="M721.28,266.462a2.6,2.6,0,0,0-3.93-.819c-2.5,1.826-.568,4.322.843,5.169,1.426.855,2.757,1.833,2.93,2.322a10.305,10.305,0,0,1,1.63-1.269c1.131-.837,2.563-1.6,3.295-2.924a2.5,2.5,0,0,0-.575-3.365A2.833,2.833,0,0,0,721.28,266.462Z" fill="#0f2771"/>
            </g>
            <g id="Grupo_222174" data-name="Grupo 222174">
              <path id="Trazado_225777" data-name="Trazado 225777" d="M660.889,320.024l-16.667.4a1.625,1.625,0,0,0-1.692,1.739l1.748,11.672a1.643,1.643,0,0,0,1.723,1.3l6.015-.118a5.435,5.435,0,0,0,7.111,3.511c-2.234-.713-3.151-1.875-3.37-3.61l4.147-.055a1.686,1.686,0,0,0,1.717-1.436l1.019-11.794A1.6,1.6,0,0,0,660.889,320.024Z" fill="#feca2e"/>
              <g id="Grupo_222173" data-name="Grupo 222173">
                <path id="Trazado_225778" data-name="Trazado 225778" d="M656.912,324.853a1.068,1.068,0,1,1-1.065-1.153A1.111,1.111,0,0,1,656.912,324.853Z" fill="#0f2771"/>
                <path id="Trazado_225779" data-name="Trazado 225779" d="M650.546,324.853a1.069,1.069,0,1,1-1.065-1.153A1.112,1.112,0,0,1,650.546,324.853Z" fill="#0f2771"/>
                <g id="Grupo_222172" data-name="Grupo 222172">
                  <path id="Trazado_225780" data-name="Trazado 225780" d="M652.823,331.729a4.415,4.415,0,0,1-4.307-3.128.489.489,0,0,1,.943-.262,3.437,3.437,0,0,0,3.364,2.412,2.9,2.9,0,0,0,3.033-2.357.49.49,0,0,1,.967.153A3.884,3.884,0,0,1,652.823,331.729Z" fill="#0f2771"/>
                </g>
              </g>
            </g>
            <g id="Grupo_222175" data-name="Grupo 222175">
              <path id="Trazado_225781" data-name="Trazado 225781" d="M800.485,313.833c-6.857,0-12.416,3.886-12.416,8.681,0,2.955,2.116,5.561,5.341,7.129.4,3.44-3.266,4.467-3.266,4.467,2.434.317,5.991.811,7.929-3.1.591.06,1.8.184,2.412.184,6.857,0,12.416-3.887,12.416-8.681S807.342,313.833,800.485,313.833Z" fill="#feca2e"/>
              <path id="Trazado_225782" data-name="Trazado 225782" d="M795.39,320.5a28.014,28.014,0,0,0,.2,5.107,23.369,23.369,0,0,1,4.227,0c2.008.223,4.932,1.191,6.173,0s1.227-4.5,0-5.5-3.458.26-3.9,0,.628-2.269-.486-3.161-2.08-.893-2.1-.223.159,3.506-.186,3.607A10.05,10.05,0,0,1,795.39,320.5Z" fill="#0f2771"/>
            </g>
          </g>
        </g>
        <g id="Grupo_222182" data-name="Grupo 222182" transform="translate(-4311.857 -11167.911)">
          <g id="Grupo_222181" data-name="Grupo 222181">
            <path id="Trazado_225815" data-name="Trazado 225815" d="M1154.11,331.386c-8.217-2.178-15.8,23.96-17.667,26.448-1.444,1.926-16.819,3.5-23.692,4.109a11.812,11.812,0,0,1-1.051,5.2c20.382,1.975,29.56.163,32.505-3.625C1147.3,359.54,1161.675,333.391,1154.11,331.386Z" fill="#f89470"/>
            <path id="Trazado_225816" data-name="Trazado 225816" d="M1154.11,331.386c-8.217-2.178-15.8,23.96-17.667,26.448-1.444,1.926-16.819,3.5-23.692,4.109a11.812,11.812,0,0,1-1.051,5.2c20.382,1.975,29.56.163,32.505-3.625C1147.3,359.54,1161.675,333.391,1154.11,331.386Z" fill="#eb7768"/>
            <path id="Trazado_225817" data-name="Trazado 225817" d="M1158.952,299s-2.282,1.431-6.526-.886c0,0-9.95,6.728-15.495,1.584-5.588-5.183-1.278-13.89,7.5-14.648,8.835-.762,8.952,3.6,12.722,2.906s12.628-2.049,16.737,6.711c4.045,8.625.516,12.522-.659,18.259-1.161,5.664.071,6.072,2.633,9.683,2.547,3.589,9.4,20.715-5.284,21.507-14.536.785-15.486-11.458-17.368-17.959-1.907-6.586-2.522-16.284-.081-18.422C1155.588,305.585,1158.952,299,1158.952,299Z" fill="#1a282e"/>
            <path id="Trazado_225818" data-name="Trazado 225818" d="M1160.32,305.838s-3.317,21.893,3.815,27.2c0,0-4.367,6.524-10.449,6.855s-6.8-6.29-5.56-7.412c1.52-1.381,3.144-4.146,2.823-9.61C1150.369,312.969,1156.672,305.091,1160.32,305.838Z" fill="#f89470"/>
            <path id="Trazado_225819" data-name="Trazado 225819" d="M1160.917,327.9a25.212,25.212,0,0,1-2.956,1.581,13.768,13.768,0,0,1-8.179.743,14.4,14.4,0,0,0,1.167-7.352c-.58-9.9,5.723-17.781,9.371-17.034C1160.32,305.838,1158.247,319.548,1160.917,327.9Z" fill="#eb7768"/>
            <path id="Trazado_225820" data-name="Trazado 225820" d="M1154.349,291.988s-10.034-1.41-13.1,1.908-3.4,8.458-3.731,12.937c-.122,1.646-.959,4.131-1.2,7.158-.418,5.206,1.513,10.058,4.509,10.736,4.569,1.034,12.641-1.813,16.591-8.954,0,0,5.07-.546,6.231-5.273s-3.652-3.882-5.24-1.129C1158.4,309.371,1162.145,295.637,1154.349,291.988Z" fill="#f89470"/>
            <path id="Trazado_225821" data-name="Trazado 225821" d="M1137.825,309.24a1.5,1.5,0,1,0,1.5-1.621A1.564,1.564,0,0,0,1137.825,309.24Z" fill="#1a282e"/>
            <path id="Trazado_225822" data-name="Trazado 225822" d="M1144.787,310.223a1.615,1.615,0,1,0,1.609-1.742A1.68,1.68,0,0,0,1144.787,310.223Z" fill="#1a282e"/>
            <path id="Trazado_225823" data-name="Trazado 225823" d="M1151.322,307.813a.4.4,0,0,1-.369-.041,9.244,9.244,0,0,0-2.474-1.181c-1.162-.286-2.912-.142-3.3-.347-.682-.365-.624-1.573-.081-1.713a13.13,13.13,0,0,1,3.722.414C1150.234,305.638,1151.618,306.8,1151.322,307.813Z" fill="#1a282e"/>
            <path id="Trazado_225824" data-name="Trazado 225824" d="M1140.707,303.79a6.58,6.58,0,0,0-2.934-.09,5.5,5.5,0,0,0-.211,1.738,13.692,13.692,0,0,1,2.658,0C1140.969,305.242,1141.2,304.055,1140.707,303.79Z" fill="#1a282e"/>
            <path id="Trazado_225825" data-name="Trazado 225825" d="M1148.006,332.588s-.7,4.192,4.464,3.215c2.121-.4,9.779-4.9,9.779-4.9s5.329,3.126,6.89,4.687c2.274,2.274.221,11.866,0,12.419a67.335,67.335,0,0,0-2.085,16.116c-.021,4.964,1.582,10.472,2.085,13.471,0,0-18.508,2.875-28.535.11a54.112,54.112,0,0,0,2.7-17.234,19.805,19.805,0,0,0-1.875-7.534c-2.714-6.506-.073-10.383,2.2-14.378A31.285,31.285,0,0,1,1148.006,332.588Z" fill="#0f2771"/>
            <g id="Grupo_222179" data-name="Grupo 222179">
              <path id="Trazado_225826" data-name="Trazado 225826" d="M1114.076,346.312l7.9,22.492-2,.96-13.36-1.661-9.542-22.7,2.21-1.249Z" fill="#9e9c92"/>
              <path id="Trazado_225827" data-name="Trazado 225827" d="M1114.076,346.312l7.9,22.492-2,.96-7.4-22.2-15.5-2.161,2.21-1.249Z" fill="#b8b6ab"/>
              <path id="Trazado_225828" data-name="Trazado 225828" d="M1114.076,346.312l7.9,22.492-2,.96-7.4-22.2Z" fill="#c5c3ba"/>
            </g>
            <path id="Trazado_225829" data-name="Trazado 225829" d="M1104.265,366.5a10.143,10.143,0,0,1-1.278-2.264,5.827,5.827,0,0,1,.115-4.383l.774,1.284s4.041-1.617,4.511-.649-3.368,2.543-3.368,2.543,4.325-1.769,4.988-.8c.517.753-2.459,2.029-3.765,2.829,0,0,3.762-1.682,4.28-.873s-3.291,2.513-3.291,2.513,2.365-1.036,2.735-.426c.705,1.161-1.912,1.79-1.912,1.79C1106.688,369.05,1105.133,367.69,1104.265,366.5Z" fill="#f89470"/>
            <path id="Trazado_225830" data-name="Trazado 225830" d="M1168.847,335.121c-8.217-2.179-15.8,23.96-17.667,26.448s-26.984,4.385-26.984,4.385a3.375,3.375,0,0,1-1.486-.7c-.373-.456-.877-2.482-1.333-3.312s-1.767-1.946-2.444-1.809l.92,2.618s.923,1.874-.37,1.712-4.271-2.868-5.522-1.946c-.788.581,1.742,2.127,3.774,3.007,0,0-4.417-1.572-4.541-.66-.1.76,1.62,1.946,3.445,2.3-1.249-.085-3.143-.094-3.333.608-.141.518.219,1.689,3.993,1.337,0,0-2.656.183-2.011,1.372.253.466,2.756.291,4.561-.063a13.625,13.625,0,0,1,3.428.136h0c.212.03.345.051.345.051v-.014c22.366,2.424,32.24.62,35.318-3.338C1162.036,363.274,1176.411,337.126,1168.847,335.121Z" fill="#f89470"/>
            <path id="Trazado_225831" data-name="Trazado 225831" d="M1102.491,295.5c14.711,0,26.635,8.338,26.635,18.623,0,6.339-4.538,11.93-11.458,15.293,2.3,4.329,3.673,9.143-1.77,17.021,0,0,1.285-10.684-8.233-14.086-1.268.13-3.855.394-5.174.394-14.71,0-26.634-8.337-26.634-18.622S1087.781,295.5,1102.491,295.5Z" fill="#bddcf6"/>
            <path id="Trazado_225832" data-name="Trazado 225832" d="M1159.379,287.811l-.216-.03a3.953,3.953,0,0,0-1.154.028c-.307.05-.6.1-.855.148-3.77.689-3.887-3.668-12.722-2.906-8.779.758-13.089,9.465-7.5,14.648,4.754,4.41,12.746.093,14.93-1.228a3.993,3.993,0,0,1,.6-.291c.345.649,3.4,6.475,3.4,9.137,0,2.821-.131,4.723.328,4.788s1.247-.721,1.509-1.115a7.936,7.936,0,0,1,3.116-3.632C1161.907,306.771,1162.278,288.237,1159.379,287.811Z" fill="#1a282e"/>
            <path id="Trazado_225833" data-name="Trazado 225833" d="M1161.51,308.986a1.985,1.985,0,0,0-1.518.42c-1.128.908-2.262,3.2-1.261,3.737.824.445,1.547.159,1.713-.628.148-.7-.286-1.249-.128-1.755A4.791,4.791,0,0,1,1161.51,308.986Z" fill="#cf6543"/>
            <g id="Grupo_222180" data-name="Grupo 222180">
              <path id="Trazado_225834" data-name="Trazado 225834" d="M1141.539,315.773l-.052,0c-1.125-.111-2.461-.633-2.721-1.385a.759.759,0,0,1,.193-.816,14.067,14.067,0,0,0,2.355-3.145.525.525,0,0,1,.93.486,15.108,15.108,0,0,1-2.373,3.234,3.616,3.616,0,0,0,1.718.581.525.525,0,0,1-.05,1.047Z" fill="#cf6543"/>
            </g>
            <path id="Trazado_225835" data-name="Trazado 225835" d="M1145.566,317.77a31.088,31.088,0,0,1-3.683-.036c-.308-.15-.615-.374-.818-.364a1.574,1.574,0,0,0-.725.315,1.926,1.926,0,0,0-.4-.527,9.232,9.232,0,0,0-1.883-.563h0a12.365,12.365,0,0,0,.159,1.386,5.451,5.451,0,0,0,.357,1.277,3.643,3.643,0,0,0,.631.985c.7.737,1.55.676,2.7.361a1.988,1.988,0,0,0,.316-.126A12.636,12.636,0,0,0,1145.566,317.77Z" fill="#e4463b"/>
          </g>
        </g>
        <g id="Grupo_222201" data-name="Grupo 222201" transform="translate(-4642.965 -10971.66)">
          <g id="Grupo_222200" data-name="Grupo 222200">
            <g id="Grupo_222196" data-name="Grupo 222196">
              <path id="Trazado_225836" data-name="Trazado 225836" d="M1038.883,316.605H969.3a1.482,1.482,0,0,1-1.49-1.444l-.645-48.3a1.474,1.474,0,0,1,1.478-1.5h70.9a1.474,1.474,0,0,1,1.478,1.5l-.645,48.3A1.482,1.482,0,0,1,1038.883,316.605Z" fill="#1a282e"/>
              <path id="Trazado_225837" data-name="Trazado 225837" d="M1037.509,291.222a1.424,1.424,0,0,1-1.427,1.4,1.383,1.383,0,0,1-1.393-1.4,1.422,1.422,0,0,1,1.426-1.4A1.384,1.384,0,0,1,1037.509,291.222Z" fill="#818181"/>
              <path id="Trazado_225838" data-name="Trazado 225838" d="M1031.856,312.28H973.748l-.473-42.444h59.014Z" fill="#0b0b0b"/>
              <path id="Trazado_225839" data-name="Trazado 225839" d="M1030.909,311.594H974.694l-.443-41.051h57.062Z" fill="#f2f3ed"/>
              <g id="Grupo_222187" data-name="Grupo 222187" opacity="0.75" style="mix-blend-mode: screen;isolation: isolate">
                <g id="Grupo_222186" data-name="Grupo 222186">
                  <g id="Grupo_222183" data-name="Grupo 222183" opacity="0.75" style="mix-blend-mode: screen;isolation: isolate">
                    <path id="Trazado_225840" data-name="Trazado 225840" d="M984,312.265c-4.838-4.366-9.663-8.784-14.632-13.07l.188,14.812a1.409,1.409,0,0,0,1.417,1.375h16.546C986.338,314.35,985.161,313.314,984,312.265Z" fill="#8a8c8e"/>
                  </g>
                  <g id="Grupo_222184" data-name="Grupo 222184" opacity="0.75" style="mix-blend-mode: screen;isolation: isolate">
                    <path id="Trazado_225841" data-name="Trazado 225841" d="M1038.888,293.282l.32-25.23a1.4,1.4,0,0,0-1.406-1.423h-33.41C1011.142,271.833,1034.189,289.514,1038.888,293.282Z" fill="#8a8c8e"/>
                  </g>
                  <g id="Grupo_222185" data-name="Grupo 222185" opacity="0.75" style="mix-blend-mode: screen;isolation: isolate">
                    <path id="Trazado_225842" data-name="Trazado 225842" d="M978.825,266.629h-8.448a1.4,1.4,0,0,0-1.406,1.423l.141,11.109c3.055,2.253,36.67,31.524,41.993,36.221h26.1a1.409,1.409,0,0,0,1.417-1.375l.007-.556C1030.552,306.271,983.007,269.631,978.825,266.629Z" fill="#8a8c8e"/>
                  </g>
                </g>
              </g>
              <g id="Grupo_222192" data-name="Grupo 222192">
                <g id="Grupo_222191" data-name="Grupo 222191" clip-path="url(#clip-path)">
                  <circle id="Elipse_16273" data-name="Elipse 16273" cx="8.54" cy="8.54" r="8.54" transform="translate(976.897 272.164)" fill="#06a3da"/>
                  <g id="Grupo_222190" data-name="Grupo 222190">
                    <path id="Trazado_225843" data-name="Trazado 225843" d="M986.8,283.762c-.954-.363-.738-2.619-.738-2.619l-.764.106-.764-.106s.215,2.256-.738,2.619a1.476,1.476,0,0,0,1.493.771h.018A1.476,1.476,0,0,0,986.8,283.762Z" fill="#f89470"/>
                    <path id="Trazado_225844" data-name="Trazado 225844" d="M984.323,283.169a1.882,1.882,0,0,0,1.982.079,5.027,5.027,0,0,1-.245-2.1l-.764.106-.764-.106A5.223,5.223,0,0,1,984.323,283.169Z" fill="#eb7768"/>
                    <path id="Trazado_225845" data-name="Trazado 225845" d="M982.977,278.359s-.571-.479-.918-.074-.1,1.1,1.213,1.617Z" fill="#f89470"/>
                    <path id="Trazado_225846" data-name="Trazado 225846" d="M987.654,278.359s.572-.479.919-.074.1,1.1-1.213,1.617Z" fill="#f89470"/>
                    <path id="Trazado_225847" data-name="Trazado 225847" d="M987.733,275.585c-.519-.97-2.437-.762-2.437-.762s-1.918-.208-2.437.762-.139,3.952.208,4.67a2.292,2.292,0,0,0,4.458,0C987.872,279.537,988.253,276.555,987.733,275.585Z" fill="#f89470"/>
                    <path id="Trazado_225848" data-name="Trazado 225848" d="M987.812,275.94c-.124,0-.361-.167-.452-.138,0,0,.351.606.37.675a8.436,8.436,0,0,1-.48,3.043.91.91,0,0,0,.4.165,7.989,7.989,0,0,0,.823-2.263,2.841,2.841,0,0,0,.156-1.25C988.468,276.2,988,275.94,987.812,275.94Z" fill="#1a282e"/>
                    <ellipse id="Elipse_16274" data-name="Elipse 16274" cx="0.32" cy="0.347" rx="0.32" ry="0.347" transform="translate(985.933 277.975)" fill="#1a282e"/>
                    <ellipse id="Elipse_16275" data-name="Elipse 16275" cx="0.32" cy="0.347" rx="0.32" ry="0.347" transform="translate(984.018 277.975)" fill="#1a282e"/>
                    <g id="Grupo_222188" data-name="Grupo 222188">
                      <path id="Trazado_225849" data-name="Trazado 225849" d="M985.225,279.6a.732.732,0,0,1-.184-.019c-.134-.037-.162-.121-.166-.168a.1.1,0,0,1,.093-.114.1.1,0,0,1,.113.094,1.318,1.318,0,0,0,.5-.05,7.353,7.353,0,0,0-.358-.872.1.1,0,0,1,.189-.088c.449.963.4,1.032.359,1.082A.907.907,0,0,1,985.225,279.6Z" fill="#cf6543"/>
                    </g>
                    <path id="Trazado_225850" data-name="Trazado 225850" d="M984.429,279.923h1.734s-.172.842-.875.842S984.429,279.923,984.429,279.923Z" fill="#fff"/>
                    <path id="Trazado_225851" data-name="Trazado 225851" d="M987.16,277.559a10.2,10.2,0,0,1-1.221,0c-.2-.048-.105-.517.229-.505S987.512,277.291,987.16,277.559Z" fill="#1a282e"/>
                    <path id="Trazado_225852" data-name="Trazado 225852" d="M983.432,277.559a10.205,10.205,0,0,0,1.221,0c.2-.048.1-.517-.229-.505S983.08,277.291,983.432,277.559Z" fill="#1a282e"/>
                    <path id="Trazado_225853" data-name="Trazado 225853" d="M985.9,273.817c-2.091,0-2.261.8-2.263.805a2.191,2.191,0,0,0-.913.186c-.824.457-.752,1.238-.5,2.579a5.513,5.513,0,0,0,.706,2.3.91.91,0,0,0,.4-.165,5.163,5.163,0,0,1-.277-2.588c.266-1.372,3.646-.888,4.287-.507a1.273,1.273,0,0,1,.584,1.13C989.545,277.016,988.29,273.817,985.9,273.817Z" fill="#1a282e"/>
                    <g id="Grupo_222189" data-name="Grupo 222189">
                      <path id="Trazado_225854" data-name="Trazado 225854" d="M989.165,283.884a16.791,16.791,0,0,1-2.412-.141,2.181,2.181,0,0,1-1.479.522,2.23,2.23,0,0,1-1.48-.509,16.631,16.631,0,0,1-2.331.128c-.785-.052-1.414,2.787-1.356,5.762l5.186.047h.042l5.186-.047C990.579,286.671,989.95,283.832,989.165,283.884Z" fill="#feca2e"/>
                      <path id="Trazado_225855" data-name="Trazado 225855" d="M982.351,286.578a26.4,26.4,0,0,0-.077,3.087l.386,0C982.59,288.717,982.43,286.671,982.351,286.578Z" fill="#ad1c0e"/>
                      <path id="Trazado_225856" data-name="Trazado 225856" d="M988.077,286.578a26.385,26.385,0,0,1,.077,3.087l-.386,0C987.838,288.717,988,286.671,988.077,286.578Z" fill="#ad1c0e"/>
                    </g>
                  </g>
                </g>
              </g>
              <path id="Trazado_225857" data-name="Trazado 225857" d="M996.958,280.7v5.49h31.413l.623-5.49Z" fill="#06a3da"/>
              <g id="Grupo_222195" data-name="Grupo 222195">
                <path id="Trazado_225858" data-name="Trazado 225858" d="M977.107,291.071l1.446,17.464h49.025l1.08-17.309Z" fill="#c5c3bb"/>
                <path id="Trazado_225859" data-name="Trazado 225859" d="M980.072,293.282v2.774h13.12l.26-2.774Z" fill="#6c7579"/>
                <path id="Trazado_225860" data-name="Trazado 225860" d="M995.089,293.282v2.774h6.414l.127-2.774Z" fill="#6c7579"/>
                <path id="Trazado_225861" data-name="Trazado 225861" d="M1008.154,293.282v2.774h6.349l.126-2.774Z" fill="#6c7579"/>
                <path id="Trazado_225862" data-name="Trazado 225862" d="M1002.882,293.282v2.774h3.639l.072-2.774Z" fill="#6c7579"/>
                <path id="Trazado_225863" data-name="Trazado 225863" d="M1016.6,293.282v2.774h8.223l.163-2.774Z" fill="#6c7579"/>
                <path id="Trazado_225864" data-name="Trazado 225864" d="M980.072,298.087v2.774h8.137l.161-2.774Z" fill="#6c7579"/>
                <path id="Trazado_225865" data-name="Trazado 225865" d="M989.95,298.087v2.774H1001.4l.227-2.774Z" fill="#6c7579"/>
                <path id="Trazado_225866" data-name="Trazado 225866" d="M1003.432,298.087v2.774h9.686l.192-2.774Z" fill="#6c7579"/>
                <path id="Trazado_225867" data-name="Trazado 225867" d="M1015.112,298.087v2.774h9.686l.192-2.774Z" fill="#6c7579"/>
                <path id="Trazado_225868" data-name="Trazado 225868" d="M980.072,302.893v2.774h5.366l.192-2.774Z" fill="#6c7579"/>
                <path id="Trazado_225869" data-name="Trazado 225869" d="M987.517,302.893v2.774h13.838l.275-2.774Z" fill="#6c7579"/>
                <path id="Trazado_225870" data-name="Trazado 225870" d="M1003.432,302.893v2.774h9.686l.192-2.774Z" fill="#6c7579"/>
                <path id="Trazado_225871" data-name="Trazado 225871" d="M1015.112,302.893v2.774h9.686l.192-2.774Z" fill="#6c7579"/>
                <g id="Grupo_222194" data-name="Grupo 222194">
                  <rect id="Rectángulo_295881" data-name="Rectángulo 295881" width="27.658" height="9.747" rx="4.825" transform="translate(998.014 296.328)" fill="#0f2771"/>
                  <g id="Grupo_222193" data-name="Grupo 222193">
                    <path id="Trazado_225872" data-name="Trazado 225872" d="M1007.252,301.976a1.983,1.983,0,0,1-.173.861,1.652,1.652,0,0,1-.472.6,1.988,1.988,0,0,1-.7.345,3.221,3.221,0,0,1-.862.111,1.843,1.843,0,0,1-.391-.048c-.142-.032-.286-.071-.431-.118s-.285-.1-.42-.153-.254-.106-.358-.155l.161-1.423a2.55,2.55,0,0,0,.685.281,2.923,2.923,0,0,0,.739.1c.046,0,.1,0,.167,0a.712.712,0,0,0,.187-.033.412.412,0,0,0,.151-.081.2.2,0,0,0,.062-.157.171.171,0,0,0-.044-.118.308.308,0,0,0-.113-.08.665.665,0,0,0-.156-.047q-.087-.016-.171-.024c-.055,0-.107-.007-.156-.007h-.116a1.565,1.565,0,0,1-.569-.1,1.22,1.22,0,0,1-.725-.713,1.534,1.534,0,0,1-.1-.57,1.678,1.678,0,0,1,.173-.768,1.8,1.8,0,0,1,.462-.579,2.072,2.072,0,0,1,.663-.364,2.406,2.406,0,0,1,.774-.127c.119,0,.241,0,.367.013a3.39,3.39,0,0,1,.376.045c.125.022.246.05.365.083a2.23,2.23,0,0,1,.338.128l-.137,1.475a4.318,4.318,0,0,0-.518-.14,2.579,2.579,0,0,0-.53-.057c-.031,0-.072,0-.121,0a1.425,1.425,0,0,0-.156.01,1.4,1.4,0,0,0-.166.027.723.723,0,0,0-.149.049.271.271,0,0,0-.105.082.166.166,0,0,0-.036.119.154.154,0,0,0,.059.124.363.363,0,0,0,.146.064.916.916,0,0,0,.2.02c.072,0,.142,0,.213-.006s.136-.006.2-.011.11,0,.149,0a1.493,1.493,0,0,1,.524.123,1.241,1.241,0,0,1,.394.28,1.179,1.179,0,0,1,.247.416A1.583,1.583,0,0,1,1007.252,301.976Z" fill="#fff"/>
                    <path id="Trazado_225873" data-name="Trazado 225873" d="M1011.541,300.9a4.642,4.642,0,0,1-.044.632c-.415.027-.826.069-1.236.129s-.819.119-1.228.176a.884.884,0,0,0,.3.418.758.758,0,0,0,.482.157,1.048,1.048,0,0,0,.318-.055,2.657,2.657,0,0,0,.343-.136c.114-.055.223-.113.327-.175s.194-.121.269-.173l-.174,1.651a1.647,1.647,0,0,1-.308.186,2.221,2.221,0,0,1-.343.124,2.594,2.594,0,0,1-.36.068,3.11,3.11,0,0,1-.356.022,2.108,2.108,0,0,1-.658-.1,1.962,1.962,0,0,1-.54-.274,2.086,2.086,0,0,1-.423-.416,2.514,2.514,0,0,1-.3-.524,3.035,3.035,0,0,1-.181-.6,3.268,3.268,0,0,1-.062-.64,3.681,3.681,0,0,1,.062-.676,3.294,3.294,0,0,1,.187-.651,2.729,2.729,0,0,1,.316-.58,2.263,2.263,0,0,1,.445-.466,1.957,1.957,0,0,1,.576-.313,2.142,2.142,0,0,1,.711-.113,1.846,1.846,0,0,1,.591.09,1.6,1.6,0,0,1,.476.247,1.7,1.7,0,0,1,.363.375,2.2,2.2,0,0,1,.255.479,2.825,2.825,0,0,1,.148.547A3.5,3.5,0,0,1,1011.541,300.9Zm-1.454-.189a1.01,1.01,0,0,0-.022-.209.669.669,0,0,0-.071-.194.416.416,0,0,0-.129-.144.335.335,0,0,0-.2-.057.434.434,0,0,0-.256.079.715.715,0,0,0-.19.2,1.208,1.208,0,0,0-.132.255,1.877,1.877,0,0,0-.076.255l1.076-.1Z" fill="#fff"/>
                    <path id="Trazado_225874" data-name="Trazado 225874" d="M1016.288,302c0,.274,0,.544-.01.813s-.015.537-.027.809l-2.093-.037q.108-.644.188-1.285a10.5,10.5,0,0,0,.081-1.3c0-.031,0-.083,0-.153s-.007-.149-.015-.238-.017-.18-.03-.272a1.857,1.857,0,0,0-.055-.257.7.7,0,0,0-.084-.19.14.14,0,0,0-.118-.076.311.311,0,0,0-.209.074.569.569,0,0,0-.141.186,1.193,1.193,0,0,0-.09.257,2.82,2.82,0,0,0-.049.283c-.011.1-.018.184-.022.267s-.005.152-.005.2q-.018.645-.029,1.278t-.029,1.281l-1.854.08q.074-1.281.14-2.551t.107-2.552l1.716-.087-.014.582a2.4,2.4,0,0,1,.219-.233,1.407,1.407,0,0,1,.253-.186,1.337,1.337,0,0,1,.285-.124,1.077,1.077,0,0,1,.318-.045,1.327,1.327,0,0,1,.542.1,1.243,1.243,0,0,1,.4.276,1.581,1.581,0,0,1,.28.413,2.867,2.867,0,0,1,.181.506,4.7,4.7,0,0,1,.106.562q.036.294.048.576c.009.189.014.372.014.549Z" fill="#fff"/>
                    <path id="Trazado_225875" data-name="Trazado 225875" d="M1020.747,300.952a2.994,2.994,0,0,1-.13.912,2.445,2.445,0,0,1-.366.714,2.3,2.3,0,0,1-.558.529,3.228,3.228,0,0,1-.709.358,4.286,4.286,0,0,1-.819.205,5.942,5.942,0,0,1-.893.066c-.113,0-.225,0-.334-.009s-.22-.016-.335-.027l.1-4.732a4.436,4.436,0,0,1,.823-.18,6.644,6.644,0,0,1,.841-.053,3,3,0,0,1,.956.145,2.15,2.15,0,0,1,.753.427,1.95,1.95,0,0,1,.492.7A2.384,2.384,0,0,1,1020.747,300.952Zm-2.471,1.395a1.163,1.163,0,0,0,.708-.379,1.044,1.044,0,0,0,.2-.334,1.133,1.133,0,0,0,.071-.4,1.65,1.65,0,0,0-.044-.387.861.861,0,0,0-.141-.313.727.727,0,0,0-.258-.211.968.968,0,0,0-.393-.084Z" fill="#fff"/>
                  </g>
                </g>
              </g>
            </g>
            <g id="Grupo_222197" data-name="Grupo 222197">
              <path id="Trazado_225876" data-name="Trazado 225876" d="M1036.663,356.958s8.185-.676,12.992-4.511c0,0-5.654-10.647-6.015-13.985s-.661-5.053-.962-7.579-1.744-9.694-2.286-11.653-1.293-5.1-2.045-5.611c-1.257-.854-3.985.346-4.12.8,0,0-.181-3.473-4.963-.9,0,0-.631-3.113-5.63-.793,0,0-1.515-2.16-2.783-4.26-1.415-2.342-2.639-4.736-3.542-4.827-1.437-.143-3,.722-2.692,2.467a19.246,19.246,0,0,0,1.88,4.842c2.617,5.1,5.566,9.566,6.851,12.618s3.871,8.886,2.006,9.547c-3.012,1.069-4.661-1.052-7.278-1.639s-6.316-.225-6.722,1.444,5.73,2.977,6.812,3.519,4.6,4.872,8.346,5.639a9.517,9.517,0,0,1,6.5,4.823C1033.5,348.112,1036.663,356.958,1036.663,356.958Z" fill="#f89470"/>
              <path id="Trazado_225877" data-name="Trazado 225877" d="M1025.354,333.108c-3.012,1.069-4.661-1.052-7.278-1.639-.062-.014-.133-.017-.2-.03.926.374,1.878.824,2.981,1.382,1.13.571,2.66,2.423,5.044,2.153a2.378,2.378,0,0,0,1.977-2.347c0-4.5-2.816-8.6-6.057-12.115.614,1.121,1.146,2.152,1.524,3.049C1024.633,326.612,1027.219,332.447,1025.354,333.108Z" fill="#eb7768"/>
              <path id="Trazado_225878" data-name="Trazado 225878" d="M1015.775,333.454a6.792,6.792,0,0,0-3.824.524c1.294.987,4.3,1.774,5.674,2.243C1017.492,335.229,1016.9,333.8,1015.775,333.454Z" fill="#ffd3b0"/>
              <path id="Trazado_225879" data-name="Trazado 225879" d="M1017.264,308.213c.533-.145,1.382-.451,1.382-1.128a7.361,7.361,0,0,0-1.123-3.368.806.806,0,0,0-.214-.083,2.391,2.391,0,0,0-2.641,1.493C1015.1,306.179,1016.242,308.493,1017.264,308.213Z" fill="#ffd3b0"/>
              <path id="Trazado_225880" data-name="Trazado 225880" d="M1024.053,312.535s3.978,8.6,3.828,8.663-5.284-10-5.284-10Z" fill="#eb7768"/>
              <path id="Trazado_225881" data-name="Trazado 225881" d="M1029.75,313.266s2.552,6.609,2.281,6.579-3.25-7.214-3.25-7.214Z" fill="#eb7768"/>
              <path id="Trazado_225882" data-name="Trazado 225882" d="M1034.613,314.064s1.508,5.48,1.388,5.33-2.058-5.9-2.058-5.9S1034.572,313.913,1034.613,314.064Z" fill="#eb7768"/>
            </g>
            <g id="Grupo_222199" data-name="Grupo 222199">
              <g id="Grupo_222198" data-name="Grupo 222198">
                <path id="Trazado_225883" data-name="Trazado 225883" d="M981.231,300.2c-.5-1.437-2.856-2.768-6.2.8a18.037,18.037,0,0,0-3.312,5.036c-2.586,5.6-3.544,4.658-3.544,4.658s-1.492-.079-1.637-2.6l1.075-3.422V292.4l-4.41,2.19a4.184,4.184,0,0,0-1.808,1.735L955.3,306.44a2.328,2.328,0,0,0-.328.918c-.61,4.9.1,11.364-2.6,17.466,0,0-5.243,11.264-7.408,15.284a26.673,26.673,0,0,0,12.447,4.739c1.235-2.961,4.506-14.954,6.821-18.439,1.58-2.38,3.222-3.213,5.283-5.143,1.943-1.817,3.255-2.529,4.193-4.969.542-1.41,1.429-5.407,2.454-7.26a23.823,23.823,0,0,1,2.151-3.363c.871-1.156,1.74-2.326,2.512-3.552A2.188,2.188,0,0,0,981.231,300.2Z" fill="#f89470"/>
                <path id="Trazado_225884" data-name="Trazado 225884" d="M966.539,308.094l1.075-3.422V292.4l-1.137.565a55.093,55.093,0,0,1-1.3,9.056,38.1,38.1,0,0,0-.837,7.946V310c.152,1.732.6,3.153,1.646,3.41,2.743.672,3.555-2.157,4.358-4.724-1.363,2.272-2,2.1-2.135,2.024l-.007,0-.025-.017S966.684,310.612,966.539,308.094Z" fill="#eb7768"/>
                <path id="Trazado_225885" data-name="Trazado 225885" d="M978.442,304.668s2.775-2.8,2.074-3.894c-1.5-2.355-4.132.123-5.083,1.636A3.479,3.479,0,0,0,978.442,304.668Z" fill="#ffd3b0"/>
              </g>
            </g>
          </g>
        </g>
        <g id="Grupo_222205" data-name="Grupo 222205" transform="translate(-4387.432 -11006.035)">
          <g id="Grupo_222204" data-name="Grupo 222204">
            <path id="Trazado_225886" data-name="Trazado 225886" d="M743.442,162.853l2.2,54.182h79.809l.976-54.182-41.774-45.64Z" fill="#d9d6cf"/>
            <path id="Trazado_225887" data-name="Trazado 225887" d="M743.442,162.853l2.2,54.182h79.809l.976-54.182Z" fill="#c6c0b3"/>
            <path id="Trazado_225888" data-name="Trazado 225888" d="M815.132,211.849,815.7,155.7,806.4,144.673H754.058l1.517,67.176Z" fill="#efefe8"/>
            <path id="Trazado_225889" data-name="Trazado 225889" d="M782.374,178.225c-8.51-.812-17.413-4.553-24.411-9.514l.611,43.138h54.12l-.793-42.894C803.705,174.923,790.875,179.037,782.374,178.225Z" fill="#dee1de" style="mix-blend-mode: multiply;isolation: isolate"/>
            <path id="Trazado_225890" data-name="Trazado 225890" d="M804.852,155.091l10.844.607L806.4,144.673Z" fill="#d7d3ca"/>
            <g id="Grupo_222203" data-name="Grupo 222203">
              <path id="Trazado_225891" data-name="Trazado 225891" d="M780.345,141.093a4.155,4.155,0,0,0-4.841,2.431c-3.9,7.307,2.3,11.538-.946,14.058s-5.92,3.856-3.58,9.349c2.449,5.749,9.188,8.687,15.809,6.9s12.431-4.708,12.566-8.09-5.27-7.626-5.608-10.411,4.8-5.437.473-13.328c-2.887-5.27-8.848-4.859-11.605-3.254C781.241,139.544,781.111,141.247,780.345,141.093Z" fill="#1a282e"/>
              <path id="Trazado_225892" data-name="Trazado 225892" d="M799.513,178.089c-.7-2.13-.38-3.083-.292-5.1,5.507-.245,5.837,1.61,10.248-2.288,1.313-5.385,2.274-11.874,2.274-11.874a2.342,2.342,0,0,0-.392-1.067c-.293-.284-1.679-.727-2.206-1.117-.188-.139-.7-.558-.491-.837.18-.244.4-.3,1.324-.014.39.12,1.044.364,1.018-.306-.034-.9-1.848-3.247-1.013-3.926.64-.521,1.364,1.328,1.85,2.783,0,0-1.216-3.71-.089-3.777.53-.031,1.15,1.838,1.284,3.118.016-.867.1-3.073.588-3.2.594-.157,1.183,1.19.715,3.773,0,0,.4-2.409,1.216-1.944.407.233-.112,2.557-.463,3.782a11.636,11.636,0,0,0-.813,2.2,1.025,1.025,0,0,1,.005.241c.2,8.954.436,12.453-.6,16.315C810.733,177.149,800.43,180.88,799.513,178.089Z" fill="#f89470"/>
              <path id="Trazado_225893" data-name="Trazado 225893" d="M808.194,177.883c-7.67,2.383-12.645,2.109-16.507,2.78,0-.471-.091-9.1.565-9.147,4.428-.358,4.363,2,14.948.62A18.552,18.552,0,0,0,808.194,177.883Z" fill="#0f2771"/>
              <path id="Trazado_225894" data-name="Trazado 225894" d="M789.572,170.537c-2.981-1.137-2.306-8.191-2.306-8.191l-2.39.332-2.39-.332s.675,7.054-2.306,8.191c0,0,.9,2.4,4.668,2.411h.057C788.676,172.936,789.572,170.537,789.572,170.537Z" fill="#f89470"/>
              <path id="Trazado_225895" data-name="Trazado 225895" d="M781.834,168.681a5.878,5.878,0,0,0,6.2.246c-1.155-2.448-.765-6.581-.765-6.581l-2.39.332-2.39-.332S782.852,166.211,781.834,168.681Z" fill="#eb7768"/>
              <path id="Trazado_225896" data-name="Trazado 225896" d="M777.626,153.641s-1.788-1.5-2.871-.233-.326,3.431,3.792,5.056Z" fill="#f89470"/>
              <path id="Trazado_225897" data-name="Trazado 225897" d="M792.251,153.641s1.788-1.5,2.871-.233.325,3.431-3.792,5.056Z" fill="#f89470"/>
              <path id="Trazado_225898" data-name="Trazado 225898" d="M792.5,144.967c-1.626-3.034-7.622-2.384-7.622-2.384s-6-.65-7.621,2.384-.434,12.356.65,14.6,4.137,5.5,6.971,5.5,5.888-3.251,6.971-5.5S794.123,148,792.5,144.967Z" fill="#f89470"/>
              <path id="Trazado_225899" data-name="Trazado 225899" d="M789.414,153.524a1.006,1.006,0,1,1-1-1.084A1.047,1.047,0,0,1,789.414,153.524Z" fill="#1a282e"/>
              <path id="Trazado_225900" data-name="Trazado 225900" d="M782.343,153.524a1.006,1.006,0,1,1-1-1.084A1.046,1.046,0,0,1,782.343,153.524Z" fill="#1a282e"/>
              <path id="Trazado_225901" data-name="Trazado 225901" d="M782.164,158.532h5.425s-.54,2.633-2.739,2.633S782.164,158.532,782.164,158.532Z" fill="#fff"/>
              <path id="Trazado_225902" data-name="Trazado 225902" d="M796.974,173.078c-1.625.108-6.4-2.373-7.543-2.6a6.816,6.816,0,0,1-4.624,1.632,6.962,6.962,0,0,1-4.627-1.592c-1.167.224-5.791,2.228-7.289,2.562-2.8.625-4.656,8.874-4.917,15.855l6.337.056c.009-3.153,1.106-9.939,1.355-9.648s.748,6.688.968,9.663l-.076,0v0l8.309.074H785l9.557-.079.058-9.663S798.824,172.956,796.974,173.078Z" fill="#0f2771"/>
              <path id="Trazado_225903" data-name="Trazado 225903" d="M777.761,151.689a.318.318,0,0,0,.3.022,7.43,7.43,0,0,1,2.136-.576c.964-.057,2.332.313,2.667.207.594-.19.725-1.158.314-1.348a10.585,10.585,0,0,0-3.014-.216C778.942,150.122,777.674,150.846,777.761,151.689Z" fill="#1a282e"/>
              <path id="Trazado_225904" data-name="Trazado 225904" d="M791.991,151.689a.318.318,0,0,1-.3.022,7.43,7.43,0,0,0-2.136-.576c-.964-.057-2.332.313-2.667.207-.594-.19-.725-1.158-.314-1.348a10.59,10.59,0,0,1,3.015-.216C790.81,150.122,792.079,150.846,791.991,151.689Z" fill="#1a282e"/>
              <g id="Grupo_222202" data-name="Grupo 222202">
                <path id="Trazado_225905" data-name="Trazado 225905" d="M784.09,157.418l.041.008c.886.136,2.013.005,2.355-.506a.575.575,0,0,0,.005-.647,10.827,10.827,0,0,1-1.219-2.8.425.425,0,0,0-.5-.3.4.4,0,0,0-.3.485,11.67,11.67,0,0,0,1.216,2.876,2.917,2.917,0,0,1-1.431.1.408.408,0,0,0-.471.337A.413.413,0,0,0,784.09,157.418Z" fill="#cf6543"/>
              </g>
              <path id="Trazado_225906" data-name="Trazado 225906" d="M783.131,141.125s1.381,8.443-7.024,9.429C776.107,150.554,772.007,142.525,783.131,141.125Z" fill="#1a282e"/>
              <path id="Trazado_225907" data-name="Trazado 225907" d="M795.409,145.511s-9.3,6.666-16.184-3.188C779.225,142.323,790.308,134.208,795.409,145.511Z" fill="#1a282e"/>
            </g>
            <path id="Trazado_225908" data-name="Trazado 225908" d="M784.932,190.361l-41.253-21.65,1.959,48.325h79.809l.871-48.325Z" fill="#eae8e0"/>
            <path id="Trazado_225909" data-name="Trazado 225909" d="M784.932,183.7l-39.294,33.334h79.809Z" fill="#c6c0b3"/>
          </g>
        </g>
        <g id="Grupo_222210" data-name="Grupo 222210" transform="translate(-3893.996 -10893.79)">
          <g id="Grupo_222207" data-name="Grupo 222207" transform="translate(0 28.758)">
            <path id="Trazado_225910" data-name="Trazado 225910" d="M699.323,223.521c-7.109-.816-19.221-1.486-19.28-1.7-2.24-8.3-.3-57.026,3.269-58.291s76.222-3.081,77.026,4.524c0,0,8.393,27.621-4.615,61.113,0,0-18.8-.58-40.809-2.927-2.221,7.064-6.35,17.492-27.288,12.257C687.626,238.5,697.188,235.892,699.323,223.521Z" transform="translate(-679.086 -162.387)" fill="#d9d6cf"/>
            <g id="Grupo_222206" data-name="Grupo 222206" transform="translate(8.54 3.503)">
              <path id="Trazado_225911" data-name="Trazado 225911" d="M703.62,221.2c22.008,2.349,40.809,2.929,40.809,2.929,11.558-29.761,5.474-52.584,4.765-59.717,1.567.649,2.52,1.367,2.6,2.168,0,0,8.393,27.621-4.615,61.113,0,0-18.8-.58-40.809-2.927-2.221,7.064-6.35,17.492-27.288,12.257a27.472,27.472,0,0,0,3.983-2.515C698.87,235.381,701.658,227.45,703.62,221.2Z" transform="translate(-679.086 -164.416)" fill="#aaa89d"/>
            </g>
            <path id="Trazado_225912" data-name="Trazado 225912" d="M683.925,215.424c-1.472-7.64-.3-47.781,2.685-48.984s66.379-3.509,67.622,1.579c0,0,5.64,18.569-3.7,52.009C750.537,220.029,725.546,219.853,683.925,215.424Z" transform="translate(-679.261 -160.59)" fill="#f2f3ed"/>
          </g>
          <g id="Grupo_222209" data-name="Grupo 222209" transform="translate(4.03 0)">
            <path id="Trazado_225913" data-name="Trazado 225913" d="M675.537,189.742c2.385-2.1,2.318-3.743,4.208-5.894,1.495,2.157,4.681,6.016,5.637,7.426,6.234-4.784,12-10.347,12-10.347a3.325,3.325,0,0,0,.514-1.527c-.071-.575-1.21-2.3-1.446-3.195-.085-.319-.274-1.234.2-1.36.414-.11.7.021,1.476,1.16.323.478.83,1.331,1.4.568.763-1.029.842-5.231,2.368-5.24,1.17-.007.328,2.68-.428,4.719,0,0,1.952-5.179,3.257-4.253.613.437-.361,3.053-1.35,4.587.787-.944,2.841-3.307,3.493-3.017.8.354.25,2.366-2.561,4.8,0,0,2.585-2.306,3.07-1.07.243.62-2.4,2.727-3.871,3.769-.751.528-2.418,1.106-2.849,1.705a1.559,1.559,0,0,1-.209.271c-7.737,10.067-10.58,14.147-15.152,17.5-2,.366-3.479-1.35-4.092-1.819a57.443,57.443,0,0,1-7.2-7.754A7.147,7.147,0,0,0,675.537,189.742Z" transform="translate(-618.726 -127.133)" fill="#f89470"/>
            <path id="Trazado_225914" data-name="Trazado 225914" d="M702.206,191.265a11.815,11.815,0,0,0-1.514,3.16c-4.724-5.293-13.448-19.863-12.316-23.325,0,0,2.91.725,3.852.934,5.038,1.108,10.136,9.294,14.278,15.5C704.47,188.868,703.568,189.27,702.206,191.265Z" transform="translate(-642.482 -127.303)" fill="#0f2771"/>
            <path id="Trazado_225915" data-name="Trazado 225915" d="M704.178,171.592c-1.684-5.5-5.333-9.931-1.36-18.4,4.035-8.6,14.96-6.684,18.676-6.006a3.9,3.9,0,0,0,1.108.048c-.117,2.639-1.624,4.782.078,7.262a26.008,26.008,0,0,0,2.03,2.582c-.514-.3-.813-.5-.813-.5-4.166,2.276-6.408.87-6.408.87s3.3,6.467,5.716,8.579c1.95,1.707,1.914,8.326.825,14.218-1.552.43-3.591,3.728-4.924,4.617a10.642,10.642,0,0,1-5.162,2.154,19.136,19.136,0,0,1-7.345-1.407,13.607,13.607,0,0,1-5.885-4.727C700.769,180.792,706.549,179.332,704.178,171.592Z" transform="translate(-682.214 -145.147)" fill="#1a282e"/>
            <path id="Trazado_225916" data-name="Trazado 225916" d="M699.379,175.108c1.552-4.073,1.432-9.779.935-14.44,2.5,1.5,5.048,2.889,7.66,4.144a21.418,21.418,0,0,1,.2,4.423c-.314,5.366,1.281,8.081,2.774,9.437,1.212,1.1,5.262,12.82-.711,12.494s-12.887-13.175-12.887-13.175A7.645,7.645,0,0,0,699.379,175.108Z" transform="translate(-665.054 -134.875)" fill="#f89470"/>
            <path id="Trazado_225917" data-name="Trazado 225917" d="M700.559,160.667c2.5,1.5,5.05,2.891,7.663,4.146a21.418,21.418,0,0,1,.2,4.423c-.022.385-.033.752-.036,1.11,0,.1,0,.2,0,.3,0,.262.005.519.017.768,0,.09.007.178.012.266.017.28.038.551.065.813l.012.105a11.564,11.564,0,0,0,1.062,3.864,13.523,13.523,0,0,1-8.02-.73c-.621-.276-1.218-.59-1.807-.92C701.169,170.757,701.044,165.216,700.559,160.667Z" transform="translate(-665.303 -134.876)" fill="#eb7768"/>
            <path id="Trazado_225918" data-name="Trazado 225918" d="M700.032,149.573s9.687-2.276,12.984.694,4.082,7.967,4.808,12.318a39.414,39.414,0,0,0,1.536,5.875c1.177,3.7-.556,10.485-3.424,11.417-4.377,1.419-11.429-.288-15.733-6.2,0,0-5.342-.064-6.9-4.582s2.52-4.71,4.32-2.159C697.622,166.935,692.735,153.839,700.032,149.573Z" transform="translate(-663.783 -143.534)" fill="#f89470"/>
            <path id="Trazado_225919" data-name="Trazado 225919" d="M697.008,158.2a1.476,1.476,0,1,1-1.61-1.451A1.537,1.537,0,0,1,697.008,158.2Z" transform="translate(-642.989 -137.725)" fill="#1a282e"/>
            <path id="Trazado_225920" data-name="Trazado 225920" d="M700.774,159.413a1.586,1.586,0,1,1-1.729-1.56A1.65,1.65,0,0,1,700.774,159.413Z" transform="translate(-652.881 -136.923)" fill="#1a282e"/>
            <path id="Trazado_225921" data-name="Trazado 225921" d="M698.269,159.617a.388.388,0,0,0,.359-.074,8.966,8.966,0,0,1,2.313-1.374c1.112-.385,2.836-.4,3.191-.635.635-.418.469-1.595-.074-1.683a12.888,12.888,0,0,0-3.6.739C699.139,157.392,697.891,158.658,698.269,159.617Z" transform="translate(-657.646 -138.374)" fill="#1a282e"/>
            <path id="Trazado_225922" data-name="Trazado 225922" d="M694.372,155.363a6.473,6.473,0,0,1,2.86-.35,5.4,5.4,0,0,1,.362,1.681,13.524,13.524,0,0,0-2.6.233C694.246,156.808,693.911,155.667,694.372,155.363Z" transform="translate(-643.726 -139.004)" fill="#1a282e"/>
            <path id="Trazado_225923" data-name="Trazado 225923" d="M719.847,198.946a86.679,86.679,0,0,0,1.389,16.48c-.045.012-.091.021-.136.033l-25.118-1.94a71.57,71.57,0,0,0,.547-10.985,66.14,66.14,0,0,0-2.047-15.826c-.218-.544-.656-12.242,2.15-13.691,2.24-1.156,5.072-2.408,5.072-2.408s6.865,10.984,11.567,10.114c4.3-.8,1.964-9.163,1.964-9.163a30.687,30.687,0,0,1,4.3,5.87c2.228,3.923,4.822,7.73,2.156,14.119A19.482,19.482,0,0,0,719.847,198.946Z" transform="translate(-669.223 -127.659)" fill="#0f2771"/>
            <path id="Trazado_225924" data-name="Trazado 225924" d="M710.54,205.268a20.862,20.862,0,0,1,3.174-3.535c2.39-2,7.967-7.7,9.71-10.443,1.27-2,4.938-12.06,5.89-13.286a6.7,6.7,0,0,0,.735.06c2.4.079,3.976,2,5.87,3.2.074.048,1.377-.224,1.453-.176-1.174,1.168-6.391,12.39-7.829,14.055-2.7,3.122-12.765,7.956-12.765,7.956s-.8.811-.506,1.312,1.98,1.662,2.585,2.368.753,2.772-1.268,1.124c0,0-1.4-1.495-1.7-.25s1.163,4.915-.115,5.747c-.8.525-1.355-2.333-1.464-4.506,0,0,.064,5.333-1.163,5.1-.74-.14-1.025-2.858-.72-4.656-.354,1.177-1.034,3.464-1.745,3.4-.525-.048-.72-1.724.183-4.674,0,0-1.084,2.378-1.954,1.376C708.569,209.047,709.592,206.807,710.54,205.268Z" transform="translate(-708.843 -122.292)" fill="#f89470"/>
            <path id="Trazado_225925" data-name="Trazado 225925" d="M706.475,189.313c-.021,0,7.825-21.176,14.276-16.986,5.074,3.3-1.581,14.755-5.688,20.944C712.794,191.5,709.239,189.1,706.475,189.313Z" transform="translate(-689.967 -126.811)" fill="#0f2771"/>
            <path id="Trazado_225926" data-name="Trazado 225926" d="M694.592,149.713l.209-.047a4.151,4.151,0,0,1,1.132-.078c.3.019.589.038.847.059,3.745.293,3.567-4.77,12.2-3.8,15.076,1.693,8.878,13.353,8.878,13.353-6.786-2.862-8.811,3.781-15.63-.606,0,0-3,6-1.643,8.524,1.237,2.307.514,5.713.071,5.813s-2.183-1.793-2.473-2.13a7.431,7.431,0,0,0-3.352-3.05C693.711,167.312,691.793,150.362,694.592,149.713Z" transform="translate(-663.492 -145.723)" fill="#1a282e"/>
            <path id="Trazado_225927" data-name="Trazado 225927" d="M705.308,159.414a1.947,1.947,0,0,1,1.521.276c1.186.787,2.5,2.924,1.569,3.542-.766.509-1.5.293-1.733-.461-.207-.673.169-1.246-.031-1.728A4.725,4.725,0,0,0,705.308,159.414Z" transform="translate(-674.081 -135.822)" fill="#cf6543"/>
            <g id="Grupo_222208" data-name="Grupo 222208" transform="translate(49.763 21.898)">
              <path id="Trazado_225928" data-name="Trazado 225928" d="M695.533,163.9l.052-.007c1.089-.209,2.349-.841,2.537-1.6a.749.749,0,0,0-.264-.782,13.808,13.808,0,0,1-2.582-2.863.516.516,0,1,0-.868.557,14.835,14.835,0,0,0,2.61,2.949,3.513,3.513,0,0,1-1.628.723.516.516,0,0,0,.143,1.02Z" transform="translate(-694.326 -158.412)" fill="#cf6543"/>
            </g>
            <path id="Trazado_225929" data-name="Trazado 225929" d="M694.612,162.792a9.734,9.734,0,0,0,3.447.081,6.586,6.586,0,0,0,2.9-1.082c.1.758.255,3.536-2.373,4.054-3.048.6-4.258-2.66-4.422-3.162C694.313,162.723,694.46,162.763,694.612,162.792Z" transform="translate(-647.152 -134.06)" fill="#fff"/>
          </g>
        </g>
        <g id="Grupo_222215" data-name="Grupo 222215" transform="translate(-3402.5 -10894)">
          <g id="Grupo_222212" data-name="Grupo 222212" transform="translate(5.191 21.6)">
            <path id="Trazado_225930" data-name="Trazado 225930" d="M630.087,206.424c6.969-.1,18.837.3,18.913.106,2.979-7.825,8.535-59.3,5.2-60.87s-73.52-7.5-75.039-.211c0,0-6.518,25.015.142,59.19,0,0,14.171,2.411,35.728,2.275.862,4.68,8.047,15.371,25.916,14.306C640.947,221.22,628.716,215.553,630.087,206.424Z" transform="translate(-576.305 -141.893)" fill="#d9d6cf"/>
            <path id="Trazado_225931" data-name="Trazado 225931" d="M643.171,199.82c2.6-6.841,7.612-51.073,4.7-52.449s-62.711-6.507-64.039-.133c0,0-5.962,21.173-.142,51.043a234.037,234.037,0,0,0,25.774,2.41C629.7,201.428,643.133,199.923,643.171,199.82Z" transform="translate(-577.119 -140.761)" fill="#f2f3ed"/>
            <g id="Grupo_222211" data-name="Grupo 222211" transform="translate(50.2 3.422)">
              <path id="Trazado_225932" data-name="Trazado 225932" d="M583.744,218.675s-8.7-6.767-7.282-16.23c7.223-.1,19.524.317,19.6.11,2.586-6.8,7.372-43.692,6.435-58.4a7.545,7.545,0,0,1,1.5.344c3.335,1.573-2.221,53.045-5.2,60.87-.075.2-11.944-.2-18.913-.106-1.371,9.129,10.86,14.8,10.86,14.8a32.861,32.861,0,0,1-12.553-1.5A34.8,34.8,0,0,0,583.744,218.675Z" transform="translate(-576.305 -144.16)" fill="#aaa89d"/>
            </g>
          </g>
          <g id="Grupo_222214" data-name="Grupo 222214" transform="translate(0 0)">
            <path id="Trazado_225933" data-name="Trazado 225933" d="M625.43,159.012c.435-1.105,2.745.956,2.745.956-2.514-2.18-3-3.98-2.29-4.3.584-.26,2.42,1.852,3.124,2.7-.883-1.372-1.754-3.711-1.206-4.1,1.165-.83,2.911,3.8,2.911,3.8-.675-1.822-1.428-4.224-.382-4.218,1.365.008,1.436,3.765,2.117,4.683.506.682.959-.079,1.249-.506.69-1.019.948-1.137,1.319-1.039.426.113.255.93.18,1.217-.21.8-1.229,2.342-1.292,2.856a2.969,2.969,0,0,0,.461,1.365s.379.364,1.025.968c-.614.929-1.332,1.964-2,3.054-.559-.731-1.138-1.489-1.765-2.3a1.319,1.319,0,0,1-.186-.242c-.387-.534-1.877-1.051-2.547-1.525C627.571,161.451,625.213,159.565,625.43,159.012Z" transform="translate(-625.416 -114.198)" fill="#f89470"/>
            <path id="Trazado_225934" data-name="Trazado 225934" d="M610.054,138.858s-3,19.788,3.448,24.586c0,0-3.948,5.9-9.445,6.2s-6.142-5.686-5.026-6.7c1.374-1.247,2.841-3.747,2.552-8.686C601.058,145.3,606.755,138.183,610.054,138.858Z" transform="translate(-563.002 -121.863)" fill="#f89470"/>
            <path id="Trazado_225935" data-name="Trazado 225935" d="M610.564,158.8a22.886,22.886,0,0,1-2.672,1.43,12.457,12.457,0,0,1-7.393.672,12.992,12.992,0,0,0,1.055-6.646c-.524-8.95,5.172-16.071,8.471-15.4C610.026,138.858,608.152,151.25,610.564,158.8Z" transform="translate(-562.974 -121.863)" fill="#eb7768"/>
            <path id="Trazado_225936" data-name="Trazado 225936" d="M611.546,130.315s-9.158-.157-11.544,3.157-2.117,7.964-1.92,12.018c.072,1.492-.091,4.091.026,6.835.2,4.716,2.2,10.185,5.675,10.488,4.218.37,10.281-3.429,13.728-11.633,0,0,4.929-1.058,5.45-5.428s-3.952-4.5-5.772-.876C617.19,144.877,618.943,132.728,611.546,130.315Z" transform="translate(-571.578 -126.196)" fill="#f89470"/>
            <path id="Trazado_225937" data-name="Trazado 225937" d="M599.676,133.565a11.166,11.166,0,0,0,.152,9.422c2.456,4.833,2.467,3.654,2.721,6.743,0,0,.978.787,1.7.143,0,0,1.507-6.824,5.089-7.244,0,0,1.828-6.093-.568-10.431s-4.913-1.46-4.913-1.46S600.536,131.974,599.676,133.565Z" transform="translate(-559.696 -126.456)" fill="#1a282e"/>
            <path id="Trazado_225938" data-name="Trazado 225938" d="M612.461,142.324a1.358,1.358,0,1,0,1.166-1.62A1.412,1.412,0,0,0,612.461,142.324Z" transform="translate(-585.611 -120.905)" fill="#1a282e"/>
            <path id="Trazado_225939" data-name="Trazado 225939" d="M607.989,142.44a1.459,1.459,0,1,0,1.252-1.739A1.518,1.518,0,0,0,607.989,142.44Z" transform="translate(-574.586 -120.907)" fill="#1a282e"/>
            <g id="Grupo_222213" data-name="Grupo 222213" transform="translate(28.93 21.606)">
              <path id="Trazado_225940" data-name="Trazado 225940" d="M612.644,147.7a3.4,3.4,0,0,0,.838-.054.9.9,0,0,0,.784-.735.473.473,0,0,0-.4-.531.462.462,0,0,0-.531.4,5.966,5.966,0,0,1-2.26-.31,34.6,34.6,0,0,1,1.772-3.9.47.47,0,0,0-.205-.634.477.477,0,0,0-.636.205c-2.2,4.291-1.976,4.611-1.813,4.846A4.129,4.129,0,0,0,612.644,147.7Z" transform="translate(-610.092 -141.897)" fill="#cf6543"/>
            </g>
            <path id="Trazado_225941" data-name="Trazado 225941" d="M615.407,146.211l-7.3.534s.984,3.487,3.942,3.272S615.407,146.211,615.407,146.211Z" transform="translate(-579.306 -118.093)" fill="#fff"/>
            <path id="Trazado_225942" data-name="Trazado 225942" d="M612.317,140.5a46.443,46.443,0,0,1-5.541-.121c-.9-.239-.427-2.36,1.09-2.274S613.941,139.314,612.317,140.5Z" transform="translate(-573.86 -122.226)" fill="#1a282e"/>
            <path id="Trazado_225943" data-name="Trazado 225943" d="M612.266,138.991a6.876,6.876,0,0,1,2.2-.793,1.105,1.105,0,0,1,.462,2.151,17.635,17.635,0,0,1-2.571.281C612.363,140.016,612.248,139.464,612.266,138.991Z" transform="translate(-585.868 -122.182)" fill="#1a282e"/>
            <path id="Trazado_225944" data-name="Trazado 225944" d="M611.269,161.869a3.005,3.005,0,0,1,.252-.178c1.095,1.673,4.107,6.187,7.514,10.452a2.954,2.954,0,0,0,.675-.136c2.272-.891,11.5-13.567,14.521-15.528a24.518,24.518,0,0,1,3.592-1.621,46.736,46.736,0,0,0,.251,10.155,7.576,7.576,0,0,0,.225,1.264c-.237,2.932-.415,5.222-.423,5.219a57.627,57.627,0,0,1-7.432,4.49c-2.944,1.634-6.083,3.78-9.354,4.641a4.542,4.542,0,0,1-2.822.082c-1.674-.675-8.438-12.532-9.934-15.81q-.211-.46-.418-.922A13.6,13.6,0,0,0,611.269,161.869Z" transform="translate(-601.902 -113.685)" fill="#feca2e"/>
            <path id="Trazado_225945" data-name="Trazado 225945" d="M601.059,155.371s-.631,3.788,4.036,2.906c1.917-.364,8.838-4.425,8.838-4.425s5.074,3.811,6.922,4.561-.469,9.258-.669,9.758-.426,20.588.8,27.884a227.043,227.043,0,0,1-26.339-.779,97.9,97.9,0,0,0,.474-21.508A26.585,26.585,0,0,1,601.059,155.371Z" transform="translate(-565.139 -114.198)" fill="#feca2e"/>
            <path id="Trazado_225946" data-name="Trazado 225946" d="M602.162,139.377a2.832,2.832,0,0,0-1.634.918c-.983,1.132-1.708,3.3-.8,3.682.817.337,1.516.015,1.608-.756.083-.7-.436-1.159-.328-1.683A6.256,6.256,0,0,1,602.162,139.377Z" transform="translate(-552.784 -121.576)" fill="#cf6543"/>
            <path id="Trazado_225947" data-name="Trazado 225947" d="M596.354,183.111c.885-.862-1.049-1.286-1.049-1.286-2.367-.859-.578-1.759.3-1.608s2.683.977,3.241.971a3.205,3.205,0,0,0,1.4-.69l.059-.134c.275.168.553.328.844.468a20.165,20.165,0,0,0,2.206.892c-.154.214-.312.432-.453.636a12.827,12.827,0,0,0-1.4,2.55,16.657,16.657,0,0,1-1.387,2.939c-.257.4-1.149,2.041-1.785,1.928-1.261-.225.174-2.3.174-2.3-2,2.209-3.483,2.876-3.783,2.465-.408-.556,1.15-2.253,1.952-3.127-1.341,1.143-3.734,2.253-4.217,1.709-.8-.9,3.651-3.491,3.651-3.491-1.854.986-4.495,1.946-4.46,1.019C591.7,184.58,595.469,183.973,596.354,183.111Z" transform="translate(-542.395 -100.767)" fill="#f89470"/>
            <path id="Trazado_225948" data-name="Trazado 225948" d="M624.277,132.545a23.959,23.959,0,0,1-9.12,6.887c-5.2,2.013-10.458,1.286-14.143-3.217,0,0,4.182-9.715,16.874-8.529C625.245,128.375,624.277,132.545,624.277,132.545Z" transform="translate(-577.504 -127.586)" fill="#1a282e"/>
            <path id="Trazado_225949" data-name="Trazado 225949" d="M595.369,193.33c2.237-5.557,5.8-15.726,4.873-17.081-1.347-1.981-20.7-12.22-14.223-19.791s22.06,13.558,24.173,16.8c1.871,2.872-1.027,10.441-9.6,22.394Z" transform="translate(-539.286 -113.699)" fill="#feca2e"/>
          </g>
        </g>
        <path id="Unión_2" data-name="Unión 2" d="M87.28,62.5H17A16.5,16.5,0,0,1,.5,46V17A16.5,16.5,0,0,1,17,.5H128A16.5,16.5,0,0,1,144.5,17V46A16.5,16.5,0,0,1,128,62.5H95.821L72.5,97.151Z" transform="translate(-3277 -10779)" fill="#fff" stroke="#707070" stroke-width="1"/>
        <text id="entonces_puede_hacer_que_le_diga_mis_requisitos_" data-name="entonces, ¿puede hacer que le diga mis requisitos?" transform="translate(-3256 -10768)" fill="#12263f" font-size="10" font-family="Roboto-Bold, Roboto" font-weight="700"><tspan x="0" y="10">Entonces, ¿Puede </tspan><tspan x="0" y="22">hacer que le diga mis </tspan><tspan x="0" y="34">requisitos?</tspan></text>
        <path id="Trazado_225950" data-name="Trazado 225950" d="M-3810.35-10897.85" fill="none" stroke="#707070" stroke-width="1"/>
        <path id="Unión_4" data-name="Unión 4" d="M59.275,62.5H17A16.5,16.5,0,0,1,.5,46V17A16.5,16.5,0,0,1,17,.5H128A16.5,16.5,0,0,1,144.5,17V46A16.5,16.5,0,0,1,128,62.5H67.96l15.031,27Z" transform="translate(-3475 -10957)" fill="#fff" stroke="#707070" stroke-width="1"/>
        <text id="estoy_intentando_que_usted_desarrolle_mi_software" data-name="estoy intentando que usted desarrolle mi software" transform="translate(-3460 -10944)" fill="#12263f" font-size="10" font-family="Roboto-Bold, Roboto" font-weight="700"><tspan x="0" y="10">Estoy intentando que </tspan><tspan x="0" y="22">usted desarrolle mi </tspan><tspan x="0" y="34">software</tspan></text>
        <path id="Unión_6" data-name="Unión 6" d="M102.671,62.5H17A16.5,16.5,0,0,1,.5,46V17A16.5,16.5,0,0,1,17,.5H128A16.5,16.5,0,0,1,144.5,17V46A16.5,16.5,0,0,1,128,62.5H111.356L87.64,89.5Z" transform="translate(-3675 -10957)" fill="#fff" stroke="#707070" stroke-width="1"/>
        <text id="primero_que_todo_Qué_está_queriendo_hacer_" data-name="primero que todo, ¿Qué está queriendo hacer?" transform="translate(-3651 -10944)" fill="#12263f" font-size="10" font-family="Roboto-Bold, Roboto" font-weight="700"><tspan x="0" y="10">Primero que todo, </tspan><tspan x="0" y="22">¿Qué está queriendo </tspan><tspan x="0" y="34">hacer?</tspan></text>
      </g>
    </g>
  </g>
</svg>
