<svg xmlns="http://www.w3.org/2000/svg" width="170" height="170" viewBox="0 0 170 170">
  <g id="Grupo_222358" data-name="Grupo 222358" transform="translate(-913 -17872.389)">
    <g id="Grupo_222357" data-name="Grupo 222357">
      <g id="Grupo_222356" data-name="Grupo 222356">
        <g id="Grupo_222138" data-name="Grupo 222138" transform="translate(372.656 -137.75)">
          <g id="Grupo_109190" data-name="Grupo 109190" transform="translate(540.344 18010.139)">
            <ellipse id="Elipse_4809" data-name="Elipse 4809" cx="85" cy="85" rx="85" ry="85" fill="#0f2771"/>
          </g>
          <g id="Grupo_210397" data-name="Grupo 210397" transform="translate(559.937 18051.516)">
            <path id="Trazado_221681" data-name="Trazado 221681" d="M559.438,202.52a2.348,2.348,0,0,1-2.349-2.347V188.927a2.349,2.349,0,1,1,4.7,0v11.247A2.348,2.348,0,0,1,559.438,202.52Z" transform="translate(-485.125 -150.715)" fill="#fff"/>
            <path id="Trazado_221682" data-name="Trazado 221682" d="M556.941,211h-4.925a5.982,5.982,0,0,1-5.976-5.976V189.339a8.061,8.061,0,0,1,5.326-7.57l2.065-.74a2.348,2.348,0,0,1,1.589,4.419l-2.068.742a3.353,3.353,0,0,0-2.214,3.149v15.686a1.281,1.281,0,0,0,1.278,1.28h4.925a2.348,2.348,0,1,1,0,4.7Z" transform="translate(-500.247 -159.195)" fill="#fff"/>
            <path id="Trazado_221683" data-name="Trazado 221683" d="M575.813,210.849H551.822a2.348,2.348,0,0,1-2.349-2.347V197.255a2.349,2.349,0,1,1,4.7,0v8.9h21.642a1.29,1.29,0,0,0,1.288-1.288V189.19a3.355,3.355,0,0,0-2.217-3.149l-1.363-.488a2.348,2.348,0,1,1,1.584-4.422l1.363.488a8.058,8.058,0,0,1,5.328,7.57v15.676A5.992,5.992,0,0,1,575.813,210.849Z" transform="translate(-496.254 -159.043)" fill="#fff"/>
            <path id="Trazado_221684" data-name="Trazado 221684" d="M560.882,194.423A11.121,11.121,0,1,1,572,183.3,11.135,11.135,0,0,1,560.882,194.423Zm0-17.547A6.424,6.424,0,1,0,567.3,183.3,6.432,6.432,0,0,0,560.882,176.877Z" transform="translate(-495.523 -172.181)" fill="#fff"/>
            <path id="Trazado_221685" data-name="Trazado 221685" d="M559.068,190.314H534.15a2.349,2.349,0,1,1,0-4.7h24.918a2.349,2.349,0,0,1,0,4.7Z" transform="translate(-518.571 -152.149)" fill="#fff"/>
            <path id="Trazado_221686" data-name="Trazado 221686" d="M535.453,200.888a8.964,8.964,0,1,1,8.965-8.963A8.973,8.973,0,0,1,535.453,200.888Zm0-13.23a4.267,4.267,0,1,0,4.267,4.267A4.272,4.272,0,0,0,535.453,187.658Z" transform="translate(-526.49 -156.109)" fill="#fff"/>
            <path id="Trazado_221687" data-name="Trazado 221687" d="M538.211,216.6a2.349,2.349,0,0,1-1.661-4.011l17.619-17.616a2.348,2.348,0,0,1,3.32,3.321L539.87,215.914A2.339,2.339,0,0,1,538.211,216.6Z" transform="translate(-514.019 -139.223)" fill="#fff"/>
            <path id="Trazado_221688" data-name="Trazado 221688" d="M540.291,218.5a8.961,8.961,0,1,1,6.337-2.623A8.935,8.935,0,0,1,540.291,218.5Zm0-13.227a4.266,4.266,0,0,0-3.017,7.284,4.368,4.368,0,0,0,6.033,0,4.267,4.267,0,0,0-3.017-7.284Z" transform="translate(-519.274 -129.835)" fill="#fff"/>
            <path id="Trazado_221689" data-name="Trazado 221689" d="M555.63,225.639a2.348,2.348,0,0,1-2.349-2.349V198.372a2.349,2.349,0,1,1,4.7,0V223.29A2.348,2.348,0,0,1,555.63,225.639Z" transform="translate(-490.273 -136.632)" fill="#fff"/>
            <path id="Trazado_221690" data-name="Trazado 221690" d="M559.59,223.956a8.965,8.965,0,1,1,8.963-8.965A8.975,8.975,0,0,1,559.59,223.956Zm0-13.232a4.267,4.267,0,1,0,4.267,4.267A4.271,4.271,0,0,0,559.59,210.724Z" transform="translate(-494.232 -121.718)" fill="#fff"/>
            <path id="Trazado_221691" data-name="Trazado 221691" d="M592.064,190.416H567.149a2.349,2.349,0,0,1,0-4.7h24.915a2.349,2.349,0,1,1,0,4.7Z" transform="translate(-476.832 -151.997)" fill="#fff"/>
            <path id="Trazado_221692" data-name="Trazado 221692" d="M583.767,200.991a8.964,8.964,0,1,1,8.965-8.965A8.977,8.977,0,0,1,583.767,200.991Zm0-13.232a4.267,4.267,0,1,0,4.267,4.267A4.274,4.274,0,0,0,583.767,187.759Z" transform="translate(-461.919 -155.956)" fill="#fff"/>
            <path id="Trazado_221693" data-name="Trazado 221693" d="M583.637,216.7a2.34,2.34,0,0,1-1.661-.688L564.357,198.4a2.349,2.349,0,0,1,3.323-3.321L585.3,212.694a2.348,2.348,0,0,1-1.659,4.008Z" transform="translate(-477.016 -139.07)" fill="#fff"/>
            <path id="Trazado_221694" data-name="Trazado 221694" d="M578.927,218.6a8.96,8.96,0,1,1,6.337-2.621A8.933,8.933,0,0,1,578.927,218.6Zm-3.019-11.977a4.268,4.268,0,1,0,6.036,0,4.246,4.246,0,0,0-6.036,0Z" transform="translate(-469.13 -129.682)" fill="#fff"/>
            <path id="Trazado_221695" data-name="Trazado 221695" d="M555.672,225.739a2.348,2.348,0,0,1-2.349-2.349V198.475a2.349,2.349,0,1,1,4.7,0V223.39A2.348,2.348,0,0,1,555.672,225.739Z" transform="translate(-490.216 -136.479)" fill="#fff"/>
            <path id="Trazado_221696" data-name="Trazado 221696" d="M559.632,224.057a8.964,8.964,0,1,1,8.965-8.965A8.977,8.977,0,0,1,559.632,224.057Zm0-13.232a4.267,4.267,0,1,0,4.267,4.267A4.274,4.274,0,0,0,559.632,210.825Z" transform="translate(-494.176 -121.564)" fill="#fff"/>
          </g>
        </g>
      </g>
    </g>
  </g>
</svg>
