<svg xmlns="http://www.w3.org/2000/svg" xmlns:xlink="http://www.w3.org/1999/xlink" width="190" height="115" viewBox="0 0 190 115">
  <defs>
    <clipPath id="clip-path">
      <rect id="Rectángulo_45011" data-name="Rectángulo 45011" width="100.002" height="100" fill="#0f2771"/>
    </clipPath>
  </defs>
  <g id="Grupo_222348" data-name="Grupo 222348" transform="translate(-181 -13561.277)">
    <g id="Grupo_222347" data-name="Grupo 222347">
      <g id="Grupo_210463" data-name="Grupo 210463" transform="translate(1 5321.277)">
        <rect id="Rectángulo_43992" data-name="Rectángulo 43992" width="190" height="115" transform="translate(180 8240)" fill="none"/>
        <g id="Grupo_146975" data-name="Grupo 146975">
          <g id="Grupo_146383" data-name="Grupo 146383" transform="translate(0 7847)">
            <rect id="Rectángulo_41430" data-name="Rectángulo 41430" width="85" height="28" rx="14" transform="translate(285 407)" fill="#feca2e" opacity="0.2"/>
            <rect id="Rectángulo_41431" data-name="Rectángulo 41431" width="85" height="28" rx="14" transform="translate(180 468)" fill="#4dd0e1" opacity="0.2"/>
          </g>
          <g id="Grupo_146972" data-name="Grupo 146972" transform="translate(-421 -272)">
            <g id="Grupo_146974" data-name="Grupo 146974" transform="translate(646 8520)">
              <g id="Grupo_146973" data-name="Grupo 146973" clip-path="url(#clip-path)">
                <path id="Trazado_203815" data-name="Trazado 203815" d="M1.466,98.537A1.666,1.666,0,0,0,3.118,100a1.452,1.452,0,0,0,.208-.013,1.664,1.664,0,0,0,1.449-1.858A29.709,29.709,0,0,0,4.116,94.6a26.264,26.264,0,0,1-.783-6.365V75a1.667,1.667,0,1,1,3.333,0v1.666a1.667,1.667,0,0,0,3.334,0V73.334a1.667,1.667,0,1,1,3.333,0v3.333a1.667,1.667,0,1,0,3.333,0v-5a1.667,1.667,0,0,1,3.333,0v6.667a1.667,1.667,0,0,0,3.334,0V61.667a1.667,1.667,0,0,1,3.333,0V83.334a1.667,1.667,0,0,0,2.812,1.211l7.51-7.1a1.666,1.666,0,1,1,2.348,2.363L29.811,89.46a10.858,10.858,0,0,0-3.145,7.668v1.205a1.667,1.667,0,1,0,3.333,0V97.128c0-.156.035-.306.045-.461h39.91c.01.155.045.305.045.461v1.205a1.667,1.667,0,1,0,3.333,0V97.128a10.865,10.865,0,0,0-3.145-7.668L60.654,79.8a1.665,1.665,0,0,1,0-2.357,1.679,1.679,0,0,1,2.391.034l7.477,7.07a1.668,1.668,0,0,0,2.812-1.212V61.666a1.667,1.667,0,1,1,3.333,0V78.332a1.667,1.667,0,1,0,3.333,0V71.666a1.667,1.667,0,1,1,3.333,0v5a1.667,1.667,0,0,0,3.334,0V73.332a1.667,1.667,0,0,1,3.333,0v3.333a1.667,1.667,0,1,0,3.333,0V75a1.667,1.667,0,0,1,3.334,0v13.23a26.271,26.271,0,0,1-.784,6.365,29.69,29.69,0,0,0-.658,3.531,1.664,1.664,0,0,0,1.448,1.858,1.469,1.469,0,0,0,.209.014,1.666,1.666,0,0,0,1.651-1.462,26.205,26.205,0,0,1,.585-3.135A29.538,29.538,0,0,0,100,88.227V75a5.006,5.006,0,0,0-5-5V51.664a4.969,4.969,0,0,0-1.3-3.333A4.96,4.96,0,0,0,95,45V5a5.006,5.006,0,0,0-5-5H10A5.006,5.006,0,0,0,5,5V45a4.967,4.967,0,0,0,1.3,3.334A4.958,4.958,0,0,0,5,51.666V70a5.006,5.006,0,0,0-5,5v13.23A29.563,29.563,0,0,0,.883,95.4a26.813,26.813,0,0,1,.585,3.135ZM29.691,60a4.974,4.974,0,0,0-1.36-2.033v-1.3h3.333V60ZM30,70h1.667v3.333H30Zm0,6.666h2.956L30,79.462ZM41.664,70H45v3.333H41.664Zm16.667,3.333H55V70h3.333Zm0,13.333H41.665V83.332H58.331Zm10.618,6.667h-37.9A7.576,7.576,0,0,1,32.184,91.8l6.149-6.231v2.763A1.666,1.666,0,0,0,40,90H60a1.666,1.666,0,0,0,1.666-1.667V85.569L67.814,91.8a7.576,7.576,0,0,1,1.136,1.532ZM67.04,76.665H70v2.8Zm4.625-18.7A4.987,4.987,0,0,0,70.305,60H68.332V56.666h3.333ZM70,73.332H68.332V70H70Zm18.333-5a4.97,4.97,0,0,0-2.454.645,4.92,4.92,0,0,0-5.88-2v-3.64h6.667a1.666,1.666,0,0,0,1.667-1.666V55a1.666,1.666,0,0,0-1.667-1.666H80A1.665,1.665,0,0,0,78.332,55v2.967A4.96,4.96,0,0,0,75,56.666V55a1.666,1.666,0,0,0-1.667-1.666H66.665A1.665,1.665,0,0,0,65,55v6.667a1.665,1.665,0,0,0,1.666,1.666H70v3.334H66.665A1.665,1.665,0,0,0,65,68.332v6.45a4.965,4.965,0,0,0-3.334-1.145V68.332A1.665,1.665,0,0,0,60,66.666H53.332a1.665,1.665,0,0,0-1.666,1.666V75a1.665,1.665,0,0,0,1.666,1.666h3.9A4.772,4.772,0,0,0,57.049,80h-14.1a4.788,4.788,0,0,0-.182-3.334h3.9A1.666,1.666,0,0,0,48.334,75V68.332a1.666,1.666,0,0,0-1.667-1.666H40a1.666,1.666,0,0,0-1.667,1.666v5.3A4.92,4.92,0,0,0,35,74.777V68.332a1.666,1.666,0,0,0-1.667-1.666H30V63.332h3.333A1.666,1.666,0,0,0,35,61.666V55a1.666,1.666,0,0,0-1.667-1.666H26.668A1.666,1.666,0,0,0,25,55v1.667a4.962,4.962,0,0,0-3.333,1.3V55A1.666,1.666,0,0,0,20,53.333H13.335A1.666,1.666,0,0,0,11.668,55v6.667a1.666,1.666,0,0,0,1.667,1.666H20v3.64a4.92,4.92,0,0,0-5.88,2,4.957,4.957,0,0,0-5.786.65V51.666A1.668,1.668,0,0,1,10,50H90a1.668,1.668,0,0,1,1.667,1.667V69.627a4.969,4.969,0,0,0-3.333-1.295M81.665,56.666H85V60H81.665ZM18.333,60H15V56.666h3.333Zm-10-55A1.668,1.668,0,0,1,10,3.333H90A1.668,1.668,0,0,1,91.665,5V45A1.668,1.668,0,0,1,90,46.666H10A1.668,1.668,0,0,1,8.333,45Z" fill="#0f2771"/>
                <path id="Trazado_203816" data-name="Trazado 203816" d="M46.666,53.332H40A1.666,1.666,0,0,0,38.333,55v6.667A1.665,1.665,0,0,0,40,63.332h6.667a1.666,1.666,0,0,0,1.667-1.666V55a1.667,1.667,0,0,0-1.667-1.667M45,60H41.666V56.666H45Z" fill="#0f2771"/>
                <path id="Trazado_203817" data-name="Trazado 203817" d="M60,53.332H53.332A1.666,1.666,0,0,0,51.666,55v6.667a1.665,1.665,0,0,0,1.666,1.666H60a1.666,1.666,0,0,0,1.667-1.666V55A1.667,1.667,0,0,0,60,53.332M58.332,60H55V56.666h3.333Z" fill="#0f2771"/>
                <path id="Trazado_203818" data-name="Trazado 203818" d="M13.333,43.333H86.665a1.667,1.667,0,0,0,1.667-1.667V8.333a1.666,1.666,0,0,0-1.667-1.666H13.333a1.666,1.666,0,0,0-1.667,1.666V41.666a1.667,1.667,0,0,0,1.667,1.667M15,10H85V40H15Z" fill="#0f2771"/>
                <path id="Trazado_203819" data-name="Trazado 203819" d="M31.261,29.95a1.631,1.631,0,0,0,.407.05,1.667,1.667,0,0,0,1.615-1.263L36.616,15.4a1.667,1.667,0,0,0-3.235-.807L30.048,27.93a1.665,1.665,0,0,0,1.213,2.02" fill="#0f2771"/>
                <path id="Trazado_203820" data-name="Trazado 203820" d="M27.844,13.821a1.665,1.665,0,0,0-2.357,0l-6.666,6.667a1.663,1.663,0,0,0,0,2.356l6.666,6.667a1.667,1.667,0,0,0,2.357-2.357l-5.488-5.488,5.488-5.488A1.665,1.665,0,0,0,27.844,13.821Z" fill="#0f2771"/>
                <path id="Trazado_203821" data-name="Trazado 203821" d="M41.178,13.821a1.667,1.667,0,0,0-2.357,2.357l5.489,5.488-5.489,5.488a1.667,1.667,0,0,0,2.357,2.357l6.667-6.667a1.665,1.665,0,0,0,0-2.356Z" fill="#0f2771"/>
                <path id="Trazado_203822" data-name="Trazado 203822" d="M63.332,13.333h-10a1.667,1.667,0,0,0,0,3.333h10a1.667,1.667,0,1,0,0-3.333" fill="#0f2771"/>
                <path id="Trazado_203823" data-name="Trazado 203823" d="M80,13.333H70a1.667,1.667,0,0,0,0,3.333H80a1.667,1.667,0,1,0,0-3.333" fill="#0f2771"/>
                <path id="Trazado_203824" data-name="Trazado 203824" d="M63.332,26.666H56.665a1.667,1.667,0,0,0,0,3.333h6.667a1.667,1.667,0,1,0,0-3.333" fill="#0f2771"/>
                <path id="Trazado_203825" data-name="Trazado 203825" d="M70,30h3.333a1.666,1.666,0,1,0,0-3.332H70A1.666,1.666,0,1,0,70,30" fill="#0f2771"/>
                <path id="Trazado_203826" data-name="Trazado 203826" d="M25,33.333H20a1.667,1.667,0,1,0,0,3.333h5a1.667,1.667,0,1,0,0-3.333" fill="#0f2771"/>
                <path id="Trazado_203827" data-name="Trazado 203827" d="M46.666,33.333h-15a1.667,1.667,0,0,0,0,3.333h15a1.667,1.667,0,1,0,0-3.333" fill="#0f2771"/>
                <path id="Trazado_203828" data-name="Trazado 203828" d="M63.332,20H60a1.667,1.667,0,1,0,0,3.333h3.333a1.667,1.667,0,1,0,0-3.333" fill="#0f2771"/>
                <path id="Trazado_203829" data-name="Trazado 203829" d="M70,23.333h6.667a1.667,1.667,0,0,0,0-3.333H70a1.667,1.667,0,1,0,0,3.333" fill="#0f2771"/>
                <path id="Trazado_203830" data-name="Trazado 203830" d="M63.332,33.333h-10a1.667,1.667,0,0,0,0,3.333h10a1.667,1.667,0,1,0,0-3.333" fill="#0f2771"/>
                <path id="Trazado_203831" data-name="Trazado 203831" d="M80,33.333H70a1.667,1.667,0,0,0,0,3.333H80a1.667,1.667,0,1,0,0-3.333" fill="#0f2771"/>
              </g>
            </g>
          </g>
        </g>
      </g>
    </g>
  </g>
</svg>
