<svg xmlns="http://www.w3.org/2000/svg" width="820" height="432" viewBox="0 0 820 432">
  <g id="Grupo_222364" data-name="Grupo 222364" transform="translate(-390 -22311.441)">
    <g id="Grupo_222363" data-name="Grupo 222363">
      <g id="Grupo_222362" data-name="Grupo 222362">
        <g id="Grupo_222152" data-name="Grupo 222152" transform="translate(0 -56.56)">
          <rect id="Rectángulo_295838" data-name="Rectángulo 295838" width="820" height="432" rx="18" transform="translate(390 22368)" fill="#bddcf6" opacity="0.23"/>
          <rect id="Rectángulo_295839" data-name="Rectángulo 295839" width="173" height="58" rx="18" transform="translate(407 22378)" fill="#4dd0e1"/>
          <rect id="Rectángulo_295843" data-name="Rectángulo 295843" width="173" height="58" transform="translate(407 22531)" fill="#feca2e"/>
          <rect id="Rectángulo_295844" data-name="Rectángulo 295844" width="173" height="58" transform="translate(600 22582)" fill="#feca2e"/>
          <rect id="Rectángulo_295845" data-name="Rectángulo 295845" width="173" height="58" transform="translate(810 22631)" fill="#feca2e"/>
          <rect id="Rectángulo_295846" data-name="Rectángulo 295846" width="173" height="58" transform="translate(1020 22677)" fill="#feca2e"/>
          <rect id="Rectángulo_295840" data-name="Rectángulo 295840" width="173" height="58" rx="18" transform="translate(600 22421)" fill="#4dd0e1"/>
          <rect id="Rectángulo_295842" data-name="Rectángulo 295842" width="173" height="58" rx="18" transform="translate(1020 22509)" fill="#4dd0e1"/>
          <text id="Estudio_de_viabilidad" data-name="Estudio de
viabilidad" transform="translate(492 22401)" fill="#12263f" font-size="16" font-family="Roboto-Regular, Roboto"><tspan x="-37.441" y="0">Estudio de</tspan><tspan x="-33.855" y="24">viabilidad</tspan></text>
          <text id="Informe_de_viabilidad" data-name="Informe de
viabilidad" transform="translate(494 22554)" fill="#12263f" font-size="16" font-family="Roboto-Regular, Roboto"><tspan x="-38.617" y="0">Informe de</tspan><tspan x="-33.855" y="24">viabilidad</tspan></text>
          <text id="Obtención_y_análisis_de_requerimientos" data-name="Obtención y análisis
de requerimientos" transform="translate(687 22444)" fill="#12263f" font-size="16" font-family="Roboto-Regular, Roboto"><tspan x="-71.297" y="0">Obtención y análisis</tspan><tspan x="-64.348" y="24">de requerimientos</tspan></text>
          <text id="Modelos_del_sistema" data-name="Modelos
del sistema" transform="translate(687 22603)" fill="#12263f" font-size="16" font-family="Roboto-Regular, Roboto"><tspan x="-30.926" y="0">Modelos</tspan><tspan x="-41.078" y="24">del sistema</tspan></text>
          <text id="Documentos_de_requerimientos" data-name="Documentos de
requerimientos" transform="translate(897 22654)" fill="#12263f" font-size="16" font-family="Roboto-Regular, Roboto"><tspan x="-56.023" y="0">Documentos de</tspan><tspan x="-53.617" y="24">requerimientos</tspan></text>
          <text id="Validación_de_requerimientos" data-name="Validación de
requerimientos" transform="translate(1107 22532)" fill="#12263f" font-size="16" font-family="Roboto-Regular, Roboto"><tspan x="-47.844" y="0">Validación de</tspan><tspan x="-53.617" y="24">requerimientos</tspan></text>
          <text id="Requerimientos_del_usuario_del_sistema" data-name="Requerimientos del
usuario del sistema" transform="translate(1107 22700)" fill="#12263f" font-size="16" font-family="Roboto-Regular, Roboto"><tspan x="-68.508" y="0">Requerimientos del</tspan><tspan x="-69.566" y="24">usuario del sistema</tspan></text>
          <text id="Procesos_de_la_ingeniería_de_requerimientos" data-name="Procesos de la ingeniería de requerimientos" transform="translate(576 22750)" fill="#12263f" font-size="16" font-family="Roboto-Bold, Roboto" font-weight="700"><tspan x="-158.234" y="0">Procesos de la ingeniería de requerimientos</tspan></text>
          <path id="Trazado_225626" data-name="Trazado 225626" d="M-8569,10736v96.8" transform="translate(9054 11700)" fill="none" stroke="#707070" stroke-linecap="round" stroke-width="2"/>
          <path id="Trazado_225632" data-name="Trazado 225632" d="M-8569,10736v103" transform="translate(9254 11743)" fill="none" stroke="#707070" stroke-linecap="round" stroke-width="2"/>
          <path id="Trazado_225631" data-name="Trazado 225631" d="M-8569,10736v110" transform="translate(9678 11831)" fill="none" stroke="#707070" stroke-linecap="round" stroke-width="2"/>
          <path id="Trazado_225627" data-name="Trazado 225627" d="M-8511,10736v19.6h67" transform="translate(9044 11700)" fill="none" stroke="#707070" stroke-linecap="round" stroke-width="2"/>
          <path id="Trazado_225628" data-name="Trazado 225628" d="M-8316,10779v21.8h82" transform="translate(9044 11700)" fill="none" stroke="#707070" stroke-linecap="round" stroke-width="2"/>
          <path id="Trazado_225630" data-name="Trazado 225630" d="M-8316,10779v18.85h82" transform="translate(9254 11742.9)" fill="none" stroke="#707070" stroke-linecap="round" stroke-width="2"/>
          <path id="Trazado_225634" data-name="Trazado 225634" d="M-8316,10779v26.425h116" transform="translate(9220 11910)" fill="none" stroke="#707070" stroke-linecap="round" stroke-width="2"/>
          <path id="Trazado_225629" data-name="Trazado 225629" d="M-8149,10924.5V10744h-123.4" transform="translate(9044 11706.5)" fill="none" stroke="#707070" stroke-linecap="round" stroke-width="2"/>
          <rect id="Rectángulo_295841" data-name="Rectángulo 295841" width="173" height="58" rx="18" transform="translate(810 22465)" fill="#4dd0e1"/>
          <text id="Especificación_de_requerimientos" data-name="Especificación de
requerimientos" transform="translate(897 22488)" fill="#12263f" font-size="16" font-family="Roboto-Regular, Roboto"><tspan x="-62.332" y="0">Especificación de</tspan><tspan x="-53.617" y="24">requerimientos</tspan></text>
          <path id="Trazado_225633" data-name="Trazado 225633" d="M-8359,10940v73.6h89.975v59.4H-7934.4v-38.7" transform="translate(9044.001 11700)" fill="none" stroke="#707070" stroke-linecap="round" stroke-width="2"/>
          <path id="Polígono_76" data-name="Polígono 76" d="M5,0l5,9H0Z" transform="translate(490 22537) rotate(180)" fill="#636363"/>
          <path id="Polígono_77" data-name="Polígono 77" d="M5,0l5,9H0Z" transform="translate(690 22589) rotate(180)" fill="#636363"/>
          <path id="Polígono_78" data-name="Polígono 78" d="M5,0l5,9H0Z" transform="translate(900 22636) rotate(180)" fill="#636363"/>
          <path id="Polígono_79" data-name="Polígono 79" d="M5,0l5,9H0Z" transform="translate(1114 22685) rotate(180)" fill="#636363"/>
          <path id="Polígono_80" data-name="Polígono 80" d="M5,0l5,9H0Z" transform="translate(1105 22731)" fill="#636363"/>
          <path id="Polígono_81" data-name="Polígono 81" d="M5,0l5,9H0Z" transform="translate(1024.5 22710.426) rotate(90)" fill="#636363"/>
          <path id="Polígono_82" data-name="Polígono 82" d="M5,0l5,9H0Z" transform="translate(1024 22535.75) rotate(90)" fill="#636363"/>
          <path id="Polígono_83" data-name="Polígono 83" d="M5,0l5,9H0Z" transform="translate(814.5 22495.801) rotate(90)" fill="#636363"/>
          <path id="Polígono_85" data-name="Polígono 85" d="M5,0l5,9H0Z" transform="translate(604 22450) rotate(90)" fill="#636363"/>
          <path id="Polígono_84" data-name="Polígono 84" d="M5,0l5,9H0Z" transform="translate(768.5 22456) rotate(-90)" fill="#636363"/>
        </g>
      </g>
    </g>
  </g>
</svg>
