<svg xmlns="http://www.w3.org/2000/svg" xmlns:xlink="http://www.w3.org/1999/xlink" width="400" height="229" viewBox="0 0 400 229">
  <defs>
    <clipPath id="clip-path">
      <rect id="Rect치ngulo_295984" data-name="Rect치ngulo 295984" width="400" height="229" transform="translate(180 3702)" fill="#fff" stroke="#707070" stroke-width="1"/>
    </clipPath>
  </defs>
  <g id="Grupo_222367" data-name="Grupo 222367" transform="translate(-180 -3702)">
    <g id="Grupo_222366" data-name="Grupo 222366">
      <g id="Grupo_222365" data-name="Grupo 222365">
        <g id="Enmascarar_grupo_60" data-name="Enmascarar grupo 60" clip-path="url(#clip-path)">
          <g id="Meeting-pana_1_" data-name="Meeting-pana (1)" transform="translate(150 3572.967)">
            <g id="freepik--Floor--inject-26" transform="translate(33.933 419.166)">
              <path id="Trazado_226110" data-name="Trazado 226110" d="M421.659,464.084c0,.126-86.708.233-193.63.233s-193.648-.108-193.648-.233,86.681-.234,193.648-.234S421.659,463.985,421.659,464.084Z" transform="translate(-34.38 -463.85)" fill="#263238"/>
            </g>
            <g id="freepik--character-3--inject-26" transform="translate(275.757 178.888)">
              <rect id="Rect치ngulo_295980" data-name="Rect치ngulo 295980" width="6.215" height="74.458" transform="translate(103.534 229.016) rotate(180)" fill="#455a64"/>
              <path id="Trazado_226136" data-name="Trazado 226136" d="M366.52,371.055h88.908a9.645,9.645,0,0,0-9.645-9.645H376.165A9.645,9.645,0,0,0,366.52,371.055Z" transform="translate(-310.062 -213.129)" fill="#455a64"/>
              <path id="Trazado_226137" data-name="Trazado 226137" d="M408.76,372.344a66.278,66.278,0,0,0,10.9,0,63.762,63.762,0,0,0-10.9,0Z" transform="translate(-314.368 -214.22)" fill="#263238"/>
              <path id="Trazado_226138" data-name="Trazado 226138" d="M385.21,455.718h.9a26.446,26.446,0,1,1,52.891,0h.894a27.326,27.326,0,1,0-54.651,0Z" transform="translate(-311.967 -219.957)" fill="#455a64"/>
              <path id="Trazado_226139" data-name="Trazado 226139" d="M441,459.865a4.1,4.1,0,1,0,4.1-4.1,4.1,4.1,0,0,0-4.1,4.1Z" transform="translate(-317.655 -222.748)" fill="#263238"/>
              <path id="Trazado_226140" data-name="Trazado 226140" d="M380.91,459.244a4.1,4.1,0,1,0,1.2-2.9A4.1,4.1,0,0,0,380.91,459.244Z" transform="translate(-311.529 -222.684)" fill="#455a64"/>
              <path id="Trazado_226141" data-name="Trazado 226141" d="M385.5,451.285c0,.126,11.89.233,26.556.233s26.556-.108,26.556-.233-11.89-.225-26.556-.225S385.5,451.159,385.5,451.285Z" transform="translate(-311.997 -222.268)" fill="#455a64"/>
              <path id="Trazado_226142" data-name="Trazado 226142" d="M462.131,285.658V340.44a13.022,13.022,0,0,1-13.022,13.022H406.9l5.739-67.83a5.8,5.8,0,0,1,5.8-5.8h37.916a5.8,5.8,0,0,1,5.775,5.828Z" transform="translate(-314.179 -204.813)" fill="#455a64"/>
              <path id="Trazado_226143" data-name="Trazado 226143" d="M451.77,353.392a.666.666,0,0,1,.1-.162l.305-.449c.287-.386.683-.97,1.167-1.742a28.738,28.738,0,0,0,3.125-7,28.1,28.1,0,0,0,1.051-5.182,53.457,53.457,0,0,0,.162-6.089v-14.01c0-9.924.054-18.9.072-25.46,0-3.224.045-5.846.063-7.714,0-.9,0-1.581.045-2.092a4.666,4.666,0,0,1,.045-.736,4.679,4.679,0,0,1,0,.736c0,.512,0,1.212.045,2.092,0,1.868,0,4.49.063,7.714,0,6.556.045,15.536.072,25.46v14.01a53.813,53.813,0,0,1-.215,6.125,28.352,28.352,0,0,1-4.41,12.223,14.855,14.855,0,0,1-1.239,1.7A3.486,3.486,0,0,1,451.77,353.392Z" transform="translate(-318.753 -205.111)" fill="#263238"/>
              <path id="Trazado_226144" data-name="Trazado 226144" d="M426.16,361.427a8.413,8.413,0,0,1,1.347-.072l3.655-.045h12.079c2.362,0,4.607,0,6.646.081a21.194,21.194,0,0,1,5.388.593,8.37,8.37,0,0,1,3.26,1.706,5.17,5.17,0,0,1,.71.71,1.1,1.1,0,0,1,.215.278,11.524,11.524,0,0,0-1.033-.853,8.872,8.872,0,0,0-3.233-1.545,23,23,0,0,0-5.388-.485l-6.646-.045c-4.715,0-8.981-.081-12.07-.144l-3.655-.1a7.461,7.461,0,0,1-1.275-.081Z" transform="translate(-316.142 -213.119)" fill="#263238"/>
              <path id="Trazado_226145" data-name="Trazado 226145" d="M381.972,221.71c-1.248,3.835-2.506,7.75-2.416,11.783,0,1.859.341,3.862-.575,5.478a17.491,17.491,0,0,1-2.649,2.82,8.316,8.316,0,0,0-1.473,8.981,5.6,5.6,0,0,0,2.128,2.533,8.083,8.083,0,0,0,3.718.9,62.5,62.5,0,0,0,12.824-.584c2.03-.305,4.221-.808,5.469-2.434,1.123-1.446,1.2-3.431,1.141-5.263a50.2,50.2,0,0,0-5.038-20.09" transform="translate(-310.84 -198.888)" fill="#263238"/>
              <path id="Trazado_226146" data-name="Trazado 226146" d="M413.308,216.9a3.17,3.17,0,1,1-.413,5.882c2.057-.359,4.032,1.2,4.993,3.062s1.176,4,1.67,6.026,1.374,4.14,3.161,5.227,4.113,1.078,5.209,2.739.144,4.077.62,6.089,2.317,3.332,3.943,4.6,3.3,2.937,3.206,4.993a4.679,4.679,0,0,1-2.811,3.79,12.213,12.213,0,0,1-4.823.9,70.945,70.945,0,0,1-24.113-3.107,6.556,6.556,0,0,1-3.332-1.85c-1.239-1.527-.943-3.745-.593-5.676a128.535,128.535,0,0,1,4.284-18.2,43.126,43.126,0,0,1,9.25-16.093" transform="translate(-313.447 -198.231)" fill="#263238"/>
              <path id="Trazado_226147" data-name="Trazado 226147" d="M418.523,279.254h9.591l-3.4-17.108c-2.515-13.992-22.137-14.953-22.137-14.953l-15.4-.207s-11.414-1.536-18.455,6.4c-1.446,1.634-2.964,3.323-4.49,4.984l-16.7,17.476-1.8-21.922-14.306,2.245,1.994,27.526a11.289,11.289,0,0,0,7.562,9.762c3.1.979,6.242.117,9.385-1.446,8.334-4.149,23.951-17.368,25.146-18.383a20.035,20.035,0,0,0-2.155,8c0,4.562,4.679,7.975,4.679,7.975l1.509,13.83-4.832,22.407L425,323.824a50.049,50.049,0,0,0-7.409-21.158ZM375.6,273.515a1.367,1.367,0,0,1-.162-.332l.539-.386a6.241,6.241,0,0,0-.377.718Z" transform="translate(-306.484 -201.452)" fill="#4dd0e1"/>
              <path id="Trazado_226148" data-name="Trazado 226148" d="M401.35,324.775a88.025,88.025,0,0,1-8.136,4.939c-3.592,1.7-3.736,1.383-3.871.9-.377-1.194,6.152-3.224,4.49-3.592s-7.669,3.395-8,2.128c-.44-1.652,6.43-3.646,7-3.862s.26-1.033-.242-.808c-.727.314-8.388,3.413-8.837,1.8-.251-.9,1.419-1.15,1.419-1.15s7.409-2.38,7.184-3.143-4.634.485-6.08,1.015-2.281.054-2-.763c.189-.557,4.589-2.272,6.035-2.766s5.442-1.8,2.928-2.694-4.1-2.622-4.221-3.359.9-1.15,1.473-.557a10.032,10.032,0,0,0,2.317,1.419,6.34,6.34,0,0,0,2.084.62c.629.081,1.185.126,1.688.162l5.343.4,2.694,7.077Z" transform="translate(-311.817 -208.151)" fill="#ffbe9d"/>
              <path id="Trazado_226149" data-name="Trazado 226149" d="M426.284,254.311a18.86,18.86,0,0,1,6.331,9.466c1.185,3.889,4.589,17.063,7.095,26.816a12.573,12.573,0,0,1-8.217,15.025l-28.3,15.267-4.625-11.962L423.4,292.64l-6-22.227c-.988-3.386-1.41-6.825-.18-10.121S421.066,253.683,426.284,254.311Z" transform="translate(-313.329 -202.203)" fill="#4dd0e1"/>
              <path id="Trazado_226150" data-name="Trazado 226150" d="M332.33,255.746l-1.715-5.5c-.8-3.934,2.308-4.571,2.829-5.155a8.2,8.2,0,0,1,2.775-2.236l-.251-1.59a37.007,37.007,0,0,1-.9-5.155c0-.952,1.733-1.015,1.976-.1.557,2.075,1.536,5.595,2.057,6.9.691,1.706,2.218,6.17,3.826,3.4a13.936,13.936,0,0,0,1.715-5.263,1.039,1.039,0,1,1,1.913.808c-.162.79-.26,2.182-.754,4.077-.225.844-.691,1.877-.9,2.694-.278.979-.4,4.625-.548,5.388Z" transform="translate(-306.389 -200.28)" fill="#ffbe9d"/>
              <path id="Trazado_226151" data-name="Trazado 226151" d="M333.3,247.38a13.427,13.427,0,0,1,.431,1.625,11.8,11.8,0,0,0,.629,1.679,3.278,3.278,0,0,1,.35,1.1,1.15,1.15,0,0,1-.647,1.185,1.383,1.383,0,0,1-1.3-.26,3.034,3.034,0,0,1-.79-.844,4.894,4.894,0,0,1-.683-1.8,4.347,4.347,0,0,1-.108-1.7,10.268,10.268,0,0,1,.431,1.625,5.028,5.028,0,0,0,.718,1.59,2.765,2.765,0,0,0,.691.718,1.006,1.006,0,0,0,.9.2.709.709,0,0,0,.359-.727,3.212,3.212,0,0,0-.287-.952,9.223,9.223,0,0,1-.557-1.8A3.961,3.961,0,0,1,333.3,247.38Z" transform="translate(-306.455 -201.505)" fill="#eb996e"/>
              <path id="Trazado_226152" data-name="Trazado 226152" d="M336,245.35a10.779,10.779,0,0,1,.817,2.084c.234.709.485,1.482.763,2.308.126.44.3.9.413,1.392a1.581,1.581,0,0,1,0,.9,1.32,1.32,0,0,1-.62.7,1.643,1.643,0,0,1-1.688-.09,2.694,2.694,0,0,1-1-1.167,17.581,17.581,0,0,1-.727-2.344,10.453,10.453,0,0,1-.485-2.191,10.835,10.835,0,0,1,.8,2.092c.242.647.431,1.473.8,2.245a2.425,2.425,0,0,0,.853.979,1.194,1.194,0,0,0,1.221.063.9.9,0,0,0,.431-1.069c-.09-.44-.26-.9-.377-1.347l-.674-2.335a10.667,10.667,0,0,1-.53-2.218Z" transform="translate(-306.694 -201.298)" fill="#eb996e"/>
              <path id="Trazado_226153" data-name="Trazado 226153" d="M347,284.188a8.928,8.928,0,0,1,.9-2.694,8.8,8.8,0,0,1,1.32-2.524,8.927,8.927,0,0,1-.9,2.694A8.8,8.8,0,0,1,347,284.188Z" transform="translate(-308.072 -204.725)" fill="#263238"/>
              <path id="Trazado_226154" data-name="Trazado 226154" d="M370.645,279.924a15.446,15.446,0,0,1-2.524-.593l-2.694-.763a15.2,15.2,0,0,1-3.224-1.293,7.13,7.13,0,0,1-2.568-2.4,5.146,5.146,0,0,1-.763-2.757,17.287,17.287,0,0,0-.063-1.877,4.488,4.488,0,0,1-.1-.683,1.924,1.924,0,0,1,.278.647,9.958,9.958,0,0,1,.216,1.895,4.949,4.949,0,0,0,.79,2.55,7.076,7.076,0,0,0,2.443,2.218,17.4,17.4,0,0,0,3.116,1.293l2.694.853A14.367,14.367,0,0,1,370.645,279.924Z" transform="translate(-309.266 -203.766)" fill="#e0e0e0"/>
              <path id="Trazado_226155" data-name="Trazado 226155" d="M418.057,318.58c-.081,0,0-.808-.225-2.057a12.572,12.572,0,0,0-1.985-4.49c-.539-.817-1.1-1.554-1.617-2.236a13.171,13.171,0,0,0-1.419-1.706,2.147,2.147,0,0,0-1.293-.575c-.341,0-.53.054-.539,0s.153-.171.539-.207a2.209,2.209,0,0,1,1.5.5,11.289,11.289,0,0,1,1.554,1.706c.539.665,1.114,1.41,1.67,2.236a11.37,11.37,0,0,1,1.913,4.706,4.275,4.275,0,0,1-.1,2.119Z" transform="translate(-314.595 -207.614)" fill="#e0e0e0"/>
              <path id="Trazado_226156" data-name="Trazado 226156" d="M428.961,264.876a3.758,3.758,0,0,1-.7-.2l-1.976-.629a24.078,24.078,0,0,0-7.436-1.3,11.782,11.782,0,0,0-5.011,1.176,24.158,24.158,0,0,0-4.948,3.368,56.889,56.889,0,0,1-5.245,4.167,13.9,13.9,0,0,1-6.789,2.452,7.9,7.9,0,0,1-3.646-.727,9.439,9.439,0,0,1-2.883-2.155c-1.608-1.724-2.748-3.673-4.041-5.343a15.437,15.437,0,0,0-9.205-5.9,16.309,16.309,0,0,0-7.5.108c-1.733.467-2.613.961-2.631.9a10.911,10.911,0,0,1,2.586-1.069,15.815,15.815,0,0,1,7.616-.26,16.164,16.164,0,0,1,4.948,1.895,15.168,15.168,0,0,1,4.49,4.059c1.32,1.7,2.47,3.637,4.032,5.3a7.9,7.9,0,0,0,6.179,2.694,13.471,13.471,0,0,0,6.556-2.371,58.711,58.711,0,0,0,5.227-4.113,24.249,24.249,0,0,1,5.047-3.386,12.124,12.124,0,0,1,5.173-1.159,23.09,23.09,0,0,1,7.5,1.464c.853.287,1.509.539,1.958.709A3.776,3.776,0,0,1,428.961,264.876Z" transform="translate(-310.106 -202.701)" fill="#e0e0e0"/>
              <path id="Trazado_226157" data-name="Trazado 226157" d="M419.09,291.194a9.638,9.638,0,0,0-1.616-.368,8.98,8.98,0,0,0-4.365,1.006,51.392,51.392,0,0,1-6.242,2.694,25.774,25.774,0,0,1-8.28,1.212,24.867,24.867,0,0,1-8.226-1.563,25.434,25.434,0,0,1-6.026-3.215,23.568,23.568,0,0,1-3.458-3.008,11.412,11.412,0,0,1-.817-.943,1.929,1.929,0,0,1-.26-.359s.431.431,1.212,1.176a28.55,28.55,0,0,0,3.511,2.9,26.189,26.189,0,0,0,5.99,3.08A24.786,24.786,0,0,0,398.6,295.3a25.73,25.73,0,0,0,8.136-1.141,55.946,55.946,0,0,0,6.242-2.631,8.917,8.917,0,0,1,4.49-.9A3.736,3.736,0,0,1,419.09,291.194Z" transform="translate(-311.416 -205.508)" fill="#e0e0e0"/>
              <path id="Trazado_226158" data-name="Trazado 226158" d="M440.716,287.49a1.735,1.735,0,0,1-.225.683,8.087,8.087,0,0,1-1,1.661,9.151,9.151,0,0,1-5.326,3.431,15.59,15.59,0,0,1-6.367-.162,11.421,11.421,0,0,1-2.542-.683,21.3,21.3,0,0,1,2.6.359,17.332,17.332,0,0,0,6.206,0,9.438,9.438,0,0,0,5.182-3.179A19.194,19.194,0,0,0,440.716,287.49Z" transform="translate(-316.05 -205.594)" fill="#e0e0e0"/>
              <path id="Trazado_226159" data-name="Trazado 226159" d="M416.884,270.12a2.215,2.215,0,0,1,.126.431c.081.314.18.736.314,1.266l1.176,4.832c1.033,4.149,2.55,10.076,4.49,17.18v.135l-.117.081-20.925,14.432-3.314,2.281.081-.278c1.652,4.14,3.233,8.083,4.706,11.818l-.3-.117c8.675-4.284,15.985-8.2,21.131-11.028l6-3.323,1.6-.9a2.885,2.885,0,0,1,.566-.278,4.816,4.816,0,0,1-.53.341l-1.536.961c-1.374.817-3.386,1.994-5.936,3.44-5.11,2.892-12.4,6.861-21.077,11.181l-.207.108-.09-.224-4.733-11.809-.072-.171.162-.108,3.3-2.272,20.97-14.369-.081.216c-1.868-7.113-3.332-13.058-4.293-17.225-.485-2.092-.844-3.736-1.078-4.858-.108-.539-.189-.961-.252-1.284a2.317,2.317,0,0,1-.09-.458Z" transform="translate(-313.296 -203.823)" fill="#263238"/>
              <path id="Trazado_226160" data-name="Trazado 226160" d="M432.414,298.614a22.446,22.446,0,0,0-3.278-1.527,10.111,10.111,0,0,0-2.479-.476c-.656,0-1.06,0-1.078-.072s.386-.216,1.069-.26a7.283,7.283,0,0,1,2.631.359,5.7,5.7,0,0,1,3.134,1.976Z" transform="translate(-316.083 -206.489)" fill="#263238"/>
              <path id="Trazado_226161" data-name="Trazado 226161" d="M315.139,405.814l3.718-7.714,14.495,6.87-5.325,11.352-.9-.368c-4.1-1.679-20.745-8.8-23.035-10.884C301.507,402.752,315.139,405.814,315.139,405.814Z" transform="translate(-303.665 -216.869)" fill="#4dd0e1"/>
              <g id="Grupo_222321" data-name="Grupo 222321" transform="translate(19.17 194.484)" opacity="0.5">
                <path id="Trazado_226162" data-name="Trazado 226162" d="M325,415.213A5.622,5.622,0,0,1,328.314,413a5.389,5.389,0,0,1,3.889.548l-1.913,4.059Z" transform="translate(-325 -412.858)" fill="#fff"/>
              </g>
              <g id="Grupo_222322" data-name="Grupo 222322" transform="translate(0 187.354)" opacity="0.4">
                <path id="Trazado_226163" data-name="Trazado 226163" d="M308.365,405.234s-4.9-.808-4.706.162,16.758,8.8,24.355,11.621l.135-.341-19.389-8.981S309.191,405.665,308.365,405.234Z" transform="translate(-303.654 -404.918)" fill="#fff"/>
              </g>
              <path id="Trazado_226164" data-name="Trazado 226164" d="M328.4,416.8a1.105,1.105,0,0,1-.26-.09l-.736-.3-2.694-1.132c-2.263-.97-5.388-2.362-8.774-3.969s-6.439-3.125-8.63-4.257l-2.586-1.356-.691-.377-.242-.144a.9.9,0,0,1,.26.108l.71.35,2.613,1.3c2.2,1.1,5.254,2.6,8.657,4.2s6.493,3.008,8.738,4.014l2.694,1.185.718.332Z" transform="translate(-303.666 -217.591)" fill="#263238"/>
              <path id="Trazado_226165" data-name="Trazado 226165" d="M309.194,407.939a6.367,6.367,0,0,0,.1-1.491,6.656,6.656,0,0,0-.413-1.428A2.586,2.586,0,0,1,309.194,407.939Z" transform="translate(-304.186 -217.575)" fill="#263238"/>
              <path id="Trazado_226166" data-name="Trazado 226166" d="M315.112,407.932a3.2,3.2,0,0,1-.2-1.572,1.707,1.707,0,0,1,.2.772A1.679,1.679,0,0,1,315.112,407.932Z" transform="translate(-304.797 -217.711)" fill="#263238"/>
              <path id="Trazado_226167" data-name="Trazado 226167" d="M316.709,407.859a2.482,2.482,0,0,1-.35-.584c-.144-.341-.215-.638-.171-.656s.207.233.35.584S316.763,407.859,316.709,407.859Z" transform="translate(-304.93 -217.738)" fill="#263238"/>
              <path id="Trazado_226168" data-name="Trazado 226168" d="M318.147,406.829a1.912,1.912,0,0,1-.8-.269,2.012,2.012,0,0,1-.728-.431c0-.054.386.063.808.26S318.165,406.775,318.147,406.829Z" transform="translate(-304.975 -217.686)" fill="#263238"/>
              <path id="Trazado_226169" data-name="Trazado 226169" d="M318.908,405.922a1.733,1.733,0,0,1-.961-.162,1.652,1.652,0,0,1-.817-.521,5.894,5.894,0,0,1,.9.341,4.281,4.281,0,0,1,.88.341Z" transform="translate(-305.027 -217.596)" fill="#263238"/>
              <path id="Trazado_226170" data-name="Trazado 226170" d="M314.993,406.175a2.64,2.64,0,0,1-.9-.44,6.527,6.527,0,0,1-.9-.691,3.154,3.154,0,0,1-.458-.5.53.53,0,0,1-.09-.4.4.4,0,0,1,.314-.305,1.877,1.877,0,0,1,1.877,1.5,1.8,1.8,0,0,1,0,.763c0,.18-.081.269-.09.26a3.152,3.152,0,0,0-.054-1,1.913,1.913,0,0,0-.548-.9,1.6,1.6,0,0,0-1.15-.449c-.2,0-.224.233-.108.413a3.481,3.481,0,0,0,.422.476,6.674,6.674,0,0,0,.844.7C314.652,405.977,315,406.148,314.993,406.175Z" transform="translate(-304.57 -217.454)" fill="#263238"/>
              <path id="Trazado_226171" data-name="Trazado 226171" d="M315,406.205a1.006,1.006,0,0,1,.2-.7,1.662,1.662,0,0,1,.584-.557,1.006,1.006,0,0,1,1-.108.4.4,0,0,1,.081.566,1.15,1.15,0,0,1-.35.341,3.221,3.221,0,0,1-.709.35,1.347,1.347,0,0,1-.709.126s.26-.081.656-.251a3.367,3.367,0,0,0,.656-.377c.224-.135.476-.449.26-.6a.952.952,0,0,0-.8.108,1.726,1.726,0,0,0-.548.485,3.836,3.836,0,0,0-.314.62Z" transform="translate(-304.81 -217.548)" fill="#263238"/>
              <path id="Trazado_226172" data-name="Trazado 226172" d="M332.2,413.445a6.291,6.291,0,0,0-1.087-.467,5.209,5.209,0,0,0-2.793-.144,5.118,5.118,0,0,0-2.443,1.374c-.512.512-.727.9-.763.9a1.088,1.088,0,0,1,.144-.287,3.923,3.923,0,0,1,.521-.709,4.885,4.885,0,0,1,2.5-1.464,4.966,4.966,0,0,1,2.883.2,4.188,4.188,0,0,1,.79.4C332.07,413.355,332.2,413.436,332.2,413.445Z" transform="translate(-305.841 -218.339)" fill="#263238"/>
              <path id="Trazado_226173" data-name="Trazado 226173" d="M334.148,406a30.263,30.263,0,0,1-1.284,3.035,29.512,29.512,0,0,1-1.464,2.955,30.283,30.283,0,0,1,1.284-3.035A25.54,25.54,0,0,1,334.148,406Z" transform="translate(-306.482 -217.675)" fill="#263238"/>
              <path id="Trazado_226174" data-name="Trazado 226174" d="M323.227,412.776a9.24,9.24,0,0,1-2.218-.79,8.979,8.979,0,0,1-2.039-1.176c0-.045.9.458,2.119,1A13.619,13.619,0,0,1,323.227,412.776Z" transform="translate(-305.215 -218.165)" fill="#263238"/>
              <path id="Trazado_226175" data-name="Trazado 226175" d="M326.781,414.438c0,.054-.171.162-.368.341s-.341.332-.4.305,0-.26.269-.458S326.772,414.393,326.781,414.438Z" transform="translate(-305.931 -218.533)" fill="#263238"/>
              <path id="Trazado_226176" data-name="Trazado 226176" d="M328.678,413.517c0,.054-.153.162-.368.242s-.422.108-.44.054.153-.162.368-.242S328.66,413.472,328.678,413.517Z" transform="translate(-306.122 -218.439)" fill="#263238"/>
              <path id="Trazado_226177" data-name="Trazado 226177" d="M330.682,413.623c0,.045-.225,0-.467-.072a.987.987,0,0,0-.485,0,.593.593,0,0,1,.5-.162C330.538,413.425,330.718,413.587,330.682,413.623Z" transform="translate(-306.312 -218.427)" fill="#263238"/>
              <path id="Trazado_226178" data-name="Trazado 226178" d="M332.1,413.9c0,.054-.126.09-.26.072s-.26-.063-.251-.108.117-.09.26-.081S332.1,413.843,332.1,413.9Z" transform="translate(-306.501 -218.468)" fill="#263238"/>
              <path id="Trazado_226179" data-name="Trazado 226179" d="M363.251,457.68l-.171-8.558,16.03-.431.386,12.519-.988.09c-4.418.368-22.451,1.545-25.469.727C349.708,461.119,363.251,457.68,363.251,457.68Z" transform="translate(-308.634 -222.027)" fill="#4dd0e1"/>
              <g id="Grupo_222323" data-name="Grupo 222323" transform="translate(65.052 234.471)" opacity="0.5">
                <path id="Trazado_226180" data-name="Trazado 226180" d="M376.09,462.131a5.532,5.532,0,0,1,1.949-3.476,5.388,5.388,0,0,1,3.718-1.266l.126,4.49Z" transform="translate(-376.09 -457.384)" fill="#fff"/>
              </g>
              <g id="Grupo_222324" data-name="Grupo 222324" transform="translate(43.831 237.566)" opacity="0.4">
                <path id="Trazado_226181" data-name="Trazado 226181" d="M356.636,460.83s-4.733,1.509-4.122,2.281,18.922.269,26.942-.665v-.359l-21.347.772S357.57,460.848,356.636,460.83Z" transform="translate(-352.459 -460.83)" fill="#fff"/>
              </g>
              <path id="Trazado_226182" data-name="Trazado 226182" d="M379.712,462.22h-.269l-.79.063-2.91.207c-2.461.162-5.864.332-9.618.44s-7.184.126-9.627.108l-2.919-.045h-.79a1.08,1.08,0,0,1-.278,0H356.5c2.461,0,5.864-.063,9.618-.171s7.184-.251,9.618-.377l2.91-.144h.8A1.225,1.225,0,0,1,379.712,462.22Z" transform="translate(-308.634 -223.406)" fill="#263238"/>
              <path id="Trazado_226183" data-name="Trazado 226183" d="M358.588,463.09a6.726,6.726,0,0,0-.584-1.374,7.238,7.238,0,0,0-1.024-1.1,2.613,2.613,0,0,1,1.608,2.47Z" transform="translate(-309.09 -223.243)" fill="#263238"/>
              <path id="Trazado_226184" data-name="Trazado 226184" d="M363.9,460.4a3.42,3.42,0,0,1-.521-.6c-.242-.359-.4-.683-.359-.71s.278.242.521.6A2.733,2.733,0,0,1,363.9,460.4Z" transform="translate(-309.705 -223.087)" fill="#263238"/>
              <path id="Trazado_226185" data-name="Trazado 226185" d="M365.263,459.651a2.643,2.643,0,0,1-.575-.368c-.287-.242-.485-.467-.449-.5s.3.117.575.359S365.3,459.606,365.263,459.651Z" transform="translate(-309.829 -223.055)" fill="#263238"/>
              <path id="Trazado_226186" data-name="Trazado 226186" d="M366.06,457.992a1.922,1.922,0,0,1-.835.126,1.877,1.877,0,0,1-.835-.063,3.44,3.44,0,0,1,1.67-.063Z" transform="translate(-309.845 -222.967)" fill="#263238"/>
              <path id="Trazado_226187" data-name="Trazado 226187" d="M366.318,456.84a1.625,1.625,0,0,1-.9.3,1.8,1.8,0,0,1-.97-.1,5,5,0,0,1,.952-.1A5.394,5.394,0,0,1,366.318,456.84Z" transform="translate(-309.851 -222.857)" fill="#263238"/>
              <path id="Trazado_226188" data-name="Trazado 226188" d="M362.964,458.842a3.072,3.072,0,0,1-1.033,0,5.774,5.774,0,0,1-1.1-.207,2.8,2.8,0,0,1-.638-.242.557.557,0,0,1-.269-.314.4.4,0,0,1,.153-.413,1.886,1.886,0,0,1,2.344.485,1.68,1.68,0,0,1,.359.682.648.648,0,0,1,0,.278,2.883,2.883,0,0,0-.494-.9,1.94,1.94,0,0,0-.9-.548,1.607,1.607,0,0,0-1.221.117c-.162.126-.1.314.09.422a3.3,3.3,0,0,0,.584.234,6.761,6.761,0,0,0,1.069.242A4.876,4.876,0,0,0,362.964,458.842Z" transform="translate(-309.389 -222.919)" fill="#263238"/>
              <path id="Trazado_226189" data-name="Trazado 226189" d="M362.982,458.85a1,1,0,0,1-.144-.718,1.724,1.724,0,0,1,.26-.754,1.069,1.069,0,0,1,.844-.557.413.413,0,0,1,.332.467,1.149,1.149,0,0,1-.162.467,3.173,3.173,0,0,1-.467.638,1.509,1.509,0,0,1-.584.431,7.018,7.018,0,0,0,.476-.521,3.589,3.589,0,0,0,.413-.629c.135-.225.224-.62,0-.656s-.512.242-.665.458a1.635,1.635,0,0,0-.278.674,3.206,3.206,0,0,0-.027.7Z" transform="translate(-309.685 -222.855)" fill="#263238"/>
              <path id="Trazado_226190" data-name="Trazado 226190" d="M381.677,457.323s-.467,0-1.185.072a5.164,5.164,0,0,0-2.559,1.141,5.254,5.254,0,0,0-1.554,2.326c-.225.691-.234,1.158-.269,1.149a1.139,1.139,0,0,1,0-.323,4.217,4.217,0,0,1,.153-.9,4.858,4.858,0,0,1,4.221-3.592,4.042,4.042,0,0,1,.9,0,1.3,1.3,0,0,1,.3.126Z" transform="translate(-311.039 -222.891)" fill="#263238"/>
              <path id="Trazado_226191" data-name="Trazado 226191" d="M380.245,450a29.584,29.584,0,0,1,.233,3.287,28.537,28.537,0,0,1,0,3.3,27.233,27.233,0,0,1-.233-3.3A28.375,28.375,0,0,1,380.245,450Z" transform="translate(-311.456 -222.16)" fill="#263238"/>
              <path id="Trazado_226192" data-name="Trazado 226192" d="M373.259,461a9.3,9.3,0,0,1-2.335.3,9.034,9.034,0,0,1-2.344-.126c0-.054,1.051,0,2.335-.072A18.9,18.9,0,0,1,373.259,461Z" transform="translate(-310.272 -223.279)" fill="#263238"/>
              <path id="Trazado_226193" data-name="Trazado 226193" d="M377.24,460.889s-.081.225-.18.467-.153.458-.207.449-.09-.251,0-.53S377.2,460.844,377.24,460.889Z" transform="translate(-311.11 -223.269)" fill="#263238"/>
              <path id="Trazado_226194" data-name="Trazado 226194" d="M378.493,459.209c.045,0-.054.207-.216.377s-.323.287-.368.251.063-.207.224-.386S378.457,459.173,378.493,459.209Z" transform="translate(-311.222 -223.098)" fill="#263238"/>
              <path id="Trazado_226195" data-name="Trazado 226195" d="M380.327,458.4c0,.054-.224.054-.458.144s-.4.225-.44.189.081-.26.377-.368S380.345,458.346,380.327,458.4Z" transform="translate(-311.377 -223.008)" fill="#263238"/>
              <path id="Trazado_226196" data-name="Trazado 226196" d="M381.705,458c0,.045-.063.135-.2.189s-.251.054-.278,0,.072-.135.207-.189A.414.414,0,0,1,381.705,458Z" transform="translate(-311.561 -222.973)" fill="#263238"/>
              <path id="Trazado_226197" data-name="Trazado 226197" d="M378.51,281.69a13.249,13.249,0,0,1,.611-2.317c.207-.7.467-1.545.79-2.47.162-.458.341-.943.548-1.437.108-.269.251-.494.323-.718a2.183,2.183,0,0,0,.09-.736,12.015,12.015,0,0,0-.242-1.581c-.1-.512-.189-1.015-.278-1.5-.162-.9-.305-1.8-.44-2.55a10.863,10.863,0,0,1-.287-2.371,12.287,12.287,0,0,1,.629,2.308c.171.772.35,1.616.548,2.523.1.485.2.988.305,1.5a9.876,9.876,0,0,1,.26,1.661,2.577,2.577,0,0,1-.117.9,7.725,7.725,0,0,1-.35.754c-.207.485-.386.952-.557,1.41-.323.9-.62,1.679-.9,2.425A10.875,10.875,0,0,1,378.51,281.69Z" transform="translate(-311.285 -203.404)" fill="#263238"/>
              <g id="Grupo_222325" data-name="Grupo 222325" transform="translate(102.771 63.783)" opacity="0.3">
                <path id="Trazado_226198" data-name="Trazado 226198" d="M418.09,267.32c.629,9.537,1.59,20.251,1.8,29.807,1.473-.656,4.957-3.179,4.957-3.538C424.816,293.588,420.263,277.6,418.09,267.32Z" transform="translate(-418.09 -267.32)"/>
              </g>
              <path id="Trazado_226199" data-name="Trazado 226199" d="M423.548,328.788s-65.756-13.776-72.123-10.777S315.7,393.592,315.7,393.592l19.8,7.274L362.39,340.7s48.423,18.267,56.47,16.6S423.548,328.788,423.548,328.788Z" transform="translate(-304.882 -208.661)" fill="#263238"/>
              <path id="Trazado_226200" data-name="Trazado 226200" d="M398.262,334.37c-1.006.332-39.048,15.967-41.724,21s3.942,88.477,3.942,88.477h21.634l-1.347-74.171,42.209-10.7Z" transform="translate(-308.98 -210.373)" fill="#263238"/>
              <path id="Trazado_226201" data-name="Trazado 226201" d="M424.128,359.973a2.693,2.693,0,0,1-.62-.081l-1.8-.314c-1.536-.278-3.754-.718-6.484-1.293-5.46-1.159-12.977-2.9-21.167-5.245-4.1-1.185-7.957-2.425-11.45-3.592s-6.6-2.389-9.169-3.493c-1.293-.521-2.443-1.042-3.458-1.5s-1.877-.853-2.568-1.212l-1.608-.808a2.559,2.559,0,0,1-.548-.314,3.6,3.6,0,0,1,.593.224l1.643.727c.7.323,1.581.7,2.6,1.132s2.173.9,3.475,1.428c2.577,1.06,5.7,2.173,9.178,3.386s7.355,2.4,11.441,3.592c8.181,2.344,15.671,4.131,21.113,5.388l6.439,1.455,1.751.4a2.631,2.631,0,0,1,.629.117Z" transform="translate(-309.934 -211.163)" fill="#455a64"/>
              <path id="Trazado_226202" data-name="Trazado 226202" d="M356.478,376.152a5.5,5.5,0,0,1-.2-1.248c-.1-.9-.224-2.048-.368-3.422s-.3-3.2-.467-5.083a22.625,22.625,0,0,1,0-6.286,9.78,9.78,0,0,1,3.152-5.442,16.714,16.714,0,0,1,4.329-2.784,34.4,34.4,0,0,1,3.215-1.266,5.45,5.45,0,0,1,1.212-.35c0,.09-1.67.683-4.275,1.931a17.3,17.3,0,0,0-4.167,2.8,9.493,9.493,0,0,0-2.982,5.2,24.007,24.007,0,0,0,0,6.161c.144,1.895.26,3.592.368,5.092s.153,2.524.207,3.431a6.215,6.215,0,0,1-.027,1.266Z" transform="translate(-308.911 -211.993)" fill="#455a64"/>
              <path id="Trazado_226203" data-name="Trazado 226203" d="M377.75,371.11a15.8,15.8,0,0,1,5.119,2.254,8.082,8.082,0,0,1-2.694-.9A7.958,7.958,0,0,1,377.75,371.11Z" transform="translate(-311.207 -214.118)" fill="#263238"/>
              <path id="Trazado_226204" data-name="Trazado 226204" d="M379.87,368.57a29.437,29.437,0,0,1,1.724,2.443,28.172,28.172,0,0,1,1.877,2.326,7.858,7.858,0,0,1-3.592-4.769Z" transform="translate(-311.423 -213.859)" fill="#263238"/>
              <path id="Trazado_226205" data-name="Trazado 226205" d="M388.553,372.38a.75.75,0,0,1-.332.341,2.515,2.515,0,0,1-1.257.3,15.507,15.507,0,0,0-1.8.045,1.266,1.266,0,0,0-1.078,1.383,33.973,33.973,0,0,1-.269,5.775,33.689,33.689,0,0,1-.224-5.8,2.03,2.03,0,0,1,.413-1.23,1.671,1.671,0,0,1,1.087-.575,11.075,11.075,0,0,1,1.877.054,3.017,3.017,0,0,0,1.581-.287Z" transform="translate(-311.799 -214.247)" fill="#263238"/>
              <path id="Trazado_226206" data-name="Trazado 226206" d="M383.981,202.222c-3.287,1.069-7.1,3.251-5.209,13.534.826,4.49,1.886,9.142,4.921,12.573a1.67,1.67,0,0,0,2.973.153c3.449-3.763,6.385-8.2,7.319-13.219s-.467-10.669-4.409-13.9" transform="translate(-311.26 -196.813)" fill="#263238"/>
              <path id="Trazado_226207" data-name="Trazado 226207" d="M390.718,246.542c-.108-4.733-.314-9.807-.314-9.807s-7.184-.9-7.508-8.262-.386-20.224-.386-20.224l14.064-10.408,9.879,13.588.242,34.872a7.993,7.993,0,0,1-7.993,8.083h0a7.984,7.984,0,0,1-7.984-7.841Z" transform="translate(-311.692 -196.455)" fill="#ffbe9d"/>
              <path id="Trazado_226208" data-name="Trazado 226208" d="M391.3,240.8a17.557,17.557,0,0,0,9.537-3.125s-2.236,5.388-9.412,4.93Z" transform="translate(-312.588 -200.515)" fill="#eb996e"/>
              <path id="Trazado_226209" data-name="Trazado 226209" d="M391.99,231.332a.88.88,0,0,1,.88-1.257,1.347,1.347,0,0,1,1.374-1.194,1.527,1.527,0,0,1,1.392,1.248,1.8,1.8,0,0,1-.781,1.742,2.12,2.12,0,0,1-1.94.144,1.509,1.509,0,0,1-.979-1.158" transform="translate(-312.65 -199.619)" fill="#eb996e"/>
              <path id="Trazado_226210" data-name="Trazado 226210" d="M384.16,219.258a1.015,1.015,0,0,0,.979,1.015.97.97,0,0,0,1.042-.9,1.015,1.015,0,0,0-.979-1.015.97.97,0,0,0-1.042.9Z" transform="translate(-311.861 -198.546)" fill="#263238"/>
              <path id="Trazado_226211" data-name="Trazado 226211" d="M384.218,218.319c.126.126.9-.44,1.976-.431s1.877.539,1.994.413-.072-.3-.413-.557a2.793,2.793,0,0,0-1.6-.494,2.694,2.694,0,0,0-1.572.512C384.263,218.022,384.155,218.256,384.218,218.319Z" transform="translate(-311.865 -198.433)" fill="#263238"/>
              <path id="Trazado_226212" data-name="Trazado 226212" d="M396.3,219.369a1.015,1.015,0,0,0,.97,1.024.97.97,0,0,0,1.042-.9,1.006,1.006,0,0,0-.97-1.015.97.97,0,0,0-1.042.889Z" transform="translate(-313.098 -198.558)" fill="#263238"/>
              <path id="Trazado_226213" data-name="Trazado 226213" d="M396.1,218.54c.126.135.9-.431,1.976-.431s1.877.548,1.994.413-.063-.3-.413-.548a2.793,2.793,0,0,0-1.6-.494,2.569,2.569,0,0,0-1.572.512C396.151,218.243,396.007,218.486,396.1,218.54Z" transform="translate(-313.075 -198.457)" fill="#263238"/>
              <path id="Trazado_226214" data-name="Trazado 226214" d="M391.394,226.593a8.081,8.081,0,0,0-1.8-.314c-.278,0-.539-.081-.593-.269a1.437,1.437,0,0,1,.189-.826l.817-2.11a35.185,35.185,0,0,0,1.841-5.523,37.664,37.664,0,0,0-2.281,5.388c-.269.745-.53,1.446-.781,2.128a1.572,1.572,0,0,0-.144,1.087.683.683,0,0,0,.458.4,1.859,1.859,0,0,0,.467.063,6.683,6.683,0,0,0,1.823-.027Z" transform="translate(-312.314 -198.464)" fill="#263238"/>
              <path id="Trazado_226215" data-name="Trazado 226215" d="M394.878,228.46c-.18,0-.18,1.167-1.185,2s-2.263.709-2.272.9.278.233.808.242a2.918,2.918,0,0,0,1.895-.656,2.542,2.542,0,0,0,.9-1.679C395.084,228.747,394.958,228.451,394.878,228.46Z" transform="translate(-312.601 -199.576)" fill="#263238"/>
              <path id="Trazado_226216" data-name="Trazado 226216" d="M395.549,215.908c.108.3,1.194.162,2.47.314s2.3.494,2.47.233c.072-.126-.1-.4-.521-.692a4.347,4.347,0,0,0-3.763-.413C395.738,215.5,395.5,215.738,395.549,215.908Z" transform="translate(-313.021 -198.214)" fill="#263238"/>
              <path id="Trazado_226217" data-name="Trazado 226217" d="M384.657,214.816c.189.242.9,0,1.8,0s1.661.171,1.8-.09-.045-.368-.377-.6a2.694,2.694,0,0,0-2.955.09C384.675,214.439,384.576,214.691,384.657,214.816Z" transform="translate(-311.908 -198.074)" fill="#263238"/>
              <path id="Trazado_226218" data-name="Trazado 226218" d="M400.066,213.363a5.6,5.6,0,0,0,3.592-1.275c.647,1.733.638,3.655,1.23,5.388s1.185,18.653,3.017,18.383c1.679-.26,3.691-17.216,4.122-18.859a15.062,15.062,0,0,0-3.323-13.157c-3.592-4.266-9.573-7.912-15.132-7.517a12.519,12.519,0,0,0-6.9,2.425s-3,2.317-2.757,5.272c.35,4.113,6.349,6.762,10.48,6.637l.584.575A7.185,7.185,0,0,0,400.066,213.363Z" transform="translate(-311.834 -196.297)" fill="#263238"/>
              <path id="Trazado_226219" data-name="Trazado 226219" d="M382.45,212.871a6.143,6.143,0,0,0,2.048-3.3,17.819,17.819,0,0,0,.476-3.907c0-.386,0-.9-.4-.97s-.656.269-.826.593a12.671,12.671,0,0,0-1.3,7.957l-.162.135" transform="translate(-311.668 -197.153)" fill="#263238"/>
            </g>
            <g id="freepik--character-2--inject-26" transform="translate(169.432 129.033)">
              <path id="Trazado_226220" data-name="Trazado 226220" d="M267.11,459.119l.054-8.8-16.488-.2L250.46,463l1.024.081c4.544.305,23.143,1.239,26.2.359C281.075,462.45,267.11,459.119,267.11,459.119Z" transform="translate(-191.906 -172.317)" fill="#4dd0e1"/>
              <g id="Grupo_222326" data-name="Grupo 222326" transform="translate(58.563 285.823)" opacity="0.4">
                <path id="Trazado_226221" data-name="Trazado 226221" d="M256.433,463.855a5.739,5.739,0,0,0-2.057-3.547,5.6,5.6,0,0,0-3.844-1.248l-.063,4.616Z" transform="translate(-250.47 -459.051)"/>
              </g>
              <g id="Grupo_222327" data-name="Grupo 222327" transform="translate(58.545 288.669)" opacity="0.4">
                <path id="Trazado_226222" data-name="Trazado 226222" d="M273.925,462.22s4.894,1.482,4.275,2.281-19.452.566-27.75-.269v-.368l21.958.467S272.964,462.256,273.925,462.22Z" transform="translate(-250.45 -462.22)"/>
              </g>
              <path id="Trazado_226223" data-name="Trazado 226223" d="M250.2,464a1.448,1.448,0,0,0,.278,0l.817.063,3,.162c2.524.126,6.026.251,9.879.305s7.373,0,9.879,0l3-.081H264.165c-3.853,0-7.364-.162-9.879-.242l-3-.108h-.808Z" transform="translate(-191.88 -173.732)" fill="#263238"/>
              <path id="Trazado_226224" data-name="Trazado 226224" d="M274.929,464.561a6.8,6.8,0,0,1,.584-1.419,6.064,6.064,0,0,1,1.033-1.132,2.209,2.209,0,0,0-1.2,1.024,2.254,2.254,0,0,0-.413,1.527Z" transform="translate(-194.4 -173.53)" fill="#263238"/>
              <path id="Trazado_226225" data-name="Trazado 226225" d="M269.549,461.845a2.277,2.277,0,0,0,.53-.629c.251-.377.4-.709.359-.736s-.287.251-.53.629A2,2,0,0,0,269.549,461.845Z" transform="translate(-193.851 -173.373)" fill="#263238"/>
              <path id="Trazado_226226" data-name="Trazado 226226" d="M268.069,461.127a2.445,2.445,0,0,0,.584-.377c.287-.251.494-.494.458-.53s-.3.126-.584.377S268.006,461.082,268.069,461.127Z" transform="translate(-193.7 -173.347)" fill="#263238"/>
              <path id="Trazado_226227" data-name="Trazado 226227" d="M267.15,459.476a3.817,3.817,0,0,0,1.724,0,1.922,1.922,0,0,0-.853-.117C267.545,459.377,267.15,459.413,267.15,459.476Z" transform="translate(-193.608 -173.258)" fill="#263238"/>
              <path id="Trazado_226228" data-name="Trazado 226228" d="M266.85,458.26a2.452,2.452,0,0,0,1.949.171,6.336,6.336,0,0,0-.979-.081,5.2,5.2,0,0,0-.97-.09Z" transform="translate(-193.577 -173.147)" fill="#263238"/>
              <path id="Trazado_226229" data-name="Trazado 226229" d="M270.19,460.274a2.847,2.847,0,0,0,1.06,0,6.2,6.2,0,0,0,1.132-.234,3.142,3.142,0,0,0,.647-.26.575.575,0,0,0,.269-.323.431.431,0,0,0-.153-.431,1.949,1.949,0,0,0-2.766,1.248.665.665,0,0,0,0,.278,3.5,3.5,0,0,1,.494-.9,1.984,1.984,0,0,1,.9-.575,1.643,1.643,0,0,1,1.266.108c.162.126.1.323-.09.431a3.512,3.512,0,0,1-.6.242,6.431,6.431,0,0,1-1.1.269C270.594,460.248,270.19,460.248,270.19,460.274Z" transform="translate(-193.918 -173.204)" fill="#263238"/>
              <path id="Trazado_226230" data-name="Trazado 226230" d="M270.342,460.267a1.051,1.051,0,0,0,.126-.727,1.653,1.653,0,0,0-.278-.781,1.051,1.051,0,0,0-.9-.548.413.413,0,0,0-.332.485,1.3,1.3,0,0,0,.171.476,3.592,3.592,0,0,0,.494.647c.323.323.584.458.6.431s-.207-.189-.5-.53a4.361,4.361,0,0,1-.431-.638c-.144-.225-.234-.629,0-.674s.539.242.691.458a1.7,1.7,0,0,1,.3.692A4.4,4.4,0,0,1,270.342,460.267Z" transform="translate(-193.791 -173.142)" fill="#263238"/>
              <path id="Trazado_226231" data-name="Trazado 226231" d="M250.64,458.987c0,.045.467,0,1.212.063a5.164,5.164,0,0,1,4.275,3.493c.242.709.26,1.185.305,1.185a1.053,1.053,0,0,0,0-.332,3.946,3.946,0,0,0-.171-.9,5.128,5.128,0,0,0-1.634-2.488,5.209,5.209,0,0,0-2.757-1.114,4.079,4.079,0,0,0-.9,0,1.178,1.178,0,0,0-.332.09Z" transform="translate(-191.925 -173.21)" fill="#263238"/>
              <path id="Trazado_226232" data-name="Trazado 226232" d="M252.613,451.4a27.837,27.837,0,0,0-.189,3.386,26.941,26.941,0,0,0,0,3.386,29.314,29.314,0,0,0,.18-3.386,28.136,28.136,0,0,0,.009-3.386Z" transform="translate(-192.101 -172.448)" fill="#263238"/>
              <path id="Trazado_226233" data-name="Trazado 226233" d="M259.45,462.629a9.116,9.116,0,0,0,2.4.269,8.983,8.983,0,0,0,2.416-.162c0-.054-1.078,0-2.407,0S259.45,462.575,259.45,462.629Z" transform="translate(-192.823 -173.592)" fill="#263238"/>
              <path id="Trazado_226234" data-name="Trazado 226234" d="M255.85,462.579a3.142,3.142,0,0,0,.189.485c.108.251.162.467.225.458s.09-.26,0-.539S255.886,462.544,255.85,462.579Z" transform="translate(-192.456 -173.587)" fill="#263238"/>
              <path id="Trazado_226235" data-name="Trazado 226235" d="M254.51,460.879a1.086,1.086,0,0,0,.233.386c.171.18.341.287.377.242s-.063-.207-.233-.386S254.555,460.843,254.51,460.879Z" transform="translate(-192.319 -173.414)" fill="#263238"/>
              <path id="Trazado_226236" data-name="Trazado 226236" d="M252.58,460.069c0,.054.233.063.476.144s.413.225.458.189-.1-.269-.4-.377S252.562,460,252.58,460.069Z" transform="translate(-192.122 -173.322)" fill="#263238"/>
              <path id="Trazado_226237" data-name="Trazado 226237" d="M251.2,459.7c0,.054.081.135.216.189s.26.063.278,0-.072-.135-.207-.189S251.227,459.642,251.2,459.7Z" transform="translate(-191.982 -173.289)" fill="#263238"/>
              <path id="Trazado_226238" data-name="Trazado 226238" d="M196.42,459.119l-.054-8.8,16.488-.2L213.07,463l-1.024.081c-4.544.305-23.143,1.239-26.2.359C182.446,462.45,196.42,459.119,196.42,459.119Z" transform="translate(-185.265 -172.317)" fill="#4dd0e1"/>
              <g id="Grupo_222328" data-name="Grupo 222328" transform="translate(21.823 285.823)" opacity="0.4">
                <path id="Trazado_226239" data-name="Trazado 226239" d="M209.56,463.855a5.739,5.739,0,0,1,2.057-3.547,5.6,5.6,0,0,1,3.844-1.248l.063,4.616Z" transform="translate(-209.56 -459.051)"/>
              </g>
              <g id="Grupo_222329" data-name="Grupo 222329" transform="translate(0 288.669)" opacity="0.4">
                <path id="Trazado_226240" data-name="Trazado 226240" d="M189.589,462.22s-4.894,1.482-4.275,2.281,19.452.566,27.75-.269v-.368l-21.958.467S190.55,462.256,189.589,462.22Z" transform="translate(-185.26 -462.22)"/>
              </g>
              <path id="Trazado_226241" data-name="Trazado 226241" d="M213.3,464a1.448,1.448,0,0,1-.278,0l-.817.063-3,.162c-2.524.126-6.026.251-9.879.305s-7.373,0-9.879,0l-3-.081h12.887c3.853,0,7.364-.162,9.879-.242l3-.108h.808Z" transform="translate(-185.269 -173.732)" fill="#263238"/>
              <path id="Trazado_226242" data-name="Trazado 226242" d="M191.557,464.561a7.049,7.049,0,0,0-.575-1.419,6.287,6.287,0,0,0-1.042-1.132,2.209,2.209,0,0,1,1.2,1.024,2.254,2.254,0,0,1,.413,1.527Z" transform="translate(-185.737 -173.53)" fill="#263238"/>
              <path id="Trazado_226243" data-name="Trazado 226243" d="M197.018,461.845a2.276,2.276,0,0,1-.53-.629c-.251-.377-.4-.709-.359-.736s.287.251.53.629A2,2,0,0,1,197.018,461.845Z" transform="translate(-186.367 -173.373)" fill="#263238"/>
              <path id="Trazado_226244" data-name="Trazado 226244" d="M198.481,461.127a2.446,2.446,0,0,1-.584-.377c-.287-.251-.494-.494-.458-.53s.3.126.584.377S198.517,461.082,198.481,461.127Z" transform="translate(-186.501 -173.347)" fill="#263238"/>
              <path id="Trazado_226245" data-name="Trazado 226245" d="M199.324,459.476a3.817,3.817,0,0,1-1.724,0,1.959,1.959,0,0,1,.9-.117C198.929,459.377,199.324,459.413,199.324,459.476Z" transform="translate(-186.518 -173.258)" fill="#263238"/>
              <path id="Trazado_226246" data-name="Trazado 226246" d="M199.6,458.26a2.452,2.452,0,0,1-1.949.171,6.336,6.336,0,0,1,.979-.081,5.2,5.2,0,0,1,.97-.09Z" transform="translate(-186.523 -173.147)" fill="#263238"/>
              <path id="Trazado_226247" data-name="Trazado 226247" d="M196.126,460.274a2.847,2.847,0,0,1-1.06,0,6.206,6.206,0,0,1-1.132-.234,3.14,3.14,0,0,1-.647-.26.575.575,0,0,1-.269-.323.431.431,0,0,1,.153-.431,1.949,1.949,0,0,1,2.766,1.248.665.665,0,0,1,0,.278,3.494,3.494,0,0,0-.494-.9,1.985,1.985,0,0,0-.9-.575,1.643,1.643,0,0,0-1.266.108c-.162.126-.1.323.09.431a3.512,3.512,0,0,0,.6.242,6.43,6.43,0,0,0,1.1.269C195.7,460.248,196.126,460.248,196.126,460.274Z" transform="translate(-186.05 -173.204)" fill="#263238"/>
              <path id="Trazado_226248" data-name="Trazado 226248" d="M196.154,460.267a1.051,1.051,0,0,1-.126-.727,1.653,1.653,0,0,1,.278-.781,1.051,1.051,0,0,1,.9-.548.413.413,0,0,1,.332.485,1.3,1.3,0,0,1-.171.476,3.592,3.592,0,0,1-.494.647c-.323.323-.584.458-.6.431s.216-.189.5-.53a3.747,3.747,0,0,0,.431-.638c.144-.225.233-.629,0-.674s-.539.242-.692.458a1.8,1.8,0,0,0-.3.692A4.4,4.4,0,0,0,196.154,460.267Z" transform="translate(-186.355 -173.142)" fill="#263238"/>
              <path id="Trazado_226249" data-name="Trazado 226249" d="M215.341,458.987c0,.045-.467,0-1.212.063a5.164,5.164,0,0,0-4.275,3.493c-.242.709-.26,1.185-.305,1.185a1.05,1.05,0,0,1,0-.332,3.945,3.945,0,0,1,.171-.9,5.128,5.128,0,0,1,1.634-2.488,5.209,5.209,0,0,1,2.757-1.114,4.08,4.08,0,0,1,.9,0,1.179,1.179,0,0,1,.332.09Z" transform="translate(-187.734 -173.21)" fill="#263238"/>
              <path id="Trazado_226250" data-name="Trazado 226250" d="M213.995,451.4a27.849,27.849,0,0,1,.189,3.386,26.938,26.938,0,0,1,0,3.386,29.307,29.307,0,0,1-.18-3.386A28.129,28.129,0,0,1,213.995,451.4Z" transform="translate(-188.184 -172.448)" fill="#263238"/>
              <path id="Trazado_226251" data-name="Trazado 226251" d="M206.674,462.629a9.116,9.116,0,0,1-2.4.269,8.982,8.982,0,0,1-2.416-.162c0-.054,1.078,0,2.407,0S206.674,462.575,206.674,462.629Z" transform="translate(-186.952 -173.592)" fill="#263238"/>
              <path id="Trazado_226252" data-name="Trazado 226252" d="M210.767,462.579c.045.045-.081.234-.189.485s-.162.467-.225.458-.09-.26,0-.539S210.731,462.544,210.767,462.579Z" transform="translate(-187.812 -173.587)" fill="#263238"/>
              <path id="Trazado_226253" data-name="Trazado 226253" d="M212.09,460.879a1.086,1.086,0,0,1-.233.386c-.171.18-.341.287-.377.242s.063-.207.233-.386S212.045,460.843,212.09,460.879Z" transform="translate(-187.932 -173.414)" fill="#263238"/>
              <path id="Trazado_226254" data-name="Trazado 226254" d="M213.983,460.069c0,.054-.234.063-.476.144s-.413.225-.458.189.1-.269.4-.377S214,460,213.983,460.069Z" transform="translate(-188.092 -173.322)" fill="#263238"/>
              <path id="Trazado_226255" data-name="Trazado 226255" d="M215.414,459.7c0,.054-.081.135-.216.189s-.26.063-.278,0,.072-.135.207-.189S215.387,459.642,215.414,459.7Z" transform="translate(-188.283 -173.289)" fill="#263238"/>
              <path id="Trazado_226256" data-name="Trazado 226256" d="M272.181,272.39l-6.322,165.279-25.684.539,4.266-143.213L215.558,439.3H191.14l31.45-166.581Z" transform="translate(-185.859 -154.199)" fill="#263238"/>
              <path id="Trazado_226257" data-name="Trazado 226257" d="M256.36,279.08a16.065,16.065,0,0,1-.3,2.694c-.233,1.67-.6,3.978-1.024,6.52a28.8,28.8,0,0,1-.736,3.592,5.065,5.065,0,0,1-1.679,2.515,3.9,3.9,0,0,1-1.859.835,1.635,1.635,0,0,1-.745,0,4.607,4.607,0,0,0,3.889-3.475,32.463,32.463,0,0,0,.683-3.529c.431-2.551.835-4.85,1.159-6.5A16.839,16.839,0,0,1,256.36,279.08Z" transform="translate(-191.861 -154.881)" fill="#263238"/>
              <path id="Trazado_226258" data-name="Trazado 226258" d="M251.093,279.951c.054.045-.153.314,0,.745a.9.9,0,0,0,.431.557.727.727,0,0,0,.772-.153.709.709,0,0,0,.243-.745.9.9,0,0,0-.494-.494c-.413-.18-.7,0-.736-.063s.233-.377.835-.242a1.122,1.122,0,1,1-1.365,1.167C250.689,280.1,251.075,279.862,251.093,279.951Z" transform="translate(-191.937 -154.927)" fill="#263238"/>
              <path id="Trazado_226259" data-name="Trazado 226259" d="M235.729,282.069a4.867,4.867,0,0,1,.494-4.589c.117.054-.251,1.033-.377,2.281A21.258,21.258,0,0,1,235.729,282.069Z" transform="translate(-190.368 -154.718)" fill="#263238"/>
              <path id="Trazado_226260" data-name="Trazado 226260" d="M239.167,281.827a5.64,5.64,0,0,1,.332-4.787,19.594,19.594,0,0,1-.251,2.389,18.412,18.412,0,0,1-.081,2.4Z" transform="translate(-190.716 -154.673)" fill="#263238"/>
              <path id="Trazado_226261" data-name="Trazado 226261" d="M268.77,282.556a170.187,170.187,0,0,0,.251-4.966,4.634,4.634,0,0,1,.341,2.506A4.7,4.7,0,0,1,268.77,282.556Z" transform="translate(-193.772 -154.729)" fill="#263238"/>
              <path id="Trazado_226262" data-name="Trazado 226262" d="M272.5,282.335c-.126-.045.278-1.132.368-2.515s-.144-2.515,0-2.55a5.388,5.388,0,0,1-.359,5.065Z" transform="translate(-194.15 -154.697)" fill="#263238"/>
              <path id="Trazado_226263" data-name="Trazado 226263" d="M241.253,191.113l15.86-1.266c.1-1.85,0-8.981,0-8.981s6.592-1.024,6.673-7.616-1.06-21.742-1.06-21.742h0A22.927,22.927,0,0,0,239.69,154.4l-.97.754Z" transform="translate(-190.709 -141.687)" fill="#ffbe9d"/>
              <path id="Trazado_226264" data-name="Trazado 226264" d="M258.194,183.993a15.393,15.393,0,0,1-8.594-2.443s2.03,4.742,8.612,4.149Z" transform="translate(-191.819 -144.939)" fill="#eb996e"/>
              <path id="Trazado_226265" data-name="Trazado 226265" d="M239.081,163.326c-.108-.054-4.535-1.347-4.391,3.161s4.643,3.44,4.652,3.3S239.081,163.326,239.081,163.326Z" transform="translate(-190.298 -143.06)" fill="#ffbe9d"/>
              <path id="Trazado_226266" data-name="Trazado 226266" d="M238.037,168.3a.947.947,0,0,1-.207.126.781.781,0,0,1-.584,0,1.949,1.949,0,0,1-.961-1.715,2.694,2.694,0,0,1,.189-1.132.9.9,0,0,1,.575-.62.4.4,0,0,1,.467.2c.063.126,0,.216.063.225s.09-.081.054-.26a.53.53,0,0,0-.189-.278.557.557,0,0,0-.44-.1,1.114,1.114,0,0,0-.8.718,2.694,2.694,0,0,0-.207,1.311,2.039,2.039,0,0,0,1.2,1.913.835.835,0,0,0,.718-.144C238.037,168.4,238.055,168.3,238.037,168.3Z" transform="translate(-190.431 -143.224)" fill="#eb996e"/>
              <path id="Trazado_226267" data-name="Trazado 226267" d="M263.578,163.093a.952.952,0,0,1-.9.952.906.906,0,1,1,.9-.952Z" transform="translate(-193.053 -142.97)" fill="#263238"/>
              <path id="Trazado_226268" data-name="Trazado 226268" d="M263.582,161.888c-.117.126-.826-.4-1.8-.4s-1.8.512-1.868.386.063-.278.386-.512a2.56,2.56,0,0,1,1.5-.458,2.479,2.479,0,0,1,1.464.467C263.582,161.618,263.663,161.888,263.582,161.888Z" transform="translate(-192.868 -142.834)" fill="#263238"/>
              <path id="Trazado_226269" data-name="Trazado 226269" d="M252.528,163.354a.9.9,0,1,1-.307-.627.9.9,0,0,1,.307.627Z" transform="translate(-191.926 -142.998)" fill="#263238"/>
              <path id="Trazado_226270" data-name="Trazado 226270" d="M252.507,162.108c-.117.126-.835-.4-1.85-.4s-1.8.512-1.859.386.063-.278.386-.512a2.532,2.532,0,0,1,1.491-.458,2.488,2.488,0,0,1,1.473.467C252.453,161.829,252.57,162.054,252.507,162.108Z" transform="translate(-191.735 -142.856)" fill="#263238"/>
              <path id="Trazado_226271" data-name="Trazado 226271" d="M256.948,169.632a6.287,6.287,0,0,1,1.652-.3c.26,0,.5-.081.548-.26a1.32,1.32,0,0,0-.18-.763c-.242-.629-.494-1.284-.763-1.967a33.982,33.982,0,0,1-1.715-5.155,33.768,33.768,0,0,1,2.128,5c.251.691.5,1.347.736,1.985a1.527,1.527,0,0,1,.135,1.015.664.664,0,0,1-.431.377,2.077,2.077,0,0,1-.44.063,6.87,6.87,0,0,1-1.67,0Z" transform="translate(-192.521 -142.864)" fill="#263238"/>
              <path id="Trazado_226272" data-name="Trazado 226272" d="M253.676,171.37c.171,0,.171,1.087,1.114,1.868s2.11.665,2.119.817-.26.216-.754.225a2.694,2.694,0,0,1-1.8-.611,2.407,2.407,0,0,1-.9-1.572C253.478,171.639,253.6,171.361,253.676,171.37Z" transform="translate(-192.212 -143.901)" fill="#263238"/>
              <path id="Trazado_226273" data-name="Trazado 226273" d="M252.692,157.714c-.1.269-1.114.144-2.3.287s-2.155.467-2.308.216.09-.377.485-.647a4.077,4.077,0,0,1,3.511-.386C252.494,157.363,252.737,157.579,252.692,157.714Z" transform="translate(-191.659 -142.432)" fill="#263238"/>
              <path id="Trazado_226274" data-name="Trazado 226274" d="M263.213,158.623c-.18.233-.9,0-1.715,0s-1.554.153-1.715-.09,0-.341.35-.566a2.371,2.371,0,0,1,1.392-.377,2.425,2.425,0,0,1,1.374.467C263.2,158.272,263.294,158.515,263.213,158.623Z" transform="translate(-192.85 -142.496)" fill="#263238"/>
              <path id="Trazado_226275" data-name="Trazado 226275" d="M265.642,146.366a2.425,2.425,0,0,0-.9-2.173,1.724,1.724,0,0,0-2.236.162,2.021,2.021,0,0,0-1.733-2.443c-1.078-.063-1.994.745-3.035,1.033a4.886,4.886,0,0,1-3.08-.359c-.97-.386-1.886-.9-2.874-1.293a8.442,8.442,0,0,0-10.777,4.948,3.745,3.745,0,0,0-3.969,1.509,6.134,6.134,0,0,0-.9,4.329,13.474,13.474,0,0,0,.754,2.955c0,.09,0,.171,0,.251.072,3.592.476,7.894,2.03,7.912,2.694.045,2.048-5.038,2.048-5.038,3.314-1.275,2.083-6.242,2.91-6.987s2.559-2.506,9.483,1.042a13.471,13.471,0,0,0,8.226.9h.233a6.286,6.286,0,0,0,1.8-.754,3.511,3.511,0,0,0,1.464-1.625,1.949,1.949,0,0,0-.377-2.066,4.212,4.212,0,0,0,.934-2.3Z" transform="translate(-190.438 -140.783)" fill="#263238"/>
              <path id="Trazado_226276" data-name="Trazado 226276" d="M230.386,192.9c2.218-.422,4.383-1.23,7-1.338h0a28.082,28.082,0,0,0,16.91,0c.683.09,1.634.18,2.838.314,7.337.9,10.157,2.425,15.429,7.607l-.575,29.726s1.8,33.821,1.643,39.281H223.444V239.31l-16.524,6,1.509-8.666s7.391-28.738,8.55-32.609C218.343,199.337,223.381,194.245,230.386,192.9Z" transform="translate(-187.468 -145.959)" fill="#4dd0e1"/>
              <path id="Trazado_226277" data-name="Trazado 226277" d="M214.452,241.92l24.742-3.52,4.7,8.424L220.9,257.187a9.879,9.879,0,0,1-4.077.9h0a9.924,9.924,0,0,1-9.187-6.161l-.745-1.8Z" transform="translate(-187.465 -150.734)" fill="#4dd0e1"/>
              <path id="Trazado_226278" data-name="Trazado 226278" d="M265.162,233.564l-.539-.4a12.331,12.331,0,0,0-9.735-2.254h0a16.973,16.973,0,0,0-7.58,3.592L243.07,238l4.49,8.083,3.071-4.293s2.856,3.88,3.368,3.475a6.611,6.611,0,0,0,1.123-1.634l-2.039-2.865,4.921.979,7.184-3.269-3.1-3.916,3.071,1.024Z" transform="translate(-191.153 -149.949)" fill="#ffbe9d"/>
              <path id="Trazado_226279" data-name="Trazado 226279" d="M271.158,194s6.987,2.38,9.924,9.106c1.913,4.383,4.733,25.5,4.733,25.5l3.547,6.843a11.532,11.532,0,0,1,1.293,5.317V241.8a11.5,11.5,0,0,1-2.586,7.283h0a11.54,11.54,0,0,1-7.93,4.221c-3.547.314-7.831.449-8.747-.593a44.52,44.52,0,0,1-4.041-6.807l10.337-5.487-4.49-8.244Z" transform="translate(-193.628 -146.208)" fill="#4dd0e1"/>
              <path id="Trazado_226280" data-name="Trazado 226280" d="M223.4,256.391a3.254,3.254,0,0,1,.4-.225l1.185-.575,4.436-2.074,15.168-6.924-.1.314-2.91-5.191-1.8-3.233.216.117-18.114,1.8-5.388.485-1.455.108a2.219,2.219,0,0,1-.512,0,2.094,2.094,0,0,1,.5-.09l1.446-.189,5.388-.62,18.1-1.931h.126l.072.126c.584,1.033,1.194,2.119,1.8,3.233l2.9,5.191.117.207-.225.1-15.213,6.78-4.49,1.949-1.212.512a3.079,3.079,0,0,1-.44.135Z" transform="translate(-188.243 -150.71)" fill="#263238"/>
              <path id="Trazado_226281" data-name="Trazado 226281" d="M229.273,237.347c-.126,0-.233-4.418-.233-9.879s.108-9.879.233-9.879.225,4.418.225,9.879S229.4,237.347,229.273,237.347Z" transform="translate(-189.723 -148.613)" fill="#263238"/>
              <path id="Trazado_226282" data-name="Trazado 226282" d="M276.015,246.983a2.1,2.1,0,0,1,.754-.126,7.13,7.13,0,0,1,2.084.126,2.452,2.452,0,0,1,1.311.745,3.466,3.466,0,0,1,.683,1.572,3.7,3.7,0,0,1-.171,1.886,3.511,3.511,0,0,1-1.248,1.608,9.439,9.439,0,0,1-3.592,1.275,16.7,16.7,0,0,1-3.071.3,5.6,5.6,0,0,1-2.784-.485,13.794,13.794,0,0,0,2.784.171,19.649,19.649,0,0,0,2.99-.386,9.537,9.537,0,0,0,3.4-1.293,3.107,3.107,0,0,0,1.275-3.053,3.152,3.152,0,0,0-.557-1.437,2.218,2.218,0,0,0-1.1-.665,8.226,8.226,0,0,0-2-.26A3.387,3.387,0,0,1,276.015,246.983Z" transform="translate(-193.896 -151.594)" fill="#263238"/>
              <path id="Trazado_226283" data-name="Trazado 226283" d="M280.119,259.716a5.388,5.388,0,0,1-1.8.216,11.432,11.432,0,0,1-4.275-.709,9.942,9.942,0,0,1-2.128-1.132,5.2,5.2,0,0,1-1.311-1.491,3.808,3.808,0,0,1-.629-1.679c.072,0,.305.62.9,1.509a5.253,5.253,0,0,0,1.293,1.32,9.932,9.932,0,0,0,2.048,1.051,13.471,13.471,0,0,0,4.113.808,10.089,10.089,0,0,1,1.787.108Z" transform="translate(-193.896 -152.418)" fill="#263238"/>
              <path id="Trazado_226284" data-name="Trazado 226284" d="M285.737,236.4a8.562,8.562,0,0,1-1.221,1.464c-.79.9-1.913,2.057-3.17,3.35s-2.407,2.434-3.26,3.251a8.081,8.081,0,0,1-1.446,1.257,7.876,7.876,0,0,1,1.212-1.482c.8-.9,1.913-2.057,3.17-3.35a44.208,44.208,0,0,1,4.715-4.49Z" transform="translate(-194.575 -150.531)" fill="#263238"/>
              <path id="Trazado_226285" data-name="Trazado 226285" d="M274.2,229.99a34.83,34.83,0,0,1-.207-5.631,34.833,34.833,0,0,1,.233-5.649,35.519,35.519,0,0,1,.225,5.649A35.52,35.52,0,0,1,274.2,229.99Z" transform="translate(-194.302 -148.727)" fill="#263238"/>
              <path id="Trazado_226286" data-name="Trazado 226286" d="M275.388,204.264c0,.126-12.672.225-28.289.225s-28.289-.1-28.289-.225,12.663-.233,28.289-.233S275.388,204.138,275.388,204.264Z" transform="translate(-188.68 -147.231)" fill="#e0e0e0"/>
              <path id="Trazado_226287" data-name="Trazado 226287" d="M276.662,209.275c0,.126-13.345.233-29.807.233s-29.816-.108-29.816-.233,13.345-.225,29.816-.225S276.662,209.149,276.662,209.275Z" transform="translate(-188.499 -147.742)" fill="#e0e0e0"/>
              <path id="Trazado_226288" data-name="Trazado 226288" d="M273.4,199.685c0,.126-11.63.233-25.972.233s-25.963-.108-25.963-.233,11.621-.225,25.963-.225S273.4,199.559,273.4,199.685Z" transform="translate(-188.951 -146.765)" fill="#e0e0e0"/>
              <path id="Trazado_226289" data-name="Trazado 226289" d="M276.229,275.414c0,.126-11.387.225-25.424.225s-25.415-.1-25.415-.225,11.378-.234,25.415-.234S276.229,275.288,276.229,275.414Z" transform="translate(-189.351 -154.484)" fill="#e0e0e0"/>
              <path id="Trazado_226290" data-name="Trazado 226290" d="M275.876,272.195c0,.126-11.226.225-25.083.225s-25.083-.1-25.083-.225,11.235-.225,25.083-.225S275.876,272.069,275.876,272.195Z" transform="translate(-189.383 -154.157)" fill="#e0e0e0"/>
              <path id="Trazado_226291" data-name="Trazado 226291" d="M275.326,268.025c0,.126-11.19.225-24.993.225s-24.993-.1-24.993-.225,11.19-.225,24.993-.225S275.326,267.9,275.326,268.025Z" transform="translate(-189.345 -153.731)" fill="#e0e0e0"/>
              <path id="Trazado_226292" data-name="Trazado 226292" d="M239.927,249.608a4.724,4.724,0,0,1-1.239-1.185,12.15,12.15,0,0,1-2.066-3.646,11.908,11.908,0,0,1-.683-4.131,4.67,4.67,0,0,1,.242-1.715,15.411,15.411,0,0,0,3.772,10.678Z" transform="translate(-190.425 -150.788)" fill="#e0e0e0"/>
              <path id="Trazado_226293" data-name="Trazado 226293" d="M237.3,251.036a5.388,5.388,0,0,1-1.365-1.3,13.012,13.012,0,0,1-2.236-4,13.364,13.364,0,0,1-.727-4.49,5.111,5.111,0,0,1,.269-1.877,20.071,20.071,0,0,0,.9,6.286A20.332,20.332,0,0,0,237.3,251.036Z" transform="translate(-190.123 -150.833)" fill="#e0e0e0"/>
              <path id="Trazado_226294" data-name="Trazado 226294" d="M234.793,252.22a5.541,5.541,0,0,1-1.536-1.311,11.72,11.72,0,0,1-2.434-4.221,11.846,11.846,0,0,1-.53-4.841,5.271,5.271,0,0,1,.476-1.958c.072,0-.1.763-.153,1.985a13.327,13.327,0,0,0,.638,4.679A13.532,13.532,0,0,0,233.5,250.7C234.263,251.664,234.847,252.157,234.793,252.22Z" transform="translate(-189.845 -150.886)" fill="#e0e0e0"/>
              <path id="Trazado_226295" data-name="Trazado 226295" d="M270.81,254.5a5.588,5.588,0,0,0,.763.476,5.389,5.389,0,0,0,2.326.584,19.683,19.683,0,0,0,3.592-.234,5.622,5.622,0,0,0,3.79-1.85,5.388,5.388,0,0,0,1.132-4.041,5.757,5.757,0,0,0-1.572-3.116,8.45,8.45,0,0,0-2.766-1.8,2.218,2.218,0,0,1,.9.216,6.494,6.494,0,0,1,2.11,1.356,5.918,5.918,0,0,1,1.751,3.287,5.694,5.694,0,0,1-1.194,4.383,4.85,4.85,0,0,1-1.931,1.437,8.084,8.084,0,0,1-2.146.539,18.393,18.393,0,0,1-3.7.144,5.182,5.182,0,0,1-2.389-.754,1.966,1.966,0,0,1-.665-.629Z" transform="translate(-193.981 -151.358)" fill="#e0e0e0"/>
              <path id="Trazado_226296" data-name="Trazado 226296" d="M279.969,242.93h.269a2.875,2.875,0,0,1,.79.135,4.994,4.994,0,0,1,2.317,1.751,11.675,11.675,0,0,1,1.931,3.853,7.1,7.1,0,0,1,.287,2.568,5.631,5.631,0,0,1-.9,2.631,8.028,8.028,0,0,1-4.266,3.1,12.771,12.771,0,0,1-4.284.494,24.506,24.506,0,0,1-2.874-.305,4.159,4.159,0,0,1-1.033-.233c0-.081,1.5.162,3.916.216a13.039,13.039,0,0,0,4.149-.566,7.777,7.777,0,0,0,4.014-2.955,5.307,5.307,0,0,0,.9-2.416,6.942,6.942,0,0,0-.242-2.416,12.286,12.286,0,0,0-1.8-3.772,5.056,5.056,0,0,0-2.128-1.8C280.346,242.993,279.96,242.993,279.969,242.93Z" transform="translate(-194.123 -151.196)" fill="#e0e0e0"/>
              <path id="Trazado_226297" data-name="Trazado 226297" d="M257.473,232.656,241.73,251.722l1.2,1.3,25.55-3.889,12.663-19.066-1.176-1.06Z" transform="translate(-191.016 -149.777)" fill="#263238"/>
              <path id="Trazado_226298" data-name="Trazado 226298" d="M275.082,238.67h0a2.434,2.434,0,0,0-2.272,1.554,5.226,5.226,0,0,1-1.545,2.47c-1.141.62-3.1,1.114-4.131.611s-5.155-4.221-5.882-3.808-1.338,1.347-.62,2.164,4.544,3.3,3.817,4.131-8.765-2.811-10-2.488-1.967,1.087-1.239,1.581,6.188,2.559,6.5,3.278c0,0-8.262-2.164-8.567-1.643s-.826,1.338,0,1.643,7.948,2.173,8.567,2.479a14.727,14.727,0,0,0,3.179.9,34.03,34.03,0,0,1,3.323,1.051,7.283,7.283,0,0,0,5.137-.135l.835-.341a3.287,3.287,0,0,0,2.039-3.233l-.171-2.73.9-2.326Z" transform="translate(-191.93 -150.762)" fill="#ffbe9d"/>
              <path id="Trazado_226299" data-name="Trazado 226299" d="M281.329,230.3a2.37,2.37,0,0,1-.467.108l-1.365.242-5.038.808-7.481,1.15-4.409.665a8.433,8.433,0,0,0-4.275,1.733,29.222,29.222,0,0,0-3.116,3.592q-1.446,1.8-2.793,3.484l-4.751,5.909-3.233,3.942-.9,1.06a1.984,1.984,0,0,1-.332.35,1.706,1.706,0,0,1,.26-.4l.835-1.114,3.116-4.032,4.679-5.945,2.775-3.5a28.074,28.074,0,0,1,3.17-3.646,8.864,8.864,0,0,1,4.49-1.8l4.427-.638,7.49-1.051,5.056-.665,1.374-.162a1.8,1.8,0,0,1,.485-.09Z" transform="translate(-191.163 -149.909)" fill="#455a64"/>
              <path id="Trazado_226300" data-name="Trazado 226300" d="M272.264,235a2.03,2.03,0,0,0-.71.575.728.728,0,0,0,0,.853.79.79,0,0,0,1.06,0,1.042,1.042,0,0,0,.4-.611.736.736,0,0,0-.216-.683.557.557,0,0,0-.691,0" transform="translate(-194.043 -150.388)" fill="#fafafa"/>
            </g>
            <g id="freepik--character-1--inject-26" transform="translate(30 166.574)">
              <rect id="Rect치ngulo_295981" data-name="Rect치ngulo 295981" width="41.239" height="83.169" transform="translate(7.768 68.715)" fill="#455a64"/>
              <path id="Trazado_226301" data-name="Trazado 226301" d="M40.05,342.081h0a6.439,6.439,0,0,1-6.43-6.439v-70.1a6.439,6.439,0,0,1,6.43-6.439h0a6.439,6.439,0,0,1,6.484,6.439v70.1a6.439,6.439,0,0,1-6.484,6.439Z" transform="translate(-30.369 -190.385)" fill="#455a64"/>
              <path id="Trazado_226302" data-name="Trazado 226302" d="M44.528,262.83a.691.691,0,0,1,0,.207l.063.6c0,.584.108,1.365.189,2.353.153,2.075.359,5.011.62,8.621.485,7.328,1.141,17.377,1.868,28.477s1.338,21.185,1.7,28.486a22.245,22.245,0,0,1-1.069,8.576,11.864,11.864,0,0,1-1.042,2.119l-.359.5a.844.844,0,0,1-.135.162,15.69,15.69,0,0,0,1.365-2.847,22.783,22.783,0,0,0,.9-8.5c-.467-7.319-1.114-17.368-1.8-28.469s-1.275-21.158-1.724-28.459c-.2-3.592-.35-6.547-.467-8.63,0-.988-.081-1.8-.108-2.353v-.611a.467.467,0,0,1,0-.234Z" transform="translate(-31.48 -190.765)" fill="#263238"/>
              <rect id="Rect치ngulo_295982" data-name="Rect치ngulo 295982" width="6.646" height="79.649" transform="translate(45.307 162.212)" fill="#455a64"/>
              <path id="Trazado_226303" data-name="Trazado 226303" d="M125.042,362.039H30A10.328,10.328,0,0,1,40.328,351.72h74.431a10.319,10.319,0,0,1,10.319,10.319Z" transform="translate(-30 -199.827)" fill="#455a64"/>
              <path id="Trazado_226304" data-name="Trazado 226304" d="M89.326,363.409a35.168,35.168,0,0,1-5.828.242,35.243,35.243,0,0,1-5.837-.242,35.243,35.243,0,0,1,5.837-.242A35.171,35.171,0,0,1,89.326,363.409Z" transform="translate(-34.859 -200.991)" fill="#263238"/>
              <path id="Trazado_226305" data-name="Trazado 226305" d="M109.9,456.613h-.9a28.289,28.289,0,0,0-56.578,0h-.9a29.223,29.223,0,1,1,58.446,0Z" transform="translate(-32.195 -207.541)" fill="#455a64"/>
              <circle id="Elipse_16285" data-name="Elipse 16285" cx="4.383" cy="4.383" r="4.383" transform="translate(15.348 244.16)" fill="#263238"/>
              <path id="Trazado_226306" data-name="Trazado 226306" d="M120.105,459.073a4.383,4.383,0,1,1-4.383-4.383,4.383,4.383,0,0,1,4.383,4.383Z" transform="translate(-38.292 -210.324)" fill="#455a64"/>
              <path id="Trazado_226307" data-name="Trazado 226307" d="M109.775,451.872c0,.135-12.717.242-28.406.242S53,452.007,53,451.872s12.717-.242,28.406-.242S109.775,451.738,109.775,451.872Z" transform="translate(-32.345 -210.012)" fill="#455a64"/>
              <path id="Trazado_226308" data-name="Trazado 226308" d="M68.682,351.518a9.761,9.761,0,0,1-1.437.1l-3.916.1c-3.3.072-7.867.126-12.905.162l-7.113.054a24.059,24.059,0,0,0-5.721.512,9.574,9.574,0,0,0-3.467,1.652c-.727.548-1.06.952-1.1.9s.063-.117.225-.305a6.486,6.486,0,0,1,.754-.754,9.106,9.106,0,0,1,3.493-1.8,23.183,23.183,0,0,1,5.8-.629c2.173-.054,4.589-.063,7.1-.081,5.047,0,9.618-.045,12.923,0l3.916.045A7.992,7.992,0,0,1,68.682,351.518Z" transform="translate(-30.308 -199.795)" fill="#263238"/>
              <path id="Trazado_226309" data-name="Trazado 226309" d="M68.591,248.2h0c4.948,0,9.052-3.233,9.124-18.267,0-3.026-.09-5.649-.09-5.649s7.184-.647,7.669-7.571.126-22.99.126-22.99h0a24.733,24.733,0,0,0-24.715,1.634l-1.1.727.35,34.027C59.96,234.887,63.714,248.2,68.591,248.2Z" transform="translate(-33.018 -183.46)" fill="#b78876"/>
              <path id="Trazado_226310" data-name="Trazado 226310" d="M78.662,227.575a16.659,16.659,0,0,1-9.052-3.125s1.859,5.119,8.981,4.921Z" transform="translate(-34.038 -186.853)" fill="#aa6550"/>
              <path id="Trazado_226311" data-name="Trazado 226311" d="M86.236,206.347a.979.979,0,0,1-.952.979.943.943,0,0,1-1.024-.9.979.979,0,0,1,.952-.979.9.9,0,0,1,1.024.9Z" transform="translate(-35.531 -184.915)" fill="#263238"/>
              <path id="Trazado_226312" data-name="Trazado 226312" d="M86.254,205.114c-.117.126-.9-.422-1.94-.413s-1.85.521-1.958.4.063-.287.4-.53a2.793,2.793,0,0,1,1.572-.476,2.694,2.694,0,0,1,1.545.494C86.209,204.826,86.317,205.06,86.254,205.114Z" transform="translate(-35.334 -184.777)" fill="#263238"/>
              <path id="Trazado_226313" data-name="Trazado 226313" d="M74.606,206.618a.979.979,0,0,1-.952.979.9.9,0,0,1-1.024-.9.979.979,0,0,1,.952-.979.943.943,0,0,1,1.024.9Z" transform="translate(-34.346 -184.943)" fill="#263238"/>
              <path id="Trazado_226314" data-name="Trazado 226314" d="M74.553,205.334c-.126.126-.9-.422-1.94-.422s-1.85.53-1.967.4.072-.287.413-.53a2.766,2.766,0,0,1,1.572-.476,2.694,2.694,0,0,1,1.545.485C74.553,205.046,74.642,205.271,74.553,205.334Z" transform="translate(-34.14 -184.8)" fill="#263238"/>
              <path id="Trazado_226315" data-name="Trazado 226315" d="M79.286,213.091a6.933,6.933,0,0,1,1.733-.305c.269,0,.53-.081.575-.269a1.4,1.4,0,0,0-.18-.79c-.26-.647-.53-1.32-.808-2.03a33.8,33.8,0,0,1-1.8-5.316,34.818,34.818,0,0,1,2.236,5.164l.772,2.039a1.527,1.527,0,0,1,.144,1.051.682.682,0,0,1-.449.386,1.526,1.526,0,0,1-.467.063,7.264,7.264,0,0,1-1.76.009Z" transform="translate(-34.976 -184.807)" fill="#263238"/>
              <path id="Trazado_226316" data-name="Trazado 226316" d="M75.821,214.88c.18,0,.18,1.123,1.167,1.931s2.227.683,2.236.835-.278.225-.8.242a2.945,2.945,0,0,1-1.859-.638,2.461,2.461,0,0,1-.9-1.617C75.615,215.158,75.749,214.871,75.821,214.88Z" transform="translate(-34.654 -185.877)" fill="#263238"/>
              <path id="Trazado_226317" data-name="Trazado 226317" d="M74.783,200.8c-.108.278-1.176.144-2.425.3s-2.263.476-2.434.225.108-.386.512-.665a4.293,4.293,0,0,1,3.7-.4C74.594,200.441,74.828,200.666,74.783,200.8Z" transform="translate(-34.065 -184.362)" fill="#263238"/>
              <path id="Trazado_226318" data-name="Trazado 226318" d="M85.859,201.74c-.189.242-.9,0-1.8,0s-1.634.162-1.8-.09c-.081-.117,0-.359.368-.584a2.694,2.694,0,0,1,2.91.09C85.841,201.381,85.94,201.623,85.859,201.74Z" transform="translate(-35.325 -184.43)" fill="#263238"/>
              <path id="Trazado_226319" data-name="Trazado 226319" d="M85.333,191.5a7.014,7.014,0,0,0-1.078-3.017,2.991,2.991,0,0,0-.368-3.107,3.062,3.062,0,0,0-4.185-.225h-.054a1.634,1.634,0,0,0-.5-1.967,3.763,3.763,0,0,0-2.443-.575c-1.6,0-5.388,1.284-8.235,2.362l-.548.1a15.141,15.141,0,0,0-6.583,2.838,14.117,14.117,0,0,0-4.113,7.283c-.736,2.748-.754,5.64-.189,10.319.9-.763,3.907-2.694,4.356-1.625a6.286,6.286,0,0,1,.233,1.94,1.67,1.67,0,0,0,.988,1.563,1.311,1.311,0,0,0,1.365-.6,3.018,3.018,0,0,0,.44-1.509c.171-2.155-.368-4.338,0-6.475a7.948,7.948,0,0,1,9.412-6.538,16.68,16.68,0,0,0,3.862.79c1.895-.072,3.835-1.437,5.55-.62.332.162.674.323,1,.512.647.377.97.754,1.123.413A6.188,6.188,0,0,0,85.333,191.5Z" transform="translate(-32.715 -182.585)" fill="#263238"/>
              <path id="Trazado_226320" data-name="Trazado 226320" d="M61.175,205.157c-.135,0-4.49-.6-4.068,4.427s5.46,2.955,5.451,2.811S61.175,205.157,61.175,205.157Z" transform="translate(-32.76 -184.884)" fill="#b78876"/>
              <path id="Trazado_226321" data-name="Trazado 226321" d="M60.993,210.947a1.4,1.4,0,0,1-.225.153.9.9,0,0,1-.674.063,2.173,2.173,0,0,1-1.141-1.859,2.811,2.811,0,0,1,.144-1.275,1.042,1.042,0,0,1,.62-.727.467.467,0,0,1,.548.2c.081.135.054.242.081.251s.108-.1.045-.305a.593.593,0,0,0-.225-.3.674.674,0,0,0-.5-.09,1.257,1.257,0,0,0-.9.853,2.973,2.973,0,0,0-.2,1.428A2.3,2.3,0,0,0,60.05,211.4a.97.97,0,0,0,.808-.2C60.993,211.073,61.011,210.956,60.993,210.947Z" transform="translate(-32.911 -185.078)" fill="#aa6550"/>
              <path id="Trazado_226322" data-name="Trazado 226322" d="M112.846,439.174l3.916-5.487-15.069-10.6-6.233,8.469.9.736c3.871,3.269,19.892,16.336,23.2,17.575C123.2,451.244,112.846,439.174,112.846,439.174Z" transform="translate(-36.673 -207.103)" fill="#4dd0e1"/>
              <g id="Grupo_222330" data-name="Grupo 222330" transform="translate(59.002 220.199)" opacity="0.5">
                <path id="Trazado_226323" data-name="Trazado 226323" d="M100.864,435.925a6.286,6.286,0,0,0,.611-4.49,5.451,5.451,0,0,0-2.811-3.655L95.7,431.839Z" transform="translate(-95.7 -427.78)" fill="#fff"/>
              </g>
              <g id="Grupo_222331" data-name="Grupo 222331" transform="translate(58.787 224.151)" opacity="0.5">
                <path id="Trazado_226324" data-name="Trazado 226324" d="M117.75,446.19s3.422,4.49,2.353,4.8-17.764-12.312-24.643-18.509l.26-.305,19.344,14.872S116.87,445.579,117.75,446.19Z" transform="translate(-95.46 -432.18)" fill="#fff"/>
              </g>
              <path id="Trazado_226325" data-name="Trazado 226325" d="M95.5,432l.233.216.691.584,2.568,2.119c2.182,1.8,5.236,4.194,8.657,6.78s6.574,4.876,8.873,6.493l2.694,1.9.754.5a1.23,1.23,0,0,0,.269.162s-.081-.072-.242-.2l-.727-.539-2.694-1.958c-2.272-1.652-5.388-3.943-8.828-6.538s-6.412-5.038-8.657-6.744l-2.613-2.066-.718-.557A1.069,1.069,0,0,0,95.5,432Z" transform="translate(-36.677 -208.011)" fill="#263238"/>
              <path id="Trazado_226326" data-name="Trazado 226326" d="M117.1,448.85a6.772,6.772,0,0,1,1.428-.9,6.876,6.876,0,0,1,1.661-.305,2.433,2.433,0,0,0-1.742.1,2.326,2.326,0,0,0-1.347,1.1Z" transform="translate(-38.879 -209.594)" fill="#263238"/>
              <path id="Trazado_226327" data-name="Trazado 226327" d="M114.1,442.93c0,.063.413,0,.9-.2s.817-.35.8-.4a1.643,1.643,0,0,0-.9.2C114.414,442.723,114.073,442.849,114.1,442.93Z" transform="translate(-38.573 -209.062)" fill="#263238"/>
              <path id="Trazado_226328" data-name="Trazado 226328" d="M113.3,441.27c0,.063.35.09.763.054a1.491,1.491,0,0,0,.754-.162c0-.063-.35-.09-.772-.054S113.291,441.216,113.3,441.27Z" transform="translate(-38.492 -208.938)" fill="#263238"/>
              <path id="Trazado_226329" data-name="Trazado 226329" d="M113.6,439.159a4.124,4.124,0,0,0,.692.674c.422.323.79.548.826.494s-.278-.341-.691-.665A2.246,2.246,0,0,0,113.6,439.159Z" transform="translate(-38.522 -208.74)" fill="#263238"/>
              <path id="Trazado_226330" data-name="Trazado 226330" d="M114.119,437.88a2.057,2.057,0,0,0,.665.9,1.85,1.85,0,0,0,.97.548,9.8,9.8,0,0,0-.826-.709C114.487,438.23,114.164,437.844,114.119,437.88Z" transform="translate(-38.574 -208.61)" fill="#263238"/>
              <path id="Trazado_226331" data-name="Trazado 226331" d="M115.69,441.962a3.485,3.485,0,0,0,.9.7,6.488,6.488,0,0,0,1.167.539,3.324,3.324,0,0,0,.745.207.655.655,0,0,0,.449-.108.458.458,0,0,0,.135-.476,2.173,2.173,0,0,0-3.278-.736c-.153.126-.216.216-.207.234a3.243,3.243,0,0,1,1.024-.467,2.128,2.128,0,0,1,1.185.1,1.8,1.8,0,0,1,1.06.9c.072.225-.117.35-.359.323a3.135,3.135,0,0,1-.691-.18,8.083,8.083,0,0,1-1.158-.485C116.067,442.2,115.708,441.962,115.69,441.962Z" transform="translate(-38.726 -208.992)" fill="#263238"/>
              <path id="Trazado_226332" data-name="Trazado 226332" d="M115.888,441.959a1.252,1.252,0,0,0,.593-.557,1.715,1.715,0,0,0,.251-.9,1.176,1.176,0,0,0-.422-1.06.458.458,0,0,0-.611.207,1.221,1.221,0,0,0-.153.53,3.592,3.592,0,0,0,0,.9,1.59,1.59,0,0,0,.26.781,6.834,6.834,0,0,1-.1-.79,4.623,4.623,0,0,1,0-.9c0-.287.2-.71.467-.566s.314.566.323.9a2.057,2.057,0,0,1-.189.8,3.826,3.826,0,0,1-.422.656Z" transform="translate(-38.718 -208.765)" fill="#263238"/>
              <path id="Trazado_226333" data-name="Trazado 226333" d="M99.13,427.87a7.218,7.218,0,0,1,1.051.853,6.053,6.053,0,0,1,1.643,2.694,5.81,5.81,0,0,1-.072,3.152c-.242.781-.53,1.212-.494,1.23a1.077,1.077,0,0,0,.216-.287,4.257,4.257,0,0,0,.422-.9,5.388,5.388,0,0,0,.135-3.251,5.694,5.694,0,0,0-1.742-2.793,5.189,5.189,0,0,0-.817-.584C99.265,427.906,99.139,427.852,99.13,427.87Z" transform="translate(-37.047 -207.589)" fill="#263238"/>
              <path id="Trazado_226334" data-name="Trazado 226334" d="M104.68,436.84a9.988,9.988,0,0,0,1.976,1.8,10.478,10.478,0,0,0,2.263,1.446c0-.054-.961-.718-2.128-1.616S104.725,436.795,104.68,436.84Z" transform="translate(-37.613 -208.504)" fill="#263238"/>
              <path id="Trazado_226335" data-name="Trazado 226335" d="M101.462,434.43c-.063,0-.072.251-.135.539s-.153.521-.1.557.242-.171.314-.5S101.524,434.421,101.462,434.43Z" transform="translate(-37.259 -208.259)" fill="#263238"/>
              <path id="Trazado_226336" data-name="Trazado 226336" d="M101.393,432.05c-.063,0-.081.234-.045.494s.117.476.18.467.081-.224,0-.494S101.447,432.05,101.393,432.05Z" transform="translate(-37.271 -208.016)" fill="#263238"/>
              <path id="Trazado_226337" data-name="Trazado 226337" d="M100.18,430.078c0,.063.171.207.332.44s.225.467.287.467.09-.3-.108-.584S100.2,430.006,100.18,430.078Z" transform="translate(-37.154 -207.813)" fill="#263238"/>
              <path id="Trazado_226338" data-name="Trazado 226338" d="M99.2,428.839c-.054,0,0,.171.063.305s.2.224.251.2,0-.171-.063-.305S99.251,428.813,99.2,428.839Z" transform="translate(-37.052 -207.688)" fill="#263238"/>
              <g id="Grupo_222332" data-name="Grupo 222332" transform="translate(62.514 218.161)" opacity="0.3">
                <path id="Trazado_226339" data-name="Trazado 226339" d="M99.61,426.731l15.231,10.5.449-.584L100.481,425.51Z" transform="translate(-99.61 -425.51)"/>
              </g>
              <path id="Trazado_226340" data-name="Trazado 226340" d="M194.112,459.57l-1.41-6.43-17.512,4.005,2.048,10.058,1.1-.135c4.894-.665,24.858-3.718,27.912-5.3C209.666,460,194.112,459.57,194.112,459.57Z" transform="translate(-44.801 -210.166)" fill="#4dd0e1"/>
              <g id="Grupo_222333" data-name="Grupo 222333" transform="translate(131.44 251.629)" opacity="0.5">
                <path id="Trazado_226341" data-name="Trazado 226341" d="M183.706,466.83a6.206,6.206,0,0,0-2.856-3.368,5.263,5.263,0,0,0-4.49-.332l1,4.8Z" transform="translate(-176.36 -462.777)" fill="#fff"/>
              </g>
              <g id="Grupo_222334" data-name="Grupo 222334" transform="translate(132.392 249.871)" opacity="0.5">
                <path id="Trazado_226342" data-name="Trazado 226342" d="M201.991,460.82s5.514.476,5.02,1.446-20.548,4.8-29.546,5.721l-.045-.386,23.439-4.266S200.976,461.053,201.991,460.82Z" transform="translate(-177.42 -460.82)" fill="#fff"/>
              </g>
              <path id="Trazado_226343" data-name="Trazado 226343" d="M177.11,467.774h.314l.9-.117,3.224-.476c2.694-.422,6.457-1.051,10.579-1.8s7.831-1.572,10.507-2.173l3.17-.736.9-.216.3-.09a1.472,1.472,0,0,0-.305.045l-.9.18-3.179.674c-2.694.566-6.4,1.329-10.525,2.11s-7.849,1.437-10.561,1.895l-3.206.539-.9.153Z" transform="translate(-44.997 -211.086)" fill="#263238"/>
              <path id="Trazado_226344" data-name="Trazado 226344" d="M203.559,463.578a6.683,6.683,0,0,1,.314-1.608,7.937,7.937,0,0,1,.9-1.41,2.47,2.47,0,0,0-1.06,1.329A2.317,2.317,0,0,0,203.559,463.578Z" transform="translate(-47.683 -210.922)" fill="#263238"/>
              <path id="Trazado_226345" data-name="Trazado 226345" d="M197.25,461.968a2.065,2.065,0,0,0,.431-.772,1.8,1.8,0,0,0,.225-.835,1.984,1.984,0,0,0-.431.763A1.8,1.8,0,0,0,197.25,461.968Z" transform="translate(-47.05 -210.902)" fill="#263238"/>
              <path id="Trazado_226346" data-name="Trazado 226346" d="M195.509,461.5a1.836,1.836,0,0,0,.539-.521c.251-.323.422-.62.377-.656s-.3.2-.548.521S195.464,461.46,195.509,461.5Z" transform="translate(-46.871 -210.897)" fill="#263238"/>
              <path id="Trazado_226347" data-name="Trazado 226347" d="M194.16,459.96a2.118,2.118,0,0,0,.943-.063,2.064,2.064,0,0,0,.9-.269,2.254,2.254,0,0,0-.9.063A2.228,2.228,0,0,0,194.16,459.96Z" transform="translate(-46.735 -210.825)" fill="#263238"/>
              <path id="Trazado_226348" data-name="Trazado 226348" d="M193.58,458.772a2.635,2.635,0,0,0,2.1-.242,6.288,6.288,0,0,0-1.051.126,5.856,5.856,0,0,0-1.051.117Z" transform="translate(-46.676 -210.715)" fill="#263238"/>
              <path id="Trazado_226349" data-name="Trazado 226349" d="M197.6,460.123a3.59,3.59,0,0,0,1.123-.225,7.252,7.252,0,0,0,1.15-.485,3.654,3.654,0,0,0,.638-.413.575.575,0,0,0,.216-.4.449.449,0,0,0-.251-.413,2.137,2.137,0,0,0-2.452,1.087,1.9,1.9,0,0,0-.225.808c0,.2,0,.305,0,.305a2.9,2.9,0,0,1,.332-1.042,2.03,2.03,0,0,1,.844-.8,1.85,1.85,0,0,1,1.365-.171c.207.1.171.314,0,.476a4.1,4.1,0,0,1-.584.386,7.356,7.356,0,0,1-1.114.512C198.022,460.006,197.591,460.087,197.6,460.123Z" transform="translate(-47.085 -210.673)" fill="#263238"/>
              <path id="Trazado_226350" data-name="Trazado 226350" d="M197.727,460.129a1.06,1.06,0,0,0,0-.79,1.8,1.8,0,0,0-.458-.754,1.167,1.167,0,0,0-1.051-.386.458.458,0,0,0-.251.575,1.212,1.212,0,0,0,.287.458,3.359,3.359,0,0,0,.665.575,1.725,1.725,0,0,0,.727.323,7.372,7.372,0,0,0-.638-.449,3.9,3.9,0,0,1-.6-.575c-.2-.207-.386-.6-.108-.709s.62.144.835.332a1.8,1.8,0,0,1,.449.656A3.187,3.187,0,0,1,197.727,460.129Z" transform="translate(-46.916 -210.68)" fill="#263238"/>
              <path id="Trazado_226351" data-name="Trazado 226351" d="M176.51,463.045c0,.045.494-.144,1.311-.2a5.865,5.865,0,0,1,3.044.6,5.622,5.622,0,0,1,2.236,2.11c.413.692.53,1.177.575,1.168a1.284,1.284,0,0,0-.072-.35,3.9,3.9,0,0,0-.368-.9,5.414,5.414,0,0,0-6.394-2.586A1.744,1.744,0,0,0,176.51,463.045Z" transform="translate(-44.935 -211.135)" fill="#263238"/>
              <path id="Trazado_226352" data-name="Trazado 226352" d="M186.64,464.9a15.107,15.107,0,0,0,5.146-.9c0-.063-1.15.225-2.568.485S186.64,464.8,186.64,464.9Z" transform="translate(-45.968 -211.272)" fill="#263238"/>
              <path id="Trazado_226353" data-name="Trazado 226353" d="M182.81,465.679a2.131,2.131,0,0,0,.305.458c.171.234.269.449.332.44s0-.3-.153-.566S182.837,465.634,182.81,465.679Z" transform="translate(-45.578 -211.443)" fill="#263238"/>
              <path id="Trazado_226354" data-name="Trazado 226354" d="M181,464.2c0,.045.108.2.323.35s.422.225.458.171-.117-.207-.332-.35S181.054,464.144,181,464.2Z" transform="translate(-45.393 -211.291)" fill="#263238"/>
              <path id="Trazado_226355" data-name="Trazado 226355" d="M178.81,463.762c0,.063.251,0,.53.054s.485.135.521.09-.153-.26-.494-.3S178.774,463.717,178.81,463.762Z" transform="translate(-45.17 -211.233)" fill="#263238"/>
              <path id="Trazado_226356" data-name="Trazado 226356" d="M177.26,463.681c0,.054.108.126.26.153s.3,0,.305-.054-.108-.126-.26-.162S177.269,463.618,177.26,463.681Z" transform="translate(-45.012 -211.233)" fill="#263238"/>
              <g id="Grupo_222335" data-name="Grupo 222335" transform="translate(130.901 246.153)" opacity="0.3">
                <path id="Trazado_226357" data-name="Trazado 226357" d="M176.074,461.539l17.575-4.149-.135-.709-17.755,3.431Z" transform="translate(-175.76 -456.68)"/>
              </g>
              <path id="Trazado_226358" data-name="Trazado 226358" d="M145.5,285.9a17.063,17.063,0,0,1,3.5-3.341c.494-.162,9.286-3.826,9.448-3.422s1.221,2.416-.575,3.368l-1.383.458,5.047.413s5.622,4.149,5.541,5.047-.817,1.464-1.3,1.051,1.3,2.856,1.3,2.856,0,1.383-.736,1.141a6.872,6.872,0,0,1-1.877-1.554s1.06,1.715.736,2.039-1.949.4-2.119,0-.4-1.141-.4-1.141l-.979.081v1.383l-14.9.458Z" transform="translate(-41.774 -192.425)" fill="#aa6550"/>
              <path id="Trazado_226359" data-name="Trazado 226359" d="M80.679,240.89l4.553,5.379,18.195,31.845,35.482,3.511.772,10.265-40.871,3.862L76,254.46Z" transform="translate(-34.689 -188.529)" fill="#e0e0e0"/>
              <path id="Trazado_226360" data-name="Trazado 226360" d="M80.775,255.162l-3.52-13.282-.072-4.329L57.425,228.57,53.644,233.3l.458.242C52.54,235.18,41.071,247.6,41.727,256.8c.62,8.262,18.015,60.3,18.015,60.3l39.631-11.585Z" transform="translate(-31.193 -187.273)" fill="#ebebeb"/>
              <path id="Trazado_226361" data-name="Trazado 226361" d="M80.684,243.59l-1.114,5.442,2.9,5.442v4.032L103.234,307l6.143,2.066,1.042-4.158S93.131,275.39,90.14,267.083s-7.409-20.278-7.409-20.278Z" transform="translate(-35.053 -188.804)" fill="#feca2e"/>
              <path id="Trazado_226362" data-name="Trazado 226362" d="M45.71,268.83c0,.521,35.8,35.105,35.8,35.105l48.36-9.466-1.554-10.319-33.013.9a9.708,9.708,0,0,1-8.684-3.915c-7.086-9.2-22.451-29.142-22.838-29.636C63.267,250.761,45.71,268.83,45.71,268.83Z" transform="translate(-31.601 -189.608)" fill="#ebebeb"/>
              <path id="Trazado_226363" data-name="Trazado 226363" d="M128.372,283.939s.045.207.117.647.189,1.1.323,1.958l1.212,7.705v.09h-.09L91.318,301.8l-3.179.611a14.611,14.611,0,0,1-3.332.3,13.426,13.426,0,0,1-9.349-4.23c-.817-.9-1.572-1.8-2.371-2.694q-2.389-2.694-4.832-5.55c-6.547-7.526-13.471-15.509-20.655-23.772h0l-.144-.377a15.68,15.68,0,0,1-1.167-5.568,10.3,10.3,0,0,1,1.383-5.451,11.5,11.5,0,0,1,3.978-3.853,12.339,12.339,0,0,1,5.155-1.769,9.879,9.879,0,0,1,5.272.943,13.659,13.659,0,0,1,4.113,3.26,43.942,43.942,0,0,1,3.116,4.059l2.883,4.041c3.853,5.3,7.66,10.22,11.342,14.737l2.694,3.3a30.208,30.208,0,0,0,2.748,3.044A6.43,6.43,0,0,0,92.5,284.28a28.133,28.133,0,0,0,3.781.1l23.511-.359,6.367-.081h1.617l-1.679.054-6.394.162-23.421.53a27.348,27.348,0,0,1-3.817-.09,6.825,6.825,0,0,1-3.727-1.509,29.567,29.567,0,0,1-2.8-3.08l-2.694-3.3c-3.7-4.49-7.526-9.43-11.387-14.728-.961-1.329-1.922-2.694-2.9-4.041a44.008,44.008,0,0,0-3.089-4.005,13.211,13.211,0,0,0-4.005-3.089,9.375,9.375,0,0,0-5.029-.9,11.8,11.8,0,0,0-8.792,5.388,9.744,9.744,0,0,0-1.32,5.2,15.267,15.267,0,0,0,1.132,5.388c.054.126.1.251.144.368v-.063L68.651,290l4.823,5.568c.8.9,1.572,1.8,2.362,2.694a12.968,12.968,0,0,0,9.052,4.113,14.009,14.009,0,0,0,3.242-.278l3.179-.6,38.617-7.265-.081.108c-.476-3.341-.844-5.909-1.1-7.66l-.269-1.994C128.4,284.173,128.372,283.939,128.372,283.939Z" transform="translate(-31.66 -189.396)" fill="#455a64"/>
              <path id="Trazado_226364" data-name="Trazado 226364" d="M78.581,238.129c.045,0-.135.9-.314,2.434a51.553,51.553,0,0,1-.9,6.4l-.054.269-.242-.144-7.023-4.086c-4.068-2.371-7.741-4.49-10.391-6.116l-3.125-1.895a7.617,7.617,0,0,1-1.114-.754,7.589,7.589,0,0,1,1.2.593l3.2,1.8c2.694,1.518,6.394,3.592,10.462,5.99l7.041,4.122-.305.126c.584-2.568.736-4.8,1.015-6.34.126-.772.242-1.374.35-1.8a2.694,2.694,0,0,1,.2-.6Z" transform="translate(-32.591 -187.851)" fill="#455a64"/>
              <path id="Trazado_226365" data-name="Trazado 226365" d="M158.46,287.612l-8.63-2.362-7.184,3.592h-4.068l-.647.26,1.158,7.732,1.024.144a9.879,9.879,0,0,0,3.431,1.3c2.281.494,5.613-.979,5.613-.979l4.562-2.524,3.26-.9,2.443,1.419a9.573,9.573,0,0,1,.242,1.3c0,.323.9.727,1.383.727s.647-1.141.647-1.141l-.566-2.434,1.141,1.051h2.847v-1.8Z" transform="translate(-41.003 -193.051)" fill="#b78876"/>
              <path id="Trazado_226366" data-name="Trazado 226366" d="M135.2,350.99l-37.189,66.2,19.874,13.48,32.869-58.338-5.541-21.347Z" transform="translate(-36.933 -199.753)" fill="#263238"/>
              <path id="Trazado_226367" data-name="Trazado 226367" d="M61.7,325.788s-4.266,17.961,7.319,21.643,71.845,5.559,71.845,5.559l22.4,92.5,19.174-2.694L165.9,343.659a16.785,16.785,0,0,0-13.579-13.615c-17.871-3.2-50.246-9.061-50.686-9.717-.611-.9-3.053-6.1-3.053-6.1Z" transform="translate(-33.154 -196.005)" fill="#263238"/>
              <path id="Trazado_226368" data-name="Trazado 226368" d="M154.653,385.487a2.343,2.343,0,0,1-.2-.476c-.117-.323-.269-.79-.44-1.41-.359-1.221-.8-3.027-1.266-5.254s-1.006-4.912-1.608-7.849a42.756,42.756,0,0,0-2.793-9.322c-.754-1.509-1.8-2.973-3.3-3.458a24.9,24.9,0,0,0-4.562-1c-2.982-.413-5.685-.611-7.957-.754s-4.122-.207-5.388-.26l-1.464-.063a.257.257,0,1,1,0-.045h1.473c1.275,0,3.125,0,5.388.108s4.993.26,7.993.656a24.866,24.866,0,0,1,4.67,1,5.839,5.839,0,0,1,1.159.584,5.7,5.7,0,0,1,.97.9,10,10,0,0,1,1.428,2.209,41.886,41.886,0,0,1,2.793,9.439c.6,2.964,1.069,5.631,1.509,7.867s.817,4.041,1.114,5.281S154.653,385.469,154.653,385.487Z" transform="translate(-39.702 -200.222)" fill="#455a64"/>
            </g>
            <g id="freepik--Desk--inject-26" transform="translate(124.431 233.932)">
              <path id="Trazado_226369" data-name="Trazado 226369" d="M374.51,302.452l-239.333-.862-.027,7.113,14.207.045-.5,138.409,5.02.018.494-138.409,197.762.71-.494,138.418,5.02.009.494-138.409,17.333.063Z" transform="translate(-135.15 -262.075)" fill="#455a64"/>
              <path id="Trazado_226370" data-name="Trazado 226370" d="M310.14,258.818l13.282,38.8h60.107l-.44-1.994-24.31-.754L347.58,258.8Z" transform="translate(-152.989 -257.713)" fill="#e0e0e0"/>
              <path id="Trazado_226371" data-name="Trazado 226371" d="M339.288,278.845c.4,1.59-.287,3.152-1.527,3.484s-2.559-.692-2.955-2.281.278-3.152,1.518-3.475S338.884,277.256,339.288,278.845Z" transform="translate(-155.492 -259.519)" fill="#fff"/>
              <path id="Trazado_226372" data-name="Trazado 226372" d="M235.949,257.608l-13.282,38.8H162.56l.44-1.994,24.31-.754,11.2-36.066Z" transform="translate(-137.944 -257.59)" fill="#e0e0e0"/>
              <path id="Trazado_226373" data-name="Trazado 226373" d="M214.6,277.634c-.4,1.59.287,3.152,1.527,3.475s2.559-.683,2.955-2.272-.287-3.152-1.518-3.484S215,276.044,214.6,277.634Z" transform="translate(-143.238 -259.394)" fill="#fff"/>
              <circle id="Elipse_16286" data-name="Elipse 16286" cx="7.355" cy="7.355" r="7.355" transform="translate(113.944 31.311) rotate(-80.76)" fill="#455a64"/>
              <rect id="Rect치ngulo_295983" data-name="Rect치ngulo 295983" width="48.064" height="17.566" transform="translate(98.364 22.335)" fill="#e0e0e0"/>
              <path id="Trazado_226374" data-name="Trazado 226374" d="M263.47,287.83a66.864,66.864,0,0,1-7.84.233,66.865,66.865,0,0,1-7.84-.233,64.594,64.594,0,0,1,7.84-.234A64.594,64.594,0,0,1,263.47,287.83Z" transform="translate(-146.633 -260.646)" fill="#263238"/>
              <path id="Trazado_226375" data-name="Trazado 226375" d="M263.47,290.639a66.878,66.878,0,0,1-7.84.233,66.878,66.878,0,0,1-7.84-.233,63.417,63.417,0,0,1,7.84-.242A63.416,63.416,0,0,1,263.47,290.639Z" transform="translate(-146.633 -260.931)" fill="#263238"/>
              <path id="Trazado_226376" data-name="Trazado 226376" d="M263.47,293.44a64.6,64.6,0,0,1-7.84.233,64.594,64.594,0,0,1-7.84-.233,66.87,66.87,0,0,1,7.84-.234,66.865,66.865,0,0,1,7.84.234Z" transform="translate(-146.633 -261.218)" fill="#263238"/>
              <path id="Trazado_226377" data-name="Trazado 226377" d="M263.47,296.25a64.588,64.588,0,0,1-7.84.233,64.588,64.588,0,0,1-7.84-.233,66.87,66.87,0,0,1,7.84-.234,66.865,66.865,0,0,1,7.84.234Z" transform="translate(-146.633 -261.504)" fill="#263238"/>
              <path id="Trazado_226378" data-name="Trazado 226378" d="M274.97,299.645a74.624,74.624,0,0,1-.234-8.433,74.861,74.861,0,0,1,.234-8.442,77.484,77.484,0,0,1,.234,8.442A77.236,77.236,0,0,1,274.97,299.645Z" transform="translate(-149.376 -260.157)" fill="#263238"/>
            </g>
          </g>
        </g>
      </g>
    </g>
  </g>
</svg>
