<svg xmlns="http://www.w3.org/2000/svg" width="183.824" height="151.375" viewBox="0 0 183.824 151.375">
  <g id="Grupo_222350" data-name="Grupo 222350" transform="translate(7233.611 -4485)">
    <g id="Grupo_222349" data-name="Grupo 222349">
      <g id="Grupo_152116" data-name="Grupo 152116" transform="translate(-7233.611 4485)">
        <g id="Grupo_152100" data-name="Grupo 152100">
          <path id="Trazado_199262" data-name="Trazado 199262" d="M451.289,107.4c0,39.121-49.211,61.723-88.332,61.723s-59.712-31.714-59.712-70.835,44.473-57.7,83.594-57.7S451.289,68.275,451.289,107.4Z" transform="translate(-281.735 -17.744)" fill="#4dd0e1"/>
          <g id="Grupo_152097" data-name="Grupo 152097" transform="translate(0 14.431)">
            <g id="Grupo_152096" data-name="Grupo 152096">
              <path id="Trazado_199263" data-name="Trazado 199263" d="M401.084,125.835l-59.125,31.318a2.73,2.73,0,0,1-3.673-1.109c-15.411-28.175-33.558-54.688-50.086-82.2a2.732,2.732,0,0,1,.737-3.618,274.251,274.251,0,0,1,67.142-35.513,2.731,2.731,0,0,1,3.234,1.1c17.38,27.394,31.267,56.413,43.041,86.614A2.733,2.733,0,0,1,401.084,125.835Z" transform="translate(-287.809 -34.549)" fill="#0f2771"/>
            </g>
          </g>
          <g id="Grupo_152098" data-name="Grupo 152098" transform="translate(19.295 35.646)">
            <path id="Trazado_199264" data-name="Trazado 199264" d="M302.079,69.472c.959,1.65,2.564,2.122,4.62,1.275a3.137,3.137,0,0,0,1.518-4.53,3.477,3.477,0,0,0-6.137,3.255Z" transform="translate(-301.655 -44.003)" fill="#feca2e"/>
            <path id="Trazado_199265" data-name="Trazado 199265" d="M307.808,77.951c.957,1.651,2.564,2.122,4.62,1.276a3.14,3.14,0,0,0,1.518-4.53,3.476,3.476,0,0,0-6.137,3.254Z" transform="translate(-299.401 -40.666)" fill="#feca2e"/>
            <path id="Trazado_199266" data-name="Trazado 199266" d="M313.341,86.505c.957,1.651,2.564,2.122,4.62,1.276a3.14,3.14,0,0,0,1.518-4.53,3.476,3.476,0,0,0-6.137,3.254Z" transform="translate(-297.223 -37.3)" fill="#feca2e"/>
            <path id="Trazado_199267" data-name="Trazado 199267" d="M338.159,50.871a2.36,2.36,0,0,0-3.151-.826,127.022,127.022,0,0,0-24.32,14.21,2.374,2.374,0,0,0-.826,3.151,2.321,2.321,0,0,0,3.152.826,126.97,126.97,0,0,1,24.319-14.21A2.319,2.319,0,0,0,338.159,50.871Z" transform="translate(-298.547 -49.773)" fill="#4dd0e1"/>
            <path id="Trazado_199268" data-name="Trazado 199268" d="M348.388,58.035a125.92,125.92,0,0,0-31.4,15.626c-2.427,1.669-.127,5.662,2.324,3.977a121.566,121.566,0,0,1,30.305-15.162C352.408,61.541,351.21,57.09,348.388,58.035Z" transform="translate(-296.029 -46.573)" fill="#4dd0e1"/>
            <path id="Trazado_199269" data-name="Trazado 199269" d="M353.489,67.953a125.967,125.967,0,0,0-31.4,15.626c-2.428,1.669-.127,5.663,2.324,3.977A121.562,121.562,0,0,1,354.714,72.4C357.509,71.459,356.311,67.008,353.489,67.953Z" transform="translate(-294.022 -42.67)" fill="#4dd0e1"/>
          </g>
          <path id="Trazado_199270" data-name="Trazado 199270" d="M404.955,98.509a2.064,2.064,0,0,0-3.122-1.8c-7.04,4.384-13.466,10.751-17.186,18.24-1.006,2.023-1.505,4.476.144,6.329,1.327,1.491,3.365,1.724,5.11,2.465a18.768,18.768,0,0,1,11.049,18.474c-.162,1.983,2.344,2.579,3.611,1.5a29.916,29.916,0,0,0,.394-45.2Z" transform="translate(-250.065 4.213)" fill="#4dd0e1"/>
          <path id="Trazado_199271" data-name="Trazado 199271" d="M327.253,40.046c3.676,22.681,8.569,45.064,14.444,67.285,10.174,6.649,20.3,13.353,30.247,20.337,13.25-2.384,26.486-4.815,39.778-6.937a3.538,3.538,0,0,0,2.97-3.779c-2.4-30.219-8.991-59.886-13.809-89.777a3.535,3.535,0,0,0-4.045-2.936c-22.274,3.593-44.376,8.169-66.65,11.763A3.532,3.532,0,0,0,327.253,40.046Z" transform="translate(-272.305 -24.193)" fill="#feca2e"/>
          <path id="Trazado_199272" data-name="Trazado 199272" d="M337.035,47.361c.4,2.666,2.27,4.119,5.411,4.072a4.434,4.434,0,0,0,4.341-5.169,4.679,4.679,0,0,0-5.407-4.121C338.59,42.566,336.632,44.694,337.035,47.361Z" transform="translate(-268.458 -17.153)" fill="#4dd0e1"/>
          <path id="Trazado_199273" data-name="Trazado 199273" d="M340.572,61.494c.4,2.666,2.27,4.118,5.411,4.071a4.434,4.434,0,0,0,4.341-5.167,4.679,4.679,0,0,0-5.407-4.121C342.127,56.7,340.169,58.827,340.572,61.494Z" transform="translate(-267.066 -11.591)" fill="#4dd0e1"/>
          <path id="Trazado_199274" data-name="Trazado 199274" d="M342.309,75.959c.4,2.666,2.269,4.119,5.41,4.071a4.431,4.431,0,0,0,4.341-5.167,4.679,4.679,0,0,0-5.407-4.121C343.863,71.164,341.9,73.292,342.309,75.959Z" transform="translate(-266.382 -5.898)" fill="#4dd0e1"/>
          <path id="Trazado_199275" data-name="Trazado 199275" d="M337.605,84.791c10.174,6.649,20.3,13.353,30.247,20.337q-2.375-10.464-4.783-20.917a3.53,3.53,0,0,0-4.013-2.7Q348.347,83.261,337.605,84.791Z" transform="translate(-268.213 -1.654)" fill="#32547c"/>
          <g id="Grupo_152099" data-name="Grupo 152099" transform="translate(128.837 58.171)">
            <path id="Trazado_199276" data-name="Trazado 199276" d="M381.081,90.19c3.2,10.351,11.488,15,23.938,12.928a17.813,17.813,0,0,0,14.147-23.135c-3.2-10.351-13.126-16.476-23.956-13.126S377.879,79.838,381.081,90.19Z" transform="translate(-380.263 -65.937)" fill="#0f2771"/>
            <path id="Trazado_199277" data-name="Trazado 199277" d="M384.419,90.2s9.051-1.714,10.686-1.342c0,0,2.7-13.685,12.4-19.328,0,0-8.732,20.524-8.869,25.417Z" transform="translate(-378.627 -64.521)" fill="#feca2e"/>
          </g>
          <path id="Trazado_199278" data-name="Trazado 199278" d="M377.215,37.8l-25.553,5c-2.907.567-1.676,5.008,1.224,4.441l25.555-5C381.346,41.675,380.115,37.234,377.215,37.8Z" transform="translate(-263.334 -18.858)" fill="#0f2771"/>
          <path id="Trazado_199279" data-name="Trazado 199279" d="M384.328,54.935a2.357,2.357,0,0,0-2.833-1.608l-26.081,4.235A2.321,2.321,0,0,0,353.8,60.4,2.359,2.359,0,0,0,356.637,62l26.083-4.235A2.32,2.32,0,0,0,384.328,54.935Z" transform="translate(-261.866 -12.745)" fill="#0f2771"/>
          <path id="Trazado_199280" data-name="Trazado 199280" d="M387.519,69.248a2.357,2.357,0,0,0-2.833-1.608l-26.612,4.447a2.321,2.321,0,0,0-1.608,2.833,2.357,2.357,0,0,0,2.833,1.608l26.612-4.447A2.321,2.321,0,0,0,387.519,69.248Z" transform="translate(-260.819 -7.113)" fill="#0f2771"/>
          <path id="Trazado_199281" data-name="Trazado 199281" d="M411.711,58.623c-.913-1.754-3.563-.2-2.651,1.55a105.866,105.866,0,0,1,11.858,44.556c.079,1.969,3.151,1.98,3.071,0A109.451,109.451,0,0,0,411.711,58.623Z" transform="translate(-240.167 -10.948)" fill="#4dd0e1"/>
          <path id="Trazado_199282" data-name="Trazado 199282" d="M305.786,112.372a53.656,53.656,0,0,1-7.237-23.262c-.139-1.961-3.211-1.976-3.07,0a57.093,57.093,0,0,0,7.655,24.812A1.537,1.537,0,0,0,305.786,112.372Z" transform="translate(-284.793 0.773)" fill="#4dd0e1"/>
        </g>
      </g>
    </g>
  </g>
</svg>
