<svg xmlns="http://www.w3.org/2000/svg" xmlns:xlink="http://www.w3.org/1999/xlink" width="190" height="115" viewBox="0 0 190 115">
  <defs>
    <clipPath id="clip-path">
      <rect id="Rectángulo_44836" data-name="Rectángulo 44836" width="96.667" height="100" fill="#0f2771"/>
    </clipPath>
  </defs>
  <g id="Grupo_222379" data-name="Grupo 222379" transform="translate(-181 -6404.992)">
    <g id="Grupo_222378" data-name="Grupo 222378">
      <g id="Grupo_222377" data-name="Grupo 222377">
        <g id="Grupo_210456" data-name="Grupo 210456" transform="translate(1 3778.992)">
          <rect id="Rectángulo_43992" data-name="Rectángulo 43992" width="190" height="115" transform="translate(180 2626)" fill="none"/>
          <g id="Grupo_146383" data-name="Grupo 146383" transform="translate(0 2232)">
            <rect id="Rectángulo_41430" data-name="Rectángulo 41430" width="85" height="28" rx="14" transform="translate(285 407)" fill="#feca2e" opacity="0.2"/>
            <rect id="Rectángulo_41431" data-name="Rectángulo 41431" width="85" height="28" rx="14" transform="translate(180 468)" fill="#4dd0e1" opacity="0.2"/>
          </g>
          <g id="Grupo_146689" data-name="Grupo 146689" transform="translate(227 2634)">
            <rect id="Rectángulo_44824" data-name="Rectángulo 44824" width="3.333" height="3.333" transform="translate(76.667 66.667)" fill="#0f2771"/>
            <rect id="Rectángulo_44825" data-name="Rectángulo 44825" width="3.333" height="3.333" transform="translate(21.667 5)" fill="#0f2771"/>
            <rect id="Rectángulo_44826" data-name="Rectángulo 44826" width="3.333" height="3.333" transform="translate(28.333 5)" fill="#0f2771"/>
            <rect id="Rectángulo_44827" data-name="Rectángulo 44827" width="3.333" height="3.333" transform="translate(35 5)" fill="#0f2771"/>
            <g id="Grupo_146688" data-name="Grupo 146688">
              <g id="Grupo_146687" data-name="Grupo 146687" clip-path="url(#clip-path)">
                <path id="Trazado_202598" data-name="Trazado 202598" d="M316.738,43.717l-2.78-.695c-.118-.333-.25-.645-.4-.958l1.473-2.455a1.667,1.667,0,0,0-.25-2.037l-2.357-2.357a1.667,1.667,0,0,0-2.037-.25l-2.455,1.473c-.313-.147-.632-.278-.958-.4l-.7-2.78A1.667,1.667,0,0,0,304.667,32h-3.333a1.667,1.667,0,0,0-1.617,1.262l-.7,2.78c-.333.118-.645.25-.958.4l-2.455-1.473a1.667,1.667,0,0,0-2.037.25l-2.357,2.357a1.667,1.667,0,0,0-.25,2.037l1.473,2.455c-.147.313-.278.632-.4.958l-2.78.695A1.667,1.667,0,0,0,288,45.333v3.333a1.667,1.667,0,0,0,1.262,1.617l2.78.695c.118.333.25.645.4.958l-1.473,2.455a1.667,1.667,0,0,0,.25,2.037l2.357,2.357a1.667,1.667,0,0,0,2.037.25l2.455-1.473c.313.147.632.278.958.4l.7,2.78A1.667,1.667,0,0,0,301.333,62h3.333a1.667,1.667,0,0,0,1.617-1.262l.7-2.78c.333-.118.645-.25.958-.4l2.455,1.473a1.667,1.667,0,0,0,2.037-.25l2.357-2.357a1.667,1.667,0,0,0,.25-2.037l-1.473-2.455c.147-.313.278-.632.4-.958l2.78-.695A1.667,1.667,0,0,0,318,48.667V45.333a1.667,1.667,0,0,0-1.262-1.617m-2.072,3.648-2.422.607a1.666,1.666,0,0,0-1.2,1.185,8.367,8.367,0,0,1-.833,2,1.666,1.666,0,0,0,.013,1.692l1.282,2.137-.517.517-2.137-1.282a1.666,1.666,0,0,0-1.692-.013,8.368,8.368,0,0,1-2,.833,1.666,1.666,0,0,0-1.185,1.205l-.607,2.422h-.73l-.607-2.422a1.666,1.666,0,0,0-1.185-1.205,8.368,8.368,0,0,1-2-.833,1.666,1.666,0,0,0-1.692.013L295.015,55.5l-.517-.517,1.282-2.137a1.666,1.666,0,0,0,.013-1.692,8.367,8.367,0,0,1-.833-2,1.666,1.666,0,0,0-1.2-1.185l-2.422-.607v-.73l2.422-.607a1.666,1.666,0,0,0,1.2-1.185,8.367,8.367,0,0,1,.833-2,1.666,1.666,0,0,0-.013-1.692L294.5,39.01l.517-.517,2.137,1.282a1.667,1.667,0,0,0,1.692.013,8.367,8.367,0,0,1,2-.833,1.666,1.666,0,0,0,1.185-1.205l.605-2.417h.73l.607,2.422a1.666,1.666,0,0,0,1.185,1.2,8.368,8.368,0,0,1,2,.833,1.667,1.667,0,0,0,1.692-.013l2.142-1.28.517.517-1.282,2.137a1.666,1.666,0,0,0-.013,1.692,8.366,8.366,0,0,1,.833,2,1.666,1.666,0,0,0,1.205,1.185l2.417.605Z" transform="translate(-228 -25.333)" fill="#0f2771"/>
                <path id="Trazado_202599" data-name="Trazado 202599" d="M334.667,72a6.667,6.667,0,1,0,6.667,6.667A6.667,6.667,0,0,0,334.667,72m0,10A3.333,3.333,0,1,1,338,78.667,3.333,3.333,0,0,1,334.667,82" transform="translate(-259.667 -57)" fill="#0f2771"/>
                <path id="Trazado_202600" data-name="Trazado 202600" d="M91.667,0H20a5.015,5.015,0,0,0-5,5V6.667H3.333A3.343,3.343,0,0,0,0,10V73.333a3.343,3.343,0,0,0,3.333,3.333H33.117l-1.25,10H25A3.343,3.343,0,0,0,21.667,90v6.667A3.343,3.343,0,0,0,25,100H68.333a3.343,3.343,0,0,0,3.333-3.333V90a3.343,3.343,0,0,0-3.333-3.333H61.467l-1.25-10H90a3.343,3.343,0,0,0,3.333-3.333v-30.3a5.017,5.017,0,0,0,3.333-4.7V5a5.015,5.015,0,0,0-5-5M18.333,5A1.667,1.667,0,0,1,20,3.333H53.633A5,5,0,0,0,53.333,5v5h-35Zm0,8.333h35v4.05L45.817,21.9a1.667,1.667,0,0,0,0,2.867l7.517,4.517v9.05a5.015,5.015,0,0,0,5,5H75V60H18.333Zm50,83.333H25V90H68.333Zm-33.117-10,1.25-10h20.4l1.25,10ZM90,73.333H3.333V10H15v3.333H10a3.343,3.343,0,0,0-3.333,3.333V60A3.343,3.343,0,0,0,10,63.333H83.333A3.343,3.343,0,0,0,86.667,60V43.333H90ZM15,60H10V16.667h5ZM78.333,43.333h5V60h-5Zm15-5A1.667,1.667,0,0,1,91.667,40H58.333a1.667,1.667,0,0,1-1.667-1.667v-10A1.65,1.65,0,0,0,55.85,26.9L49.9,23.333l5.95-3.567a1.65,1.65,0,0,0,.817-1.433V5a1.667,1.667,0,0,1,1.667-1.667H91.667A1.667,1.667,0,0,1,93.333,5Z" fill="#0f2771"/>
                <rect id="Rectángulo_44828" data-name="Rectángulo 44828" width="16.667" height="3.333" transform="translate(25 20)" fill="#0f2771"/>
                <rect id="Rectángulo_44829" data-name="Rectángulo 44829" width="16.667" height="3.333" transform="translate(25 26.667)" fill="#0f2771"/>
                <rect id="Rectángulo_44830" data-name="Rectángulo 44830" width="23.333" height="3.333" transform="translate(25 33.333)" fill="#0f2771"/>
                <rect id="Rectángulo_44831" data-name="Rectángulo 44831" width="16.667" height="3.333" transform="translate(25 40)" fill="#0f2771"/>
                <rect id="Rectángulo_44832" data-name="Rectángulo 44832" width="30" height="3.333" transform="translate(38.333 46.667)" fill="#0f2771"/>
                <rect id="Rectángulo_44833" data-name="Rectángulo 44833" width="10" height="3.333" transform="translate(25 46.667)" fill="#0f2771"/>
                <rect id="Rectángulo_44834" data-name="Rectángulo 44834" width="43.333" height="3.333" transform="translate(25 53.333)" fill="#0f2771"/>
                <rect id="Rectángulo_44835" data-name="Rectángulo 44835" width="6.667" height="3.333" transform="translate(45 40)" fill="#0f2771"/>
              </g>
            </g>
          </g>
        </g>
      </g>
    </g>
  </g>
</svg>
