<svg xmlns="http://www.w3.org/2000/svg" xmlns:xlink="http://www.w3.org/1999/xlink" width="531" height="322" viewBox="0 0 531 322">
  <defs>
    <linearGradient id="linear-gradient" y1="0.5" x2="1" y2="0.5" gradientUnits="objectBoundingBox">
      <stop offset="0" stop-color="#fff"/>
      <stop offset="1" stop-color="#ebeff2"/>
    </linearGradient>
    <clipPath id="clip-path">
      <path id="Trazado_192269" data-name="Trazado 192269" d="M461.387,178.37,344.93,180.053V59.54l116.457,3.31Z" transform="translate(-344.93 -59.54)" fill="none"/>
    </clipPath>
    <linearGradient id="linear-gradient-2" y1="0.5" x2="1" y2="0.5" gradientUnits="objectBoundingBox">
      <stop offset="0" stop-color="#ffaa96"/>
      <stop offset="0.43" stop-color="#f9ab99"/>
      <stop offset="0.55" stop-color="#fba28f"/>
      <stop offset="0.78" stop-color="#fe9983"/>
      <stop offset="1" stop-color="#ff967f"/>
    </linearGradient>
    <linearGradient id="linear-gradient-3" x1="0" y1="0.5" x2="1" y2="0.5" xlink:href="#linear-gradient-2"/>
    <linearGradient id="linear-gradient-4" x1="0.46" y1="1.712" x2="0.575" y2="-1.836" xlink:href="#linear-gradient-2"/>
    <linearGradient id="linear-gradient-5" x1="0.448" y1="1.803" x2="0.607" y2="-1.746" xlink:href="#linear-gradient-2"/>
    <clipPath id="clip-path-2">
      <path id="Trazado_192290" data-name="Trazado 192290" d="M444.365,370.278l-95.315,5.909V275.576l95.315-2.486Z" transform="translate(-349.05 -273.09)" fill="none"/>
    </clipPath>
    <linearGradient id="linear-gradient-7" x1="0.502" y1="1.272" x2="0.497" y2="0.376" gradientUnits="objectBoundingBox">
      <stop offset="0" stop-color="#ab316d"/>
      <stop offset="1" stop-color="#792d3d"/>
    </linearGradient>
    <linearGradient id="linear-gradient-8" x1="0.441" y1="0.85" x2="0.581" y2="-0.359" xlink:href="#linear-gradient-7"/>
    <linearGradient id="linear-gradient-9" x1="0.421" y1="1.322" x2="0.886" y2="-2.775" xlink:href="#linear-gradient-7"/>
    <linearGradient id="linear-gradient-10" x1="0.398" y1="1.534" x2="0.877" y2="-2.554" xlink:href="#linear-gradient-7"/>
    <clipPath id="clip-path-3">
      <path id="Trazado_192317" data-name="Trazado 192317" d="M298.8,281.8l-146.3,6.078V150.03l146.3.8Z" transform="translate(-152.5 -150.03)" fill="none"/>
    </clipPath>
    <linearGradient id="linear-gradient-12" x1="0.863" y1="-13.175" x2="0.544" y2="-1.426" gradientUnits="objectBoundingBox">
      <stop offset="0" stop-color="#ffc444"/>
      <stop offset="1" stop-color="#f36f56"/>
    </linearGradient>
  </defs>
  <g id="Grupo_222364" data-name="Grupo 222364" transform="translate(6608 8596)">
    <g id="Grupo_222363" data-name="Grupo 222363">
      <g id="Grupo_222362" data-name="Grupo 222362">
        <g id="Grupo_222277" data-name="Grupo 222277">
          <rect id="Rectángulo_295903" data-name="Rectángulo 295903" width="531" height="322" transform="translate(-6608 -8596)" fill="none"/>
          <g id="_1e" data-name="1e" transform="translate(-6603.89 -8650.54)">
            <g id="Layer_1" transform="translate(96.89 59.54)">
              <g id="Grupo_141142" data-name="Grupo 141142">
                <g id="Grupo_141116" data-name="Grupo 141116" transform="translate(0 121.394)">
                  <path id="Trazado_192246" data-name="Trazado 192246" d="M427.769,463.162,101.52,460.38v8.226a4.38,4.38,0,0,0,3.352,4.472l92.251,16.205a13.026,13.026,0,0,0,3.31.155l223.793-18.473a4.173,4.173,0,0,0,3.542-4.366v-3.437Z" transform="translate(-98.259 -299.477)" fill="#26264f"/>
                  <g id="Grupo_141115" data-name="Grupo 141115">
                    <path id="Trazado_192247" data-name="Trazado 192247" d="M308.006,382.4l-204.482,15.05a6.2,6.2,0,0,1-6.634-6.395V238.791a6.76,6.76,0,0,1,6.634-6.881H308.006c3.014,0,5.451,2.782,5.451,6.219V375.777c0,3.437-2.437,6.4-5.451,6.62Z" transform="translate(-96.89 -231.91)" fill="#26264f"/>
                    <path id="Trazado_192248" data-name="Trazado 192248" d="M312.636,382.4l-204.482,15.05a6.2,6.2,0,0,1-6.634-6.395V238.791a6.76,6.76,0,0,1,6.634-6.881H312.636c3.014,0,5.451,2.782,5.451,6.219V375.777c0,3.437-2.437,6.4-5.451,6.62Z" transform="translate(-98.259 -231.91)" fill="#bddcf6"/>
                    <path id="Trazado_192249" data-name="Trazado 192249" d="M310,376.41,119.545,389.489a5.08,5.08,0,0,1-5.395-5.247V250.925a5.542,5.542,0,0,1,5.395-5.641L310,244.46c2.486-.014,4.5,2.275,4.5,5.1V370.988C314.5,373.812,312.484,376.241,310,376.41Z" transform="translate(-101.994 -235.622)" fill="#4dd0e1"/>
                    <path id="Trazado_192250" data-name="Trazado 192250" d="M264.392,236.743a2.364,2.364,0,1,1-2.352-2.563A2.473,2.473,0,0,1,264.392,236.743Z" transform="translate(-145.033 -232.581)" fill="#fff"/>
                  </g>
                  <path id="Trazado_192251" data-name="Trazado 192251" d="M320.785,444.4,101.52,460.247l95.6,16.79a13.029,13.029,0,0,0,3.31.155l227.336-18.769-103.5-13.916a16.972,16.972,0,0,0-3.486-.106Z" transform="translate(-98.259 -294.739)" fill="#bddcf6"/>
                  <path id="Trazado_192252" data-name="Trazado 192252" d="M146.95,461.488,329.495,448.1l56.5,7.536L205.016,469.946Z" transform="translate(-111.695 -295.846)" fill="#26264f"/>
                </g>
                <g id="Grupo_141138" data-name="Grupo 141138" transform="translate(16.783)">
                  <g id="Grupo_141123" data-name="Grupo 141123" transform="translate(140.078)">
                    <g id="Grupo_141119" data-name="Grupo 141119" transform="translate(0 6.484)">
                      <path id="Trazado_192253" data-name="Trazado 192253" d="M469.233,80.969v99.568c0,4.592-3.127,8.395-7.057,8.486l-32.727.8L328.494,192.3a8.5,8.5,0,0,1-8.388-7.641c-.035-.338-.486-.669-.486-1.021V77.546a9.636,9.636,0,0,1,1.754-4.81c.021-.042.268-.07.289-.106a7.757,7.757,0,0,1,6.74-3.711l15.318.408,118.443,3.141c3.93.106,7.078,3.909,7.078,8.5Z" transform="translate(-319.62 -68.797)" fill="#fff"/>
                      <path id="Trazado_192254" data-name="Trazado 192254" d="M329.954,190.658a5.6,5.6,0,0,1-5.444-5.895V78.807a5.594,5.594,0,0,1,5.444-5.888l133.725,3.395c2.669.07,4.838,2.662,4.838,5.789V181.77c0,3.127-2.169,5.719-4.838,5.775l-133.725,3.113Z" transform="translate(-321.066 -69.98)" fill="url(#linear-gradient)"/>
                      <path id="Trazado_192255" data-name="Trazado 192255" d="M462.6,72.458,328.877,68.909c-4.416-.12-8.007,3.754-8.007,8.648V83.91L469.7,86.924V80.959c0-4.592-3.176-8.4-7.1-8.5Z" transform="translate(-319.99 -68.794)" fill="#d8dee8"/>
                      <path id="Trazado_192256" data-name="Trazado 192256" d="M338.914,78.964a2.544,2.544,0,0,1-2.6,2.578,2.7,2.7,0,0,1-2.606-2.7,2.545,2.545,0,0,1,2.606-2.578A2.7,2.7,0,0,1,338.914,78.964Z" transform="translate(-323.787 -70.968)" fill="#fff"/>
                      <path id="Trazado_192257" data-name="Trazado 192257" d="M351.839,79.27a2.535,2.535,0,0,1-2.585,2.571,2.683,2.683,0,0,1-2.585-2.69,2.539,2.539,0,0,1,2.585-2.571A2.683,2.683,0,0,1,351.839,79.27Z" transform="translate(-327.62 -71.063)" fill="#fff"/>
                      <path id="Trazado_192258" data-name="Trazado 192258" d="M364.674,79.573a2.528,2.528,0,0,1-2.564,2.564,2.67,2.67,0,0,1-2.571-2.683,2.521,2.521,0,0,1,2.571-2.564A2.669,2.669,0,0,1,364.674,79.573Z" transform="translate(-331.426 -71.155)" fill="#fff"/>
                      <path id="Trazado_192259" data-name="Trazado 192259" d="M465.334,193.815l-131.2,2.733V113.1l131.2,1.789Z" transform="translate(-323.911 -81.864)" fill="#d8dee8"/>
                      <g id="Grupo_141117" data-name="Grupo 141117" transform="translate(10.219 22.588)" opacity="0.5">
                        <path id="Trazado_192260" data-name="Trazado 192260" d="M404.281,102.031,334.13,100.82v4.507l70.151,1.085Z" transform="translate(-334.13 -100.82)" fill="#fff"/>
                        <path id="Trazado_192261" data-name="Trazado 192261" d="M509.68,103.85v4.282l7.571.113v-4.261Z" transform="translate(-386.047 -101.716)" fill="#fff"/>
                      </g>
                      <g id="Grupo_141118" data-name="Grupo 141118" transform="translate(0.824)" opacity="0.5">
                        <path id="Trazado_192262" data-name="Trazado 192262" d="M430.648,189.776l-100.97,2.472a8.529,8.529,0,0,1-8.416-7.641c0-.1-.472-.19-.472-.289V77.447a9.848,9.848,0,0,1,1.725-4.768c.021-.042.275-.07.3-.106a7.782,7.782,0,0,1,6.8-3.824l15.233.4c.007.035.049.077.063.113.282.93.613,1.866.951,2.824a60.687,60.687,0,0,0,5.578,11.67c.148.239.3.479.451.711a49.741,49.741,0,0,0,5.655,7.317,46.35,46.35,0,0,0,4.888,4.535,51.661,51.661,0,0,0,6.043,4.162c14.825,8.8,31.473,9.944,42.516,27.579,9.465,15.113,2.683,23.043,11.839,46.164q1.49,3.771,3.2,7.212c.965,1.965,1.972,3.845,3.021,5.662.521.908,1.056,1.8,1.592,2.662Z" transform="translate(-320.79 -68.747)" fill="#fff"/>
                      </g>
                    </g>
                    <g id="Grupo_141121" data-name="Grupo 141121" transform="translate(17.825)" clip-path="url(#clip-path)">
                      <g id="Grupo_141120" data-name="Grupo 141120" transform="translate(7.672 21.384)">
                        <path id="Trazado_192263" data-name="Trazado 192263" d="M387.583,186.153c-22.783-3.507-27.854-6.1-30.206-10.93-3.423-7.036-.93-18.48,4.916-25.522,5.106-6.155,11.465-7.352,11.275-11.613-.155-3.5-4.507-3.972-7.712-10.592-.937-1.93-2.754-5.69-1.965-10.184,1.155-6.578,7.057-9.958,7.536-10.226,6.141-3.395,9.641.662,14.24-2.387,5.747-3.8,3.141-12.029,8.522-14.289,3.9-1.641,8.881,1.183,10.177,1.923,4.317,2.451,3.859,4.845,7.5,6.381,4.261,1.8,6.289-.9,11.219.282,4.057.972,6.993,3.965,9.381,6.965,5.359,6.733,2.7,10.655,6.648,18.9,5.55,11.578,13.9,10.289,15.374,19.522.775,4.824-1.211,7.014.31,14.4,1.028,4.986,2.317,5.874,2.549,8.8.655,8.43-8.867,15.93-10.648,17.254-11.388,8.458-27.269,6.219-59.116,1.317Z" transform="translate(-355.824 -89.904)" fill="#0f2771"/>
                        <path id="Trazado_192264" data-name="Trazado 192264" d="M364.034,243.919c-3.451-8.655-1.345-22.332-.9-25.213a55.669,55.669,0,0,1,7.282-20.677c10.134-16.923,25.466-16.8,36.967-16.705,5.669.049,11.529-.084,18.67,2.556a48.853,48.853,0,0,1,10.395,5.557c14.17,10.346,25.318,44.206,13.93,57.2-7.282,8.31-14.768-2.028-47.46,3.507-13.226,2.24-27.227,5.9-35.572-1.331a12.293,12.293,0,0,1-3.31-4.909Z" transform="translate(-357.677 -116.936)" fill="#12263f"/>
                        <path id="Trazado_192265" data-name="Trazado 192265" d="M413.1,152.53s2.423,18.135-9.895,21.762a2.01,2.01,0,0,0-.782,3.352l15.184,14.761a2.179,2.179,0,0,0,3.2-.162l13.6-15.839a2,2,0,0,0-.739-3.155c-4.352-1.676-12.177-6.564-10.536-19.79l-10.022-.923Z" transform="translate(-369.426 -108.425)" fill="url(#linear-gradient-2)"/>
                        <path id="Trazado_192266" data-name="Trazado 192266" d="M407.11,131.947c0,.2,3.324,17.952,11.825,17.973,8,.021,11.029-12.937,12.015-18.98l.317-3.085a5.851,5.851,0,0,1-3.493.07,5.578,5.578,0,0,1-3.542-2.8c-.958-2.24.8-3.993-.2-5.958a4.307,4.307,0,0,0-2.655-1.965c.6.923,1.761,2.986,1.1,4.831-.444,1.24-1.676,2.423-4.43,3.12-7.909,2-11.008,2.768-10.93,6.789Z" transform="translate(-370.991 -97.976)" fill="url(#linear-gradient-3)"/>
                        <path id="Trazado_192267" data-name="Trazado 192267" d="M408.023,140.213s-4.4-3.909-4.789-1.542c-.8,4.944,2.972,7.7,5.014,6.233S408.023,140.213,408.023,140.213Z" transform="translate(-369.812 -104.101)" fill="url(#linear-gradient-4)"/>
                        <path id="Trazado_192268" data-name="Trazado 192268" d="M442.388,139.018c-.19-1.169-1.352-.817-2.472-.169a2.26,2.26,0,0,1,.014.535,9.856,9.856,0,0,1-1,3.5q-.074.433-.169.866v.092a3.607,3.607,0,0,1-.451,1.641c2.042.387,4.761-2.2,4.078-6.465Z" transform="translate(-380.218 -104.202)" fill="url(#linear-gradient-5)"/>
                      </g>
                    </g>
                    <g id="Grupo_141122" data-name="Grupo 141122" transform="translate(51.608 105.977)">
                      <path id="Trazado_192270" data-name="Trazado 192270" d="M401.957,215.238a4.684,4.684,0,0,1-4.521,4.754,4.554,4.554,0,0,1-4.535-4.648,4.687,4.687,0,0,1,4.535-4.754A4.555,4.555,0,0,1,401.957,215.238Z" transform="translate(-392.9 -210.188)" fill="#fff"/>
                      <path id="Trazado_192271" data-name="Trazado 192271" d="M431.846,214.913a4.625,4.625,0,0,1-4.451,4.712,4.5,4.5,0,0,1-4.465-4.613A4.623,4.623,0,0,1,427.4,210.3,4.507,4.507,0,0,1,431.846,214.913Z" transform="translate(-401.781 -210.103)" fill="#fff"/>
                      <path id="Trazado_192272" data-name="Trazado 192272" d="M461.279,214.6a4.579,4.579,0,0,1-4.388,4.676,4.458,4.458,0,0,1-4.4-4.578,4.576,4.576,0,0,1,4.4-4.676A4.459,4.459,0,0,1,461.279,214.6Z" transform="translate(-410.523 -210.02)" fill="#fff"/>
                    </g>
                  </g>
                  <g id="Grupo_141129" data-name="Grupo 141129" transform="translate(146.705 150.395)">
                    <path id="Trazado_192273" data-name="Trazado 192273" d="M451.3,290.614v81.9c0,3.782-2.564,7.036-5.817,7.268l-27.008,1.93h-.028l-82.673,5.916a6.237,6.237,0,0,1-1.585-.1c-.1-.014-.183-.042-.282-.063-.183-.049-.366-.106-.542-.169a5.585,5.585,0,0,1-.528-.218,6.861,6.861,0,0,1-.739-.415c-.155-.106-.31-.218-.458-.331a5.528,5.528,0,0,1-.43-.38,6.873,6.873,0,0,1-2.021-4.254,7.852,7.852,0,0,1-.148-.831V294.2c0-.092.014-.176.014-.268a8.225,8.225,0,0,1,1.155-3.437c.014-.035.085-.063.106-.092a6.791,6.791,0,0,1,4.162-3.148c.2-.049.408-.092.613-.12a4.827,4.827,0,0,1,.641-.035l12.444-.331h.007l26.854-.789,70.426-2.021c.077,0,.148-.007.218,0h.261c.084,0,.169.014.254.021,2.894.338,5.092,3.141,5.092,6.634Z" transform="translate(-329.033 -276.303)" fill="#fff"/>
                    <path id="Trazado_192274" data-name="Trazado 192274" d="M336.73,386.248a4.318,4.318,0,0,1-4.43-4.592V295.327a4.86,4.86,0,0,1,4.43-5.035l109.78-3.233c2.211-.063,4.007,1.972,4.007,4.543v81.976c0,2.571-1.8,4.789-4.007,4.944l-109.78,7.733Z" transform="translate(-329.997 -277.221)" fill="url(#linear-gradient)"/>
                    <path id="Trazado_192275" data-name="Trazado 192275" d="M445.635,283.949l-109.78,3.127c-3.592.106-6.514,3.416-6.514,7.4v5.176l122.175-4.127v-4.909c0-3.775-2.634-6.768-5.888-6.669Z" transform="translate(-329.122 -276.301)" fill="#d8dee8"/>
                    <path id="Trazado_192276" data-name="Trazado 192276" d="M344.03,296.224a2.218,2.218,0,0,1-2.12,2.218,2.057,2.057,0,0,1-2.12-2.085,2.218,2.218,0,0,1,2.12-2.218A2.062,2.062,0,0,1,344.03,296.224Z" transform="translate(-332.212 -279.315)" fill="#fff"/>
                    <path id="Trazado_192277" data-name="Trazado 192277" d="M354.561,295.907a2.209,2.209,0,0,1-2.106,2.211,2.048,2.048,0,0,1-2.106-2.078,2.209,2.209,0,0,1,2.106-2.211A2.048,2.048,0,0,1,354.561,295.907Z" transform="translate(-335.335 -279.223)" fill="#fff"/>
                    <path id="Trazado_192278" data-name="Trazado 192278" d="M365.02,295.577a2.2,2.2,0,0,1-2.092,2.2,2.047,2.047,0,0,1-2.1-2.078,2.2,2.2,0,0,1,2.1-2.2A2.041,2.041,0,0,1,365.02,295.577Z" transform="translate(-338.435 -279.126)" fill="#fff"/>
                    <path id="Trazado_192279" data-name="Trazado 192279" d="M447.84,383.191l-107.71,7.36V322.533L447.84,318.3Z" transform="translate(-332.313 -286.46)" fill="#d8dee8"/>
                    <g id="Grupo_141124" data-name="Grupo 141124" transform="translate(7.817 25.121)" opacity="0.5">
                      <path id="Trazado_192280" data-name="Trazado 192280" d="M397.492,311.35l-57.362,2.085v3.676l57.362-2.176Z" transform="translate(-340.13 -309.526)" fill="#fff"/>
                      <path id="Trazado_192281" data-name="Trazado 192281" d="M484.17,308.985V312.5l6.268-.232V308.76Z" transform="translate(-382.728 -308.76)" fill="#fff"/>
                    </g>
                    <g id="Grupo_141125" data-name="Grupo 141125" transform="translate(0 10.339)" opacity="0.5">
                      <path id="Trazado_192282" data-name="Trazado 192282" d="M418.471,382.852l-82.708,5.909a6.235,6.235,0,0,1-1.585-.1c-.1-.014-.183-.042-.282-.063-.183-.049-.366-.106-.542-.169a5.572,5.572,0,0,1-.528-.218,6.88,6.88,0,0,1-.739-.415c-.155-.106-.31-.218-.458-.331a5.518,5.518,0,0,1-.43-.38,6.815,6.815,0,0,1-2.035-4.254c0-.077-.134-.162-.134-.239V295.327c0-.092.014-.176.014-.268a8.339,8.339,0,0,1,1.134-3.437c.014-.035.1-.063.113-.092a6.656,6.656,0,0,1,5.465-3.416l12.339-.345v.084h0a14.268,14.268,0,0,1,.81,2.261,46.7,46.7,0,0,0,4.571,9.275c.12.19.254.38.38.563a37.994,37.994,0,0,0,4.62,5.726,33.741,33.741,0,0,0,4,3.486,38.4,38.4,0,0,0,4.937,3.134h0a64.666,64.666,0,0,0,7.62,3.409c9.937,3.81,20.036,6.24,27.248,17.339,6.881,10.592,3.331,17.121,7.606,31.311.451,1.486.979,3.057,1.62,4.719.169.437.338.88.521,1.331q1.225,3.032,2.634,5.789,1.194,2.356,2.493,4.528.644,1.078,1.31,2.113v.007Z" transform="translate(-329.03 -287.77)" fill="#fff"/>
                    </g>
                    <g id="Grupo_141127" data-name="Grupo 141127" transform="translate(14.099)" clip-path="url(#clip-path-2)">
                      <g id="Grupo_141126" data-name="Grupo 141126" transform="translate(6.35 21.005)">
                        <path id="Trazado_192283" data-name="Trazado 192283" d="M359.21,425.85c-3.324-8.662,1.366-23.515,4.31-30.283,8.55-19.642,24.121-21.086,36.755-22.269,12.3-1.148,24.072-2.24,32.621,11.677,5.557,9.05,10.648,25.882,7.254,35.248-3.578,9.874-13.557,3.113-37.594,4.669-26.931,1.74-39.206,11.733-43.347.951Z" transform="translate(-358.066 -323.546)" fill="#0f2771"/>
                        <path id="Trazado_192284" data-name="Trazado 192284" d="M424.009,374.951c0,2.373-5.55,5.528-12.423,5.895-6.909.373-12.536-2.2-12.536-4.6s5.627-1.613,12.536-1.972c6.874-.352,12.423-1.7,12.423.669Z" transform="translate(-370.187 -323.811)" fill="#12263f"/>
                        <path id="Trazado_192285" data-name="Trazado 192285" d="M408.217,353.076c-1.909.085,2.486,13.8-4.437,16.064a.816.816,0,0,0-.169,1.479c1.866.951,5.345,2.092,11.043,1.789a14.224,14.224,0,0,0,7.768-2.845.8.8,0,0,0-.085-1.352c-2.113-1.028-5.057-4.507-4.176-15.24Z" transform="translate(-371.417 -317.718)" fill="url(#linear-gradient-7)"/>
                        <path id="Trazado_192286" data-name="Trazado 192286" d="M402.09,326.237c.028.176.606,12.881,3.409,19.114.8,1.782,4.775,1.38,7.338,1.035,2.225-.3,5.7.387,6.683-1.261,3.923-6.6,3.261-22.466,3.261-22.466s-2.014-5.211-10.289-4.761c-8.324.458-10.4,8.346-10.4,8.346Z" transform="translate(-371.086 -307.338)" fill="url(#linear-gradient-8)"/>
                        <path id="Trazado_192287" data-name="Trazado 192287" d="M402.694,338.391s-1.747-2.035-3.4-2.254-2.725,4.275-.472,7.064,4.845.282,4.845.282l-.972-5.092Z" transform="translate(-369.739 -312.738)" fill="url(#linear-gradient-9)"/>
                        <path id="Trazado_192288" data-name="Trazado 192288" d="M428.482,337.256s1.725-2.169,3.345-2.514,2.676,4.007.465,6.965a3.134,3.134,0,0,1-4.782.7l.965-5.148Z" transform="translate(-378.603 -312.322)" fill="url(#linear-gradient-10)"/>
                        <path id="Trazado_192289" data-name="Trazado 192289" d="M401.351,328.469c.218.408.472.789.641.74.7-.218-2.021-7.261.493-9.867,1.3-1.345,2.754-.225,8.05-.676s6.662-1.831,8.268-.88c1.458.866,2.761,3.451,1.676,11.3l.9-.254a8.486,8.486,0,0,1,.542-5.2,6.071,6.071,0,0,0,.979-3.113c-.035-.852-.3-.88-.345-1.578-.134-2.049,2.106-2.683,2.211-4.719.085-1.563-1.2-1.873-.965-3.507.2-1.394,1.2-1.69,1.042-2.683-.169-1.077-1.514-1.831-2.458-2.085-.965-.254-1.31.077-1.88-.31-.916-.627-.472-1.817-1.134-2.225-1.176-.732-3.521,2.437-5.043,1.718-.923-.437-.563-1.845-1.38-2.155-1.578-.6-4.366,4.1-5.486,3.528-.535-.275-.021-1.416-.775-2.218a3.043,3.043,0,0,0-3.993.19c-.909.993-.134,2.113-1.1,3.359-.866,1.12-1.859.711-2.838,1.62-1.662,1.549-1.085,4.895-.873,6.092.711,4.113,2.916,4.859,2.423,7.7a6.622,6.622,0,0,0-.211,2.711,5.339,5.339,0,0,0,1.254,2.542Z" transform="translate(-369.763 -302.915)" fill="#feca2e"/>
                      </g>
                    </g>
                    <g id="Grupo_141128" data-name="Grupo 141128" transform="translate(41.087 86.569)">
                      <path id="Trazado_192291" data-name="Trazado 192291" d="M394.786,402.444a4.063,4.063,0,0,1-3.7,4.064,3.519,3.519,0,0,1-3.711-3.627,4.059,4.059,0,0,1,3.711-4.064A3.521,3.521,0,0,1,394.786,402.444Z" transform="translate(-387.37 -396.84)" fill="#fff"/>
                      <path id="Trazado_192292" data-name="Trazado 192292" d="M419.3,401.013a4.02,4.02,0,0,1-3.655,4.035,3.492,3.492,0,0,1-3.669-3.606,4.022,4.022,0,0,1,3.669-4.035A3.488,3.488,0,0,1,419.3,401.013Z" transform="translate(-394.648 -396.423)" fill="#fff"/>
                      <path id="Trazado_192293" data-name="Trazado 192293" d="M443.523,399.6a3.989,3.989,0,0,1-3.613,4.007,3.458,3.458,0,0,1-3.62-3.585,3.98,3.98,0,0,1,3.62-4.007A3.456,3.456,0,0,1,443.523,399.6Z" transform="translate(-401.837 -396.012)" fill="#fff"/>
                    </g>
                  </g>
                  <path id="Trazado_192294" data-name="Trazado 192294" d="M375.042,286.79v38.9c0,5.521-3.972,10.2-8.881,10.458l-29.311,1.514-5.507.282-2.3.12V295.03c0-.092.014-.176.014-.268a8.338,8.338,0,0,1,1.134-3.437c.014-.035.1-.063.113-.092a6.655,6.655,0,0,1,5.465-3.416l12.381-.345a.607.607,0,0,1,.035.085l26.853-.768Z" transform="translate(-182.328 -126.747)" fill="#d8dee8"/>
                  <g id="Grupo_141137" data-name="Grupo 141137" transform="translate(0 63.729)">
                    <path id="Trazado_192295" data-name="Trazado 192295" d="M309.171,161.5c0-4.831-3.057-8.874-7.1-9.831-.141-.035-.3-.063-.451-.092a7.869,7.869,0,0,0-1.359-.12l-84.828-.493-83.7-.493c-.176,0-.352,0-.528.014a9.782,9.782,0,0,0-5.909,2.366c-.028.028-.063.049-.092.077-.232.2-.458.415-.676.641l-.014.014c-.127.134-.254.275-.373.416a11,11,0,0,0-2.62,7.183v7.726h0v121.21a11.1,11.1,0,0,0,.324,2.676,11.236,11.236,0,0,0,.479,1.472,9.554,9.554,0,0,0,9.4,6.092l128.084-6.634h0l40.46-2.092c4.895-.253,8.881-4.93,8.881-10.451V168.668h0V161.5Z" transform="translate(-120.957 -150.16)" fill="#d8dee8"/>
                    <g id="Grupo_141132" data-name="Grupo 141132" transform="translate(0 0.098)">
                      <path id="Trazado_192296" data-name="Trazado 192296" d="M309.286,161.4V281.192c0,5.521-3.972,10.2-8.881,10.458l-41.051,2.12-127.831,6.62a10.063,10.063,0,0,1-10.444-9c-.049-.408-.359-130.324-.359-130.324a11.394,11.394,0,0,1,1.965-5.9c.028-.049.2-.092.232-.141a10.151,10.151,0,0,1,8.536-4.683l19.48.113,149.458.873c4.909.028,8.895,4.528,8.895,10.057Z" transform="translate(-120.72 -150.22)" fill="#fff"/>
                      <path id="Trazado_192297" data-name="Trazado 192297" d="M133.141,298.413a6.744,6.744,0,0,1-6.951-6.979V162.526a7.118,7.118,0,0,1,6.951-7.3L302.016,156c3.338.014,6.05,3.085,6.05,6.845V282.772c0,3.761-2.711,6.951-6.05,7.12l-168.875,8.522Z" transform="translate(-122.338 -151.666)" fill="url(#linear-gradient)"/>
                      <path id="Trazado_192298" data-name="Trazado 192298" d="M300.641,151.346l-168.875-.986a10.448,10.448,0,0,0-10.226,10.719v7.733l187.967-.232V161.4c0-5.521-3.965-10.029-8.874-10.057Z" transform="translate(-120.963 -150.226)" fill="#d8dee8"/>
                      <path id="Trazado_192299" data-name="Trazado 192299" d="M144.571,162.378a3.322,3.322,0,1,1-3.317-3.218A3.264,3.264,0,0,1,144.571,162.378Z" transform="translate(-125.81 -152.829)" fill="#fff"/>
                      <path id="Trazado_192300" data-name="Trazado 192300" d="M161.045,162.424a3.294,3.294,0,1,1-3.289-3.2A3.241,3.241,0,0,1,161.045,162.424Z" transform="translate(-130.698 -152.846)" fill="#fff"/>
                      <path id="Trazado_192301" data-name="Trazado 192301" d="M177.368,162.46a3.265,3.265,0,1,1-3.261-3.19A3.218,3.218,0,0,1,177.368,162.46Z" transform="translate(-135.542 -152.861)" fill="#fff"/>
                      <path id="Trazado_192302" data-name="Trazado 192302" d="M304.169,297l-165.7,7.9V203.427l165.7-1.437Z" transform="translate(-125.969 -165.495)" fill="#d8dee8"/>
                      <g id="Grupo_141130" data-name="Grupo 141130" transform="translate(12.501 26.656)" opacity="0.5">
                        <path id="Trazado_192303" data-name="Trazado 192303" d="M227.482,188.53l-89.012.408v5.479l89.012-.6Z" transform="translate(-138.47 -188.171)" fill="#fff"/>
                        <path id="Trazado_192304" data-name="Trazado 192304" d="M360.29,188.062v5.155l9.479-.063V188.02Z" transform="translate(-204.071 -188.02)" fill="#fff"/>
                      </g>
                      <g id="Grupo_141131" data-name="Grupo 141131" opacity="0.5">
                        <path id="Trazado_192305" data-name="Trazado 192305" d="M259.354,293.727l-127.831,6.62a10.09,10.09,0,0,1-10.472-9c0-.12-.331-130.38-.331-130.38a11.468,11.468,0,0,1,1.937-5.838c.028-.049.218-.092.246-.141a10.143,10.143,0,0,1,8.606-4.817l19.381.113c.014.042.049.092.063.134.359,1.12.768,2.254,1.2,3.409a71.393,71.393,0,0,0,7.092,14.029c.19.289.38.57.578.852a59.408,59.408,0,0,0,7.183,8.733,56.489,56.489,0,0,0,6.212,5.366,64.3,64.3,0,0,0,7.662,4.888c18.783,10.24,39.819,11.163,53.749,32.164,11.916,17.966,3.38,27.762,14.909,55.39q1.88,4.5,4.021,8.6,1.817,3.5,3.8,6.726.982,1.616,2,3.155Z" transform="translate(-120.72 -150.17)" fill="#fff"/>
                      </g>
                    </g>
                    <g id="Grupo_141133" data-name="Grupo 141133" transform="translate(64.236 112.804)">
                      <path id="Trazado_192306" data-name="Trazado 192306" d="M225.17,319.633a7.078,7.078,0,0,1-6.6,7.12,6.424,6.424,0,0,1-6.641-6.585,7.075,7.075,0,0,1,6.641-7.12,6.422,6.422,0,0,1,6.6,6.585Z" transform="translate(-211.93 -311.044)" fill="#fff"/>
                      <path id="Trazado_192307" data-name="Trazado 192307" d="M262.961,318.133a6.973,6.973,0,0,1-6.458,7.043,6.315,6.315,0,0,1-6.493-6.514,6.963,6.963,0,0,1,6.493-7.043,6.321,6.321,0,0,1,6.458,6.521Z" transform="translate(-223.192 -310.621)" fill="#fff"/>
                      <path id="Trazado_192308" data-name="Trazado 192308" d="M299.92,316.666a6.856,6.856,0,0,1-6.317,6.958,6.213,6.213,0,0,1-6.352-6.451,6.853,6.853,0,0,1,6.352-6.965,6.218,6.218,0,0,1,6.317,6.451Z" transform="translate(-234.205 -310.204)" fill="#fff"/>
                    </g>
                    <g id="Grupo_141135" data-name="Grupo 141135" transform="translate(22.381)" clip-path="url(#clip-path-3)">
                      <g id="Grupo_141134" data-name="Grupo 141134" transform="translate(5.725 0.555)">
                        <path id="Trazado_192309" data-name="Trazado 192309" d="M231.9,325.235c-44.854,2.352-60.912,9.029-68.243-.458-6.782-8.768-1.162-41.474,6.895-50.805C183.2,259.324,203.28,258.2,230.3,256.887c24.959-1.211,40.122-1.951,51.982,8.479,10.993,9.677,17.973,43.7,11.17,53.524C287.108,328.045,273.452,323.059,231.9,325.235Z" transform="translate(-160.629 -181.987)" fill="#feca2e"/>
                        <path id="Trazado_192310" data-name="Trazado 192310" d="M235.664,256.508l-5.24,1.444a1.965,1.965,0,0,0-1.155,2.951c3.571,5.458,12.994,19.1,18.86,20.557,6.043,1.5,17.254-16.268,20.966-22.48a1.889,1.889,0,0,0-1.042-2.8l-3.754-1.127a24.586,24.586,0,0,0-9.564-.9l-14.177,1.437a29.728,29.728,0,0,0-4.888.916Z" transform="translate(-180.837 -181.341)" fill="#12263f"/>
                        <path id="Trazado_192311" data-name="Trazado 192311" d="M243.519,228.614s2.866,20.529-1.1,22.579l11.247,11.987,11.3-14.726s-4.261-3.141-3.141-20.093l-18.318.254Z" transform="translate(-184.818 -173.75)" fill="#e8e8e8"/>
                        <path id="Trazado_192312" data-name="Trazado 192312" d="M234.078,183.931c-.408.556-5.74,26.628,12.627,29.1,18.135,2.444,18.93-16.571,18.7-24.635s-8.493-10.979-13.247-11.543S235.529,181.967,234.078,183.931Z" transform="translate(-182.047 -158.506)" fill="#e8e8e8"/>
                        <path id="Trazado_192313" data-name="Trazado 192313" d="M230.856,207.459s-.923-4.247-4.085-1.57,1.866,9.677,6.007,9.339l-1.923-7.775Z" transform="translate(-179.895 -166.843)" fill="#e8e8e8"/>
                        <path id="Trazado_192314" data-name="Trazado 192314" d="M277.357,203.507c-.521.359-2.007,10.247-2.007,10.247s2.606.282,4.486-3.282S282.618,199.887,277.357,203.507Z" transform="translate(-194.557 -166.102)" fill="#e8e8e8"/>
                        <path id="Trazado_192315" data-name="Trazado 192315" d="M266.461,169.363c-1.887-3.162-6.676-1.662-8.078-4.719-1.176-2.571,1.592-4.986.106-7.2-1.24-1.859-4.282-1.824-4.824-1.824-4.12.049-5.064,3.324-8.007,3.24-3.606-.1-3.747-5.043-8.529-7.141-4.655-2.049-11.486-.437-14.261,3.359-2.155,2.958-.324,5.134-3.155,8.937-1.951,2.62-3.676,2.733-4.648,5.3a9.915,9.915,0,0,0,.19,6.416c1.155,4.085,3.31,5.874,6.557,10.2A69.659,69.659,0,0,1,227.3,194.5a96.266,96.266,0,0,1,3.218,10.226c1.028,4.035.972,4.859,1.93,6.155,3.317,4.465,10.846,3.9,14.008,3.662,3.613-.268,8.1-.606,10.353-3.782,1.218-1.711,1.063-3.247,1.345-7.345a103.913,103.913,0,0,1,1.556-12.015,37.9,37.9,0,0,1,1.465-5.1c1.3-3.514,2.655-4.078,4.127-7.7,1.176-2.909,2.7-6.655,1.155-9.226Zm-14.93,27.473c-2.233.627-3.733.1-6.768-.042-6.078-.289-8.007,2.592-10.895,1.366-1.2-.507-3.993-1.951-4.585-4.754a22.4,22.4,0,0,1-.19-7.2c.479-3.528,1.035-7.6,3.866-9.4,4.1-2.62,9.31,1.838,13.043-1.07a6.728,6.728,0,0,0,2.254-4.078,16.277,16.277,0,0,1,9.789,9.67,15.881,15.881,0,0,1-.092,10.282,11.825,11.825,0,0,1-6.437,5.233Z" transform="translate(-176.589 -150.818)" fill="#12263f"/>
                        <path id="Trazado_192316" data-name="Trazado 192316" d="M248.952,222.24a14.98,14.98,0,0,0,9.817-.394c.408-.162.761.282.416.528a9.147,9.147,0,0,1-5.7,1.979,11.758,11.758,0,0,1-4.873-1.535c-.38-.211-.077-.7.345-.57Z" transform="translate(-186.596 -171.813)" fill="url(#linear-gradient-12)"/>
                      </g>
                    </g>
                    <g id="Grupo_141136" data-name="Grupo 141136" transform="translate(65.074 114.052)">
                      <path id="Trazado_192318" data-name="Trazado 192318" d="M224.592,320.055a5.973,5.973,0,0,1-5.726,5.9,5.472,5.472,0,0,1-5.747-5.486,5.968,5.968,0,0,1,5.747-5.9A5.471,5.471,0,0,1,224.592,320.055Z" transform="translate(-213.12 -312.741)" fill="#fff"/>
                      <path id="Trazado_192319" data-name="Trazado 192319" d="M262.371,318.7a5.89,5.89,0,0,1-5.62,5.845,5.4,5.4,0,0,1-5.641-5.437,5.889,5.889,0,0,1,5.641-5.845A5.4,5.4,0,0,1,262.371,318.7Z" transform="translate(-224.355 -312.354)" fill="#fff"/>
                      <path id="Trazado_192320" data-name="Trazado 192320" d="M299.464,317.366a5.815,5.815,0,0,1-5.521,5.8,5.323,5.323,0,0,1-5.542-5.388,5.818,5.818,0,0,1,5.542-5.8A5.327,5.327,0,0,1,299.464,317.366Z" transform="translate(-235.383 -311.975)" fill="#fff"/>
                    </g>
                  </g>
                </g>
                <g id="Grupo_141141" data-name="Grupo 141141" transform="translate(0.303 33.657)">
                  <path id="Trazado_192321" data-name="Trazado 192321" d="M169.408,152.262a24.472,24.472,0,0,0,5.634-15.346c0-16.339-17.4-29.586-38.861-29.586S97.32,120.577,97.32,136.916s17.4,29.586,38.861,29.586a47.639,47.639,0,0,0,21.719-5.05c4.1.7,10.458,1.873,13.818,2.5a1.292,1.292,0,0,0,1.444-1.725l-3.747-9.965Z" transform="translate(-97.32 -107.33)" fill="#0f2771"/>
                  <g id="Grupo_141140" data-name="Grupo 141140" transform="translate(14.402 17.276)">
                    <path id="Trazado_192322" data-name="Trazado 192322" d="M168,133.353a1.494,1.494,0,0,1-1.493,1.493H119.263a1.494,1.494,0,0,1-1.493-1.493h0a1.494,1.494,0,0,1,1.493-1.493H166.5A1.494,1.494,0,0,1,168,133.353Z" transform="translate(-117.77 -131.86)" fill="#fff"/>
                    <g id="Grupo_141139" data-name="Grupo 141139" transform="translate(0 8.958)">
                      <path id="Trazado_192323" data-name="Trazado 192323" d="M168,146.073a1.494,1.494,0,0,1-1.493,1.493H119.263a1.494,1.494,0,0,1-1.493-1.493h0a1.494,1.494,0,0,1,1.493-1.493H166.5A1.494,1.494,0,0,1,168,146.073Z" transform="translate(-117.77 -144.58)" fill="#fff"/>
                      <path id="Trazado_192324" data-name="Trazado 192324" d="M145.624,158.783a1.494,1.494,0,0,1-1.493,1.493H119.263a1.494,1.494,0,0,1-1.493-1.493h0a1.494,1.494,0,0,1,1.493-1.493h24.867a1.494,1.494,0,0,1,1.493,1.493Z" transform="translate(-117.77 -148.339)" fill="#fff"/>
                    </g>
                  </g>
                </g>
              </g>
            </g>
          </g>
        </g>
      </g>
    </g>
  </g>
</svg>
