<svg xmlns="http://www.w3.org/2000/svg" width="420" height="320" viewBox="0 0 420 320">
  <g id="Grupo_222388" data-name="Grupo 222388" transform="translate(-895 -7710)">
    <g id="Grupo_222387" data-name="Grupo 222387">
      <g id="Grupo_222386" data-name="Grupo 222386">
        <g id="Grupo_222298" data-name="Grupo 222298">
          <rect id="Rectángulo_295921" data-name="Rectángulo 295921" width="420" height="320" transform="translate(895 7710)" fill="none"/>
          <g id="_11" data-name="11" transform="translate(995 7710)">
            <path id="hand" d="M127.858,354.595s1,18.477-3.5,30.99S100.312,448.3,97.93,460.377s3.336,28.507,0,32.206-18.589,26.665-18.589,26.665l66.025,53.4s10.76-12.968,16.458-15.354,66.133-31.692,81-45.764S265.711,389.04,265.711,389.04s12.393-2.4,17.157-10.613,5.482-16.076,2.382-19.415S127.858,354.595,127.858,354.595Z" transform="translate(-71.399 -264.898)" fill="#f9c0b9"/>
            <g id="telephone" transform="translate(66.436)">
              <rect id="Rectángulo_295665" data-name="Rectángulo 295665" width="130.273" height="251.205" rx="2.116" fill="#969aa8"/>
              <rect id="Rectángulo_295666" data-name="Rectángulo 295666" width="115.209" height="222.157" rx="1.872" transform="translate(7.532 11.888)" fill="#fff"/>
              <path id="Trazado_225050" data-name="Trazado 225050" d="M130.466,342.574A10.972,10.972,0,1,1,119.494,331.6,10.972,10.972,0,0,1,130.466,342.574Z" transform="translate(-54.358 -330.685)" fill="#969aa8"/>
              <path id="Trazado_225051" data-name="Trazado 225051" d="M116.936,336.815a3.2,3.2,0,1,1-3.2-3.2A3.2,3.2,0,0,1,116.936,336.815Z" transform="translate(-48.6 -324.926)" fill="#121e30"/>
              <g id="Grupo_221909" data-name="Grupo 221909" transform="translate(15.685 138.379)">
                <circle id="Elipse_16245" data-name="Elipse 16245" cx="40.502" cy="40.502" r="40.502" transform="matrix(0.232, -0.973, 0.973, 0.232, 0, 78.787)" fill="#121e30"/>
                <path id="Trazado_225052" data-name="Trazado 225052" d="M142.4,453.16a42.11,42.11,0,1,1,42.112-42.112A42.158,42.158,0,0,1,142.4,453.16Zm0-81a38.89,38.89,0,1,0,38.892,38.888A38.935,38.935,0,0,0,142.4,372.159Z" transform="translate(-93.594 -362.244)" fill="#fff"/>
              </g>
            </g>
            <g id="Grupo_221911" data-name="Grupo 221911" transform="translate(152.376 108.653)">
              <g id="Grupo_221910" data-name="Grupo 221910">
                <rect id="Rectángulo_295667" data-name="Rectángulo 295667" width="27.645" height="27.645" fill="#d7d9dd"/>
              </g>
              <path id="Trazado_225053" data-name="Trazado 225053" d="M133.628,368.743a7.636,7.636,0,1,1-7.636-7.636A7.636,7.636,0,0,1,133.628,368.743Z" transform="translate(-112.169 -354.922)" fill="#fff"/>
            </g>
            <g id="Grupo_221915" data-name="Grupo 221915" transform="translate(116.257 108.653)">
              <g id="Grupo_221914" data-name="Grupo 221914">
                <g id="Grupo_221913" data-name="Grupo 221913">
                  <g id="Grupo_221912" data-name="Grupo 221912">
                    <rect id="Rectángulo_295668" data-name="Rectángulo 295668" width="30.63" height="27.645" fill="#feca2e"/>
                  </g>
                </g>
              </g>
              <path id="Trazado_225054" data-name="Trazado 225054" d="M129.745,370.2a6.479,6.479,0,0,1-2.571,2.953l-.456.263-7.293,4.173-7.3-4.173-.463-.263a6.517,6.517,0,0,1,.822-11.543,6.5,6.5,0,0,1,6.934,1.112,6.53,6.53,0,0,1,10.331,7.478Z" transform="translate(-104.103 -355.023)" fill="#fff"/>
            </g>
            <g id="Grupo_221917" data-name="Grupo 221917" transform="translate(82.975 108.653)">
              <g id="Grupo_221916" data-name="Grupo 221916">
                <rect id="Rectángulo_295669" data-name="Rectángulo 295669" width="27.645" height="27.645" fill="#bddcf6"/>
              </g>
              <path id="Trazado_225055" data-name="Trazado 225055" d="M114.832,371.238a7.165,7.165,0,1,1-13.041-4.1l.348-.467,5.528-5.864,5.525,5.864.351.467A7.123,7.123,0,0,1,114.832,371.238Z" transform="translate(-93.843 -355.783)" fill="#fff"/>
            </g>
            <g id="window" transform="translate(41.541 28.791)">
              <rect id="Rectángulo_295670" data-name="Rectángulo 295670" width="178.868" height="70.567" rx="2.415" fill="#fff"/>
              <g id="Grupo_221918" data-name="Grupo 221918" transform="translate(15.872 14.269)">
                <path id="Trazado_225056" data-name="Trazado 225056" d="M130.91,354.34v14.9H118.982v12.029H104.1V369.24H92.155v-14.9H104.1V342.515h14.887V354.34Z" transform="translate(-92.155 -342.515)" fill="#bddcf6"/>
              </g>
              <g id="Grupo_221919" data-name="Grupo 221919" transform="translate(68.084 25.318)">
                <rect id="Rectángulo_295671" data-name="Rectángulo 295671" width="45.958" height="2.415" fill="#969aa8"/>
              </g>
              <g id="Grupo_221920" data-name="Grupo 221920" transform="translate(68.084 46.205)">
                <rect id="Rectángulo_295672" data-name="Rectángulo 295672" width="45.958" height="2.415" fill="#969aa8"/>
              </g>
              <g id="Grupo_221921" data-name="Grupo 221921" transform="translate(68.084 35.753)">
                <rect id="Rectángulo_295673" data-name="Rectángulo 295673" width="45.958" height="2.415" fill="#969aa8"/>
              </g>
              <g id="Grupo_221922" data-name="Grupo 221922" transform="translate(60.061 56.578)">
                <rect id="Rectángulo_295674" data-name="Rectángulo 295674" width="62.441" height="2.415" fill="#969aa8"/>
              </g>
              <rect id="Rectángulo_295675" data-name="Rectángulo 295675" width="62.917" height="7.376" transform="translate(59.504 10.984)" fill="#969aa8"/>
              <g id="Grupo_221925" data-name="Grupo 221925" transform="translate(129.826 11.42)">
                <g id="Grupo_221924" data-name="Grupo 221924">
                  <g id="Grupo_221923" data-name="Grupo 221923">
                    <path id="Trazado_225057" data-name="Trazado 225057" d="M132.8,376.106h13.949v-8.084s10.54-3.212,10.54-12.4c0-7.582-4.158-13.84-17.346-13.84-13.076,0-18.273,5.139-18.273,12v7.154h12.169s-.405-6.112,3.552-6.139c4.768-.031,5.718,1.784,5.054,4.853-.591,2.726-9.64,6.667-9.64,6.667Z" transform="translate(-121.672 -341.777)" fill="#0f2771"/>
                  </g>
                </g>
              </g>
              <g id="Grupo_221928" data-name="Grupo 221928" transform="translate(140.88 51.442)">
                <g id="Grupo_221927" data-name="Grupo 221927">
                  <g id="Grupo_221926" data-name="Grupo 221926">
                    <rect id="Rectángulo_295676" data-name="Rectángulo 295676" width="13.954" height="7.706" fill="#0f2771"/>
                  </g>
                </g>
              </g>
            </g>
            <g id="fingers" transform="translate(191.333 125.304)">
              <path id="Trazado_225058" data-name="Trazado 225058" d="M141.462,363.884c-4.05-.479-12.358,1.51-13.705,10.327s-1.15,14.782,2.664,17l1.8,1.1s-.834,1.367-3.9,7.084S126.927,416,133.6,419.736s16.45-.726,19.188-4.695,3.131-15.412,1.309-18.269c-1.463-2.289-4.9-3.814-4.9-3.814s5.5-3.1,6.15-8.578.533-13.3-4.119-17A16.1,16.1,0,0,0,141.462,363.884Z" transform="translate(-126.843 -363.818)" fill="#f9c0b9"/>
              <path id="Trazado_225059" data-name="Trazado 225059" d="M136.383,379.521c-2.861.27-6.841,2.448-7.949,5.308s-1.266,14.879,1.911,18.35a9.852,9.852,0,0,0,11.416,2.382c3.44-1.668,8.853-7.864,7.934-14.775S142.089,378.981,136.383,379.521Z" transform="translate(-124.358 -319.012)" fill="#f9c0b9"/>
            </g>
            <path id="bracelet" d="M141.483,473.457,79.774,407.825a9.323,9.323,0,0,1,.49-13.177l-.382.351a9.323,9.323,0,0,1,13.176.49l61.705,65.631a9.323,9.323,0,0,1-.486,13.176l.382-.355A9.323,9.323,0,0,1,141.483,473.457Z" transform="translate(-77.284 -156.436)" fill="#0f2771"/>
            <g id="human" transform="translate(107.007 143.443)">
              <path id="Trazado_225060" data-name="Trazado 225060" d="M152.254,393.5a72.226,72.226,0,0,1-4.444,13.536c-1.216,2.7,1.143,12.848-2.081,16.759-3.069,3.648-27.195,2.78-29.318,2.293-4.741-1.085-5.22-3.351-5.656-8.323-.44-5.03-.595-16.651-1.282-20.354a12.176,12.176,0,0,1,.687-6.555c0-.054-7.138-3.757-4.548-10.524,2.065-5.393,10.791-6.555,10.791-6.555s.525-4.865,9.146-5.235c16.763-.687,16.709,12.636,16.709,12.636s7.721-1.637,9.941,4.39C152.942,387.629,152.783,390.54,152.254,393.5Z" transform="translate(-104.869 -368.516)" fill="#773128"/>
              <path id="Trazado_225061" data-name="Trazado 225061" d="M149.9,402.759a5.439,5.439,0,0,1-5.154,5.675,37.523,37.523,0,0,1-.934,5.973,11.916,11.916,0,0,1-2.313,4.779c-.822.857-4.444,2.988-6.536,3.023v15.346H122.231l.521-15.045a2.1,2.1,0,0,1-.6-.112,15.285,15.285,0,0,1-10.6-12.362c-.077-.483.035.189-.224-1.49-.336.035-.71.073-1.011.073a5.681,5.681,0,0,1,0-11.312,7.6,7.6,0,0,1,.934.112c.112-4.409.077-11.239.077-13.37v-.633s4.517-5.413,5.077-5.748c.521-.34,15.531-6.088,15.531-6.088l12.806,10.158v15.381A5.429,5.429,0,0,1,149.9,402.759Z" transform="translate(-104.526 -359.752)" fill="#f9c0b9"/>
              <path id="Trazado_225062" data-name="Trazado 225062" d="M131.488,381.684l-.348,2.166-.4,1.764a11.661,11.661,0,0,1-2.278,4.668c-.822.857-4.154,3.451-6.536,3.768v14.6h-2.9l-.062-11.462-9.246-3.583a43.393,43.393,0,0,0,8.91-.193c5.193-.649,7.988-2.189,9.872-4.8A24.717,24.717,0,0,0,131.488,381.684Z" transform="translate(-91.496 -330.848)" fill="#d87360"/>
              <path id="Trazado_225063" data-name="Trazado 225063" d="M106.522,394.088l14.2-6.949a7.385,7.385,0,0,0,5.6,3.973c4.019.479,6.926-3.973,6.926-3.973l16.323,7.1-15.933,5.741-27.874-4.421Z" transform="translate(-102.816 -315.243)" fill="#fff"/>
              <path id="Trazado_225064" data-name="Trazado 225064" d="M140.177,381.737v11.9c-1.008-.409-2.405-6.857-3.135-8.393a14.024,14.024,0,0,0-4.482-5s-8.961,6.386-15.458,6.532a39.445,39.445,0,0,0-10.335,1.583c0-.413,0-4.942,0-4.942s4.517-5.413,5.077-5.748c.521-.34,15.531-6.088,15.531-6.088Z" transform="translate(-99.961 -359.752)" fill="#d87360"/>
              <path id="Trazado_225065" data-name="Trazado 225065" d="M152.387,393.5a4.255,4.255,0,0,1-1.641,1.8c-2.749.9-5.868-.737-8.775-3.119-2.961-2.378-3.544-4.335-3.544-4.335s-9.065,5.745-16.728,5.637a54.038,54.038,0,0,1-10.93-1.645c-2.838-1.1-7.613-4.733-5.023-11.5,2.065-5.393,10.791-6.555,10.791-6.555s.525-4.865,9.146-5.235c16.763-.687,16.709,12.636,16.709,12.636s7.721-1.637,9.941,4.39C153.074,387.629,152.916,390.54,152.387,393.5Z" transform="translate(-105.001 -368.516)" fill="#a54d3c"/>
              <path id="Trazado_225066" data-name="Trazado 225066" d="M113.9,391.163c-1.733-.208-4.482-1.162-4.285-3.463a4.01,4.01,0,0,1,1.471-2.575,4.144,4.144,0,0,0,1.436-2.37,12.086,12.086,0,0,0-.263-4.783.662.662,0,0,1,1.27-.371,13.3,13.3,0,0,1,.293,5.382,5.374,5.374,0,0,1-1.807,3.077,2.8,2.8,0,0,0-1.085,1.753c-.135,1.6,3.019,2.031,3.05,2.035a.661.661,0,0,1-.081,1.316Z" transform="translate(-91.832 -343.89)" fill="#d87360"/>
              <path id="Trazado_225067" data-name="Trazado 225067" d="M111.443,385.206a.66.66,0,1,1,0-1.32,7.479,7.479,0,0,0,2.486-.625,5.958,5.958,0,0,0,2.143-1.838.66.66,0,0,1,1.131.679,7.089,7.089,0,0,1-2.648,2.324A8.539,8.539,0,0,1,111.443,385.206Z" transform="translate(-88.461 -332.506)" fill="#d87360"/>
              <path id="Trazado_225068" data-name="Trazado 225068" d="M115.781,382.722a.662.662,0,0,1-.66-.66,2.929,2.929,0,0,1,2.772-2.884.662.662,0,0,1,.147,1.316,1.62,1.62,0,0,0-1.6,1.567A.66.66,0,0,1,115.781,382.722Z" transform="translate(-76.051 -338.036)" fill="#d87360"/>
              <path id="Trazado_225069" data-name="Trazado 225069" d="M108.4,382.325a.663.663,0,0,1-.633-.483,2.206,2.206,0,0,0-1.34-1.255.662.662,0,1,1,.494-1.228,3.478,3.478,0,0,1,2.12,2.135.66.66,0,0,1-.467.807A.674.674,0,0,1,108.4,382.325Z" transform="translate(-102.113 -337.639)" fill="#d87360"/>
              <path id="Trazado_225070" data-name="Trazado 225070" d="M112.77,376.29c-.965.328-1.193,1.992-1.193,1.992a14.648,14.648,0,0,1,3.753-.2,30.094,30.094,0,0,1,3.953,1.664s-1.552-2.976-2.621-3.258A8.492,8.492,0,0,0,112.77,376.29Z" transform="translate(-86.19 -346.73)" fill="#773128"/>
              <path id="Trazado_225071" data-name="Trazado 225071" d="M107.873,379.4a11.045,11.045,0,0,1,2.7-1.108,27.4,27.4,0,0,1,4.529-.15s-.367-1.483-1.27-1.761a6.094,6.094,0,0,0-3.455.386C109.081,377.173,107.873,379.4,107.873,379.4Z" transform="translate(-96.785 -346.382)" fill="#773128"/>
              <path id="Trazado_225072" data-name="Trazado 225072" d="M114.653,380.207c0,1.15-.506,2.081-1.127,2.081s-1.123-.931-1.123-2.081.5-2.081,1.123-2.081S114.653,379.056,114.653,380.207Z" transform="translate(-83.829 -341.026)" fill="#773128"/>
              <path id="Trazado_225073" data-name="Trazado 225073" d="M110.85,380.207c0,1.15-.506,2.081-1.127,2.081s-1.123-.931-1.123-2.081.5-2.081,1.123-2.081S110.85,379.056,110.85,380.207Z" transform="translate(-94.709 -341.026)" fill="#773128"/>
            </g>
          </g>
        </g>
      </g>
    </g>
  </g>
</svg>
