<svg xmlns="http://www.w3.org/2000/svg" width="400" height="319.167" viewBox="0 0 400 319.167">
  <g id="Grupo_222376" data-name="Grupo 222376" transform="translate(-180 -10880)">
    <g id="Grupo_222375" data-name="Grupo 222375">
      <g id="Grupo_208012" data-name="Grupo 208012" transform="translate(180 10880)">
        <g id="Grupo_147733" data-name="Grupo 147733" transform="translate(13.432 6.025)">
          <g id="Grupo_147724" data-name="Grupo 147724" transform="translate(0 152.767)">
            <rect id="Rectángulo_45508" data-name="Rectángulo 45508" width="18.034" height="123.832" transform="translate(190.702)" fill="#e6e6e6"/>
            <path id="Trazado_204679" data-name="Trazado 204679" d="M221.131,381.63h6.348V358.1h-13Z" transform="translate(-18.742 -257.799)" fill="#f0f0f0"/>
            <rect id="Rectángulo_45509" data-name="Rectángulo 45509" width="18.034" height="123.832" fill="#e6e6e6"/>
            <rect id="Rectángulo_45510" data-name="Rectángulo 45510" width="196.243" height="117.408" transform="translate(12.494 0)" fill="#f0f0f0"/>
            <path id="Trazado_204680" data-name="Trazado 204680" d="M410.038,381.63H403.69V358.1h13Z" transform="translate(-391.196 -257.799)" fill="#f0f0f0"/>
            <g id="Grupo_147721" data-name="Grupo 147721" transform="translate(19.02 8.17)">
              <rect id="Rectángulo_45511" data-name="Rectángulo 45511" width="97.123" height="58.173" transform="translate(0 98.675) rotate(-90)" fill="#e6e6e6"/>
              <path id="Trazado_204681" data-name="Trazado 204681" d="M385.483,267.932H373.974a19.544,19.544,0,0,1-13.217-4.968H398.7A19.541,19.541,0,0,1,385.483,267.932Z" transform="translate(-350.643 -262.964)" fill="#f0f0f0"/>
            </g>
            <g id="Grupo_147722" data-name="Grupo 147722" transform="translate(81.529 8.17)">
              <rect id="Rectángulo_45512" data-name="Rectángulo 45512" width="97.123" height="58.173" transform="translate(0 98.675) rotate(-90)" fill="#e6e6e6"/>
              <path id="Trazado_204682" data-name="Trazado 204682" d="M320.327,267.932h-11.51a19.541,19.541,0,0,1-13.216-4.968h37.941A19.541,19.541,0,0,1,320.327,267.932Z" transform="translate(-284.899 -262.964)" fill="#f0f0f0"/>
            </g>
            <g id="Grupo_147723" data-name="Grupo 147723" transform="translate(144.039 8.17)">
              <rect id="Rectángulo_45513" data-name="Rectángulo 45513" width="97.123" height="58.173" transform="translate(0 98.675) rotate(-90)" fill="#e6e6e6"/>
              <path id="Trazado_204683" data-name="Trazado 204683" d="M255.778,267.932H244.269a19.545,19.545,0,0,1-13.217-4.968h37.942A19.546,19.546,0,0,1,255.778,267.932Z" transform="translate(-220.35 -262.964)" fill="#f0f0f0"/>
            </g>
          </g>
          <g id="Grupo_147726" data-name="Grupo 147726" transform="translate(263.521)">
            <g id="Grupo_147725" data-name="Grupo 147725" transform="translate(0)">
              <rect id="Rectángulo_45514" data-name="Rectángulo 45514" width="123.047" height="276.599" fill="#f0f0f0"/>
              <rect id="Rectángulo_45515" data-name="Rectángulo 45515" width="120.45" height="276.599" transform="translate(2.597)" fill="#f5f5f5"/>
              <rect id="Rectángulo_45516" data-name="Rectángulo 45516" width="264.046" height="105.769" transform="translate(115.706 6.277) rotate(90)" fill="#f0f0f0"/>
              <path id="Trazado_204684" data-name="Trazado 204684" d="M88.293,153.026h0a28.835,28.835,0,0,1,28.835-28.835h27.31a28.835,28.835,0,0,1,28.836,28.835H88.293Z" transform="translate(-67.962 -97.644)" fill="#fafafa"/>
              <rect id="Rectángulo_45517" data-name="Rectángulo 45517" width="63.08" height="84.982" transform="translate(105.313 190.829) rotate(90)" fill="#f5f5f5"/>
              <rect id="Rectángulo_45518" data-name="Rectángulo 45518" width="37.484" height="109.522" transform="translate(20.331 73.169)" fill="#f5f5f5"/>
              <rect id="Rectángulo_45519" data-name="Rectángulo 45519" width="37.484" height="109.522" transform="translate(67.828 73.169)" fill="#f5f5f5"/>
              <path id="Trazado_204685" data-name="Trazado 204685" d="M86.4,228.217h15.353a2.388,2.388,0,0,0,2.381-2.381h0a2.389,2.389,0,0,0-2.381-2.381H86.4a2.389,2.389,0,0,0-2.381,2.381h0A2.388,2.388,0,0,0,86.4,228.217Z" transform="translate(5.318 -100.779)" fill="#e0e0e0"/>
              <rect id="Rectángulo_45520" data-name="Rectángulo 45520" width="264.046" height="1.904" transform="translate(115.706 6.277) rotate(90)" fill="#f0f0f0"/>
            </g>
          </g>
          <g id="Grupo_147729" data-name="Grupo 147729" transform="translate(17.302 0)">
            <g id="Grupo_147728" data-name="Grupo 147728">
              <g id="Grupo_147727" data-name="Grupo 147727">
                <rect id="Rectángulo_45521" data-name="Rectángulo 45521" width="130.489" height="122.409" transform="translate(0 0)" fill="#e6e6e6"/>
                <rect id="Rectángulo_45522" data-name="Rectángulo 45522" width="130.489" height="122.409" transform="translate(3.289 0)" fill="#f5f5f5"/>
                <rect id="Rectángulo_45523" data-name="Rectángulo 45523" width="141.396" height="7.086" transform="translate(0 122.409)" fill="#e6e6e6"/>
                <rect id="Rectángulo_45524" data-name="Rectángulo 45524" width="134.114" height="7.086" transform="translate(10.985 122.409)" fill="#f5f5f5"/>
                <rect id="Rectángulo_45525" data-name="Rectángulo 45525" width="109.674" height="118.68" transform="translate(127.874 6.368) rotate(90)" fill="#fff"/>
                <rect id="Rectángulo_45526" data-name="Rectángulo 45526" width="109.674" height="6.579" transform="translate(71.823 6.368) rotate(90)" fill="#f5f5f5"/>
                <rect id="Rectángulo_45527" data-name="Rectángulo 45527" width="109.674" height="2.487" transform="translate(127.874 6.368) rotate(90)" fill="#e6e6e6"/>
                <rect id="Rectángulo_45528" data-name="Rectángulo 45528" width="109.674" height="2.487" transform="translate(65.244 6.368) rotate(90)" fill="#e6e6e6"/>
              </g>
            </g>
          </g>
          <g id="Grupo_147732" data-name="Grupo 147732" transform="translate(91.786 29.663)">
            <g id="Grupo_147730" data-name="Grupo 147730">
              <path id="Trazado_204686" data-name="Trazado 204686" d="M294.927,223.915c2.4-24.865,4.07-65.214,2.773-78.709a1.643,1.643,0,0,0-.673-1.169h0a1.659,1.659,0,0,0-2.639,1.392c.229,6.687.492,23.4-.932,52.231-.709,14.352-1.731,24.181-1.029,26.255Z" transform="translate(-256.462 -127.923)" fill="#e6e6e6"/>
              <path id="Trazado_204687" data-name="Trazado 204687" d="M258.9,166.922c6.832-7.588,20.79-12.984,35.011-12.955,5.583.012-16.987,8.827-26.374,18.556-7.291,7.558-15.513,20.271-18.308,27.328C251.035,185,252.065,174.511,258.9,166.922Z" transform="translate(-211.488 -128.247)" fill="#e6e6e6"/>
              <path id="Trazado_204688" data-name="Trazado 204688" d="M329.014,169.257c-5.674-7.9-18.773-13.979-32.945-14.667-5.564-.269,15.605,9.647,23.505,19.812,6.136,7.9,12.429,20.975,14.161,28.145C334.15,187.665,334.689,177.161,329.014,169.257Z" transform="translate(-295.149 -128.266)" fill="#e6e6e6"/>
              <path id="Trazado_204689" data-name="Trazado 204689" d="M262.779,138.378c5.785-6.424,17.6-10.993,29.646-10.97,4.728.01-14.383,7.475-22.332,15.712-6.175,6.4-13.137,17.165-15.5,23.14C256.121,153.688,256.994,144.8,262.779,138.378Z" transform="translate(-215.064 -127.408)" fill="#e6e6e6"/>
              <path id="Trazado_204690" data-name="Trazado 204690" d="M322.152,148.143c-4.805-6.692-15.9-11.838-27.9-12.419-4.711-.229,13.214,8.169,19.9,16.776,5.2,6.686,10.525,17.761,11.991,23.833C326.5,163.73,326.956,154.835,322.152,148.143Z" transform="translate(-285.906 -127.67)" fill="#e6e6e6"/>
            </g>
            <g id="Grupo_147731" data-name="Grupo 147731" transform="translate(19.171 84.09)">
              <path id="Trazado_204691" data-name="Trazado 204691" d="M296.015,253.389h0a14.125,14.125,0,0,0,14.1-13.315l1.247-21.618h-30.7l1.247,21.618A14.126,14.126,0,0,0,296.015,253.389Z" transform="translate(-277.685 -214.373)" fill="#e6e6e6"/>
              <path id="Trazado_204692" data-name="Trazado 204692" d="M278.581,223.235h34.674l.993-9H277.588Z" transform="translate(-277.588 -214.24)" fill="#e6e6e6"/>
            </g>
          </g>
        </g>
        <g id="Shadow" transform="translate(0 297.235)">
          <ellipse id="_Path_" data-name="&lt;Path&gt;" cx="187.765" cy="10.966" rx="187.765" ry="10.966" fill="#f5f5f5"/>
        </g>
        <g id="Character" transform="translate(140.232)">
          <g id="Grupo_147741" data-name="Grupo 147741">
            <path id="Trazado_204693" data-name="Trazado 204693" d="M242.484,404.82l8.085.91,2.982-18.336-8.085-.91Z" transform="translate(-198.739 -99.903)" fill="#ffc3bd"/>
            <path id="Trazado_204694" data-name="Trazado 204694" d="M280.879,406.626h8.074l2.01-18.7h-8.074Z" transform="translate(-273.334 -99.948)" fill="#ffc3bd"/>
            <path id="Trazado_204695" data-name="Trazado 204695" d="M279.006,406.271h-9.843a.7.7,0,0,0-.688.551L266.88,414a1.187,1.187,0,0,0,1.182,1.436c3.167-.055,5.477-.24,9.466-.24,2.454,0,9.856.255,13.244.255,3.315,0,3.831-3.351,2.444-3.655-6.221-1.361-10.909-3.237-12.9-5.028A1.961,1.961,0,0,0,279.006,406.271Z" transform="translate(-262.724 -100.528)" fill="#263238"/>
            <path id="Trazado_204696" data-name="Trazado 204696" d="M241.774,404.894l-8.761-.994a.7.7,0,0,0-.746.47l-2.393,6.951a1.175,1.175,0,0,0,.993,1.558c3.166.305,7.754.637,11.727,1.087,4.645.527,5.418,1.771,10.9,1.643,3.314-.078,4.154-3.449,2.761-3.721-6.347-1.233-7.573-2.194-12.617-6.152A3.735,3.735,0,0,0,241.774,404.894Z" transform="translate(-189.81 -100.453)" fill="#263238"/>
            <path id="Trazado_204697" data-name="Trazado 204697" d="M173.6,161.94c2.712,2.239,5.382,4.186,8.143,6.179q4.128,2.953,8.482,5.64c2.905,1.789,5.88,3.511,9,5.073a65.2,65.2,0,0,0,9.937,4.146c.9.29,1.786.527,2.8.773a27.975,27.975,0,0,0,3.01.483c1.819.2,3.531.283,5.236.362,3.4.156,6.736.152,10.068.13,6.664-.08,13.27-.4,19.907-.987l.1-6.061c-6.517-.839-13.062-1.566-19.54-2.292-3.237-.353-6.468-.746-9.623-1.159-1.571-.213-3.132-.464-4.569-.73a16.815,16.815,0,0,1-1.836-.432c-.568-.188-1.266-.417-1.912-.678a64.677,64.677,0,0,1-8.045-3.935c-2.68-1.538-5.359-3.188-7.994-4.943s-5.256-3.572-7.856-5.426c-2.586-1.836-5.2-3.817-7.634-5.671Z" transform="translate(-128.768 -92.51)" fill="#ffc3bd"/>
            <path id="Trazado_204698" data-name="Trazado 204698" d="M231.366,154.745c1.16,7.632,17.231,19.308,17.231,19.308l11.527-14.31a193.36,193.36,0,0,0-16.039-15.262C238.9,140.24,230.1,146.441,231.366,154.745Z" transform="translate(-194.428 -92.216)" fill="#4dd0e1"/>
            <path id="Trazado_204699" data-name="Trazado 204699" d="M170.648,179.074l4.583-3.264.5,10.31s-2.539,0-3.514-1.852Z" transform="translate(-51.355 -93.249)" fill="#ffc3bd"/>
            <path id="Trazado_204700" data-name="Trazado 204700" d="M170.063,172.71,171,182.815l-4.581,3.207-.5-10.31Z" transform="translate(-42.042 -93.151)" fill="#ffc3bd"/>
            <g id="Grupo_147734" data-name="Grupo 147734" transform="translate(8.513 286.585)">
              <path id="Trazado_204701" data-name="Trazado 204701" d="M252.11,387.4l-1.535,9.452-8.088-.91,1.536-9.452Z" transform="translate(-205.814 -386.488)" opacity="0.2"/>
              <path id="Trazado_204702" data-name="Trazado 204702" d="M281.918,387.934H290l-1.04,9.638h-8.077Z" transform="translate(-280.878 -386.533)" opacity="0.2"/>
            </g>
            <path id="Trazado_204703" data-name="Trazado 204703" d="M243.861,144.682a4.62,4.62,0,0,0-3.472,5.629,189.829,189.829,0,0,1,3.954,22.068c.763,6.256,1.222,12.226,1.507,17.642.67,12.691.391,22.367.769,25.645,6.313-.438,30.105-2.093,43.078-3,4.379-34.282-.751-56.158-3.635-65.048a7.674,7.674,0,0,0-6.293-5.268c-1.654-.216-3.632-.426-5.719-.548-.73-.047-1.472-.073-2.226-.088a159.424,159.424,0,0,0-18.316,1.274c-1.152.138-2.318.306-3.451.489C247.8,143.843,245.644,144.283,243.861,144.682Z" transform="translate(-234.424 -92.171)" fill="#263238"/>
            <path id="Trazado_204704" data-name="Trazado 204704" d="M260.022,121.606c1.567,5.812,3.474,16.528-.375,20.747,9.984,6.717,16.359,16.172,18.2,14.119.963-1.074,1.382-13.512.114-15.4-6.68-1.111-6.851-6-6.025-10.655Z" transform="translate(-240.56 -91.536)" fill="#ffc3bd"/>
            <path id="Trazado_204705" data-name="Trazado 204705" d="M261.816,140.542s16.271,7.2,18.429,23.3c-4.483-5.191-14.383-10.838-14.383-10.838l4.367-1.255a44.561,44.561,0,0,0-8.585-2.311c.485-2.224-2.1-6.659-2.1-6.659Z" transform="translate(-241.956 -92.135)" fill="#4dd0e1"/>
            <path id="Trazado_204706" data-name="Trazado 204706" d="M255,140.273s-2.168,9.2,3.747,23.562c.916-5.484,4.779-14.66,4.779-14.66l-3.985,1.085s.2-1.855,3.422-4.321c-1.2-2.311-4.953-5.028-4.953-5.028Z" transform="translate(-220.457 -92.126)" fill="#4dd0e1"/>
            <path id="Trazado_204707" data-name="Trazado 204707" d="M266.8,125.32l7.05,5.213a18.842,18.842,0,0,0-.338,3.29c-2.535-.188-6.176-2.7-6.626-5.312A8.876,8.876,0,0,1,266.8,125.32Z" transform="translate(-242.482 -91.654)" opacity="0.2"/>
            <path id="Trazado_204708" data-name="Trazado 204708" d="M255.975,104.228c3.938.169,6.111,6.959,2.114,12.55S250.67,104,255.975,104.228Z" transform="translate(-215.837 -90.988)" fill="#263238"/>
            <path id="Trazado_204709" data-name="Trazado 204709" d="M254.928,110.056c-.467,8-1.148,12.657,2.374,17.216,5.3,6.856,15.534,4.4,18.382-3.3,2.562-6.929,2.9-18.846-4.5-22.941A10.928,10.928,0,0,0,254.928,110.056Z" transform="translate(-234.207 -90.842)" fill="#ffc3bd"/>
            <path id="Trazado_204710" data-name="Trazado 204710" d="M259.349,115.918c6.059-3.893,8.2-8.984,8.669-11.551,2.353.556,14.032,5.933,17.626,0s-.929-9.412-7.651-5.761c2.974-5.248.269-7.815-9.074-8.043s-8.088,5.191-8.088,5.191-7.073-3.081-9.583,2.339C248.357,104.333,253.7,114.977,259.349,115.918Z" transform="translate(-239.802 -90.556)" fill="#263238"/>
            <path id="Trazado_204711" data-name="Trazado 204711" d="M283.238,94.34c-.085,0-3.539.831-7.518-3.173.714,3.416,6.891,5.689,6.891,5.689Z" transform="translate(-260.612 -90.575)" fill="#263238"/>
            <path id="Trazado_204712" data-name="Trazado 204712" d="M274.764,106.522c3.726-1.287,8.238,4.232,6.572,10.9S269.745,108.256,274.764,106.522Z" transform="translate(-256.781 -91.054)" fill="#263238"/>
            <path id="Trazado_204713" data-name="Trazado 204713" d="M275.1,117.13a7.62,7.62,0,0,0,3.1,4.923c2.191,1.528,4.164-.219,4.291-2.746.114-2.275-.888-5.811-3.441-6.333C276.539,112.459,274.711,114.692,275.1,117.13Z" transform="translate(-259.23 -91.261)" fill="#ffc3bd"/>
            <g id="Grupo_147735" data-name="Grupo 147735" transform="translate(26.957 120.494)">
              <path id="Trazado_204714" data-name="Trazado 204714" d="M245.982,305.948c-1.94-23.616-16.174-88.993-16.174-88.993l28.321-1.975s10.921,64.9,11.757,89.524c.872,25.608-9.427,82.52-9.427,82.52l-13.583-1.547S247.93,329.663,245.982,305.948Z" transform="translate(-229.808 -214.98)" fill="#0f2771"/>
              <path id="Trazado_204715" data-name="Trazado 204715" d="M245.982,305.948c-1.94-23.616-16.174-88.993-16.174-88.993l28.321-1.975s10.921,64.9,11.757,89.524c.872,25.608-9.427,82.52-9.427,82.52l-13.583-1.547S247.93,329.663,245.982,305.948Z" transform="translate(-229.808 -214.98)" fill="#0f2771" opacity="0.5"/>
            </g>
            <path id="Trazado_204716" data-name="Trazado 204716" d="M259.851,239.882c5.709,7.3,5.811,32.939,3.6,51.882-2.1-13.665-5.421-31.018-8.326-45.484Z" transform="translate(-222.223 -95.272)" opacity="0.2"/>
            <g id="Grupo_147736" data-name="Grupo 147736" transform="translate(5.533 121.56)">
              <path id="Trazado_204717" data-name="Trazado 204717" d="M292.246,216.08s-3.056,69.123-6.465,92.534c-3.732,25.636-13.212,81.664-13.212,81.664H257.781s2.433-52.771,4.385-77.955c2.223-28.686,2.283-94.3,2.283-94.3Z" transform="translate(-257.781 -216.08)" fill="#0f2771"/>
              <path id="Trazado_204718" data-name="Trazado 204718" d="M292.246,216.08s-3.056,69.123-6.465,92.534c-3.732,25.636-13.212,81.664-13.212,81.664H257.781s2.433-52.771,4.385-77.955c2.223-28.686,2.283-94.3,2.283-94.3Z" transform="translate(-257.781 -216.08)" fill="#0f2771" opacity="0.5"/>
            </g>
            <path id="Trazado_204719" data-name="Trazado 204719" d="M291.566,396.108H274.153v-5.2l19.465-.339Z" transform="translate(-269.475 -100.032)" fill="#0f2771"/>
            <path id="Trazado_204720" data-name="Trazado 204720" d="M252.558,393.985,236.37,392.15l.593-5.23L255.09,388.7Z" transform="translate(-194.357 -99.917)" fill="#0f2771"/>
            <path id="Trazado_204721" data-name="Trazado 204721" d="M263.945,114.149c-.078.647.2,1.212.625,1.263s.828-.432.906-1.079-.2-1.211-.625-1.263S264.022,113.5,263.945,114.149Z" transform="translate(-231.446 -91.267)" fill="#263238"/>
            <path id="Trazado_204722" data-name="Trazado 204722" d="M256.4,115.056c-.077.647.2,1.212.625,1.263s.828-.432.906-1.079-.2-1.211-.625-1.263S256.476,114.41,256.4,115.056Z" transform="translate(-216.591 -91.295)" fill="#263238"/>
            <path id="Trazado_204723" data-name="Trazado 204723" d="M258.649,115.135a23.317,23.317,0,0,0,2.424,5.9,3.754,3.754,0,0,1-3.158.208Z" transform="translate(-221.205 -91.332)" fill="#ed847e"/>
            <path id="Trazado_204724" data-name="Trazado 204724" d="M264.306,111.4a.381.381,0,0,0,.388-.1,3.043,3.043,0,0,1,2.585-.975.383.383,0,0,0,.448-.3.376.376,0,0,0-.3-.447,3.792,3.792,0,0,0-3.28,1.2.382.382,0,0,0,.01.54A.376.376,0,0,0,264.306,111.4Z" transform="translate(-233.793 -91.155)" fill="#263238"/>
            <path id="Trazado_204725" data-name="Trazado 204725" d="M268.622,123.987h0a5.873,5.873,0,0,1-4.187-3.432.206.206,0,1,1,.387-.138,5.569,5.569,0,0,0,3.9,3.17.206.206,0,0,1-.092.4Z" transform="translate(-235.301 -91.495)" fill="#263238"/>
            <path id="Trazado_204726" data-name="Trazado 204726" d="M256.395,112.785a.373.373,0,0,0,.236,0,.382.382,0,0,0,.236-.486,3.778,3.778,0,0,0-2.471-2.466.383.383,0,0,0-.464.278.391.391,0,0,0,.276.464h0a3.035,3.035,0,0,1,1.937,1.974A.381.381,0,0,0,256.395,112.785Z" transform="translate(-213.153 -91.164)" fill="#263238"/>
            <path id="Trazado_204727" data-name="Trazado 204727" d="M279.754,407.661a2.444,2.444,0,0,0,1.555-.412,1.152,1.152,0,0,0,.4-1.01.608.608,0,0,0-.327-.541c-.9-.461-3.5,1.142-3.791,1.326a.191.191,0,0,0-.088.193.194.194,0,0,0,.144.156A9.553,9.553,0,0,0,279.754,407.661Zm1.2-1.671a.548.548,0,0,1,.248.047.236.236,0,0,1,.121.225.78.78,0,0,1-.26.694c-.442.371-1.5.421-2.866.145A7.733,7.733,0,0,1,280.954,405.99Z" transform="translate(-260.802 -100.507)" fill="#407bff"/>
            <path id="Trazado_204728" data-name="Trazado 204728" d="M279.376,407.315a.194.194,0,0,0,.092-.023c.835-.454,2.451-2.223,2.28-3.123a.623.623,0,0,0-.608-.5,1.057,1.057,0,0,0-.815.246c-.937.767-1.131,3.1-1.138,3.2a.19.19,0,0,0,.086.175A.193.193,0,0,0,279.376,407.315Zm1.63-3.273c.029,0,.057,0,.087,0,.248.031.269.145.279.194.1.532-.928,1.868-1.759,2.5a4.593,4.593,0,0,1,.954-2.531A.675.675,0,0,1,281.006,404.042Z" transform="translate(-262.492 -100.445)" fill="#407bff"/>
            <path id="Trazado_204729" data-name="Trazado 204729" d="M239.7,406.118l.031.014c1.264.4,3.528.98,4.494.3a1.068,1.068,0,0,0,.461-.884.607.607,0,0,0-.257-.541c-.909-.638-4.322.617-4.708.763a.191.191,0,0,0-.021.348Zm4.461-.828a.383.383,0,0,1,.046.028.226.226,0,0,1,.1.217.7.7,0,0,1-.3.585c-.543.381-1.872.308-3.61-.187C241.751,405.465,243.6,404.992,244.161,405.29Z" transform="translate(-187.079 -100.482)" fill="#407bff"/>
            <path id="Trazado_204730" data-name="Trazado 204730" d="M241.506,406.049a.192.192,0,0,0,.148.013c1.017-.324,3.132-1.842,3.088-2.766-.011-.216-.134-.5-.648-.611a1.4,1.4,0,0,0-1.09.206c-1.116.722-1.577,2.859-1.6,2.95a.189.189,0,0,0,.058.181A.21.21,0,0,0,241.506,406.049Zm2.717-2.919c.132.07.136.152.137.184.027.555-1.431,1.77-2.487,2.252a4.483,4.483,0,0,1,1.339-2.353,1.01,1.01,0,0,1,.8-.154A.786.786,0,0,1,244.223,403.13Z" transform="translate(-188.885 -100.413)" fill="#407bff"/>
            <g id="Grupo_147740" data-name="Grupo 147740" transform="translate(0 52.767)">
              <path id="Trazado_204731" data-name="Trazado 204731" d="M250.431,156.773c.205,3.154.576,6.091.962,9.122.383,3.009.9,6.005,1.471,9a106.271,106.271,0,0,0,4.966,17.986l.96,2.26.242.565.061.14.1.214.281.557a10.393,10.393,0,0,0,1.332,1.888,12.206,12.206,0,0,0,2.919,2.4,18.2,18.2,0,0,0,2.773,1.346,36.279,36.279,0,0,0,9.943,2.075,82.785,82.785,0,0,0,18.474-.69l-.222-6.057-4.272-.482c-1.431-.171-2.857-.388-4.273-.579-2.828-.416-5.626-.881-8.294-1.5a31.628,31.628,0,0,1-7.143-2.369,3.913,3.913,0,0,1-1.558-1.193c-.026-.139.283.469-.079-.5l-.638-1.867a122.517,122.517,0,0,1-3.583-16.329c-.46-2.81-.852-5.646-1.232-8.488-.382-2.819-.692-5.745-.99-8.471Z" transform="translate(-247.798 -145.384)" fill="#ffc3bd"/>
              <path id="Trazado_204732" data-name="Trazado 204732" d="M278.071,150.578c-3.952,6.631-.577,27.467-.577,27.467l20.717-3.828s1.122-11.928-2.821-21.092C291.1,143.142,282.86,142.546,278.071,150.578Z" transform="translate(-276.151 -145.044)" fill="#4dd0e1"/>
              <g id="Grupo_147739" data-name="Grupo 147739" transform="translate(43.068 11.899)">
                <path id="Trazado_204733" data-name="Trazado 204733" d="M189.531,216.37l10.992-51.125a10.346,10.346,0,0,1,9.614-7.914h42.114a10.346,10.346,0,0,0-9.615,7.914L231.645,216.37a10.346,10.346,0,0,1-9.614,7.914H179.916A10.347,10.347,0,0,0,189.531,216.37Z" transform="translate(-179.916 -157.331)" fill="#263238"/>
                <path id="Trazado_204734" data-name="Trazado 204734" d="M189.531,216.37l10.992-51.125a10.346,10.346,0,0,1,9.614-7.914h42.114a10.346,10.346,0,0,0-9.615,7.914L231.645,216.37a10.346,10.346,0,0,1-9.614,7.914H179.916A10.347,10.347,0,0,0,189.531,216.37Z" transform="translate(-179.916 -157.331)" fill="#feca2e" opacity="0.7"/>
                <rect id="Rectángulo_45529" data-name="Rectángulo 45529" width="12.002" height="0.969" transform="matrix(-0.092, -0.996, 0.996, -0.092, 89.544, 74.714)" fill="#407bff"/>
                <rect id="Rectángulo_45530" data-name="Rectángulo 45530" width="5.049" height="0.969" transform="matrix(-0.092, -0.996, 0.996, -0.092, 90.442, 84.487)" fill="#407bff"/>
                <path id="Trazado_204735" data-name="Trazado 204735" d="M201.8,157.331H159.685a8.848,8.848,0,0,1,8.633,7.914l10.926,118.8a8.849,8.849,0,0,0,8.633,7.914h26.287a7.108,7.108,0,0,0,7.194-7.914l-10.927-118.8A8.847,8.847,0,0,0,201.8,157.331Z" transform="translate(-129.464 -157.331)" fill="#feca2e"/>
                <g id="Grupo_147737" data-name="Grupo 147737" transform="translate(58.414 126.717)">
                  <path id="Trazado_204736" data-name="Trazado 204736" d="M150.536,288.181a7.108,7.108,0,0,1-7.194,7.914h42.113a7.108,7.108,0,0,0,7.194-7.914Z" transform="translate(-143.342 -288.181)" fill="#263238"/>
                  <path id="Trazado_204737" data-name="Trazado 204737" d="M150.536,288.181a7.108,7.108,0,0,1-7.194,7.914h42.113a7.108,7.108,0,0,0,7.194-7.914Z" transform="translate(-143.342 -288.181)" fill="#feca2e" opacity="0.7"/>
                </g>
                <g id="Grupo_147738" data-name="Grupo 147738" transform="translate(44.267 9.865)" opacity="0.5">
                  <path id="Trazado_204738" data-name="Trazado 204738" d="M177.787,170.964h28.5a1.551,1.551,0,0,0,1.566-1.723h0a1.932,1.932,0,0,0-1.88-1.723h-28.5a1.552,1.552,0,0,0-1.567,1.723h0A1.932,1.932,0,0,0,177.787,170.964Z" transform="translate(-175.901 -167.518)" fill="#fff"/>
                  <path id="Trazado_204739" data-name="Trazado 204739" d="M176.911,180.59h28.5a1.551,1.551,0,0,0,1.567-1.723h0a1.933,1.933,0,0,0-1.88-1.723H176.6a1.552,1.552,0,0,0-1.566,1.723h0A1.932,1.932,0,0,0,176.911,180.59Z" transform="translate(-174.176 -167.822)" fill="#fff"/>
                  <path id="Trazado_204740" data-name="Trazado 204740" d="M176.036,190.217h21.512a1.552,1.552,0,0,0,1.566-1.723h0a1.932,1.932,0,0,0-1.88-1.724H175.724a1.552,1.552,0,0,0-1.567,1.724h0A1.933,1.933,0,0,0,176.036,190.217Z" transform="translate(-165.469 -168.126)" fill="#fff"/>
                  <path id="Trazado_204741" data-name="Trazado 204741" d="M175.161,199.843h7.3a1.551,1.551,0,0,0,1.566-1.723h0a1.931,1.931,0,0,0-1.879-1.723h-7.3a1.551,1.551,0,0,0-1.566,1.723h0A1.933,1.933,0,0,0,175.161,199.843Z" transform="translate(-149.53 -168.43)" fill="#fff"/>
                  <path id="Trazado_204742" data-name="Trazado 204742" d="M174.285,209.469h28.5a1.552,1.552,0,0,0,1.566-1.723h0a1.932,1.932,0,0,0-1.88-1.723h-28.5a1.551,1.551,0,0,0-1.566,1.723h0A1.932,1.932,0,0,0,174.285,209.469Z" transform="translate(-169.007 -168.734)" fill="#fff"/>
                  <path id="Trazado_204743" data-name="Trazado 204743" d="M173.41,219.095h17.274a1.551,1.551,0,0,0,1.566-1.723h0a1.931,1.931,0,0,0-1.879-1.723H173.1a1.552,1.552,0,0,0-1.567,1.723h0A1.933,1.933,0,0,0,173.41,219.095Z" transform="translate(-156.061 -169.038)" fill="#fff"/>
                  <path id="Trazado_204744" data-name="Trazado 204744" d="M172.534,228.721h28.5A1.551,1.551,0,0,0,202.6,227h0a1.932,1.932,0,0,0-1.88-1.723h-28.5A1.551,1.551,0,0,0,170.655,227h0A1.932,1.932,0,0,0,172.534,228.721Z" transform="translate(-165.561 -169.342)" fill="#fff"/>
                  <path id="Trazado_204745" data-name="Trazado 204745" d="M171.659,238.347h21.512a1.551,1.551,0,0,0,1.566-1.723h0a1.932,1.932,0,0,0-1.88-1.723H171.347a1.552,1.552,0,0,0-1.567,1.723h0A1.932,1.932,0,0,0,171.659,238.347Z" transform="translate(-156.853 -169.646)" fill="#fff"/>
                  <path id="Trazado_204746" data-name="Trazado 204746" d="M170.783,247.973h7.3a1.551,1.551,0,0,0,1.567-1.723h0a1.933,1.933,0,0,0-1.88-1.723h-7.3a1.552,1.552,0,0,0-1.567,1.723h0A1.932,1.932,0,0,0,170.783,247.973Z" transform="translate(-140.913 -169.95)" fill="#fff"/>
                  <path id="Trazado_204747" data-name="Trazado 204747" d="M169.908,257.6h28.5a1.552,1.552,0,0,0,1.566-1.724h0a1.932,1.932,0,0,0-1.88-1.723h-28.5a1.552,1.552,0,0,0-1.566,1.723h0A1.932,1.932,0,0,0,169.908,257.6Z" transform="translate(-160.392 -170.254)" fill="#fff"/>
                  <path id="Trazado_204748" data-name="Trazado 204748" d="M169.033,267.226h17.274a1.551,1.551,0,0,0,1.566-1.723h0a1.931,1.931,0,0,0-1.88-1.723H168.72a1.551,1.551,0,0,0-1.566,1.723h0A1.932,1.932,0,0,0,169.033,267.226Z" transform="translate(-147.444 -170.559)" fill="#fff"/>
                  <path id="Trazado_204749" data-name="Trazado 204749" d="M168.157,276.852h28.5a1.552,1.552,0,0,0,1.566-1.723h0a1.932,1.932,0,0,0-1.88-1.723h-28.5a1.551,1.551,0,0,0-1.566,1.723h0A1.932,1.932,0,0,0,168.157,276.852Z" transform="translate(-156.945 -170.863)" fill="#fff"/>
                </g>
              </g>
              <path id="Trazado_204750" data-name="Trazado 204750" d="M243.846,199.449l6.187-5.375,2.9,9.9s-6.284,3.407-8.461.28Z" transform="translate(-199.441 -146.593)" fill="#ffc3bd"/>
              <path id="Trazado_204751" data-name="Trazado 204751" d="M244.542,193.673l2.014,8.292-5.847,1.993-2.9-9.9Z" transform="translate(-187.216 -146.58)" fill="#ffc3bd"/>
            </g>
          </g>
        </g>
      </g>
    </g>
  </g>
</svg>
