<svg xmlns="http://www.w3.org/2000/svg" width="292.834" height="296.611" viewBox="0 0 292.834 296.611">
  <g id="Grupo_222349" data-name="Grupo 222349" transform="translate(-937.167 -407.388)">
    <g id="Grupo_222348" data-name="Grupo 222348">
      <g id="Grupo_222347" data-name="Grupo 222347">
        <g id="Grupo_222346" data-name="Grupo 222346">
          <g id="Grupo_222069" data-name="Grupo 222069" transform="translate(906.011 391.438)">
            <g id="_1" data-name="1" transform="translate(31.156 15.951)">
              <g id="window_4" data-name="window 4" transform="translate(195.464 127.924)">
                <path id="Trazado_225360" data-name="Trazado 225360" d="M177.939,55.513V169.778a7.224,7.224,0,0,1-7.223,7.227H95.648a7.224,7.224,0,0,1-7.223-7.227V60.762s-.233-5.214-2.31-8.054a14.784,14.784,0,0,0-5.546-4.355l14.98-.063h75.166A7.22,7.22,0,0,1,177.939,55.513Z" transform="translate(-80.569 -48.29)" fill="#fff"/>
                <g id="Grupo_222029" data-name="Grupo 222029" transform="translate(17.498 41.982)">
                  <path id="Trazado_225361" data-name="Trazado 225361" d="M84.993,59.216h0Z" transform="translate(-84.991 -57.978)" fill="#fff"/>
                  <rect id="Rectángulo_295724" data-name="Rectángulo 295724" width="70.246" height="2.475" fill="#969aa8"/>
                </g>
                <g id="Grupo_222030" data-name="Grupo 222030" transform="translate(29.51 60.429)">
                  <path id="Trazado_225362" data-name="Trazado 225362" d="M88.029,63.879h0Z" transform="translate(-88.029 -62.642)" fill="#fff"/>
                  <rect id="Rectángulo_295725" data-name="Rectángulo 295725" width="47.083" height="2.475" transform="translate(0.001)" fill="#969aa8"/>
                </g>
                <g id="Grupo_222031" data-name="Grupo 222031" transform="translate(17.498 51.206)">
                  <path id="Trazado_225363" data-name="Trazado 225363" d="M84.993,61.547h0Z" transform="translate(-84.991 -60.312)" fill="#fff"/>
                  <rect id="Rectángulo_295726" data-name="Rectángulo 295726" width="70.246" height="2.475" fill="#969aa8"/>
                </g>
                <g id="Grupo_222032" data-name="Grupo 222032" transform="translate(17.498 88.358)">
                  <path id="Trazado_225364" data-name="Trazado 225364" d="M84.993,70.94h0Z" transform="translate(-84.991 -69.701)" fill="#fff"/>
                  <rect id="Rectángulo_295727" data-name="Rectángulo 295727" width="70.246" height="2.475" fill="#969aa8"/>
                </g>
                <g id="Grupo_222033" data-name="Grupo 222033" transform="translate(17.498 79.136)">
                  <path id="Trazado_225365" data-name="Trazado 225365" d="M84.993,68.608h0Z" transform="translate(-84.991 -67.371)" fill="#fff"/>
                  <rect id="Rectángulo_295728" data-name="Rectángulo 295728" width="70.246" height="2.475" fill="#969aa8"/>
                </g>
                <g id="Grupo_222034" data-name="Grupo 222034" transform="translate(29.51 97.84)">
                  <path id="Trazado_225366" data-name="Trazado 225366" d="M88.029,73.337h0Z" transform="translate(-88.029 -72.098)" fill="#fff"/>
                  <rect id="Rectángulo_295729" data-name="Rectángulo 295729" width="47.083" height="2.475" transform="translate(0.001)" fill="#969aa8"/>
                </g>
                <g id="Grupo_222035" data-name="Grupo 222035" transform="translate(29.51 116.287)">
                  <path id="Trazado_225367" data-name="Trazado 225367" d="M88.029,78h0Z" transform="translate(-88.029 -76.763)" fill="#fff"/>
                  <rect id="Rectángulo_295730" data-name="Rectángulo 295730" width="47.083" height="2.475" transform="translate(0.001)" fill="#969aa8"/>
                </g>
                <g id="Grupo_222036" data-name="Grupo 222036" transform="translate(23.192 107.064)">
                  <path id="Trazado_225368" data-name="Trazado 225368" d="M86.432,75.668h0Z" transform="translate(-86.432 -74.432)" fill="#fff"/>
                  <rect id="Rectángulo_295731" data-name="Rectángulo 295731" width="58.858" height="2.475" fill="#969aa8"/>
                </g>
                <g id="Grupo_222037" data-name="Grupo 222037" transform="translate(23.192 69.595)">
                  <path id="Trazado_225369" data-name="Trazado 225369" d="M86.432,66.2h0Z" transform="translate(-86.432 -64.96)" fill="#fff"/>
                  <rect id="Rectángulo_295732" data-name="Rectángulo 295732" width="58.858" height="2.475" fill="#969aa8"/>
                </g>
                <rect id="Rectángulo_295733" data-name="Rectángulo 295733" width="70.246" height="6.519" transform="translate(17.498 29.489)" fill="#969aa8"/>
                <g id="Grupo_222039" data-name="Grupo 222039" transform="translate(36.321 11.055)">
                  <g id="Grupo_222038" data-name="Grupo 222038">
                    <rect id="Rectángulo_295734" data-name="Rectángulo 295734" width="28.92" height="8.874" fill="#0f2771"/>
                  </g>
                </g>
              </g>
              <g id="window_3" data-name="window 3" transform="translate(179.147 49.901)">
                <rect id="Rectángulo_295735" data-name="Rectángulo 295735" width="105.779" height="61.783" rx="1.825" fill="#fff"/>
                <g id="Grupo_222040" data-name="Grupo 222040" transform="translate(59.925 22.067)">
                  <path id="Trazado_225370" data-name="Trazado 225370" d="M91.593,34.457h0Z" transform="translate(-91.593 -33.22)" fill="#fff"/>
                  <rect id="Rectángulo_295736" data-name="Rectángulo 295736" width="35.228" height="2.475" transform="translate(0.002)" fill="#969aa8"/>
                </g>
                <g id="Grupo_222041" data-name="Grupo 222041" transform="translate(59.925 40.512)">
                  <path id="Trazado_225371" data-name="Trazado 225371" d="M91.593,39.12h0Z" transform="translate(-91.593 -37.883)" fill="#fff"/>
                  <rect id="Rectángulo_295737" data-name="Rectángulo 295737" width="35.228" height="2.475" transform="translate(0.002)" fill="#969aa8"/>
                </g>
                <g id="Grupo_222042" data-name="Grupo 222042" transform="translate(59.925 31.288)">
                  <path id="Trazado_225372" data-name="Trazado 225372" d="M91.593,36.789h0Z" transform="translate(-91.593 -35.549)" fill="#fff"/>
                  <rect id="Rectángulo_295738" data-name="Rectángulo 295738" width="35.228" height="2.475" transform="translate(0.002)" fill="#969aa8"/>
                </g>
                <g id="Grupo_222043" data-name="Grupo 222043" transform="translate(59.925 49.679)">
                  <path id="Trazado_225373" data-name="Trazado 225373" d="M91.593,41.437h0Z" transform="translate(-91.593 -40.202)" fill="#fff"/>
                  <rect id="Rectángulo_295739" data-name="Rectángulo 295739" width="35.228" height="2.475" transform="translate(0.002)" fill="#969aa8"/>
                </g>
                <rect id="Rectángulo_295740" data-name="Rectángulo 295740" width="43.042" height="6.519" transform="translate(52.112 9.572)" fill="#969aa8"/>
                <g id="Grupo_222046" data-name="Grupo 222046" transform="translate(11.501 18.4)">
                  <g id="Grupo_222045" data-name="Grupo 222045">
                    <g id="Grupo_222044" data-name="Grupo 222044">
                      <path id="Trazado_225374" data-name="Trazado 225374" d="M118.076,49.9a11.824,11.824,0,0,1-4.7,5.4l-.831.475L99.223,63.406c-.016,0-13.347-7.627-13.347-7.627L85.03,55.3a11.918,11.918,0,0,1,1.5-21.1,11.9,11.9,0,0,1,12.678,2.029A11.928,11.928,0,0,1,118.076,49.9Z" transform="translate(-79.352 -33.217)" fill="#0f2771"/>
                    </g>
                  </g>
                </g>
              </g>
              <g id="window_2" data-name="window 2" transform="translate(120.598 9.798)">
                <path id="Trazado_225375" data-name="Trazado 225375" d="M197.387,25.655V40.734a7.225,7.225,0,0,1-7.227,7.227H97.873l-.032,7.852a14.912,14.912,0,0,0-4.324-5.542c-2.872-2.049-8.05-2.31-8.05-2.31H68.87a7.227,7.227,0,0,1-7.227-7.227V25.655a7.227,7.227,0,0,1,7.227-7.227H190.16A7.225,7.225,0,0,1,197.387,25.655Z" transform="translate(-61.643 -18.428)" fill="#fff"/>
                <path id="Trazado_225376" data-name="Trazado 225376" d="M71.065,24.412A3.19,3.19,0,1,0,67.876,27.6,3.19,3.19,0,0,0,71.065,24.412Z" transform="translate(-52.655 -10.176)" fill="#969aa8"/>
                <path id="Trazado_225377" data-name="Trazado 225377" d="M76.393,24.412A3.192,3.192,0,1,0,73.2,27.6,3.193,3.193,0,0,0,76.393,24.412Z" transform="translate(-36.918 -10.176)" fill="#969aa8"/>
                <path id="Trazado_225378" data-name="Trazado 225378" d="M81.716,24.412A3.192,3.192,0,1,0,78.524,27.6,3.191,3.191,0,0,0,81.716,24.412Z" transform="translate(-21.182 -10.176)" fill="#969aa8"/>
                <path id="Trazado_225379" data-name="Trazado 225379" d="M87.041,24.412A3.192,3.192,0,1,0,83.848,27.6,3.191,3.191,0,0,0,87.041,24.412Z" transform="translate(-5.446 -10.176)" fill="#969aa8"/>
                <path id="Trazado_225380" data-name="Trazado 225380" d="M92.365,24.412A3.192,3.192,0,1,0,89.172,27.6,3.191,3.191,0,0,0,92.365,24.412Z" transform="translate(10.29 -10.176)" fill="#969aa8"/>
                <path id="Trazado_225381" data-name="Trazado 225381" d="M97.689,24.412A3.192,3.192,0,1,0,94.5,27.6,3.191,3.191,0,0,0,97.689,24.412Z" transform="translate(26.026 -10.176)" fill="#969aa8"/>
              </g>
              <g id="window_1" data-name="window 1">
                <path id="Trazado_225382" data-name="Trazado 225382" d="M128.526,146.248l-14.98.067H38.351a7.218,7.218,0,0,1-7.2-7.227V23.178a7.218,7.218,0,0,1,7.2-7.227h75.1a7.218,7.218,0,0,1,7.2,7.227V132.194s.261,6.832,2.31,9.7A15.113,15.113,0,0,0,128.526,146.248Z" transform="translate(-31.156 -15.951)" fill="#fff"/>
                <g id="Grupo_222048" data-name="Grupo 222048" transform="translate(30.292 11.165)">
                  <g id="Grupo_222047" data-name="Grupo 222047">
                    <path id="Trazado_225383" data-name="Trazado 225383" d="M67.717,28.772v8.875H57.687V47.678H48.811V37.647h-10V28.772h10v-10h8.876v10Z" transform="translate(-38.814 -18.774)" fill="#bddcf6"/>
                  </g>
                </g>
                <g id="Grupo_222049" data-name="Grupo 222049" transform="translate(23.247 62.048)">
                  <path id="Trazado_225384" data-name="Trazado 225384" d="M37.033,31.949h0Z" transform="translate(-37.033 -30.714)" fill="#fff"/>
                  <rect id="Rectángulo_295741" data-name="Rectángulo 295741" width="43.174" height="2.474" fill="#969aa8"/>
                </g>
                <g id="Grupo_222050" data-name="Grupo 222050" transform="translate(9.62 80.495)">
                  <path id="Trazado_225385" data-name="Trazado 225385" d="M33.588,36.613h0Z" transform="translate(-33.588 -35.375)" fill="#fff"/>
                  <rect id="Rectángulo_295742" data-name="Rectángulo 295742" width="70.245" height="2.475" transform="translate(0)" fill="#969aa8"/>
                </g>
                <g id="Grupo_222051" data-name="Grupo 222051" transform="translate(9.62 71.272)">
                  <path id="Trazado_225386" data-name="Trazado 225386" d="M33.588,34.281h0Z" transform="translate(-33.588 -33.044)" fill="#fff"/>
                  <rect id="Rectángulo_295743" data-name="Rectángulo 295743" width="70.245" height="2.474" transform="translate(0)" fill="#969aa8"/>
                </g>
                <g id="Grupo_222052" data-name="Grupo 222052" transform="translate(9.62 108.423)">
                  <path id="Trazado_225387" data-name="Trazado 225387" d="M33.588,43.673h0Z" transform="translate(-33.588 -42.436)" fill="#fff"/>
                  <rect id="Rectángulo_295744" data-name="Rectángulo 295744" width="70.245" height="2.474" transform="translate(0)" fill="#969aa8"/>
                </g>
                <g id="Grupo_222053" data-name="Grupo 222053" transform="translate(23.247 99.201)">
                  <path id="Trazado_225388" data-name="Trazado 225388" d="M37.033,41.342h0Z" transform="translate(-37.033 -40.104)" fill="#fff"/>
                  <rect id="Rectángulo_295745" data-name="Rectángulo 295745" width="43.174" height="2.475" fill="#969aa8"/>
                </g>
                <g id="Grupo_222054" data-name="Grupo 222054" transform="translate(7.971 117.493)">
                  <path id="Trazado_225389" data-name="Trazado 225389" d="M33.588,46.07h0Z" transform="translate(-31.938 -44.42)" fill="#fff"/>
                  <path id="Trazado_225390" data-name="Trazado 225390" d="M105.066,48.952H34.821a1.65,1.65,0,0,1,0-3.3h70.246a1.65,1.65,0,0,1,0,3.3Z" transform="translate(-33.171 -45.653)" fill="#969aa8"/>
                </g>
                <g id="Grupo_222055" data-name="Grupo 222055" transform="translate(16.613 89.66)">
                  <path id="Trazado_225391" data-name="Trazado 225391" d="M35.356,38.93h0Z" transform="translate(-35.355 -37.692)" fill="#fff"/>
                  <rect id="Rectángulo_295746" data-name="Rectángulo 295746" width="56.759" height="2.475" fill="#969aa8"/>
                </g>
                <rect id="Rectángulo_295747" data-name="Rectángulo 295747" width="70.246" height="6.519" transform="translate(9.62 49.554)" fill="#969aa8"/>
              </g>
              <g id="bubbles" transform="translate(30.293 43.529)">
                <path id="Trazado_225392" data-name="Trazado 225392" d="M73.474,39.425a4.021,4.021,0,1,1-4.023-4.019A4.021,4.021,0,0,1,73.474,39.425Z" transform="translate(39.861 -1.976)" fill="#fff"/>
                <path id="Trazado_225393" data-name="Trazado 225393" d="M71.624,34.715a1.6,1.6,0,1,1-1.6-1.594A1.6,1.6,0,0,1,71.624,34.715Z" transform="translate(48.728 -8.73)" fill="#fff"/>
                <path id="Trazado_225394" data-name="Trazado 225394" d="M64.388,30.412a3.459,3.459,0,1,1-3.461-3.457A3.463,3.463,0,0,1,64.388,30.412Z" transform="translate(16.325 -26.955)" fill="#fff"/>
                <path id="Trazado_225395" data-name="Trazado 225395" d="M51.9,57.1a2.888,2.888,0,1,1-2.888-2.888A2.889,2.889,0,0,1,51.9,57.1Z" transform="translate(-17.217 53.615)" fill="#fff"/>
                <path id="Trazado_225396" data-name="Trazado 225396" d="M42.445,55.842a1.816,1.816,0,1,1-1.816-1.816A1.816,1.816,0,0,1,42.445,55.842Z" transform="translate(-38.814 53.059)" fill="#fff"/>
              </g>
            </g>
            <g id="human" transform="translate(49.547 18.607)">
              <path id="hair_2" data-name="hair 2" d="M104.409,44.616C104.7,48.081,95.533,55.85,94,62.084c-1.519,6.25.554,11.092-2.911,14.7S78.935,82.9,75.327,81.1,63.353,40.454,63.353,40.454s-.087-.162-.237-.467a27.247,27.247,0,0,1-2.263-6.574c-.044-.237-.075-.479-.107-.716a6.215,6.215,0,0,1,.392-3.477c1.8-3.608,6.309-2.369,6.309-2.369a14.691,14.691,0,0,1-.237-2.694,11.1,11.1,0,0,1,.273-2.326l.032-.162a5.715,5.715,0,0,1,1.357-2.575c2.524-2.638,17.093-3.888,21.523,0A11.371,11.371,0,0,1,94,28.666a8.819,8.819,0,0,1,6.246,2.073,4.419,4.419,0,0,1,1.349,3.718,16.473,16.473,0,0,1-1.349,5.443S104.148,41.487,104.409,44.616Z" transform="translate(37.694 -16.619)" fill="#773128"/>
              <path id="Trazado_225397" data-name="Trazado 225397" d="M256.454,132.216c-1.661,1.108-9.43.186-13.137-.9C239.626,130.23,232.225,125,232.225,125l-48.359-9-2.314-.435-12.939-4.628-45.859-3.509-58.624,11.1a41.082,41.082,0,0,0-5.922,5.182c-2.955,3.137-10.72,6-13.861,7.429-.767.352-2.876.127-2.579-1.052.178-.716,1.214-1.871-.51-.763-.716.463-2.124-.716-1.408-1.966.641-1.116.142-.926-.613-.459-.969.6-2.5-1.04-1.282-2.5.526-.637,1.072-1.539-.174-.8-1.357.8-2.638-.261-1.594-2.116a11.244,11.244,0,0,1,2.975-3.517c2.488-2.116,8.691-4.43,8.691-4.43a33.469,33.469,0,0,0-3.695-2.045c-1.673-.736-1.673-3.509,0-3.509a61.364,61.364,0,0,1,8.695,1.294,63.243,63.243,0,0,1,10.166,3.509l78.228-36.614V67.485a11.426,11.426,0,0,1-1.175-.411,25,25,0,0,1-6.226-3.932,7.648,7.648,0,0,1-1.986-2.836c-3.228-7.5-.459-23.457,1.618-30.17,2.4-7.769,9.7-10.17,15.534-9.616,6.206.585,8.857,1.456,12.733,6.072s1.784,19.078,1.784,19.078a7.878,7.878,0,0,1,4.343,1.226,7.471,7.471,0,0,1,1.578,8.03,5.039,5.039,0,0,1-.839,1.218,7.818,7.818,0,0,1-6.843,2.1s-.783,4.691-3.141,6.7a15.46,15.46,0,0,1-7.4,3.283l-.186,8.386,5.15,2.642,76.962,39.482a35.505,35.505,0,0,1,9.051-3.347c4.26-.74,17.014,1.661,18.687,3.141S258.115,131.109,256.454,132.216Z" transform="translate(-35.805 -5.331)" fill="#f9c0b9"/>
              <g id="Grupo_222056" data-name="Grupo 222056" transform="translate(205.196 95.581)">
                <rect id="Rectángulo_295748" data-name="Rectángulo 295748" width="11.932" height="24.121" transform="translate(11.291 1.157) rotate(24.849)" fill="#fff"/>
                <path id="Trazado_225398" data-name="Trazado 225398" d="M99.662,70a1.133,1.133,0,0,1-.487-.111L88.349,64.878a1.145,1.145,0,0,1-.562-1.531L97.921,41.46a1.152,1.152,0,0,1,1.535-.566l10.827,5.016a1.153,1.153,0,0,1,.562,1.531L100.71,69.328A1.158,1.158,0,0,1,99.662,70Zm-9.3-6.733L99.1,67.311l9.161-19.79-8.73-4.043Z" transform="translate(-87.679 -40.785)" fill="#969aa8"/>
              </g>
              <path id="Trazado_225399" data-name="Trazado 225399" d="M85.7,50.093s2.864-3.4,5.566-4.553c4.252-1.82,6.547-1.139,10.605-1.8,3.465-.566,5.178,2.286.32,3.137-4.367.771-5.918,3.426-8.153,5.945C91.776,55.366,85.7,50.093,85.7,50.093Z" transform="translate(111.657 63.311)" fill="#f9c0b9"/>
              <path id="Trazado_225400" data-name="Trazado 225400" d="M98.513,45.534c-2.124-2.31-3.374-1.056-3.236.491.071.771-1.143-.214-1.974.526s-.384,2.393-.384,2.393a1.756,1.756,0,0,0-1.523.107c-.649.459-.926,3.05,0,3.79s-.763-.534-1,.435c-.21.827-.186,1.5,1.8,3.861s-1.915,3.841-1.915,3.841,5,1.294,6.021,0,5.641-8.786,5.087-10.633A20.838,20.838,0,0,0,98.513,45.534Z" transform="translate(125.186 65.074)" fill="#f9c0b9"/>
              <path id="Trazado_225401" data-name="Trazado 225401" d="M121.594,64.386l-48.358-9V43.581l7.225-2.629,1.934,12.614Z" transform="translate(74.827 55.286)" fill="#d87360"/>
              <path id="Trazado_225402" data-name="Trazado 225402" d="M42.966,55.118,84.943,41.9v5.278Z" transform="translate(-14.642 58.079)" fill="#d87360"/>
              <path id="Trazado_225403" data-name="Trazado 225403" d="M141.737,54.231l-1.99,17.2-.783,6.768-15.34-.8s.328,17.567-.043,47.164c-.02,1.737-.055,3.671-.087,5.76-.063.02-.174.043-.324.087-1.392.4-3.26.847-5.617,1.3-.316.055-.629.119-.957.174a126.4,126.4,0,0,1-16.4,1.673c-2.369.1-4.913.15-7.65.15-2.706,0-5.028-.051-7.041-.162-6.29-.336-9.537-1.214-12.2-2.682-.76-14.245-1.424-29.988-1.859-41.155-.356-8.964-.562-14.9-.562-14.9h-17.2L52.666,51.146l34.3-16.1s2.619,8.94,8.509,9.138c8.323.273,12.231-7.813,12.231-7.813Z" transform="translate(14.03 37.832)" fill="#fff"/>
              <path id="Trazado_225404" data-name="Trazado 225404" d="M61.885,94.668c-6.44,6.262-1.527,12.785,5.665,9.154,6.586-3.331,8.449-5,10.447-7.255s3.679-10.368-3.038-10.4C72.7,86.163,67.574,89.142,61.885,94.668Z" transform="translate(32.433 188.943)" fill="#fff"/>
              <path id="Trazado_225405" data-name="Trazado 225405" d="M73.221,102.653c8.635,9,15.732,2.33,11.95-3.837-6.009-9.8-7.524-9.015-11.8-11.214-4.055-2.089-5.593-2.583-5.756-1.693C66.476,92.111,66.1,95.24,73.221,102.653Z" transform="translate(56.328 186.919)" fill="#fff"/>
              <path id="Trazado_225406" data-name="Trazado 225406" d="M108.076,59.131c-.6,33.481-3.054,108.525-3.054,108.525l-11.274,2.029L85.956,80.848l-3.813,1,.316,87.1H71.549S60.457,95.211,58.424,68.213c-.206-2.761-.388-5.617-.542-8.54a18.373,18.373,0,0,0,5.17,1.859s.087.02.253.051c.269.055.566.111.866.174a81.861,81.861,0,0,0,12.951.76c2.694,0,5.206-.051,7.551-.15C96.786,61.868,104.286,60.227,108.076,59.131Z" transform="translate(29.447 109.02)" fill="#969aa8"/>
              <path id="Trazado_225407" data-name="Trazado 225407" d="M63.578,27.774c-.21,1.262-.87,2.2-1.475,2.1s-.922-1.2-.712-2.464.87-2.2,1.472-2.1S63.787,26.516,63.578,27.774Z" transform="translate(39.626 9.044)" fill="#773128"/>
              <path id="Trazado_225408" data-name="Trazado 225408" d="M67.2,27.774c-.21,1.262-.87,2.2-1.471,2.1s-.926-1.2-.716-2.464.87-2.2,1.475-2.1S67.41,26.516,67.2,27.774Z" transform="translate(50.334 9.044)" fill="#773128"/>
              <path id="Trazado_225409" data-name="Trazado 225409" d="M61.136,26.365a10.836,10.836,0,0,1,3.2-1.092c1.385-.127,3.339-.079,3.339-.079s.581-1.392-.036-1.8-3.58-.044-4.668.672A6.564,6.564,0,0,0,61.136,26.365Z" transform="translate(39.065 2.913)" fill="#773128"/>
              <path id="Trazado_225410" data-name="Trazado 225410" d="M65.991,23.374c-1.068.178-1.1,2.188-1.1,2.188a11.015,11.015,0,0,1,4.157.791,14.877,14.877,0,0,1,2.642,1.962s-1.1-3.228-2.456-4.082A4.822,4.822,0,0,0,65.991,23.374Z" transform="translate(50.152 3.218)" fill="#773128"/>
              <path id="Trazado_225411" data-name="Trazado 225411" d="M62.3,27.906h7.12s-1.341,3.7-2.682,3.932S62.3,27.906,62.3,27.906Z" transform="translate(42.494 16.728)" fill="#fff"/>
              <path id="Trazado_225412" data-name="Trazado 225412" d="M64.367,34.186a.54.54,0,0,1-.277-.075,2.77,2.77,0,0,1-1.44-3.137A3.364,3.364,0,0,1,64.3,28.83a5.638,5.638,0,0,0,.866-.728,5.814,5.814,0,0,0,.649-2.967.544.544,0,0,1,1.088,0c0,.273-.028,2.69-.926,3.691a6.746,6.746,0,0,1-1.032.878c-.605.447-1.127.831-1.214,1.428a1.712,1.712,0,0,0,.918,2.045.542.542,0,0,1-.277,1.009Z" transform="translate(43.382 6.936)" fill="#d87360"/>
              <path id="Trazado_225413" data-name="Trazado 225413" d="M68.01,30.314a.531.531,0,0,1-.364-.138.538.538,0,0,1-.044-.759c.059-.067,1.472-1.606,4.755-1.317a.54.54,0,0,1,.494.589.526.526,0,0,1-.593.491c-2.7-.245-3.8.91-3.845.961A.554.554,0,0,1,68.01,30.314Z" transform="translate(57.776 17.192)" fill="#d87360"/>
              <path id="Trazado_225414" data-name="Trazado 225414" d="M98.059,28.9a14.651,14.651,0,0,1-1.218,2.239A7.818,7.818,0,0,1,90,33.237s-.783,4.691-3.141,6.7a15.46,15.46,0,0,1-7.4,3.283l-.186,8.386L85.6,54.851l-8.552-2.144-.629-8.323-6.942-1.9c-.142-.043-1.175-.411-1.175-.411a25,25,0,0,1-6.226-3.932A7.648,7.648,0,0,1,60.088,35.3c.008,0,1.7,5.055,12.294,4.85,9.067-.178,14.039-2.223,16.04-5.439a6.4,6.4,0,0,0,1.021-2.583S95.049,32.5,98.059,28.9Z" transform="translate(35.967 19.672)" fill="#d87360"/>
              <path id="hair_1" data-name="hair 1" d="M101.58,34.473a4.726,4.726,0,0,1-3.762,2.607,6.846,6.846,0,0,1-5.87-3.96c-.894-2.148-1.321-2.247-2.8-1.784a32.309,32.309,0,0,1-13.96,1.618,7.134,7.134,0,0,1-3.1-1.088,13.815,13.815,0,0,0-10.095,5.51,21.353,21.353,0,0,1-1.123-3.96,4.964,4.964,0,0,1-.131-.728,6.567,6.567,0,0,1,.4-3.465c1.816-3.6,6.3-2.373,6.3-2.373a18.361,18.361,0,0,1-.229-2.674,9.62,9.62,0,0,1,.261-2.342l.1.328a2.7,2.7,0,0,0-.067-.494A5.62,5.62,0,0,1,68.882,19.1c2.508-2.642,17.061-3.9,21.515,0s3.659,8.477,3.659,8.477a8.245,8.245,0,0,1,6.238,1.883C101.351,30.347,101.648,33.021,101.58,34.473Z" transform="translate(37.699 -16.623)" fill="#a54d3c"/>
            </g>
            <g id="circles" transform="translate(120.872 85.504)">
              <g id="Grupo_222060" data-name="Grupo 222060">
                <g id="Grupo_222059" data-name="Grupo 222059">
                  <g id="Grupo_222058" data-name="Grupo 222058">
                    <g id="Grupo_222057" data-name="Grupo 222057">
                      <path id="Trazado_225415" data-name="Trazado 225415" d="M69.105,64.068A15.267,15.267,0,1,1,84.374,48.8,15.285,15.285,0,0,1,69.105,64.068Zm0-28.058A12.793,12.793,0,1,0,81.9,48.8,12.806,12.806,0,0,0,69.105,36.01Z" transform="translate(-53.836 -33.534)" fill="#feca2e"/>
                    </g>
                  </g>
                </g>
              </g>
              <path id="Trazado_225416" data-name="Trazado 225416" d="M71.768,43.412a8.054,8.054,0,1,1-8.054-8.054A8.056,8.056,0,0,1,71.768,43.412Z" transform="translate(-48.445 -28.143)" fill="#feca2e"/>
              <g id="Grupo_222064" data-name="Grupo 222064" transform="translate(11.745 167.639)">
                <g id="Grupo_222063" data-name="Grupo 222063">
                  <g id="Grupo_222062" data-name="Grupo 222062">
                    <g id="Grupo_222061" data-name="Grupo 222061">
                      <path id="Trazado_225417" data-name="Trazado 225417" d="M72.074,106.447A15.267,15.267,0,1,1,87.339,91.182,15.285,15.285,0,0,1,72.074,106.447Zm0-28.062a12.793,12.793,0,1,0,12.793,12.8A12.807,12.807,0,0,0,72.074,78.385Z" transform="translate(-56.805 -75.913)" fill="#feca2e"/>
                    </g>
                  </g>
                </g>
              </g>
              <path id="Trazado_225418" data-name="Trazado 225418" d="M74.737,85.787a8.054,8.054,0,1,1-8.054-8.05A8.054,8.054,0,0,1,74.737,85.787Z" transform="translate(-39.669 97.117)" fill="#feca2e"/>
              <g id="Grupo_222068" data-name="Grupo 222068" transform="translate(42.235 65.558)">
                <g id="Grupo_222067" data-name="Grupo 222067">
                  <g id="Grupo_222066" data-name="Grupo 222066">
                    <g id="Grupo_222065" data-name="Grupo 222065">
                      <path id="Trazado_225419" data-name="Trazado 225419" d="M79.778,80.641A15.267,15.267,0,1,1,95.047,65.376,15.282,15.282,0,0,1,79.778,80.641Zm0-28.062a12.795,12.795,0,1,0,12.793,12.8A12.809,12.809,0,0,0,79.778,52.579Z" transform="translate(-64.513 -50.107)" fill="#feca2e"/>
                    </g>
                  </g>
                </g>
              </g>
              <path id="Trazado_225420" data-name="Trazado 225420" d="M82.444,59.985a8.054,8.054,0,1,1-8.054-8.054A8.053,8.053,0,0,1,82.444,59.985Z" transform="translate(-16.89 20.842)" fill="#feca2e"/>
            </g>
          </g>
        </g>
      </g>
    </g>
  </g>
</svg>
