<svg xmlns="http://www.w3.org/2000/svg" width="44.071" height="38.365" viewBox="0 0 44.071 38.365">
  <g id="Grupo_222433" data-name="Grupo 222433" transform="translate(-1272 -8645.482)">
    <g id="Grupo_222432" data-name="Grupo 222432">
      <g id="Grupo_222431" data-name="Grupo 222431">
        <g id="Grupo_141331" data-name="Grupo 141331" transform="translate(1272 8645.482)">
          <path id="Trazado_197563" data-name="Trazado 197563" d="M3327.48,5224.931l5.6-5.458a.655.655,0,0,0-.363-1.118l-7.738-1.125-3.46-7.012a.656.656,0,0,0-1.175,0l-3.46,7.012-7.738,1.125a.655.655,0,0,0-.363,1.118l5.6,5.458-1.322,7.707a.655.655,0,0,0,.95.69l6.921-3.639,6.921,3.639a.655.655,0,0,0,.951-.69Zm-6.245,3.438a.655.655,0,0,0-.61,0l-6.051,3.181,1.156-6.738a.654.654,0,0,0-.188-.58l-4.9-4.772,6.765-.983a.656.656,0,0,0,.493-.358l3.025-6.13,3.026,6.13a.655.655,0,0,0,.493.358l6.765.983-4.9,4.772a.654.654,0,0,0-.188.58l1.155,6.738Z" transform="translate(-3298.857 -5195.038)" fill="#0f2771"/>
          <path id="Trazado_197564" data-name="Trazado 197564" d="M3288.982,5247.439h-11.039l2.2-2.284a.655.655,0,0,0,0-.909l-2.2-2.284h5.634a.655.655,0,1,0,0-1.31H3276.4a.655.655,0,0,0-.472,1.109l2.831,2.939-2.831,2.939a.655.655,0,0,0,.472,1.109h12.58a.655.655,0,0,0,0-1.31Z" transform="translate(-3275.748 -5216.713)" fill="#0f2771"/>
          <path id="Trazado_197565" data-name="Trazado 197565" d="M3388.514,5244.7l2.831-2.939a.655.655,0,0,0-.471-1.109H3383.7a.655.655,0,1,0,0,1.31h5.634l-2.2,2.284a.655.655,0,0,0,0,.909l2.2,2.284h-11.039a.655.655,0,1,0,0,1.31h12.58a.655.655,0,0,0,.471-1.109Z" transform="translate(-3347.457 -5216.713)" fill="#0f2771"/>
          <path id="Trazado_197566" data-name="Trazado 197566" d="M3340.227,5168.584a4.375,4.375,0,1,0-4.375-4.375A4.381,4.381,0,0,0,3340.227,5168.584Zm0-7.44a3.065,3.065,0,1,1-3.065,3.065A3.068,3.068,0,0,1,3340.227,5161.144Z" transform="translate(-3318.048 -5159.834)" fill="#0f2771"/>
          <path id="Trazado_197567" data-name="Trazado 197567" d="M3325.079,5204.039a.671.671,0,0,0,.138.015.655.655,0,0,0,.64-.518l1.509-7.014a4.188,4.188,0,0,1,4.073-3.29h1.79a4.177,4.177,0,0,1,4.085,3.349l1.389,6.945a.655.655,0,0,0,1.285-.257l-1.389-6.946a5.491,5.491,0,0,0-5.37-4.4h-1.79a5.5,5.5,0,0,0-5.353,4.325l-1.509,7.013A.655.655,0,0,0,3325.079,5204.039Z" transform="translate(-3310.103 -5182.418)" fill="#0f2771"/>
          <path id="Trazado_197568" data-name="Trazado 197568" d="M3295.75,5183.073a3.852,3.852,0,1,0-3.852-3.852A3.856,3.856,0,0,0,3295.75,5183.073Zm0-6.393a2.542,2.542,0,1,1-2.542,2.542A2.544,2.544,0,0,1,3295.75,5176.68Z" transform="translate(-3287.115 -5170.768)" fill="#0f2771"/>
          <path id="Trazado_197569" data-name="Trazado 197569" d="M3283.507,5213.1a.631.631,0,0,0,.124.012.656.656,0,0,0,.643-.533l1.064-5.582a3.506,3.506,0,0,1,3.408-2.747h1.539a3.5,3.5,0,0,1,3.42,2.8.655.655,0,0,0,1.285-.257,4.811,4.811,0,0,0-4.7-3.856h-1.539a4.823,4.823,0,0,0-4.69,3.789l0,.015-1.066,5.59A.654.654,0,0,0,3283.507,5213.1Z" transform="translate(-3280.834 -5190.175)" fill="#0f2771"/>
          <path id="Trazado_197570" data-name="Trazado 197570" d="M3386.542,5183.073a3.852,3.852,0,1,0-3.852-3.852A3.856,3.856,0,0,0,3386.542,5183.073Zm0-6.393a2.542,2.542,0,1,1-2.542,2.542A2.544,2.544,0,0,1,3386.542,5176.68Z" transform="translate(-3351.013 -5170.768)" fill="#0f2771"/>
          <path id="Trazado_197571" data-name="Trazado 197571" d="M3377.545,5207.572a.655.655,0,0,0,.771-.514,3.5,3.5,0,0,1,3.42-2.8h1.538a3.506,3.506,0,0,1,3.408,2.747l1.065,5.582a.655.655,0,0,0,.642.533.627.627,0,0,0,.124-.012.654.654,0,0,0,.521-.766l-1.066-5.59,0-.015a4.823,4.823,0,0,0-4.69-3.789h-1.538a4.811,4.811,0,0,0-4.7,3.856A.655.655,0,0,0,3377.545,5207.572Z" transform="translate(-3347.021 -5190.175)" fill="#0f2771"/>
        </g>
      </g>
    </g>
  </g>
</svg>
