<svg xmlns="http://www.w3.org/2000/svg" width="366" height="238" viewBox="0 0 366 238">
  <g id="Grupo_222348" data-name="Grupo 222348" transform="translate(-180 -15213)">
    <g id="Grupo_222347" data-name="Grupo 222347">
      <g id="Grupo_222346" data-name="Grupo 222346">
        <g id="Grupo_222122" data-name="Grupo 222122" transform="translate(0 -178)">
          <g id="Grupo_222118" data-name="Grupo 222118" transform="translate(-874 453)">
            <rect id="Rectángulo_295776" data-name="Rectángulo 295776" width="366" height="238" rx="13" transform="translate(1054 14938)" fill="#feca2e"/>
            <g id="Grupo_222116" data-name="Grupo 222116" transform="translate(912.777 14893.366)">
              <rect id="Rectángulo_295540" data-name="Rectángulo 295540" width="346.657" height="224.459" rx="13" transform="translate(148.72 51.104)" fill="#fff"/>
              <rect id="Rectángulo_295541" data-name="Rectángulo 295541" width="121.72" height="121.72" transform="translate(148.72 87.539)" fill="#f5f5f5"/>
              <path id="Trazado_225606" data-name="Trazado 225606" d="M15,0H331.657a15,15,0,0,1,15,15V36.435H0V15A15,15,0,0,1,15,0Z" transform="translate(148.72 51.104)" fill="#feca2e"/>
              <g id="Grupo_215042" data-name="Grupo 215042" transform="translate(161.382 65.431)">
                <path id="Trazado_223295" data-name="Trazado 223295" d="M164.688,63.479a4.54,4.54,0,1,1-4.54-4.54A4.54,4.54,0,0,1,164.688,63.479Z" transform="translate(-155.609 -58.939)" fill="#fff"/>
                <path id="Trazado_223296" data-name="Trazado 223296" d="M172.394,63.479a4.54,4.54,0,1,1-4.54-4.54A4.54,4.54,0,0,1,172.394,63.479Z" transform="translate(-149.586 -58.939)" fill="#fff"/>
                <path id="Trazado_223297" data-name="Trazado 223297" d="M180.1,63.479a4.54,4.54,0,1,1-4.54-4.54A4.54,4.54,0,0,1,180.1,63.479Z" transform="translate(-143.563 -58.939)" fill="#fff"/>
              </g>
              <g id="Grupo_215139" data-name="Grupo 215139" transform="translate(148.326 209.259)">
                <path id="Rectángulo_295543" data-name="Rectángulo 295543" d="M0,0H348.431a0,0,0,0,1,0,0V51.3a15,15,0,0,1-15,15H15a15,15,0,0,1-15-15V0A0,0,0,0,1,0,0Z" fill="#ebebeb"/>
                <g id="Grupo_215131" data-name="Grupo 215131" transform="translate(15.428 17.628)">
                  <path id="Trazado_223333" data-name="Trazado 223333" d="M182.8,150.026c0,.257-5.788.465-12.929.465s-12.929-.208-12.929-.465,5.788-.463,12.929-.463S182.8,149.771,182.8,150.026Z" transform="translate(-156.94 -149.563)" fill="#263238"/>
                </g>
                <g id="Grupo_215132" data-name="Grupo 215132" transform="translate(15.171 27.058)">
                  <path id="Trazado_223334" data-name="Trazado 223334" d="M238.625,155.319c0,.257-18.32.465-40.913.465s-40.916-.208-40.916-.465,18.315-.463,40.916-.463S238.625,155.064,238.625,155.319Z" transform="translate(-156.796 -154.856)" fill="#263238"/>
                </g>
                <g id="Grupo_215133" data-name="Grupo 215133" transform="translate(15.171 37.689)">
                  <path id="Trazado_223335" data-name="Trazado 223335" d="M238.625,161.286c0,.257-18.32.465-40.913.465s-40.916-.208-40.916-.465,18.315-.463,40.916-.463S238.625,161.031,238.625,161.286Z" transform="translate(-156.796 -160.823)" fill="#263238"/>
                </g>
                <g id="Grupo_215134" data-name="Grupo 215134" transform="translate(15.171 48.32)">
                  <path id="Trazado_223336" data-name="Trazado 223336" d="M214.037,167.255c0,.255-12.815.463-28.62.463s-28.622-.208-28.622-.463,12.812-.465,28.622-.465S214.037,167,214.037,167.255Z" transform="translate(-156.796 -166.79)" fill="#263238"/>
                </g>
                <g id="Grupo_215135" data-name="Grupo 215135" transform="translate(203.244 17.628)">
                  <path id="Trazado_223337" data-name="Trazado 223337" d="M250.241,150.026c0,.257-5.788.465-12.927.465s-12.929-.208-12.929-.465,5.787-.463,12.929-.463S250.241,149.771,250.241,150.026Z" transform="translate(-224.385 -149.563)" fill="#263238"/>
                </g>
                <g id="Grupo_215136" data-name="Grupo 215136" transform="translate(242.709 27.058)">
                  <path id="Trazado_223338" data-name="Trazado 223338" d="M306.071,155.319c0,.257-18.32.465-40.913.465s-40.918-.208-40.918-.465,18.317-.463,40.918-.463S306.071,155.064,306.071,155.319Z" transform="translate(-224.24 -154.856)" fill="#263238"/>
                </g>
                <g id="Grupo_215137" data-name="Grupo 215137" transform="translate(242.709 37.689)">
                  <path id="Trazado_223339" data-name="Trazado 223339" d="M306.071,161.286c0,.257-18.32.465-40.913.465s-40.918-.208-40.918-.465,18.317-.463,40.918-.463S306.071,161.031,306.071,161.286Z" transform="translate(-224.24 -160.823)" fill="#263238"/>
                </g>
                <g id="Grupo_215138" data-name="Grupo 215138" transform="translate(214.387 48.32)">
                  <path id="Trazado_223340" data-name="Trazado 223340" d="M281.481,167.255c0,.255-12.815.463-28.62.463s-28.622-.208-28.622-.463,12.813-.465,28.622-.465S281.481,167,281.481,167.255Z" transform="translate(-224.24 -166.79)" fill="#263238"/>
                </g>
              </g>
              <g id="Grupo_215140" data-name="Grupo 215140" transform="translate(148.223 50.633)">
                <path id="Trazado_223341" data-name="Trazado 223341" d="M474.391,275.564c-.005-.052,1.157.007,3.352-.246a28.075,28.075,0,0,0,9.051-2.564c3.506-1.7,7.26-4.716,8.655-9.024.763-2.134.45-4.531.5-7.071q-.012-3.816-.031-8.121c-.049-22.963-.121-56.163-.211-97.183-.026-20.517-.054-42.988-.082-67.111q-.008-9.046-.018-18.4a14.076,14.076,0,0,0-.45-4.581,10.693,10.693,0,0,0-2.581-4.19,19.423,19.423,0,0,0-10.7-5.19,37.7,37.7,0,0,0-6.792-.371l-7.028,0-14.205.005q-14.3,0-28.982.009l-254.657.036a35.7,35.7,0,0,0-8.175.563,20.942,20.942,0,0,0-6.925,2.849c-4.005,2.6-5.866,6.4-5.5,10.205q0,11.6,0,23.033,0,22.871-.01,45.032c-.013,29.525-.026,58-.039,85.131q-.015,20.345-.028,39.643c.023,1.6-.054,3.23.049,4.78a9.919,9.919,0,0,0,1.488,4.477,16.839,16.839,0,0,0,8.889,6.5,24.491,24.491,0,0,0,6.211,1.292c2.128.146,4.388.082,6.594.1l13.164.007,96.837.055c59.187.062,107.086.114,140.217.148l38.123.087,9.915.046c2.231.016,3.375.048,3.375.048s-1.144.03-3.375.046l-9.915.046-38.123.087c-33.131.034-81.03.086-140.217.148l-96.837.055q-6.528.005-13.164.007c-2.218-.016-4.411.057-6.725-.1a26.073,26.073,0,0,1-6.591-1.365c-4.139-1.431-7.581-3.889-9.442-6.891a10.574,10.574,0,0,1-1.594-4.755c-.105-1.636-.031-3.207-.057-4.823q-.011-19.279-.028-39.643c-.013-27.129-.026-55.606-.039-85.131q0-22.141-.01-45.032,0-11.435,0-23.033c-.4-3.895,1.612-8.131,5.915-10.875a22.528,22.528,0,0,1,7.45-3.064,37.651,37.651,0,0,1,8.576-.606l254.657.037,28.982.009,14.205.005,7.028,0a39.387,39.387,0,0,1,7.072.4,20.658,20.658,0,0,1,11.385,5.535,11.381,11.381,0,0,1,2.743,4.463,14.609,14.609,0,0,1,.468,4.755q-.008,9.351-.016,18.4c-.031,24.123-.057,46.594-.082,67.111-.09,41.02-.162,74.22-.213,97.183q-.015,4.3-.031,8.121c-.072,2.526.224,4.946-.573,7.132-1.465,4.381-5.313,7.419-8.889,9.117a27.992,27.992,0,0,1-9.182,2.5,22.58,22.58,0,0,1-2.522.144C474.679,275.57,474.391,275.564,474.391,275.564Z" transform="translate(-148.223 -50.633)" fill="#263238"/>
              </g>
              <g id="Grupo_222120" data-name="Grupo 222120" transform="translate(162.719 172.283)">
                <g id="Grupo_214817" data-name="Grupo 214817" transform="translate(0 0)">
                  <g id="Grupo_214816" data-name="Grupo 214816">
                    <g id="Grupo_214815" data-name="Grupo 214815">
                      <g id="Grupo_214812" data-name="Grupo 214812">
                        <path id="Trazado_223260" data-name="Trazado 223260" d="M63.305,212.126l11.265-.94s6.215,8.193,14.667,7.56,9.375-6.31,9.375-6.31,15.078,2.9,23.27,11.57l.187.237,10.846,24.822H58.083Z" transform="translate(-39.193 -211.186)" fill="#455a64"/>
                        <g id="Grupo_214811" data-name="Grupo 214811" transform="translate(0 0.862)">
                          <g id="Grupo_214810" data-name="Grupo 214810">
                            <path id="Trazado_223261" data-name="Trazado 223261" d="M71.01,211.706s-5.89.97-9.425,3.047c-7.959,4.683-14.9,33.97-14.9,33.97H68.878s6.151-9.317,8.709-17.265c.6-1.863-.766-11.186-.764-11.108C76.822,220.35,71.013,211.893,71.01,211.706Z" transform="translate(-46.689 -211.706)" fill="#455a64"/>
                          </g>
                        </g>
                      </g>
                      <g id="Grupo_214813" data-name="Grupo 214813" transform="translate(76.124 25.952)">
                        <path id="Trazado_223262" data-name="Trazado 223262" d="M94.446,234.624c-.169,0-.174-1.81-.69-3.937s-1.285-3.77-1.129-3.845a8.633,8.633,0,0,1,1.663,3.715A7.99,7.99,0,0,1,94.446,234.624Z" transform="translate(-92.607 -226.84)" fill="#263238"/>
                      </g>
                      <g id="Grupo_214814" data-name="Grupo 214814" transform="translate(22.189 15.567)">
                        <path id="Trazado_223263" data-name="Trazado 223263" d="M60.088,241.633a23.387,23.387,0,0,1,.552-3.064,74.556,74.556,0,0,0,1.049-7.4c.257-2.91.308-5.557.315-7.475a21.444,21.444,0,0,1,.07-3.113,14.879,14.879,0,0,1,.318,3.105,56.744,56.744,0,0,1-.156,7.533,50.485,50.485,0,0,1-1.219,7.437A13.976,13.976,0,0,1,60.088,241.633Z" transform="translate(-60.073 -220.576)" fill="#263238"/>
                      </g>
                    </g>
                  </g>
                </g>
              </g>
              <g id="Grupo_222121" data-name="Grupo 222121" transform="translate(181.611 107.767)">
                <g id="Grupo_215035" data-name="Grupo 215035" transform="translate(0 0)">
                  <g id="Grupo_214829" data-name="Grupo 214829" transform="translate(5.599)">
                    <path id="Trazado_223273" data-name="Trazado 223273" d="M66.82,182.926a27.7,27.7,0,0,1,21.444-10.65c4.869-.081,6.885.93,10.393,1.873a15.377,15.377,0,0,1,8.765,5.786c2.485,3.52,4.572,7.462,5.043,11.743a71.908,71.908,0,0,1,.633,13.233,24.147,24.147,0,0,1-4.136,12.434l-11.245,1.95c-6.212.211-12.508.414-18.56-1s-11.932-4.664-15.173-9.954C59.484,200.988,61.355,189.594,66.82,182.926Z" transform="translate(-61.462 -172.271)" fill="#263238"/>
                  </g>
                  <g id="Grupo_214832" data-name="Grupo 214832" transform="translate(49.697 41.134)">
                    <g id="Grupo_214831" data-name="Grupo 214831">
                      <g id="Grupo_214830" data-name="Grupo 214830">
                        <path id="Trazado_223274" data-name="Trazado 223274" d="M88.063,207.34c-.023.027.182.277.671.589a5.523,5.523,0,0,0,2.316.781,6.016,6.016,0,0,0,3.576-.723A5.977,5.977,0,0,0,96.79,200a6,6,0,0,0-2.722-2.424,5.556,5.556,0,0,0-2.4-.491,1.741,1.741,0,0,0-.877.171,8.421,8.421,0,0,1,3.067.748,5.782,5.782,0,0,1,2.389,2.3,5.505,5.505,0,0,1-1.938,7.152,5.806,5.806,0,0,1-3.225.784A8.383,8.383,0,0,1,88.063,207.34Z" transform="translate(-88.061 -197.083)" fill="#e0e0e0"/>
                      </g>
                    </g>
                  </g>
                  <g id="Grupo_214833" data-name="Grupo 214833" transform="translate(0 36.057)">
                    <path id="Trazado_223275" data-name="Trazado 223275" d="M58.142,201.2a8.379,8.379,0,0,1,3.808-6.316,6.057,6.057,0,0,1,7.1.613l1.767,2.1a7.242,7.242,0,0,1,4.176,7.3,7.944,7.944,0,0,1-5.516,6.5,8.821,8.821,0,0,1-8.384-2.021A9.846,9.846,0,0,1,58.142,201.2Z" transform="translate(-58.084 -194.021)" fill="#263238"/>
                  </g>
                  <g id="Grupo_214835" data-name="Grupo 214835" transform="translate(1.291 38.852)">
                    <g id="Grupo_214834" data-name="Grupo 214834">
                      <path id="Trazado_223276" data-name="Trazado 223276" d="M59.859,207.658a3.783,3.783,0,0,1-.605-2.233,10.127,10.127,0,0,1,2.575-5.045,15.191,15.191,0,0,1,4.506-3.606c1.318-.706,2.223-.963,2.195-1.056a6.137,6.137,0,0,0-2.367.706,13.557,13.557,0,0,0-4.755,3.6,13.253,13.253,0,0,0-1.819,2.759,6.059,6.059,0,0,0-.726,2.629,3.17,3.17,0,0,0,.506,1.781C59.622,207.555,59.838,207.681,59.859,207.658Z" transform="translate(-58.863 -195.706)" fill="#455a64"/>
                    </g>
                  </g>
                  <g id="Grupo_214837" data-name="Grupo 214837" transform="translate(7.182 39.995)">
                    <g id="Grupo_214836" data-name="Grupo 214836">
                      <path id="Trazado_223277" data-name="Trazado 223277" d="M62.963,210.518c.184-.012-.582-3.4.5-7.412,1.025-4.024,3.357-6.608,3.2-6.708a6.046,6.046,0,0,0-1.485,1.666,15.587,15.587,0,0,0-2.694,10.275A6.014,6.014,0,0,0,62.963,210.518Z" transform="translate(-62.416 -196.396)" fill="#455a64"/>
                    </g>
                  </g>
                  <g id="Grupo_215029" data-name="Grupo 215029" transform="translate(10.413 4.633)">
                    <g id="Grupo_215028" data-name="Grupo 215028">
                      <g id="Grupo_214842" data-name="Grupo 214842" transform="translate(6.139)">
                        <g id="Grupo_214841" data-name="Grupo 214841">
                          <g id="Grupo_214840" data-name="Grupo 214840">
                            <g id="Grupo_214839" data-name="Grupo 214839">
                              <g id="Grupo_214838" data-name="Grupo 214838">
                                <path id="Trazado_223278" data-name="Trazado 223278" d="M93.267,238.932s-.061-10.43-.06-10.411c0,0,9.17-1.008,11.7-12.737,1.262-5.832,1.5-15.5,1.431-23.409-.058-7.124-6.136-16.822-14.949-16.854l-3.917-.454-14.992,5.947a4.173,4.173,0,0,0-3.964,4.017l-.451,50.1,25.05,35.112.149-31.307Z" transform="translate(-68.068 -175.066)" fill="#b56760"/>
                              </g>
                            </g>
                          </g>
                        </g>
                      </g>
                      <g id="Grupo_214843" data-name="Grupo 214843" transform="translate(25.334 35.815)">
                        <path id="Trazado_223279" data-name="Trazado 223279" d="M79.664,198.828a2.5,2.5,0,0,1,.865-1.542,2.56,2.56,0,0,1,3.1-.176,3.414,3.414,0,0,1,1.3,3.208h0a3.107,3.107,0,0,1-2.228,1.29,3.925,3.925,0,0,1-.419.013,2.79,2.79,0,0,1-1.883-.744A2.485,2.485,0,0,1,79.664,198.828Z" transform="translate(-79.646 -196.669)" fill="#8a4a43"/>
                      </g>
                      <g id="Grupo_214995" data-name="Grupo 214995" transform="translate(15.63 13.974)">
                        <g id="Grupo_214994" data-name="Grupo 214994">
                          <g id="Grupo_214993" data-name="Grupo 214993">
                            <g id="Grupo_214859" data-name="Grupo 214859" transform="translate(20.791 10.049)">
                              <g id="Grupo_214858" data-name="Grupo 214858">
                                <g id="Grupo_214857" data-name="Grupo 214857">
                                  <g id="Grupo_214856" data-name="Grupo 214856">
                                    <g id="Grupo_214855" data-name="Grupo 214855">
                                      <g id="Grupo_214854" data-name="Grupo 214854">
                                        <g id="Grupo_214853" data-name="Grupo 214853">
                                          <g id="Grupo_214852" data-name="Grupo 214852">
                                            <g id="Grupo_214851" data-name="Grupo 214851">
                                              <g id="Grupo_214850" data-name="Grupo 214850">
                                                <g id="Grupo_214849" data-name="Grupo 214849">
                                                  <g id="Grupo_214848" data-name="Grupo 214848">
                                                    <g id="Grupo_214847" data-name="Grupo 214847">
                                                      <g id="Grupo_214846" data-name="Grupo 214846">
                                                        <g id="Grupo_214845" data-name="Grupo 214845">
                                                          <g id="Grupo_214844" data-name="Grupo 214844">
                                                            <path id="Trazado_223280" data-name="Trazado 223280" d="M89.376,191.01a1.519,1.519,0,0,1-1.55,1.451,1.453,1.453,0,0,1-1.492-1.452,1.52,1.52,0,0,1,1.548-1.452A1.455,1.455,0,0,1,89.376,191.01Z" transform="translate(-86.334 -189.556)" fill="#263238"/>
                                                          </g>
                                                        </g>
                                                      </g>
                                                    </g>
                                                  </g>
                                                </g>
                                              </g>
                                            </g>
                                          </g>
                                        </g>
                                      </g>
                                    </g>
                                  </g>
                                </g>
                              </g>
                            </g>
                            <g id="Grupo_214876" data-name="Grupo 214876" transform="translate(19.859 5.961)">
                              <g id="Grupo_214875" data-name="Grupo 214875">
                                <g id="Grupo_214874" data-name="Grupo 214874">
                                  <g id="Grupo_214873" data-name="Grupo 214873">
                                    <g id="Grupo_214872" data-name="Grupo 214872">
                                      <g id="Grupo_214871" data-name="Grupo 214871">
                                        <g id="Grupo_214870" data-name="Grupo 214870">
                                          <g id="Grupo_214869" data-name="Grupo 214869">
                                            <g id="Grupo_214868" data-name="Grupo 214868">
                                              <g id="Grupo_214867" data-name="Grupo 214867">
                                                <g id="Grupo_214866" data-name="Grupo 214866">
                                                  <g id="Grupo_214865" data-name="Grupo 214865">
                                                    <g id="Grupo_214864" data-name="Grupo 214864">
                                                      <g id="Grupo_214863" data-name="Grupo 214863">
                                                        <g id="Grupo_214862" data-name="Grupo 214862">
                                                          <g id="Grupo_214861" data-name="Grupo 214861">
                                                            <g id="Grupo_214860" data-name="Grupo 214860">
                                                              <path id="Trazado_223281" data-name="Trazado 223281" d="M91.777,188.855c-.2.187-1.3-.726-2.943-.812-1.633-.108-2.88.666-3.045.456-.083-.093.129-.439.671-.791a4.192,4.192,0,0,1,2.454-.61,4.023,4.023,0,0,1,2.328.894C91.724,188.4,91.875,188.772,91.777,188.855Z" transform="translate(-85.772 -187.091)" fill="#263238"/>
                                                            </g>
                                                          </g>
                                                        </g>
                                                      </g>
                                                    </g>
                                                  </g>
                                                </g>
                                              </g>
                                            </g>
                                          </g>
                                        </g>
                                      </g>
                                    </g>
                                  </g>
                                </g>
                              </g>
                            </g>
                            <g id="Grupo_214892" data-name="Grupo 214892" transform="translate(15.559 6.45)">
                              <g id="Grupo_214891" data-name="Grupo 214891">
                                <g id="Grupo_214890" data-name="Grupo 214890">
                                  <g id="Grupo_214889" data-name="Grupo 214889">
                                    <g id="Grupo_214888" data-name="Grupo 214888">
                                      <g id="Grupo_214887" data-name="Grupo 214887">
                                        <g id="Grupo_214886" data-name="Grupo 214886">
                                          <g id="Grupo_214885" data-name="Grupo 214885">
                                            <g id="Grupo_214884" data-name="Grupo 214884">
                                              <g id="Grupo_214883" data-name="Grupo 214883">
                                                <g id="Grupo_214882" data-name="Grupo 214882">
                                                  <g id="Grupo_214881" data-name="Grupo 214881">
                                                    <g id="Grupo_214880" data-name="Grupo 214880">
                                                      <g id="Grupo_214879" data-name="Grupo 214879">
                                                        <g id="Grupo_214878" data-name="Grupo 214878">
                                                          <g id="Grupo_214877" data-name="Grupo 214877">
                                                            <path id="Trazado_223282" data-name="Trazado 223282" d="M83.2,201.031a10.9,10.9,0,0,1,2.684-.332c.419-.022.821-.083.907-.363a2.127,2.127,0,0,0-.212-1.25q-.5-1.547-1.061-3.244c-1.467-4.614-2.5-8.4-2.318-8.455s1.527,3.636,2.994,8.25q.527,1.706,1.008,3.259a2.411,2.411,0,0,1,.128,1.648,1.049,1.049,0,0,1-.721.572,2.821,2.821,0,0,1-.715.06A10.582,10.582,0,0,1,83.2,201.031Z" transform="translate(-83.178 -187.386)" fill="#263238"/>
                                                          </g>
                                                        </g>
                                                      </g>
                                                    </g>
                                                  </g>
                                                </g>
                                              </g>
                                            </g>
                                          </g>
                                        </g>
                                      </g>
                                    </g>
                                  </g>
                                </g>
                              </g>
                            </g>
                            <g id="Grupo_214907" data-name="Grupo 214907" transform="translate(0 34.385)">
                              <g id="Grupo_214906" data-name="Grupo 214906">
                                <g id="Grupo_214905" data-name="Grupo 214905">
                                  <g id="Grupo_214904" data-name="Grupo 214904">
                                    <g id="Grupo_214903" data-name="Grupo 214903">
                                      <g id="Grupo_214902" data-name="Grupo 214902">
                                        <g id="Grupo_214901" data-name="Grupo 214901">
                                          <g id="Grupo_214900" data-name="Grupo 214900">
                                            <g id="Grupo_214899" data-name="Grupo 214899">
                                              <g id="Grupo_214898" data-name="Grupo 214898">
                                                <g id="Grupo_214897" data-name="Grupo 214897">
                                                  <g id="Grupo_214896" data-name="Grupo 214896">
                                                    <g id="Grupo_214895" data-name="Grupo 214895">
                                                      <g id="Grupo_214894" data-name="Grupo 214894">
                                                        <g id="Grupo_214893" data-name="Grupo 214893">
                                                          <path id="Trazado_223283" data-name="Trazado 223283" d="M89.44,209.331a30.261,30.261,0,0,1-15.647-5.1s3.78,8.432,15.708,7.974Z" transform="translate(-73.793 -204.235)" fill="#8a4a43"/>
                                                        </g>
                                                      </g>
                                                    </g>
                                                  </g>
                                                </g>
                                              </g>
                                            </g>
                                          </g>
                                        </g>
                                      </g>
                                    </g>
                                  </g>
                                </g>
                              </g>
                            </g>
                            <g id="Grupo_214923" data-name="Grupo 214923" transform="translate(10.384 20.962)">
                              <g id="Grupo_214922" data-name="Grupo 214922">
                                <g id="Grupo_214921" data-name="Grupo 214921">
                                  <g id="Grupo_214920" data-name="Grupo 214920">
                                    <g id="Grupo_214919" data-name="Grupo 214919">
                                      <g id="Grupo_214918" data-name="Grupo 214918">
                                        <g id="Grupo_214917" data-name="Grupo 214917">
                                          <g id="Grupo_214916" data-name="Grupo 214916">
                                            <g id="Grupo_214915" data-name="Grupo 214915">
                                              <g id="Grupo_214914" data-name="Grupo 214914">
                                                <g id="Grupo_214913" data-name="Grupo 214913">
                                                  <g id="Grupo_214912" data-name="Grupo 214912">
                                                    <g id="Grupo_214911" data-name="Grupo 214911">
                                                      <g id="Grupo_214910" data-name="Grupo 214910">
                                                        <g id="Grupo_214909" data-name="Grupo 214909">
                                                          <g id="Grupo_214908" data-name="Grupo 214908">
                                                            <path id="Trazado_223284" data-name="Trazado 223284" d="M80.376,196.139c.267,0,.172,1.771,1.623,3.112s3.352,1.25,3.352,1.5c.02.113-.439.322-1.24.3a4.422,4.422,0,0,1-2.8-1.151,3.839,3.839,0,0,1-1.248-2.6C80.032,196.55,80.254,196.121,80.376,196.139Z" transform="translate(-80.057 -196.139)" fill="#263238"/>
                                                          </g>
                                                        </g>
                                                      </g>
                                                    </g>
                                                  </g>
                                                </g>
                                              </g>
                                            </g>
                                          </g>
                                        </g>
                                      </g>
                                    </g>
                                  </g>
                                </g>
                              </g>
                            </g>
                            <g id="Grupo_214941" data-name="Grupo 214941" transform="translate(19.484)">
                              <g id="Grupo_214940" data-name="Grupo 214940">
                                <g id="Grupo_214939" data-name="Grupo 214939">
                                  <g id="Grupo_214938" data-name="Grupo 214938">
                                    <g id="Grupo_214937" data-name="Grupo 214937">
                                      <g id="Grupo_214936" data-name="Grupo 214936">
                                        <g id="Grupo_214935" data-name="Grupo 214935">
                                          <g id="Grupo_214934" data-name="Grupo 214934">
                                            <g id="Grupo_214933" data-name="Grupo 214933">
                                              <g id="Grupo_214932" data-name="Grupo 214932">
                                                <g id="Grupo_214931" data-name="Grupo 214931">
                                                  <g id="Grupo_214930" data-name="Grupo 214930">
                                                    <g id="Grupo_214929" data-name="Grupo 214929">
                                                      <g id="Grupo_214928" data-name="Grupo 214928">
                                                        <g id="Grupo_214927" data-name="Grupo 214927">
                                                          <g id="Grupo_214926" data-name="Grupo 214926">
                                                            <g id="Grupo_214925" data-name="Grupo 214925">
                                                              <g id="Grupo_214924" data-name="Grupo 214924">
                                                                <path id="Trazado_223285" data-name="Trazado 223285" d="M91.6,185.067c-.3.383-1.535.048-3.007.09-1.471-.007-2.7.358-3.006-.018-.134-.182.048-.562.577-.935a4.666,4.666,0,0,1,4.844-.06C91.544,184.5,91.73,184.879,91.6,185.067Z" transform="translate(-85.545 -183.495)" fill="#263238"/>
                                                              </g>
                                                            </g>
                                                          </g>
                                                        </g>
                                                      </g>
                                                    </g>
                                                  </g>
                                                </g>
                                              </g>
                                            </g>
                                          </g>
                                        </g>
                                      </g>
                                    </g>
                                  </g>
                                </g>
                              </g>
                            </g>
                            <g id="Grupo_214957" data-name="Grupo 214957" transform="translate(5.502 10.049)">
                              <g id="Grupo_214956" data-name="Grupo 214956">
                                <g id="Grupo_214955" data-name="Grupo 214955">
                                  <g id="Grupo_214954" data-name="Grupo 214954">
                                    <g id="Grupo_214953" data-name="Grupo 214953">
                                      <g id="Grupo_214952" data-name="Grupo 214952">
                                        <g id="Grupo_214951" data-name="Grupo 214951">
                                          <g id="Grupo_214950" data-name="Grupo 214950">
                                            <g id="Grupo_214949" data-name="Grupo 214949">
                                              <g id="Grupo_214948" data-name="Grupo 214948">
                                                <g id="Grupo_214947" data-name="Grupo 214947">
                                                  <g id="Grupo_214946" data-name="Grupo 214946">
                                                    <g id="Grupo_214945" data-name="Grupo 214945">
                                                      <g id="Grupo_214944" data-name="Grupo 214944">
                                                        <g id="Grupo_214943" data-name="Grupo 214943">
                                                          <g id="Grupo_214942" data-name="Grupo 214942">
                                                            <path id="Trazado_223286" data-name="Trazado 223286" d="M77.114,190.9a1.521,1.521,0,0,0,1.441,1.558,1.457,1.457,0,0,0,1.595-1.343,1.52,1.52,0,0,0-1.441-1.558A1.454,1.454,0,0,0,77.114,190.9Z" transform="translate(-77.112 -189.556)" fill="#263238"/>
                                                          </g>
                                                        </g>
                                                      </g>
                                                    </g>
                                                  </g>
                                                </g>
                                              </g>
                                            </g>
                                          </g>
                                        </g>
                                      </g>
                                    </g>
                                  </g>
                                </g>
                              </g>
                            </g>
                            <g id="Grupo_214974" data-name="Grupo 214974" transform="translate(3.417 5.594)">
                              <g id="Grupo_214973" data-name="Grupo 214973">
                                <g id="Grupo_214972" data-name="Grupo 214972">
                                  <g id="Grupo_214971" data-name="Grupo 214971">
                                    <g id="Grupo_214970" data-name="Grupo 214970">
                                      <g id="Grupo_214969" data-name="Grupo 214969">
                                        <g id="Grupo_214968" data-name="Grupo 214968">
                                          <g id="Grupo_214967" data-name="Grupo 214967">
                                            <g id="Grupo_214966" data-name="Grupo 214966">
                                              <g id="Grupo_214965" data-name="Grupo 214965">
                                                <g id="Grupo_214964" data-name="Grupo 214964">
                                                  <g id="Grupo_214963" data-name="Grupo 214963">
                                                    <g id="Grupo_214962" data-name="Grupo 214962">
                                                      <g id="Grupo_214961" data-name="Grupo 214961">
                                                        <g id="Grupo_214960" data-name="Grupo 214960">
                                                          <g id="Grupo_214959" data-name="Grupo 214959">
                                                            <g id="Grupo_214958" data-name="Grupo 214958">
                                                              <path id="Trazado_223287" data-name="Trazado 223287" d="M75.877,188.416c.186.2,1.354-.63,2.992-.6,1.636.01,2.825.872,3.006.675.09-.086-.1-.448-.613-.837a4.2,4.2,0,0,0-2.4-.786,4.009,4.009,0,0,0-2.386.724C75.963,187.97,75.786,188.325,75.877,188.416Z" transform="translate(-75.854 -186.869)" fill="#263238"/>
                                                            </g>
                                                          </g>
                                                        </g>
                                                      </g>
                                                    </g>
                                                  </g>
                                                </g>
                                              </g>
                                            </g>
                                          </g>
                                        </g>
                                      </g>
                                    </g>
                                  </g>
                                </g>
                              </g>
                            </g>
                            <g id="Grupo_214992" data-name="Grupo 214992" transform="translate(2.454 1.991)">
                              <g id="Grupo_214991" data-name="Grupo 214991">
                                <g id="Grupo_214990" data-name="Grupo 214990">
                                  <g id="Grupo_214989" data-name="Grupo 214989">
                                    <g id="Grupo_214988" data-name="Grupo 214988">
                                      <g id="Grupo_214987" data-name="Grupo 214987">
                                        <g id="Grupo_214986" data-name="Grupo 214986">
                                          <g id="Grupo_214985" data-name="Grupo 214985">
                                            <g id="Grupo_214984" data-name="Grupo 214984">
                                              <g id="Grupo_214983" data-name="Grupo 214983">
                                                <g id="Grupo_214982" data-name="Grupo 214982">
                                                  <g id="Grupo_214981" data-name="Grupo 214981">
                                                    <g id="Grupo_214980" data-name="Grupo 214980">
                                                      <g id="Grupo_214979" data-name="Grupo 214979">
                                                        <g id="Grupo_214978" data-name="Grupo 214978">
                                                          <g id="Grupo_214977" data-name="Grupo 214977">
                                                            <g id="Grupo_214976" data-name="Grupo 214976">
                                                              <g id="Grupo_214975" data-name="Grupo 214975">
                                                                <path id="Trazado_223288" data-name="Trazado 223288" d="M75.317,186.336c.317.376,1.588.013,3.108.022,1.52-.04,2.8.3,3.105-.085.134-.187-.063-.562-.618-.923A4.7,4.7,0,0,0,78.4,184.7a4.641,4.641,0,0,0-2.492.7C75.362,185.772,75.18,186.152,75.317,186.336Z" transform="translate(-75.273 -184.696)" fill="#263238"/>
                                                              </g>
                                                            </g>
                                                          </g>
                                                        </g>
                                                      </g>
                                                    </g>
                                                  </g>
                                                </g>
                                              </g>
                                            </g>
                                          </g>
                                        </g>
                                      </g>
                                    </g>
                                  </g>
                                </g>
                              </g>
                            </g>
                          </g>
                        </g>
                      </g>
                      <g id="Grupo_215027" data-name="Grupo 215027" transform="translate(0 26.449)">
                        <g id="Grupo_215010" data-name="Grupo 215010">
                          <g id="Grupo_215009" data-name="Grupo 215009">
                            <g id="Grupo_215008" data-name="Grupo 215008">
                              <g id="Grupo_215007" data-name="Grupo 215007">
                                <g id="Grupo_215006" data-name="Grupo 215006">
                                  <g id="Grupo_215005" data-name="Grupo 215005">
                                    <g id="Grupo_215004" data-name="Grupo 215004">
                                      <g id="Grupo_215003" data-name="Grupo 215003">
                                        <g id="Grupo_215002" data-name="Grupo 215002">
                                          <g id="Grupo_215001" data-name="Grupo 215001">
                                            <g id="Grupo_215000" data-name="Grupo 215000">
                                              <g id="Grupo_214999" data-name="Grupo 214999">
                                                <g id="Grupo_214998" data-name="Grupo 214998">
                                                  <g id="Grupo_214997" data-name="Grupo 214997">
                                                    <g id="Grupo_214996" data-name="Grupo 214996">
                                                      <path id="Trazado_223289" data-name="Trazado 223289" d="M72.991,194.417c.046-.88-.859-3.014-1.724-3.2-2.308-.489-6.515-.532-6.88,5.367-.5,8.064,7.719,6.9,7.749,6.668C72.157,203.075,72.832,197.461,72.991,194.417Z" transform="translate(-64.365 -191.019)" fill="#b56760"/>
                                                    </g>
                                                  </g>
                                                </g>
                                              </g>
                                            </g>
                                          </g>
                                        </g>
                                      </g>
                                    </g>
                                  </g>
                                </g>
                              </g>
                            </g>
                          </g>
                        </g>
                        <g id="Grupo_215026" data-name="Grupo 215026" transform="translate(2.291 2.676)">
                          <g id="Grupo_215025" data-name="Grupo 215025">
                            <g id="Grupo_215024" data-name="Grupo 215024">
                              <g id="Grupo_215023" data-name="Grupo 215023">
                                <g id="Grupo_215022" data-name="Grupo 215022">
                                  <g id="Grupo_215021" data-name="Grupo 215021">
                                    <g id="Grupo_215020" data-name="Grupo 215020">
                                      <g id="Grupo_215019" data-name="Grupo 215019">
                                        <g id="Grupo_215018" data-name="Grupo 215018">
                                          <g id="Grupo_215017" data-name="Grupo 215017">
                                            <g id="Grupo_215016" data-name="Grupo 215016">
                                              <g id="Grupo_215015" data-name="Grupo 215015">
                                                <g id="Grupo_215014" data-name="Grupo 215014">
                                                  <g id="Grupo_215013" data-name="Grupo 215013">
                                                    <g id="Grupo_215012" data-name="Grupo 215012">
                                                      <g id="Grupo_215011" data-name="Grupo 215011">
                                                        <path id="Trazado_223290" data-name="Trazado 223290" d="M69.177,199.11c-.033-.028-.146.09-.391.184a1.422,1.422,0,0,1-1.054-.043c-.834-.365-1.469-1.762-1.419-3.218a4.64,4.64,0,0,1,.519-1.988,1.622,1.622,0,0,1,1.126-1.013.716.716,0,0,1,.806.436c.1.232.033.39.076.406.022.022.181-.124.136-.461a.9.9,0,0,0-.287-.526,1.07,1.07,0,0,0-.766-.254,1.987,1.987,0,0,0-1.547,1.16,4.782,4.782,0,0,0-.627,2.218c-.048,1.628.691,3.2,1.839,3.609a1.514,1.514,0,0,0,1.3-.136C69.151,199.3,69.205,199.125,69.177,199.11Z" transform="translate(-65.747 -192.633)" fill="#8a4a43"/>
                                                      </g>
                                                    </g>
                                                  </g>
                                                </g>
                                              </g>
                                            </g>
                                          </g>
                                        </g>
                                      </g>
                                    </g>
                                  </g>
                                </g>
                              </g>
                            </g>
                          </g>
                        </g>
                      </g>
                    </g>
                  </g>
                  <g id="Grupo_215031" data-name="Grupo 215031" transform="translate(12.69 3.359)">
                    <g id="Grupo_215030" data-name="Grupo 215030">
                      <path id="Trazado_223291" data-name="Trazado 223291" d="M70.033,202.244l2.054,2.125c8.866-8.468,26.194-29.674,25.227-28.411a25.872,25.872,0,0,0-12.668-1.371c-6.593,1.121-19.1,4.413-18.906,12.172S70.033,202.244,70.033,202.244Z" transform="translate(-65.739 -174.297)" fill="#263238"/>
                    </g>
                  </g>
                  <g id="Grupo_215034" data-name="Grupo 215034" transform="translate(7.709 41.134)">
                    <g id="Grupo_215033" data-name="Grupo 215033">
                      <g id="Grupo_215032" data-name="Grupo 215032">
                        <path id="Trazado_223292" data-name="Trazado 223292" d="M72.2,207.34c.023.027-.182.277-.671.589a5.523,5.523,0,0,1-2.316.781,6.016,6.016,0,0,1-3.576-.723A5.977,5.977,0,0,1,63.472,200a6,6,0,0,1,2.722-2.424,5.556,5.556,0,0,1,2.4-.491,1.741,1.741,0,0,1,.877.171A8.421,8.421,0,0,0,66.4,198a5.782,5.782,0,0,0-2.389,2.3,5.505,5.505,0,0,0,1.938,7.152,5.806,5.806,0,0,0,3.225.784A8.383,8.383,0,0,0,72.2,207.34Z" transform="translate(-62.734 -197.083)" fill="#e0e0e0"/>
                      </g>
                    </g>
                  </g>
                </g>
                <g id="Grupo_215037" data-name="Grupo 215037" transform="translate(5.24 3.164)">
                  <g id="Grupo_215036" data-name="Grupo 215036">
                    <path id="Trazado_223293" data-name="Trazado 223293" d="M61.247,200.54a2.145,2.145,0,0,1,.124-.466,8.162,8.162,0,0,1,.55-1.272A11.767,11.767,0,0,1,65.3,195.01a22.128,22.128,0,0,1,6.8-3.263c2.7-.879,5.751-1.562,8.742-2.843a39.639,39.639,0,0,0,7.984-4.461,41.284,41.284,0,0,0,5.635-4.917,44.063,44.063,0,0,0,3.259-3.858c.33-.454.6-.822.811-1.112a2.1,2.1,0,0,1,.3-.375,2.105,2.105,0,0,1-.234.421c-.169.265-.408.666-.749,1.159a37.115,37.115,0,0,1-3.176,3.966,39.438,39.438,0,0,1-5.625,5.023A38.745,38.745,0,0,1,81,189.285a89.361,89.361,0,0,1-8.785,2.825,22.38,22.38,0,0,0-6.741,3.135,12.147,12.147,0,0,0-3.412,3.636C61.471,199.91,61.29,200.555,61.247,200.54Z" transform="translate(-61.245 -174.18)" fill="#455a64"/>
                  </g>
                </g>
                <g id="Grupo_215039" data-name="Grupo 215039" transform="translate(7.588 4.89)">
                  <g id="Grupo_215038" data-name="Grupo 215038">
                    <path id="Trazado_223294" data-name="Trazado 223294" d="M62.668,201.125a4.241,4.241,0,0,1,.313-1.762,8.247,8.247,0,0,1,3.037-3.8,18.316,18.316,0,0,1,6.744-2.639,39.921,39.921,0,0,0,8.379-2.653,35.507,35.507,0,0,0,7.472-4.6,36.441,36.441,0,0,0,5.121-5.023,38.386,38.386,0,0,0,2.855-3.916l.686-1.131a1.907,1.907,0,0,1,.264-.381,1.955,1.955,0,0,1-.191.421l-.62,1.172a32.746,32.746,0,0,1-2.767,4.019,34.786,34.786,0,0,1-12.648,9.818,39.009,39.009,0,0,1-8.465,2.648,18.5,18.5,0,0,0-6.661,2.505,8.337,8.337,0,0,0-3.055,3.616A9.637,9.637,0,0,0,62.668,201.125Z" transform="translate(-62.661 -175.221)" fill="#455a64"/>
                  </g>
                </g>
              </g>
            </g>
            <rect id="Rectángulo_295779" data-name="Rectángulo 295779" width="45" height="21" transform="translate(1183 15013)" fill="#feca2e"/>
            <rect id="Rectángulo_295780" data-name="Rectángulo 295780" width="45" height="21" transform="translate(1183 15035)" fill="#4dd0e1"/>
            <rect id="Rectángulo_295781" data-name="Rectángulo 295781" width="45" height="21" transform="translate(1183 15057)" fill="#bddcf6"/>
            <text id="U_nified_M_odeling_L_anguage" data-name="U   nified
M  odeling
L   anguage" transform="translate(1206 15030)" fill="#12263f" font-size="18" font-family="Roboto-Bold, Roboto" font-weight="700"><tspan x="0" y="0">U</tspan><tspan y="0" xml:space="preserve" font-family="Roboto-Regular, Roboto" font-weight="400">   nified</tspan><tspan x="0" y="22">M </tspan><tspan y="22" xml:space="preserve" font-family="Roboto-Regular, Roboto" font-weight="400"> odeling</tspan><tspan x="0" y="44">L</tspan><tspan y="44" xml:space="preserve" font-family="Roboto-Regular, Roboto" font-weight="400">   anguage</tspan></text>
          </g>
        </g>
      </g>
    </g>
  </g>
</svg>
