<svg xmlns="http://www.w3.org/2000/svg" width="295" height="313.506" viewBox="0 0 295 313.506">
  <g id="Grupo_222356" data-name="Grupo 222356" transform="translate(-285 -20368.504)">
    <g id="Grupo_222355" data-name="Grupo 222355">
      <g id="Grupo_222354" data-name="Grupo 222354">
        <g id="Grupo_222309" data-name="Grupo 222309" transform="translate(0 -457.477)">
          <rect id="Rectángulo_295941" data-name="Rectángulo 295941" width="295" height="275" transform="translate(285 20826)" fill="none"/>
          <g id="Grupo_109763" data-name="Grupo 109763" transform="translate(35.31 10921.67)">
            <circle id="Elipse_4882" data-name="Elipse 4882" cx="124.345" cy="124.345" r="124.345" transform="translate(270 9904.31)" fill="#bddcf6" opacity="0.74"/>
            <line id="Línea_331" data-name="Línea 331" x2="19.254" y2="16.44" transform="translate(419.39 9987.682)" fill="none" stroke="#0f2771" stroke-miterlimit="10" stroke-width="1"/>
            <line id="Línea_332" data-name="Línea 332" x2="19.254" y2="16.44" transform="translate(375.609 9988.723)" fill="none" stroke="#0f2771" stroke-miterlimit="10" stroke-width="1"/>
            <line id="Línea_333" data-name="Línea 333" x2="19.254" y2="16.44" transform="translate(347.219 10026.223)" fill="none" stroke="#0f2771" stroke-miterlimit="10" stroke-width="1"/>
            <line id="Línea_334" data-name="Línea 334" x2="19.254" y2="16.44" transform="translate(450.748 10023.223)" fill="none" stroke="#0f2771" stroke-miterlimit="10" stroke-width="1"/>
            <line id="Línea_335" data-name="Línea 335" y1="19.186" x2="16.52" transform="translate(424.358 10021.363)" fill="none" stroke="#0f2771" stroke-miterlimit="10" stroke-width="1"/>
            <line id="Línea_336" data-name="Línea 336" y1="95.617" x2="76.824" transform="translate(307.244 9955.037)" fill="none" stroke="#0f2771" stroke-miterlimit="10" stroke-width="1"/>
            <line id="Línea_337" data-name="Línea 337" x2="18.813" y2="16.933" transform="translate(402.98 9945.063)" fill="none" stroke="#0f2771" stroke-miterlimit="10" stroke-width="1"/>
            <g id="Grupo_139799" data-name="Grupo 139799" transform="translate(-3887.426 6550.341)">
              <path id="Trazado_196693" data-name="Trazado 196693" d="M4270.815,3375.972l17.208-.48,6.582,7.176.052,21.349h-23.841Z" fill="#fff"/>
              <g id="Grupo_139798" data-name="Grupo 139798">
                <path id="Trazado_196694" data-name="Trazado 196694" d="M4293.977,3404.7h-22.483a.679.679,0,0,1-.679-.679v-28.044a.679.679,0,0,1,.679-.68h16.048a.68.68,0,0,1,.48.2l6.435,6.435a.68.68,0,0,1,.2.481v21.609A.679.679,0,0,1,4293.977,3404.7Zm-21.8-1.359H4293.3v-20.648l-6.037-6.037h-15.087Z" fill="#0f2771"/>
                <path id="Trazado_196695" data-name="Trazado 196695" d="M4293.977,3383.087h-6.435a.679.679,0,0,1-.679-.679v-6.435a.679.679,0,0,1,1.159-.481l6.435,6.435a.679.679,0,0,1-.48,1.16Zm-5.756-1.359h4.116l-4.116-4.115Z" fill="#0f2771"/>
                <path id="Trazado_196696" data-name="Trazado 196696" d="M4289.727,3399.77h-13.982a.679.679,0,1,1,0-1.358h13.982a.679.679,0,0,1,0,1.358Z" fill="#0f2771"/>
                <path id="Trazado_196697" data-name="Trazado 196697" d="M4289.727,3395.4h-13.982a.679.679,0,1,1,0-1.359h13.982a.679.679,0,0,1,0,1.359Z" fill="#0f2771"/>
                <path id="Trazado_196698" data-name="Trazado 196698" d="M4289.727,3391.031h-13.982a.679.679,0,1,1,0-1.358h13.982a.679.679,0,0,1,0,1.358Z" fill="#0f2771"/>
                <path id="Trazado_196699" data-name="Trazado 196699" d="M4289.727,3386.662h-13.982a.68.68,0,1,1,0-1.359h13.982a.68.68,0,0,1,0,1.359Z" fill="#0f2771"/>
                <path id="Trazado_196700" data-name="Trazado 196700" d="M4284.921,3382.293h-9.176a.679.679,0,1,1,0-1.359h9.176a.679.679,0,0,1,0,1.359Z" fill="#0f2771"/>
              </g>
            </g>
            <g id="Grupo_139801" data-name="Grupo 139801" transform="translate(-3887.426 6550.341)">
              <path id="Trazado_196701" data-name="Trazado 196701" d="M4242.021,3410.976l17.208-.48,6.582,7.176.052,21.349h-23.841Z" fill="#bddcf6"/>
              <g id="Grupo_139800" data-name="Grupo 139800">
                <path id="Trazado_196702" data-name="Trazado 196702" d="M4265.184,3439.7H4242.7a.679.679,0,0,1-.68-.679v-28.044a.68.68,0,0,1,.68-.68h16.048a.68.68,0,0,1,.48.2l6.435,6.436a.68.68,0,0,1,.2.48v21.609A.679.679,0,0,1,4265.184,3439.7Zm-21.8-1.358H4264.5v-20.649l-6.037-6.037H4243.38Z" fill="#0f2771"/>
                <path id="Trazado_196703" data-name="Trazado 196703" d="M4265.184,3418.09h-6.435a.68.68,0,0,1-.68-.679v-6.435a.68.68,0,0,1,1.16-.481l6.435,6.436a.679.679,0,0,1-.48,1.159Zm-5.756-1.358h4.116l-4.116-4.116Z" fill="#0f2771"/>
                <path id="Trazado_196704" data-name="Trazado 196704" d="M4260.933,3434.774h-13.982a.679.679,0,0,1,0-1.359h13.982a.679.679,0,1,1,0,1.359Z" fill="#0f2771"/>
                <path id="Trazado_196705" data-name="Trazado 196705" d="M4260.933,3430.4h-13.982a.679.679,0,1,1,0-1.358h13.982a.679.679,0,1,1,0,1.358Z" fill="#0f2771"/>
                <path id="Trazado_196706" data-name="Trazado 196706" d="M4260.933,3426.035h-13.982a.679.679,0,0,1,0-1.359h13.982a.679.679,0,1,1,0,1.359Z" fill="#0f2771"/>
                <path id="Trazado_196707" data-name="Trazado 196707" d="M4260.933,3421.665h-13.982a.679.679,0,1,1,0-1.358h13.982a.679.679,0,1,1,0,1.358Z" fill="#0f2771"/>
                <path id="Trazado_196708" data-name="Trazado 196708" d="M4256.127,3417.3h-9.176a.679.679,0,0,1,0-1.359h9.176a.679.679,0,0,1,0,1.359Z" fill="#0f2771"/>
              </g>
            </g>
            <g id="Grupo_139803" data-name="Grupo 139803" transform="translate(-3887.426 6550.341)">
              <path id="Trazado_196709" data-name="Trazado 196709" d="M4321.14,3449.819l17.208-.48,6.583,7.176.052,21.349H4321.14Z" fill="#bddcf6"/>
              <g id="Grupo_139802" data-name="Grupo 139802">
                <path id="Trazado_196710" data-name="Trazado 196710" d="M4344.3,3478.543h-22.483a.679.679,0,0,1-.679-.68v-28.044a.679.679,0,0,1,.679-.679h16.048a.68.68,0,0,1,.48.2l6.435,6.435a.678.678,0,0,1,.2.48v21.609A.679.679,0,0,1,4344.3,3478.543Zm-21.8-1.359h21.125v-20.648l-6.037-6.037H4322.5Z" fill="#0f2771"/>
                <path id="Trazado_196711" data-name="Trazado 196711" d="M4344.3,3456.934h-6.435a.68.68,0,0,1-.679-.68v-6.435a.679.679,0,0,1,1.159-.48l6.435,6.435a.679.679,0,0,1-.48,1.16Zm-5.756-1.359h4.116l-4.116-4.116Z" fill="#0f2771"/>
                <path id="Trazado_196712" data-name="Trazado 196712" d="M4340.052,3473.617h-13.983a.679.679,0,0,1,0-1.358h13.983a.679.679,0,1,1,0,1.358Z" fill="#0f2771"/>
                <path id="Trazado_196713" data-name="Trazado 196713" d="M4340.052,3469.248h-13.983a.68.68,0,0,1,0-1.359h13.983a.68.68,0,0,1,0,1.359Z" fill="#0f2771"/>
                <path id="Trazado_196714" data-name="Trazado 196714" d="M4340.052,3464.878h-13.983a.679.679,0,0,1,0-1.358h13.983a.679.679,0,1,1,0,1.358Z" fill="#0f2771"/>
                <path id="Trazado_196715" data-name="Trazado 196715" d="M4340.052,3460.509h-13.983a.68.68,0,0,1,0-1.359h13.983a.68.68,0,0,1,0,1.359Z" fill="#0f2771"/>
                <path id="Trazado_196716" data-name="Trazado 196716" d="M4335.245,3456.139h-9.176a.679.679,0,0,1,0-1.358h9.176a.679.679,0,1,1,0,1.358Z" fill="#0f2771"/>
              </g>
            </g>
            <g id="Grupo_139805" data-name="Grupo 139805" transform="translate(-3887.426 6550.341)">
              <path id="Trazado_196717" data-name="Trazado 196717" d="M4294.9,3487.3l17.208-.48,6.583,7.175.051,21.349H4294.9Z" fill="#92abe8"/>
              <g id="Grupo_139804" data-name="Grupo 139804">
                <path id="Trazado_196718" data-name="Trazado 196718" d="M4318.057,3516.028h-22.483a.679.679,0,0,1-.679-.68V3487.3a.679.679,0,0,1,.679-.679h16.048a.682.682,0,0,1,.481.2l6.435,6.435a.682.682,0,0,1,.2.481v21.608A.679.679,0,0,1,4318.057,3516.028Zm-21.8-1.359h21.124v-20.648l-6.037-6.037h-15.087Z" fill="#0f2771"/>
                <path id="Trazado_196719" data-name="Trazado 196719" d="M4318.057,3494.419h-6.435a.679.679,0,0,1-.679-.679V3487.3a.68.68,0,0,1,1.16-.48l6.435,6.435a.68.68,0,0,1-.481,1.16Zm-5.755-1.359h4.116l-4.116-4.116Z" fill="#0f2771"/>
                <path id="Trazado_196720" data-name="Trazado 196720" d="M4313.807,3511.1h-13.982a.679.679,0,1,1,0-1.358h13.982a.679.679,0,0,1,0,1.358Z" fill="#0f2771"/>
                <path id="Trazado_196721" data-name="Trazado 196721" d="M4313.807,3506.733h-13.982a.679.679,0,1,1,0-1.359h13.982a.679.679,0,0,1,0,1.359Z" fill="#0f2771"/>
                <path id="Trazado_196722" data-name="Trazado 196722" d="M4313.807,3502.363h-13.982a.679.679,0,1,1,0-1.358h13.982a.679.679,0,0,1,0,1.358Z" fill="#0f2771"/>
                <path id="Trazado_196723" data-name="Trazado 196723" d="M4313.807,3497.994h-13.982a.679.679,0,1,1,0-1.359h13.982a.679.679,0,0,1,0,1.359Z" fill="#0f2771"/>
                <path id="Trazado_196724" data-name="Trazado 196724" d="M4309,3493.624h-9.176a.679.679,0,1,1,0-1.358H4309a.679.679,0,1,1,0,1.358Z" fill="#0f2771"/>
              </g>
            </g>
            <g id="Grupo_139807" data-name="Grupo 139807" transform="translate(-3887.426 6550.341)">
              <path id="Trazado_196725" data-name="Trazado 196725" d="M4213.583,3449.5l17.208-.48,6.582,7.176.052,21.349h-23.841Z" fill="#92abe8"/>
              <g id="Grupo_139806" data-name="Grupo 139806">
                <path id="Trazado_196726" data-name="Trazado 196726" d="M4236.745,3478.221h-22.483a.679.679,0,0,1-.68-.679V3449.5a.679.679,0,0,1,.68-.679h16.048a.674.674,0,0,1,.48.2l6.435,6.435a.68.68,0,0,1,.2.48v21.609A.679.679,0,0,1,4236.745,3478.221Zm-21.8-1.358h21.124v-20.649l-6.037-6.037h-15.087Z" fill="#0f2771"/>
                <path id="Trazado_196727" data-name="Trazado 196727" d="M4236.745,3456.612h-6.435a.679.679,0,0,1-.68-.679V3449.5a.679.679,0,0,1,1.16-.48l6.435,6.435a.679.679,0,0,1-.48,1.159Zm-5.756-1.358h4.116l-4.116-4.116Z" fill="#0f2771"/>
                <path id="Trazado_196728" data-name="Trazado 196728" d="M4232.5,3473.3h-13.983a.679.679,0,0,1,0-1.359H4232.5a.679.679,0,0,1,0,1.359Z" fill="#0f2771"/>
                <path id="Trazado_196729" data-name="Trazado 196729" d="M4232.5,3468.926h-13.983a.679.679,0,1,1,0-1.358H4232.5a.679.679,0,0,1,0,1.358Z" fill="#0f2771"/>
                <path id="Trazado_196730" data-name="Trazado 196730" d="M4232.5,3464.557h-13.983a.679.679,0,0,1,0-1.359H4232.5a.679.679,0,0,1,0,1.359Z" fill="#0f2771"/>
                <path id="Trazado_196731" data-name="Trazado 196731" d="M4232.5,3460.187h-13.983a.679.679,0,1,1,0-1.358H4232.5a.679.679,0,0,1,0,1.358Z" fill="#0f2771"/>
                <path id="Trazado_196732" data-name="Trazado 196732" d="M4227.688,3455.818h-9.176a.68.68,0,0,1,0-1.359h9.176a.68.68,0,0,1,0,1.359Z" fill="#0f2771"/>
              </g>
            </g>
            <g id="Grupo_139809" data-name="Grupo 139809" transform="translate(-3887.426 6550.341)">
              <path id="Trazado_196733" data-name="Trazado 196733" d="M4263.145,3449.5l17.208-.48,6.583,7.176.052,21.349h-23.842Z" fill="#92abe8"/>
              <g id="Grupo_139808" data-name="Grupo 139808">
                <path id="Trazado_196734" data-name="Trazado 196734" d="M4286.307,3478.221h-22.483a.679.679,0,0,1-.679-.679V3449.5a.679.679,0,0,1,.679-.679h16.048a.675.675,0,0,1,.48.2l6.435,6.435a.68.68,0,0,1,.2.48v21.609A.679.679,0,0,1,4286.307,3478.221Zm-21.8-1.358h21.125v-20.649l-6.037-6.037H4264.5Z" fill="#0f2771"/>
                <path id="Trazado_196735" data-name="Trazado 196735" d="M4286.307,3456.612h-6.435a.679.679,0,0,1-.679-.679V3449.5a.679.679,0,0,1,1.159-.48l6.435,6.435a.679.679,0,0,1-.48,1.159Zm-5.756-1.358h4.116l-4.116-4.116Z" fill="#0f2771"/>
                <path id="Trazado_196736" data-name="Trazado 196736" d="M4282.057,3473.3h-13.983a.679.679,0,0,1,0-1.359h13.983a.679.679,0,0,1,0,1.359Z" fill="#0f2771"/>
                <path id="Trazado_196737" data-name="Trazado 196737" d="M4282.057,3468.926h-13.983a.679.679,0,1,1,0-1.358h13.983a.679.679,0,0,1,0,1.358Z" fill="#0f2771"/>
                <path id="Trazado_196738" data-name="Trazado 196738" d="M4282.057,3464.557h-13.983a.679.679,0,0,1,0-1.359h13.983a.679.679,0,0,1,0,1.359Z" fill="#0f2771"/>
                <path id="Trazado_196739" data-name="Trazado 196739" d="M4282.057,3460.187h-13.983a.679.679,0,1,1,0-1.358h13.983a.679.679,0,0,1,0,1.358Z" fill="#0f2771"/>
                <path id="Trazado_196740" data-name="Trazado 196740" d="M4277.25,3455.818h-9.176a.68.68,0,0,1,0-1.359h9.176a.68.68,0,0,1,0,1.359Z" fill="#0f2771"/>
              </g>
            </g>
            <g id="Grupo_139811" data-name="Grupo 139811" transform="translate(-3887.426 6550.341)">
              <path id="Trazado_196741" data-name="Trazado 196741" d="M4189.741,3489.624l17.208-.48,6.583,7.176.052,21.349h-23.842Z" fill="#4dd0e1"/>
              <g id="Grupo_139810" data-name="Grupo 139810">
                <path id="Trazado_196742" data-name="Trazado 196742" d="M4212.9,3518.347H4190.42a.679.679,0,0,1-.679-.679v-28.044a.679.679,0,0,1,.679-.679h16.048a.677.677,0,0,1,.48.2l6.435,6.435a.674.674,0,0,1,.2.48v21.609A.679.679,0,0,1,4212.9,3518.347Zm-21.8-1.358h21.125V3496.34l-6.037-6.037H4191.1Z" fill="#0f2771"/>
                <path id="Trazado_196743" data-name="Trazado 196743" d="M4212.9,3496.738h-6.435a.679.679,0,0,1-.679-.679v-6.435a.679.679,0,0,1,1.159-.48l6.435,6.435a.678.678,0,0,1-.48,1.159Zm-5.756-1.358h4.116l-4.116-4.116Z" fill="#0f2771"/>
                <path id="Trazado_196744" data-name="Trazado 196744" d="M4208.653,3513.422h-13.982a.68.68,0,1,1,0-1.359h13.982a.68.68,0,0,1,0,1.359Z" fill="#0f2771"/>
                <path id="Trazado_196745" data-name="Trazado 196745" d="M4208.653,3509.052h-13.982a.679.679,0,1,1,0-1.358h13.982a.679.679,0,1,1,0,1.358Z" fill="#0f2771"/>
                <path id="Trazado_196746" data-name="Trazado 196746" d="M4208.653,3504.683h-13.982a.68.68,0,1,1,0-1.359h13.982a.68.68,0,0,1,0,1.359Z" fill="#0f2771"/>
                <path id="Trazado_196747" data-name="Trazado 196747" d="M4208.653,3500.313h-13.982a.679.679,0,1,1,0-1.358h13.982a.679.679,0,1,1,0,1.358Z" fill="#0f2771"/>
                <path id="Trazado_196748" data-name="Trazado 196748" d="M4203.846,3495.944h-9.175a.68.68,0,1,1,0-1.359h9.175a.68.68,0,1,1,0,1.359Z" fill="#0f2771"/>
              </g>
            </g>
            <g id="Grupo_139813" data-name="Grupo 139813" transform="translate(-3887.426 6550.341)">
              <path id="Trazado_196749" data-name="Trazado 196749" d="M4238.618,3489.624l17.208-.48,6.582,7.176.052,21.349h-23.841Z" fill="#4dd0e1"/>
              <g id="Grupo_139812" data-name="Grupo 139812">
                <path id="Trazado_196750" data-name="Trazado 196750" d="M4261.78,3518.347H4239.3a.679.679,0,0,1-.679-.679v-28.044a.679.679,0,0,1,.679-.679h16.048a.679.679,0,0,1,.481.2l6.435,6.435a.679.679,0,0,1,.2.48v21.609A.679.679,0,0,1,4261.78,3518.347Zm-21.8-1.358H4261.1V3496.34l-6.037-6.037h-15.087Z" fill="#0f2771"/>
                <path id="Trazado_196751" data-name="Trazado 196751" d="M4261.78,3496.738h-6.435a.679.679,0,0,1-.679-.679v-6.435a.679.679,0,0,1,1.16-.48l6.435,6.435a.679.679,0,0,1-.481,1.159Zm-5.755-1.358h4.116l-4.116-4.116Z" fill="#0f2771"/>
                <path id="Trazado_196752" data-name="Trazado 196752" d="M4257.53,3513.422h-13.982a.68.68,0,0,1,0-1.359h13.982a.68.68,0,0,1,0,1.359Z" fill="#0f2771"/>
                <path id="Trazado_196753" data-name="Trazado 196753" d="M4257.53,3509.052h-13.982a.679.679,0,0,1,0-1.358h13.982a.679.679,0,1,1,0,1.358Z" fill="#0f2771"/>
                <path id="Trazado_196754" data-name="Trazado 196754" d="M4257.53,3504.683h-13.982a.68.68,0,0,1,0-1.359h13.982a.68.68,0,0,1,0,1.359Z" fill="#0f2771"/>
                <path id="Trazado_196755" data-name="Trazado 196755" d="M4257.53,3500.313h-13.982a.679.679,0,0,1,0-1.358h13.982a.679.679,0,1,1,0,1.358Z" fill="#0f2771"/>
                <path id="Trazado_196756" data-name="Trazado 196756" d="M4252.724,3495.944h-9.176a.68.68,0,0,1,0-1.359h9.176a.68.68,0,0,1,0,1.359Z" fill="#0f2771"/>
              </g>
            </g>
            <g id="Grupo_139815" data-name="Grupo 139815" transform="translate(-3887.426 6550.341)">
              <path id="Trazado_196757" data-name="Trazado 196757" d="M4346.443,3489.624l17.208-.48,6.582,7.176.052,21.349h-23.841Z" fill="#4dd0e1"/>
              <g id="Grupo_139814" data-name="Grupo 139814">
                <path id="Trazado_196758" data-name="Trazado 196758" d="M4369.6,3518.347h-22.483a.679.679,0,0,1-.679-.679v-28.044a.679.679,0,0,1,.679-.679h16.048a.675.675,0,0,1,.48.2l6.435,6.435a.676.676,0,0,1,.2.48v21.609A.679.679,0,0,1,4369.6,3518.347Zm-21.8-1.358h21.125V3496.34l-6.037-6.037H4347.8Z" fill="#0f2771"/>
                <path id="Trazado_196759" data-name="Trazado 196759" d="M4369.6,3496.738h-6.435a.679.679,0,0,1-.679-.679v-6.435a.678.678,0,0,1,1.159-.48l6.435,6.435a.678.678,0,0,1-.48,1.159Zm-5.756-1.358h4.116l-4.116-4.116Z" fill="#0f2771"/>
                <path id="Trazado_196760" data-name="Trazado 196760" d="M4365.355,3513.422h-13.983a.68.68,0,0,1,0-1.359h13.983a.68.68,0,0,1,0,1.359Z" fill="#0f2771"/>
                <path id="Trazado_196761" data-name="Trazado 196761" d="M4365.355,3509.052h-13.983a.679.679,0,1,1,0-1.358h13.983a.679.679,0,1,1,0,1.358Z" fill="#0f2771"/>
                <path id="Trazado_196762" data-name="Trazado 196762" d="M4365.355,3504.683h-13.983a.68.68,0,0,1,0-1.359h13.983a.68.68,0,0,1,0,1.359Z" fill="#0f2771"/>
                <path id="Trazado_196763" data-name="Trazado 196763" d="M4365.355,3500.313h-13.983a.679.679,0,1,1,0-1.358h13.983a.679.679,0,1,1,0,1.358Z" fill="#0f2771"/>
                <path id="Trazado_196764" data-name="Trazado 196764" d="M4360.548,3495.944h-9.176a.68.68,0,0,1,0-1.359h9.176a.68.68,0,1,1,0,1.359Z" fill="#0f2771"/>
              </g>
            </g>
            <g id="Grupo_139817" data-name="Grupo 139817" transform="translate(-3887.426 6550.341)">
              <path id="Trazado_196765" data-name="Trazado 196765" d="M4297.3,3410.976l17.208-.48,6.582,7.176.052,21.349H4297.3Z" fill="#fff"/>
              <g id="Grupo_139816" data-name="Grupo 139816">
                <path id="Trazado_196766" data-name="Trazado 196766" d="M4320.46,3439.7h-22.483a.679.679,0,0,1-.679-.679v-28.044a.68.68,0,0,1,.679-.68h16.048a.681.681,0,0,1,.481.2l6.435,6.436a.681.681,0,0,1,.2.48v21.609A.679.679,0,0,1,4320.46,3439.7Zm-21.8-1.358h21.124v-20.649l-6.037-6.037h-15.087Z" fill="#0f2771"/>
                <path id="Trazado_196767" data-name="Trazado 196767" d="M4320.46,3418.09h-6.435a.679.679,0,0,1-.679-.679v-6.435a.679.679,0,0,1,1.16-.481l6.435,6.436a.679.679,0,0,1-.481,1.159Zm-5.755-1.358h4.116l-4.116-4.116Z" fill="#0f2771"/>
                <path id="Trazado_196768" data-name="Trazado 196768" d="M4316.21,3434.774h-13.982a.679.679,0,0,1,0-1.359h13.982a.679.679,0,1,1,0,1.359Z" fill="#0f2771"/>
                <path id="Trazado_196769" data-name="Trazado 196769" d="M4316.21,3430.4h-13.982a.679.679,0,1,1,0-1.358h13.982a.679.679,0,1,1,0,1.358Z" fill="#0f2771"/>
                <path id="Trazado_196770" data-name="Trazado 196770" d="M4316.21,3426.035h-13.982a.679.679,0,0,1,0-1.359h13.982a.679.679,0,1,1,0,1.359Z" fill="#0f2771"/>
                <path id="Trazado_196771" data-name="Trazado 196771" d="M4316.21,3421.665h-13.982a.679.679,0,1,1,0-1.358h13.982a.679.679,0,1,1,0,1.358Z" fill="#0f2771"/>
                <path id="Trazado_196772" data-name="Trazado 196772" d="M4311.4,3417.3h-9.176a.679.679,0,0,1,0-1.359h9.176a.679.679,0,0,1,0,1.359Z" fill="#0f2771"/>
              </g>
            </g>
            <g id="Grupo_222142" data-name="Grupo 222142" transform="translate(-381.672 -170.972)">
              <g id="Grupo_137820" data-name="Grupo 137820" transform="translate(674.976 10370.318)">
                <g id="Grupo_137811" data-name="Grupo 137811" transform="translate(0 0)">
                  <g id="Grupo_137810" data-name="Grupo 137810">
                    <g id="Grupo_137800" data-name="Grupo 137800">
                      <g id="Grupo_137799" data-name="Grupo 137799">
                        <g id="Grupo_137798" data-name="Grupo 137798">
                          <g id="Grupo_137797" data-name="Grupo 137797">
                            <path id="Trazado_193928" data-name="Trazado 193928" d="M-5530.839,3609.571l-4.578,16.925,14.878,1.358,3.126-16.113Z" transform="translate(5535.417 -3609.571)" fill="#0f2771"/>
                          </g>
                        </g>
                      </g>
                    </g>
                    <g id="Grupo_137805" data-name="Grupo 137805" transform="translate(0.566 15.159)">
                      <g id="Grupo_137804" data-name="Grupo 137804">
                        <g id="Grupo_137803" data-name="Grupo 137803">
                          <g id="Grupo_137802" data-name="Grupo 137802">
                            <g id="Grupo_137801" data-name="Grupo 137801">
                              <path id="Trazado_193929" data-name="Trazado 193929" d="M-5519.951,3630.673a10.433,10.433,0,0,1-2.178-.074c-1.341-.107-3.187-.311-5.22-.573l-5.2-.7a12.472,12.472,0,0,1-2.146-.371,10.5,10.5,0,0,1,2.178.079c1.34.111,3.187.317,5.22.579l5.2.693A12.493,12.493,0,0,1-5519.951,3630.673Z" transform="translate(5534.695 -3628.928)" fill="#1a2e35"/>
                            </g>
                          </g>
                        </g>
                      </g>
                    </g>
                    <g id="Grupo_137809" data-name="Grupo 137809" transform="translate(0 15.175)" opacity="0.6">
                      <g id="Grupo_137808" data-name="Grupo 137808">
                        <g id="Grupo_137807" data-name="Grupo 137807">
                          <g id="Grupo_137806" data-name="Grupo 137806">
                            <path id="Trazado_193930" data-name="Trazado 193930" d="M-5535.417,3630.7l14.878,1.357.24-1.241-14.688-1.867-.415,1.582" transform="translate(5535.417 -3628.949)" fill="#fff"/>
                          </g>
                        </g>
                      </g>
                    </g>
                  </g>
                </g>
                <g id="Grupo_137815" data-name="Grupo 137815" transform="translate(7.382 3.286)">
                  <g id="Grupo_137814" data-name="Grupo 137814">
                    <g id="Grupo_137813" data-name="Grupo 137813">
                      <g id="Grupo_137812" data-name="Grupo 137812">
                        <path id="Trazado_193931" data-name="Trazado 193931" d="M-5525.981,3626.653a63.321,63.321,0,0,1,1.415-6.485,62.493,62.493,0,0,1,1.755-6.4,63.626,63.626,0,0,1-1.416,6.485A63.169,63.169,0,0,1-5525.981,3626.653Z" transform="translate(5525.99 -3613.766)" fill="#1a2e35"/>
                      </g>
                    </g>
                  </g>
                </g>
                <g id="Grupo_137819" data-name="Grupo 137819" transform="translate(1.926 8.623)">
                  <g id="Grupo_137818" data-name="Grupo 137818">
                    <g id="Grupo_137817" data-name="Grupo 137817">
                      <g id="Grupo_137816" data-name="Grupo 137816">
                        <path id="Trazado_193932" data-name="Trazado 193932" d="M-5520.4,3628.753a7.154,7.154,0,0,0,.034-3.146,6.261,6.261,0,0,0-1.628-2.945,6.086,6.086,0,0,0-3.7-1.7,6.337,6.337,0,0,0-3.985.905,6.883,6.883,0,0,0-2.316,2.461,8.824,8.824,0,0,0-.94,3.019c-.012,0-.019-.077-.021-.224a4.58,4.58,0,0,1,.034-.645,6.751,6.751,0,0,1,.709-2.267,6.925,6.925,0,0,1,2.361-2.616,6.544,6.544,0,0,1,4.191-.981,6.313,6.313,0,0,1,3.9,1.822,6.343,6.343,0,0,1,1.64,3.118,5.873,5.873,0,0,1,.005,2.376,4,4,0,0,1-.183.619C-5520.352,3628.687-5520.385,3628.757-5520.4,3628.753Z" transform="translate(5532.957 -3620.581)" fill="#1a2e35"/>
                      </g>
                    </g>
                  </g>
                </g>
              </g>
              <g id="Grupo_137859" data-name="Grupo 137859" transform="translate(725.797 10365.296)">
                <g id="Grupo_137847" data-name="Grupo 137847">
                  <g id="Grupo_137823" data-name="Grupo 137823">
                    <g id="Grupo_137822" data-name="Grupo 137822">
                      <g id="Grupo_137821" data-name="Grupo 137821">
                        <path id="Trazado_193933" data-name="Trazado 193933" d="M-5455.334,3603.637l-1,15.038s14.966,4.966,15.053,7.763l-29.241.212.589-23.494Z" transform="translate(5470.519 -3603.156)" fill="#0f2771"/>
                      </g>
                    </g>
                  </g>
                  <g id="Grupo_137827" data-name="Grupo 137827" transform="translate(4.305 13.936)" opacity="0.6">
                    <g id="Grupo_137826" data-name="Grupo 137826">
                      <g id="Grupo_137825" data-name="Grupo 137825">
                        <g id="Grupo_137824" data-name="Grupo 137824">
                          <path id="Trazado_193934" data-name="Trazado 193934" d="M-5464.137,3620.995a1.193,1.193,0,0,0-.866,1.338,1.147,1.147,0,0,0,1.317.87,1.258,1.258,0,0,0,.911-1.42,1.19,1.19,0,0,0-1.471-.753" transform="translate(5465.022 -3620.952)" fill="#fff"/>
                        </g>
                      </g>
                    </g>
                  </g>
                  <g id="Grupo_137830" data-name="Grupo 137830" transform="translate(0 21.126)" opacity="0.6">
                    <g id="Grupo_137829" data-name="Grupo 137829">
                      <g id="Grupo_137828" data-name="Grupo 137828">
                        <path id="Trazado_193935" data-name="Trazado 193935" d="M-5470.519,3632.5l.059-2.368,28.243.78a2.022,2.022,0,0,1,1.089,1.588Z" transform="translate(5470.519 -3630.133)" fill="#fff"/>
                      </g>
                    </g>
                  </g>
                  <g id="Grupo_137834" data-name="Grupo 137834" transform="translate(11.956 15.237)">
                    <g id="Grupo_137833" data-name="Grupo 137833">
                      <g id="Grupo_137832" data-name="Grupo 137832">
                        <g id="Grupo_137831" data-name="Grupo 137831">
                          <path id="Trazado_193936" data-name="Trazado 193936" d="M-5452.541,3622.76c-.009.142-.724.186-1.441.623-.728.419-1.108,1.026-1.237.966-.13-.031.108-.878.984-1.393S-5452.5,3622.63-5452.541,3622.76Z" transform="translate(5455.252 -3622.614)" fill="#1a2e35"/>
                        </g>
                      </g>
                    </g>
                  </g>
                  <g id="Grupo_137838" data-name="Grupo 137838" transform="translate(15.699 16.682)">
                    <g id="Grupo_137837" data-name="Grupo 137837">
                      <g id="Grupo_137836" data-name="Grupo 137836">
                        <g id="Grupo_137835" data-name="Grupo 137835">
                          <path id="Trazado_193937" data-name="Trazado 193937" d="M-5448.476,3624.522c.028.139-.6.363-1.1.952-.521.574-.663,1.222-.8,1.212-.135.018-.208-.821.431-1.541S-5448.475,3624.385-5448.476,3624.522Z" transform="translate(5450.472 -3624.459)" fill="#1a2e35"/>
                        </g>
                      </g>
                    </g>
                  </g>
                  <g id="Grupo_137842" data-name="Grupo 137842" transform="translate(19.169 18.036)">
                    <g id="Grupo_137841" data-name="Grupo 137841">
                      <g id="Grupo_137840" data-name="Grupo 137840">
                        <g id="Grupo_137839" data-name="Grupo 137839">
                          <path id="Trazado_193938" data-name="Trazado 193938" d="M-5445.885,3628.618c-.131.027-.308-.693.083-1.463s1.067-1.062,1.124-.941c.077.12-.369.527-.679,1.164C-5445.685,3628.008-5445.743,3628.608-5445.885,3628.618Z" transform="translate(5446.041 -3626.187)" fill="#1a2e35"/>
                        </g>
                      </g>
                    </g>
                  </g>
                  <g id="Grupo_137846" data-name="Grupo 137846" transform="translate(11.471 11.375)">
                    <g id="Grupo_137845" data-name="Grupo 137845">
                      <g id="Grupo_137844" data-name="Grupo 137844">
                        <g id="Grupo_137843" data-name="Grupo 137843">
                          <path id="Trazado_193939" data-name="Trazado 193939" d="M-5452.828,3618.239c-.064.128-.712-.089-1.521-.058-.809.013-1.445.265-1.515.141-.079-.106.549-.615,1.5-.638S-5452.754,3618.129-5452.828,3618.239Z" transform="translate(5455.871 -3617.683)" fill="#1a2e35"/>
                        </g>
                      </g>
                    </g>
                  </g>
                </g>
                <g id="Grupo_137850" data-name="Grupo 137850" transform="translate(0.45 3.156)" opacity="0.3">
                  <g id="Grupo_137849" data-name="Grupo 137849">
                    <g id="Grupo_137848" data-name="Grupo 137848">
                      <path id="Trazado_193940" data-name="Trazado 193940" d="M-5455.41,3607.49l-.174,2.68-14.36-.565.055-2.418Z" transform="translate(5469.944 -3607.186)"/>
                    </g>
                  </g>
                </g>
                <g id="Grupo_137854" data-name="Grupo 137854" transform="translate(10.266 6.428)">
                  <g id="Grupo_137853" data-name="Grupo 137853">
                    <g id="Grupo_137852" data-name="Grupo 137852">
                      <g id="Grupo_137851" data-name="Grupo 137851">
                        <path id="Trazado_193941" data-name="Trazado 193941" d="M-5453.016,3613.831a2.756,2.756,0,0,1-1.464-.052,6.607,6.607,0,0,1-1.518-.517,6.943,6.943,0,0,1-.827-.471,1.819,1.819,0,0,1-.432-.358.625.625,0,0,1-.042-.761.785.785,0,0,1,.635-.307,1.9,1.9,0,0,1,.547.092,5.223,5.223,0,0,1,.9.34,5.149,5.149,0,0,1,1.323.927c.659.648.875,1.188.825,1.214-.066.046-.383-.411-1.057-.95a5.815,5.815,0,0,0-1.284-.775,5.333,5.333,0,0,0-.833-.284c-.307-.091-.57-.1-.653.034-.031.052-.035.072.027.166a1.478,1.478,0,0,0,.317.261,7.862,7.862,0,0,0,.761.465,8.16,8.16,0,0,0,1.4.585A10.059,10.059,0,0,1-5453.016,3613.831Z" transform="translate(5457.409 -3611.365)" fill="#1a2e35"/>
                      </g>
                    </g>
                  </g>
                </g>
                <g id="Grupo_137858" data-name="Grupo 137858" transform="translate(14.123 4.483)">
                  <g id="Grupo_137857" data-name="Grupo 137857">
                    <g id="Grupo_137856" data-name="Grupo 137856">
                      <g id="Grupo_137855" data-name="Grupo 137855">
                        <path id="Trazado_193942" data-name="Trazado 193942" d="M-5452.141,3613.491a2.338,2.338,0,0,1-.343-1.425,4.779,4.779,0,0,1,.248-1.6,4.82,4.82,0,0,1,.4-.877,1.21,1.21,0,0,1,.956-.711.685.685,0,0,1,.6.427,2,2,0,0,1,.134.541,3.225,3.225,0,0,1-.029.986,3.355,3.355,0,0,1-.67,1.494c-.594.74-1.195.892-1.206.843-.045-.073.461-.333.92-1.048a3.388,3.388,0,0,0,.5-1.362,3.018,3.018,0,0,0,0-.847c-.036-.312-.145-.566-.263-.537-.144-.007-.4.219-.526.463a4.844,4.844,0,0,0-.387.782,5.269,5.269,0,0,0-.328,1.452C-5452.2,3612.933-5452.062,3613.471-5452.141,3613.491Z" transform="translate(5452.485 -3608.881)" fill="#1a2e35"/>
                      </g>
                    </g>
                  </g>
                </g>
              </g>
              <g id="Grupo_137970" data-name="Grupo 137970" transform="translate(674.896 10234.803)">
                <g id="Grupo_137861" data-name="Grupo 137861">
                  <g id="Grupo_137860" data-name="Grupo 137860">
                    <path id="Trazado_193943" data-name="Trazado 193943" d="M-5469.432,3436.854l-44.555-.335-21.531,141.41,18.491,2.347,23.7-116.273,7.093,116.686.019.348,20-.35Z" transform="translate(5535.518 -3436.519)" fill="#1a2e35"/>
                  </g>
                </g>
                <g id="Grupo_137863" data-name="Grupo 137863" transform="translate(45.661 11.359)">
                  <g id="Grupo_137862" data-name="Grupo 137862">
                    <path id="Trazado_193944" data-name="Trazado 193944" d="M-5477.05,3451.461a7.242,7.242,0,0,1,.921-.061l2.68-.1,9.629-.273.183,0v.186c.007,2.794.014,5.919.023,9.236v.089l-.066.061-1.678,1.542-4.943,4.531-.132.12-.131-.117-6.591-5.875-.055-.048v-.071c.034-2.808.063-5.115.083-6.776.017-.756.03-1.363.041-1.826a3.986,3.986,0,0,1,.034-.614,5.6,5.6,0,0,1,.035.676c.01.472.023,1.091.04,1.861.021,1.637.049,3.911.084,6.68l-.053-.118,6.641,5.817-.262,0,4.932-4.542c.576-.528,1.145-1.049,1.679-1.541l-.065.15c.009-3.317.016-6.441.023-9.236l.183.18-9.517.089-2.723,0-.732-.007A1.693,1.693,0,0,1-5477.05,3451.461Z" transform="translate(5477.209 -3451.024)" fill="#375a64"/>
                  </g>
                </g>
                <g id="Grupo_137865" data-name="Grupo 137865" transform="translate(23.563 11.177)">
                  <g id="Grupo_137864" data-name="Grupo 137864">
                    <path id="Trazado_193945" data-name="Trazado 193945" d="M-5504.14,3450.8a6.142,6.142,0,0,1,.822.042l2.4.2,8.665.785.18.016-.022.181c-.327,2.733-.7,5.847-1.1,9.171l-.01.082-.065.052-1.92,1.533-4.739,3.771-.154.123-.123-.154-5.18-6.549-.043-.054.009-.066c.375-2.772.684-5.059.907-6.709q.162-1.12.262-1.812a3.775,3.775,0,0,1,.111-.607,6.243,6.243,0,0,1-.047.678c-.048.474-.11,1.091-.186,1.858-.18,1.632-.426,3.891-.726,6.632l-.034-.12,5.236,6.5-.277-.031,4.73-3.781,1.922-1.532-.075.134c.416-3.321.805-6.433,1.147-9.165l.159.2-8.536-.952-2.427-.292A8.677,8.677,0,0,1-5504.14,3450.8Z" transform="translate(5505.428 -3450.792)" fill="#375a64"/>
                  </g>
                </g>
                <g id="Grupo_137867" data-name="Grupo 137867" transform="translate(38.419 25.811)">
                  <g id="Grupo_137866" data-name="Grupo 137866">
                    <path id="Trazado_193946" data-name="Trazado 193946" d="M-5472.766,3476.314a13.4,13.4,0,0,1-2.019-.981c-1.228-.641-2.921-1.526-4.809-2.468s-3.615-1.763-4.865-2.357a13.5,13.5,0,0,1-2-1.023,11.239,11.239,0,0,1,2.116.76c1.282.528,3.034,1.31,4.93,2.255s3.573,1.874,4.766,2.581A11.188,11.188,0,0,1-5472.766,3476.314Z" transform="translate(5486.458 -3469.479)" fill="#375a64"/>
                  </g>
                </g>
                <g id="Grupo_137869" data-name="Grupo 137869" transform="translate(43.891 28.553)">
                  <g id="Grupo_137868" data-name="Grupo 137868">
                    <path id="Trazado_193947" data-name="Trazado 193947" d="M-5471.823,3480.507a4.573,4.573,0,0,1-1.52-.572,12.989,12.989,0,0,1-3.179-2.3,12.984,12.984,0,0,1-2.347-3.144,4.586,4.586,0,0,1-.6-1.51,23.158,23.158,0,0,0,3.229,4.363A23.146,23.146,0,0,0-5471.823,3480.507Z" transform="translate(5479.47 -3472.981)" fill="#375a64"/>
                  </g>
                </g>
                <g id="Grupo_137871" data-name="Grupo 137871" transform="translate(48.318 76.94)">
                  <g id="Grupo_137870" data-name="Grupo 137870">
                    <path id="Trazado_193948" data-name="Trazado 193948" d="M-5458.02,3534.771a2.364,2.364,0,0,1-.2.739,9.855,9.855,0,0,1-.929,1.871,11.512,11.512,0,0,1-5.2,4.438,11.509,11.509,0,0,1-6.808.629,9.955,9.955,0,0,1-1.988-.64,2.385,2.385,0,0,1-.67-.371,27.9,27.9,0,0,0,2.713.727,11.939,11.939,0,0,0,6.595-.722,11.955,11.955,0,0,0,5.118-4.22A27.657,27.657,0,0,0-5458.02,3534.771Z" transform="translate(5473.817 -3534.77)" fill="#375a64"/>
                  </g>
                </g>
                <g id="Grupo_137873" data-name="Grupo 137873" transform="translate(48.764 75.726)">
                  <g id="Grupo_137872" data-name="Grupo 137872">
                    <path id="Trazado_193949" data-name="Trazado 193949" d="M-5460.825,3533.23a5.484,5.484,0,0,1-1.7.752,16.716,16.716,0,0,1-4.432.731,23.518,23.518,0,0,1-4.478-.263,7.066,7.066,0,0,1-1.81-.418c.019-.14,2.812.4,6.271.273a21.085,21.085,0,0,0,4.368-.6A18.081,18.081,0,0,1-5460.825,3533.23Z" transform="translate(5473.246 -3533.221)" fill="#375a64"/>
                  </g>
                </g>
                <g id="Grupo_137875" data-name="Grupo 137875" transform="translate(15.044 76.573)">
                  <g id="Grupo_137874" data-name="Grupo 137874">
                    <path id="Trazado_193950" data-name="Trazado 193950" d="M-5503.292,3534.305a7.149,7.149,0,0,1-1.55,1.4,18.01,18.01,0,0,1-4.439,2.409,18.011,18.011,0,0,1-4.936,1.081,7.141,7.141,0,0,1-2.091-.048c0-.067.8-.08,2.063-.238a21.9,21.9,0,0,0,4.821-1.177,21.9,21.9,0,0,0,4.417-2.263A20.494,20.494,0,0,1-5503.292,3534.305Z" transform="translate(5516.308 -3534.302)" fill="#375a64"/>
                  </g>
                </g>
                <g id="Grupo_137877" data-name="Grupo 137877" transform="translate(16.085 75.745)">
                  <g id="Grupo_137876" data-name="Grupo 137876">
                    <path id="Trazado_193951" data-name="Trazado 193951" d="M-5506.908,3533.9a9.871,9.871,0,0,1-4.087.335,9.859,9.859,0,0,1-3.981-.978c.036-.119,1.788.4,4.015.572C-5508.738,3534.019-5506.926,3533.782-5506.908,3533.9Z" transform="translate(5514.977 -3533.244)" fill="#375a64"/>
                  </g>
                </g>
                <g id="Grupo_137879" data-name="Grupo 137879" transform="translate(27.294 28.453)">
                  <g id="Grupo_137878" data-name="Grupo 137878">
                    <path id="Trazado_193952" data-name="Trazado 193952" d="M-5486.034,3472.86a8.846,8.846,0,0,1-2,.906,27.774,27.774,0,0,1-5.14,1.335,27.9,27.9,0,0,1-5.3.337,8.849,8.849,0,0,1-2.186-.237,17.208,17.208,0,0,1,2.188-.052,37.712,37.712,0,0,0,5.235-.452,37.6,37.6,0,0,0,5.113-1.205A17.438,17.438,0,0,1-5486.034,3472.86Z" transform="translate(5500.665 -3472.853)" fill="#375a64"/>
                  </g>
                </g>
                <g id="Grupo_137894" data-name="Grupo 137894" transform="translate(40.504 5.691)">
                  <g id="Grupo_137881" data-name="Grupo 137881" transform="translate(0.011 18.203)">
                    <g id="Grupo_137880" data-name="Grupo 137880">
                      <path id="Trazado_193953" data-name="Trazado 193953" d="M-5483.586,3467.032c.112,0,.208.349.215.78s-.081.784-.194.786-.208-.348-.213-.78S-5483.7,3467.033-5483.586,3467.032Z" transform="translate(5483.779 -3467.032)" fill="#375a64"/>
                    </g>
                  </g>
                  <g id="Grupo_137883" data-name="Grupo 137883" transform="translate(0 15.07)">
                    <g id="Grupo_137882" data-name="Grupo 137882">
                      <path id="Trazado_193954" data-name="Trazado 193954" d="M-5483.586,3463.031c.113,0,.2.353.2.785s-.1.782-.209.782-.2-.352-.2-.785S-5483.7,3463.031-5483.586,3463.031Z" transform="translate(5483.794 -3463.031)" fill="#375a64"/>
                    </g>
                  </g>
                  <g id="Grupo_137885" data-name="Grupo 137885" transform="translate(0.048 11.939)">
                    <g id="Grupo_137884" data-name="Grupo 137884">
                      <path id="Trazado_193955" data-name="Trazado 193955" d="M-5483.509,3459.032c.113,0,.2.356.185.788s-.112.78-.223.778-.2-.355-.185-.788S-5483.621,3459.028-5483.509,3459.032Z" transform="translate(5483.733 -3459.032)" fill="#375a64"/>
                    </g>
                  </g>
                  <g id="Grupo_137887" data-name="Grupo 137887" transform="translate(0.156 8.808)">
                    <g id="Grupo_137886" data-name="Grupo 137886">
                      <path id="Trazado_193956" data-name="Trazado 193956" d="M-5483.354,3455.035c.113.005.188.36.17.791s-.127.779-.239.774-.188-.359-.169-.792S-5483.465,3455.029-5483.354,3455.035Z" transform="translate(5483.595 -3455.035)" fill="#375a64"/>
                    </g>
                  </g>
                  <g id="Grupo_137889" data-name="Grupo 137889" transform="translate(0.323 5.681)">
                    <g id="Grupo_137888" data-name="Grupo 137888">
                      <path id="Trazado_193957" data-name="Trazado 193957" d="M-5483.121,3451.041c.112.008.18.364.153.795s-.141.775-.254.768-.181-.362-.153-.794S-5483.233,3451.033-5483.121,3451.041Z" transform="translate(5483.381 -3451.041)" fill="#375a64"/>
                    </g>
                  </g>
                  <g id="Grupo_137891" data-name="Grupo 137891" transform="translate(0.551 2.558)">
                    <g id="Grupo_137890" data-name="Grupo 137890">
                      <path id="Trazado_193958" data-name="Trazado 193958" d="M-5482.812,3447.054c.113.01.173.366.137.8s-.156.772-.268.763-.174-.366-.138-.8S-5482.923,3447.044-5482.812,3447.054Z" transform="translate(5483.091 -3447.054)" fill="#375a64"/>
                    </g>
                  </g>
                  <g id="Grupo_137893" data-name="Grupo 137893" transform="translate(0.818)">
                    <g id="Grupo_137892" data-name="Grupo 137892">
                      <path id="Trazado_193959" data-name="Trazado 193959" d="M-5482.49,3443.787c.112.012.18.246.152.52s-.141.489-.253.479-.18-.244-.152-.52S-5482.6,3443.775-5482.49,3443.787Z" transform="translate(5482.75 -3443.787)" fill="#375a64"/>
                    </g>
                  </g>
                </g>
                <g id="Grupo_137969" data-name="Grupo 137969" transform="translate(15.988 30.079)">
                  <g id="Grupo_137896" data-name="Grupo 137896" transform="translate(0 110.575)">
                    <g id="Grupo_137895" data-name="Grupo 137895">
                      <path id="Trazado_193960" data-name="Trazado 193960" d="M-5514.7,3616.134c.112.022.132.384.047.807s-.243.75-.354.728-.13-.384-.046-.808S-5514.806,3616.111-5514.7,3616.134Z" transform="translate(5515.102 -3616.133)" fill="#375a64"/>
                    </g>
                  </g>
                  <g id="Grupo_137898" data-name="Grupo 137898" transform="translate(0.614 107.503)">
                    <g id="Grupo_137897" data-name="Grupo 137897">
                      <path id="Trazado_193961" data-name="Trazado 193961" d="M-5513.911,3612.211c.109.022.131.384.045.808s-.241.75-.353.728-.131-.384-.046-.807S-5514.021,3612.189-5513.911,3612.211Z" transform="translate(5514.317 -3612.21)" fill="#375a64"/>
                    </g>
                  </g>
                  <g id="Grupo_137900" data-name="Grupo 137900" transform="translate(1.229 104.432)">
                    <g id="Grupo_137899" data-name="Grupo 137899">
                      <path id="Trazado_193962" data-name="Trazado 193962" d="M-5513.127,3608.289c.111.022.132.384.046.808s-.244.75-.354.727-.13-.383-.046-.808S-5513.237,3608.267-5513.127,3608.289Z" transform="translate(5513.533 -3608.288)" fill="#375a64"/>
                    </g>
                  </g>
                  <g id="Grupo_137902" data-name="Grupo 137902" transform="translate(1.843 101.36)">
                    <g id="Grupo_137901" data-name="Grupo 137901">
                      <path id="Trazado_193963" data-name="Trazado 193963" d="M-5512.343,3604.367c.11.022.132.384.047.807s-.243.75-.354.728-.13-.383-.046-.808S-5512.453,3604.344-5512.343,3604.367Z" transform="translate(5512.748 -3604.366)" fill="#375a64"/>
                    </g>
                  </g>
                  <g id="Grupo_137904" data-name="Grupo 137904" transform="translate(2.458 98.288)">
                    <g id="Grupo_137903" data-name="Grupo 137903">
                      <path id="Trazado_193964" data-name="Trazado 193964" d="M-5511.557,3600.444c.11.022.131.384.045.808s-.242.75-.354.729-.131-.385-.045-.808S-5511.668,3600.422-5511.557,3600.444Z" transform="translate(5511.963 -3600.443)" fill="#375a64"/>
                    </g>
                  </g>
                  <g id="Grupo_137906" data-name="Grupo 137906" transform="translate(3.072 95.217)">
                    <g id="Grupo_137905" data-name="Grupo 137905">
                      <path id="Trazado_193965" data-name="Trazado 193965" d="M-5510.773,3596.522c.11.022.13.384.046.808s-.244.749-.354.728-.13-.384-.046-.807S-5510.883,3596.5-5510.773,3596.522Z" transform="translate(5511.179 -3596.521)" fill="#375a64"/>
                    </g>
                  </g>
                  <g id="Grupo_137908" data-name="Grupo 137908" transform="translate(3.687 92.146)">
                    <g id="Grupo_137907" data-name="Grupo 137907">
                      <path id="Trazado_193966" data-name="Trazado 193966" d="M-5509.988,3592.6c.111.022.131.383.047.807s-.244.75-.354.728-.131-.384-.047-.808S-5510.1,3592.578-5509.988,3592.6Z" transform="translate(5510.394 -3592.599)" fill="#375a64"/>
                    </g>
                  </g>
                  <g id="Grupo_137910" data-name="Grupo 137910" transform="translate(4.301 89.074)">
                    <g id="Grupo_137909" data-name="Grupo 137909">
                      <path id="Trazado_193967" data-name="Trazado 193967" d="M-5509.2,3588.677c.11.023.132.384.046.808s-.242.75-.353.729-.131-.384-.046-.808S-5509.314,3588.655-5509.2,3588.677Z" transform="translate(5509.609 -3588.676)" fill="#375a64"/>
                    </g>
                  </g>
                  <g id="Grupo_137912" data-name="Grupo 137912" transform="translate(4.915 86.002)">
                    <g id="Grupo_137911" data-name="Grupo 137911">
                      <path id="Trazado_193968" data-name="Trazado 193968" d="M-5508.418,3584.755c.11.022.131.384.046.808s-.243.75-.354.728-.132-.384-.046-.807S-5508.529,3584.733-5508.418,3584.755Z" transform="translate(5508.825 -3584.754)" fill="#375a64"/>
                    </g>
                  </g>
                  <g id="Grupo_137914" data-name="Grupo 137914" transform="translate(5.53 82.931)">
                    <g id="Grupo_137913" data-name="Grupo 137913">
                      <path id="Trazado_193969" data-name="Trazado 193969" d="M-5507.635,3580.833c.111.022.132.384.046.808s-.242.749-.353.727-.132-.384-.047-.808S-5507.745,3580.811-5507.635,3580.833Z" transform="translate(5508.041 -3580.832)" fill="#375a64"/>
                    </g>
                  </g>
                  <g id="Grupo_137916" data-name="Grupo 137916" transform="translate(6.144 79.86)">
                    <g id="Grupo_137915" data-name="Grupo 137915">
                      <path id="Trazado_193970" data-name="Trazado 193970" d="M-5506.85,3576.911c.11.022.131.384.046.807s-.242.75-.353.729-.131-.384-.047-.808S-5506.96,3576.888-5506.85,3576.911Z" transform="translate(5507.255 -3576.91)" fill="#375a64"/>
                    </g>
                  </g>
                  <g id="Grupo_137918" data-name="Grupo 137918" transform="translate(6.759 76.788)">
                    <g id="Grupo_137917" data-name="Grupo 137917">
                      <path id="Trazado_193971" data-name="Trazado 193971" d="M-5506.064,3572.988c.11.023.13.385.045.808s-.243.75-.354.729-.131-.385-.045-.808S-5506.175,3572.966-5506.064,3572.988Z" transform="translate(5506.471 -3572.987)" fill="#375a64"/>
                    </g>
                  </g>
                  <g id="Grupo_137920" data-name="Grupo 137920" transform="translate(7.373 73.716)">
                    <g id="Grupo_137919" data-name="Grupo 137919">
                      <path id="Trazado_193972" data-name="Trazado 193972" d="M-5505.281,3569.066c.11.022.131.383.046.808s-.243.75-.354.728-.131-.384-.046-.807S-5505.391,3569.044-5505.281,3569.066Z" transform="translate(5505.687 -3569.065)" fill="#375a64"/>
                    </g>
                  </g>
                  <g id="Grupo_137922" data-name="Grupo 137922" transform="translate(7.988 70.645)">
                    <g id="Grupo_137921" data-name="Grupo 137921">
                      <path id="Trazado_193973" data-name="Trazado 193973" d="M-5504.5,3565.144c.11.021.13.383.045.807s-.242.75-.354.728-.13-.384-.046-.808S-5504.606,3565.122-5504.5,3565.144Z" transform="translate(5504.902 -3565.143)" fill="#375a64"/>
                    </g>
                  </g>
                  <g id="Grupo_137924" data-name="Grupo 137924" transform="translate(8.602 67.573)">
                    <g id="Grupo_137923" data-name="Grupo 137923">
                      <path id="Trazado_193974" data-name="Trazado 193974" d="M-5503.711,3561.221c.111.023.131.384.046.808s-.244.75-.354.729-.13-.384-.046-.808S-5503.822,3561.2-5503.711,3561.221Z" transform="translate(5504.117 -3561.22)" fill="#375a64"/>
                    </g>
                  </g>
                  <g id="Grupo_137926" data-name="Grupo 137926" transform="translate(9.217 64.502)">
                    <g id="Grupo_137925" data-name="Grupo 137925">
                      <path id="Trazado_193975" data-name="Trazado 193975" d="M-5502.927,3557.3c.111.022.131.384.046.808s-.243.75-.354.727-.132-.384-.046-.807S-5503.037,3557.277-5502.927,3557.3Z" transform="translate(5503.333 -3557.298)" fill="#375a64"/>
                    </g>
                  </g>
                  <g id="Grupo_137928" data-name="Grupo 137928" transform="translate(9.831 61.431)">
                    <g id="Grupo_137927" data-name="Grupo 137927">
                      <path id="Trazado_193976" data-name="Trazado 193976" d="M-5502.142,3553.377c.11.021.131.384.046.808s-.244.749-.354.727-.131-.384-.046-.808S-5502.252,3553.355-5502.142,3553.377Z" transform="translate(5502.548 -3553.376)" fill="#375a64"/>
                    </g>
                  </g>
                  <g id="Grupo_137930" data-name="Grupo 137930" transform="translate(10.446 58.359)">
                    <g id="Grupo_137929" data-name="Grupo 137929">
                      <path id="Trazado_193977" data-name="Trazado 193977" d="M-5501.357,3549.455c.11.021.131.384.047.807s-.244.75-.354.729-.13-.384-.046-.808S-5501.467,3549.432-5501.357,3549.455Z" transform="translate(5501.763 -3549.454)" fill="#375a64"/>
                    </g>
                  </g>
                  <g id="Grupo_137932" data-name="Grupo 137932" transform="translate(11.06 55.287)">
                    <g id="Grupo_137931" data-name="Grupo 137931">
                      <path id="Trazado_193978" data-name="Trazado 193978" d="M-5500.573,3545.532c.111.023.132.384.046.808s-.242.75-.354.727-.131-.384-.046-.807S-5500.683,3545.51-5500.573,3545.532Z" transform="translate(5500.979 -3545.531)" fill="#375a64"/>
                    </g>
                  </g>
                  <g id="Grupo_137934" data-name="Grupo 137934" transform="translate(11.674 52.216)">
                    <g id="Grupo_137933" data-name="Grupo 137933">
                      <path id="Trazado_193979" data-name="Trazado 193979" d="M-5499.787,3541.61c.109.021.13.383.046.808s-.243.75-.354.727-.131-.384-.047-.808S-5499.9,3541.588-5499.787,3541.61Z" transform="translate(5500.193 -3541.609)" fill="#375a64"/>
                    </g>
                  </g>
                  <g id="Grupo_137936" data-name="Grupo 137936" transform="translate(12.289 49.145)">
                    <g id="Grupo_137935" data-name="Grupo 137935">
                      <path id="Trazado_193980" data-name="Trazado 193980" d="M-5499,3537.688c.11.022.131.383.046.807s-.243.75-.354.729-.131-.384-.046-.809S-5499.114,3537.666-5499,3537.688Z" transform="translate(5499.409 -3537.687)" fill="#375a64"/>
                    </g>
                  </g>
                  <g id="Grupo_137938" data-name="Grupo 137938" transform="translate(12.903 46.072)">
                    <g id="Grupo_137937" data-name="Grupo 137937">
                      <path id="Trazado_193981" data-name="Trazado 193981" d="M-5498.219,3533.765c.11.023.131.385.046.808s-.243.75-.353.728-.131-.384-.047-.808S-5498.329,3533.743-5498.219,3533.765Z" transform="translate(5498.624 -3533.764)" fill="#375a64"/>
                    </g>
                  </g>
                  <g id="Grupo_137940" data-name="Grupo 137940" transform="translate(13.518 43.001)">
                    <g id="Grupo_137939" data-name="Grupo 137939">
                      <path id="Trazado_193982" data-name="Trazado 193982" d="M-5497.434,3529.843c.11.022.131.384.046.808s-.244.75-.354.728-.131-.384-.046-.808S-5497.544,3529.821-5497.434,3529.843Z" transform="translate(5497.839 -3529.842)" fill="#375a64"/>
                    </g>
                  </g>
                  <g id="Grupo_137942" data-name="Grupo 137942" transform="translate(14.132 39.93)">
                    <g id="Grupo_137941" data-name="Grupo 137941">
                      <path id="Trazado_193983" data-name="Trazado 193983" d="M-5496.65,3525.921c.11.022.131.384.046.808s-.243.75-.354.728-.131-.384-.046-.808S-5496.76,3525.9-5496.65,3525.921Z" transform="translate(5497.055 -3525.92)" fill="#375a64"/>
                    </g>
                  </g>
                  <g id="Grupo_137944" data-name="Grupo 137944" transform="translate(14.746 36.858)">
                    <g id="Grupo_137943" data-name="Grupo 137943">
                      <path id="Trazado_193984" data-name="Trazado 193984" d="M-5495.864,3522c.11.022.13.384.046.807s-.243.75-.353.729-.132-.384-.047-.808S-5495.975,3521.976-5495.864,3522Z" transform="translate(5496.271 -3521.998)" fill="#375a64"/>
                    </g>
                  </g>
                  <g id="Grupo_137946" data-name="Grupo 137946" transform="translate(15.361 33.787)">
                    <g id="Grupo_137945" data-name="Grupo 137945">
                      <path id="Trazado_193985" data-name="Trazado 193985" d="M-5495.08,3518.075c.11.023.13.384.045.808s-.244.75-.354.728-.13-.383-.046-.807S-5495.19,3518.054-5495.08,3518.075Z" transform="translate(5495.486 -3518.074)" fill="#375a64"/>
                    </g>
                  </g>
                  <g id="Grupo_137948" data-name="Grupo 137948" transform="translate(15.975 30.715)">
                    <g id="Grupo_137947" data-name="Grupo 137947">
                      <path id="Trazado_193986" data-name="Trazado 193986" d="M-5494.3,3514.154c.111.021.131.383.046.808s-.243.75-.353.728-.132-.384-.046-.808S-5494.406,3514.132-5494.3,3514.154Z" transform="translate(5494.701 -3514.153)" fill="#375a64"/>
                    </g>
                  </g>
                  <g id="Grupo_137950" data-name="Grupo 137950" transform="translate(16.59 27.644)">
                    <g id="Grupo_137949" data-name="Grupo 137949">
                      <path id="Trazado_193987" data-name="Trazado 193987" d="M-5493.511,3510.232c.111.022.131.384.046.807s-.242.75-.354.729-.131-.384-.046-.808S-5493.622,3510.21-5493.511,3510.232Z" transform="translate(5493.917 -3510.231)" fill="#375a64"/>
                    </g>
                  </g>
                  <g id="Grupo_137952" data-name="Grupo 137952" transform="translate(17.205 24.572)">
                    <g id="Grupo_137951" data-name="Grupo 137951">
                      <path id="Trazado_193988" data-name="Trazado 193988" d="M-5492.727,3506.309c.11.023.131.385.046.808s-.243.75-.354.728-.13-.383-.046-.808S-5492.836,3506.287-5492.727,3506.309Z" transform="translate(5493.132 -3506.308)" fill="#375a64"/>
                    </g>
                  </g>
                  <g id="Grupo_137954" data-name="Grupo 137954" transform="translate(17.819 21.501)">
                    <g id="Grupo_137953" data-name="Grupo 137953">
                      <path id="Trazado_193989" data-name="Trazado 193989" d="M-5491.942,3502.387c.11.022.132.384.046.808s-.242.75-.354.727-.131-.384-.045-.808S-5492.053,3502.365-5491.942,3502.387Z" transform="translate(5492.347 -3502.386)" fill="#375a64"/>
                    </g>
                  </g>
                  <g id="Grupo_137956" data-name="Grupo 137956" transform="translate(18.433 18.429)">
                    <g id="Grupo_137955" data-name="Grupo 137955">
                      <path id="Trazado_193990" data-name="Trazado 193990" d="M-5491.157,3498.465c.11.022.131.384.047.808s-.244.75-.354.728-.13-.384-.046-.808S-5491.268,3498.443-5491.157,3498.465Z" transform="translate(5491.563 -3498.464)" fill="#375a64"/>
                    </g>
                  </g>
                  <g id="Grupo_137958" data-name="Grupo 137958" transform="translate(19.048 15.358)">
                    <g id="Grupo_137957" data-name="Grupo 137957">
                      <path id="Trazado_193991" data-name="Trazado 193991" d="M-5490.372,3494.543c.11.022.131.384.046.807s-.243.75-.354.729-.13-.384-.046-.808S-5490.483,3494.52-5490.372,3494.543Z" transform="translate(5490.778 -3494.542)" fill="#375a64"/>
                    </g>
                  </g>
                  <g id="Grupo_137960" data-name="Grupo 137960" transform="translate(19.662 12.286)">
                    <g id="Grupo_137959" data-name="Grupo 137959">
                      <path id="Trazado_193992" data-name="Trazado 193992" d="M-5489.588,3490.62c.111.022.131.384.046.808s-.243.75-.354.728-.131-.384-.045-.807S-5489.7,3490.6-5489.588,3490.62Z" transform="translate(5489.994 -3490.619)" fill="#375a64"/>
                    </g>
                  </g>
                  <g id="Grupo_137962" data-name="Grupo 137962" transform="translate(20.277 9.215)">
                    <g id="Grupo_137961" data-name="Grupo 137961">
                      <path id="Trazado_193993" data-name="Trazado 193993" d="M-5488.8,3486.7c.11.022.13.384.046.808s-.244.75-.355.728-.13-.384-.046-.808S-5488.914,3486.676-5488.8,3486.7Z" transform="translate(5489.209 -3486.697)" fill="#375a64"/>
                    </g>
                  </g>
                  <g id="Grupo_137964" data-name="Grupo 137964" transform="translate(20.891 6.143)">
                    <g id="Grupo_137963" data-name="Grupo 137963">
                      <path id="Trazado_193994" data-name="Trazado 193994" d="M-5488.019,3482.776c.11.022.131.384.046.808s-.243.75-.353.728-.131-.383-.046-.808S-5488.129,3482.754-5488.019,3482.776Z" transform="translate(5488.424 -3482.775)" fill="#375a64"/>
                    </g>
                  </g>
                  <g id="Grupo_137966" data-name="Grupo 137966" transform="translate(21.506 3.071)">
                    <g id="Grupo_137965" data-name="Grupo 137965">
                      <path id="Trazado_193995" data-name="Trazado 193995" d="M-5487.233,3478.853c.11.023.13.384.046.808s-.243.75-.353.728-.132-.384-.047-.808S-5487.344,3478.831-5487.233,3478.853Z" transform="translate(5487.639 -3478.852)" fill="#375a64"/>
                    </g>
                  </g>
                  <g id="Grupo_137968" data-name="Grupo 137968" transform="translate(22.12)">
                    <g id="Grupo_137967" data-name="Grupo 137967">
                      <path id="Trazado_193996" data-name="Trazado 193996" d="M-5486.449,3474.931c.11.022.131.384.045.808s-.242.75-.354.728-.13-.384-.046-.807S-5486.56,3474.909-5486.449,3474.931Z" transform="translate(5486.855 -3474.93)" fill="#375a64"/>
                    </g>
                  </g>
                </g>
              </g>
              <g id="Grupo_137987" data-name="Grupo 137987" transform="translate(769.112 10154.35)">
                <g id="Grupo_137974" data-name="Grupo 137974" transform="translate(5.717 0)">
                  <g id="Grupo_137971" data-name="Grupo 137971">
                    <path id="Trazado_193997" data-name="Trazado 193997" d="M-5407.906,3349.593s5.212-7.816,5.352-7.884h0s4.706-7.926,6.271-7.927,1,1.605-.616,4.445a11.327,11.327,0,0,0-1.561,4.043l3.866,2.334s2.582-1,2.689,1.407a16.7,16.7,0,0,1-.444,3.269c-.158.857-.544,1.771-1.354,1.448a1.016,1.016,0,0,1-.692-.967c-.049-1.424.217-1.946.035-1.946-.232,0-2.782,7.468-2.782,7.468Z" transform="translate(5407.906 -3333.782)" fill="#ffbf9d"/>
                  </g>
                  <g id="Grupo_137972" data-name="Grupo 137972" transform="translate(10.526 8.69)">
                    <path id="Trazado_193998" data-name="Trazado 193998" d="M-5394.464,3345.864a7.5,7.5,0,0,1,1.239-.739,2.533,2.533,0,0,1,1.408-.219,1.267,1.267,0,0,1,.784.417,1.283,1.283,0,0,1,.147,1.187,3.739,3.739,0,0,1-.634,1.064" transform="translate(5394.464 -3344.88)" fill="#ffbf9d"/>
                  </g>
                  <g id="Grupo_137973" data-name="Grupo 137973" transform="translate(8.763 7.17)">
                    <path id="Trazado_193999" data-name="Trazado 193999" d="M-5396.716,3343.866a7.1,7.1,0,0,1,1.176-.7,2.4,2.4,0,0,1,1.332-.206,1.2,1.2,0,0,1,.743.392,1.2,1.2,0,0,1,.141,1.118,10.036,10.036,0,0,1-1.2,1.546" transform="translate(5396.716 -3342.938)" fill="#ffbf9d"/>
                  </g>
                </g>
                <g id="Grupo_137975" data-name="Grupo 137975" transform="translate(0 11.399)">
                  <path id="Trazado_194000" data-name="Trazado 194000" d="M-5407.674,3348.338l-7.533,16.111,8.3,8.488,4.328-12.008s2.32.462,3.266-1.076a40.266,40.266,0,0,0,2.44-6.68Z" transform="translate(5415.207 -3348.338)" fill="#ffbf9d"/>
                </g>
                <g id="Grupo_137977" data-name="Grupo 137977" transform="translate(12.898 7.335)">
                  <g id="Grupo_137976" data-name="Grupo 137976">
                    <path id="Trazado_194001" data-name="Trazado 194001" d="M-5398.717,3346.768a4.086,4.086,0,0,1,.89-2.228,3.97,3.97,0,0,1,1.292-1.144c.386-.211.649-.281.673-.234.072.12-.9.6-1.636,1.618S-5398.591,3346.822-5398.717,3346.768Z" transform="translate(5398.735 -3343.149)" fill="#ff9a6c"/>
                  </g>
                </g>
                <g id="Grupo_137979" data-name="Grupo 137979" transform="translate(17.163 10.459)">
                  <g id="Grupo_137978" data-name="Grupo 137978">
                    <path id="Trazado_194002" data-name="Trazado 194002" d="M-5389.18,3347.7c-.034.054-.291-.087-.73-.163a2.547,2.547,0,0,0-1.646.251,4,4,0,0,0-1.223,1.214c-.27.377-.447.614-.5.585s.038-.308.252-.736a3.306,3.306,0,0,1,1.273-1.42,2.426,2.426,0,0,1,1.914-.174C-5389.361,3347.423-5389.15,3347.664-5389.18,3347.7Z" transform="translate(5393.29 -3347.138)" fill="#ff9a6c"/>
                  </g>
                </g>
                <g id="Grupo_137981" data-name="Grupo 137981" transform="translate(15.31 8.701)">
                  <g id="Grupo_137980" data-name="Grupo 137980">
                    <path id="Trazado_194003" data-name="Trazado 194003" d="M-5392.5,3344.942a10.676,10.676,0,0,0-1.769,1.04c-.844.744-1.256,1.619-1.372,1.562a2.847,2.847,0,0,1,1.1-1.869,3.248,3.248,0,0,1,1.388-.727C-5392.753,3344.862-5392.5,3344.891-5392.5,3344.942Z" transform="translate(5395.656 -3344.893)" fill="#ff9a6c"/>
                  </g>
                </g>
                <g id="Grupo_137983" data-name="Grupo 137983" transform="translate(19.178 12.227)">
                  <g id="Grupo_137982" data-name="Grupo 137982">
                    <path id="Trazado_194004" data-name="Trazado 194004" d="M-5389.575,3349.4c.107-.041.3.584-.092,1.209s-1.039.722-1.048.609c-.035-.111.406-.334.7-.825C-5389.7,3349.909-5389.689,3349.415-5389.575,3349.4Z" transform="translate(5390.717 -3349.396)" fill="#ff9a6c"/>
                  </g>
                </g>
                <g id="Grupo_137984" data-name="Grupo 137984" transform="translate(5.709 9.128)">
                  <path id="Trazado_194005" data-name="Trazado 194005" d="M-5407.891,3351.808s-.263-4.808.9-5.9,4.492.042,4.492.042" transform="translate(5407.916 -3345.438)" fill="#ffbf9d"/>
                </g>
                <g id="Grupo_137986" data-name="Grupo 137986" transform="translate(7.811 7.347)">
                  <g id="Grupo_137985" data-name="Grupo 137985">
                    <path id="Trazado_194006" data-name="Trazado 194006" d="M-5401.446,3343.167a13.042,13.042,0,0,1-1.724,2.74,12.974,12.974,0,0,1-2.054,2.5,12.977,12.977,0,0,1,1.724-2.74A12.882,12.882,0,0,1-5401.446,3343.167Z" transform="translate(5405.232 -3343.164)" fill="#ff9a6c"/>
                  </g>
                </g>
              </g>
              <g id="Grupo_137989" data-name="Grupo 137989" transform="translate(683.465 10150.206)">
                <g id="Grupo_137988" data-name="Grupo 137988">
                  <path id="Trazado_194007" data-name="Trazado 194007" d="M-5508.5,3344.364c.115-.644.271-1.4.5-2.271a6.83,6.83,0,0,1,.952-2.11,10.445,10.445,0,0,1,1.844-2.219.9.9,0,0,0-.393-1.647c-.807,0-2.811,1.413-4.187,3.921s-2.186-1.921-2.511-3.53-1.559-6.54-2.133-6.832c-.841-.429-1.455.394-1.094,1.993.366,1.618,1.105,6.471.248,6.6s-2.382-8.084-2.382-8.084-.045-1.809-1.041-1.691c-1.8.211.48,8.821.717,9.635.164.566-.762.74-.907.124-.148-.635-1.342-8.227-3.174-8.029-1.406.152,1.807,7.1,1.18,8.811s-1.9-5.516-3.237-5.315c-.5.074-.859.2.471,4.245.646,1.964,3.15,11.159,3.15,11.159l-1.437,7.537,11.446,2.9Z" transform="translate(5524.576 -3328.49)" fill="#ffbf9d"/>
                </g>
              </g>
              <g id="Grupo_138015" data-name="Grupo 138015" transform="translate(706.736 10111.309)">
                <g id="Grupo_137995" data-name="Grupo 137995" transform="translate(1.791 4.078)">
                  <g id="Grupo_137994" data-name="Grupo 137994">
                    <g id="Grupo_137991" data-name="Grupo 137991" transform="translate(5.372 5.244)">
                      <g id="Grupo_137990" data-name="Grupo 137990">
                        <path id="Trazado_194008" data-name="Trazado 194008" d="M-5485.6,3295.341l-.115,37.52,16.1.768.465-9.126s5.718,1.135,7.192-4.175c.943-3.392.707-29.6.707-29.6Z" transform="translate(5485.713 -3290.723)" fill="#ffbf9d"/>
                      </g>
                    </g>
                    <g id="Grupo_137993" data-name="Grupo 137993">
                      <g id="Grupo_137992" data-name="Grupo 137992">
                        <path id="Trazado_194009" data-name="Trazado 194009" d="M-5460.621,3291.913c-2.536.725-3.086,4.869-3.086,4.869l-3.976,8.783c-2.027-1.585-4.746-1.495-5.261,2.065-.373,2.572,2.827,3.092,2.827,3.092-1.862,3.169-3.126,5.732-5.836,8.746-2.935,3.262-4.578,3.592-7.761,3.644h-3.509s-1.717-5.575-4.9-19.519c-3.528-15.47,14.764-13.477,18.155-17.425C-5468.445,3279.737-5452.629,3289.625-5460.621,3291.913Z" transform="translate(5492.572 -3284.027)" fill="#1a2e35"/>
                      </g>
                    </g>
                  </g>
                </g>
                <g id="Grupo_137996" data-name="Grupo 137996">
                  <path id="Trazado_194010" data-name="Trazado 194010" d="M-5492.285,3303.923c-2.965-1.992-3.232-7.565-1.5-10.907a10.74,10.74,0,0,1,9.133-5.679,4.344,4.344,0,0,0,1.492-.168,4.13,4.13,0,0,0,1.6-1.52c2.65-3.445,5.255-6.831,10.194-6.83a5.618,5.618,0,0,1,3.106.771,4.871,4.871,0,0,1,1.863,2.468,10.6,10.6,0,0,1,2.89-1.04,3.569,3.569,0,0,1,2.9.707,2.183,2.183,0,0,1,.456,2.777,3.51,3.51,0,0,1,3.5,2.919c.263,1.648-2.1,2.806-2.344,2.934a3.261,3.261,0,0,1-1.793,4.338,3.7,3.7,0,0,1-3.045-.229" transform="translate(5494.86 -3278.819)" fill="#1a2e35"/>
                </g>
                <g id="Grupo_137998" data-name="Grupo 137998" transform="translate(13.083 28.71)">
                  <g id="Grupo_137997" data-name="Grupo 137997">
                    <path id="Trazado_194011" data-name="Trazado 194011" d="M-5476.908,3315.482a5.588,5.588,0,0,1-.093,2.849,5.558,5.558,0,0,1-1.138,2.613c-.107-.054.409-1.2.74-2.7S-5477.028,3315.485-5476.908,3315.482Z" transform="translate(5478.152 -3315.482)" fill="#375a64"/>
                  </g>
                </g>
                <g id="Grupo_138000" data-name="Grupo 138000" transform="translate(15.251 26.869)">
                  <g id="Grupo_137999" data-name="Grupo 137999">
                    <path id="Trazado_194012" data-name="Trazado 194012" d="M-5474.361,3313.131a6.839,6.839,0,0,1-.149,2.743,6.869,6.869,0,0,1-.85,2.612,14.637,14.637,0,0,1,.449-2.687A14.667,14.667,0,0,1-5474.361,3313.131Z" transform="translate(5475.385 -3313.131)" fill="#375a64"/>
                  </g>
                </g>
                <g id="Grupo_138002" data-name="Grupo 138002" transform="translate(17.735 20.674)">
                  <g id="Grupo_138001" data-name="Grupo 138001">
                    <path id="Trazado_194013" data-name="Trazado 194013" d="M-5468.1,3305.223c.039.054-.417.386-1,1.064a10.289,10.289,0,0,0-1.733,2.994,24.889,24.889,0,0,0-.962,3.374,5.628,5.628,0,0,1-.4,1.419,5.121,5.121,0,0,1,.115-1.472,16.626,16.626,0,0,1,.865-3.468,8.722,8.722,0,0,1,1.9-3.043A3.036,3.036,0,0,1-5468.1,3305.223Z" transform="translate(5472.212 -3305.219)" fill="#375a64"/>
                  </g>
                </g>
                <g id="Grupo_138004" data-name="Grupo 138004" transform="translate(22.43 16.462)">
                  <g id="Grupo_138003" data-name="Grupo 138003">
                    <path id="Trazado_194014" data-name="Trazado 194014" d="M-5464.543,3299.841a2.087,2.087,0,0,1,.313,1.015,6.671,6.671,0,0,1-.14,2.562,6.658,6.658,0,0,1-1.085,2.325c-.4.528-.719.782-.754.748a14.042,14.042,0,0,0,1.444-3.171A14.026,14.026,0,0,0-5464.543,3299.841Z" transform="translate(5466.217 -3299.841)" fill="#375a64"/>
                  </g>
                </g>
                <g id="Grupo_138006" data-name="Grupo 138006" transform="translate(2.885 24.686)">
                  <g id="Grupo_138005" data-name="Grupo 138005">
                    <path id="Trazado_194015" data-name="Trazado 194015" d="M-5489.169,3311.489c-.056.1-.547-.073-1.1-.381s-.958-.64-.9-.738.548.072,1.1.381S-5489.114,3311.391-5489.169,3311.489Z" transform="translate(5491.177 -3310.343)" fill="#375a64"/>
                  </g>
                </g>
                <g id="Grupo_138008" data-name="Grupo 138008" transform="translate(10.971 21.825)">
                  <g id="Grupo_138007" data-name="Grupo 138007">
                    <path id="Trazado_194016" data-name="Trazado 194016" d="M-5479.151,3306.691c.106.015.041.811-.46,1.632s-1.167,1.253-1.231,1.167.431-.618.883-1.377S-5479.267,3306.665-5479.151,3306.691Z" transform="translate(5480.85 -3306.69)" fill="#375a64"/>
                  </g>
                </g>
                <g id="Grupo_138010" data-name="Grupo 138010" transform="translate(12.82 20.541)">
                  <g id="Grupo_138009" data-name="Grupo 138009">
                    <path id="Trazado_194017" data-name="Trazado 194017" d="M-5476.248,3305.051a3.225,3.225,0,0,1-.717,1.951c-.646.979-1.457,1.505-1.519,1.418s.575-.724,1.179-1.644A16.6,16.6,0,0,1-5476.248,3305.051Z" transform="translate(5478.489 -3305.05)" fill="#375a64"/>
                  </g>
                </g>
                <g id="Grupo_138012" data-name="Grupo 138012" transform="translate(5.489 3.272)">
                  <g id="Grupo_138011" data-name="Grupo 138011">
                    <path id="Trazado_194018" data-name="Trazado 194018" d="M-5466.393,3284.555c-.028.033-.3-.229-.883-.56a5.941,5.941,0,0,0-2.7-.7,7.232,7.232,0,0,0-3.958,1.063,9.811,9.811,0,0,0-3.37,3.754,16.9,16.9,0,0,0-1.368,3.519l-.064.236-.216-.114a8.02,8.02,0,0,0-3.591-.918,8.472,8.472,0,0,0-2.924.442,12.433,12.433,0,0,0-2.387,1.193,2.472,2.472,0,0,1,.538-.477,7.469,7.469,0,0,1,1.766-.949,8.36,8.36,0,0,1,3.01-.543,8.171,8.171,0,0,1,3.771.908l-.281.122a16.64,16.64,0,0,1,1.386-3.612,9.955,9.955,0,0,1,3.535-3.882,7.342,7.342,0,0,1,4.164-1.029,5.723,5.723,0,0,1,2.766.849,4.168,4.168,0,0,1,.619.49C-5466.446,3284.474-5466.384,3284.544-5466.393,3284.555Z" transform="translate(5487.85 -3282.998)" fill="#375a64"/>
                  </g>
                </g>
                <g id="Grupo_138014" data-name="Grupo 138014" transform="translate(16.14 6.342)">
                  <g id="Grupo_138013" data-name="Grupo 138013">
                    <path id="Trazado_194019" data-name="Trazado 194019" d="M-5454.979,3287.446c-.027-.007.449-.12.925.418a1.6,1.6,0,0,1,.371,1.175,1.83,1.83,0,0,1-.937,1.337,2.654,2.654,0,0,1-1.956.269,5.656,5.656,0,0,1-2.017-.978,19.941,19.941,0,0,0-1.973-1.352,8.237,8.237,0,0,0-2.378-.836,10.049,10.049,0,0,0-4.853.333,13.287,13.287,0,0,0-3.587,1.823,36.632,36.632,0,0,0-2.864,2.423,4.09,4.09,0,0,1,.637-.793,15.465,15.465,0,0,1,2.057-1.864,12.884,12.884,0,0,1,3.641-1.948,10.179,10.179,0,0,1,5.046-.376,8.473,8.473,0,0,1,2.494.886,18.929,18.929,0,0,1,2,1.4,5.431,5.431,0,0,0,1.875.955,2.365,2.365,0,0,0,1.736-.19,1.6,1.6,0,0,0,.854-1.114,1.457,1.457,0,0,0-.27-1.049A1.41,1.41,0,0,0-5454.979,3287.446Z" transform="translate(5474.249 -3286.917)" fill="#375a64"/>
                  </g>
                </g>
              </g>
              <g id="Grupo_138037" data-name="Grupo 138037" transform="translate(677.247 10159.069)">
                <g id="Grupo_138016" data-name="Grupo 138016" transform="translate(0.174 5.533)">
                  <path id="Trazado_194020" data-name="Trazado 194020" d="M-5512.062,3346.872l-19.671,35.171a9.974,9.974,0,0,0,1.518,9.347l-.407-.584a8.4,8.4,0,0,0,6.53,3.118h.372a8.4,8.4,0,0,0,7.7-5.047l4.619-7.009Z" transform="translate(5532.294 -3346.872)" fill="#0f2771"/>
                </g>
                <g id="Grupo_138017" data-name="Grupo 138017" transform="translate(17.027)">
                  <path id="Trazado_194021" data-name="Trazado 194021" d="M-5464.793,3342.823c-3.858-1.971-7.669-2.416-11.827-2.538-4.841-.141-11.666-.818-16.883-.263,0,0-15.9-.488-15.97,11.834l2.1,47.3-3.4,20.272,47.636,1.439-.341-23.915c.589-12.445-.667-30.064-.667-30.064.733-6.689,4.393-9.7,4.914-14.05C-5458.773,3348.99-5461.345,3344.585-5464.793,3342.823Z" transform="translate(5510.773 -3339.807)" fill="#0f2771"/>
                </g>
                <g id="Grupo_138019" data-name="Grupo 138019" transform="translate(27.029 60.032)">
                  <g id="Grupo_138018" data-name="Grupo 138018">
                    <path id="Trazado_194022" data-name="Trazado 194022" d="M-5475.449,3416.47a3.84,3.84,0,0,1-.7.663,15.372,15.372,0,0,1-2.171,1.49,17.589,17.589,0,0,1-8.327,2.3,17.59,17.59,0,0,1-8.406-2,15.423,15.423,0,0,1-2.222-1.411,3.76,3.76,0,0,1-.723-.638c.047-.066,1.1.828,3.076,1.792a18.4,18.4,0,0,0,8.268,1.853,18.386,18.386,0,0,0,8.2-2.144C-5476.521,3417.336-5475.5,3416.406-5475.449,3416.47Z" transform="translate(5498 -3416.467)" fill="#1a2e35"/>
                  </g>
                </g>
                <g id="Grupo_138021" data-name="Grupo 138021" transform="translate(18.301 12.049)">
                  <g id="Grupo_138020" data-name="Grupo 138020">
                    <path id="Trazado_194023" data-name="Trazado 194023" d="M-5509.12,3355.194a2.047,2.047,0,0,1,.055.465c.021.35.048.793.081,1.337.057,1.216.134,2.884.229,4.92.176,4.2.415,9.917.68,16.231.286,6.314.544,12.028.734,16.23.1,2.035.188,3.7.25,4.917.024.544.042.988.058,1.338a2.023,2.023,0,0,1-.008.469,2.088,2.088,0,0,1-.074-.463c-.035-.348-.079-.79-.133-1.333-.112-1.158-.235-2.836-.38-4.911-.283-4.151-.587-9.888-.855-16.23s-.454-12.081-.561-16.238c-.04-2.039-.074-3.708-.1-4.924,0-.546,0-.989,0-1.34A2.019,2.019,0,0,1-5509.12,3355.194Z" transform="translate(5509.147 -3355.194)" fill="#1a2e35"/>
                  </g>
                </g>
                <g id="Grupo_138022" data-name="Grupo 138022" transform="translate(0.32 16.134)">
                  <path id="Trazado_194024" data-name="Trazado 194024" d="M-5524.088,3360.41s-1.8,5.291-2.122,6.007c0,0-4.448,12.86-5.9,21.543l14.223-25.683C-5517.765,3362.293-5523.9,3360.464-5524.088,3360.41Z" transform="translate(5532.108 -3360.41)" fill="#0f2771"/>
                </g>
                <g id="Grupo_138024" data-name="Grupo 138024" transform="translate(0 14.582)">
                  <g id="Grupo_138023" data-name="Grupo 138023">
                    <path id="Trazado_194025" data-name="Trazado 194025" d="M-5517.171,3358.428a1.485,1.485,0,0,1-.164.373l-.54,1.03c-.481.888-1.2,2.163-2.113,3.718-1.808,3.126-4.527,7.312-7.276,12.07-1.372,2.377-2.537,4.729-3.546,6.88a12.626,12.626,0,0,0-1.385,6.038,9.7,9.7,0,0,0,1.1,4.04c.472.884.86,1.294.827,1.321-.011.009-.109-.089-.288-.289a6.836,6.836,0,0,1-.678-.954,9.367,9.367,0,0,1-1.252-4.1,12.688,12.688,0,0,1,1.33-6.209c1-2.177,2.154-4.536,3.536-6.929,2.759-4.778,5.513-8.932,7.383-12.017l2.222-3.647.605-.992A1.583,1.583,0,0,1-5517.171,3358.428Z" transform="translate(5532.516 -3358.428)" fill="#1a2e35"/>
                  </g>
                </g>
                <g id="Grupo_138032" data-name="Grupo 138032" transform="translate(54.623 1.573)">
                  <g id="Grupo_138025" data-name="Grupo 138025" transform="translate(3.23)">
                    <path id="Trazado_194026" data-name="Trazado 194026" d="M-5413.522,3367.959l-11.023-7.21-6.957,12.052s-9.645-13.406-14.026-21.261c-4.033-7.229-9.25-9.176-11.767-9.7a1.118,1.118,0,0,0-1.335,1.22l3.8,26.069c.479,1.357,8.436,12.891,12.882,18.7,7.42,9.687,18.354,3.488,21.356-3.292C-5418.208,3379.15-5414.5,3370.974-5413.522,3367.959Z" transform="translate(5458.638 -3341.815)" fill="#0f2771"/>
                  </g>
                  <g id="Grupo_138027" data-name="Grupo 138027" transform="translate(30.473 30.73)">
                    <g id="Grupo_138026" data-name="Grupo 138026">
                      <path id="Trazado_194027" data-name="Trazado 194027" d="M-5420.788,3392.191a7.751,7.751,0,0,1-.211-1.721,32.811,32.811,0,0,0-.532-4.1,13.519,13.519,0,0,0-1.408-3.847c-.517-.918-.957-1.415-.907-1.459a4.134,4.134,0,0,1,1.154,1.308,11.5,11.5,0,0,1,1.56,3.913,22.037,22.037,0,0,1,.421,4.176A6.991,6.991,0,0,1-5420.788,3392.191Z" transform="translate(5423.851 -3381.058)" fill="#1a2e35"/>
                    </g>
                  </g>
                  <g id="Grupo_138029" data-name="Grupo 138029" transform="translate(30.276 30.214)">
                    <g id="Grupo_138028" data-name="Grupo 138028">
                      <path id="Trazado_194028" data-name="Trazado 194028" d="M-5417.616,3386.661c-.064.006-.117-.559-.391-1.411a7.789,7.789,0,0,0-1.764-2.956,4.617,4.617,0,0,0-2.931-1.6,4.118,4.118,0,0,0-1.4.246c-.042-.023.421-.5,1.4-.535a4.543,4.543,0,0,1,3.223,1.609,6.989,6.989,0,0,1,1.745,3.16A3.119,3.119,0,0,1-5417.616,3386.661Z" transform="translate(5424.101 -3380.398)" fill="#1a2e35"/>
                    </g>
                  </g>
                  <g id="Grupo_138031" data-name="Grupo 138031" transform="translate(0 3.243)">
                    <g id="Grupo_138030" data-name="Grupo 138030">
                      <path id="Trazado_194029" data-name="Trazado 194029" d="M-5458.908,3345.958a1.728,1.728,0,0,1-.267.307l-.339.346-.422.508a10.8,10.8,0,0,0-1.908,3.707,14.5,14.5,0,0,0-.418,6.154,13.6,13.6,0,0,0,.946,3.526,39.028,39.028,0,0,0,1.781,3.54c2.7,4.737,5.478,8.838,7.486,11.8l2.421,3.479a13.114,13.114,0,0,1,.875,1.287,1.555,1.555,0,0,1-.276-.295c-.171-.2-.42-.5-.726-.9-.621-.788-1.486-1.952-2.529-3.409a139.69,139.69,0,0,1-7.605-11.763,37.426,37.426,0,0,1-1.795-3.584,13.773,13.773,0,0,1-.951-3.63,14.46,14.46,0,0,1,.516-6.29,10.327,10.327,0,0,1,2.063-3.722l.456-.491.37-.323A1.443,1.443,0,0,1-5458.908,3345.958Z" transform="translate(5462.765 -3345.957)" fill="#1a2e35"/>
                    </g>
                  </g>
                </g>
                <g id="Grupo_138034" data-name="Grupo 138034" transform="translate(29.372 49.656)" opacity="0.3">
                  <g id="Grupo_138033" data-name="Grupo 138033">
                    <path id="Trazado_194030" data-name="Trazado 194030" d="M-5478.2,3415.721c3.515-1.6,6.291-5.28,6.393-9a3.715,3.715,0,0,0-.864-2.785c-1.04-1.026-2.8-.835-4.089-.156-2.13,1.118-3.523,3.219-5.02,5.1s-3.394,3.735-5.79,3.963a15.026,15.026,0,0,1-3.078-.23,5.219,5.219,0,0,0-3.026.365,2.286,2.286,0,0,0-1.25,2.558s4.21,2.619,8.6,2.308A24.79,24.79,0,0,0-5478.2,3415.721Z" transform="translate(5495.008 -3403.218)"/>
                  </g>
                </g>
                <g id="Grupo_138036" data-name="Grupo 138036" transform="translate(23.173 74.076)">
                  <g id="Grupo_138035" data-name="Grupo 138035">
                    <path id="Trazado_194031" data-name="Trazado 194031" d="M-5467.593,3434.405a1.243,1.243,0,0,1-.336.146l-.99.342c-.431.149-.961.32-1.586.486s-1.33.386-2.125.557a54.262,54.262,0,0,1-5.627,1.033,60.377,60.377,0,0,1-6.993.461,60.521,60.521,0,0,1-7-.421,54.283,54.283,0,0,1-5.632-1c-.8-.166-1.5-.378-2.13-.544s-1.156-.331-1.587-.477l-.992-.337a1.246,1.246,0,0,1-.337-.144,1.277,1.277,0,0,1,.362.065l1.013.263c.437.123.972.268,1.6.408s1.336.336,2.134.484c1.583.343,3.489.655,5.615.909a65.433,65.433,0,0,0,6.952.387,65.56,65.56,0,0,0,6.946-.426c2.124-.265,4.027-.59,5.61-.941.8-.153,1.5-.347,2.129-.5s1.163-.292,1.6-.418l1.011-.269A1.24,1.24,0,0,1-5467.593,3434.405Z" transform="translate(5502.924 -3434.402)" fill="#1a2e35"/>
                  </g>
                </g>
              </g>
            </g>
          </g>
        </g>
      </g>
    </g>
  </g>
</svg>
