<svg xmlns="http://www.w3.org/2000/svg" width="743" height="537.277" viewBox="0 0 743 537.277">
  <g id="Grupo_222348" data-name="Grupo 222348" transform="translate(-429 -18316.982)">
    <g id="Grupo_222347" data-name="Grupo 222347">
      <g id="Grupo_222147" data-name="Grupo 222147" transform="translate(7098 11508.26)">
        <rect id="Rectángulo_295833" data-name="Rectángulo 295833" width="743" height="176" rx="17" transform="translate(-6669 7170)" fill="#bddcf6" opacity="0.33"/>
        <rect id="Rectángulo_295823" data-name="Rectángulo 295823" width="361.99" height="336.293" rx="12" transform="translate(-6334.989 6808.723)" fill="#fff5d8"/>
        <rect id="Rectángulo_295828" data-name="Rectángulo 295828" width="132.953" height="52.511" rx="11" transform="translate(-6292.534 6854.53)" fill="#fff"/>
        <rect id="Rectángulo_295832" data-name="Rectángulo 295832" width="132.953" height="52.511" rx="11" transform="translate(-6292.534 6951.73)" fill="#fff"/>
        <rect id="Rectángulo_295829" data-name="Rectángulo 295829" width="132.953" height="52.511" rx="11" transform="translate(-6137.236 6929.387)" fill="#fff"/>
        <rect id="Rectángulo_295830" data-name="Rectángulo 295830" width="132.953" height="52.511" rx="11" transform="translate(-6140.589 7064.573)" fill="#fff"/>
        <rect id="Rectángulo_295831" data-name="Rectángulo 295831" width="132.953" height="52.511" rx="11" transform="translate(-6291.418 7069.044)" fill="#fff"/>
        <rect id="Rectángulo_295824" data-name="Rectángulo 295824" width="82.677" height="27.931" transform="translate(-6508.089 7046.698)" fill="#feca2e"/>
        <rect id="Rectángulo_295822" data-name="Rectángulo 295822" width="230.154" height="237.975" rx="12" transform="translate(-6593 6808.723)" fill="#4dd0e1"/>
        <g id="Grupo_222143" data-name="Grupo 222143" transform="translate(-6549.428 6932.723)">
          <path id="Trazado_221790" data-name="Trazado 221790" d="M112.715,253.415a7.28,7.28,0,1,1,7.278-7.28A7.288,7.288,0,0,1,112.715,253.415Zm0-11.938a4.659,4.659,0,1,0,4.658,4.658A4.663,4.663,0,0,0,112.715,241.477Z" transform="translate(-97.76 -238.854)" fill="#0f2771"/>
          <path id="Trazado_221791" data-name="Trazado 221791" d="M105.468,271.267a1.31,1.31,0,0,1-1.31-1.31V257.219a1.31,1.31,0,0,1,2.62,0v12.738A1.311,1.311,0,0,1,105.468,271.267Z" transform="translate(-98.543 -228.393)" fill="#0f2771"/>
          <path id="Trazado_221792" data-name="Trazado 221792" d="M121.527,267.511H105.468a1.311,1.311,0,0,1,0-2.622h16.059a1.311,1.311,0,0,1,0,2.622Z" transform="translate(-98.543 -222.884)" fill="#0f2771"/>
          <path id="Trazado_221793" data-name="Trazado 221793" d="M123.662,309.221h-6.041a1.311,1.311,0,0,1-1.31-1.31V283.144a.678.678,0,0,0-.8-.668.769.769,0,0,0-.557.774v24.66a1.31,1.31,0,0,1-1.31,1.31H107.6a1.31,1.31,0,0,1-1.31-1.31V277.955a4.113,4.113,0,0,1-5.615-3.94V258.639a9.565,9.565,0,0,1,8.477-9.506,1.309,1.309,0,0,1,1.117.416l5.362,5.845,5.36-5.845a1.311,1.311,0,0,1,1.115-.416,9.565,9.565,0,0,1,8.479,9.506v15.376a4.115,4.115,0,0,1-5.615,3.94V307.91A1.31,1.31,0,0,1,123.662,309.221Zm-4.729-2.62h3.419V274.12a1.31,1.31,0,0,1,2.62,0,1.5,1.5,0,0,0,1.807,1.467,1.573,1.573,0,0,0,1.188-1.572V258.639a6.945,6.945,0,0,0-5.518-6.8l-5.85,6.378a1.353,1.353,0,0,1-1.931,0l-5.85-6.378a6.945,6.945,0,0,0-5.518,6.8v15.376a1.571,1.571,0,0,0,1.188,1.572,1.506,1.506,0,0,0,1.262-.313,1.488,1.488,0,0,0,.545-1.154,1.31,1.31,0,1,1,2.62,0V306.6h3.419V283.25a3.384,3.384,0,0,1,2.756-3.361,3.3,3.3,0,0,1,3.845,3.254Z" transform="translate(-100.679 -232.555)" fill="#0f2771"/>
        </g>
        <g id="Grupo_222144" data-name="Grupo 222144" transform="translate(-6447.741 6828.72)">
          <path id="Trazado_221806" data-name="Trazado 221806" d="M132.058,171.55a6.4,6.4,0,1,1,6.4-6.4A6.411,6.411,0,0,1,132.058,171.55Zm0-10.186a3.783,3.783,0,1,0,3.782,3.782A3.787,3.787,0,0,0,132.058,161.364Z" transform="translate(-108.763 -158.744)" fill="#0f2771"/>
          <path id="Trazado_221807" data-name="Trazado 221807" d="M139.577,184.135h-13.7a1.311,1.311,0,1,1,0-2.622h13.7a1.311,1.311,0,0,1,0,2.622Z" transform="translate(-109.431 -144.777)" fill="#0f2771"/>
          <path id="Trazado_221808" data-name="Trazado 221808" d="M127.245,192.8a18.894,18.894,0,0,1-2.665-.069A3.754,3.754,0,0,1,121.6,189V175.882a8.35,8.35,0,0,1,7.4-8.3,47.677,47.677,0,0,1,5.563-.184,47.069,47.069,0,0,1,5.533.184,8.35,8.35,0,0,1,7.4,8.3V189a3.754,3.754,0,0,1-2.985,3.725,20.491,20.491,0,0,1-3.119.069,1.311,1.311,0,0,1-1.307-1.312V178.223a1.31,1.31,0,0,1,2.62,0v11.949c.671,0,1.234-.015,1.381-.029a1.147,1.147,0,0,0,.787-1.141V175.882a5.73,5.73,0,0,0-5.081-5.7,45.5,45.5,0,0,0-5.234-.168,45.711,45.711,0,0,0-5.263.168,5.73,5.73,0,0,0-5.082,5.7V189a1.149,1.149,0,0,0,.858,1.152c.1.008.65.015,1.31.019V178.223a1.311,1.311,0,0,1,2.622,0v13.263A1.312,1.312,0,0,1,127.7,192.8Z" transform="translate(-111.252 -153.439)" fill="#0f2771"/>
          <path id="Trazado_221809" data-name="Trazado 221809" d="M159.59,190.176H117.37a2.187,2.187,0,0,1-2.185-2.183v-4.3a2.188,2.188,0,0,1,2.185-2.185H159.59a2.187,2.187,0,0,1,2.183,2.185v4.3A2.186,2.186,0,0,1,159.59,190.176Zm-41.784-2.62h41.346v-3.421H117.807Z" transform="translate(-115.185 -144.777)" fill="#0f2771"/>
        </g>
        <text id="Socio" transform="translate(-6536.13 7029.806)" fill="#12263f" font-size="16" font-family="Roboto-Bold, Roboto" font-weight="700"><tspan x="-20.258" y="0">Socio</tspan></text>
        <g id="Grupo_222146" data-name="Grupo 222146" transform="translate(-6076.905 7153.953)">
          <g id="Grupo_222145" data-name="Grupo 222145" transform="translate(16.89 0.001)">
            <path id="Trazado_222052" data-name="Trazado 222052" d="M53.5,274.214a11.385,11.385,0,1,1,11.385-11.386A11.4,11.4,0,0,1,53.5,274.214Zm0-20.15a8.764,8.764,0,1,0,8.764,8.764A8.775,8.775,0,0,0,53.5,254.063Z" transform="translate(-27.312 -251.443)" fill="#0f2771"/>
            <path id="Trazado_222053" data-name="Trazado 222053" d="M84.012,293.937H34.251a1.31,1.31,0,0,1-1.31-1.31A26.234,26.234,0,0,1,52.193,267.4a1.309,1.309,0,1,1,.694,2.525,23.619,23.619,0,0,0-17.288,21.4H82.664a23.621,23.621,0,0,0-17.288-21.4,1.309,1.309,0,1,1,.694-2.525,26.236,26.236,0,0,1,19.252,25.231A1.31,1.31,0,0,1,84.012,293.937Z" transform="translate(-32.941 -241.687)" fill="#0f2771"/>
          </g>
          <text id="Lector_NFC" data-name="Lector NFC" transform="translate(40 70.044)" fill="#12263f" font-size="16" font-family="Roboto-Bold, Roboto" font-weight="700"><tspan x="-40.113" y="0">Lector NFC</tspan></text>
        </g>
        <text id="Tipos_de_relaciones_en_diagrama_casos_de_uso" data-name="Tipos de relaciones en diagrama casos de uso" transform="translate(-6456 7207.134)" fill="#12263f" font-size="16" font-family="Roboto-Bold, Roboto" font-weight="700"><tspan x="-166.125" y="0">Tipos de relaciones en diagrama casos de uso</tspan></text>
        <text id="Cliente" transform="translate(-6428.344 6898.577)" fill="#12263f" font-size="16" font-family="Roboto-Bold, Roboto" font-weight="700"><tspan x="-25.309" y="0">Cliente</tspan></text>
        <text id="Actores" transform="translate(-6470.035 7065.048)" fill="#12263f" font-size="16" font-family="Roboto-Bold, Roboto" font-weight="700"><tspan x="-28.02" y="0">Actores</tspan></text>
        <path id="Trazado_225616" data-name="Trazado 225616" d="M-6605.464,6965.018H-6631.4V6901" transform="translate(55.829 0.455)" fill="none" stroke="#fff" stroke-width="2"/>
        <line id="Línea_510" data-name="Línea 510" y1="79.325" x2="72.621" transform="translate(-6519.82 6874.083)" fill="none" stroke="#fff" stroke-width="2"/>
        <line id="Línea_511" data-name="Línea 511" x1="108.893" y1="9.393" transform="translate(-6401.393 6871.848)" fill="none" stroke="#0f2771" stroke-width="2"/>
        <line id="Línea_512" data-name="Línea 512" y2="16.759" transform="translate(-6227.176 6907.599)" fill="none" stroke="#0f2771" stroke-width="2" stroke-dasharray="2" opacity="0.34"/>
        <line id="Línea_515" data-name="Línea 515" x2="42.456" transform="translate(-6157.906 6880.785)" fill="none" stroke="#0f2771" stroke-width="2" stroke-dasharray="2" opacity="0.34"/>
        <line id="Línea_514" data-name="Línea 514" y2="36.869" transform="translate(-6073.928 6890.842)" fill="none" stroke="#0f2771" stroke-width="2" stroke-dasharray="2" opacity="0.34"/>
        <line id="Línea_516" data-name="Línea 516" y2="82.677" transform="translate(-6101.484 6981.896)" fill="none" stroke="#0f2771" stroke-width="2" stroke-dasharray="4" opacity="0.73"/>
        <line id="Línea_517" data-name="Línea 517" y2="36.869" transform="translate(-6037.801 7117.084)" fill="none" stroke="#0f2771" stroke-width="2" stroke-dasharray="4" opacity="0.73"/>
        <path id="Trazado_225617" data-name="Trazado 225617" d="M4.721,0V59.438H-40.267V84.762" transform="translate(-6133.019 6981.896)" fill="none" stroke="#0f2771" stroke-width="2" stroke-dasharray="4" opacity="0.73"/>
        <line id="Línea_513" data-name="Línea 513" y2="7.846" transform="translate(-6227.176 6944.445)" fill="none" stroke="#0f2771" stroke-width="2" stroke-dasharray="2" opacity="0.34"/>
        <rect id="Rectángulo_295825" data-name="Rectángulo 295825" width="93.849" height="27.931" transform="translate(-6081.373 6817.662)" fill="#feca2e"/>
        <rect id="Rectángulo_295826" data-name="Rectángulo 295826" width="93.849" height="27.931" transform="translate(-6081.373 7018.767)" fill="#feca2e"/>
        <rect id="Rectángulo_295827" data-name="Rectángulo 295827" width="107.256" height="27.931" transform="translate(-6293.652 7018.767)" fill="#feca2e"/>
        <text id="Pago_con_débito" data-name="Pago con débito" transform="translate(-6240.121 6832.662)" fill="#12263f" font-size="16" font-family="Roboto-Bold, Roboto" font-weight="700"><tspan x="-58.223" y="0">Pago con débito</tspan></text>
        <text id="Pago_con_tarjeta_débito" data-name="Pago con 
tarjeta débito" transform="translate(-6231.01 6871.765)" fill="#12263f" font-size="16" font-family="Roboto-Regular, Roboto"><tspan x="-35.531" y="0">Pago con </tspan><tspan x="-47.043" y="24">tarjeta débito</tspan></text>
        <text id="Ofrecer_ayuda" data-name="Ofrecer
ayuda" transform="translate(-6228.548 6968.967)" fill="#12263f" font-size="16" font-family="Roboto-Regular, Roboto"><tspan x="-26.355" y="0">Ofrecer</tspan><tspan x="-21.41" y="24">ayuda</tspan></text>
        <text id="_extender_" data-name="&lt;&lt;extender&gt;&gt; " transform="translate(-6228.306 6936.799)" fill="#12263f" font-size="14" font-family="Roboto-Regular, Roboto"><tspan x="-43.224" y="0">&lt;&lt;extender&gt;&gt; </tspan></text>
        <text id="_incluir_" data-name="&lt;&lt;incluir&gt;&gt; " transform="translate(-6081.008 6884.29)" fill="#12263f" font-size="14" font-family="Roboto-Regular, Roboto"><tspan x="-35.014" y="0">&lt;&lt;incluir&gt;&gt; </tspan></text>
        <text id="Identificar_la_tarjeta" data-name="Identificar 
la tarjeta" transform="translate(-6074.657 6946.621)" fill="#12263f" font-size="16" font-family="Roboto-Regular, Roboto"><tspan x="-37.551" y="0">Identificar </tspan><tspan x="-31.059" y="24">la tarjeta</tspan></text>
        <text id="Identificar_con_PIN" data-name="Identificar
con PIN" transform="translate(-6228.603 7086.277)" fill="#12263f" font-size="16" font-family="Roboto-Regular, Roboto"><tspan x="-35.57" y="0">Identificar</tspan><tspan x="-28.07" y="24">con PIN</tspan></text>
        <text id="Identificar_por_contacto" data-name="Identificar
por contacto" transform="translate(-6079.947 7081.808)" fill="#12263f" font-size="16" font-family="Roboto-Regular, Roboto"><tspan x="-35.57" y="0">Identificar</tspan><tspan x="-45.152" y="24">por contacto</tspan></text>
        <text id="Sistema" transform="translate(-6037.85 6836.012)" fill="#12263f" font-size="16" font-family="Roboto-Bold, Roboto" font-weight="700"><tspan x="-29.395" y="0">Sistema</tspan></text>
        <text id="Relaciones" transform="translate(-6037.139 7038.119)" fill="#12263f" font-size="17" font-family="Roboto-Bold, Roboto" font-weight="700"><tspan x="-42.048" y="0">Relaciones</tspan></text>
        <text id="Caso_de_uso" data-name="Caso de uso" transform="translate(-6245.184 7037.119)" fill="#12263f" font-size="16" font-family="Roboto-Bold, Roboto" font-weight="700"><tspan x="-44.09" y="0">Caso de uso</tspan></text>
        <path id="Polígono_63" data-name="Polígono 63" d="M5.028,0l5.028,8.938H0Z" transform="translate(-6232.203 6904.806)" fill="#8c98bc"/>
        <path id="Polígono_64" data-name="Polígono 64" d="M5.028,0l5.028,8.938H0Z" transform="translate(-6107.071 6978.544)" fill="#3f4f81"/>
        <path id="Polígono_67" data-name="Polígono 67" d="M5.028,0l5.028,8.938H0Z" transform="translate(-6043.387 7113.732)" fill="#3f4f81"/>
        <path id="Polígono_65" data-name="Polígono 65" d="M5.028,0l5.028,8.938H0Z" transform="translate(-6133.884 6978.544)" fill="#3f4f81"/>
        <path id="Polígono_66" data-name="Polígono 66" d="M5.028,0l5.028,8.938H0Z" transform="translate(-6162.374 6885.813) rotate(-90)" fill="#8c98bc"/>
        <text id="Actor_1_cliente_hereda_de_Actor_2_socio_Actor_1_cliente_participa_en_caso_usuario1_pago_tarjeta_Caso_usuario1_pago_tarjeta_includes_caso_usuario2_identificar_tarjeta_Caso_usuario3_ayuda_extends_caso_usuario1_pagotarjeta_" data-name="Actor 1 (cliente) &lt;hereda&gt; de Actor 2 (socio)
Actor 1 (cliente) &lt;participa&gt; en caso_usuario1(pago tarjeta)
Caso_usuario1 (pago tarjeta) &lt;includes&gt; caso_usuario2 (identificar tarjeta)
Caso_usuario3 (ayuda) &lt;extends&gt; caso_usuario1 (pagotarjeta)" transform="translate(-6622 7238)" fill="#12263f" font-size="16" font-family="Roboto-Regular, Roboto"><tspan x="0" y="17">Actor 1 (cliente) &lt;hereda&gt; de Actor 2 (socio)</tspan><tspan x="0" y="41">Actor 1 (cliente) &lt;participa&gt; en caso_usuario1(pago tarjeta)</tspan><tspan x="0" y="65">Caso_usuario1 (pago tarjeta) &lt;includes&gt; caso_usuario2 (identificar tarjeta)</tspan><tspan x="0" y="89">Caso_usuario3 (ayuda) &lt;extends&gt; caso_usuario1 (pagotarjeta)</tspan></text>
        <circle id="Elipse_16271" data-name="Elipse 16271" cx="53.395" cy="53.395" r="53.395" transform="translate(-6663 6828.72)" fill="#d5f2f6"/>
        <text id="Repetir_última_compra" data-name="Repetir
última
compra" transform="translate(-6612.027 6861.157)" fill="#12263f" font-size="16" font-family="Roboto-Regular, Roboto"><tspan x="-25.152" y="0">Repetir</tspan><tspan x="-22.27" y="24">última</tspan><tspan x="-27.152" y="48">compra</tspan></text>
      </g>
    </g>
  </g>
</svg>
