<svg xmlns="http://www.w3.org/2000/svg" width="327" height="312.363" viewBox="0 0 327 312.363">
  <g id="Grupo_222368" data-name="Grupo 222368" transform="translate(-285 -21595.012)">
    <g id="Grupo_222367" data-name="Grupo 222367">
      <g id="Grupo_222366" data-name="Grupo 222366">
        <g id="Grupo_222365" data-name="Grupo 222365">
          <g id="Grupo_181330" data-name="Grupo 181330" transform="translate(0 19871.012)">
            <rect id="Rect치ngulo_40609" data-name="Rect치ngulo 40609" width="327" height="311.958" rx="19" transform="translate(285 1724.406)" fill="#ffe595"/>
            <text id="Mapa_de_proceso_de_actividades:_representa_las_actividades_que_agregan_valor_y_las_que_no." data-name="Mapa de proceso de actividades: representa las actividades que agregan valor y las que no." transform="translate(304 1925.406)" fill="#12263f" font-size="16" font-family="Roboto-Bold, Roboto" font-weight="700"><tspan x="25.891" y="17">Mapa de proceso de actividades: </tspan><tspan x="4.656" y="41" font-family="Roboto-Regular, Roboto" font-weight="400">representa las actividades que agregan </tspan><tspan x="80.219" y="65" font-family="Roboto-Regular, Roboto" font-weight="400">valor y las que no.</tspan></text>
            <path id="Rect치ngulo_44883" data-name="Rect치ngulo 44883" d="M20,0H307a20,20,0,0,1,20,20V178a0,0,0,0,1,0,0H0a0,0,0,0,1,0,0V20A20,20,0,0,1,20,0Z" transform="translate(285 1724)" fill="#4dd0e1"/>
            <g id="Grupo_222266" data-name="Grupo 222266" transform="translate(359.274 1724.924)">
              <path id="Trazado_226070" data-name="Trazado 226070" d="M232.909,217.9l-1.218-.673a1.944,1.944,0,0,1-1.048-1.96,16.15,16.15,0,0,0,0-4.606,1.944,1.944,0,0,1,1.048-1.96l1.218-.673a1.965,1.965,0,0,0,.823-2.654q-.026-.048-.053-.094l-3.391-5.591a2.162,2.162,0,0,0-2.882-.736l-1.234.681a2.232,2.232,0,0,1-2.4-.2,18.034,18.034,0,0,0-3.93-2.188,2.065,2.065,0,0,1-1.373-1.884v-1.349a2.059,2.059,0,0,0-2.1-2.012h-6.757a2.059,2.059,0,0,0-2.1,2.012v1.349a2.065,2.065,0,0,1-1.373,1.884,18.035,18.035,0,0,0-3.93,2.188,2.232,2.232,0,0,1-2.4.2l-1.234-.681a2.162,2.162,0,0,0-2.882.736l-3.375,5.591a1.965,1.965,0,0,0,.676,2.7q.047.028.094.053l1.218.673a1.944,1.944,0,0,1,1.048,1.96,16.15,16.15,0,0,0,0,4.606,1.944,1.944,0,0,1-1.048,1.96l-1.218.673a1.965,1.965,0,0,0-.823,2.654c.017.032.034.064.053.094l3.372,5.592a2.162,2.162,0,0,0,2.882.736l1.234-.681a2.232,2.232,0,0,1,2.4.2,18.034,18.034,0,0,0,3.93,2.188,2.065,2.065,0,0,1,1.373,1.884v1.349a2.059,2.059,0,0,0,2.1,2.012h6.755a2.059,2.059,0,0,0,2.1-2.012v-1.349a2.064,2.064,0,0,1,1.383-1.879,18.033,18.033,0,0,0,3.93-2.188,2.232,2.232,0,0,1,2.4-.2l1.234.681a2.162,2.162,0,0,0,2.882-.736l3.375-5.591a1.965,1.965,0,0,0-.663-2.7c-.032-.019-.064-.038-.1-.055ZM213,220.821a7.861,7.861,0,1,1,7.861-7.861A7.861,7.861,0,0,1,213,220.821Z" transform="translate(-123.769 -123.735)" fill="#0f2771"/>
              <circle id="Elipse_16280" data-name="Elipse 16280" cx="18.234" cy="18.234" r="18.234" transform="translate(71.154 10.668)" fill="#4dd0e1"/>
              <ellipse id="Elipse_16281" data-name="Elipse 16281" cx="18.679" cy="18.234" rx="18.679" ry="18.234" transform="translate(130.749 71.154)" fill="#bddcf6"/>
              <circle id="Elipse_16282" data-name="Elipse 16282" cx="18.234" cy="18.234" r="18.234" transform="translate(10.668 71.154)" fill="#636363"/>
              <ellipse id="Elipse_16283" data-name="Elipse 16283" cx="18.234" cy="18.679" rx="18.234" ry="18.679" transform="translate(71.154 130.749)" fill="#feca2e"/>
              <path id="Trazado_226071" data-name="Trazado 226071" d="M184.15,213.084a4.514,4.514,0,0,0,.506,3.535l3.375,5.589a4.808,4.808,0,0,0,6.388,1.68l.985-.545a20.5,20.5,0,0,0,4.069,2.272v.914a4.687,4.687,0,0,0,4.727,4.635h6.755a4.688,4.688,0,0,0,4.716-4.633v-.914a20.57,20.57,0,0,0,4.069-2.272l.985.545a4.808,4.808,0,0,0,6.385-1.677l3.38-5.591a4.524,4.524,0,0,0,.5-3.535,4.685,4.685,0,0,0-2.253-2.864l-.862-.474a18.73,18.73,0,0,0,0-4.334l.862-.474a4.685,4.685,0,0,0,2.253-2.864,4.515,4.515,0,0,0-.506-3.535l-3.364-5.589a4.805,4.805,0,0,0-6.388-1.68l-.985.545a20.494,20.494,0,0,0-4.069-2.272v-.914A4.687,4.687,0,0,0,210.954,184H204.2a4.688,4.688,0,0,0-4.716,4.633v.914a20.57,20.57,0,0,0-4.069,2.272l-.985-.545a4.808,4.808,0,0,0-6.385,1.677l-3.38,5.591a4.525,4.525,0,0,0-.5,3.535,4.685,4.685,0,0,0,2.253,2.864l.862.474a18.73,18.73,0,0,0,0,4.334l-.862.474a4.685,4.685,0,0,0-2.264,2.861Zm8.23-5.5a13.178,13.178,0,0,1,.141-1.934,4.538,4.538,0,0,0-2.358-4.622l-.658-.364,2.77-4.588.849.469a4.882,4.882,0,0,0,5.219-.377,15.22,15.22,0,0,1,3.362-1.866,4.682,4.682,0,0,0,3.016-4.318v-.742h5.728v.742a4.682,4.682,0,0,0,3.016,4.318,15.187,15.187,0,0,1,3.364,1.868,4.869,4.869,0,0,0,5.217.375l.849-.469,2.762,4.588-.655.362a4.541,4.541,0,0,0-2.358,4.633,13.34,13.34,0,0,1,.131,1.926,13.13,13.13,0,0,1-.141,1.934,4.538,4.538,0,0,0,2.358,4.622l.658.364-2.77,4.588-.849-.469a4.887,4.887,0,0,0-5.219.377,15.22,15.22,0,0,1-3.362,1.866,4.682,4.682,0,0,0-3.016,4.318v.742h-5.72v-.742a4.682,4.682,0,0,0-3.016-4.318,15.194,15.194,0,0,1-3.364-1.868,4.884,4.884,0,0,0-5.217-.375l-.849.469L189.5,214.5l.655-.362a4.541,4.541,0,0,0,2.358-4.633,13.342,13.342,0,0,1-.131-1.926Z" transform="translate(-118.351 -118.355)"/>
              <path id="Trazado_226072" data-name="Trazado 226072" d="M234.481,244.962A10.481,10.481,0,1,0,224,234.481,10.481,10.481,0,0,0,234.481,244.962Zm0-15.721a5.24,5.24,0,1,1-5.24,5.24A5.24,5.24,0,0,1,234.481,229.24Z" transform="translate(-145.255 -145.255)"/>
              <path id="Trazado_226073" data-name="Trazado 226073" d="M212.962,49.923A20.962,20.962,0,1,0,192,28.962,20.962,20.962,0,0,0,212.962,49.923Zm0-36.683A15.721,15.721,0,1,1,197.24,28.962,15.721,15.721,0,0,1,212.962,13.24Z" transform="translate(-123.735)"/>
              <path id="Trazado_226074" data-name="Trazado 226074" d="M417.923,212.962a20.962,20.962,0,1,0-20.962,20.962A20.962,20.962,0,0,0,417.923,212.962Zm-20.962,15.721a15.721,15.721,0,1,1,15.721-15.721A15.721,15.721,0,0,1,396.962,228.683Z" transform="translate(-247.471 -123.735)"/>
              <path id="Trazado_226075" data-name="Trazado 226075" d="M28.962,233.923A20.962,20.962,0,1,0,8,212.962,20.962,20.962,0,0,0,28.962,233.923Zm0-36.683A15.721,15.721,0,1,1,13.24,212.962,15.721,15.721,0,0,1,28.962,197.24Z" transform="translate(0 -123.735)"/>
              <path id="Trazado_226076" data-name="Trazado 226076" d="M233.923,396.962a20.962,20.962,0,1,0-20.962,20.962A20.962,20.962,0,0,0,233.923,396.962Zm-36.683,0a15.721,15.721,0,1,1,15.721,15.721A15.721,15.721,0,0,1,197.24,396.962Z" transform="translate(-123.735 -247.471)"/>
              <path id="Trazado_226077" data-name="Trazado 226077" d="M53.24,59.278a13.117,13.117,0,0,1,13.1-13.1H76.822L72.63,49.321l3.144,4.192,10.481-7.861a2.62,2.62,0,0,0,0-4.192L75.774,33.6,72.63,37.792l4.192,3.144H66.341A18.362,18.362,0,0,0,48,59.278V77.619h5.24Z" transform="translate(-26.899 -17.215)"/>
              <path id="Trazado_226078" data-name="Trazado 226078" d="M378.063,74.341V82.2l-3.144-4.192-4.192,3.144,7.861,10.481a2.62,2.62,0,0,0,4.192,0l7.861-10.481-4.192-3.144L383.3,82.2V74.341A18.362,18.362,0,0,0,364.962,56H344v5.24h20.962A13.117,13.117,0,0,1,378.063,74.341Z" transform="translate(-225.952 -32.279)"/>
              <path id="Trazado_226079" data-name="Trazado 226079" d="M355.528,388.019l3.144-4.192-4.192-3.144h10.481A18.362,18.362,0,0,0,383.3,362.341V344h-5.24v18.341a13.117,13.117,0,0,1-13.1,13.1H354.48l4.192-3.144-3.144-4.192-10.481,7.861a2.62,2.62,0,0,0,0,4.192Z" transform="translate(-225.951 -225.952)"/>
              <path id="Trazado_226080" data-name="Trazado 226080" d="M41.321,358.793l4.192-3.144-7.861-10.481a2.715,2.715,0,0,0-4.192,0L25.6,355.648l4.192,3.144,3.144-4.192v7.861A18.362,18.362,0,0,0,51.278,380.8H72.239v-5.24H51.278a13.117,13.117,0,0,1-13.1-13.1V354.6Z" transform="translate(-11.836 -226.071)"/>
              <path id="Trazado_226081" data-name="Trazado 226081" d="M248,64h5.24v5.24H248Z" transform="translate(-161.394 -37.659)"/>
              <path id="Trazado_226082" data-name="Trazado 226082" d="M416,248h5.24v5.24H416Z" transform="translate(-274.37 -161.394)"/>
              <path id="Trazado_226083" data-name="Trazado 226083" d="M448,248h5.24v5.24H448Z" transform="translate(-295.889 -161.394)"/>
              <path id="Trazado_226084" data-name="Trazado 226084" d="M232,448h5.24v5.24H232Z" transform="translate(-150.635 -295.889)"/>
              <path id="Trazado_226085" data-name="Trazado 226085" d="M264,448h5.24v5.24H264Z" transform="translate(-172.154 -295.889)"/>
              <path id="Trazado_226086" data-name="Trazado 226086" d="M248,416h5.24v5.24H248Z" transform="translate(-161.394 -274.37)"/>
              <path id="Trazado_226087" data-name="Trazado 226087" d="M48,264h5.24v5.24H48Z" transform="translate(-26.899 -172.154)"/>
              <path id="Trazado_226088" data-name="Trazado 226088" d="M80,264h5.24v5.24H80Z" transform="translate(-48.418 -172.154)"/>
              <path id="Trazado_226089" data-name="Trazado 226089" d="M48,232h5.24v5.24H48Z" transform="translate(-26.899 -150.635)"/>
              <path id="Trazado_226090" data-name="Trazado 226090" d="M80,232h5.24v5.24H80Z" transform="translate(-48.418 -150.635)"/>
            </g>
          </g>
        </g>
      </g>
    </g>
  </g>
</svg>
