<svg xmlns="http://www.w3.org/2000/svg" width="327" height="312.364" viewBox="0 0 327 312.364">
  <g id="Grupo_222379" data-name="Grupo 222379" transform="translate(6664 -9895.012)">
    <g id="Grupo_222378" data-name="Grupo 222378">
      <g id="Grupo_184303" data-name="Grupo 184303" transform="translate(-7652 8171.012)">
        <rect id="Rect치ngulo_40611" data-name="Rect치ngulo 40611" width="327" height="311.958" rx="19" transform="translate(988 1724.406)" fill="#ffe595"/>
        <text id="Mapa_de_carriles:_separa_las_responsabilidades_del_subproceso." data-name="Mapa de carriles: separa las responsabilidades del subproceso." transform="translate(1009 1925.406)" fill="#12263f" font-size="16" font-family="Roboto-Bold, Roboto" font-weight="700"><tspan x="43.363" y="17">Mapa de carriles: </tspan><tspan y="17" font-family="Roboto-Regular, Roboto" font-weight="400">separa las </tspan><tspan x="20.363" y="41" font-family="Roboto-Regular, Roboto" font-weight="400">responsabilidades del subproceso.</tspan></text>
        <path id="Rect치ngulo_44884" data-name="Rect치ngulo 44884" d="M20,0H307a20,20,0,0,1,20,20V178a0,0,0,0,1,0,0H0a0,0,0,0,1,0,0V20A20,20,0,0,1,20,0Z" transform="translate(988 1724)" fill="#4dd0e1"/>
        <g id="Grupo_222270" data-name="Grupo 222270" transform="translate(1072.667 1733.74)">
          <path id="Trazado_225966" data-name="Trazado 225966" d="M263.258,380.989H248V343.708a10.083,10.083,0,0,1,1.832-5.824,10.234,10.234,0,0,1,6.509-4.2l14.241-2.568,2.849,14.266,12.715-7.629,12.715,7.629,2.848-14.266,14.241,2.568a10.194,10.194,0,0,1,8.34,10.019v37.281H298.86V370.817h-2.543a10.169,10.169,0,0,0-10.172,10.172Z" transform="translate(-169.167 -225.865)" fill="#e6e9ed"/>
          <path id="Trazado_225967" data-name="Trazado 225967" d="M378.172,328l5.392.992-2.848,14.266L368,335.629Z" transform="translate(-251.021 -223.736)" fill="#bddcf6"/>
          <path id="Trazado_225968" data-name="Trazado 225968" d="M324.431,328l10.172,7.629-12.715,7.629-2.849-14.266Z" transform="translate(-217.624 -223.736)" fill="#bddcf6"/>
          <path id="Trazado_225969" data-name="Trazado 225969" d="M380.715,456v10.172H368A10.169,10.169,0,0,1,378.172,456Z" transform="translate(-251.021 -311.048)" fill="#f0d0b4"/>
          <path id="Trazado_225970" data-name="Trazado 225970" d="M100.29,245.248v15.258l-6.282,1.043a32.283,32.283,0,0,1-3.179,7.731l3.688,5.188L83.736,285.25l-5.188-3.688a32.284,32.284,0,0,1-7.731,3.179l-1.043,6.282H54.516l-1.043-6.282a32.283,32.283,0,0,1-7.731-3.179l-5.188,3.688L29.773,274.468l3.688-5.188a32.283,32.283,0,0,1-3.179-7.731L24,260.506V245.248l6.282-1.043a34.267,34.267,0,0,1,1.322-3.967,42.7,42.7,0,0,0,8.493,6.587,21.718,21.718,0,0,0-.84,6.052,22.887,22.887,0,1,0,45.774,0,21.718,21.718,0,0,0-.84-6.052,42.7,42.7,0,0,0,8.493-6.587,34.266,34.266,0,0,1,1.322,3.967Z" transform="translate(-16.371 -163.872)" fill="#feca2e"/>
          <path id="Trazado_225971" data-name="Trazado 225971" d="M116.935,260.961a21.718,21.718,0,0,1,.84,6.052,22.887,22.887,0,0,1-45.774,0,21.718,21.718,0,0,1,.84-6.052,42.033,42.033,0,0,0,9.51,4.22,14.483,14.483,0,0,0-.178,1.832,12.715,12.715,0,1,0,25.43,0,14.483,14.483,0,0,0-.178-1.832A42.033,42.033,0,0,0,116.935,260.961Z" transform="translate(-49.113 -178.008)" fill="#fcd770"/>
          <path id="Trazado_225972" data-name="Trazado 225972" d="M38.694,92.631a42.032,42.032,0,0,1-9.51-4.22A43.218,43.218,0,0,1,8,51.231a43.231,43.231,0,0,1,86.463,0,44.752,44.752,0,0,1-.864,8.723A43.418,43.418,0,0,1,81.772,81.823a42.7,42.7,0,0,1-8.493,6.587,42.032,42.032,0,0,1-9.51,4.22,43.825,43.825,0,0,1-25.075,0Z" transform="translate(-5.457 -5.457)" fill="#4dd0e1"/>
          <path id="Trazado_225973" data-name="Trazado 225973" d="M106.118,73.059A33.059,33.059,0,1,1,73.059,40,33.059,33.059,0,0,1,106.118,73.059Z" transform="translate(-27.285 -27.285)" fill="#e6e9ed"/>
          <path id="Trazado_225974" data-name="Trazado 225974" d="M290.172,137.059A10.169,10.169,0,0,0,280,147.231v-16.25a25.588,25.588,0,0,1,.56-5.441,26.971,26.971,0,0,1,45.494-13.632l2.264,2.264a11.155,11.155,0,0,1,5.518,4.069,11,11,0,0,1,2.111,6.51v22.48a10.169,10.169,0,0,0-10.172-10.172h-.432a17.384,17.384,0,0,1-12.283-5.086,17.384,17.384,0,0,1-12.283,5.086Z" transform="translate(-190.994 -70.941)" fill="#feca2e"/>
          <g id="Grupo_222246" data-name="Grupo 222246" transform="translate(89.006 61.032)">
            <path id="Trazado_225975" data-name="Trazado 225975" d="M346.172,305.506a17.727,17.727,0,0,0,9.944-3.026l.229.483v7.629l-10.172,7.629L336,310.592v-7.629l.229-.483C343.731,305.38,344.951,305.506,346.172,305.506Z" transform="translate(-318.199 -267.361)" fill="#f0d0b4"/>
            <path id="Trazado_225976" data-name="Trazado 225976" d="M432.7,218.172a10.169,10.169,0,0,1-10.172,10.172l-.687-.178a17.336,17.336,0,0,0,.687-4.908V208A10.169,10.169,0,0,1,432.7,218.172Z" transform="translate(-376.752 -202.914)" fill="#f0d0b4"/>
            <path id="Trazado_225977" data-name="Trazado 225977" d="M290.172,223.258a17.336,17.336,0,0,0,.687,4.908l-.687.178a10.172,10.172,0,0,1,0-20.344Z" transform="translate(-280 -202.914)" fill="#f0d0b4"/>
            <path id="Trazado_225978" data-name="Trazado 225978" d="M347.6,197.086v15.258a17.336,17.336,0,0,1-.687,4.908A17.776,17.776,0,0,1,329.8,230.145c-1.221,0-2.441-.127-9.943-3.026a18.466,18.466,0,0,1-2.645-2.186,17.716,17.716,0,0,1-4.526-7.68,17.337,17.337,0,0,1-.687-4.908V197.086h10.6A17.384,17.384,0,0,0,334.887,192a17.384,17.384,0,0,0,12.283,5.086Z" transform="translate(-301.828 -192)" fill="#f0d0b4"/>
          </g>
          <path id="Trazado_225979" data-name="Trazado 225979" d="M136,104v15.258h10.172v-5.086h-5.086V104Z" transform="translate(-92.769 -70.941)"/>
          <path id="Trazado_225980" data-name="Trazado 225980" d="M147.228,105.329l-17.534-3.189V97.232a20.432,20.432,0,0,0,6.171-8.336,12.691,12.691,0,0,0,11.63-12.606V53.816a13.68,13.68,0,0,0-8.776-12.785l-1.869-1.869a29.5,29.5,0,0,0-45.411,4.491,45.742,45.742,0,1,0-79.1,33.28c-.138.384-.3.757-.422,1.15L5.086,79.222V98.791l6.833,1.136a35.337,35.337,0,0,0,2.189,5.3l-4.021,5.631,13.831,13.831,5.631-4.021a35.073,35.073,0,0,0,5.3,2.189l1.136,6.833h4.7v5.086h5.086V124.608H40.3l-.961-5.76-1.574-.427a30.274,30.274,0,0,1-7.134-2.946l-1.417-.812-4.745,3.39-7.743-7.743,3.39-4.745-.812-1.417a30.123,30.123,0,0,1-2.946-7.134l-.427-1.574-5.76-.961V83.531l5.76-.961L16.36,81c.015-.053.038-.1.053-.153a46.44,46.44,0,0,0,4.424,3.266,25.429,25.429,0,1,0,49.877,0,46.007,46.007,0,0,0,4.424-3.266c.016.053.038.1.053.153l.427,1.574,5.758.963V94.48l-5.76.961-.427,1.574a30.275,30.275,0,0,1-2.946,7.134l-.812,1.417,3.39,4.744-7.743,7.743-4.745-3.39-1.417.812a30.137,30.137,0,0,1-7.134,2.947l-1.574.427-1.314,7.886,5.017.834.786-4.707a35.336,35.336,0,0,0,5.3-2.189l5.631,4.021,8.839-8.84a12.4,12.4,0,0,0-.178,1.983v34.743H45.774v-2.543H40.688v7.629H157.667V117.838A12.714,12.714,0,0,0,147.228,105.329Zm-19.441,1.635,1.762.32-1.64,8.2-6.378-3.827Zm-3.179-3.972-7.629,5.722-7.629-5.722v-2.769a20.182,20.182,0,0,0,15.258,0Zm-18.437,3.972,6.256,4.692-6.378,3.827-1.64-8.2Zm10.808-10.33a15.273,15.273,0,0,1-15.258-15.258V68.661h8.066a19.747,19.747,0,0,0,12.278-4.234,19.664,19.664,0,0,0,10.172,4.059v12.89A15.273,15.273,0,0,1,116.979,96.635ZM96.744,83.485a7.582,7.582,0,0,1-.109-14.355V81.377A20.7,20.7,0,0,0,96.744,83.485Zm40.47,0a20.707,20.707,0,0,0,.109-2.108V69.13a7.582,7.582,0,0,1-.109,14.355ZM115.977,35.6a24.275,24.275,0,0,1,17.274,7.154l2.7,2.7.57.191a8.6,8.6,0,0,1,5.889,8.17V66.182a12.59,12.59,0,0,0-5.086-2.349V58.489h-5.086V63.41a14.714,14.714,0,0,1-8.374-4.176l-1.8-1.8-1.8,1.8a14.722,14.722,0,0,1-10.48,4.341h-8.066V58.489H96.635v5.343a12.619,12.619,0,0,0-5.086,2.349V60.03A24.458,24.458,0,0,1,115.977,35.6ZM45.774,5.086A40.688,40.688,0,1,1,5.086,45.774,40.737,40.737,0,0,1,45.774,5.086Zm20.344,83.92a20.344,20.344,0,1,1-40.688,0,20.69,20.69,0,0,1,.175-2.2,45.192,45.192,0,0,0,4.921,2.079c0,.042-.01.083-.01.124a15.245,15.245,0,0,0,23.668,12.72l-2.81-4.242a10.116,10.116,0,0,1-15.629-7.078,44.587,44.587,0,0,0,20.1-.01A10.131,10.131,0,0,1,54.253,94.6l4.242,2.81a15.213,15.213,0,0,0,2.538-8.408c0-.041-.01-.082-.01-.124A45.7,45.7,0,0,0,65.943,86.8,20.691,20.691,0,0,1,66.118,89.006ZM77.44,105.23a35.072,35.072,0,0,0,2.189-5.3l6.833-1.136V79.222l-6.833-1.139c-.124-.39-.282-.766-.422-1.15A45.905,45.905,0,0,0,86.46,66.647V76.29A12.691,12.691,0,0,0,98.089,88.9a20.407,20.407,0,0,0,6.173,8.336v4.908l-17.537,3.189a12.623,12.623,0,0,0-6.68,3.55Zm49.711,47.351H119.99a7.618,7.618,0,0,1,7.161-5.086Zm25.43,0H132.237v-5.086h10.172V124.608h-5.086v17.8H127.151a12.738,12.738,0,0,0-12.458,10.172H96.635V124.608H91.549v27.973H81.377V117.838a7.63,7.63,0,0,1,6.263-7.506L99.4,108.195l3.072,15.367,14.5-8.7,14.5,8.7,3.072-15.365,11.761,2.137a7.628,7.628,0,0,1,6.268,7.506Z"/>
          <path id="Trazado_225981" data-name="Trazado 225981" d="M128,440h5.086v5.086H128Z" transform="translate(-87.312 -300.134)"/>
          <path id="Trazado_225982" data-name="Trazado 225982" d="M67.6,129.927a35.606,35.606,0,0,0,23.149-8.583l-3.314-3.863a30.52,30.52,0,0,1-17.292,7.245V114.669H65.059v10.043A30.534,30.534,0,0,1,37.215,96.868H47.258V91.782H37.2a30.5,30.5,0,0,1,7.245-17.294l-3.86-3.312A35.575,35.575,0,0,0,67.6,129.927Z" transform="translate(-21.828 -48.551)"/>
          <path id="Trazado_225983" data-name="Trazado 225983" d="M91.782,37.2V47.258h5.086V37.215a30.534,30.534,0,0,1,27.844,27.844H114.669v5.086h10.058a30.493,30.493,0,0,1-7.245,17.294l3.86,3.312A35.576,35.576,0,0,0,71.176,40.583l3.314,3.863A30.486,30.486,0,0,1,91.782,37.2Z" transform="translate(-48.551 -21.828)"/>
        </g>
      </g>
    </g>
  </g>
</svg>
