<svg xmlns="http://www.w3.org/2000/svg" width="190" height="89.224" viewBox="0 0 190 89.224">
  <g id="Grupo_222371" data-name="Grupo 222371" transform="translate(-180 -10368)">
    <g id="Grupo_222370" data-name="Grupo 222370">
      <g id="Grupo_210450" data-name="Grupo 210450" transform="translate(0 -31.066)">
        <g id="Grupo_208006" data-name="Grupo 208006" transform="translate(0 10016.29)">
          <rect id="Rect치ngulo_41430" data-name="Rect치ngulo 41430" width="85" height="28" rx="14" transform="translate(285 383)" fill="#feca2e" opacity="0.2"/>
          <rect id="Rect치ngulo_41431" data-name="Rect치ngulo 41431" width="85" height="28" rx="14" transform="translate(180 444)" fill="#4dd0e1" opacity="0.2"/>
        </g>
        <g id="Grupo_210439" data-name="Grupo 210439" transform="translate(220.501 10399.066)">
          <path id="Trazado_221881" data-name="Trazado 221881" d="M353.78,42.889a8.115,8.115,0,1,1,8.115-8.115A8.124,8.124,0,0,1,353.78,42.889Zm0-13.065a4.949,4.949,0,1,0,4.948,4.949A4.955,4.955,0,0,0,353.78,29.824Z" transform="translate(-337.265 -21.627)" fill="#0f2771"/>
          <path id="Trazado_221882" data-name="Trazado 221882" d="M346.091,60.574a1.582,1.582,0,0,1-1.583-1.583V42.248a1.583,1.583,0,1,1,3.166,0V58.991A1.582,1.582,0,0,1,346.091,60.574Z" transform="translate(-338.364 -8.329)" fill="#0f2771"/>
          <path id="Trazado_221883" data-name="Trazado 221883" d="M366.657,102.135h-6.608a1.583,1.583,0,0,1-1.583-1.583v-27.1a.59.59,0,0,0-.211-.454.6.6,0,0,0-.5-.133.692.692,0,0,0-.481.7v26.985a1.584,1.584,0,0,1-1.583,1.583h-6.61a1.583,1.583,0,0,1-1.583-1.583V67.985a4.656,4.656,0,0,1-6.145-4.525V46.632a10.617,10.617,0,0,1,9.41-10.55,61.274,61.274,0,0,1,7.121-.236,1.584,1.584,0,0,1-.016,3.168,57.489,57.489,0,0,0-6.745.214,7.448,7.448,0,0,0-6.6,7.4V63.461a1.565,1.565,0,0,0,1.177,1.571,1.492,1.492,0,0,0,1.8-1.458,1.583,1.583,0,1,1,3.166,0V98.969h3.445v-25.4a3.854,3.854,0,0,1,3.141-3.827,3.764,3.764,0,0,1,4.38,3.712V98.969h3.443V63.574a1.583,1.583,0,0,1,3.166,0v36.978A1.583,1.583,0,0,1,366.657,102.135Z" transform="translate(-341.356 -12.911)" fill="#0f2771"/>
          <path id="Trazado_221884" data-name="Trazado 221884" d="M352.045,57.822a1.586,1.586,0,0,1-1.411-.864l-2.969-5.819a1.585,1.585,0,0,1-.164-.891l.938-8.7a1.583,1.583,0,1,1,3.148.339L350.7,50.12l1.345,2.636,1.345-2.636-.881-8.164a1.583,1.583,0,0,1,3.148-.339l.93,8.632a1.584,1.584,0,0,1-.164.891l-2.969,5.819A1.58,1.58,0,0,1,352.045,57.822Z" transform="translate(-335.53 -8.83)" fill="#0f2771"/>
          <path id="Trazado_221885" data-name="Trazado 221885" d="M363.665,53.4H346.091a1.583,1.583,0,1,1,0-3.166h17.574a1.583,1.583,0,0,1,0,3.166Z" transform="translate(-338.364 0.759)" fill="#0f2771"/>
          <path id="Trazado_221886" data-name="Trazado 221886" d="M359.385,65.153A1.583,1.583,0,0,1,357.8,63.57V44.1a1.584,1.584,0,0,1,1.583-1.583h17.9a1.755,1.755,0,1,0,0-3.511H350.6a1.584,1.584,0,0,1,0-3.168H377.28a4.922,4.922,0,0,1,0,9.844H360.968V63.57A1.582,1.582,0,0,1,359.385,65.153Z" transform="translate(-334.084 -12.908)" fill="#0f2771"/>
          <path id="Trazado_221887" data-name="Trazado 221887" d="M428.855,78.829H363.05a1.583,1.583,0,0,1-1.583-1.583V55.273a1.583,1.583,0,0,1,1.583-1.583h2.409a1.755,1.755,0,1,0,0-3.511H363.05a1.583,1.583,0,0,1-1.583-1.585V25.662a1.583,1.583,0,0,1,1.583-1.585h65.805a1.584,1.584,0,0,1,1.583,1.585V77.246A1.584,1.584,0,0,1,428.855,78.829Zm-64.222-3.166h62.64V27.245h-62.64V47.011h.827a4.922,4.922,0,0,1,0,9.844h-.827Z" transform="translate(-322.263 -24.077)" fill="#0f2771"/>
          <path id="Trazado_221888" data-name="Trazado 221888" d="M383.965,46.882a1.563,1.563,0,0,1-.6-.121,1.584,1.584,0,0,1-.979-1.462V28.318a1.585,1.585,0,0,1,1.585-1.583,18.436,18.436,0,0,1,13.125,5.437,1.585,1.585,0,0,1,0,2.24L385.086,46.418A1.577,1.577,0,0,1,383.965,46.882Zm1.585-16.9v11.5l8.127-8.129A15.261,15.261,0,0,0,385.55,29.981Z" transform="translate(-302.406 -21.554)" fill="#0f2771"/>
          <path id="Trazado_221889" data-name="Trazado 221889" d="M389.832,65.725a18.564,18.564,0,0,1,0-37.128,1.584,1.584,0,0,1,1.583,1.583V46.506L402.957,58.05a1.581,1.581,0,0,1,0,2.238A18.436,18.436,0,0,1,389.832,65.725Zm-1.583-33.88a15.4,15.4,0,1,0,11.295,27.268L388.713,48.282a1.58,1.58,0,0,1-.464-1.119Z" transform="translate(-312.958 -19.786)" fill="#0f2771"/>
          <path id="Trazado_221890" data-name="Trazado 221890" d="M397.446,58.329a1.581,1.581,0,0,1-1.121-.464L384.319,45.859a1.585,1.585,0,0,1,0-2.24l12.006-12.006a1.584,1.584,0,0,1,2.082-.138c.228.173,5.595,4.378,5.595,13.266a18.444,18.444,0,0,1-5.437,13.125A1.577,1.577,0,0,1,397.446,58.329Zm-9.77-13.589,9.714,9.712a15.293,15.293,0,0,0,3.447-9.712,14.644,14.644,0,0,0-3.378-9.784Z" transform="translate(-301.008 -17.363)" fill="#0f2771"/>
          <path id="Trazado_221891" data-name="Trazado 221891" d="M432.247,59.24H363.693a4.35,4.35,0,1,1,0-8.7h68.554a4.35,4.35,0,0,1,0,8.7Zm-68.554-5.534a1.184,1.184,0,0,0,0,2.369h68.554a1.184,1.184,0,0,0,0-2.369Z" transform="translate(-324.28 1.047)" fill="#0f2771"/>
        </g>
      </g>
    </g>
  </g>
</svg>
