<svg xmlns="http://www.w3.org/2000/svg" width="170" height="170" viewBox="0 0 170 170">
  <g id="Grupo_222367" data-name="Grupo 222367" transform="translate(7013 -6168)">
    <g id="Grupo_222366" data-name="Grupo 222366">
      <g id="Grupo_222365" data-name="Grupo 222365">
        <g id="Grupo_222231" data-name="Grupo 222231" transform="translate(-8178.2 -11842.139)">
          <g id="Grupo_152128" data-name="Grupo 152128" transform="translate(1165.2 18010.139)">
            <circle id="Elipse_4809" data-name="Elipse 4809" cx="85" cy="85" r="85" fill="#0f2771"/>
          </g>
          <g id="Grupo_210424" data-name="Grupo 210424" transform="translate(1197.337 18034.652)">
            <path id="Trazado_222012" data-name="Trazado 222012" d="M35.913,76.854a1.664,1.664,0,0,1-1.665-1.665V66.562a1.665,1.665,0,1,1,3.33,0v8.627A1.665,1.665,0,0,1,35.913,76.854Z" transform="translate(-10.664 37.583)" fill="#fff"/>
            <path id="Trazado_222013" data-name="Trazado 222013" d="M35.52,65.628a8.493,8.493,0,1,1,8.492-8.494A8.5,8.5,0,0,1,35.52,65.628Zm0-13.655a5.161,5.161,0,1,0,5.161,5.161A5.167,5.167,0,0,0,35.52,51.973Z" transform="translate(-18.249 20.506)" fill="#fff"/>
            <path id="Trazado_222014" data-name="Trazado 222014" d="M28.131,76.854a1.664,1.664,0,0,1-1.665-1.665V66.562a1.665,1.665,0,1,1,3.33,0v8.627A1.664,1.664,0,0,1,28.131,76.854Z" transform="translate(-18.84 37.583)" fill="#fff"/>
            <path id="Trazado_222015" data-name="Trazado 222015" d="M53.917,76.854a1.665,1.665,0,0,1-1.665-1.665V66.562a1.665,1.665,0,1,1,3.33,0v8.627A1.664,1.664,0,0,1,53.917,76.854Z" transform="translate(8.252 37.583)" fill="#fff"/>
            <path id="Trazado_222016" data-name="Trazado 222016" d="M53.524,65.628a8.493,8.493,0,1,1,8.494-8.494A8.5,8.5,0,0,1,53.524,65.628Zm0-13.655a5.161,5.161,0,1,0,5.161,5.161A5.168,5.168,0,0,0,53.524,51.973Z" transform="translate(0.666 20.506)" fill="#fff"/>
            <path id="Trazado_222017" data-name="Trazado 222017" d="M46.135,76.854a1.665,1.665,0,0,1-1.665-1.665V66.562a1.666,1.666,0,0,1,3.332,0v8.627A1.665,1.665,0,0,1,46.135,76.854Z" transform="translate(0.076 37.583)" fill="#fff"/>
            <path id="Trazado_222018" data-name="Trazado 222018" d="M71.922,76.854a1.664,1.664,0,0,1-1.665-1.665V66.562a1.665,1.665,0,1,1,3.33,0v8.627A1.665,1.665,0,0,1,71.922,76.854Z" transform="translate(27.168 37.583)" fill="#fff"/>
            <path id="Trazado_222019" data-name="Trazado 222019" d="M71.529,65.628a8.493,8.493,0,1,1,8.492-8.494A8.5,8.5,0,0,1,71.529,65.628Zm0-13.655a5.161,5.161,0,1,0,5.161,5.161A5.167,5.167,0,0,0,71.529,51.973Z" transform="translate(19.583 20.506)" fill="#fff"/>
            <path id="Trazado_222020" data-name="Trazado 222020" d="M64.14,76.854a1.664,1.664,0,0,1-1.665-1.665V66.562a1.665,1.665,0,1,1,3.33,0v8.627A1.664,1.664,0,0,1,64.14,76.854Z" transform="translate(18.992 37.583)" fill="#fff"/>
            <path id="Trazado_222021" data-name="Trazado 222021" d="M55.623,84.223H24.412a1.665,1.665,0,0,1-1.665-1.665V68.932A11.1,11.1,0,0,1,32.592,57.9a1.666,1.666,0,0,1,.377,3.31,7.773,7.773,0,0,0-6.892,7.727V80.893h27.88V68.932A7.775,7.775,0,0,0,47.063,61.2a1.666,1.666,0,0,1,.379-3.31,11.1,11.1,0,0,1,9.845,11.036V82.558A1.665,1.665,0,0,1,55.623,84.223Z" transform="translate(-22.747 30.214)" fill="#fff"/>
            <path id="Trazado_222022" data-name="Trazado 222022" d="M73.626,84.223H42.417a1.664,1.664,0,0,1-1.665-1.665V68.932A11.1,11.1,0,0,1,50.595,57.9a1.666,1.666,0,0,1,.379,3.31,7.773,7.773,0,0,0-6.892,7.727V80.893H71.96V68.932A7.773,7.773,0,0,0,65.068,61.2a1.666,1.666,0,0,1,.377-3.31,11.1,11.1,0,0,1,9.845,11.036V82.558A1.664,1.664,0,0,1,73.626,84.223Z" transform="translate(-3.83 30.214)" fill="#fff"/>
            <path id="Trazado_222023" data-name="Trazado 222023" d="M91.632,84.223H60.421a1.665,1.665,0,0,1-1.665-1.665V68.932A11.1,11.1,0,0,1,68.6,57.9a1.666,1.666,0,0,1,.377,3.31,7.773,7.773,0,0,0-6.892,7.727V80.893h27.88V68.932A7.773,7.773,0,0,0,83.072,61.2a1.666,1.666,0,0,1,.379-3.31A11.1,11.1,0,0,1,93.3,68.932V82.558A1.665,1.665,0,0,1,91.632,84.223Z" transform="translate(15.085 30.214)" fill="#fff"/>
            <path id="Trazado_222024" data-name="Trazado 222024" d="M46.308,50.293a1.664,1.664,0,0,1-1.665-1.665V40a1.665,1.665,0,1,1,3.33,0v8.627A1.665,1.665,0,0,1,46.308,50.293Z" transform="translate(0.257 9.675)" fill="#fff"/>
            <path id="Trazado_222025" data-name="Trazado 222025" d="M45.916,39.066a8.493,8.493,0,1,1,8.492-8.494A8.5,8.5,0,0,1,45.916,39.066Zm0-13.655a5.161,5.161,0,1,0,5.161,5.161A5.167,5.167,0,0,0,45.916,25.411Z" transform="translate(-7.329 -7.401)" fill="#fff"/>
            <path id="Trazado_222026" data-name="Trazado 222026" d="M38.526,50.293a1.664,1.664,0,0,1-1.665-1.665V40a1.665,1.665,0,1,1,3.33,0v8.627A1.665,1.665,0,0,1,38.526,50.293Z" transform="translate(-7.918 9.675)" fill="#fff"/>
            <path id="Trazado_222027" data-name="Trazado 222027" d="M66.016,57.661H34.807A1.664,1.664,0,0,1,33.142,56V42.37a11.1,11.1,0,0,1,9.843-11.036,1.665,1.665,0,1,1,.379,3.308,7.777,7.777,0,0,0-6.892,7.729V54.331H64.35V42.37a7.777,7.777,0,0,0-6.892-7.729,1.665,1.665,0,0,1,.379-3.308A11.1,11.1,0,0,1,67.681,42.37V56A1.664,1.664,0,0,1,66.016,57.661Z" transform="translate(-11.826 2.307)" fill="#fff"/>
            <path id="Trazado_222028" data-name="Trazado 222028" d="M77.884,45.872H32.4a1.665,1.665,0,1,1,0-3.33H77.884a1.665,1.665,0,1,1,0,3.33Z" transform="translate(-14.356 14.096)" fill="#fff"/>
            <path id="Trazado_222029" data-name="Trazado 222029" d="M53.355,47.613a1.684,1.684,0,0,1-.589-.107,1.667,1.667,0,0,1-1.077-1.558V22.612a7.7,7.7,0,0,1,7.69-7.69H78.207a7.7,7.7,0,0,1,7.69,7.69v6.929a7.7,7.7,0,0,1-7.69,7.688H63.612a.75.75,0,0,0-.56.252L54.6,47.051A1.662,1.662,0,0,1,53.355,47.613ZM59.38,18.252a4.364,4.364,0,0,0-4.358,4.36V41.545l5.535-6.269A4.077,4.077,0,0,1,63.612,33.9H78.207a4.364,4.364,0,0,0,4.36-4.358V22.612a4.365,4.365,0,0,0-4.36-4.36Z" transform="translate(7.661 -14.922)" fill="#fff"/>
            <path id="Trazado_222030" data-name="Trazado 222030" d="M63.151,21.582a2.063,2.063,0,1,1-2.063-2.063A2.065,2.065,0,0,1,63.151,21.582Z" transform="translate(15.368 -10.092)" fill="#fff"/>
            <path id="Trazado_222031" data-name="Trazado 222031" d="M66.3,21.582a2.063,2.063,0,1,1-2.063-2.063A2.063,2.063,0,0,1,66.3,21.582Z" transform="translate(18.678 -10.092)" fill="#fff"/>
            <path id="Trazado_222032" data-name="Trazado 222032" d="M60,21.582a2.063,2.063,0,1,1-2.063-2.063A2.063,2.063,0,0,1,60,21.582Z" transform="translate(12.056 -10.092)" fill="#fff"/>
          </g>
        </g>
      </g>
    </g>
  </g>
</svg>
