<svg xmlns="http://www.w3.org/2000/svg" width="257.624" height="315" viewBox="0 0 257.624 315">
  <g id="Grupo_222368" data-name="Grupo 222368" transform="translate(-933.936 -388.667)">
    <g id="Grupo_222367" data-name="Grupo 222367">
      <g id="Grupo_222366" data-name="Grupo 222366">
        <g id="Grupo_222365" data-name="Grupo 222365">
          <g id="Grupo_210352" data-name="Grupo 210352" transform="translate(825.928 334.586)">
            <g id="Floor" transform="translate(108.008 368.681)">
              <g id="Grupo_167052" data-name="Grupo 167052">
                <path id="Trazado_207164" data-name="Trazado 207164" d="M353.816,463.712c0,.11-55.03.2-122.9.2-67.891,0-122.91-.09-122.91-.2s55.019-.2,122.91-.2C298.786,463.511,353.816,463.6,353.816,463.712Z" transform="translate(-108.008 -463.511)" fill="#263238"/>
              </g>
            </g>
            <g id="Speech_Bubble" data-name="Speech Bubble" transform="translate(320.654 54.081)">
              <g id="Grupo_167060" data-name="Grupo 167060">
                <g id="Grupo_167053" data-name="Grupo 167053" transform="translate(16.761 12.76)">
                  <path id="Trazado_207165" data-name="Trazado 207165" d="M418.021,85.876h-3.059a2.6,2.6,0,0,1-2.669,2.615,2.476,2.476,0,0,1-2.4-1.58,2.742,2.742,0,0,1,.218-2.477c.519-.856,1.656-1.633,3.717-1.27v-6.9h-3.024v4.04a5.906,5.906,0,0,0-4.241,5.771c0,4.473,4.011,5.512,5.728,5.512C413.606,91.59,418.078,91.273,418.021,85.876Z" transform="translate(-406.565 -71.98)" fill="#0f2771"/>
                  <rect id="Rectángulo_294249" data-name="Rectángulo 294249" width="3.07" height="2.867" transform="translate(7.275 2.867) rotate(180)" fill="#0f2771"/>
                </g>
                <g id="Grupo_167059" data-name="Grupo 167059">
                  <g id="Grupo_167058" data-name="Grupo 167058">
                    <g id="Grupo_167057" data-name="Grupo 167057">
                      <g id="Grupo_167056" data-name="Grupo 167056">
                        <g id="Grupo_167055" data-name="Grupo 167055">
                          <g id="Grupo_167054" data-name="Grupo 167054">
                            <path id="Trazado_207166" data-name="Trazado 207166" d="M429.721,76.645a2.2,2.2,0,0,0,.006-.386c-.008-.281-.018-.658-.032-1.138-.012-.25-.012-.531-.037-.838q-.066-.462-.141-1l-.168-1.171q-.152-.615-.324-1.308a21.187,21.187,0,0,0-2.765-6.341A22.375,22.375,0,0,0,409.44,54.18a23.1,23.1,0,0,0-3.067-.062c-.518.036-1.046.026-1.568.1l-1.579.238a22.494,22.494,0,0,0-6.24,2.131,24.017,24.017,0,0,0-5.608,4.076,23.548,23.548,0,0,0-4.218,5.872,21.331,21.331,0,0,0-2.2,7.158A14.206,14.206,0,0,0,384.8,75.6a17.173,17.173,0,0,0-.035,1.929,22.871,22.871,0,0,0,.489,3.866,22.591,22.591,0,0,0,3.238,7.695l-.024-.234L385.323,96.7l-.187.464.483-.132,8.379-2.3-.207-.039a22.494,22.494,0,0,0,9.575,4.182,20.375,20.375,0,0,0,4.906.305,15.757,15.757,0,0,0,2.356-.223l1.146-.178c.377-.071.742-.185,1.11-.274a22.418,22.418,0,0,0,12.748-8.745,21.426,21.426,0,0,0,2.745-5.2l.42-1.173q.148-.579.283-1.113l.252-1.018c.063-.327.1-.642.142-.937.075-.592.177-1.113.2-1.569s.028-.833.038-1.152c.007-.292.012-.524.016-.7a1.079,1.079,0,0,0-.008-.238,1.111,1.111,0,0,0-.033.238c-.014.179-.032.41-.055.7q-.031.476-.077,1.145c-.035.453-.15.968-.237,1.554A22.29,22.29,0,0,1,412.786,98.1c-.361.086-.72.2-1.091.264l-1.126.169a15.5,15.5,0,0,1-2.314.207,19.973,19.973,0,0,1-4.809-.318,22.082,22.082,0,0,1-9.367-4.125l-.094-.071-.113.031-8.385,2.287.3.332q1.542-3.83,3.155-7.834l.049-.123-.073-.111a22.126,22.126,0,0,1-3.163-7.523,22.458,22.458,0,0,1-.478-3.778,16.794,16.794,0,0,1,.034-1.887,13.71,13.71,0,0,1,.158-1.866,20.876,20.876,0,0,1,2.141-7,23.118,23.118,0,0,1,4.116-5.751,23.6,23.6,0,0,1,5.48-4,22.1,22.1,0,0,1,6.106-2.108l1.548-.239c.512-.077,1.029-.068,1.537-.105a22.092,22.092,0,0,1,19.628,10.06,21.32,21.32,0,0,1,2.813,6.239q.181.682.343,1.292l.191,1.159q.089.536.164.994c.034.305.042.584.062.832.035.478.062.852.082,1.132A2.129,2.129,0,0,0,429.721,76.645Z" transform="translate(-384.752 -54.081)" fill="#263238"/>
                          </g>
                        </g>
                      </g>
                    </g>
                  </g>
                </g>
              </g>
            </g>
            <g id="Question_Mark" data-name="Question Mark" transform="translate(118.093 84.071)">
              <g id="Grupo_167069" data-name="Grupo 167069" transform="translate(0 0)">
                <g id="Grupo_167063" data-name="Grupo 167063">
                  <g id="Grupo_167061" data-name="Grupo 167061" transform="translate(18.38)">
                    <path id="Trazado_207167" data-name="Trazado 207167" d="M145.064,176.306h44.377s0-37.26,38.72-37.927c20.11-.346,30.536,12.827,34.773,22.918,4.92,11.719,3.431,25.075-3.16,35.942-7.526,12.409-23.737,24.88-53.643,19.61l-.284,98.867h43.879V257.106s61.542-15.909,61.542-83.729c0-64.891-52.475-78.909-80.677-79.81-15.694-.5-21.383-1.176-40.791,1.58C165.066,98.658,144.541,127.377,145.064,176.306Z" transform="translate(-145.054 -93.11)" fill="#30a2b1"/>
                    <rect id="Rectángulo_294250" data-name="Rectángulo 294250" width="44.532" height="41.592" transform="translate(60.67 243.219)" fill="#30a2b1"/>
                  </g>
                  <g id="Grupo_167062" data-name="Grupo 167062" transform="translate(0 0.304)">
                    <path id="Trazado_207169" data-name="Trazado 207169" d="M121.142,176.4h44.377s0-37.26,38.721-37.927c20.109-.346,30.536,12.827,34.773,22.918,4.919,11.719,3.43,25.075-3.161,35.942-7.526,12.409-24.021,23.689-53.927,18.421V315.808H225.8V257.2s61.542-15.909,61.542-83.729c0-64.891-58.192-79.963-83.1-79.962C185.195,93.506,120.3,98.111,121.142,176.4Z" transform="translate(-121.134 -93.506)" fill="#4dd0e1"/>
                    <rect id="Rectángulo_294252" data-name="Rectángulo 294252" width="44.532" height="41.592" transform="translate(60.668 242.915)" fill="#4dd0e1"/>
                  </g>
                </g>
                <g id="Grupo_167064" data-name="Grupo 167064" transform="translate(44.12 45.023)">
                  <path id="Trazado_207171" data-name="Trazado 207171" d="M222.551,152.158a4.116,4.116,0,0,1-.664-.041c-.434-.021-1.066-.144-1.891-.153a38.664,38.664,0,0,0-6.958.288,49.86,49.86,0,0,0-10.045,2.363,42.876,42.876,0,0,0-5.6,2.407,29.757,29.757,0,0,0-5.473,3.545,27.147,27.147,0,0,0-4.48,4.732,43.785,43.785,0,0,0-7.332,14.6,38.424,38.424,0,0,0-1.335,6.835c-.095.819-.119,1.458-.141,1.892a4.184,4.184,0,0,1-.06.662,4.076,4.076,0,0,1-.021-.664c0-.436,0-1.079.068-1.9a35.567,35.567,0,0,1,1.217-6.9,44.066,44.066,0,0,1,3.925-9.62,44.878,44.878,0,0,1,3.368-5.145,27.268,27.268,0,0,1,4.537-4.8,29.824,29.824,0,0,1,5.548-3.584,42.426,42.426,0,0,1,5.656-2.407,48.562,48.562,0,0,1,10.132-2.3,35.9,35.9,0,0,1,7-.163c.828.034,1.46.181,1.892.229A4.109,4.109,0,0,1,222.551,152.158Z" transform="translate(-178.552 -151.705)" fill="#263238"/>
                </g>
                <g id="Grupo_167065" data-name="Grupo 167065" transform="translate(80.062 0.319)">
                  <path id="Trazado_207172" data-name="Trazado 207172" d="M300.246,130.759a.939.939,0,0,1-.144-.174l-.389-.534-1.46-2.073c-.32-.447-.654-.96-1.057-1.494L295.81,124.8l-1.589-1.932c-.578-.671-1.252-1.324-1.924-2.04-.689-.7-1.373-1.474-2.153-2.21l-2.481-2.243c-.433-.383-.855-.793-1.315-1.173l-1.43-1.126c-.975-.751-1.944-1.571-3-2.327a96.063,96.063,0,0,0-14.54-8.587l-4.049-1.831-4.023-1.561c-1.308-.542-2.646-.928-3.937-1.355-1.3-.4-2.551-.87-3.818-1.166l-3.675-.965c-1.191-.316-2.375-.5-3.5-.749-1.136-.212-2.221-.495-3.286-.627l-3.056-.442c-1.941-.333-3.724-.4-5.279-.556-.779-.061-1.5-.144-2.171-.175l-1.83-.049-2.535-.081-.659-.032a.935.935,0,0,1-.225-.025.955.955,0,0,1,.224-.017l.66-.008,2.539.006,1.836.015c.67.02,1.4.092,2.178.143,1.56.136,3.349.183,5.3.5l3.069.418c1.071.125,2.16.4,3.3.607,1.135.24,2.324.421,3.521.732l3.693.953c1.273.293,2.531.757,3.837,1.158,1.3.425,2.642.809,3.956,1.351l4.041,1.562,4.067,1.837a94.353,94.353,0,0,1,14.585,8.65c1.058.764,2.029,1.591,3,2.35l1.43,1.139c.46.383.883.8,1.315,1.185l2.477,2.27c.778.745,1.458,1.527,2.144,2.237.668.726,1.337,1.388,1.91,2.068l1.571,1.96,1.364,1.707c.4.542.721,1.063,1.032,1.519l1.4,2.118.355.556A1,1,0,0,1,300.246,130.759Z" transform="translate(-225.328 -93.525)" fill="#263238"/>
                </g>
                <g id="Grupo_167066" data-name="Grupo 167066" transform="translate(104.852 132.829)">
                  <path id="Trazado_207173" data-name="Trazado 207173" d="M303.1,265.978a3.062,3.062,0,0,1-.336.46l-1.023,1.273c-.443.554-1,1.222-1.675,1.969s-1.417,1.625-2.31,2.527c-.875.92-1.84,1.922-2.927,2.944-1.059,1.054-2.259,2.1-3.508,3.225a96.113,96.113,0,0,1-17.949,12.375c-1.492.77-2.9,1.518-4.262,2.133-1.342.653-2.622,1.2-3.792,1.689-1.161.513-2.244.9-3.184,1.26s-1.76.648-2.435.865l-1.554.5a3.1,3.1,0,0,1-.549.15,3.02,3.02,0,0,1,.524-.226l1.527-.575c.666-.239,1.478-.54,2.407-.927s2-.783,3.153-1.312c1.16-.506,2.429-1.064,3.76-1.728,1.35-.625,2.749-1.382,4.23-2.158,2.932-1.609,6.089-3.5,9.275-5.683,3.17-2.2,6.061-4.478,8.607-6.647,1.251-1.109,2.456-2.146,3.521-3.186,1.094-1.009,2.066-2,2.951-2.9.9-.887,1.66-1.747,2.347-2.481s1.263-1.382,1.724-1.919l1.08-1.223A3.043,3.043,0,0,1,303.1,265.978Z" transform="translate(-257.591 -265.978)" fill="#263238"/>
                </g>
                <g id="Grupo_167067" data-name="Grupo 167067" transform="translate(103.694 163.992)">
                  <path id="Trazado_207174" data-name="Trazado 207174" d="M256.285,361.665c-.111,0-.2-12.343-.2-27.564s.09-27.567.2-27.567.2,12.34.2,27.567S256.4,361.665,256.285,361.665Z" transform="translate(-256.084 -306.534)" fill="#263238"/>
                </g>
                <g id="Grupo_167068" data-name="Grupo 167068" transform="translate(105.387 243.303)">
                  <path id="Trazado_207175" data-name="Trazado 207175" d="M258.488,448.439c-.111,0-.2-8.661-.2-19.343s.09-19.345.2-19.345.2,8.659.2,19.345S258.6,448.439,258.488,448.439Z" transform="translate(-258.287 -409.752)" fill="#263238"/>
                </g>
              </g>
            </g>
            <g id="Character" transform="translate(263.802 67.834)">
              <g id="Grupo_167284" data-name="Grupo 167284" transform="translate(0 0)">
                <g id="Grupo_167086" data-name="Grupo 167086" transform="translate(0 49.189)">
                  <path id="Trazado_207176" data-name="Trazado 207176" d="M315.36,191.274c-.775,1.547,2.1,2.795,3.753,3.3a20.949,20.949,0,0,0,11.806-1.12,10.574,10.574,0,0,0,4.01-4.5,31.515,31.515,0,0,0,2.036-5.754S318.811,184.387,315.36,191.274Z" transform="translate(-311.797 -146.929)" fill="#e8505b"/>
                  <g id="Grupo_167070" data-name="Grupo 167070" transform="translate(3.432 36.269)" opacity="0.4">
                    <path id="Trazado_207177" data-name="Trazado 207177" d="M315.36,191.274c-.775,1.547,2.1,2.795,3.753,3.3a20.949,20.949,0,0,0,11.806-1.12,10.574,10.574,0,0,0,4.01-4.5,31.515,31.515,0,0,0,2.036-5.754S318.811,184.387,315.36,191.274Z" transform="translate(-315.23 -183.198)"/>
                  </g>
                  <g id="Grupo_167072" data-name="Grupo 167072" transform="translate(53.664 34.089)">
                    <path id="Trazado_207178" data-name="Trazado 207178" d="M381.787,185.7a17.409,17.409,0,0,0,10.247,3.217,7.266,7.266,0,0,0,4.879-1.534c.592-.542,1.034-1.234,1.644-1.755.414-.353.9-.622,1.289-1a1.649,1.649,0,0,0,.566-1.458,3.041,3.041,0,0,0-1.061-1.7c-2.085-1.183-4.573-1.14-6.969-1.086a23.9,23.9,0,0,0-7.031,1.378c-1.859.625-3.807,1.508-4.749,3.227" transform="translate(-380.602 -180.36)" fill="#e8505b"/>
                    <g id="Grupo_167071" data-name="Grupo 167071" transform="translate(0 0.011)" opacity="0.4">
                      <path id="Trazado_207179" data-name="Trazado 207179" d="M400.412,183.167a3.218,3.218,0,0,0-1.363-1.544,12.271,12.271,0,0,0-6.668-1.239,23.9,23.9,0,0,0-7.03,1.379c-1.859.625-3.807,1.508-4.749,3.227l1.185.71a17.408,17.408,0,0,0,10.247,3.217,7.266,7.266,0,0,0,4.879-1.534c.592-.542,1.034-1.234,1.644-1.755.414-.353.9-.622,1.289-1A1.649,1.649,0,0,0,400.412,183.167Z" transform="translate(-380.602 -180.374)"/>
                    </g>
                  </g>
                  <path id="Trazado_207180" data-name="Trazado 207180" d="M330.17,203l38.3.5a.492.492,0,0,0,.475-.642l-4.493-14.016s.662-7,1.577-15.431c1.389-12.789,3.236-28.871,3.26-28.827-2.616-7.342-18.076-8.594-18.076-8.594l-17.62,1.047-.62-1.033-5.07,2.357a23.438,23.438,0,0,0-3.181,1.793c-3.346,2.242-11.42,7.377-12.89,13.107-3.4,13.249,2.36,28.041,2.36,28.041l3.7-2.891a25.962,25.962,0,0,1,2.936-1.962l7.423,19.89a3.507,3.507,0,0,0-1.611,2.553A3.952,3.952,0,0,0,330.17,203" transform="translate(-310.763 -135.996)" fill="#feca2e"/>
                  <g id="Grupo_167073" data-name="Grupo 167073" transform="translate(30.831 23.702)" opacity="0.3">
                    <path id="Trazado_207181" data-name="Trazado 207181" d="M355.884,186.7c1.215-6.529.572-13.244-.074-19.854-2.127,5.408-2.049,11.5-4.3,16.86a7.206,7.206,0,0,0-.6,1.775,1.983,1.983,0,0,0,.512,1.733c.612.559,1.524.258,2.347.159a8.967,8.967,0,0,0,2.115-.672" transform="translate(-350.887 -166.842)"/>
                  </g>
                  <g id="Grupo_167074" data-name="Grupo 167074" transform="translate(21.203 53.813)" opacity="0.4">
                    <path id="Trazado_207182" data-name="Trazado 207182" d="M338.873,210.89c3.093,1.072,6.345-.917,9.6-1.27a24.2,24.2,0,0,1,6.437.606,48.122,48.122,0,0,0,13.063.32,5,5,0,0,0,1.922-.5,2.318,2.318,0,0,0,1.005-1.907c-7.234-.742-14.469-1.185-21.7-1.927a13.641,13.641,0,0,0-5.426.172c-2.187.678-3.872,2.4-5.413,4.088" transform="translate(-338.357 -206.03)"/>
                  </g>
                  <path id="Trazado_207183" data-name="Trazado 207183" d="M398.1,172.719c-3.132-7.041-14.157-26.529-14.157-26.529L375.4,156.9l1.993,21.016s4.509-5.034,17.117-5.134a6.18,6.18,0,0,1,4.693,2.471Z" transform="translate(-325.735 -138.357)" fill="#feca2e"/>
                  <g id="Grupo_167075" data-name="Grupo 167075" transform="translate(18.597 21.345)">
                    <path id="Trazado_207184" data-name="Trazado 207184" d="M337.472,173.072a29.066,29.066,0,0,1-1.439-4.6,29.081,29.081,0,0,1-1.053-4.7,29.089,29.089,0,0,1,1.439,4.6A29.247,29.247,0,0,1,337.472,173.072Z" transform="translate(-334.965 -163.776)" fill="#263238"/>
                  </g>
                  <g id="Grupo_167076" data-name="Grupo 167076" transform="translate(49.023 17.113)">
                    <path id="Trazado_207185" data-name="Trazado 207185" d="M374.565,158.269a5.179,5.179,0,0,1,.79.672,21.617,21.617,0,0,1,1.9,2.091,20.166,20.166,0,0,1,4.077,8.344,15.6,15.6,0,0,1,.245,5.147c-.2,1.572-.5,2.954-.692,4.125s-.323,2.119-.384,2.779a6.876,6.876,0,0,1-.107,1.027,4.108,4.108,0,0,1-.048-1.036,24.332,24.332,0,0,1,.26-2.814c.158-1.18.43-2.575.6-4.125a15.813,15.813,0,0,0-.27-5.021,21.122,21.122,0,0,0-3.91-8.253C375.613,159.311,374.506,158.327,374.565,158.269Z" transform="translate(-374.563 -158.267)" fill="#263238"/>
                  </g>
                  <g id="Grupo_167077" data-name="Grupo 167077" transform="translate(21.132 59.1)">
                    <path id="Trazado_207186" data-name="Trazado 207186" d="M358.337,219.144a3.577,3.577,0,0,1-.834.243,8,8,0,0,1-1,.194,13.454,13.454,0,0,1-1.341.164,19.857,19.857,0,0,1-3.518-.02,20.9,20.9,0,0,1-8.192-2.543,19.8,19.8,0,0,1-2.911-1.976,13.382,13.382,0,0,1-1.013-.894,8.007,8.007,0,0,1-.714-.726,3.588,3.588,0,0,1-.55-.672c.058-.055.882.868,2.452,2.07a22.1,22.1,0,0,0,2.912,1.875,22.084,22.084,0,0,0,8.053,2.5,22.091,22.091,0,0,0,3.462.1C357.119,219.359,358.321,219.066,358.337,219.144Z" transform="translate(-338.264 -212.91)" fill="#263238"/>
                  </g>
                  <g id="Grupo_167078" data-name="Grupo 167078" transform="translate(50.603 60.951)">
                    <path id="Trazado_207187" data-name="Trazado 207187" d="M379.05,215.32a2.714,2.714,0,0,1,.3,1.122,6.923,6.923,0,0,1-.207,2.8,4.883,4.883,0,0,1-1.505,2.38,2.122,2.122,0,0,1-1.013.577c-.034-.058.34-.292.82-.784a5.445,5.445,0,0,0,1.315-2.288A14.94,14.94,0,0,0,379.05,215.32Z" transform="translate(-376.619 -215.32)" fill="#263238"/>
                  </g>
                  <g id="Grupo_167079" data-name="Grupo 167079" transform="translate(49.299 63.658)">
                    <path id="Trazado_207188" data-name="Trazado 207188" d="M376.574,218.843a4.176,4.176,0,0,1-1.645,4.241c-.085-.084.632-.848,1.077-2.022C376.469,219.9,376.455,218.847,376.574,218.843Z" transform="translate(-374.922 -218.842)" fill="#263238"/>
                  </g>
                  <g id="Grupo_167080" data-name="Grupo 167080" transform="translate(41.366 38.369)">
                    <path id="Trazado_207189" data-name="Trazado 207189" d="M367.324,185.936a15.536,15.536,0,0,1-1.367,1.967,15.623,15.623,0,0,1-1.343,1.982,7.13,7.13,0,0,1,2.71-3.949Z" transform="translate(-364.598 -185.93)" fill="#263238"/>
                  </g>
                  <g id="Grupo_167081" data-name="Grupo 167081" transform="translate(5.009 14.922)">
                    <path id="Trazado_207190" data-name="Trazado 207190" d="M330.076,160.261a19.341,19.341,0,0,1-1.7-1.126,21.877,21.877,0,0,0-9.075-3.388,19.433,19.433,0,0,1-2.021-.263,7.088,7.088,0,0,1,2.052-.018,18.377,18.377,0,0,1,9.2,3.436A7.121,7.121,0,0,1,330.076,160.261Z" transform="translate(-317.282 -155.416)" fill="#263238"/>
                  </g>
                  <g id="Grupo_167082" data-name="Grupo 167082" transform="translate(51.407 7.574)">
                    <path id="Trazado_207191" data-name="Trazado 207191" d="M384.473,145.857a33.357,33.357,0,0,0-3.883,3.633,33.347,33.347,0,0,0-2.918,4.445,4.739,4.739,0,0,1,.536-1.491,15.23,15.23,0,0,1,4.887-5.805A4.748,4.748,0,0,1,384.473,145.857Z" transform="translate(-377.666 -145.853)" fill="#263238"/>
                  </g>
                  <g id="Grupo_167083" data-name="Grupo 167083" transform="translate(20.18 1.246)">
                    <path id="Trazado_207192" data-name="Trazado 207192" d="M359.241,137.618a1.461,1.461,0,0,1,.173.355,6.606,6.606,0,0,1,.358,1.078,9.115,9.115,0,0,1-.015,4.161,10.227,10.227,0,0,1-3.134,5.3,10.627,10.627,0,0,1-7.07,2.518,11.963,11.963,0,0,1-7.138-2.386,13.651,13.651,0,0,1-3.928-4.761,14.519,14.519,0,0,1-1.309-3.954,10.533,10.533,0,0,1-.138-1.123,1.46,1.46,0,0,1-.008-.395c.041,0,.088.536.3,1.488a15.741,15.741,0,0,0,1.407,3.855,13.674,13.674,0,0,0,3.9,4.594,11.732,11.732,0,0,0,6.92,2.281,10.357,10.357,0,0,0,6.825-2.4,10.094,10.094,0,0,0,3.1-5.084,9.429,9.429,0,0,0,.138-4.062C359.431,138.13,359.195,137.636,359.241,137.618Z" transform="translate(-337.026 -137.618)" fill="#263238"/>
                  </g>
                  <g id="Grupo_167084" data-name="Grupo 167084" transform="translate(41.383 38.629)" opacity="0.3">
                    <path id="Trazado_207193" data-name="Trazado 207193" d="M368.321,187.377c-.012-.384-.062-.836-.395-1.028a.756.756,0,0,0-.7.012,1.958,1.958,0,0,0-.556.46,9.4,9.4,0,0,0-2.053,3.281l3.767-.325C368.362,188.981,368.345,188.172,368.321,187.377Z" transform="translate(-364.62 -186.269)"/>
                  </g>
                  <g id="Grupo_167085" data-name="Grupo 167085" transform="translate(54.857 25.977)" opacity="0.3">
                    <path id="Trazado_207194" data-name="Trazado 207194" d="M384.885,175.64a12.329,12.329,0,0,0-2.73-5.837,19.253,19.253,0,0,1,.167,11.96l.2-.509C383.565,179.126,385.174,177.793,384.885,175.64Z" transform="translate(-382.155 -169.803)"/>
                  </g>
                </g>
                <g id="Grupo_167106" data-name="Grupo 167106" transform="translate(30.422 258.08)">
                  <g id="Grupo_167087" data-name="Grupo 167087">
                    <path id="Trazado_207195" data-name="Trazado 207195" d="M370,409.394l-2.3,34.465-14.984-.176-2.36-35.831Z" transform="translate(-350.355 -407.852)" fill="#ffbe9d"/>
                  </g>
                  <g id="Grupo_167105" data-name="Grupo 167105" transform="translate(1.295 31.113)">
                    <g id="Grupo_167104" data-name="Grupo 167104">
                      <g id="Grupo_167089" data-name="Grupo 167089">
                        <g id="Grupo_167088" data-name="Grupo 167088">
                          <path id="Trazado_207196" data-name="Trazado 207196" d="M368.516,448.7l0,1s16.89,6.8,17.067,10l-33.547-.2.522-11.161A19.19,19.19,0,0,0,368.516,448.7Z" transform="translate(-352.04 -448.344)" fill="#bddcf6"/>
                        </g>
                      </g>
                      <g id="Grupo_167092" data-name="Grupo 167092" transform="translate(2.914 3.534)">
                        <g id="Grupo_167091" data-name="Grupo 167091">
                          <g id="Grupo_167090" data-name="Grupo 167090">
                            <path id="Trazado_207197" data-name="Trazado 207197" d="M356.815,453a1.37,1.37,0,0,0-.956,1.558,1.316,1.316,0,0,0,1.535.961,1.445,1.445,0,0,0,1-1.655,1.366,1.366,0,0,0-1.708-.823" transform="translate(-355.832 -452.943)" fill="#fff"/>
                          </g>
                        </g>
                      </g>
                      <g id="Grupo_167094" data-name="Grupo 167094" transform="translate(0 8.477)">
                        <g id="Grupo_167093" data-name="Grupo 167093">
                          <path id="Trazado_207198" data-name="Trazado 207198" d="M352.04,462.06l.125-2.684,32.107,1.171s1.49.659,1.315,1.71Z" transform="translate(-352.04 -459.376)" fill="#263238"/>
                        </g>
                      </g>
                      <g id="Grupo_167097" data-name="Grupo 167097" transform="translate(13.528 1.294)">
                        <g id="Grupo_167096" data-name="Grupo 167096">
                          <g id="Grupo_167095" data-name="Grupo 167095">
                            <path id="Trazado_207199" data-name="Trazado 207199" d="M372.714,450.182c-.006.164-.826.234-1.635.755-.822.5-1.242,1.208-1.392,1.142-.151-.032.1-1.01,1.09-1.625S372.751,450.033,372.714,450.182Z" transform="translate(-369.646 -450.028)" fill="#263238"/>
                          </g>
                        </g>
                      </g>
                      <g id="Grupo_167100" data-name="Grupo 167100" transform="translate(17.87 2.857)">
                        <g id="Grupo_167099" data-name="Grupo 167099">
                          <g id="Grupo_167098" data-name="Grupo 167098">
                            <path id="Trazado_207200" data-name="Trazado 207200" d="M377.533,452.13c.037.159-.674.433-1.235,1.123-.581.672-.725,1.421-.888,1.413-.154.025-.262-.935.451-1.78S377.531,451.974,377.533,452.13Z" transform="translate(-375.296 -452.062)" fill="#263238"/>
                          </g>
                        </g>
                      </g>
                      <g id="Grupo_167103" data-name="Grupo 167103" transform="translate(21.887 4.328)">
                        <g id="Grupo_167102" data-name="Grupo 167102">
                          <g id="Grupo_167101" data-name="Grupo 167101">
                            <path id="Trazado_207201" data-name="Trazado 207201" d="M380.718,456.8c-.149.034-.372-.786.054-1.68s1.194-1.247,1.262-1.11c.092.135-.408.614-.747,1.353C380.931,456.09,380.881,456.781,380.718,456.8Z" transform="translate(-380.525 -453.977)" fill="#263238"/>
                          </g>
                        </g>
                      </g>
                    </g>
                  </g>
                </g>
                <g id="Grupo_167213" data-name="Grupo 167213" transform="translate(7.997)">
                  <path id="Trazado_207202" data-name="Trazado 207202" d="M362.2,79.567a5.444,5.444,0,0,0-2.054-6.136,8.919,8.919,0,0,0-6.657-1.309,26.491,26.491,0,0,0-6.564,2.268A7.41,7.41,0,0,0,334.35,78.5a4.709,4.709,0,0,0-5.579,6.185l10.386,3.648L350.5,108.281a9.074,9.074,0,0,0,13.354-12.065,7.786,7.786,0,0,0,1.594-1.971,7.951,7.951,0,0,0,3.671-4.915A8.394,8.394,0,0,0,362.2,79.567Z" transform="translate(-322.866 -71.979)" fill="#263238"/>
                  <g id="Grupo_167207" data-name="Grupo 167207" transform="translate(0 5.407)">
                    <g id="Grupo_167184" data-name="Grupo 167184" transform="translate(6.822)">
                      <g id="Grupo_167183" data-name="Grupo 167183">
                        <g id="Grupo_167181" data-name="Grupo 167181" transform="translate(0 1.972)">
                          <g id="Grupo_167180" data-name="Grupo 167180">
                            <g id="Grupo_167179" data-name="Grupo 167179">
                              <g id="Grupo_167178" data-name="Grupo 167178">
                                <g id="Grupo_167163" data-name="Grupo 167163">
                                  <g id="Grupo_167162" data-name="Grupo 167162">
                                    <g id="Grupo_167161" data-name="Grupo 167161">
                                      <g id="Grupo_167113" data-name="Grupo 167113">
                                        <g id="Grupo_167112" data-name="Grupo 167112">
                                          <g id="Grupo_167111" data-name="Grupo 167111">
                                            <g id="Grupo_167110" data-name="Grupo 167110">
                                              <g id="Grupo_167109" data-name="Grupo 167109">
                                                <g id="Grupo_167108" data-name="Grupo 167108">
                                                  <g id="Grupo_167107" data-name="Grupo 167107">
                                                    <path id="Trazado_207203" data-name="Trazado 207203" d="M355.685,123.393c-.645-3.248-1.094-5.472-1.088-5.449,0,0,6.124-2.385,5.7-10.939-.21-4.255-1.833-10.961-3.338-16.406-1.355-4.9-5.923-10.3-10.763-8.742L331.566,89c-1.47.474-1.727,1.855-1.381,3.36l.024.734,5.694,23.557,2.405,10.528a8.894,8.894,0,0,0,9.928,6.746h0A8.894,8.894,0,0,0,355.685,123.393Z" transform="translate(-330.048 -81.583)" fill="#ffbe9d"/>
                                                  </g>
                                                </g>
                                              </g>
                                            </g>
                                          </g>
                                        </g>
                                      </g>
                                      <g id="Grupo_167129" data-name="Grupo 167129" transform="translate(21.974 12.326)">
                                        <g id="Grupo_167120" data-name="Grupo 167120" transform="translate(2.719 1.614)">
                                          <g id="Grupo_167119" data-name="Grupo 167119">
                                            <g id="Grupo_167118" data-name="Grupo 167118">
                                              <g id="Grupo_167117" data-name="Grupo 167117">
                                                <g id="Grupo_167116" data-name="Grupo 167116">
                                                  <g id="Grupo_167115" data-name="Grupo 167115">
                                                    <g id="Grupo_167114" data-name="Grupo 167114">
                                                      <path id="Trazado_207204" data-name="Trazado 207204" d="M364.308,100.492a1.084,1.084,0,0,1-.8,1.286,1.037,1.037,0,0,1-1.3-.727,1.087,1.087,0,0,1,.8-1.287A1.04,1.04,0,0,1,364.308,100.492Z" transform="translate(-362.184 -99.725)" fill="#263238"/>
                                                    </g>
                                                  </g>
                                                </g>
                                              </g>
                                            </g>
                                          </g>
                                        </g>
                                        <g id="Grupo_167128" data-name="Grupo 167128">
                                          <g id="Grupo_167127" data-name="Grupo 167127">
                                            <g id="Grupo_167126" data-name="Grupo 167126">
                                              <g id="Grupo_167125" data-name="Grupo 167125">
                                                <g id="Grupo_167124" data-name="Grupo 167124">
                                                  <g id="Grupo_167123" data-name="Grupo 167123">
                                                    <g id="Grupo_167122" data-name="Grupo 167122">
                                                      <g id="Grupo_167121" data-name="Grupo 167121">
                                                        <path id="Trazado_207205" data-name="Trazado 207205" d="M362.857,98.37c-.1.166-1.032-.26-2.174-.018-1.144.226-1.859.99-2.012.876-.074-.049.008-.327.317-.67a2.973,2.973,0,0,1,1.575-.872,2.858,2.858,0,0,1,1.766.187C362.738,98.068,362.909,98.294,362.857,98.37Z" transform="translate(-358.646 -97.625)" fill="#263238"/>
                                                      </g>
                                                    </g>
                                                  </g>
                                                </g>
                                              </g>
                                            </g>
                                          </g>
                                        </g>
                                      </g>
                                      <g id="Grupo_167145" data-name="Grupo 167145" transform="translate(10.926 15.035)">
                                        <g id="Grupo_167136" data-name="Grupo 167136" transform="translate(2.649 1.455)">
                                          <g id="Grupo_167135" data-name="Grupo 167135">
                                            <g id="Grupo_167134" data-name="Grupo 167134">
                                              <g id="Grupo_167133" data-name="Grupo 167133">
                                                <g id="Grupo_167132" data-name="Grupo 167132">
                                                  <g id="Grupo_167131" data-name="Grupo 167131">
                                                    <g id="Grupo_167130" data-name="Grupo 167130">
                                                      <path id="Trazado_207206" data-name="Trazado 207206" d="M349.838,103.809a1.085,1.085,0,0,1-.8,1.286,1.037,1.037,0,0,1-1.295-.728,1.085,1.085,0,0,1,.8-1.286A1.038,1.038,0,0,1,349.838,103.809Z" transform="translate(-347.715 -103.043)" fill="#263238"/>
                                                    </g>
                                                  </g>
                                                </g>
                                              </g>
                                            </g>
                                          </g>
                                        </g>
                                        <g id="Grupo_167144" data-name="Grupo 167144">
                                          <g id="Grupo_167143" data-name="Grupo 167143">
                                            <g id="Grupo_167142" data-name="Grupo 167142">
                                              <g id="Grupo_167141" data-name="Grupo 167141">
                                                <g id="Grupo_167140" data-name="Grupo 167140">
                                                  <g id="Grupo_167139" data-name="Grupo 167139">
                                                    <g id="Grupo_167138" data-name="Grupo 167138">
                                                      <g id="Grupo_167137" data-name="Grupo 167137">
                                                        <path id="Trazado_207207" data-name="Trazado 207207" d="M348.479,101.895c-.1.166-1.033-.26-2.174-.018-1.144.226-1.859.99-2.012.876-.074-.049.006-.327.317-.669a2.974,2.974,0,0,1,1.574-.873,2.865,2.865,0,0,1,1.766.187C348.359,101.593,348.531,101.819,348.479,101.895Z" transform="translate(-344.268 -101.15)" fill="#263238"/>
                                                      </g>
                                                    </g>
                                                  </g>
                                                </g>
                                              </g>
                                            </g>
                                          </g>
                                        </g>
                                      </g>
                                      <g id="Grupo_167153" data-name="Grupo 167153" transform="translate(18.398 13.596)">
                                        <g id="Grupo_167152" data-name="Grupo 167152">
                                          <g id="Grupo_167151" data-name="Grupo 167151">
                                            <g id="Grupo_167150" data-name="Grupo 167150">
                                              <g id="Grupo_167149" data-name="Grupo 167149">
                                                <g id="Grupo_167148" data-name="Grupo 167148">
                                                  <g id="Grupo_167147" data-name="Grupo 167147">
                                                    <g id="Grupo_167146" data-name="Grupo 167146">
                                                      <path id="Trazado_207208" data-name="Trazado 207208" d="M356.518,108.688a7.718,7.718,0,0,1,1.786-.725c.285-.091.549-.207.556-.416a1.514,1.514,0,0,0-.376-.824l-1.329-2.04a38.924,38.924,0,0,1-3.157-5.4,39.1,39.1,0,0,1,3.584,5.137q.678,1.08,1.3,2.062a1.723,1.723,0,0,1,.391,1.113.749.749,0,0,1-.39.527,2.029,2.029,0,0,1-.481.173A7.621,7.621,0,0,1,356.518,108.688Z" transform="translate(-353.992 -99.278)" fill="#263238"/>
                                                    </g>
                                                  </g>
                                                </g>
                                              </g>
                                            </g>
                                          </g>
                                        </g>
                                      </g>
                                      <g id="Grupo_167160" data-name="Grupo 167160" transform="translate(12.842 35.729)">
                                        <g id="Grupo_167159" data-name="Grupo 167159">
                                          <g id="Grupo_167158" data-name="Grupo 167158">
                                            <g id="Grupo_167157" data-name="Grupo 167157">
                                              <g id="Grupo_167156" data-name="Grupo 167156">
                                                <g id="Grupo_167155" data-name="Grupo 167155">
                                                  <g id="Grupo_167154" data-name="Grupo 167154">
                                                    <path id="Trazado_207209" data-name="Trazado 207209" d="M358.468,128.714a21.517,21.517,0,0,1-11.707-.632s4.023,5.256,12.146,2.743Z" transform="translate(-346.761 -128.082)" fill="#eb996e"/>
                                                  </g>
                                                </g>
                                              </g>
                                            </g>
                                          </g>
                                        </g>
                                      </g>
                                    </g>
                                  </g>
                                </g>
                                <g id="Grupo_167170" data-name="Grupo 167170" transform="translate(10.127 13.519)">
                                  <g id="Grupo_167169" data-name="Grupo 167169">
                                    <g id="Grupo_167168" data-name="Grupo 167168">
                                      <g id="Grupo_167167" data-name="Grupo 167167">
                                        <g id="Grupo_167166" data-name="Grupo 167166">
                                          <g id="Grupo_167165" data-name="Grupo 167165">
                                            <g id="Grupo_167164" data-name="Grupo 167164">
                                              <path id="Trazado_207210" data-name="Trazado 207210" d="M348.454,99.808c-.075.329-1.251.321-2.59.65-1.346.3-2.394.834-2.609.574-.1-.125.058-.445.464-.8a4.643,4.643,0,0,1,3.961-.933C348.2,99.437,348.486,99.653,348.454,99.808Z" transform="translate(-343.228 -99.176)" fill="#263238"/>
                                            </g>
                                          </g>
                                        </g>
                                      </g>
                                    </g>
                                  </g>
                                </g>
                                <g id="Grupo_167177" data-name="Grupo 167177" transform="translate(21.101 8.659)">
                                  <g id="Grupo_167176" data-name="Grupo 167176">
                                    <g id="Grupo_167175" data-name="Grupo 167175">
                                      <g id="Grupo_167174" data-name="Grupo 167174">
                                        <g id="Grupo_167173" data-name="Grupo 167173">
                                          <g id="Grupo_167172" data-name="Grupo 167172">
                                            <g id="Grupo_167171" data-name="Grupo 167171">
                                              <path id="Trazado_207211" data-name="Trazado 207211" d="M362.16,93.63c-.183.309-1.17.235-2.293.458-1.129.189-2.031.608-2.307.382-.123-.111-.028-.4.335-.735a3.678,3.678,0,0,1,1.771-.815,3.634,3.634,0,0,1,1.935.138C362.053,93.242,362.239,93.482,362.16,93.63Z" transform="translate(-357.51 -92.852)" fill="#263238"/>
                                            </g>
                                          </g>
                                        </g>
                                      </g>
                                    </g>
                                  </g>
                                </g>
                              </g>
                            </g>
                          </g>
                        </g>
                        <g id="Grupo_167182" data-name="Grupo 167182" transform="translate(4.672)">
                          <path id="Trazado_207212" data-name="Trazado 207212" d="M336.574,82.906a5.788,5.788,0,0,0,7.847,4.208c1.217-.494,2.471-1.422,3.707-.974,1.3.47,1.707,2.2,2.912,2.871,1.723.964,3.8-.706,5.766-.541,1.519.128,2.7,1.31,3.887,2.264s2.841,1.753,4.185,1.03a17.14,17.14,0,0,0-1.36-3.7A5.766,5.766,0,0,0,360.7,85.4a21.629,21.629,0,0,1-2.052-.685c-1.387-.713-2.009-2.325-3.02-3.512a6.344,6.344,0,0,0-5.383-2.157c-1.664.171-3.241,1.009-4.912.937-1.236-.052-2.419-.6-3.655-.581-2.407.041-4.216,2.149-5.552,4.153" transform="translate(-336.129 -79.017)" fill="#263238"/>
                        </g>
                      </g>
                    </g>
                    <path id="Trazado_207213" data-name="Trazado 207213" d="M341.206,85.373c-1.1-.082-3.364-.313-4.108-1.1a6.483,6.483,0,0,0-6.179-2.027,5.35,5.35,0,0,0-3.857,5.119,7.69,7.69,0,0,0-5.609,5.51,8.916,8.916,0,0,0,1.919,8.072,15.974,15.974,0,0,1,1.261,1.826,13.059,13.059,0,0,0-1.367,2.072c-1.756,3.887,3.011,5.376,3.011,5.376.013,2.613,2.421,2.6,3.966,2.593,1.486-.007,2.4,4.112,3.6,3.953l-1.222-12.726a1.59,1.59,0,0,0,.563.1c2.914.051,2.153-5.459,1.209-6.884a16.508,16.508,0,0,0,2.184-3.515,11.911,11.911,0,0,0,.113-5.891C337.709,87.706,341.69,85.408,341.206,85.373Z" transform="translate(-321.17 -79.725)" fill="#263238"/>
                    <g id="Grupo_167206" data-name="Grupo 167206" transform="translate(7.026 23.092)">
                      <g id="Grupo_167194" data-name="Grupo 167194">
                        <g id="Grupo_167193" data-name="Grupo 167193">
                          <g id="Grupo_167192" data-name="Grupo 167192">
                            <g id="Grupo_167191" data-name="Grupo 167191">
                              <g id="Grupo_167190" data-name="Grupo 167190">
                                <g id="Grupo_167189" data-name="Grupo 167189">
                                  <g id="Grupo_167188" data-name="Grupo 167188">
                                    <g id="Grupo_167187" data-name="Grupo 167187">
                                      <g id="Grupo_167186" data-name="Grupo 167186">
                                        <g id="Grupo_167185" data-name="Grupo 167185">
                                          <path id="Trazado_207214" data-name="Trazado 207214" d="M335.178,110.969a2.467,2.467,0,0,0-3.961-1.322c-.738.658-1.177,1.767-.712,3.621,1.241,4.946,5.951,2.68,5.924,2.536C336.412,115.716,335.709,113.012,335.178,110.969Z" transform="translate(-330.313 -109.069)" fill="#ffbe9d"/>
                                        </g>
                                      </g>
                                    </g>
                                  </g>
                                </g>
                              </g>
                            </g>
                          </g>
                        </g>
                      </g>
                      <g id="Grupo_167205" data-name="Grupo 167205" transform="translate(1.371 1.538)">
                        <g id="Grupo_167204" data-name="Grupo 167204">
                          <g id="Grupo_167203" data-name="Grupo 167203">
                            <g id="Grupo_167202" data-name="Grupo 167202">
                              <g id="Grupo_167201" data-name="Grupo 167201">
                                <g id="Grupo_167200" data-name="Grupo 167200">
                                  <g id="Grupo_167199" data-name="Grupo 167199">
                                    <g id="Grupo_167198" data-name="Grupo 167198">
                                      <g id="Grupo_167197" data-name="Grupo 167197">
                                        <g id="Grupo_167196" data-name="Grupo 167196">
                                          <g id="Grupo_167195" data-name="Grupo 167195">
                                            <path id="Trazado_207215" data-name="Trazado 207215" d="M334.861,114.774c-.026-.01-.071.082-.2.185a.888.888,0,0,1-.641.175c-.57-.061-1.219-.78-1.466-1.666a2.944,2.944,0,0,1-.068-1.294,1.027,1.027,0,0,1,.483-.824.453.453,0,0,1,.568.108c.1.121.094.228.122.231s.086-.11-.005-.3a.57.57,0,0,0-.272-.261.674.674,0,0,0-.509-.006,1.25,1.25,0,0,0-.708.993,3.028,3.028,0,0,0,.047,1.454c.282.988,1.027,1.793,1.793,1.82a.948.948,0,0,0,.755-.328C334.882,114.9,334.88,114.779,334.861,114.774Z" transform="translate(-332.097 -111.071)" fill="#eb996e"/>
                                          </g>
                                        </g>
                                      </g>
                                    </g>
                                  </g>
                                </g>
                              </g>
                            </g>
                          </g>
                        </g>
                      </g>
                    </g>
                  </g>
                  <g id="Grupo_167208" data-name="Grupo 167208" transform="translate(14.659 8.631)">
                    <path id="Trazado_207216" data-name="Trazado 207216" d="M364.011,98.071c-.031-.038.447-.345,1.079-1.117a7.271,7.271,0,0,0,1.544-3.843,7.074,7.074,0,0,0-.276-2.849,6.115,6.115,0,0,0-1.756-2.73,7.222,7.222,0,0,0-7.063-1.375c-.231.075-.446.19-.665.28-.21.11-.408.233-.6.343l-.3.171,0-.339A2.5,2.5,0,0,0,355.34,85a3.97,3.97,0,0,0-1.419-1.014,5.237,5.237,0,0,0-3.3-.241c-2.121.481-3.92,1.451-5.618,1.646a5.434,5.434,0,0,1-3.833-.77,3.128,3.128,0,0,1-.751-.768,1.35,1.35,0,0,1-.171-.333,4.411,4.411,0,0,0,1.007.978,5.412,5.412,0,0,0,3.711.622,13.326,13.326,0,0,0,2.58-.745,23.292,23.292,0,0,1,3-.983,6.656,6.656,0,0,1,1.737-.174,5.353,5.353,0,0,1,1.79.412,4.348,4.348,0,0,1,1.566,1.113,2.893,2.893,0,0,1,.721,1.873l-.309-.168c.209-.119.42-.25.645-.368.233-.1.462-.22.708-.3a7.551,7.551,0,0,1,7.446,1.478,6.413,6.413,0,0,1,1.826,2.906,7.273,7.273,0,0,1,.24,2.978,7.185,7.185,0,0,1-1.707,3.912,5.132,5.132,0,0,1-.857.795A1.536,1.536,0,0,1,364.011,98.071Z" transform="translate(-340.247 -83.212)" fill="#455a64"/>
                  </g>
                  <g id="Grupo_167209" data-name="Grupo 167209" transform="translate(15.269 3.217)">
                    <path id="Trazado_207217" data-name="Trazado 207217" d="M363.189,79.069a5.481,5.481,0,0,0-1.591-.546,4.194,4.194,0,0,0-1.892.171,3.734,3.734,0,0,0-1.947,1.415l-.188.272-.115-.307a5.781,5.781,0,0,0-4.687-3.481,7.465,7.465,0,0,0-4.506,1.3,19.964,19.964,0,0,1-3.571,1.848,5.618,5.618,0,0,1-2.7.317,3.406,3.406,0,0,1-.717-.2c-.157-.068-.235-.109-.23-.122.012-.036.343.1.966.164a5.871,5.871,0,0,0,2.589-.43,21.583,21.583,0,0,0,3.482-1.9,12.235,12.235,0,0,1,2.152-1.051,5.865,5.865,0,0,1,2.581-.33,6.062,6.062,0,0,1,4.968,3.755l-.3-.036a3.973,3.973,0,0,1,2.148-1.491,4.245,4.245,0,0,1,2.008-.1,3.6,3.6,0,0,1,1.2.459C363.083,78.949,363.2,79.057,363.189,79.069Z" transform="translate(-341.041 -76.166)" fill="#455a64"/>
                  </g>
                  <path id="Trazado_207218" data-name="Trazado 207218" d="M355.848,114.359a1.673,1.673,0,0,0-1.35-.392,1.977,1.977,0,0,0-1.295.945l-.02.029c-.012.022-.031.041-.042.063l.018-.013a.948.948,0,0,0-.144.58,1.4,1.4,0,0,0,.8,1.039,1.766,1.766,0,0,0,2.013-.291A1.442,1.442,0,0,0,355.848,114.359Z" transform="translate(-328.544 -81.701)" fill="#e8505b"/>
                  <g id="Grupo_167210" data-name="Grupo 167210" transform="translate(24.213 32.974)">
                    <path id="Trazado_207219" data-name="Trazado 207219" d="M356.155,116.966c-.059.012-.134-.228-.339-.549a2.41,2.41,0,0,0-2.494-1.135c-.377.058-.607.158-.638.106s.161-.239.569-.38a2.274,2.274,0,0,1,2.814,1.28C356.23,116.689,356.2,116.961,356.155,116.966Z" transform="translate(-352.682 -114.893)" fill="#263238"/>
                  </g>
                  <g id="Grupo_167211" data-name="Grupo 167211" transform="translate(9.025 34.837)">
                    <path id="Trazado_207220" data-name="Trazado 207220" d="M335.894,118.478c.037-.024.22.384-.068.967a1.566,1.566,0,0,1-.819.741,1.59,1.59,0,0,1-2.086-1.314,1.566,1.566,0,0,1,.314-1.059c.4-.511.848-.523.843-.479.026.06-.337.174-.608.637a1.383,1.383,0,0,0-.182.861,1.282,1.282,0,0,0,1.6,1.005,1.382,1.382,0,0,0,.7-.536C335.882,118.858,335.828,118.48,335.894,118.478Z" transform="translate(-332.916 -117.318)" fill="#e8505b"/>
                  </g>
                  <g id="Grupo_167212" data-name="Grupo 167212" transform="translate(7.659 34.268)">
                    <path id="Trazado_207221" data-name="Trazado 207221" d="M332.887,118.011c.044.02-.023.262-.357.425a.969.969,0,0,1-.639.063,1.023,1.023,0,0,1-.7-1.3.971.971,0,0,1,.4-.5c.32-.191.559-.114.552-.067s-.189.1-.38.291a.73.73,0,0,0,.674,1.246C332.7,118.114,332.84,117.975,332.887,118.011Z" transform="translate(-331.137 -116.577)" fill="#e8505b"/>
                  </g>
                </g>
                <g id="Grupo_167222" data-name="Grupo 167222" transform="translate(8.685 39.768)">
                  <path id="Trazado_207222" data-name="Trazado 207222" d="M344.4,201.125s19.024,1.1,30.27,1.207c8.71.08,12.592-2.234,14.334-7.83,1.461-4.7-1.68-13.71-1.68-13.71-5.89.03-9.525.841-13.315,2.618l1.01,4.12-30.674,2.645Z" transform="translate(-327.225 -136.95)" fill="#ffbe9d"/>
                  <g id="Grupo_167214" data-name="Grupo 167214" transform="translate(47.611 50.464)">
                    <path id="Trazado_207223" data-name="Trazado 207223" d="M390.6,193.923a11.094,11.094,0,0,0-6.574-4.482,2.712,2.712,0,0,1,1.22.106,8.14,8.14,0,0,1,4.809,3.279A2.727,2.727,0,0,1,390.6,193.923Z" transform="translate(-384.028 -189.41)" fill="#eb996e"/>
                  </g>
                  <g id="Grupo_167221" data-name="Grupo 167221">
                    <path id="Trazado_207224" data-name="Trazado 207224" d="M332.271,176.224h0a36.8,36.8,0,0,0-10.206,4.3l4.595,12.5c1.535,4.1,6.238,6.116,9.962,3.989,5.786-3.306,7.827-12.958,7.827-12.958l6.359-27.568-10.535-6.6-8,26.341" transform="translate(-322.065 -129.791)" fill="#ffbe9d"/>
                    <g id="Grupo_167220" data-name="Grupo 167220" transform="translate(8.411)">
                      <path id="Trazado_207225" data-name="Trazado 207225" d="M345.151,143.874l.426-9.066-2.353-9.183c-.131-.509-.194-1.143.217-1.453a1.117,1.117,0,0,1,1.42.045c.644.659,3.716,8.724,3.716,8.724s4.662-2.8,5.494-2.938,1.869,2.372,1.934,2.57a14.615,14.615,0,0,1,.008,1.685s2.883.086,3.141.482a9.9,9.9,0,0,1,.333,2.446s1.219.391,1.415,1.315.589,2.445.015,2.779-1.789,1-1.789,1-.489,4.7-.615,5.132a29.174,29.174,0,0,1-2.828,3.063Z" transform="translate(-335.353 -123.782)" fill="#ffbe9d"/>
                      <g id="Grupo_167215" data-name="Grupo 167215">
                        <path id="Trazado_207226" data-name="Trazado 207226" d="M333.011,191.143c.012-.025.287.164.883.357a6.011,6.011,0,0,0,2.716.215,7.577,7.577,0,0,0,3.933-1.813,18.231,18.231,0,0,0,3.656-4.629,20.775,20.775,0,0,0,1.424-3.175,32.524,32.524,0,0,0,.986-3.683c.6-2.589,1.253-5.377,1.943-8.34,1.387-5.927,2.938-12.554,4.607-19.691l.012-.053.04-.039c.529-.519,1.06-1.053,1.587-1.6.262-.275.525-.554.775-.841a5.387,5.387,0,0,0,.349-.434c.09-.092.093-.278.128-.474.208-1.538.37-3.128.541-4.729l.011-.1.09-.051,1.465-.821c.111-.066.276-.147.345-.2a.425.425,0,0,0,.138-.257,2.454,2.454,0,0,0,.009-.8,11.953,11.953,0,0,0-.341-1.67,2.056,2.056,0,0,0-1.223-.987l-.133-.049-.005-.134c-.019-.445-.049-.9-.1-1.359-.026-.227-.055-.457-.1-.675a1.319,1.319,0,0,0-.088-.285c-.024-.05-.013-.012-.048-.045a.765.765,0,0,0-.129-.055,13.563,13.563,0,0,0-2.814-.317l-.2-.01.006-.2c.015-.474.035-1,.013-1.5a1.579,1.579,0,0,0-.179-.515c-.082-.185-.171-.368-.264-.548a6.6,6.6,0,0,0-.629-1.015,1.7,1.7,0,0,0-.39-.383.374.374,0,0,0-.409-.047,9.961,9.961,0,0,0-1.083.5c-1.435.746-2.827,1.561-4.194,2.373l-.2.119-.085-.216q-1.09-2.729-2.151-5.387l-1.053-2.636a1.093,1.093,0,0,0-.844-.791.855.855,0,0,0-1,.367.894.894,0,0,0-.117.547c.022.171.107.43.157.64q.175.665.348,1.324.346,1.317.686,2.611l1.332,5.073.007.027,0,.028c-.153,3.155-.3,6.182-.439,9.066l0,.021-.006.02c-2.9,9.449-5.312,17.286-7,22.778-.848,2.722-1.515,4.862-1.975,6.341l-.532,1.663c-.123.375-.2.565-.2.565s.042-.2.149-.58l.484-1.677,1.889-6.367c1.655-5.5,4.017-13.354,6.865-22.82l-.007.04c.131-2.883.268-5.911.411-9.067l.005.054q-.657-2.483-1.343-5.069l-.692-2.61q-.174-.658-.35-1.322c-.055-.235-.124-.413-.168-.7a1.286,1.286,0,0,1,.166-.782,1.189,1.189,0,0,1,.622-.523,1.482,1.482,0,0,1,.795-.025,1.575,1.575,0,0,1,.7.359,1.554,1.554,0,0,1,.414.662q.523,1.308,1.056,2.636l2.157,5.386-.287-.1c1.373-.817,2.764-1.631,4.216-2.388a10.206,10.206,0,0,1,1.14-.52.872.872,0,0,1,.387-.055.838.838,0,0,1,.364.145,2.09,2.09,0,0,1,.486.47,6.969,6.969,0,0,1,.671,1.08c.1.187.187.375.273.567a1.882,1.882,0,0,1,.214.652c.023.545,0,1.057-.012,1.543l-.194-.207a13.55,13.55,0,0,1,2.934.34,1.1,1.1,0,0,1,.2.086.493.493,0,0,1,.2.2,1.624,1.624,0,0,1,.127.39c.052.243.081.479.108.715.051.471.081.931.1,1.388l-.138-.182a2.429,2.429,0,0,1,1.468,1.214,11.617,11.617,0,0,1,.368,1.779,2.8,2.8,0,0,1-.018.934.817.817,0,0,1-.279.475,4.079,4.079,0,0,1-.392.233l-1.472.823.1-.151c-.173,1.605-.336,3.186-.549,4.744l-.049.3a.767.767,0,0,1-.142.335,5.248,5.248,0,0,1-.379.472c-.258.294-.523.576-.788.852-.532.552-1.066,1.086-1.6,1.608l.052-.092-4.663,19.678-1.982,8.33a32.5,32.5,0,0,1-1.016,3.706,20.992,20.992,0,0,1-1.463,3.2,18.24,18.24,0,0,1-3.741,4.65,7.643,7.643,0,0,1-4.037,1.8,5.92,5.92,0,0,1-2.753-.278,4.062,4.062,0,0,1-.653-.3A1.352,1.352,0,0,1,333.011,191.143Z" transform="translate(-333.011 -123.734)" fill="#eb996e"/>
                      </g>
                      <g id="Grupo_167216" data-name="Grupo 167216" transform="translate(16.681 10.24)">
                        <path id="Trazado_207227" data-name="Trazado 207227" d="M358.7,137.282c0,.057-.26.085-.666.1a7.689,7.689,0,0,0-1.531.181,3.026,3.026,0,0,0-1.3.7c-.281.262-.4.485-.46.46s-.015-.294.249-.649a2.586,2.586,0,0,1,1.415-.9,4.466,4.466,0,0,1,1.642-.077C358.455,137.157,358.7,137.228,358.7,137.282Z" transform="translate(-354.72 -137.062)" fill="#eb996e"/>
                      </g>
                      <g id="Grupo_167217" data-name="Grupo 167217" transform="translate(18.323 9.619)">
                        <path id="Trazado_207228" data-name="Trazado 207228" d="M356.939,137.179c-.1-.039-.11-.277-.015-.53s.256-.429.36-.39.11.277.015.53S357.043,137.217,356.939,137.179Z" transform="translate(-356.857 -136.253)" fill="#eb996e"/>
                      </g>
                      <g id="Grupo_167218" data-name="Grupo 167218" transform="translate(20.381 13.214)">
                        <path id="Trazado_207229" data-name="Trazado 207229" d="M363.415,141.053a7.215,7.215,0,0,1-2.281.316,1.558,1.558,0,0,0-1.269.611c-.2.314-.135.575-.194.591-.037.035-.245-.259-.059-.718a1.255,1.255,0,0,1,.549-.61,2.436,2.436,0,0,1,.924-.27A6.489,6.489,0,0,1,363.415,141.053Z" transform="translate(-359.536 -140.932)" fill="#eb996e"/>
                      </g>
                      <g id="Grupo_167219" data-name="Grupo 167219" transform="translate(23.483 16.1)">
                        <path id="Trazado_207230" data-name="Trazado 207230" d="M363.837,144.687c.111,0,.174.572.143,1.269s-.146,1.256-.257,1.251-.174-.573-.143-1.269S363.727,144.682,363.837,144.687Z" transform="translate(-363.573 -144.687)" fill="#eb996e"/>
                      </g>
                    </g>
                  </g>
                </g>
                <g id="Grupo_167224" data-name="Grupo 167224" transform="translate(44.037 72.144)">
                  <path id="Trazado_207231" data-name="Trazado 207231" d="M368.074,170.289l.683-2.356a.643.643,0,0,1,1.077-.271l.891.91.557-2.215a.643.643,0,0,1,1.2-.121l1.258,2.623Z" transform="translate(-368.074 -165.869)" fill="#fff"/>
                  <g id="Grupo_167223" data-name="Grupo 167223" transform="translate(0.159 3.97)">
                    <path id="Trazado_207232" data-name="Trazado 207232" d="M373.8,171.063a20.314,20.314,0,0,1-5.524,1.368,20.316,20.316,0,0,1,5.524-1.368Z" transform="translate(-368.28 -171.036)" fill="#fff"/>
                  </g>
                </g>
                <g id="Grupo_167225" data-name="Grupo 167225" transform="translate(1.967 63.006)">
                  <path id="Trazado_207233" data-name="Trazado 207233" d="M315.381,153.977c.018.015-.286.3-.683.913a7.812,7.812,0,0,0-1.042,2.9,20.964,20.964,0,0,0-.138,4.6c.085,1.74.225,3.649.438,5.647a99.086,99.086,0,0,0,1.621,10.158c.274,1.289.519,2.326.69,3.043l.2.825c.044.189.058.29.058.29s-.035-.1-.089-.282c-.065-.234-.14-.5-.227-.818-.189-.712-.452-1.747-.739-3.034a90,90,0,0,1-1.67-10.166c-.213-2-.35-3.915-.426-5.657a20.525,20.525,0,0,1,.174-4.63,7.641,7.641,0,0,1,1.1-2.916A4.629,4.629,0,0,1,315.381,153.977Z" transform="translate(-313.322 -153.977)" fill="#fff"/>
                </g>
                <g id="Grupo_167226" data-name="Grupo 167226" transform="translate(4.026 52.559)">
                  <path id="Trazado_207234" data-name="Trazado 207234" d="M332.172,140.382a.974.974,0,0,1-.173.094l-.507.242c-.44.21-1.074.519-1.837.941a66.231,66.231,0,0,0-5.774,3.608c-2.194,1.508-4.139,2.934-5.559,3.949l-1.687,1.194-.465.317a.931.931,0,0,1-.168.1.907.907,0,0,1,.149-.128l.447-.341,1.657-1.236c1.4-1.038,3.339-2.479,5.535-3.989a57.709,57.709,0,0,1,5.811-3.576c.771-.41,1.415-.7,1.865-.9l.52-.214A.846.846,0,0,1,332.172,140.382Z" transform="translate(-316.002 -140.381)" fill="#fff"/>
                </g>
                <g id="Grupo_167227" data-name="Grupo 167227" transform="translate(42.588 51.315)">
                  <path id="Trazado_207235" data-name="Trazado 207235" d="M380.441,145.005a.627.627,0,0,1-.128-.1l-.346-.3a13.754,13.754,0,0,0-1.346-1,27.346,27.346,0,0,0-4.939-2.5,50.177,50.177,0,0,0-5.267-1.753c-.685-.19-1.243-.33-1.629-.425l-.444-.113a.605.605,0,0,1-.153-.051.621.621,0,0,1,.16.019l.451.084c.39.077.954.2,1.644.377a42.66,42.66,0,0,1,5.3,1.713,25.061,25.061,0,0,1,4.944,2.555A9.759,9.759,0,0,1,380.441,145.005Z" transform="translate(-366.188 -138.762)" fill="#fff"/>
                </g>
                <g id="Grupo_167228" data-name="Grupo 167228" transform="translate(17.573 109.648)">
                  <path id="Trazado_207236" data-name="Trazado 207236" d="M336.473,221.241a1.087,1.087,0,0,1-.3-.1,5.072,5.072,0,0,1-.762-.407,3.708,3.708,0,0,1-1.671-2.263,4.43,4.43,0,0,1,.3-2.812,3.878,3.878,0,0,1,.445-.743,1.049,1.049,0,0,1,.214-.234,8.972,8.972,0,0,0-.555,1.022,4.551,4.551,0,0,0-.245,2.731,3.74,3.74,0,0,0,1.579,2.205C336.064,221.047,336.486,221.213,336.473,221.241Z" transform="translate(-333.633 -214.679)" fill="#fff"/>
                </g>
                <g id="Grupo_167229" data-name="Grupo 167229" transform="translate(17.957 107.891)">
                  <path id="Trazado_207237" data-name="Trazado 207237" d="M334.143,212.392a6.655,6.655,0,0,1,.578,1.975,6.653,6.653,0,0,1-.578-1.975Z" transform="translate(-334.133 -212.392)" fill="#fff"/>
                </g>
                <g id="Grupo_167283" data-name="Grupo 167283" transform="translate(9.271 116.198)">
                  <g id="Grupo_167230" data-name="Grupo 167230">
                    <path id="Trazado_207238" data-name="Trazado 207238" d="M341.913,387.173l23.439-.118-.425-81.032-.218-82.426-31.744-.394-5.706,10.759a38.633,38.633,0,0,0-4.391,13.944c-.4,3.724,2.391,15.867,3.366,18.958l8.738,27.709Z" transform="translate(-322.829 -223.203)" fill="#263238"/>
                    <path id="Trazado_207239" data-name="Trazado 207239" d="M379.008,223.833l25.753,70.208a32.386,32.386,0,0,1-3.175,27.431l-29.9,58.363L354.873,358.8l25.019-52.283-22.056-35.733,3.711-46.878,10.389-.168Z" transform="translate(-330.251 -223.327)" fill="#263238"/>
                  </g>
                  <g id="Grupo_167231" data-name="Grupo 167231" transform="translate(39.734 24.026)">
                    <path id="Trazado_207240" data-name="Trazado 207240" d="M374.545,254.471s.019.122.036.36c.016.255.038.606.067,1.058.051.949.124,2.318.217,4.07.172,3.554.419,8.664.724,14.973.291,6.328.638,13.854,1.023,22.209.187,4.18.385,8.568.59,13.116.146,2.273.079,4.591.106,6.942q.01,3.527.022,7.151c.032,19.311.062,36.79.083,49.463-.008,6.315-.015,11.431-.021,14.989-.011,1.755-.02,3.125-.026,4.076-.007.452-.012.8-.016,1.06-.006.239-.02.361-.02.361s-.014-.122-.022-.361l-.022-1.06c-.012-.951-.028-2.32-.049-4.075-.025-3.558-.062-8.673-.107-14.987-.052-12.671-.122-30.149-.2-49.457q-.01-3.621-.02-7.15c-.025-2.35.043-4.669-.1-6.942-.2-4.547-.386-8.934-.566-13.114-.352-8.355-.669-15.882-.937-22.209-.251-6.309-.455-11.421-.6-14.977-.061-1.754-.109-3.123-.142-4.073-.012-.452-.021-.8-.027-1.06C374.537,254.594,374.545,254.471,374.545,254.471Z" transform="translate(-374.54 -254.471)" fill="#455a64"/>
                  </g>
                  <g id="Grupo_167232" data-name="Grupo 167232" transform="translate(39.134 1.891)">
                    <path id="Trazado_207241" data-name="Trazado 207241" d="M373.777,225.664a2.919,2.919,0,0,1,.162.763c.08.494.175,1.212.277,2.1.206,1.777.421,4.241.546,6.969s.129,5.2.085,6.992c-.022.894-.052,1.618-.087,2.117a2.914,2.914,0,0,1-.094.775,23.842,23.842,0,0,1-.1-2.892c-.029-1.786-.08-4.251-.2-6.972s-.294-5.18-.426-6.962A23.771,23.771,0,0,1,373.777,225.664Z" transform="translate(-373.759 -225.664)" fill="#455a64"/>
                  </g>
                  <g id="Grupo_167233" data-name="Grupo 167233" transform="translate(33.138 3.27)">
                    <path id="Trazado_207242" data-name="Trazado 207242" d="M366.8,227.661a1.884,1.884,0,0,0-.519.876,1,1,0,0,0,.3.937,1.023,1.023,0,0,0,1.746-.8,1,1,0,0,0-.515-.838,1.869,1.869,0,0,0-1-.178c-.01-.021.074-.1.273-.16a1.312,1.312,0,0,1,1.613,1.156,1.375,1.375,0,0,1-2.37,1.085,1.312,1.312,0,0,1,.178-1.976C366.68,227.65,366.8,227.639,366.8,227.661Z" transform="translate(-365.956 -227.459)" fill="#455a64"/>
                  </g>
                  <g id="Grupo_167234" data-name="Grupo 167234" transform="translate(9.387 2.081)">
                    <path id="Trazado_207243" data-name="Trazado 207243" d="M347.349,225.911a2.3,2.3,0,0,1,.211.735,7.285,7.285,0,0,1,.068,2.088,8.41,8.41,0,0,1-.887,2.977,7.881,7.881,0,0,1-6,4.311,8.419,8.419,0,0,1-3.1-.112,7.291,7.291,0,0,1-1.957-.732,2.287,2.287,0,0,1-.629-.435,13.243,13.243,0,0,0,2.642.89,8.067,8.067,0,0,0,9.659-6.933A13.339,13.339,0,0,0,347.349,225.911Z" transform="translate(-335.045 -225.911)" fill="#455a64"/>
                  </g>
                  <g id="Grupo_167235" data-name="Grupo 167235" transform="translate(45.61 2.015)">
                    <path id="Trazado_207244" data-name="Trazado 207244" d="M388.417,232.618a3.11,3.11,0,0,1-1.476-.174,6.859,6.859,0,0,1-4.658-5.132,3.11,3.11,0,0,1-.031-1.486c.071,0,.075.565.307,1.422a7.426,7.426,0,0,0,4.473,4.928C387.862,232.488,388.425,232.547,388.417,232.618Z" transform="translate(-382.187 -225.825)" fill="#455a64"/>
                  </g>
                  <g id="Grupo_167236" data-name="Grupo 167236" transform="translate(51.342 82.188)">
                    <path id="Trazado_207245" data-name="Trazado 207245" d="M399.3,332.475a4.868,4.868,0,0,1-1.359,1.08,6.279,6.279,0,0,1-1.748.764,4.214,4.214,0,0,1-2.359-.062,6.864,6.864,0,0,1-3.283-2.612,6.09,6.09,0,0,1-.9-1.478,9.465,9.465,0,0,1,1.123,1.3,7.283,7.283,0,0,0,3.182,2.406,4.927,4.927,0,0,0,3.846-.566A15.887,15.887,0,0,1,399.3,332.475Z" transform="translate(-389.647 -330.165)" fill="#455a64"/>
                  </g>
                  <g id="Grupo_167237" data-name="Grupo 167237" transform="translate(50.597 82.618)">
                    <path id="Trazado_207246" data-name="Trazado 207246" d="M393.208,337.089a38.106,38.106,0,0,1-4.525-6.363,38.184,38.184,0,0,1,4.525,6.363Z" transform="translate(-388.677 -330.724)" fill="#455a64"/>
                  </g>
                  <g id="Grupo_167238" data-name="Grupo 167238" transform="translate(14.86 24.623)">
                    <path id="Trazado_207247" data-name="Trazado 207247" d="M343.057,257.377c-.1.041-.376-.4-.611-.988s-.342-1.1-.239-1.137.376.4.611.988S343.16,257.336,343.057,257.377Z" transform="translate(-342.168 -255.249)" fill="#fafafa"/>
                  </g>
                  <g id="Grupo_167239" data-name="Grupo 167239" transform="translate(30.427 27.176)">
                    <path id="Trazado_207248" data-name="Trazado 207248" d="M362.628,260.271c-.111,0-.2-.38-.2-.85s.09-.851.2-.851.2.381.2.851S362.738,260.271,362.628,260.271Z" transform="translate(-362.427 -258.571)" fill="#fafafa"/>
                  </g>
                  <g id="Grupo_167240" data-name="Grupo 167240" transform="translate(24.229 34.829)">
                    <path id="Trazado_207249" data-name="Trazado 207249" d="M354.645,270.656c-.11.008-.232-.462-.272-1.049s.018-1.069.128-1.077.232.463.272,1.05S354.756,270.649,354.645,270.656Z" transform="translate(-354.361 -268.531)" fill="#fafafa"/>
                  </g>
                  <g id="Grupo_167241" data-name="Grupo 167241" transform="translate(11.78 41.726)">
                    <path id="Trazado_207250" data-name="Trazado 207250" d="M339.719,278.685c-.091.068-.408-.215-.82-.511s-.775-.515-.738-.622.509-.042.974.3S339.809,278.624,339.719,278.685Z" transform="translate(-338.159 -277.506)" fill="#fafafa"/>
                  </g>
                  <g id="Grupo_167242" data-name="Grupo 167242" transform="translate(33.005 49.129)">
                    <path id="Trazado_207251" data-name="Trazado 207251" d="M365.813,288.427c-.092-.061.024-.4.258-.748s.5-.588.592-.527-.024.4-.259.749S365.9,288.488,365.813,288.427Z" transform="translate(-365.782 -287.142)" fill="#fafafa"/>
                  </g>
                  <g id="Grupo_167243" data-name="Grupo 167243" transform="translate(20.65 49.706)">
                    <path id="Trazado_207252" data-name="Trazado 207252" d="M349.9,290.726c-.111,0-.2-.635-.2-1.417s.09-1.417.2-1.417.2.634.2,1.417S350.014,290.726,349.9,290.726Z" transform="translate(-349.703 -287.892)" fill="#fafafa"/>
                  </g>
                  <g id="Grupo_167244" data-name="Grupo 167244" transform="translate(15.332 60.004)">
                    <path id="Trazado_207253" data-name="Trazado 207253" d="M344.35,302.449c-.065.09-.466-.091-.9-.4s-.727-.639-.662-.728.466.091.9.4S344.416,302.36,344.35,302.449Z" transform="translate(-342.782 -301.293)" fill="#fafafa"/>
                  </g>
                  <g id="Grupo_167245" data-name="Grupo 167245" transform="translate(27.93 64.105)">
                    <path id="Trazado_207254" data-name="Trazado 207254" d="M360.458,306.685c.045.1-.2.31-.556.466s-.675.2-.719.1.2-.31.556-.466S360.413,306.584,360.458,306.685Z" transform="translate(-359.177 -306.631)" fill="#fafafa"/>
                  </g>
                  <g id="Grupo_167246" data-name="Grupo 167246" transform="translate(19.411 75.35)">
                    <path id="Trazado_207255" data-name="Trazado 207255" d="M349.53,324.1c-.1.049-.5-.546-.887-1.328s-.629-1.457-.529-1.507.5.545.887,1.328S349.628,324.053,349.53,324.1Z" transform="translate(-348.091 -321.265)" fill="#fafafa"/>
                  </g>
                  <g id="Grupo_167247" data-name="Grupo 167247" transform="translate(34.426 74.782)">
                    <path id="Trazado_207256" data-name="Trazado 207256" d="M367.659,322.656c-.1-.052.077-.57.39-1.157s.645-1.02.743-.968-.078.569-.39,1.156S367.756,322.708,367.659,322.656Z" transform="translate(-367.632 -320.526)" fill="#fafafa"/>
                  </g>
                  <g id="Grupo_167248" data-name="Grupo 167248" transform="translate(28.048 86.118)">
                    <path id="Trazado_207257" data-name="Trazado 207257" d="M359.785,337.975c-.114-.017-.1-.623-.223-1.345s-.305-1.3-.2-1.348.476.493.6,1.286S359.889,338,359.785,337.975Z" transform="translate(-359.331 -335.279)" fill="#fafafa"/>
                  </g>
                  <g id="Grupo_167249" data-name="Grupo 167249" transform="translate(20.693 94.045)">
                    <path id="Trazado_207258" data-name="Trazado 207258" d="M351.191,347.166c-.081.075-.465-.214-.856-.645s-.642-.839-.561-.914.466.214.857.645S351.273,347.092,351.191,347.166Z" transform="translate(-349.759 -345.596)" fill="#fafafa"/>
                  </g>
                  <g id="Grupo_167250" data-name="Grupo 167250" transform="translate(37.588 96.613)">
                    <path id="Trazado_207259" data-name="Trazado 207259" d="M371.76,350.521c-.078-.077.2-.492.631-.925s.838-.722.916-.645-.2.492-.631.925S371.838,350.6,371.76,350.521Z" transform="translate(-371.747 -348.939)" fill="#fafafa"/>
                  </g>
                  <g id="Grupo_167251" data-name="Grupo 167251" transform="translate(28.617 105.82)">
                    <path id="Trazado_207260" data-name="Trazado 207260" d="M360.155,363.477c-.109-.016-.111-.6,0-1.308s.283-1.265.392-1.248.111.6,0,1.308S360.264,363.493,360.155,363.477Z" transform="translate(-360.072 -360.921)" fill="#fafafa"/>
                  </g>
                  <g id="Grupo_167252" data-name="Grupo 167252" transform="translate(21.531 111.339)">
                    <path id="Trazado_207261" data-name="Trazado 207261" d="M352.029,370.08c-.1.056-.431-.34-.75-.884s-.5-1.031-.4-1.087.431.34.75.885S352.125,370.025,352.029,370.08Z" transform="translate(-350.85 -368.103)" fill="#fafafa"/>
                  </g>
                  <g id="Grupo_167253" data-name="Grupo 167253" transform="translate(35.15 119.535)">
                    <path id="Trazado_207262" data-name="Trazado 207262" d="M370.563,378.787c.064.09-.327.48-.875.872s-1.043.637-1.107.547.327-.48.874-.872S370.5,378.7,370.563,378.787Z" transform="translate(-368.574 -378.769)" fill="#fafafa"/>
                  </g>
                  <g id="Grupo_167254" data-name="Grupo 167254" transform="translate(25.082 124.805)">
                    <path id="Trazado_207263" data-name="Trazado 207263" d="M355.511,388.468c-.108-.038.03-.658.094-1.422s.045-1.4.157-1.417.317.628.242,1.452S355.61,388.509,355.511,388.468Z" transform="translate(-355.471 -385.628)" fill="#fafafa"/>
                  </g>
                  <g id="Grupo_167255" data-name="Grupo 167255" transform="translate(28.764 137.829)">
                    <path id="Trazado_207264" data-name="Trazado 207264" d="M361.418,404.006c-.087.069-.41-.192-.723-.583s-.5-.765-.411-.834.41.193.723.584S361.5,403.937,361.418,404.006Z" transform="translate(-360.262 -402.578)" fill="#fafafa"/>
                  </g>
                  <g id="Grupo_167256" data-name="Grupo 167256" transform="translate(23.1 144.777)">
                    <path id="Trazado_207265" data-name="Trazado 207265" d="M354.468,413.894c-.091.062-.514-.394-.944-1.02s-.705-1.184-.615-1.247.514.394.944,1.02S354.559,413.831,354.468,413.894Z" transform="translate(-352.891 -411.621)" fill="#fafafa"/>
                  </g>
                  <g id="Grupo_167257" data-name="Grupo 167257" transform="translate(39.058 136.136)">
                    <path id="Trazado_207266" data-name="Trazado 207266" d="M373.731,401.512c-.1-.039-.092-.324.025-.637s.3-.536.4-.5.092.323-.025.637S373.834,401.55,373.731,401.512Z" transform="translate(-373.66 -400.374)" fill="#fafafa"/>
                  </g>
                  <g id="Grupo_167258" data-name="Grupo 167258" transform="translate(32.724 153.285)">
                    <path id="Trazado_207267" data-name="Trazado 207267" d="M365.445,425.243c-.1-.053.091-.6.24-1.285s.212-1.26.326-1.266.232.609.065,1.352S365.538,425.3,365.445,425.243Z" transform="translate(-365.417 -422.693)" fill="#fafafa"/>
                  </g>
                  <g id="Grupo_167259" data-name="Grupo 167259" transform="translate(36.128 35.524)">
                    <path id="Trazado_207268" data-name="Trazado 207268" d="M370.615,270.99c-.1.047-.344-.263-.544-.691s-.282-.813-.182-.86.344.262.544.69S370.715,270.943,370.615,270.99Z" transform="translate(-369.846 -269.435)" fill="#fafafa"/>
                  </g>
                  <g id="Grupo_167260" data-name="Grupo 167260" transform="translate(24.09 13.132)">
                    <path id="Trazado_207269" data-name="Trazado 207269" d="M356.325,240.31c.061.1-.48.53-1.051,1.144s-.973,1.177-1.074,1.123.164-.741.782-1.4S356.272,240.218,356.325,240.31Z" transform="translate(-354.18 -240.294)" fill="#fafafa"/>
                  </g>
                  <g id="Grupo_167261" data-name="Grupo 167261" transform="translate(34.72 10.872)">
                    <path id="Trazado_207270" data-name="Trazado 207270" d="M369.022,239.345c-.111.023-.292-.433-.559-.961s-.518-.947-.433-1.023.5.261.791.844S369.128,239.327,369.022,239.345Z" transform="translate(-368.014 -237.352)" fill="#fafafa"/>
                  </g>
                  <g id="Grupo_167262" data-name="Grupo 167262" transform="translate(6.111 18.542)">
                    <path id="Trazado_207271" data-name="Trazado 207271" d="M330.821,249.465c-.1-.04,0-.55.234-1.138s.5-1.031.607-.99,0,.55-.235,1.138S330.923,249.505,330.821,249.465Z" transform="translate(-330.782 -247.334)" fill="#fafafa"/>
                  </g>
                  <g id="Grupo_167263" data-name="Grupo 167263" transform="translate(5.395 30.844)">
                    <path id="Trazado_207272" data-name="Trazado 207272" d="M331.56,264.778c-.071.085-.509-.164-.978-.555s-.793-.778-.722-.862.509.164.979.555S331.631,264.693,331.56,264.778Z" transform="translate(-329.85 -263.344)" fill="#fafafa"/>
                  </g>
                  <g id="Grupo_167264" data-name="Grupo 167264" transform="translate(25.896 2.518)">
                    <path id="Trazado_207273" data-name="Trazado 207273" d="M357.152,227.9c-.1.041-.313-.243-.469-.634s-.2-.742-.1-.783.313.243.469.634S357.255,227.859,357.152,227.9Z" transform="translate(-356.53 -226.48)" fill="#fafafa"/>
                  </g>
                  <g id="Grupo_167265" data-name="Grupo 167265" transform="translate(45.029 7.629)">
                    <path id="Trazado_207274" data-name="Trazado 207274" d="M381.506,235.114c-.108-.024-.1-.486.022-1.033s.3-.972.412-.948.1.486-.021,1.033S381.614,235.138,381.506,235.114Z" transform="translate(-381.431 -233.132)" fill="#fafafa"/>
                  </g>
                  <g id="Grupo_167266" data-name="Grupo 167266" transform="translate(49.439 15.98)">
                    <path id="Trazado_207275" data-name="Trazado 207275" d="M387.2,246.411c-.1-.042.037-.616.31-1.28s.579-1.17.682-1.129-.038.615-.311,1.281S387.306,246.453,387.2,246.411Z" transform="translate(-387.17 -244)" fill="#fafafa"/>
                  </g>
                  <g id="Grupo_167267" data-name="Grupo 167267" transform="translate(45.055 22.922)">
                    <path id="Trazado_207276" data-name="Trazado 207276" d="M382.765,255.589c-.1.049-.465-.482-.817-1.186s-.557-1.315-.459-1.365.465.482.817,1.186S382.863,255.539,382.765,255.589Z" transform="translate(-381.465 -253.035)" fill="#fafafa"/>
                  </g>
                  <g id="Grupo_167268" data-name="Grupo 167268" transform="translate(52.969 30.716)">
                    <path id="Trazado_207277" data-name="Trazado 207277" d="M391.81,265.023c-.1-.04-.028-.484.167-.993s.438-.889.541-.849.028.483-.167.993S391.913,265.062,391.81,265.023Z" transform="translate(-391.764 -263.178)" fill="#fafafa"/>
                  </g>
                  <g id="Grupo_167269" data-name="Grupo 167269" transform="translate(46.317 38.36)">
                    <path id="Trazado_207278" data-name="Trazado 207278" d="M383.854,274.27c-.094.058-.328-.148-.524-.461s-.278-.614-.184-.673.328.148.524.461S383.948,274.212,383.854,274.27Z" transform="translate(-383.107 -273.126)" fill="#fafafa"/>
                  </g>
                  <g id="Grupo_167270" data-name="Grupo 167270" transform="translate(46.48 51.827)">
                    <path id="Trazado_207279" data-name="Trazado 207279" d="M385.173,292.645c-.081.075-.559-.308-1.068-.856s-.855-1.053-.775-1.128.559.308,1.068.856S385.254,292.57,385.173,292.645Z" transform="translate(-383.319 -290.652)" fill="#fafafa"/>
                  </g>
                  <g id="Grupo_167271" data-name="Grupo 167271" transform="translate(54.558 43.605)">
                    <path id="Trazado_207280" data-name="Trazado 207280" d="M395.406,281.944c-.087.068-.506-.32-.937-.868s-.709-1.047-.622-1.116.506.32.937.869S395.493,281.875,395.406,281.944Z" transform="translate(-393.831 -279.952)" fill="#fafafa"/>
                  </g>
                  <g id="Grupo_167272" data-name="Grupo 167272" transform="translate(60.383 54.537)">
                    <path id="Trazado_207281" data-name="Trazado 207281" d="M401.44,296.588c-.1-.048.075-.625.39-1.289s.651-1.165.751-1.117-.075.624-.39,1.289S401.54,296.635,401.44,296.588Z" transform="translate(-401.412 -294.179)" fill="#fafafa"/>
                  </g>
                  <g id="Grupo_167273" data-name="Grupo 167273" transform="translate(49.469 64.559)">
                    <path id="Trazado_207282" data-name="Trazado 207282" d="M389.055,308.947c-.1.059-.454-.367-.949-.82s-.944-.778-.893-.88.625.086,1.164.586S389.148,308.9,389.055,308.947Z" transform="translate(-387.209 -307.222)" fill="#fafafa"/>
                  </g>
                  <g id="Grupo_167274" data-name="Grupo 167274" transform="translate(50.181 75.72)">
                    <path id="Trazado_207283" data-name="Trazado 207283" d="M389.836,321.947c0,.111-.381.2-.851.2s-.85-.089-.85-.2.38-.2.85-.2S389.836,321.836,389.836,321.947Z" transform="translate(-388.136 -321.747)" fill="#fafafa"/>
                  </g>
                  <g id="Grupo_167275" data-name="Grupo 167275" transform="translate(61.207 70.96)">
                    <path id="Trazado_207284" data-name="Trazado 207284" d="M402.511,317.82c-.1-.06.1-.539.248-1.143s.205-1.117.319-1.124.239.549.069,1.222S402.6,317.88,402.511,317.82Z" transform="translate(-402.486 -315.553)" fill="#fafafa"/>
                  </g>
                  <g id="Grupo_167276" data-name="Grupo 167276" transform="translate(69.596 73.92)">
                    <path id="Trazado_207285" data-name="Trazado 207285" d="M414.331,321.943c-.1.036-.388-.5-.634-1.2s-.36-1.3-.256-1.334.388.5.634,1.2S414.436,321.906,414.331,321.943Z" transform="translate(-413.403 -319.405)" fill="#fafafa"/>
                  </g>
                  <g id="Grupo_167277" data-name="Grupo 167277" transform="translate(69.022 86.975)">
                    <path id="Trazado_207286" data-name="Trazado 207286" d="M412.678,339.093c-.1-.051.138-.7.529-1.44s.785-1.305.884-1.255-.139.7-.529,1.441S412.776,339.144,412.678,339.093Z" transform="translate(-412.656 -336.395)" fill="#fafafa"/>
                  </g>
                  <g id="Grupo_167278" data-name="Grupo 167278" transform="translate(59.493 94.907)">
                    <path id="Trazado_207287" data-name="Trazado 207287" d="M401.326,349.251c-.1.042-.417-.49-.7-1.189s-.437-1.3-.334-1.342.417.491.7,1.19S401.428,349.21,401.326,349.251Z" transform="translate(-400.255 -346.718)" fill="#fafafa"/>
                  </g>
                  <g id="Grupo_167279" data-name="Grupo 167279" transform="translate(49.756 100.233)">
                    <path id="Trazado_207288" data-name="Trazado 207288" d="M389,353.849c0,.111-.317.2-.708.2s-.708-.09-.708-.2.317-.2.708-.2S389,353.738,389,353.849Z" transform="translate(-387.583 -353.649)" fill="#fafafa"/>
                  </g>
                  <g id="Grupo_167280" data-name="Grupo 167280" transform="translate(55.931 110.633)">
                    <path id="Trazado_207289" data-name="Trazado 207289" d="M396.245,369.311c-.107.029-.32-.424-.476-1.01s-.2-1.086-.091-1.115.32.424.477,1.012S396.352,369.283,396.245,369.311Z" transform="translate(-395.618 -367.184)" fill="#fafafa"/>
                  </g>
                  <g id="Grupo_167281" data-name="Grupo 167281" transform="translate(49.723 107.227)">
                    <path id="Trazado_207290" data-name="Trazado 207290" d="M387.573,364.176c-.1-.057.018-.42.253-.811s.5-.662.6-.605-.018.419-.254.811S387.667,364.232,387.573,364.176Z" transform="translate(-387.539 -362.751)" fill="#fafafa"/>
                  </g>
                  <g id="Grupo_167282" data-name="Grupo 167282" transform="translate(49.229 119.845)">
                    <path id="Trazado_207291" data-name="Trazado 207291" d="M387.282,381.582c-.11.013-.262-.516-.34-1.181s-.052-1.215.057-1.228.262.516.34,1.181S387.392,381.569,387.282,381.582Z" transform="translate(-386.896 -379.173)" fill="#fafafa"/>
                  </g>
                </g>
              </g>
            </g>
          </g>
        </g>
      </g>
    </g>
  </g>
</svg>
