<svg xmlns="http://www.w3.org/2000/svg" width="531" height="322" viewBox="0 0 531 322">
  <g id="Grupo_222354" data-name="Grupo 222354" transform="translate(6608 9612)">
    <g id="Grupo_222353" data-name="Grupo 222353">
      <g id="Grupo_222352" data-name="Grupo 222352">
        <g id="Grupo_222276" data-name="Grupo 222276">
          <rect id="Rectángulo_295901" data-name="Rectángulo 295901" width="531" height="322" transform="translate(-6608 -9612)" fill="none"/>
          <g id="_Online_Conversation" transform="translate(-6572.03 -9662.26)">
            <g id="Grupo_141155" data-name="Grupo 141155" transform="translate(43.03 57.26)">
              <rect id="Rectángulo_44094" data-name="Rectángulo 44094" width="148.966" height="297.472" rx="22.56" transform="translate(61.915)" fill="#0f2771"/>
              <rect id="Rectángulo_44095" data-name="Rectángulo 44095" width="148.966" height="297.472" rx="22.56" transform="translate(74.923)" fill="#727997"/>
              <rect id="Rectángulo_44096" data-name="Rectángulo 44096" width="38.4" height="4.779" rx="2.389" transform="translate(130.251 11.475)" fill="#38297a"/>
              <rect id="Rectángulo_44097" data-name="Rectángulo 44097" width="9.186" height="4.779" rx="2.389" transform="translate(114.286 11.475)" fill="#38297a"/>
              <rect id="Rectángulo_44098" data-name="Rectángulo 44098" width="30.947" height="16.178" rx="8.089" transform="translate(134.101 271.427)" fill="#0f2771"/>
              <rect id="Rectángulo_44099" data-name="Rectángulo 44099" width="26.567" height="11.792" rx="5.896" transform="translate(136.295 273.621)" fill="#f6f6f6"/>
              <rect id="Rectángulo_44100" data-name="Rectángulo 44100" width="135.366" height="237.132" rx="14.1" transform="translate(81.723 24.429)" fill="#fff"/>
              <path id="Trazado_192325" data-name="Trazado 192325" d="M141.561,116.85h.021a2.111,2.111,0,0,1,2.111,2.111v23.748a2.111,2.111,0,0,1-2.111,2.111h-.021a2.111,2.111,0,0,1-2.111-2.111V118.961a2.111,2.111,0,0,1,2.111-2.111Z" transform="translate(-73.156 -75.878)" fill="#20154f"/>
              <path id="Trazado_192326" data-name="Trazado 192326" d="M141.561,181.69h.021a2.111,2.111,0,0,1,2.111,2.111v23.748a2.111,2.111,0,0,1-2.111,2.111h-.021a2.111,2.111,0,0,1-2.111-2.111V183.8A2.111,2.111,0,0,1,141.561,181.69Z" transform="translate(-73.156 -96.137)" fill="#20154f"/>
              <circle id="Elipse_4929" data-name="Elipse 4929" cx="42.491" cy="42.491" r="42.491" transform="translate(106.915 87.389)" fill="#ebf2ff"/>
              <g id="Grupo_141150" data-name="Grupo 141150" transform="translate(114.994 94.631)">
                <g id="Grupo_141149" data-name="Grupo 141149">
                  <g id="Grupo_141148" data-name="Grupo 141148">
                    <path id="Trazado_192327" data-name="Trazado 192327" d="M259.94,262.724c-10.575,1.038-12.85-14.308-12.85-14.308a41.363,41.363,0,0,0,.7-5.562,37.791,37.791,0,0,0-.055-5.054l16.006,5.432a7.528,7.528,0,0,0,1.767,5.191c.715,1.018,1.107,1.547,1.107,1.547s3.892,11.723-6.683,12.761Z" transform="translate(-221.781 -208.299)" fill="#f4a998"/>
                    <g id="Grupo_141144" data-name="Grupo 141144" transform="translate(0 40.117)">
                      <path id="Trazado_192328" data-name="Trazado 192328" d="M279.991,273.481a42.5,42.5,0,0,1-69.65,1.361.86.86,0,0,1-.062-.082l.158-.385a21.55,21.55,0,0,1,5.672-8.189c.082-.076.158-.144.22-.206a2.223,2.223,0,0,0,.179-.172l.241-.22a19.478,19.478,0,0,1,5.562-3.273c.468-.172.942-.337,1.423-.481l5.48-1.685,7.144-2.193.241-.076c1.623,4.565,4.263,7.962,8.189,9.853h.014l.014.014a23.152,23.152,0,0,0,8.216-9.866l2.64.8,4.682,1.444L273,264.02l7,9.454Z" transform="translate(-210.28 -254.69)" fill="#bddcf6"/>
                      <g id="Grupo_141143" data-name="Grupo 141143" transform="translate(18.935)">
                        <path id="Trazado_192329" data-name="Trazado 192329" d="M260.487,266.29l9.674,4.187,5.872-11.792-6.339-5.445a45.563,45.563,0,0,1-9.213,13.05Z" transform="translate(-244.9 -253.24)" fill="#46a6fc"/>
                        <path id="Trazado_192330" data-name="Trazado 192330" d="M253.407,266.293l-9.674,4.187-5.913-11.771,6.381-5.459a29.95,29.95,0,0,0,9.213,13.05Z" transform="translate(-237.82 -253.243)" fill="#46a6fc"/>
                      </g>
                    </g>
                    <g id="Grupo_141145" data-name="Grupo 141145" transform="translate(17.436)">
                      <path id="Trazado_192331" data-name="Trazado 192331" d="M268.08,210.262s-9.131-4.95-12.479-5.521c-5.652-.928-12.025,13.71-14.741,15.951-.014.021-.041.027-.048.048-2.929,2.51.488,6.738.488,6.738s9.255,18.461,20.077,9.021c5.934-5.15,6.463-20.778,6.5-23.913,0-.358.206-2.317.206-2.317Z" transform="translate(-236.884 -197.957)" fill="#f2c3b3"/>
                      <path id="Trazado_192332" data-name="Trazado 192332" d="M267.941,202.152c-1.96.426-4.93.227-7.811-3.5-5.507-7.13-10.224-1.925-10.224-1.925s-11.159-5.1-13.8,9.1a22.159,22.159,0,0,0,2.42,15.566h0a3.5,3.5,0,0,1,1.636-3.163c4.744-3.507,6.023,5.831,6.023,5.831s3.562-3.452,3.19-12.514c0,0,15.388,4.173,20.29-6.546.674-1.471-.3-3.149-1.719-2.833Z" transform="translate(-235.639 -194.894)" fill="#20154f"/>
                    </g>
                    <g id="Grupo_141147" data-name="Grupo 141147" transform="translate(32.836 17.199)">
                      <g id="Grupo_141146" data-name="Grupo 141146" transform="translate(1.571 4.058)">
                        <ellipse id="Elipse_4930" data-name="Elipse 4930" cx="1.004" cy="1.664" rx="1.004" ry="1.664" transform="translate(9.81 0.01) rotate(-0.28)" fill="#20154f"/>
                        <ellipse id="Elipse_4931" data-name="Elipse 4931" cx="1.004" cy="1.664" rx="1.004" ry="1.664" transform="translate(0 0.202) rotate(-0.28)" fill="#20154f"/>
                      </g>
                      <path id="Trazado_192333" data-name="Trazado 192333" d="M273.121,221.175a.434.434,0,0,1,.1-.612,3.388,3.388,0,0,1,3.72-.186.445.445,0,0,1,.158.6.439.439,0,0,1-.6.158,2.5,2.5,0,0,0-2.764.138.44.44,0,0,1-.612-.1Z" transform="translate(-262.724 -219.909)" fill="#20154f"/>
                      <path id="Trazado_192334" data-name="Trazado 192334" d="M261.85,244.1c.014,3.417,5.232,4.043,6.449.241C266.47,245.269,263.5,244.9,261.85,244.1Z" transform="translate(-259.229 -227.467)" fill="#20154f"/>
                      <path id="Trazado_192335" data-name="Trazado 192335" d="M266.532,237.13a.437.437,0,1,1,.268-.832c1.327.426,2.3.454,2.613.076.254-.309.124-1.038-.351-1.884a12.08,12.08,0,0,1-1.079-3.967.438.438,0,0,1,.873-.076,11.147,11.147,0,0,0,.969,3.617c.681,1.224.777,2.235.268,2.86-.756.921-2.42.564-3.555.2Z" transform="translate(-260.597 -223.075)" fill="#20154f"/>
                      <path id="Trazado_192336" data-name="Trazado 192336" d="M258.136,223.1a.436.436,0,0,1,.062-.612,3.376,3.376,0,0,1,3.706-.371.438.438,0,0,1-.406.777,2.508,2.508,0,0,0-2.75.268.43.43,0,0,1-.612-.062Z" transform="translate(-258.038 -220.476)" fill="#20154f"/>
                    </g>
                  </g>
                  <path id="Trazado_192337" data-name="Trazado 192337" d="M308.16,274.108c-.433.736-.894,1.458-1.361,2.166a42.685,42.685,0,0,1-10.045,10.513c-1.217-6.236-1.107-13.559,3.046-19.967C299.8,266.82,303.725,268.725,308.16,274.108Z" transform="translate(-237.087 -217.366)" fill="#5cb8fc"/>
                </g>
                <path id="Trazado_192338" data-name="Trazado 192338" d="M225.8,291.374a42.506,42.506,0,0,1-15.429-13.029,29.973,29.973,0,0,1,5.769-8.656c.083-.076.158-.144.22-.206a2.227,2.227,0,0,0,.179-.172l.241-.22C224.327,274.893,225.929,284.106,225.8,291.374Z" transform="translate(-210.308 -218.076)" fill="#5cb8fc"/>
              </g>
              <path id="Trazado_192339" data-name="Trazado 192339" d="M379.284,149.83H445.5a4.848,4.848,0,0,1,4.84,4.84v30.17a4.843,4.843,0,0,1-4.84,4.84h-4.971v5.06a1.319,1.319,0,0,1-2.248.935l-5.989-5.989h-53a4.848,4.848,0,0,1-4.84-4.84v-30.17a4.843,4.843,0,0,1,4.84-4.84Z" transform="translate(-146.58 -86.183)" fill="#0f2771"/>
              <path id="Trazado_192340" data-name="Trazado 192340" d="M348.019,106.89H281.8a4.848,4.848,0,0,0-4.84,4.84V141.9a4.843,4.843,0,0,0,4.84,4.84h4.971v5.06a1.319,1.319,0,0,0,2.248.935l5.989-5.989h53a4.848,4.848,0,0,0,4.84-4.84v-30.17a4.843,4.843,0,0,0-4.84-4.84Z" transform="translate(-116.12 -72.767)" fill="#4dd0e1"/>
              <g id="Grupo_141153" data-name="Grupo 141153" transform="translate(202.154 116.167)">
                <path id="Trazado_192341" data-name="Trazado 192341" d="M532.476,277.4a17.151,17.151,0,0,0-1.155-4.112c-2.228-5.191-6.745-6.669-10.341-9.736-4.284-3.623-7.488-10-8.649-17.127-2.214-13.6-22.689-27.042-39.4-16.329-.88.564-3.864,3.72-4.827,4.393a13.694,13.694,0,0,0-4.785,5.844,26.8,26.8,0,0,0-2.083,13.82c.323,2.97,1.107,5.8,1.526,8.766.419,2.943.619,13.662-.763,15.993-8.333,14.019-1,19.259,0,20.922.007.014-1.705,2.118-1.7,2.138,3.788,7.446,7.247-1.183,14.714-2.118l4.1-.516a25.839,25.839,0,0,0,.935-11.613,74.065,74.065,0,0,1,22.215,9.255,15.9,15.9,0,0,1,1.458.715,25.706,25.706,0,0,0,3.637,1.65h15.5c6.683-3.1,11.2-12.266,9.626-21.954Z" transform="translate(-374.859 -226.215)" fill="#12263f"/>
                <path id="Trazado_192342" data-name="Trazado 192342" d="M342.935,363.22c3.369,5.645,16.79,4.545,16.79,4.545s30.266,38.015,42.835,34.564c8.643-2.372,23.473-34.983,23.473-34.983l-17.051-2.716c-1.121,1.066-9.64,17.842-9.64,17.842l-36.248-26.45s-6.291-15.133-8.423-12.094c-2.076,2.9,1.059,7.639,1.313,8.038-.8-.5-18.488-11.365-18.922-7.563-.468,3.871,9.715,8.4,9.715,8.4s-7.206,4.806-3.843,10.43Z" transform="translate(-337.047 -262.867)" fill="#f2c3b3"/>
                <path id="Trazado_192343" data-name="Trazado 192343" d="M455.992,364.227l-1.808,20.283-2.173,19.527-2.152,33.47c1.829.626,3.658,1.183,5.487,1.705h58.539c1.939-.523,3.878-1.079,5.817-1.705l-5.872-71.032c3.073,4.758,23.666,2.221,21.527-4.785-3.843-12.617-7.776-24.793-18.928-35.6-6.6-6.4-16.859-6.9-26.547-7.776-15.3-1.375-21.9,2.118-30.974,6.195-17.808,8-21.417,34.811-21.417,34.811C444.675,367.4,456,364.24,456,364.24Z" transform="translate(-368.43 -254.895)" fill="#feca2e"/>
                <g id="Grupo_141152" data-name="Grupo 141152" transform="translate(58.939 102.376)">
                  <g id="Grupo_141151" data-name="Grupo 141151">
                    <path id="Trazado_192344" data-name="Trazado 192344" d="M486.428,411.888c-1.54,1.306.9,5.665.9,5.665l6.91-.034c-4.779-1.705-4.992-8.017-7.8-5.631Z" transform="translate(-442.5 -386.437)" fill="#f2c3b3"/>
                    <path id="Trazado_192345" data-name="Trazado 192345" d="M425.6,375.118l32.948,1.911A2.681,2.681,0,0,1,461,379.071l11.75,48.768a2.678,2.678,0,0,1-2.757,3.3l-32.948-1.911a2.681,2.681,0,0,1-2.448-2.042l-11.75-48.768a2.678,2.678,0,0,1,2.757-3.3Z" transform="translate(-422.77 -375.113)" fill="#12263f"/>
                  </g>
                  <path id="Trazado_192346" data-name="Trazado 192346" d="M545.3,386.44c-6.374,4.387-12.747,3.9-17.388,3.321,1.368,6.326,1.925,11.283,2.351,12.864,0,0-8.581,0-21.28,4.682,0,0-14.281,4.125-19.059,2.42l-6.91.034s-8.691-.33-10.135,2.138c-1.533,2.626-.7,7.721,2.585,9.688,2.221,1.327,6,.254,8.746-.316,6.814-1.423,6.119-3.905,12.912-2.984s41.969-2.97,42.807-3.452,6.47-.729,7.419-7.047C547.875,404.3,546.988,396.121,545.3,386.44Z" transform="translate(-438.195 -378.652)" fill="#f2c3b3"/>
                </g>
                <path id="Trazado_192347" data-name="Trazado 192347" d="M481.242,286.119c.337,1.8,19.08,4.8,19.08,4.8-2.4-4.015-2.475-8.746-2.015-12.307a27.257,27.257,0,0,1,1.244-5.4s6.869-8.044,2.152-11.248c-3.232-2.193-5.425.138-7.082,4.579,0,0-5.054-23.136-20.235-19.815a5.1,5.1,0,0,0-3.8,4.015c-1.2,5.892-3.376,19.066-.694,26.787,3.534,10.169,11.338,8.594,11.338,8.594Z" transform="translate(-378.155 -232.521)" fill="#f2c3b3"/>
              </g>
              <path id="Trazado_192348" data-name="Trazado 192348" d="M502.965,293.25s-.309.447-.323.447c-6.566,8.381-16.742,7.061-16.742,7.061,1.423,7.625-2.4,11.743-2.4,11.743l11.881,14.391,16.281-15.525c-8.429-3.857-9.268-13.091-8.7-18.117Z" transform="translate(-180.651 -130.993)" fill="#f4a998"/>
              <g id="Grupo_141154" data-name="Grupo 141154" transform="translate(296.491 145.132)">
                <path id="Trazado_192349" data-name="Trazado 192349" d="M475.874,268.355c.681.117,1.079,1.121.894,2.255s-.894,1.96-1.574,1.843-1.079-1.121-.894-2.255S475.193,268.238,475.874,268.355Z" transform="translate(-474.254 -268.344)" fill="#20154f"/>
                <ellipse id="Elipse_4932" data-name="Elipse 4932" cx="2.076" cy="1.251" rx="2.076" ry="1.251" transform="translate(11.76 6.087) rotate(-80.53)" fill="#20154f"/>
              </g>
              <path id="Trazado_192350" data-name="Trazado 192350" d="M477.786,263.028a2.978,2.978,0,0,0-3.177-.681.727.727,0,1,1-.529-1.354,4.416,4.416,0,0,1,4.751,1.018.729.729,0,1,1-1.038,1.024Z" transform="translate(-177.564 -120.821)" fill="#20154f"/>
              <path id="Trazado_192351" data-name="Trazado 192351" d="M495.756,265.9a2.979,2.979,0,0,0-3.177-.681.727.727,0,0,1-.529-1.354,4.416,4.416,0,0,1,4.751,1.018.727.727,0,0,1-1.038,1.018Z" transform="translate(-183.179 -121.718)" fill="#20154f"/>
              <path id="Trazado_192352" data-name="Trazado 192352" d="M486.833,293.27c-.694,4.215-7.254,3.94-8-.99C480.9,293.793,484.633,293.93,486.833,293.27Z" transform="translate(-179.192 -130.69)" fill="#20154f"/>
              <path id="Trazado_192353" data-name="Trazado 192353" d="M478.613,283.051c-.543-.942-.22-2.248.914-3.678a13.72,13.72,0,0,0,1.884-4.2.728.728,0,1,1,1.409.364,14.931,14.931,0,0,1-2.152,4.737c-.846,1.066-.956,1.767-.8,2.049.206.351,1.114.626,3.053.337a.73.73,0,0,1,.22,1.444c-1.561.241-3.733.323-4.531-1.045Z" transform="translate(-179.044 -125.174)" fill="#20154f"/>
              <rect id="Rectángulo_44101" data-name="Rectángulo 44101" width="372.608" height="10.465" rx="5.232" transform="translate(0 297.472)" fill="#fff"/>
              <rect id="Rectángulo_44102" data-name="Rectángulo 44102" width="42.037" height="4.07" transform="translate(150.383 191.45)" fill="#d1dcf8"/>
              <rect id="Rectángulo_44103" data-name="Rectángulo 44103" width="38.654" height="4.07" transform="translate(106.076 191.45)" fill="#d1dcf8"/>
              <rect id="Rectángulo_44104" data-name="Rectángulo 44104" width="21.933" height="4.07" transform="translate(106.076 200.973)" fill="#d1dcf8"/>
              <rect id="Rectángulo_44105" data-name="Rectángulo 44105" width="26.78" height="4.07" transform="translate(135.119 200.973)" fill="#d1dcf8"/>
              <rect id="Rectángulo_44106" data-name="Rectángulo 44106" width="23.418" height="4.07" transform="translate(169.002 200.973)" fill="#d1dcf8"/>
              <rect id="Rectángulo_44107" data-name="Rectángulo 44107" width="35.416" height="4.07" transform="translate(106.076 210.496)" fill="#d1dcf8"/>
              <rect id="Rectángulo_44108" data-name="Rectángulo 44108" width="43.275" height="4.07" transform="translate(149.145 210.496)" fill="#d1dcf8"/>
              <rect id="Rectángulo_44109" data-name="Rectángulo 44109" width="15.649" height="15.649" rx="4.23" transform="translate(177.424 230.861)" fill="#7cd194"/>
              <rect id="Rectángulo_44110" data-name="Rectángulo 44110" width="15.649" height="15.649" rx="4.23" transform="translate(141.754 230.861)" fill="#fe4c40"/>
              <rect id="Rectángulo_44111" data-name="Rectángulo 44111" width="15.649" height="15.649" rx="4.23" transform="translate(106.076 230.861)" fill="#ee984f"/>
            </g>
          </g>
        </g>
      </g>
    </g>
  </g>
</svg>
