<svg xmlns="http://www.w3.org/2000/svg" xmlns:xlink="http://www.w3.org/1999/xlink" width="820" height="436" viewBox="0 0 820 436">
  <defs>
    <clipPath id="clip-path">
      <rect id="Rectángulo_40238" data-name="Rectángulo 40238" width="810" height="419" rx="15.442" transform="translate(0 0)" fill="#fff"/>
    </clipPath>
  </defs>
  <g id="Grupo_222342" data-name="Grupo 222342" transform="translate(-390 -14374)">
    <g id="Grupo_222341" data-name="Grupo 222341">
      <g id="Grupo_222340" data-name="Grupo 222340">
        <g id="Grupo_222131" data-name="Grupo 222131" transform="translate(7721 11603)">
          <g id="Grupo_222129" data-name="Grupo 222129" transform="translate(-59 -740)">
            <g id="Grupo_207476" data-name="Grupo 207476" transform="translate(-7233 3512)">
              <rect id="Rectángulo_41096" data-name="Rectángulo 41096" width="121" height="435" transform="translate(660 0)" fill="#4dd0e1"/>
              <line id="Línea_250" data-name="Línea 250" x1="660" transform="translate(0 0)" fill="none" stroke="#4dd0e1" stroke-width="2" opacity="0.2"/>
              <line id="Línea_251" data-name="Línea 251" x1="660" transform="translate(0 434)" fill="none" stroke="#4dd0e1" stroke-width="2" opacity="0.2"/>
            </g>
            <g id="Grupo_207477" data-name="Grupo 207477" transform="translate(-7272 3520)">
              <g id="Grupo_108477" data-name="Grupo 108477" transform="translate(0 0)">
                <g id="Grupo_108479" data-name="Grupo 108479" transform="translate(0)">
                  <g id="Grupo_108478" data-name="Grupo 108478">
                    <g id="Grupo_108477-2" data-name="Grupo 108477" clip-path="url(#clip-path)">
                      <path id="woman-making-modern-app-interface" d="M0,0H848.145V995.361H0Z" transform="translate(-26.999 -51.389)" fill="#fff"/>
                    </g>
                  </g>
                </g>
              </g>
            </g>
          </g>
          <rect id="Rectángulo_295788" data-name="Rectángulo 295788" width="631" height="49" rx="10" transform="translate(-7308 2799)" fill="#0f2771"/>
          <rect id="Rectángulo_295789" data-name="Rectángulo 295789" width="192" height="49" rx="10" transform="translate(-7308 2886)" fill="#4dd0e1"/>
          <rect id="Rectángulo_295792" data-name="Rectángulo 295792" width="89" height="49" rx="10" transform="translate(-7308 2975)" fill="#4dd0e1"/>
          <rect id="Rectángulo_295799" data-name="Rectángulo 295799" width="89" height="49" rx="10" transform="translate(-7308 3065)" fill="#4dd0e1"/>
          <rect id="Rectángulo_295800" data-name="Rectángulo 295800" width="89" height="49" rx="10" transform="translate(-7110 3066)" fill="#feca2e"/>
          <rect id="Rectángulo_295801" data-name="Rectángulo 295801" width="89" height="49" rx="10" transform="translate(-7007 3066)" fill="#feca2e"/>
          <rect id="Rectángulo_295802" data-name="Rectángulo 295802" width="89" height="49" rx="10" transform="translate(-6909 3066)" fill="#bddcf6"/>
          <rect id="Rectángulo_295803" data-name="Rectángulo 295803" width="89" height="49" rx="10" transform="translate(-6810 3066)" fill="#bddcf6"/>
          <rect id="Rectángulo_295797" data-name="Rectángulo 295797" width="89" height="49" rx="10" transform="translate(-6909 2975)" fill="#bddcf6"/>
          <rect id="Rectángulo_295795" data-name="Rectángulo 295795" width="192" height="49" rx="10" transform="translate(-7110 2973)" fill="#feca2e"/>
          <rect id="Rectángulo_295793" data-name="Rectángulo 295793" width="89" height="49" rx="10" transform="translate(-7205 2975)" fill="#4dd0e1"/>
          <rect id="Rectángulo_295796" data-name="Rectángulo 295796" width="89" height="49" rx="10" transform="translate(-6813 2975)" fill="#bddcf6"/>
          <rect id="Rectángulo_295798" data-name="Rectángulo 295798" width="89" height="49" rx="10" transform="translate(-6720 2975)" fill="#bddcf6"/>
          <rect id="Rectángulo_295790" data-name="Rectángulo 295790" width="192" height="49" rx="10" transform="translate(-6869 2886)" fill="#bddcf6"/>
          <rect id="Rectángulo_295791" data-name="Rectángulo 295791" width="192" height="49" rx="10" transform="translate(-7110 2886)" fill="#feca2e"/>
          <text id="MAPA_DE_HISTORIAS" data-name="MAPA DE HISTORIAS" transform="translate(-6992 2829)" fill="#fff" font-size="16" font-family="Roboto-Bold, Roboto" font-weight="700"><tspan x="-64.168" y="0">Mapa de historias</tspan></text>
          <text id="Esfuerzo_de_trabajo" data-name="Esfuerzo de trabajo" transform="translate(-6979 3180)" fill="#12263f" font-size="16" font-family="Roboto-Bold, Roboto" font-weight="700"><tspan x="-69.734" y="0">Esfuerzo de trabajo</tspan></text>
          <text id="Épica_1" data-name="Épica 1" transform="translate(-7212 2916)" fill="#12263f" font-size="16" font-family="Roboto-Bold, Roboto" font-weight="700"><tspan x="-26.168" y="0">Épica 1</tspan></text>
          <text id="Historia_tarea_1" data-name="Historia
/ tarea 1" transform="translate(-7263 2993)" fill="#12263f" font-size="16" font-family="Roboto-Bold, Roboto" font-weight="700"><tspan x="-28.324" y="0">Historia</tspan><tspan x="-30.086" y="24">/ tarea 1</tspan></text>
          <text id="Historia_tarea_2" data-name="Historia
/ tarea 2" transform="translate(-7014 2991)" fill="#12263f" font-size="16" font-family="Roboto-Bold, Roboto" font-weight="700"><tspan x="-28.324" y="0">Historia</tspan><tspan x="-30.086" y="24">/ tarea 2</tspan></text>
          <text id="Historia_tarea_1-2" data-name="Historia
/ tarea 1" transform="translate(-6864 2993)" fill="#12263f" font-size="16" font-family="Roboto-Bold, Roboto" font-weight="700"><tspan x="-28.324" y="0">Historia</tspan><tspan x="-30.086" y="24">/ tarea 1</tspan></text>
          <text id="Historia_tarea_2-2" data-name="Historia
/ tarea 2" transform="translate(-6768 2993)" fill="#12263f" font-size="16" font-family="Roboto-Bold, Roboto" font-weight="700"><tspan x="-28.324" y="0">Historia</tspan><tspan x="-30.086" y="24">/ tarea 2</tspan></text>
          <text id="Historia_tarea_3" data-name="Historia
/ tarea 3" transform="translate(-6675 2993)" fill="#12263f" font-size="16" font-family="Roboto-Bold, Roboto" font-weight="700"><tspan x="-28.324" y="0">Historia</tspan><tspan x="-30.086" y="24">/ tarea 3</tspan></text>
          <text id="Sub_-_tarea_1" data-name="Sub - 
tarea 1" transform="translate(-7263 3083)" fill="#12263f" font-size="16" font-family="Roboto-Bold, Roboto" font-weight="700"><tspan x="-20.984" y="0">Sub - </tspan><tspan x="-25.105" y="24">tarea 1</tspan></text>
          <text id="Sub_-_tarea_2" data-name="Sub - 
tarea 2" transform="translate(-7065 3084)" fill="#12263f" font-size="16" font-family="Roboto-Bold, Roboto" font-weight="700"><tspan x="-20.984" y="0">Sub - </tspan><tspan x="-25.105" y="24">tarea 2</tspan></text>
          <text id="Sub_-_tarea_3" data-name="Sub - 
tarea 3" transform="translate(-6962 3084)" fill="#12263f" font-size="16" font-family="Roboto-Bold, Roboto" font-weight="700"><tspan x="-20.984" y="0">Sub - </tspan><tspan x="-25.105" y="24">tarea 3</tspan></text>
          <text id="Sub_-_tarea_1-2" data-name="Sub - 
tarea 1" transform="translate(-6864 3084)" fill="#12263f" font-size="16" font-family="Roboto-Bold, Roboto" font-weight="700"><tspan x="-20.984" y="0">Sub - </tspan><tspan x="-25.105" y="24">tarea 1</tspan></text>
          <text id="Sub_-_tarea_2-2" data-name="Sub - 
tarea 2" transform="translate(-6766 3084)" fill="#12263f" font-size="16" font-family="Roboto-Bold, Roboto" font-weight="700"><tspan x="-20.984" y="0">Sub - </tspan><tspan x="-25.105" y="24">tarea 2</tspan></text>
          <text id="Historia_tarea_2-3" data-name="Historia
/ tarea 2" transform="translate(-7161 2993)" fill="#12263f" font-size="16" font-family="Roboto-Bold, Roboto" font-weight="700"><tspan x="-28.324" y="0">Historia</tspan><tspan x="-30.086" y="24">/ tarea 2</tspan></text>
          <text id="Épica_2" data-name="Épica 2" transform="translate(-7014 2916)" fill="#12263f" font-size="16" font-family="Roboto-Bold, Roboto" font-weight="700"><tspan x="-26.168" y="0">Épica 2</tspan></text>
          <text id="Épica_3" data-name="Épica 3" transform="translate(-6773 2916)" fill="#12263f" font-size="16" font-family="Roboto-Bold, Roboto" font-weight="700"><tspan x="-26.168" y="0">Épica 3</tspan></text>
          <text id="De_lo_universal_alto_nivel_" data-name="De lo universal
(alto nivel)" transform="translate(-6591 2808)" fill="#12263f" font-size="16" font-family="Roboto-Bold, Roboto" font-weight="700"><tspan x="-53.039" y="0">De lo universal</tspan><tspan x="-38.23" y="24">(alto nivel)</tspan></text>
          <text id="A_lo_particular_mayor_descripción_" data-name="A lo particular
(mayor descripción)" transform="translate(-6605 3159)" fill="#12263f" font-size="16" font-family="Roboto-Bold, Roboto" font-weight="700"><tspan x="-50.719" y="0">A lo particular</tspan><tspan x="-72.25" y="24">(mayor descripción)</tspan></text>
          <text id="Prioridad" transform="translate(-6542 2986) rotate(-90)" fill="#12263f" font-size="16" font-family="Roboto-Bold, Roboto" font-weight="700"><tspan x="-33.066" y="0">Prioridad</tspan></text>
          <path id="Trazado_225608" data-name="Trazado 225608" d="M-6675,2823.5s99.667,73.167,57.133,286.634" fill="none" stroke="#0f2771" stroke-width="3" stroke-dasharray="2"/>
          <path id="Polígono_50" data-name="Polígono 50" d="M8,0l8,17H0Z" transform="translate(-6615.965 3125.724) rotate(-160)" fill="#0f2771"/>
          <path id="Trazado_225609" data-name="Trazado 225609" d="M-7212,2886v-21.7h439V2886" fill="none" stroke="#707070" stroke-width="1"/>
          <path id="Trazado_225610" data-name="Trazado 225610" d="M-7212,2886v-21.7h103V2886" transform="translate(-51.5 88.7)" fill="none" stroke="#707070" stroke-width="1"/>
          <path id="Trazado_225612" data-name="Trazado 225612" d="M-7212,2891.3v-27h103v27" transform="translate(146.5 174.7)" fill="none" stroke="#707070" stroke-width="1"/>
          <path id="Trazado_225611" data-name="Trazado 225611" d="M-7212,2886v-21.7h187.5V2886" transform="translate(347.5 88.7)" fill="none" stroke="#707070" stroke-width="1"/>
          <line id="Línea_474" data-name="Línea 474" y2="38" transform="translate(-7014 2848.5)" fill="none" stroke="#707070" stroke-width="1"/>
          <line id="Línea_475" data-name="Línea 475" y2="18" transform="translate(-7212 2935.5)" fill="none" stroke="#707070" stroke-width="1"/>
          <line id="Línea_481" data-name="Línea 481" y2="42" transform="translate(-7268 3024)" fill="none" stroke="#707070" stroke-width="1"/>
          <line id="Línea_480" data-name="Línea 480" y2="18" transform="translate(-7014 3021.5)" fill="none" stroke="#707070" stroke-width="1"/>
          <line id="Línea_477" data-name="Línea 477" y2="39" transform="translate(-6772.5 2935.5)" fill="none" stroke="#707070" stroke-width="1"/>
          <line id="Línea_478" data-name="Línea 478" y2="41.5" transform="translate(-6772.5 3024.5)" fill="none" stroke="#707070" stroke-width="1"/>
          <line id="Línea_479" data-name="Línea 479" y2="41.5" transform="translate(-6864 3024.5)" fill="none" stroke="#707070" stroke-width="1"/>
          <line id="Línea_476" data-name="Línea 476" y2="38" transform="translate(-7014 2935.5)" fill="none" stroke="#707070" stroke-width="1"/>
          <path id="Polígono_51" data-name="Polígono 51" d="M4.885,0,9.77,7.862H0Z" transform="translate(-6767.5 3069) rotate(-180)" fill="#636363"/>
          <path id="Polígono_52" data-name="Polígono 52" d="M4.885,0,9.77,7.862H0Z" transform="translate(-6859.615 3069) rotate(-180)" fill="#636363"/>
          <g id="Grupo_222130" data-name="Grupo 222130" transform="translate(-223.25 -22.25)">
            <line id="Línea_482" data-name="Línea 482" x2="236" transform="translate(-7081.25 3196.25)" fill="none" stroke="#0f2771" stroke-width="1"/>
            <path id="Polígono_62" data-name="Polígono 62" d="M4.885,0,9.77,7.862H0Z" transform="translate(-6842.25 3191.865) rotate(90)" fill="#0f2771"/>
          </g>
          <path id="Polígono_53" data-name="Polígono 53" d="M4.885,0,9.77,7.862H0Z" transform="translate(-6958.115 3069) rotate(-180)" fill="#636363"/>
          <path id="Polígono_54" data-name="Polígono 54" d="M4.885,0,9.77,7.862H0Z" transform="translate(-7061 3069) rotate(-180)" fill="#636363"/>
          <path id="Polígono_55" data-name="Polígono 55" d="M4.885,0,9.77,7.862H0Z" transform="translate(-7263.5 3069) rotate(-180)" fill="#636363"/>
          <path id="Polígono_56" data-name="Polígono 56" d="M4.885,0,9.77,7.862H0Z" transform="translate(-7258.615 2976.862) rotate(-180)" fill="#636363"/>
          <path id="Polígono_57" data-name="Polígono 57" d="M4.885,0,9.77,7.862H0Z" transform="translate(-7156.115 2976.862) rotate(-180)" fill="#636363"/>
          <path id="Polígono_58" data-name="Polígono 58" d="M4.885,0,9.77,7.862H0Z" transform="translate(-7009.115 2976.862) rotate(-180)" fill="#636363"/>
          <path id="Polígono_59" data-name="Polígono 59" d="M4.885,0,9.77,7.862H0Z" transform="translate(-6860.115 2976.862) rotate(-180)" fill="#636363"/>
          <path id="Polígono_60" data-name="Polígono 60" d="M4.885,0,9.77,7.862H0Z" transform="translate(-6767.5 2976.862) rotate(-180)" fill="#636363"/>
          <path id="Polígono_61" data-name="Polígono 61" d="M4.885,0,9.77,7.862H0Z" transform="translate(-6672.115 2976.862) rotate(-180)" fill="#636363"/>
        </g>
      </g>
    </g>
  </g>
</svg>
