<svg xmlns="http://www.w3.org/2000/svg" xmlns:xlink="http://www.w3.org/1999/xlink" width="420" height="320" viewBox="0 0 420 320">
  <defs>
    <clipPath id="clip-path">
      <rect id="Rectángulo_295689" data-name="Rectángulo 295689" width="53.008" height="43.264" rx="1.347" fill="none"/>
    </clipPath>
    <clipPath id="clip-path-2">
      <rect id="Rectángulo_295691" data-name="Rectángulo 295691" width="99.713" height="103.616" rx="1.825" fill="#fff"/>
    </clipPath>
  </defs>
  <g id="Grupo_222403" data-name="Grupo 222403" transform="translate(6569 2443)">
    <g id="Grupo_222402" data-name="Grupo 222402">
      <g id="Grupo_222401" data-name="Grupo 222401">
        <g id="Grupo_222302" data-name="Grupo 222302">
          <rect id="Rectángulo_295926" data-name="Rectángulo 295926" width="420" height="320" transform="translate(-6569 -2443)" fill="none"/>
          <g id="_6" data-name="6" transform="translate(-6513 -2443)">
            <path id="hand" d="M653.533,439.827c-2.614,6.656-6.783,18.756-11.321,31.632-6.469,18.26-13.688,38.165-18.32,46.685-7.931,14.557-46.812,60.84-52.006,69.2-5.161,8.367-2.517,37.669-2.517,37.669H480.413s-.873-21.993-4.419-39.69c-1.368-6.966-3.7-21.553-6.126-37.635-3.669-24.663-7.558-52.812-8.52-62.112-1.588-15.333-9.427-76.449-13.592-96.7-3.207-15.333,8.177-19.312,13.465-14.024,7.745,7.745,11.134,26.4,14.774,43.512,3.453,16.112,6.317,34.246,7.592,35.581,3.449,3.576,4.165-8.4.216-56.171-2.364-28.179-6.253-36.606-7.808-45.44-2.674-15.3,13.968-24.417,20.777-8.96,6.783,15.46,10.389,39.843,13.1,60.963,2.674,20.621,5.165,42.61,8.4,42.61,2.923-.06,1.585-35.208-1.059-61.675-2.644-26.5-5.5-47.961-6-51.663-1.152-8.241,17.074-12.566,21.832,1.5,5.224,15.363,8.71,37.852,9.8,57.1,1.055,19.286,3.017,52.566,4.788,53.558,6.16,3.423,8.088-19.591,8.491-52.968.406-32.624.653-45.5.716-53.341.093-10.978,19.532-13.155,21.586,5.321,1.8,16.265,3.11,63.637,2.58,78.66s-2.737,52.1,1.369,55.8,9.706,6.872,17.417,1.708c7.185-4.758,16.176-24.476,21.989-32.937,5.817-8.491,9.77-15.363,15.46-19.065C642.958,425.24,659.875,423.718,653.533,439.827Z" transform="translate(-379.399 -325.962)" fill="#f9c0b9"/>
            <g id="watch" transform="translate(94.355 261.386)">
              <g id="Grupo_221963" data-name="Grupo 221963" transform="translate(0 17.689)">
                <rect id="Rectángulo_295688" data-name="Rectángulo 295688" width="98.146" height="26.299" rx="1.825" fill="#0f2771"/>
              </g>
              <path id="Trazado_225142" data-name="Trazado 225142" d="M504.709,454.674H464.654a6.8,6.8,0,0,1-6.805-6.8v-45a6.8,6.8,0,0,1,6.805-6.805h58.2a6.8,6.8,0,0,1,6.805,6.805v45a6.8,6.8,0,0,1-6.805,6.8H504.709Z" transform="translate(-444.683 -396.06)" fill="#fff"/>
              <g id="Grupo_221968" data-name="Grupo 221968" transform="translate(22.569 7.675)">
                <g id="Grupo_221967" data-name="Grupo 221967" clip-path="url(#clip-path)">
                  <g id="Grupo_221964" data-name="Grupo 221964" transform="translate(-18.749 7.967)">
                    <path id="Trazado_225143" data-name="Trazado 225143" d="M463.3,429.016A1.187,1.187,0,0,1,462.148,428l-2.487-19.047-2,10.948a1.168,1.168,0,0,1-2.3-.421l3.345-18.271a1.167,1.167,0,0,1,2.3.06l2.673,20.486,1.689-6.492a1.168,1.168,0,0,1,1.115-.873,1.131,1.131,0,0,1,1.137.843l1.368,4.747.832-1.026a1.17,1.17,0,0,1,.906-.433l11.161,0a1.165,1.165,0,0,1,0,2.331l-10.6.007-1.894,2.323a1.166,1.166,0,0,1-2.025-.414l-.809-2.8-2.126,8.177A1.164,1.164,0,0,1,463.3,429.016Z" transform="translate(-455.343 -400.255)" fill="#0f2771"/>
                  </g>
                  <g id="Grupo_221965" data-name="Grupo 221965" transform="translate(6.632 6.535)">
                    <path id="Trazado_225144" data-name="Trazado 225144" d="M470.113,430.064a1.185,1.185,0,0,1-1.16-1.025L466.5,409.063l-2.028,11.873a1.167,1.167,0,1,1-2.3-.4l3.363-19.7a1.158,1.158,0,0,1,1.178-.97,1.172,1.172,0,0,1,1.13,1.025l2.685,21.791,1.659-6.376a1.166,1.166,0,0,1,2.248-.03l1.369,4.747.835-1.026a1.162,1.162,0,0,1,.9-.433H488.7a1.167,1.167,0,0,1,0,2.334H478.092l-1.891,2.323a1.165,1.165,0,0,1-2.025-.414l-.809-2.8-2.125,8.177A1.168,1.168,0,0,1,470.113,430.064Z" transform="translate(-462.15 -399.871)" fill="#0f2771"/>
                  </g>
                  <g id="Grupo_221966" data-name="Grupo 221966" transform="translate(32.016 6.535)">
                    <path id="Trazado_225145" data-name="Trazado 225145" d="M476.919,430.064a1.187,1.187,0,0,1-1.156-1.025l-2.476-19.964-2.01,11.858a1.168,1.168,0,1,1-2.3-.388l3.341-19.7a1.112,1.112,0,0,1,1.178-.973,1.163,1.163,0,0,1,1.13,1.025l2.7,21.8,1.663-6.388a1.166,1.166,0,0,1,2.248-.03l1.369,4.747L483.44,420a1.172,1.172,0,0,1,.906-.429l11.157,0a1.165,1.165,0,1,1,0,2.331l-10.6.008-1.9,2.327a1.178,1.178,0,0,1-1.137.4,1.157,1.157,0,0,1-.887-.82l-.806-2.8-2.125,8.174A1.167,1.167,0,0,1,476.919,430.064Z" transform="translate(-468.957 -399.871)" fill="#0f2771"/>
                  </g>
                </g>
              </g>
            </g>
            <g id="circles" transform="translate(91.263 40.944)">
              <g id="Grupo_221969" data-name="Grupo 221969">
                <path id="Trazado_225146" data-name="Trazado 225146" d="M467.878,365.725a14.392,14.392,0,1,1,14.39-14.393A14.4,14.4,0,0,1,467.878,365.725Zm0-26.453a12.059,12.059,0,1,0,12.059,12.059A12.074,12.074,0,0,0,467.878,339.272Z" transform="translate(-453.489 -336.942)" fill="#feca2e"/>
              </g>
              <circle id="Elipse_16251" data-name="Elipse 16251" cx="7.591" cy="7.591" r="7.591" transform="translate(6.798 6.8)" fill="#feca2e"/>
            </g>
            <g id="doctor" transform="translate(207.987 172.059)">
              <g id="Grupo_221974" data-name="Grupo 221974" transform="translate(0 37.52)">
                <rect id="Rectángulo_295690" data-name="Rectángulo 295690" width="99.713" height="103.616" rx="1.825" fill="#fff"/>
                <g id="Grupo_221973" data-name="Grupo 221973" clip-path="url(#clip-path-2)">
                  <g id="Grupo_221970" data-name="Grupo 221970" transform="translate(14.588 42.739)">
                    <path id="Trazado_225147" data-name="Trazado 225147" d="M498.265,402.251l20.092-6.689,11.936-1.613,20.775,9.549-12,118.822-29.382,11.316-20.65-3.971Z" transform="translate(-487.798 -392.751)" fill="#bddcf6"/>
                    <path id="Trazado_225148" data-name="Trazado 225148" d="M510.7,535.723,488.7,531.495l9.359-129.227,20.833-6.936,12.481-1.7,21.84,10.038-.086.828L541.061,524.03Zm-19.513-6.13,19.3,3.71,28.4-10.933,11.839-117.284-19.707-9.061-11.6,1.57-19.14,6.391Z" transform="translate(-488.704 -393.628)" fill="#121e30"/>
                  </g>
                  <g id="Grupo_221971" data-name="Grupo 221971" transform="translate(39.775 47.038)">
                    <path id="Trazado_225149" data-name="Trazado 225149" d="M560.389,489.953l-2.767,27.929S497.4,562.14,496.1,528.613c-.5-12.939-.406-24.293.123-34.309,1.8-35.547,8.77-54.337,12.35-66.87,4.415-15.583,15.083-31.352,15.736-32.318.034-.06,2.4.936,5.63,2.364,4.885,2.211,11.821,5.474,15.769,8.088,6.533,4.385,11.2,10.325,12.193,15.3C560.575,433.968,560.389,489.953,560.389,489.953Z" transform="translate(-494.607 -393.871)" fill="#fff"/>
                    <path id="Trazado_225150" data-name="Trazado 225150" d="M508.846,543.224a14.819,14.819,0,0,1-6.477-1.3c-4.128-1.988-6.343-6.145-6.585-12.354-.473-12.29-.429-23.868.127-34.414,1.577-31.1,7.163-49.668,10.862-61.955.552-1.846,1.066-3.561,1.529-5.176,4.359-15.382,14.729-30.927,15.9-32.65a1.065,1.065,0,0,1,1.447-.485s2.372,1,5.616,2.439a126.7,126.7,0,0,1,15.944,8.177c6.757,4.538,11.619,10.687,12.693,16.049,2.662,13.055,2.517,67.019,2.51,69.308-.008.112-2.774,28.045-2.774,28.045a1.16,1.16,0,0,1-.47.824C557.7,520.809,526.968,543.224,508.846,543.224Zm16.776-145.809c-2.6,3.986-11.239,17.708-15.079,31.248-.462,1.626-.981,3.352-1.54,5.209-3.662,12.178-9.2,30.584-10.762,61.4-.552,10.474-.593,21.982-.123,34.2.205,5.351,1.928,8.733,5.261,10.34,13.823,6.667,49.695-18.585,53.986-21.665l2.707-27.351c.008-2.047.119-56.142-2.461-68.79-.947-4.71-5.537-10.426-11.7-14.565a124.454,124.454,0,0,0-15.6-7.991C528.277,398.555,526.592,397.828,525.622,397.414Z" transform="translate(-495.459 -394.781)" fill="#121e30"/>
                  </g>
                  <path id="Trazado_225151" data-name="Trazado 225151" d="M528.8,418l-11.817,7.745,5.567,11.63s-9.333,14.185-14.494,22.8c-5.164,8.584-12.163,34.649-12.163,34.649,1.8-35.547,8.77-54.337,12.35-66.87,4.415-15.583,15.083-31.352,15.736-32.318.033-.06.186-.712.746-.712s4.482,1.555,4.821,2.144a4.089,4.089,0,0,1,.063.932C529.638,402.076,528.8,418,528.8,418Z" transform="translate(-454.501 -347.352)" fill="#121e30"/>
                  <g id="Grupo_221972" data-name="Grupo 221972" transform="translate(-50.066 46.373)">
                    <path id="Trazado_225152" data-name="Trazado 225152" d="M554.846,394.915s-3.762,23.111-4.542,37.013c-.466,7.872-.776,36.856-1,60.59-.123,18.286-.187,33.344-.187,33.344l-30.789-6.19-.406-24.6-16.079-3.982-30.17-49.608,30.386-15.706,17.075,26.251s.936-24.667,2.987-34a22.279,22.279,0,0,1,12.566-16.083,133.868,133.868,0,0,1,14.587-5.288C552.482,395.6,554.846,394.915,554.846,394.915Z" transform="translate(-470.512 -393.75)" fill="#fff"/>
                    <path id="Trazado_225153" data-name="Trazado 225153" d="M549.98,527.877a1.191,1.191,0,0,1-.231-.022l-30.793-6.19a1.16,1.16,0,0,1-.936-1.126l-.392-23.7-15.206-3.766a1.167,1.167,0,0,1-.716-.526l-30.17-49.609a1.2,1.2,0,0,1-.131-.925,1.181,1.181,0,0,1,.589-.72l30.39-15.706a1.166,1.166,0,0,1,1.514.4l15.091,23.2c.343-7.245,1.257-23.3,2.849-30.554a23.356,23.356,0,0,1,13.2-16.884,137.414,137.414,0,0,1,14.74-5.347c3.214-1.059,5.593-1.749,5.593-1.749a1.168,1.168,0,0,1,1.477,1.309c-.037.231-3.762,23.2-4.53,36.886-.455,7.663-.753,34.9-.992,60.538-.123,18.283-.186,33.332-.186,33.336a1.157,1.157,0,0,1-1.163,1.16Zm-29.645-8.315,28.481,5.727c.019-4.154.078-16.944.183-31.833.235-25.763.537-53.036,1-60.747.642-11.522,3.356-29.525,4.258-35.29-.966.3-2.271.7-3.759,1.2a135.4,135.4,0,0,0-14.446,5.232,21.119,21.119,0,0,0-11.936,15.277c-2,9.125-2.949,33.545-2.957,33.791A1.176,1.176,0,0,1,520.3,454a1.152,1.152,0,0,1-1.286-.488l-16.5-25.364-28.343,14.647,29.272,48.128,15.613,3.867a1.167,1.167,0,0,1,.888,1.115Z" transform="translate(-471.365 -394.603)" fill="#121e30"/>
                  </g>
                  <path id="Trazado_225154" data-name="Trazado 225154" d="M506.5,395.49S502.739,418.6,501.96,432.5c-.466,7.872-.776,36.856-1,60.59-.4-2.334-3.733-21.337-5.1-29.145-1.462-8.334-6.47-30.327-6.47-30.327l7.405-10.575-6.283-8.987s8.024-13.1,10.418-16.828c.373-.559.623-.932.686-1a14.138,14.138,0,0,1,4.881-1.521C507.125,394.867,506.5,395.49,506.5,395.49Z" transform="translate(-472.234 -347.951)" fill="#121e30"/>
                </g>
              </g>
              <path id="Trazado_225155" data-name="Trazado 225155" d="M511.2,430.453c.3,0,7.8.142,8.58-2.58.951-3.308,1.093-37.937-.048-43.005s-22-10.8-22-10.8-.708,53.606-.552,53.606S511.2,430.453,511.2,430.453Z" transform="translate(-451.036 -366.743)" fill="#682f2c"/>
              <path id="Trazado_225156" data-name="Trazado 225156" d="M545.2,413.826a6.268,6.268,0,0,1-5.1.716c.063.559.127,1,.157,1.275.406,4.169,0,12.689-4.572,16.672a22.761,22.761,0,0,1-5.038,2.987l.466,7.338s.123,2.457-1.868,6.44c-2.923,5.877-11.351,5.5-12.659,2.148a5.845,5.845,0,0,1-.433-2.211,8.374,8.374,0,0,1,1.462-4.6l-.529-5.847a25.452,25.452,0,0,1-7.4-.093c-7.249-1.216-12.316-9.922-13.718-15.9-1.369-5.94-6.936-32.534-6.936-32.534v-5.567l10.515-9.143s34.369,3.39,35.144,3.982c.466.339,1.682,10.821,3.05,20.464,2.644-2.271,7.461-1.991,9.673.559C551.393,405.026,549.186,411.648,545.2,413.826Z" transform="translate(-473.221 -362.816)" fill="#f9c0b9"/>
              <path id="Trazado_225157" data-name="Trazado 225157" d="M510.725,391.6a14.717,14.717,0,0,1-4.322,2.987,58.632,58.632,0,0,1-6,2.487l.354,5.936-4.434,1.316a6.023,6.023,0,0,1,1.406-3.643l-.529-5.847a42.571,42.571,0,0,1,5.351-.9A31.6,31.6,0,0,0,510.725,391.6Z" transform="translate(-453.331 -318.909)" fill="#d87360"/>
              <path id="Trazado_225158" data-name="Trazado 225158" d="M501.025,403.532c-1.775,0-4.762-.384-5.224-2.886a12.31,12.31,0,0,1,.388-4.273,19.266,19.266,0,0,0,.53-5.582c-.362-3.363-4.147-6.891-4.184-6.928a.776.776,0,0,1,1.052-1.141c.172.157,4.255,3.953,4.68,7.905a20.525,20.525,0,0,1-.552,6.048,11.619,11.619,0,0,0-.384,3.684c.38,2.058,4.78,1.562,4.825,1.555a.8.8,0,0,1,.869.675.776.776,0,0,1-.671.869A11.4,11.4,0,0,1,501.025,403.532Z" transform="translate(-464.352 -343.7)" fill="#d87360"/>
              <path id="Trazado_225159" data-name="Trazado 225159" d="M496.517,394.177a.777.777,0,0,1,0-1.555,5.356,5.356,0,0,0,4.724-3.479.777.777,0,1,1,1.439.585A6.892,6.892,0,0,1,496.517,394.177Z" transform="translate(-454.913 -326.936)" fill="#d87360"/>
              <path id="Trazado_225160" data-name="Trazado 225160" d="M502.981,388.126a.752.752,0,0,1-.2-.03.774.774,0,0,1-.552-.94,5.226,5.226,0,0,1,4.419-3.609.761.761,0,0,1,.88.656.773.773,0,0,1-.656.88,3.7,3.7,0,0,0-3.14,2.469A.776.776,0,0,1,502.981,388.126Z" transform="translate(-437.278 -340.908)" fill="#d87360"/>
              <path id="Trazado_225161" data-name="Trazado 225161" d="M506.181,392.6c2.114.1,9.6-6.276,16.008-5.564s13.491,7.424,14.863,18.6c.276,2.241.224,3.1.324,4.143.112,1.141,1.708-1.1,4.225-1.842,2.61-.768,2.29-13.73,1.406-19.274-1.391-8.733-10.631-16.817-19.763-16.552s-20.132.887-28.082,7.719c-7.048,6.056-6.909,11.116-6.354,17.768a33.722,33.722,0,0,0,3.535,11.641s-.854-12.667,2.058-15.445S503.4,392.47,506.181,392.6Z" transform="translate(-474.471 -372.104)" fill="#682f2c"/>
              <path id="Trazado_225162" data-name="Trazado 225162" d="M496.567,385.867s-.928-2.055-.664-3.114,3.177-1.652,6.354-1.324a10.012,10.012,0,0,1,5.228,2.174,47.642,47.642,0,0,0-6.76.474A12.2,12.2,0,0,0,496.567,385.867Z" transform="translate(-454.599 -346.905)" fill="#682f2c"/>
              <path id="Trazado_225163" data-name="Trazado 225163" d="M489.948,388.117a8.806,8.806,0,0,1,1.7-3.651c1.256-1.391,4.963-2.461,6.287-2.249s3.177,2.513,3.177,2.513a32.367,32.367,0,0,0-5.493.608A28.632,28.632,0,0,0,489.948,388.117Z" transform="translate(-470.722 -344.58)" fill="#682f2c"/>
              <path id="Trazado_225164" data-name="Trazado 225164" d="M500.657,386.355c.324,1.607-.2,3.069-1.167,3.263s-2.017-.947-2.342-2.554.2-3.065,1.167-3.263S500.333,384.751,500.657,386.355Z" transform="translate(-451.335 -340.245)" fill="#682f2c"/>
              <path id="Trazado_225165" data-name="Trazado 225165" d="M495.262,387.244c.325,1.6-.2,3.065-1.167,3.259s-2.017-.947-2.342-2.554.2-3.065,1.167-3.259S494.938,385.636,495.262,387.244Z" transform="translate(-466.058 -337.822)" fill="#682f2c"/>
            </g>
            <g id="window_2" data-name="window 2" transform="translate(13.322 155.714)">
              <path id="Trazado_225166" data-name="Trazado 225166" d="M562.519,367.721H439.392a6.8,6.8,0,0,0-6.805,6.805v53.718a6.8,6.8,0,0,0,6.805,6.805H557.574s4.9.235,7.6,2.181a14.054,14.054,0,0,1,4.087,5.228l.063-14.177c0-.037,0-53.755,0-53.755A6.808,6.808,0,0,0,562.519,367.721Z" transform="translate(-432.587 -367.721)" fill="#fff"/>
              <g id="Grupo_221975" data-name="Grupo 221975" transform="translate(56.231 20.893)">
                <path id="Trazado_225167" data-name="Trazado 225167" d="M481.186,373.637h0Z" transform="translate(-446.813 -372.47)" fill="#fff"/>
                <path id="Trazado_225168" data-name="Trazado 225168" d="M482.04,375.655H448.834a1.165,1.165,0,1,1,0-2.331H482.04a1.165,1.165,0,1,1,0,2.331Z" transform="translate(-447.667 -373.324)" fill="#969aa8"/>
              </g>
              <g id="Grupo_221976" data-name="Grupo 221976" transform="translate(56.231 38.28)">
                <path id="Trazado_225169" data-name="Trazado 225169" d="M503.029,378.3h0Z" transform="translate(-446.813 -377.133)" fill="#fff"/>
                <path id="Trazado_225170" data-name="Trazado 225170" d="M503.883,380.321H448.834a1.167,1.167,0,0,1,0-2.334h55.049a1.167,1.167,0,1,1,0,2.334Z" transform="translate(-447.667 -377.987)" fill="#969aa8"/>
              </g>
              <g id="Grupo_221977" data-name="Grupo 221977" transform="translate(56.231 29.588)">
                <path id="Trazado_225171" data-name="Trazado 225171" d="M518.3,375.968h0Z" transform="translate(-446.813 -374.805)" fill="#fff"/>
                <path id="Trazado_225172" data-name="Trazado 225172" d="M519.153,377.987H448.834a1.165,1.165,0,1,1,0-2.331h70.319a1.165,1.165,0,0,1,0,2.331Z" transform="translate(-447.667 -375.656)" fill="#969aa8"/>
              </g>
              <g id="Grupo_221978" data-name="Grupo 221978" transform="translate(56.231 46.92)">
                <path id="Trazado_225173" data-name="Trazado 225173" d="M503.029,380.617h0Z" transform="translate(-446.813 -379.45)" fill="#fff"/>
                <path id="Trazado_225174" data-name="Trazado 225174" d="M503.883,382.638H448.834a1.167,1.167,0,1,1,0-2.334h55.049a1.167,1.167,0,1,1,0,2.334Z" transform="translate(-447.667 -380.304)" fill="#969aa8"/>
              </g>
              <g id="Grupo_221979" data-name="Grupo 221979" transform="translate(56.231 55.016)">
                <path id="Trazado_225175" data-name="Trazado 225175" d="M481.186,382.788h0Z" transform="translate(-446.813 -381.621)" fill="#fff"/>
                <path id="Trazado_225176" data-name="Trazado 225176" d="M482.04,384.809H448.834a1.167,1.167,0,1,1,0-2.334H482.04a1.167,1.167,0,0,1,0,2.334Z" transform="translate(-447.667 -382.475)" fill="#969aa8"/>
              </g>
              <rect id="Rectángulo_295692" data-name="Rectángulo 295692" width="55.049" height="6.145" transform="translate(112.446 15.26) rotate(180)" fill="#969aa8"/>
              <g id="Grupo_221980" data-name="Grupo 221980" transform="translate(10.782 17.531)">
                <path id="Trazado_225177" data-name="Trazado 225177" d="M472.91,383.844v14.391H461.39v11.619H447.011V398.235H435.479V383.844h11.533V372.423H461.39v11.421Z" transform="translate(-435.479 -372.423)" fill="#4dd0e1"/>
              </g>
            </g>
            <g id="window_1" data-name="window 1" transform="translate(0 219.778)">
              <rect id="Rectángulo_295693" data-name="Rectángulo 295693" width="128.018" height="27.775" rx="1.825" fill="#fff"/>
              <path id="Trazado_225178" data-name="Trazado 225178" d="M438.138,390.952a3.009,3.009,0,1,1-3.009-3.009A3.01,3.01,0,0,1,438.138,390.952Z" transform="translate(-420.539 -376.601)" fill="#969aa8"/>
              <path id="Trazado_225179" data-name="Trazado 225179" d="M443.462,390.952a3.009,3.009,0,1,1-3.009-3.009A3.01,3.01,0,0,1,443.462,390.952Z" transform="translate(-406.011 -376.601)" fill="#969aa8"/>
              <path id="Trazado_225180" data-name="Trazado 225180" d="M448.786,390.952a3.009,3.009,0,1,1-3.009-3.009A3.008,3.008,0,0,1,448.786,390.952Z" transform="translate(-391.482 -376.601)" fill="#969aa8"/>
              <path id="Trazado_225181" data-name="Trazado 225181" d="M454.11,390.952a3.009,3.009,0,1,1-3.009-3.009A3.008,3.008,0,0,1,454.11,390.952Z" transform="translate(-376.954 -376.601)" fill="#969aa8"/>
              <path id="Trazado_225182" data-name="Trazado 225182" d="M459.434,390.952a3.009,3.009,0,1,1-3.009-3.009A3.008,3.008,0,0,1,459.434,390.952Z" transform="translate(-362.425 -376.601)" fill="#969aa8"/>
              <path id="Trazado_225183" data-name="Trazado 225183" d="M464.756,390.952a3.007,3.007,0,1,1-3.009-3.009A3.008,3.008,0,0,1,464.756,390.952Z" transform="translate(-347.894 -376.601)" fill="#969aa8"/>
            </g>
          </g>
        </g>
      </g>
    </g>
  </g>
</svg>
