<svg xmlns="http://www.w3.org/2000/svg" width="170" height="170" viewBox="0 0 170 170">
  <g id="Grupo_222361" data-name="Grupo 222361" transform="translate(-1136.371 -17872.389)">
    <g id="Grupo_222360" data-name="Grupo 222360">
      <g id="Grupo_222359" data-name="Grupo 222359">
        <g id="Grupo_222233" data-name="Grupo 222233" transform="translate(387.742 -137.75)">
          <g id="Grupo_109191" data-name="Grupo 109191" transform="translate(748.629 18010.139)">
            <circle id="Elipse_4809" data-name="Elipse 4809" cx="85" cy="85" r="85" fill="#0f2771"/>
          </g>
          <g id="Grupo_210432" data-name="Grupo 210432" transform="translate(773.559 18050.645)">
            <path id="Trazado_221748" data-name="Trazado 221748" d="M216.228,131.254a1.694,1.694,0,0,1-1.694-1.694V112.211a1.694,1.694,0,1,1,3.389,0V129.56A1.693,1.693,0,0,1,216.228,131.254Z" transform="translate(-145.246 -58.108)" fill="#fff"/>
            <path id="Trazado_221749" data-name="Trazado 221749" d="M215.222,112.745a9.824,9.824,0,1,1,9.824-9.824A9.837,9.837,0,0,1,215.222,112.745Zm0-16.26a6.435,6.435,0,1,0,6.435,6.435A6.442,6.442,0,0,0,215.222,96.485Z" transform="translate(-155.151 -77.036)" fill="#fff"/>
            <path id="Trazado_221750" data-name="Trazado 221750" d="M205.748,131.254a1.7,1.7,0,0,1-1.7-1.694V112.211a1.7,1.7,0,1,1,3.391,0V129.56A1.694,1.694,0,0,1,205.748,131.254Z" transform="translate(-156.588 -58.108)" fill="#fff"/>
            <path id="Trazado_221751" data-name="Trazado 221751" d="M231.6,185.045h-8.226a1.693,1.693,0,0,1-1.695-1.694V149.618a1.02,1.02,0,0,0-1.2-1,1.129,1.129,0,0,0-.833,1.146V183.35a1.693,1.693,0,0,1-1.694,1.694h-8.226a1.7,1.7,0,0,1-1.7-1.694V142.417a5.516,5.516,0,0,1-7.646-5.234V116.237a12.937,12.937,0,0,1,11.469-12.856,1.7,1.7,0,0,1,.386,3.368,9.548,9.548,0,0,0-8.466,9.488v20.947a2.232,2.232,0,0,0,1.69,2.229,2.133,2.133,0,0,0,2.567-2.087,1.7,1.7,0,0,1,3.391,0v44.331h4.837V149.762a4.522,4.522,0,0,1,3.679-4.491,4.407,4.407,0,0,1,5.131,4.347v32.038h4.837V137.325a1.694,1.694,0,0,1,3.389,0,2.136,2.136,0,0,0,2.569,2.087,2.232,2.232,0,0,0,1.69-2.229V116.237a9.548,9.548,0,0,0-8.466-9.488,1.7,1.7,0,1,1,.388-3.368,12.937,12.937,0,0,1,11.467,12.856v20.947a5.517,5.517,0,0,1-7.648,5.234V183.35A1.693,1.693,0,0,1,231.6,185.045Z" transform="translate(-160.595 -65.873)" fill="#fff"/>
            <path id="Trazado_221752" data-name="Trazado 221752" d="M227.9,122.211a1.7,1.7,0,0,1-1.694-1.694V107.26a1.694,1.694,0,1,1,3.389,0v13.257A1.694,1.694,0,0,1,227.9,122.211Z" transform="translate(-132.618 -63.488)" fill="#fff"/>
            <path id="Trazado_221753" data-name="Trazado 221753" d="M227.132,108.067a7.907,7.907,0,1,1,7.907-7.907A7.915,7.915,0,0,1,227.132,108.067Zm0-12.424a4.518,4.518,0,1,0,4.516,4.518A4.525,4.525,0,0,0,227.132,95.643Z" transform="translate(-140.194 -77.951)" fill="#fff"/>
            <path id="Trazado_221754" data-name="Trazado 221754" d="M234.665,128.035a1.7,1.7,0,0,1-1.694-1.7v-16a6.894,6.894,0,0,0-6.112-6.853,1.7,1.7,0,1,1,.386-3.368,10.283,10.283,0,0,1,9.115,10.221v16A1.7,1.7,0,0,1,234.665,128.035Z" transform="translate(-133.594 -69.421)" fill="#fff"/>
            <path id="Trazado_221755" data-name="Trazado 221755" d="M217.1,111.613a1.711,1.711,0,0,1-1.694-1.774,10.249,10.249,0,0,1,9.1-9.724,1.7,1.7,0,1,1,.386,3.368A6.871,6.871,0,0,0,218.787,110,1.691,1.691,0,0,1,217.1,111.613Z" transform="translate(-144.32 -69.421)" fill="#fff"/>
            <path id="Trazado_221756" data-name="Trazado 221756" d="M236.226,115.355a1.694,1.694,0,0,1-1.694-1.694V100.4a1.694,1.694,0,0,1,3.389,0V113.66A1.693,1.693,0,0,1,236.226,115.355Z" transform="translate(-123.622 -70.937)" fill="#fff"/>
            <path id="Trazado_221757" data-name="Trazado 221757" d="M235.459,101.213a7.907,7.907,0,1,1,7.907-7.907A7.915,7.915,0,0,1,235.459,101.213Zm0-12.424a4.518,4.518,0,1,0,4.516,4.518A4.525,4.525,0,0,0,235.459,88.789Z" transform="translate(-131.209 -85.4)" fill="#fff"/>
            <path id="Trazado_221758" data-name="Trazado 221758" d="M242.992,121.181a1.7,1.7,0,0,1-1.694-1.694V103.482a6.894,6.894,0,0,0-6.114-6.853,1.7,1.7,0,0,1,.386-3.368,10.283,10.283,0,0,1,9.117,10.221v16.005A1.694,1.694,0,0,1,242.992,121.181Z" transform="translate(-124.545 -76.869)" fill="#fff"/>
            <path id="Trazado_221759" data-name="Trazado 221759" d="M226.731,98.883a1.692,1.692,0,0,1-1.154-2.934,10.22,10.22,0,0,1,5.837-2.688,1.695,1.695,0,0,1,.384,3.368,6.837,6.837,0,0,0-3.913,1.8A1.682,1.682,0,0,1,226.731,98.883Z" transform="translate(-133.892 -76.87)" fill="#fff"/>
            <path id="Trazado_221760" data-name="Trazado 221760" d="M194.075,122.211a1.694,1.694,0,0,1-1.694-1.694V107.26a1.694,1.694,0,1,1,3.389,0v13.257A1.7,1.7,0,0,1,194.075,122.211Z" transform="translate(-169.215 -63.488)" fill="#fff"/>
            <path id="Trazado_221761" data-name="Trazado 221761" d="M201.315,108.067a7.907,7.907,0,1,1,7.909-7.907A7.915,7.915,0,0,1,201.315,108.067Zm0-12.424a4.518,4.518,0,1,0,4.518,4.518A4.523,4.523,0,0,0,201.315,95.643Z" transform="translate(-168.111 -77.951)" fill="#fff"/>
            <path id="Trazado_221762" data-name="Trazado 221762" d="M191.277,128.036a1.7,1.7,0,0,1-1.7-1.7v-16a10.284,10.284,0,0,1,9.117-10.221,1.7,1.7,0,1,1,.386,3.368,6.894,6.894,0,0,0-6.112,6.853v16A1.7,1.7,0,0,1,191.277,128.036Z" transform="translate(-172.206 -69.421)" fill="#fff"/>
            <path id="Trazado_221763" data-name="Trazado 221763" d="M208.84,111.613A1.7,1.7,0,0,1,207.148,110a6.867,6.867,0,0,0-6.106-6.517,1.7,1.7,0,0,1,.388-3.368,10.249,10.249,0,0,1,9.1,9.724,1.7,1.7,0,0,1-1.613,1.772Z" transform="translate(-161.474 -69.421)" fill="#fff"/>
            <path id="Trazado_221764" data-name="Trazado 221764" d="M185.75,115.355a1.7,1.7,0,0,1-1.7-1.694V100.4a1.7,1.7,0,0,1,3.391,0V113.66A1.694,1.694,0,0,1,185.75,115.355Z" transform="translate(-178.212 -70.937)" fill="#fff"/>
            <path id="Trazado_221765" data-name="Trazado 221765" d="M192.99,101.213a7.907,7.907,0,1,1,7.907-7.907A7.915,7.915,0,0,1,192.99,101.213Zm0-12.424a4.518,4.518,0,1,0,4.516,4.518A4.524,4.524,0,0,0,192.99,88.789Z" transform="translate(-177.095 -85.4)" fill="#fff"/>
            <path id="Trazado_221766" data-name="Trazado 221766" d="M182.948,121.182a1.694,1.694,0,0,1-1.694-1.694V103.482a10.283,10.283,0,0,1,9.115-10.221,1.7,1.7,0,1,1,.386,3.368,6.894,6.894,0,0,0-6.112,6.853v16.005A1.7,1.7,0,0,1,182.948,121.182Z" transform="translate(-181.254 -76.87)" fill="#fff"/>
            <path id="Trazado_221767" data-name="Trazado 221767" d="M197.783,98.882a1.681,1.681,0,0,1-1.154-.453,6.837,6.837,0,0,0-3.913-1.8,1.695,1.695,0,1,1,.384-3.368,10.22,10.22,0,0,1,5.837,2.688,1.693,1.693,0,0,1-1.154,2.934Z" transform="translate(-170.48 -76.869)" fill="#fff"/>
          </g>
        </g>
      </g>
    </g>
  </g>
</svg>
