<svg xmlns="http://www.w3.org/2000/svg" width="46.612" height="41.03" viewBox="0 0 46.612 41.03">
  <g id="Grupo_222413" data-name="Grupo 222413" transform="translate(-290 -8648.006)">
    <g id="Grupo_222412" data-name="Grupo 222412">
      <g id="Grupo_222411" data-name="Grupo 222411">
        <g id="Grupo_222410" data-name="Grupo 222410">
          <path id="Trazado_197576" data-name="Trazado 197576" d="M2429.35,5203.183h-7.134a3.129,3.129,0,0,0,.474-1.654v-.576h5.339a.75.75,0,0,0,0-1.5h-6.089a.75.75,0,0,0-.749.75v1.326a1.654,1.654,0,1,1-3.307,0v-30.1a3.049,3.049,0,0,0-.437-1.571h23.46a2.274,2.274,0,0,1,2.272,2.272v11.86a.749.749,0,1,0,1.5,0v-11.86a3.775,3.775,0,0,0-3.771-3.771h-26.134c-.014,0-.028,0-.042,0a3.071,3.071,0,0,0-2.986,3.065v7.175h-4.621a.749.749,0,0,0-.75.749v2.686a3.439,3.439,0,0,0,3.435,3.435h6.576v16.057a3.156,3.156,0,0,0,3.152,3.152h9.813a.749.749,0,0,0,0-1.5Zm-21.477-21.146V5180.1h3.872v1.936a1.936,1.936,0,1,1-3.872,0Zm4.771,1.936a3.416,3.416,0,0,0,.6-1.936v-10.609a1.571,1.571,0,0,1,3.142,0v12.545Z" transform="translate(-2116.374 3479.648)" fill="#0f2771"/>
          <path id="Trazado_197577" data-name="Trazado 197577" d="M2515.137,5189.789h-1.3a.749.749,0,1,0,0,1.5h1.3a.749.749,0,1,0,0-1.5Z" transform="translate(-2191.479 3464.566)" fill="#0f2771"/>
          <path id="Trazado_197578" data-name="Trazado 197578" d="M2479.217,5191.288a.749.749,0,1,0,0-1.5h-11.59a.749.749,0,1,0,0,1.5Z" transform="translate(-2158.956 3464.566)" fill="#0f2771"/>
          <path id="Trazado_197579" data-name="Trazado 197579" d="M2455.484,5191.288h1.5a.749.749,0,1,0,0-1.5h-1.5a.749.749,0,1,0,0,1.5Z" transform="translate(-2150.41 3464.566)" fill="#0f2771"/>
          <path id="Trazado_197580" data-name="Trazado 197580" d="M2510.627,5202.944h-3.2a.749.749,0,1,0,0,1.5h3.2a.749.749,0,1,0,0-1.5Z" transform="translate(-2186.969 3455.308)" fill="#0f2771"/>
          <path id="Trazado_197581" data-name="Trazado 197581" d="M2455.484,5204.442h12.789a.749.749,0,0,0,0-1.5h-12.789a.749.749,0,1,0,0,1.5Z" transform="translate(-2150.41 3455.308)" fill="#0f2771"/>
          <path id="Trazado_197582" data-name="Trazado 197582" d="M2495.234,5216.173a.75.75,0,0,0-.75-.75h-9.991a.75.75,0,0,0,0,1.5h9.991A.75.75,0,0,0,2495.234,5216.173Z" transform="translate(-2170.826 3446.524)" fill="#0f2771"/>
          <path id="Trazado_197583" data-name="Trazado 197583" d="M2455.484,5216.923h4a.75.75,0,0,0,0-1.5h-4a.75.75,0,0,0,0,1.5Z" transform="translate(-2150.41 3446.524)" fill="#0f2771"/>
          <path id="Trazado_197584" data-name="Trazado 197584" d="M2467.125,5228.992a.749.749,0,0,0-.75-.75h-10.891a.749.749,0,1,0,0,1.5h10.891A.749.749,0,0,0,2467.125,5228.992Z" transform="translate(-2150.41 3437.503)" fill="#0f2771"/>
          <path id="Trazado_197585" data-name="Trazado 197585" d="M2461.579,5253.877h-6.095a.75.75,0,0,0,0,1.5h6.095a.75.75,0,0,0,0-1.5Z" transform="translate(-2150.41 3419.461)" fill="#0f2771"/>
          <path id="Trazado_197586" data-name="Trazado 197586" d="M2463.028,5241.809a.749.749,0,0,0-.75-.749h-6.794a.749.749,0,1,0,0,1.5h6.794A.75.75,0,0,0,2463.028,5241.809Z" transform="translate(-2150.41 3428.482)" fill="#0f2771"/>
          <path id="Trazado_197587" data-name="Trazado 197587" d="M2495.666,5226.969A11.834,11.834,0,1,0,2507.5,5238.8,11.848,11.848,0,0,0,2495.666,5226.969Zm0,22.169A10.335,10.335,0,1,1,2506,5238.8,10.347,10.347,0,0,1,2495.666,5249.139Z" transform="translate(-2170.888 3438.398)" fill="#0f2771"/>
          <path id="Trazado_197588" data-name="Trazado 197588" d="M2510.964,5243.589a.75.75,0,0,0-.75.75v5.5h-3.8a.75.75,0,0,0,0,1.5h4.546a.749.749,0,0,0,.749-.75v-6.245A.75.75,0,0,0,2510.964,5243.589Z" transform="translate(-2186.257 3426.702)" fill="#0f2771"/>
        </g>
      </g>
    </g>
  </g>
</svg>
