<svg xmlns="http://www.w3.org/2000/svg" width="327" height="312.363" viewBox="0 0 327 312.363">
  <g id="Grupo_222370" data-name="Grupo 222370" transform="translate(-637 -21595.012)">
    <g id="Grupo_222369" data-name="Grupo 222369">
      <g id="Grupo_184302" data-name="Grupo 184302" transform="translate(0 19871.012)">
        <rect id="Rectángulo_40610" data-name="Rectángulo 40610" width="327" height="311.958" rx="19" transform="translate(637 1724.406)" fill="#ffe595"/>
        <text id="Mapa_de_proceso_detallado:_precisa_más_cada_paso_del_proceso." data-name="Mapa de proceso detallado: precisa más cada paso del proceso." transform="translate(657 1925.406)" fill="#12263f" font-size="16" font-family="Roboto-Bold, Roboto" font-weight="700"><tspan x="16.488" y="17">Mapa de proceso detallado: </tspan><tspan y="17" font-family="Roboto-Regular, Roboto" font-weight="400">precisa </tspan><tspan x="44.07" y="41" font-family="Roboto-Regular, Roboto" font-weight="400">más cada paso del proceso.</tspan></text>
        <path id="Rectángulo_44881" data-name="Rectángulo 44881" d="M20,0H307a20,20,0,0,1,20,20V178a0,0,0,0,1,0,0H0a0,0,0,0,1,0,0V20A20,20,0,0,1,20,0Z" transform="translate(637 1724)" fill="#4dd0e1"/>
        <g id="Grupo_222267" data-name="Grupo 222267" transform="translate(55 -20329.926)">
          <g id="Grupo_222249" data-name="Grupo 222249" transform="translate(673 22064)">
            <rect id="Rectángulo_295889" data-name="Rectángulo 295889" width="46.179" height="30.786" rx="8" transform="translate(2.932 126.077)" fill="#78a0d4"/>
            <rect id="Rectángulo_295890" data-name="Rectángulo 295890" width="46.179" height="30.786" rx="12" transform="translate(110.684 126.077)" fill="#78a0d4"/>
            <path id="Trazado_225984" data-name="Trazado 225984" d="M357.148,400A5.148,5.148,0,0,0,352,405.148v18.019h33.465a5.148,5.148,0,0,0,5.148-5.148V400Z" transform="translate(-241.31 -273.864)" fill="#93bee5"/>
            <path id="Trazado_225985" data-name="Trazado 225985" d="M21.148,400A5.148,5.148,0,0,0,16,405.148v18.019H49.465a5.148,5.148,0,0,0,5.148-5.148V400Z" transform="translate(-13.426 -273.864)" fill="#93bee5"/>
            <rect id="Rectángulo_295891" data-name="Rectángulo 295891" width="30.786" height="30.786" rx="11" transform="translate(64.505 126.077)" fill="#f6b940"/>
            <path id="Trazado_225986" data-name="Trazado 225986" d="M213.148,400A5.148,5.148,0,0,0,208,405.148v18.019h18.019a5.148,5.148,0,0,0,5.148-5.148V400Z" transform="translate(-143.645 -273.864)" fill="#f9d266"/>
            <rect id="Rectángulo_295892" data-name="Rectángulo 295892" width="77.699" height="46.179" rx="7" transform="translate(41.048 56.442)" fill="#0f2771"/>
            <path id="Trazado_225987" data-name="Trazado 225987" d="M205.5,220.039V184H141.148A5.148,5.148,0,0,0,136,189.148v30.89Z" transform="translate(-94.813 -127.368)" fill="#1a3da9"/>
            <path id="Trazado_225988" data-name="Trazado 225988" d="M184,216h38.613v5.148H184Z" transform="translate(-127.368 -149.071)" fill="#e2e7f6"/>
            <path id="Trazado_225989" data-name="Trazado 225989" d="M320,216h10.3v5.148H320Z" transform="translate(-219.606 -149.071)" fill="#e2e7f6"/>
            <path id="Trazado_225990" data-name="Trazado 225990" d="M160,248h61.781v5.148H160Z" transform="translate(-111.09 -170.774)" fill="#e2e7f6"/>
            <path id="Trazado_225991" data-name="Trazado 225991" d="M160,280h61.781v5.148H160Z" transform="translate(-111.09 -192.477)" fill="#e2e7f6"/>
            <rect id="Rectángulo_295893" data-name="Rectángulo 295893" width="46.179" height="30.786" rx="7" transform="translate(2.932 2.932)" fill="#78a0d4"/>
            <rect id="Rectángulo_295894" data-name="Rectángulo 295894" width="46.179" height="30.786" rx="7" transform="translate(110.684 2.932)" fill="#78a0d4"/>
            <path id="Trazado_225992" data-name="Trazado 225992" d="M357.148,16A5.148,5.148,0,0,0,352,21.148V39.168h33.465a5.148,5.148,0,0,0,5.148-5.148V16Z" transform="translate(-241.31 -13.426)" fill="#93bee5"/>
            <path id="Trazado_225993" data-name="Trazado 225993" d="M21.148,16A5.148,5.148,0,0,0,16,21.148V39.168H49.465a5.148,5.148,0,0,0,5.148-5.148V16Z" transform="translate(-13.426 -13.426)" fill="#93bee5"/>
            <rect id="Rectángulo_295895" data-name="Rectángulo 295895" width="30.786" height="30.786" rx="10" transform="translate(64.505 2.932)" fill="#f6b940"/>
            <path id="Trazado_225994" data-name="Trazado 225994" d="M213.148,16A5.148,5.148,0,0,0,208,21.148V39.168h18.019a5.148,5.148,0,0,0,5.148-5.148V16Z" transform="translate(-143.645 -13.426)" fill="#f9d266"/>
            <g id="Grupo_222248" data-name="Grupo 222248" transform="translate(23.168 33.465)">
              <path id="Trazado_225995" data-name="Trazado 225995" d="M248,112h5.148v23.168H248Z" transform="translate(-193.942 -112)" fill="#c8cded"/>
              <path id="Trazado_225996" data-name="Trazado 225996" d="M386.3,150.613H376v-5.148h10.3a2.574,2.574,0,0,0,2.574-2.574V112h5.148v30.89A7.722,7.722,0,0,1,386.3,150.613Z" transform="translate(-280.755 -112)" fill="#c8cded"/>
              <path id="Trazado_225997" data-name="Trazado 225997" d="M98.019,150.613h-10.3A7.723,7.723,0,0,1,80,142.89V112h5.148v30.89a2.574,2.574,0,0,0,2.574,2.574h10.3Z" transform="translate(-80 -112)" fill="#c8cded"/>
              <path id="Trazado_225998" data-name="Trazado 225998" d="M248,328h5.148v23.168H248Z" transform="translate(-193.942 -258.497)" fill="#c8cded"/>
              <path id="Trazado_225999" data-name="Trazado 225999" d="M394.019,318.613h-5.148v-30.89a2.574,2.574,0,0,0-2.574-2.574H376V280h10.3a7.722,7.722,0,0,1,7.723,7.723Z" transform="translate(-280.755 -225.942)" fill="#c8cded"/>
              <path id="Trazado_226000" data-name="Trazado 226000" d="M85.148,318.613H80v-30.89A7.723,7.723,0,0,1,87.723,280h10.3v5.148h-10.3a2.574,2.574,0,0,0-2.574,2.574Z" transform="translate(-80 -225.942)" fill="#c8cded"/>
            </g>
            <path id="Trazado_226001" data-name="Trazado 226001" d="M184,216h38.613v5.148H184Z" transform="translate(-127.368 -149.071)"/>
            <path id="Trazado_226002" data-name="Trazado 226002" d="M320,216h10.3v5.148H320Z" transform="translate(-219.606 -149.071)"/>
            <path id="Trazado_226003" data-name="Trazado 226003" d="M160,248h61.781v5.148H160Z" transform="translate(-111.09 -170.774)"/>
            <path id="Trazado_226004" data-name="Trazado 226004" d="M160,280h61.781v5.148H160Z" transform="translate(-111.09 -192.477)"/>
            <path id="Trazado_226005" data-name="Trazado 226005" d="M136.71,80.077a7.723,7.723,0,0,0,7.723-7.723V44.039h15.445a7.723,7.723,0,0,0,7.723-7.723V15.723A7.723,7.723,0,0,0,159.878,8H123.839a7.723,7.723,0,0,0-7.723,7.723V36.316a7.723,7.723,0,0,0,7.723,7.723h15.445V72.355a2.574,2.574,0,0,1-2.574,2.574h-7.723V69.781a7.723,7.723,0,0,0-7.723-7.723H90.374V44.039H98.1a7.723,7.723,0,0,0,7.723-7.723V15.723A7.723,7.723,0,0,0,98.1,8H77.5a7.723,7.723,0,0,0-7.723,7.723V36.316A7.723,7.723,0,0,0,77.5,44.039h7.723V62.058H54.336a7.723,7.723,0,0,0-7.723,7.723v5.148H38.89a2.574,2.574,0,0,1-2.574-2.574V44.039H51.761a7.723,7.723,0,0,0,7.723-7.723V15.723A7.723,7.723,0,0,0,51.761,8H15.723A7.723,7.723,0,0,0,8,15.723V36.316a7.723,7.723,0,0,0,7.723,7.723H31.168V72.355a7.723,7.723,0,0,0,7.723,7.723h7.723V95.523H38.89a7.723,7.723,0,0,0-7.723,7.723v28.316H15.723A7.723,7.723,0,0,0,8,139.284v20.594a7.723,7.723,0,0,0,7.723,7.723H51.761a7.723,7.723,0,0,0,7.723-7.723V139.284a7.723,7.723,0,0,0-7.723-7.723H36.316V103.245a2.574,2.574,0,0,1,2.574-2.574h7.723v5.148a7.723,7.723,0,0,0,7.723,7.723h30.89v18.019H77.5a7.723,7.723,0,0,0-7.723,7.723v20.594A7.723,7.723,0,0,0,77.5,167.6H98.1a7.723,7.723,0,0,0,7.723-7.723V139.284a7.723,7.723,0,0,0-7.723-7.723H90.374V113.542h30.89a7.723,7.723,0,0,0,7.723-7.723v-5.148h7.723a2.574,2.574,0,0,1,2.574,2.574v28.316H123.839a7.723,7.723,0,0,0-7.723,7.723v20.594a7.723,7.723,0,0,0,7.723,7.723h36.039a7.723,7.723,0,0,0,7.723-7.723V139.284a7.723,7.723,0,0,0-7.723-7.723H144.432V103.245a7.723,7.723,0,0,0-7.723-7.723h-7.723V80.077ZM121.265,36.316V15.723a2.574,2.574,0,0,1,2.574-2.574h36.039a2.574,2.574,0,0,1,2.574,2.574V36.316a2.574,2.574,0,0,1-2.574,2.574H123.839A2.574,2.574,0,0,1,121.265,36.316Zm-46.336,0V15.723A2.574,2.574,0,0,1,77.5,13.148H98.1a2.574,2.574,0,0,1,2.574,2.574V36.316A2.574,2.574,0,0,1,98.1,38.89H77.5A2.574,2.574,0,0,1,74.929,36.316Zm-61.781,0V15.723a2.574,2.574,0,0,1,2.574-2.574H51.761a2.574,2.574,0,0,1,2.574,2.574V36.316a2.574,2.574,0,0,1-2.574,2.574H15.723A2.574,2.574,0,0,1,13.148,36.316ZM54.336,139.284v20.594a2.574,2.574,0,0,1-2.574,2.574H15.723a2.574,2.574,0,0,1-2.574-2.574V139.284a2.574,2.574,0,0,1,2.574-2.574H51.761A2.574,2.574,0,0,1,54.336,139.284Zm46.336,0v20.594a2.574,2.574,0,0,1-2.574,2.574H77.5a2.574,2.574,0,0,1-2.574-2.574V139.284A2.574,2.574,0,0,1,77.5,136.71H98.1A2.574,2.574,0,0,1,100.671,139.284Zm61.781,0v20.594a2.574,2.574,0,0,1-2.574,2.574H123.839a2.574,2.574,0,0,1-2.574-2.574V139.284a2.574,2.574,0,0,1,2.574-2.574h36.039A2.574,2.574,0,0,1,162.452,139.284Zm-38.613-33.465a2.574,2.574,0,0,1-2.574,2.574H54.336a2.574,2.574,0,0,1-2.574-2.574V69.781a2.574,2.574,0,0,1,2.574-2.574h66.929a2.574,2.574,0,0,1,2.574,2.574Z" transform="translate(-8 -8)"/>
          </g>
        </g>
      </g>
    </g>
  </g>
</svg>
