<svg xmlns="http://www.w3.org/2000/svg" width="327" height="312.364" viewBox="0 0 327 312.364">
  <g id="Grupo_222381" data-name="Grupo 222381" transform="translate(6312 -9895.012)">
    <g id="Grupo_222380" data-name="Grupo 222380">
      <g id="Grupo_184306" data-name="Grupo 184306" transform="translate(-7300 8171.012)">
        <rect id="Rect치ngulo_40611" data-name="Rect치ngulo 40611" width="327" height="311.958" rx="19" transform="translate(988 1724.406)" fill="#ffe595"/>
        <text id="Diagrama_de_flujo_de_trabajo:_proceso_de_trabajo_mostrado_en_un_formato_de_flujo_._" data-name="Diagrama de flujo de trabajo: proceso de trabajo mostrado en un formato de &quot;flujo&quot;.	 
" transform="translate(1009 1925.406)" fill="#12263f" font-size="16" font-family="Roboto-Bold, Roboto" font-weight="700"><tspan x="9.676" y="17">Diagrama de flujo de trabajo: </tspan><tspan y="17" font-family="Roboto-Regular, Roboto" font-weight="400">proceso </tspan><tspan x="9.516" y="41" font-family="Roboto-Regular, Roboto" font-weight="400">de trabajo mostrado en un formato de </tspan><tspan x="121.883" y="65" xml:space="preserve" font-family="Roboto-Regular, Roboto" font-weight="400">&quot;flujo&quot;.	 </tspan></text>
        <path id="Rect치ngulo_44884" data-name="Rect치ngulo 44884" d="M20,0H307a20,20,0,0,1,20,20V178a0,0,0,0,1,0,0H0a0,0,0,0,1,0,0V20A20,20,0,0,1,20,0Z" transform="translate(988 1724)" fill="#4dd0e1"/>
        <g id="Grupo_222271" data-name="Grupo 222271" transform="translate(1075.424 1735.549)">
          <g id="Grupo_222261" data-name="Grupo 222261" transform="translate(6.284 10.355)">
            <g id="Grupo_222253" data-name="Grupo 222253" transform="translate(58.867 122.444)">
              <path id="Trazado_226026" data-name="Trazado 226026" d="M258.385,436.709v9.419a4.723,4.723,0,0,1-4.709,4.709H220.709A4.723,4.723,0,0,1,216,446.128v-9.419A4.723,4.723,0,0,1,220.709,432h32.966A4.723,4.723,0,0,1,258.385,436.709Z" transform="translate(-216 -432)" fill="#4dd0e1"/>
            </g>
            <g id="Grupo_222254" data-name="Grupo 222254" transform="translate(65.932 49.449)">
              <path id="Trazado_226027" data-name="Trazado 226027" d="M268.256,184v14.128H240V184h28.256Z" transform="translate(-240 -184)" fill="#e6e9ed"/>
            </g>
            <g id="Grupo_222255" data-name="Grupo 222255" transform="translate(0 44.739)">
              <path id="Trazado_226028" data-name="Trazado 226028" d="M48.966,179.773,32.483,191.547,16,179.773,32.483,168Z" transform="translate(-16 -168)" fill="#feca2e"/>
            </g>
            <g id="Grupo_222256" data-name="Grupo 222256" transform="translate(61.222 82.414)">
              <path id="Trazado_226029" data-name="Trazado 226029" d="M261.675,307.773l-18.838,11.773L224,307.773,242.838,296Z" transform="translate(-224 -296)" fill="#feca2e"/>
            </g>
            <g id="Grupo_222257" data-name="Grupo 222257" transform="translate(61.222 0)">
              <path id="Trazado_226030" data-name="Trazado 226030" d="M261.675,16V44.256H224V16Z" transform="translate(-224 -16)" fill="#f0d0b4"/>
            </g>
            <g id="Grupo_222258" data-name="Grupo 222258" transform="translate(11.773 127.154)">
              <circle id="Elipse_16277" data-name="Elipse 16277" cx="4.709" cy="4.709" r="4.709" fill="#bddcf6"/>
            </g>
            <g id="Grupo_222259" data-name="Grupo 222259" transform="translate(131.863 9.419)">
              <circle id="Elipse_16278" data-name="Elipse 16278" cx="4.709" cy="4.709" r="4.709" fill="#bddcf6"/>
            </g>
            <g id="Grupo_222260" data-name="Grupo 222260" transform="translate(131.863 89.478)">
              <circle id="Elipse_16279" data-name="Elipse 16279" cx="4.709" cy="4.709" r="4.709" fill="#bddcf6"/>
            </g>
          </g>
          <g id="Grupo_222262" data-name="Grupo 222262" transform="translate(2.232 8)">
            <path id="Trazado_226031" data-name="Trazado 226031" d="M214.158,130.444H200.03V117.621l20.926-13.078L200.03,91.465V76.286h14.128V57.449H200.03V40.966h18.838V8H176.483V40.966H195.32V57.449H181.192v7.064H160v4.709h21.192v7.064H195.32V91.465l-20.926,13.078,20.926,13.078v12.824H181.192a7.073,7.073,0,0,0-7.064,7.064v9.419a7.073,7.073,0,0,0,7.064,7.064h32.966a7.073,7.073,0,0,0,7.064-7.064v-9.419A7.073,7.073,0,0,0,214.158,130.444ZM181.192,36.256V12.709h32.966V36.256Zm4.709,35.32V62.158h23.547v9.419Zm-2.621,32.966,14.394-9,14.394,9-14.394,9Zm33.232,42.385a2.359,2.359,0,0,1-2.355,2.355H181.192a2.359,2.359,0,0,1-2.355-2.355v-9.419a2.359,2.359,0,0,1,2.355-2.355h32.966a2.359,2.359,0,0,1,2.355,2.355Z" transform="translate(-113.563 -8)"/>
            <path id="Trazado_226032" data-name="Trazado 226032" d="M76.946,320.759l5.4,5.4H61.695a7.057,7.057,0,0,0-4.276-4.276V272H52.709v49.882a7.047,7.047,0,1,0,8.986,8.986H82.346l-5.4,5.4,3.33,3.33,11.084-11.084L80.276,317.429ZM55.064,330.867a2.355,2.355,0,1,1,2.355-2.355A2.359,2.359,0,0,1,55.064,330.867Z" transform="translate(-34.529 -194.295)"/>
            <path id="Trazado_226033" data-name="Trazado 226033" d="M406.629,120.493v-66.8a7.047,7.047,0,1,0-8.986-8.986h-23.98v4.709h23.98a7.057,7.057,0,0,0,4.276,4.276v66.8a7.057,7.057,0,0,0-4.276,4.276H381.7l5.4-5.4-3.33-3.33-11.084,11.081,11.084,11.084,3.33-3.33-5.4-5.4h15.941a7.047,7.047,0,1,0,8.986-8.986Zm-2.355-75.784a2.355,2.355,0,1,1-2.355,2.355A2.359,2.359,0,0,1,404.274,44.709Zm0,84.769a2.355,2.355,0,1,1,2.355-2.355A2.359,2.359,0,0,1,404.274,129.478Z" transform="translate(-263.649 -30.581)"/>
            <path id="Trazado_226034" data-name="Trazado 226034" d="M43.3,172.835,22.767,158.168,2.232,172.835,22.767,187.5Zm-20.535-8.88,12.43,8.88-12.43,8.88-12.43-8.88Z" transform="translate(-2.232 -113.968)"/>
            <path id="Trazado_226035" data-name="Trazado 226035" d="M248,40h23.547v4.709H248Z" transform="translate(-175.661 -30.581)"/>
            <path id="Trazado_226036" data-name="Trazado 226036" d="M248,72h14.128v4.709H248Z" transform="translate(-175.661 -53.162)"/>
            <path id="Trazado_226037" data-name="Trazado 226037" d="M312,72h4.709v4.709H312Z" transform="translate(-220.824 -53.162)"/>
            <path id="Trazado_226038" data-name="Trazado 226038" d="M384,456h4.709v4.709H384Z" transform="translate(-271.632 -324.137)"/>
            <path id="Trazado_226039" data-name="Trazado 226039" d="M416,456h4.709v4.709H416Z" transform="translate(-294.213 -324.137)"/>
            <path id="Trazado_226040" data-name="Trazado 226040" d="M448,456h4.709v4.709H448Z" transform="translate(-316.794 -324.137)"/>
            <path id="Trazado_226041" data-name="Trazado 226041" d="M184,72h4.709v4.709H184Z" transform="translate(-130.499 -53.162)"/>
            <path id="Trazado_226042" data-name="Trazado 226042" d="M120,72h4.709v4.709H120Z" transform="translate(-85.337 -53.162)"/>
            <path id="Trazado_226043" data-name="Trazado 226043" d="M152,72h4.709v4.709H152Z" transform="translate(-107.918 -53.162)"/>
          </g>
        </g>
      </g>
    </g>
  </g>
</svg>
