<svg xmlns="http://www.w3.org/2000/svg" width="420" height="320" viewBox="0 0 420 320">
  <g id="Grupo_222396" data-name="Grupo 222396" transform="translate(6569 3484)">
    <g id="Grupo_222395" data-name="Grupo 222395">
      <g id="Grupo_222394" data-name="Grupo 222394">
        <g id="Grupo_222300" data-name="Grupo 222300">
          <rect id="Rectángulo_295924" data-name="Rectángulo 295924" width="420" height="320" transform="translate(-6569 -3484)" fill="none"/>
          <g id="_13" data-name="13" transform="translate(-6551.902 -3479.792)">
            <g id="Grupo_221899" data-name="Grupo 221899" transform="translate(57.746 6.084)">
              <path id="Trazado_225184" data-name="Trazado 225184" d="M0,0H118.986V232.751H0Z" transform="translate(6.742 7.727)" fill="#feca2e"/>
              <path id="Trazado_224980" data-name="Trazado 224980" d="M368.848,340.334H253.994a8.246,8.246,0,0,0-8.245,8.245V585.364a8.246,8.246,0,0,0,8.245,8.245H368.848a8.242,8.242,0,0,0,8.241-8.245V348.58A8.242,8.242,0,0,0,368.848,340.334Zm.641,228.692a7.3,7.3,0,0,1-7.266,7.266H260.62a7.3,7.3,0,0,1-7.3-7.266V359.61a7.309,7.309,0,0,1,7.3-7.3h101.6a7.3,7.3,0,0,1,7.266,7.3Z" transform="translate(-245.749 -340.334)" fill="#969aa8"/>
              <path id="Trazado_224981" data-name="Trazado 224981" d="M279.975,351.6a11.064,11.064,0,1,1-11.062-11.066A11.06,11.06,0,0,1,279.975,351.6Z" transform="translate(-203.247 -339.624)" fill="#969aa8"/>
              <path id="Trazado_224982" data-name="Trazado 224982" d="M266.038,345.5a3.227,3.227,0,1,1-3.227-3.227A3.226,3.226,0,0,1,266.038,345.5Z" transform="translate(-197.145 -333.522)" fill="#121e30"/>
            </g>
            <g id="Grupo_221900" data-name="Grupo 221900" transform="translate(214.54 44.445)">
              <path id="Trazado_225185" data-name="Trazado 225185" d="M1.711,0H114.446a1.711,1.711,0,0,1,1.711,1.711V222.275a1.711,1.711,0,0,1-1.711,1.711H1.711A1.711,1.711,0,0,1,0,222.275V1.711A1.711,1.711,0,0,1,1.711,0Z" transform="translate(7.611 11.993)" fill="#bddcf6"/>
              <path id="Trazado_224983" data-name="Trazado 224983" d="M403.626,348.834H288.732a8.239,8.239,0,0,0-8.241,8.245V593.864a8.238,8.238,0,0,0,8.241,8.241H403.626a8.242,8.242,0,0,0,8.245-8.241V357.079A8.243,8.243,0,0,0,403.626,348.834Zm.641,228.692a7.312,7.312,0,0,1-7.307,7.3H295.4a7.309,7.309,0,0,1-7.3-7.3V368.109a7.275,7.275,0,0,1,7.3-7.266H396.961a7.279,7.279,0,0,1,7.307,7.266Z" transform="translate(-280.491 -348.834)" fill="#969aa8"/>
              <circle id="Elipse_16235" data-name="Elipse 16235" cx="11.063" cy="11.063" r="11.063" transform="translate(54.626 0.93)" fill="#969aa8"/>
              <path id="Trazado_224984" data-name="Trazado 224984" d="M300.785,354a3.227,3.227,0,1,1-3.227-3.227A3.23,3.23,0,0,1,300.785,354Z" transform="translate(-231.87 -342.012)" fill="#121e30"/>
            </g>
            <g id="Grupo_221904" data-name="Grupo 221904" transform="translate(65.31 39.912)">
              <path id="Trazado_224985" data-name="Trazado 224985" d="M266.257,408.63c-.311,0-8.173.149-8.99-2.7-1-3.471-1.146-39.765.05-45.077s23.057-11.319,23.057-11.319.74,56.188.578,56.188S266.257,408.63,266.257,408.63Z" transform="translate(-215.652 -341.852)" fill="#682f2c"/>
              <path id="Trazado_224986" data-name="Trazado 224986" d="M259.4,390.937a6.583,6.583,0,0,0,5.344.754c-.063.582-.131,1.043-.163,1.336-.424,4.369,0,13.3,4.793,17.475a24.171,24.171,0,0,0,5.3,3.123l-.51,7.7L263.345,431.3s19.135,14.8,21.843,14.8,20.178-14.573,20.178-14.573l-17.05-8.345s.311-3.439.555-6.133a26.584,26.584,0,0,0,7.758-.095c7.6-1.273,12.912-10.4,14.379-16.662,1.435-6.224,7.271-34.1,7.271-34.1v-5.84l-11.021-9.581s-36.024,3.552-36.84,4.17c-.487.361-1.756,11.373-3.186,21.478-2.776-2.392-7.821-2.09-10.145.564C252.933,381.717,255.226,388.658,259.4,390.937Z" transform="translate(-221.192 -337.482)" fill="#f9c0b9"/>
              <path id="Trazado_224987" data-name="Trazado 224987" d="M259.276,364.7a31.21,31.21,0,0,0,8.584,2.5,47.07,47.07,0,0,1,5.61.93l-.555,6.133,7.83,3.344-2.288,3.259-8.724-3.832.384-6.557a61.71,61.71,0,0,1-6.3-2.582A16,16,0,0,1,259.276,364.7Z" transform="translate(-205.791 -288.558)" fill="#d87360"/>
              <path id="Trazado_224988" data-name="Trazado 224988" d="M265.718,378.87a11.753,11.753,0,0,1-1.381-.077.82.82,0,0,1-.7-.912.783.783,0,0,1,.912-.7c.045.014,4.658.528,5.059-1.634a12.277,12.277,0,0,0-.406-3.859,21.277,21.277,0,0,1-.573-6.345c.442-4.143,4.716-8.119,4.9-8.286a.814.814,0,1,1,1.1,1.2c-.041.036-4.008,3.732-4.387,7.266a20.153,20.153,0,0,0,.555,5.849,12.932,12.932,0,0,1,.411,4.472C270.714,378.468,267.586,378.87,265.718,378.87Z" transform="translate(-190.507 -316.185)" fill="#d87360"/>
              <path id="Trazado_224989" data-name="Trazado 224989" d="M261.063,362.536a.814.814,0,0,1-.785-.6,3.872,3.872,0,0,0-3.29-2.586.811.811,0,0,1-.686-.921.793.793,0,0,1,.921-.691,5.466,5.466,0,0,1,4.63,3.782.819.819,0,0,1-.582.993A.846.846,0,0,1,261.063,362.536Z" transform="translate(-216.271 -313.074)" fill="#d87360"/>
              <path id="Trazado_224990" data-name="Trazado 224990" d="M295.817,369.314c-2.216.1-10.064-6.58-16.78-5.831s-14.14,7.781-15.579,19.5c-.289,2.347-.23,3.24-.338,4.337-.117,1.2-1.787-1.151-4.432-1.932-2.735-.8-2.4-14.392-1.471-20.2,1.458-9.157,11.143-17.628,20.715-17.348s21.1.93,29.434,8.087c7.388,6.35,7.244,11.657,6.661,18.626a35.342,35.342,0,0,1-3.705,12.2s.894-13.273-2.157-16.189S298.732,369.174,295.817,369.314Z" transform="translate(-215.384 -347.83)" fill="#682f2c"/>
              <path id="Trazado_224991" data-name="Trazado 224991" d="M271.774,360.571s.97-2.153.7-3.258-3.331-1.738-6.661-1.39a10.5,10.5,0,0,0-5.479,2.275,49.755,49.755,0,0,1,7.085.5A12.676,12.676,0,0,1,271.774,360.571Z" transform="translate(-202.092 -319.734)" fill="#682f2c"/>
              <path id="Trazado_224992" data-name="Trazado 224992" d="M277.253,362.779a9.216,9.216,0,0,0-1.778-3.827c-1.318-1.458-5.2-2.581-6.594-2.36s-3.326,2.64-3.326,2.64a33.548,33.548,0,0,1,5.754.636A29.879,29.879,0,0,1,277.253,362.779Z" transform="translate(-183.732 -317.145)" fill="#682f2c"/>
              <path id="Trazado_224993" data-name="Trazado 224993" d="M261.235,360.643c-.339,1.683.208,3.213,1.223,3.416s2.117-.993,2.455-2.676-.207-3.213-1.223-3.421S261.574,358.96,261.235,360.643Z" transform="translate(-199.261 -312.31)" fill="#682f2c"/>
              <path id="Trazado_224994" data-name="Trazado 224994" d="M265.907,361.409c-.339,1.683.208,3.213,1.228,3.421s2.112-1,2.451-2.681-.208-3.213-1.223-3.417S266.245,359.725,265.907,361.409Z" transform="translate(-182.848 -309.609)" fill="#682f2c"/>
              <path id="Trazado_224995" data-name="Trazado 224995" d="M261.914,362.315l7.8,2.884s-3.845,2.406-5.646,1.923S261.914,362.315,261.914,362.315Z" transform="translate(-196.524 -296.94)" fill="#fff"/>
              <path id="Trazado_224996" data-name="Trazado 224996" d="M317.862,484.718H265.388l-10.881-107.89,5.384-2.672,15.62-7.753s-.113,2.636,1.959,6.774c3.087,6.138,11.9,5.759,13.287,2.261,1.471-3.692-1.088-7.153-1.088-7.153l10.615,3.461s.415.113,1.092.338l8.846,2.861Z" transform="translate(-222.545 -282.579)" fill="#bddcf6"/>
              <path id="Trazado_224997" data-name="Trazado 224997" d="M318.046,479.972H254.727a7.3,7.3,0,0,1-7.3-7.266v-35.2c2.071-16.978,4.445-35.8,5.646-42.726,1.246-7.113,4.973-12.348,11.784-16.942,4.143-2.744,11.671-5.908,17.506-7.6a22.9,22.9,0,0,0,2.41-.83,32.833,32.833,0,0,0,3.5-1.656c.682,1.016,11.86,17.542,16.491,33.88,3.764,13.138,11.066,32.828,12.948,70.093Q317.938,475.741,318.046,479.972Z" transform="translate(-247.425 -277.833)" fill="#fff"/>
              <path id="Trazado_224998" data-name="Trazado 224998" d="M256.017,391.782l12.389,8.115-5.836,12.194s9.78,14.866,15.191,23.9c5.411,9,12.749,36.317,12.749,36.317-1.891-37.26-9.193-56.955-12.943-70.093-4.63-16.333-15.814-32.86-16.5-33.871-.036-.068-.2-.749-.785-.749s-4.694,1.629-5.05,2.248a4.21,4.21,0,0,0-.068.979C255.137,375.088,256.017,391.782,256.017,391.782Z" transform="translate(-220.224 -278.402)" fill="#121e30"/>
              <path id="Trazado_224999" data-name="Trazado 224999" d="M303.084,462.98v10.312a7.3,7.3,0,0,1-7.266,7.266h-25.3c0-2.861,0-6.363-.036-10.691-.266-24.881-.564-55.263-1.056-63.5-.826-14.568-4.779-38.776-4.779-38.776s.415.113,1.092.338c1.052.3,2.749.831,4.743,1.471a144.222,144.222,0,0,1,15.322,5.533A23.369,23.369,0,0,1,298.945,391.8c2.18,9.784,3.159,35.649,3.159,35.649Z" transform="translate(-186.912 -278.419)" fill="#fff"/>
              <path id="Trazado_225000" data-name="Trazado 225000" d="M264.878,368.224s3.944,24.226,4.761,38.8c.487,8.246.812,38.632,1.042,63.508.424-2.446,3.913-22.367,5.344-30.549,1.535-8.737,6.783-31.786,6.783-31.786l-7.758-11.084,6.585-9.423s-8.412-13.724-10.922-17.637c-.393-.587-.65-.979-.718-1.043a14.783,14.783,0,0,0-5.118-1.6C264.228,367.574,264.878,368.224,264.878,368.224Z" transform="translate(-187.126 -279.07)" fill="#121e30"/>
              <g id="Grupo_221901" data-name="Grupo 221901" transform="translate(34.065 146.827)">
                <path id="Trazado_225001" data-name="Trazado 225001" d="M256.6,395.8a1.628,1.628,0,0,1-1.629-1.629V381.992a1.629,1.629,0,0,1,3.259,0v12.176A1.631,1.631,0,0,1,256.6,395.8Z" transform="translate(-254.973 -380.363)" fill="#0f2771"/>
              </g>
              <g id="Grupo_221902" data-name="Grupo 221902" transform="translate(24.005 146.538)">
                <path id="Trazado_225002" data-name="Trazado 225002" d="M256,403.158a3.261,3.261,0,0,1-3.258-3.263V383.562a3.261,3.261,0,1,1,6.521,0v16.333A3.265,3.265,0,0,1,256,403.158Z" transform="translate(-252.744 -380.299)" fill="#0f2771"/>
              </g>
              <path id="Trazado_225003" data-name="Trazado 225003" d="M273.088,382.359H252S249.638,414,262.546,414,273.088,382.359,273.088,382.359Z" transform="translate(-231.952 -226.524)" fill="#969aa8"/>
              <g id="Grupo_221903" data-name="Grupo 221903" transform="translate(25.634 142.034)">
                <path id="Trazado_225004" data-name="Trazado 225004" d="M254.734,405.03a1.628,1.628,0,0,1-1.629-1.629V380.93a1.629,1.629,0,0,1,3.258,0V403.4A1.625,1.625,0,0,1,254.734,405.03Z" transform="translate(-253.105 -379.301)" fill="#0f2771"/>
              </g>
            </g>
            <g id="Grupo_221905" data-name="Grupo 221905" transform="translate(168.883 80.49)">
              <path id="Trazado_225005" data-name="Trazado 225005" d="M353.263,390.751c1.3,4.806-9.613,18.12-10.164,27.3-.533,9.193,3.642,15.489-.316,21.464s-15.552,11.757-21.1,10.146-27.35-54.193-27.35-54.193-.167-.208-.46-.6a39.006,39.006,0,0,1-4.879-8.679c-.122-.329-.23-.654-.339-.984a8.922,8.922,0,0,1-.343-5c1.611-5.547,8.281-4.964,8.281-4.964a20.885,20.885,0,0,1-1.029-3.737,15.731,15.731,0,0,1-.217-3.344l0-.239a8.182,8.182,0,0,1,1.25-3.981c2.87-4.369,23.08-9.888,30.328-5.547,7.262,4.319,7.55,12.555,7.55,12.555a12.636,12.636,0,0,1,9.342,1.313c1.742.966,2.545,2.843,2.857,4.892a23.71,23.71,0,0,1-.5,8.015S352.085,386.41,353.263,390.751Z" transform="translate(-208.16 -356.821)" fill="#773128"/>
              <path id="Trazado_225006" data-name="Trazado 225006" d="M305.505,369.193c1.169,6.382-4.021,12.713-11.635,14.248a39.006,39.006,0,0,1-4.879-8.679c-.122-.329-.23-.654-.339-.984a8.922,8.922,0,0,1-.343-5c1.611-5.547,8.281-4.965,8.281-4.965a20.886,20.886,0,0,1-1.029-3.737C300.635,361.1,304.652,364.522,305.505,369.193Z" transform="translate(-208.16 -345.385)" fill="#a54d3c"/>
              <path id="Trazado_225007" data-name="Trazado 225007" d="M354.539,405.417a8.234,8.234,0,0,1-.866,1.954c-3.164,4.861-9.112,4.707-9.112,4.707s.113,6.815-2.708,10.24a22.063,22.063,0,0,1-9.563,6.549l-1.169,11.973,13.025,6.7-5.759,20.932-52.474-13.138,31.131-14.568.979-10.353-.19-.036a11.182,11.182,0,0,1-1.584-.262,35.473,35.473,0,0,1-9.784-3.917,11.062,11.062,0,0,1-3.5-3.5c-6.512-9.712-6.7-32.937-5.533-42.915,1.395-11.594,11.066-16.861,19.424-17.578,8.886-.754,12.876-.226,19.537,5.271,6.625,5.533,7.415,26.424,7.415,26.424s3.764-.754,6.44.641C352.581,395.741,355.853,400.9,354.539,405.417Z" transform="translate(-215.786 -338.88)" fill="#f9c0b9"/>
              <path id="Trazado_225008" data-name="Trazado 225008" d="M293.36,371.878c.027,1.828-.659,3.322-1.539,3.335s-1.611-1.458-1.643-3.285.659-3.322,1.539-3.34S293.329,370.046,293.36,371.878Z" transform="translate(-200.803 -315.482)" fill="#773128"/>
              <path id="Trazado_225009" data-name="Trazado 225009" d="M297.832,371.056c.027,1.828-.659,3.322-1.539,3.335s-1.611-1.458-1.638-3.286.659-3.322,1.534-3.335S297.8,369.228,297.832,371.056Z" transform="translate(-185.079 -318.355)" fill="#773128"/>
              <path id="Trazado_225010" data-name="Trazado 225010" d="M289.514,371.758a15.479,15.479,0,0,1,4.233-2.365c1.918-.537,4.685-.975,4.685-.975s.465-2.117-.51-2.523-5.059.862-6.409,2.153A9.454,9.454,0,0,0,289.514,371.758Z" transform="translate(-203.135 -325.213)" fill="#773128"/>
              <path id="Trazado_225011" data-name="Trazado 225011" d="M295.168,365.594c-1.462.528-.993,3.367-.993,3.367s3.886-.7,6.061.041a21.5,21.5,0,0,1,4.233,2.089s-2.387-4.269-4.513-5.122A6.91,6.91,0,0,0,295.168,365.594Z" transform="translate(-187.014 -326.948)" fill="#773128"/>
              <path id="Trazado_225012" data-name="Trazado 225012" d="M291.825,373.092l10.033-1.832s-.934,5.556-2.767,6.228S291.825,373.092,291.825,373.092Z" transform="translate(-195.017 -306.095)" fill="#fff"/>
              <path id="Trazado_225013" data-name="Trazado 225013" d="M299.121,374.671a.756.756,0,0,1-.4-.117.768.768,0,0,1-.262-1.056c.063-.113,1.647-2.658,6.359-3.092a.811.811,0,0,1,.844.709.781.781,0,0,1-.7.844c-3.868.347-5.122,2.266-5.172,2.347A.79.79,0,0,1,299.121,374.671Z" transform="translate(-172.107 -309.095)" fill="#d87360"/>
              <path id="Trazado_225014" data-name="Trazado 225014" d="M294.942,381.341a.814.814,0,0,1-.266-.05,3.991,3.991,0,0,1-2.843-4.053A4.837,4.837,0,0,1,293.6,373.8a8.145,8.145,0,0,0,1.034-1.25c.528-.858.37-3.123.149-4.346a.779.779,0,0,1,.627-.907.742.742,0,0,1,.9.627c.072.379.659,3.8-.352,5.438a9,9,0,0,1-1.228,1.5c-.736.785-1.372,1.462-1.34,2.329a2.443,2.443,0,0,0,1.819,2.64.78.78,0,0,1-.271,1.512Z" transform="translate(-194.997 -320.111)" fill="#d87360"/>
              <path id="Trazado_225015" data-name="Trazado 225015" d="M341.293,371.23a24.931,24.931,0,0,1-1.128,3.462c-3.164,4.861-9.112,4.707-9.112,4.707s.113,6.815-2.708,10.24a22.063,22.063,0,0,1-9.563,6.549l-1.169,11.973,9.279,4.739-12.515-2.631.415-11.671-10.276-.867-.19-.036-1.584-.262a35.473,35.473,0,0,1-9.784-3.917,10.305,10.305,0,0,1-3.2-3.087c1.092,1.395,5.646,5.835,18.256,3.236,12.727-2.559,19.2-6.738,21.193-11.779a9.13,9.13,0,0,0,.794-3.917S337.98,377.065,341.293,371.23Z" transform="translate(-202.278 -306.2)" fill="#d87360"/>
              <path id="Trazado_225016" data-name="Trazado 225016" d="M372.265,440.724c.113,1.128.262,7.189-.077,34.48h-74.01c-.226-4.667-.487-10.466-.754-16.865v-.185c-.487-12.65-.79-21.157-.79-21.157l-9.9-5.271-3.236-2.031a91.028,91.028,0,0,1,3.349-29.931c2.789-9.143,32.828-19.722,32.828-19.722s3.764,12.8,12.194,13.1c11.937.379,17.542-11.179,17.542-11.179s27.182,9.487,30.08,16.148a48.548,48.548,0,0,1,2.861,28.839l3.841.451.713,9.41Z" transform="translate(-224.783 -275.246)" fill="#fff"/>
              <path id="Trazado_225017" data-name="Trazado 225017" d="M346.678,377.162c-1,2.785-2.911,4.319-4.626,4.662a9.788,9.788,0,0,1-9.3-4.089c-1.837-2.794-2.46-2.816-4.427-1.751-2.974,1.611-10.732,5.52-19.257,5.881-5.75.244-7.726-3.258-9.374-4.4a24.516,24.516,0,0,0-1.2,2.658c-1.3,3.3-6.526,6.314-9.5,6.07-.122-.329-.23-.654-.339-.984a8.922,8.922,0,0,1-.343-5c1.611-5.547,8.281-4.964,8.281-4.964a18.749,18.749,0,0,1-1.246-7.081l.217.415c-.068-.208-.14-.433-.212-.654a8.182,8.182,0,0,1,1.25-3.981c2.87-4.369,23.08-9.888,30.328-5.547,7.262,4.319,7.356,11.012,7.356,11.012a11.612,11.612,0,0,1,9.261,1.052C345.288,371.426,346.367,375.113,346.678,377.162Z" transform="translate(-208.16 -356.821)" fill="#a54d3c"/>
              <path id="Trazado_225018" data-name="Trazado 225018" d="M343.381,459.76s-8.336-9.6-12.813-15.141c-4.333-5.307-19.424-35.27-23.039-37.829-1.467.79-3.164,1.769-4.856,2.9-5.344,3.615-17.579,5.195-22.624,6.246-1.241.266-4.215-.79-3.389-2.405.492-.943,2.41-2.3-.451-1.246-1.241.415-2.9-1.805-1.431-3.349,1.282-1.394.492-1.318-.754-.867-1.58.528-3.236-2.333-1.016-4.066.979-.713,2.071-1.882.036-1.2-2.257.717-3.8-1.241-1.616-3.574a16.321,16.321,0,0,1,5.5-4.179C281.213,392.785,291,391.5,291,391.5a49.941,49.941,0,0,0-4.7-4.179c-2.184-1.616-1.282-5.682,1.164-5.118,2.41.564,6.815,2.41,12.235,4.779a80.26,80.26,0,0,1,11.517,6.964c.568.415.979.717,1.282.907a7.616,7.616,0,0,1,.677.524c8.846,7.866,28.929,34.029,28.929,34.029Z" transform="translate(-270.375 -267.826)" fill="#f9c0b9"/>
              <path id="Trazado_225019" data-name="Trazado 225019" d="M367.987,399.263c-1.318-.113-2.112,0-.528,1.015,1.846,1.133.79,3.692-.492,3.579-3.01-.262-.826.564-.113,1.354,1.2,1.354-1.39,3.123-2.672,3.2-5.118.3-17.353,1.995-23.45-.113a28.672,28.672,0,0,0-5.461-1.552.67.67,0,0,1-.153.338c-1.277,2.184-8.015,24.854-10.272,43.262-2.225,18.445-23.829,12.271-23.08,11.3.681-.907,9.712-26.393,14.081-37.8l.943-2.257s8.963-22.475,10.01-24.321,6.327-8.02,10.917-11.707,8.358-6.625,10.579-7.794c2.184-1.165,4.1,2.523,2.446,4.63a49.058,49.058,0,0,0-3.462,5.312s9.789-1.322,14.532-.266a16.158,16.158,0,0,1,6.4,2.559c2.672,1.7,1.729,3.994-.641,3.877-2.148-.072-.831.717.338,1.2C370.506,396.14,369.644,399.34,367.987,399.263Z" transform="translate(-160.157 -284.016)" fill="#f9c0b9"/>
            </g>
            <g id="window_4" data-name="window 4" transform="translate(269.744 247.458)">
              <rect id="Rectángulo_295661" data-name="Rectángulo 295661" width="115.493" height="63.194" rx="1.825" transform="translate(115.493 63.194) rotate(180)" fill="#fff"/>
              <circle id="Elipse_16236" data-name="Elipse 16236" cx="18.181" cy="18.181" r="18.181" transform="translate(13.44 13.403)" fill="#969aa8"/>
              <path id="Trazado_225020" data-name="Trazado 225020" d="M319.35,423.785a18.192,18.192,0,0,1-22.06.077,13.109,13.109,0,0,1,9-7.154v-2.825a7.828,7.828,0,0,1-5.384-7.6,7.4,7.4,0,1,1,14.758,0,7.9,7.9,0,0,1-5.271,7.6v2.825A13.111,13.111,0,0,1,319.35,423.785Z" transform="translate(-276.678 -377.801)" fill="#fff"/>
              <g id="Grupo_221906" data-name="Grupo 221906" transform="translate(57.836 31.926)">
                <path id="Trazado_225021" data-name="Trazado 225021" d="M305.956,401.308h0Z" transform="translate(-304.07 -399.426)" fill="#fff"/>
                <path id="Trazado_225022" data-name="Trazado 225022" d="M348.715,404.655H307.42a1.882,1.882,0,0,1,0-3.764h41.295a1.882,1.882,0,0,1,0,3.764Z" transform="translate(-305.538 -400.891)" fill="#969aa8"/>
              </g>
              <circle id="Elipse_16237" data-name="Elipse 16237" cx="3.642" cy="3.642" r="3.642" transform="translate(63.936 40.933)" fill="#0f2771"/>
              <circle id="Elipse_16238" data-name="Elipse 16238" cx="3.642" cy="3.642" r="3.642" transform="translate(76.859 40.933)" fill="#feca2e"/>
              <path id="Trazado_225023" data-name="Trazado 225023" d="M319.841,406.529a3.642,3.642,0,1,1-3.642-3.642A3.643,3.643,0,0,1,319.841,406.529Z" transform="translate(-223.044 -361.953)" fill="#d7d9dd"/>
              <rect id="Rectángulo_295662" data-name="Rectángulo 295662" width="41.292" height="7.438" transform="translate(59.721 18.14)" fill="#969aa8"/>
            </g>
            <g id="window_3" data-name="window 3" transform="translate(169.914)">
              <path id="Trazado_225024" data-name="Trazado 225024" d="M451.114,338.986H287.446a8.236,8.236,0,0,0-8.236,8.236V361.38a15.941,15.941,0,0,1-2.279,6.282,17.012,17.012,0,0,1-6.327,4.946l16.78.072c.063,0,163.731,0,163.731,0a8.24,8.24,0,0,0,8.241-8.236V347.222A8.24,8.24,0,0,0,451.114,338.986Z" transform="translate(-270.603 -338.986)" fill="#fff"/>
              <path id="Trazado_225025" data-name="Trazado 225025" d="M282.833,345.688a3.64,3.64,0,1,1-3.642-3.642A3.64,3.64,0,0,1,282.833,345.688Z" transform="translate(-253.213 -328.236)" fill="#969aa8"/>
              <path id="Trazado_225026" data-name="Trazado 225026" d="M288.157,345.688a3.64,3.64,0,1,1-3.638-3.642A3.639,3.639,0,0,1,288.157,345.688Z" transform="translate(-234.509 -328.236)" fill="#969aa8"/>
              <path id="Trazado_225027" data-name="Trazado 225027" d="M293.485,345.688a3.642,3.642,0,1,1-3.642-3.642A3.643,3.643,0,0,1,293.485,345.688Z" transform="translate(-215.806 -328.236)" fill="#969aa8"/>
              <path id="Trazado_225028" data-name="Trazado 225028" d="M298.809,345.688a3.642,3.642,0,1,1-3.642-3.642A3.643,3.643,0,0,1,298.809,345.688Z" transform="translate(-197.102 -328.236)" fill="#969aa8"/>
              <path id="Trazado_225029" data-name="Trazado 225029" d="M304.133,345.688a3.642,3.642,0,1,1-3.642-3.642A3.64,3.64,0,0,1,304.133,345.688Z" transform="translate(-178.398 -328.236)" fill="#969aa8"/>
              <circle id="Elipse_16239" data-name="Elipse 16239" cx="3.642" cy="3.642" r="3.642" transform="translate(142.48 13.811)" fill="#969aa8"/>
              <path id="Trazado_225030" data-name="Trazado 225030" d="M314.781,345.688a3.642,3.642,0,1,1-3.642-3.642A3.64,3.64,0,0,1,314.781,345.688Z" transform="translate(-140.991 -328.236)" fill="#969aa8"/>
            </g>
            <g id="window_2" data-name="window 2" transform="translate(0 218.415)">
              <rect id="Rectángulo_295663" data-name="Rectángulo 295663" width="115.493" height="63.194" rx="1.825" transform="translate(115.493 63.194) rotate(180)" fill="#fff"/>
              <path id="Trazado_225031" data-name="Trazado 225031" d="M272.294,408.531a18.181,18.181,0,1,1-18.179-18.179A18.18,18.18,0,0,1,272.294,408.531Z" transform="translate(-222.492 -376.947)" fill="#969aa8"/>
              <path id="Trazado_225032" data-name="Trazado 225032" d="M259.581,417.35a18.191,18.191,0,0,1-22.06.077,13.109,13.109,0,0,1,9-7.153v-2.825a7.829,7.829,0,0,1-5.384-7.6,7.4,7.4,0,1,1,14.758,0,7.9,7.9,0,0,1-5.271,7.6v2.825A13.1,13.1,0,0,1,259.581,417.35Z" transform="translate(-216.909 -371.365)" fill="#fff"/>
              <g id="Grupo_221907" data-name="Grupo 221907" transform="translate(57.836 31.927)">
                <path id="Trazado_225033" data-name="Trazado 225033" d="M246.187,394.873h0Z" transform="translate(-244.301 -392.991)" fill="#fff"/>
                <path id="Trazado_225034" data-name="Trazado 225034" d="M288.946,398.22H247.651a1.882,1.882,0,0,1,0-3.764h41.295a1.882,1.882,0,0,1,0,3.764Z" transform="translate(-245.769 -394.456)" fill="#969aa8"/>
              </g>
              <g id="Grupo_221908" data-name="Grupo 221908" transform="translate(57.836 42.447)">
                <path id="Trazado_225035" data-name="Trazado 225035" d="M246.187,397.2h0Z" transform="translate(-244.301 -395.322)" fill="#fff"/>
                <path id="Trazado_225036" data-name="Trazado 225036" d="M288.946,400.551H247.651a1.882,1.882,0,0,1,0-3.764h41.295a1.882,1.882,0,0,1,0,3.764Z" transform="translate(-245.769 -396.787)" fill="#969aa8"/>
              </g>
              <rect id="Rectángulo_295664" data-name="Rectángulo 295664" width="41.292" height="7.437" transform="translate(59.721 18.141)" fill="#969aa8"/>
            </g>
            <g id="window_1" data-name="window 1" transform="translate(45.89 275.281)">
              <path id="Trazado_225037" data-name="Trazado 225037" d="M415.089,399.986c-.063,0-163.731,0-163.731,0a8.236,8.236,0,0,0-8.236,8.236v17.227a8.236,8.236,0,0,0,8.236,8.236H415.026a8.24,8.24,0,0,0,8.241-8.236V411.287a15.957,15.957,0,0,1,2.274-6.282,17.01,17.01,0,0,1,6.332-4.946Z" transform="translate(-243.122 -399.982)" fill="#fff"/>
              <path id="Trazado_225038" data-name="Trazado 225038" d="M278.381,406.417a3.642,3.642,0,1,1,3.642,3.642A3.643,3.643,0,0,1,278.381,406.417Z" transform="translate(-119.253 -390.17)" fill="#969aa8"/>
              <circle id="Elipse_16240" data-name="Elipse 16240" cx="3.642" cy="3.642" r="3.642" transform="translate(135.099 12.606)" fill="#969aa8"/>
              <path id="Trazado_225039" data-name="Trazado 225039" d="M267.733,406.417a3.64,3.64,0,1,1,3.638,3.642A3.642,3.642,0,0,1,267.733,406.417Z" transform="translate(-156.661 -390.17)" fill="#969aa8"/>
              <circle id="Elipse_16241" data-name="Elipse 16241" cx="3.642" cy="3.642" r="3.642" transform="translate(87.042 12.606)" fill="#969aa8"/>
              <path id="Trazado_225040" data-name="Trazado 225040" d="M257.084,406.417a3.642,3.642,0,1,1,3.642,3.642A3.646,3.646,0,0,1,257.084,406.417Z" transform="translate(-194.072 -390.17)" fill="#969aa8"/>
              <path id="Trazado_225041" data-name="Trazado 225041" d="M251.76,406.417a3.642,3.642,0,1,1,3.642,3.642A3.643,3.643,0,0,1,251.76,406.417Z" transform="translate(-212.776 -390.17)" fill="#969aa8"/>
              <path id="Trazado_225042" data-name="Trazado 225042" d="M246.436,406.417a3.642,3.642,0,1,1,3.642,3.642A3.643,3.643,0,0,1,246.436,406.417Z" transform="translate(-231.479 -390.17)" fill="#969aa8"/>
            </g>
            <g id="bubbles" transform="translate(75.189 31.159)">
              <path id="Trazado_225043" data-name="Trazado 225043" d="M290.164,379.439a2.545,2.545,0,1,1-2.545-2.545A2.548,2.548,0,0,1,290.164,379.439Z" transform="translate(-125.043 -236.97)" fill="#fff"/>
              <path id="Trazado_225044" data-name="Trazado 225044" d="M288.87,369.576a1.519,1.519,0,1,1-1.516-1.521A1.52,1.52,0,0,1,288.87,369.576Z" transform="translate(-122.373 -268.022)" fill="#fff"/>
              <circle id="Elipse_16242" data-name="Elipse 16242" cx="2.742" cy="2.742" r="2.742" transform="translate(244.489 148.648)" fill="#fff"/>
              <circle id="Elipse_16243" data-name="Elipse 16243" cx="1.766" cy="1.766" r="1.766" transform="translate(252.301 139.923)" fill="#fff"/>
              <path id="Trazado_225045" data-name="Trazado 225045" d="M307.516,357.614a2.268,2.268,0,1,1-2.266-2.266A2.267,2.267,0,0,1,307.516,357.614Z" transform="translate(-62.134 -312.663)" fill="#fff"/>
              <path id="Trazado_225046" data-name="Trazado 225046" d="M254.791,365.984a2.588,2.588,0,1,1-2.586-2.59A2.59,2.59,0,0,1,254.791,365.984Z" transform="translate(-249.614 -284.397)" fill="#fff"/>
              <path id="Trazado_225047" data-name="Trazado 225047" d="M259.991,368.343a3.644,3.644,0,1,1-3.647-3.642A3.648,3.648,0,0,1,259.991,368.343Z" transform="translate(-238.766 -279.805)" fill="#fff"/>
              <circle id="Elipse_16244" data-name="Elipse 16244" cx="1.879" cy="1.879" r="1.879" transform="translate(89.011 90.591)" fill="#fff"/>
              <path id="Trazado_225048" data-name="Trazado 225048" d="M268.957,347.4a1.51,1.51,0,1,1-1.507-1.512A1.508,1.508,0,0,1,268.957,347.4Z" transform="translate(-192.266 -345.89)" fill="#fff"/>
              <path id="Trazado_225049" data-name="Trazado 225049" d="M255.1,352.147a2.169,2.169,0,1,1-2.166-2.171A2.167,2.167,0,0,1,255.1,352.147Z" transform="translate(-245.584 -331.536)" fill="#fff"/>
            </g>
          </g>
        </g>
      </g>
    </g>
  </g>
</svg>
