<svg xmlns="http://www.w3.org/2000/svg" width="41.456" height="41.456" viewBox="0 0 41.456 41.456">
  <g id="Grupo_222430" data-name="Grupo 222430" transform="translate(-1022 -8648.814)">
    <g id="Grupo_222429" data-name="Grupo 222429">
      <g id="Grupo_222428" data-name="Grupo 222428">
        <g id="Grupo_141335" data-name="Grupo 141335" transform="translate(1022 8648.814)">
          <path id="Trazado_197601" data-name="Trazado 197601" d="M3155.275,5227.01a3.216,3.216,0,1,0-4.515,0,3.872,3.872,0,0,0-2.1,3.436v1.993a.682.682,0,1,0,1.364,0v-1.993a2.51,2.51,0,0,1,2.508-2.507h.964a2.51,2.51,0,0,1,2.508,2.507v1.993a.682.682,0,1,0,1.364,0v-1.993A3.872,3.872,0,0,0,3155.275,5227.01Zm-2.257-4.14a1.852,1.852,0,1,1-1.853,1.853A1.854,1.854,0,0,1,3153.018,5222.87Z" transform="translate(-3132.235 -5206.57)" fill="#0f2771"/>
          <path id="Trazado_197602" data-name="Trazado 197602" d="M3133.975,5191.128h-9.613a10.417,10.417,0,0,0-9.751-9.687v-9.678a.682.682,0,0,0-1.364,0v9.686a10.417,10.417,0,0,0-9.643,9.679h-9.721a.682.682,0,1,0,0,1.363h9.719a10.418,10.418,0,0,0,9.646,9.71v9.654a.682.682,0,0,0,1.364,0v-9.646a10.418,10.418,0,0,0,9.754-9.718h9.611a.682.682,0,1,0,0-1.363Zm-19.365,9.714v-.714a.682.682,0,1,0-1.364,0v.706a9.052,9.052,0,0,1-8.278-8.343h.732a.682.682,0,1,0,0-1.363h-.73a9.052,9.052,0,0,1,8.276-8.312v.766a.682.682,0,0,0,1.364,0v-.774a9.051,9.051,0,0,1,8.384,8.32h-.929a.682.682,0,1,0,0,1.363H3123A9.052,9.052,0,0,1,3114.611,5200.843Z" transform="translate(-3093.201 -5171.082)" fill="#0f2771"/>
          <path id="Trazado_197603" data-name="Trazado 197603" d="M3097.838,5208.354a.682.682,0,0,0,.682-.682v-1.5a1.721,1.721,0,0,1,1.719-1.719h.726a1.721,1.721,0,0,1,1.719,1.719v1.5a.682.682,0,1,0,1.363,0v-1.5a3.081,3.081,0,0,0-1.479-2.628,2.589,2.589,0,1,0-3.932,0,3.082,3.082,0,0,0-1.48,2.628v1.5A.682.682,0,0,0,3097.838,5208.354Zm2.764-7.717a1.226,1.226,0,1,1-1.226,1.226A1.227,1.227,0,0,1,3100.6,5200.638Z" transform="translate(-3095.984 -5190.923)" fill="#0f2771"/>
          <path id="Trazado_197604" data-name="Trazado 197604" d="M3127.916,5182.3a.682.682,0,0,0,.682-.682v-1.5a1.721,1.721,0,0,1,1.719-1.719h.726a1.721,1.721,0,0,1,1.719,1.719v1.5a.682.682,0,0,0,1.364,0v-1.5a3.08,3.08,0,0,0-1.479-2.628,2.59,2.59,0,1,0-3.932,0,3.08,3.08,0,0,0-1.48,2.628v1.5A.682.682,0,0,0,3127.916,5182.3Zm2.764-7.716a1.226,1.226,0,1,1-1.226,1.226A1.227,1.227,0,0,1,3130.68,5174.587Z" transform="translate(-3117.153 -5172.589)" fill="#0f2771"/>
          <path id="Trazado_197605" data-name="Trazado 197605" d="M3206.786,5208.354a.682.682,0,0,0,.682-.682v-1.5a1.721,1.721,0,0,1,1.719-1.719h.725a1.721,1.721,0,0,1,1.719,1.719v1.5a.682.682,0,1,0,1.364,0v-1.5a3.082,3.082,0,0,0-1.479-2.628,2.59,2.59,0,1,0-3.932,0,3.081,3.081,0,0,0-1.48,2.628v1.5A.682.682,0,0,0,3206.786,5208.354Zm2.764-7.717a1.226,1.226,0,1,1-1.226,1.226A1.227,1.227,0,0,1,3209.549,5200.638Z" transform="translate(-3172.661 -5190.923)" fill="#0f2771"/>
          <path id="Trazado_197606" data-name="Trazado 197606" d="M3102.568,5251.635a2.589,2.589,0,1,0-3.932,0,3.082,3.082,0,0,0-1.48,2.628v1.5a.682.682,0,0,0,1.364,0v-1.5a1.721,1.721,0,0,1,1.719-1.719h.726a1.721,1.721,0,0,1,1.719,1.719v1.5a.682.682,0,1,0,1.363,0v-1.5A3.081,3.081,0,0,0,3102.568,5251.635Zm-1.966-2.906a1.226,1.226,0,1,1-1.226,1.226A1.227,1.227,0,0,1,3100.6,5248.729Z" transform="translate(-3095.984 -5224.77)" fill="#0f2771"/>
          <path id="Trazado_197607" data-name="Trazado 197607" d="M3211.516,5251.635a2.59,2.59,0,1,0-3.932,0,3.081,3.081,0,0,0-1.48,2.628v1.5a.682.682,0,0,0,1.364,0v-1.5a1.721,1.721,0,0,1,1.719-1.719h.725a1.721,1.721,0,0,1,1.719,1.719v1.5a.682.682,0,0,0,1.364,0v-1.5A3.082,3.082,0,0,0,3211.516,5251.635Zm-1.966-2.906a1.226,1.226,0,1,1-1.226,1.226A1.227,1.227,0,0,1,3209.549,5248.729Z" transform="translate(-3172.661 -5224.77)" fill="#0f2771"/>
          <path id="Trazado_197608" data-name="Trazado 197608" d="M3176.708,5182.3a.682.682,0,0,0,.682-.682v-1.5a1.721,1.721,0,0,1,1.719-1.719h.726a1.721,1.721,0,0,1,1.719,1.719v1.5a.682.682,0,0,0,1.364,0v-1.5a3.08,3.08,0,0,0-1.479-2.628,2.59,2.59,0,1,0-3.932,0,3.08,3.08,0,0,0-1.48,2.628v1.5A.682.682,0,0,0,3176.708,5182.3Zm2.764-7.716a1.226,1.226,0,1,1-1.226,1.226A1.227,1.227,0,0,1,3179.472,5174.587Z" transform="translate(-3151.492 -5172.589)" fill="#0f2771"/>
          <path id="Trazado_197609" data-name="Trazado 197609" d="M3132.646,5280.687a2.59,2.59,0,1,0-3.932,0,3.08,3.08,0,0,0-1.48,2.628v1.5a.682.682,0,0,0,1.364,0v-1.5a1.721,1.721,0,0,1,1.719-1.719h.726a1.721,1.721,0,0,1,1.719,1.719v1.5a.682.682,0,0,0,1.364,0v-1.5A3.08,3.08,0,0,0,3132.646,5280.687Zm-1.966-2.907a1.226,1.226,0,1,1-1.226,1.226A1.227,1.227,0,0,1,3130.68,5277.78Z" transform="translate(-3117.153 -5245.215)" fill="#0f2771"/>
          <path id="Trazado_197610" data-name="Trazado 197610" d="M3181.438,5280.687a2.59,2.59,0,1,0-3.932,0,3.08,3.08,0,0,0-1.48,2.628v1.5a.682.682,0,0,0,1.364,0v-1.5a1.721,1.721,0,0,1,1.719-1.719h.726a1.721,1.721,0,0,1,1.719,1.719v1.5a.682.682,0,0,0,1.364,0v-1.5A3.08,3.08,0,0,0,3181.438,5280.687Zm-1.966-2.907a1.226,1.226,0,1,1-1.226,1.226A1.227,1.227,0,0,1,3179.472,5277.78Z" transform="translate(-3151.492 -5245.215)" fill="#0f2771"/>
        </g>
      </g>
    </g>
  </g>
</svg>
