<svg xmlns="http://www.w3.org/2000/svg" width="531" height="322" viewBox="0 0 531 322">
  <g id="Grupo_222347" data-name="Grupo 222347" transform="translate(6608 10642)">
    <g id="Grupo_222346" data-name="Grupo 222346">
      <g id="Grupo_222345" data-name="Grupo 222345">
        <g id="Grupo_222344" data-name="Grupo 222344">
          <g id="Grupo_222274" data-name="Grupo 222274">
            <rect id="Rectángulo_295899" data-name="Rectángulo 295899" width="531" height="322" transform="translate(-6608 -10642)" fill="none"/>
            <g id="_1b" data-name="1b" transform="translate(-6606.91 -10758.49)">
              <g id="Layer_1" transform="translate(2.91 133.49)">
                <ellipse id="Elipse_4918" data-name="Elipse 4918" cx="256.029" cy="6.48" rx="256.029" ry="6.48" transform="translate(9.955 274.894)" fill="#e0dfe5"/>
                <g id="Grupo_141071" data-name="Grupo 141071">
                  <path id="Trazado_191684" data-name="Trazado 191684" d="M335.11,142.985V339.454a9.495,9.495,0,0,1-9.5,9.5H12.414a9.5,9.5,0,0,1-9.5-9.5V142.985a9.5,9.5,0,0,1,9.5-9.5h313.2a9.495,9.495,0,0,1,9.5,9.5Z" transform="translate(-2.91 -133.49)" fill="#f6f6f6"/>
                  <path id="Trazado_191685" data-name="Trazado 191685" d="M335.11,142.985v3.867H2.91v-3.867a9.5,9.5,0,0,1,9.5-9.5h313.2a9.495,9.495,0,0,1,9.5,9.5Z" transform="translate(-2.91 -133.49)" fill="#c7bfce"/>
                  <path id="Trazado_191686" data-name="Trazado 191686" d="M376.552,143.846a.293.293,0,0,1-.234-.117.286.286,0,0,1,.067-.409l8.351-6.121a.293.293,0,0,1,.342.476l-8.351,6.121a.277.277,0,0,1-.175.058Z" transform="translate(-64.47 -134.092)" fill="#40507f"/>
                  <path id="Trazado_191687" data-name="Trazado 191687" d="M384.9,143.845a.278.278,0,0,1-.175-.058l-8.351-6.121a.293.293,0,0,1,.342-.476l8.351,6.121a.293.293,0,0,1,.067.409.3.3,0,0,1-.234.117Z" transform="translate(-64.469 -134.091)" fill="#40507f"/>
                  <path id="Trazado_191688" data-name="Trazado 191688" d="M366.409,143.846H355.552a.3.3,0,0,1-.292-.292v-6.121a.3.3,0,0,1,.292-.292h10.857a.3.3,0,0,1,.292.292v6.121A.3.3,0,0,1,366.409,143.846Zm-10.564-.585h10.272v-5.537H355.845Z" transform="translate(-61.008 -134.092)" fill="#40507f"/>
                  <path id="Trazado_191689" data-name="Trazado 191689" d="M346.491,141.395h-8.769a.292.292,0,1,1,0-.585h8.769a.292.292,0,1,1,0,.585Z" transform="translate(-58.068 -134.697)" fill="#40507f"/>
                  <g id="Grupo_141070" data-name="Grupo 141070" transform="translate(23.392 39.317)">
                    <path id="Trazado_191690" data-name="Trazado 191690" d="M197.918,192.871v75.653a12.3,12.3,0,0,1-12.3,12.3H43.221a12.3,12.3,0,0,1-12.3-12.3V192.871a12.3,12.3,0,0,1,12.3-12.3h142.4a12.307,12.307,0,0,1,12.3,12.3Z" transform="translate(-30.92 -180.57)" fill="#b9b2c1"/>
                    <g id="Grupo_141067" data-name="Grupo 141067">
                      <g id="Grupo_141065" data-name="Grupo 141065" transform="translate(0 16.285)">
                        <rect id="Rectángulo_44047" data-name="Rectángulo 44047" width="166.998" height="0.835" fill="#e0dfe5"/>
                        <path id="Trazado_191691" data-name="Trazado 191691" d="M197.918,220.74v.835H31.2a.407.407,0,0,1-.276-.109v-.618a.407.407,0,0,1,.276-.109H197.918Z" transform="translate(-30.92 -203.478)" fill="#e0dfe5"/>
                        <path id="Trazado_191692" data-name="Trazado 191692" d="M197.918,240.205v.785a.745.745,0,0,1-.142.025H30.92v-.835H197.776A.39.39,0,0,1,197.918,240.205Z" transform="translate(-30.92 -206.684)" fill="#e0dfe5"/>
                        <path id="Trazado_191693" data-name="Trazado 191693" d="M197.918,260.85v.835H31.054a.347.347,0,0,1-.134-.025v-.785a.62.62,0,0,1,.134-.025Z" transform="translate(-30.92 -210.092)" fill="#e0dfe5"/>
                        <path id="Trazado_191694" data-name="Trazado 191694" d="M197.918,281.535v.785a.745.745,0,0,1-.142.025H30.92v-.835H197.776A.27.27,0,0,1,197.918,281.535Z" transform="translate(-30.92 -213.498)" fill="#e0dfe5"/>
                      </g>
                      <g id="Grupo_141066" data-name="Grupo 141066" transform="translate(16.619)">
                        <rect id="Rectángulo_44048" data-name="Rectángulo 44048" width="0.835" height="100.255" fill="#e0dfe5"/>
                        <rect id="Rectángulo_44049" data-name="Rectángulo 44049" width="0.835" height="100.255" transform="translate(17.253)" fill="#e0dfe5"/>
                        <rect id="Rectángulo_44050" data-name="Rectángulo 44050" width="0.835" height="100.255" transform="translate(33.496)" fill="#e0dfe5"/>
                        <rect id="Rectángulo_44051" data-name="Rectángulo 44051" width="0.835" height="100.255" transform="translate(50.75)" fill="#e0dfe5"/>
                        <rect id="Rectángulo_44052" data-name="Rectángulo 44052" width="0.835" height="100.255" transform="translate(68.012)" fill="#e0dfe5"/>
                      </g>
                      <rect id="Rectángulo_44053" data-name="Rectángulo 44053" width="0.835" height="100.255" transform="translate(101.425)" fill="#e0dfe5"/>
                      <rect id="Rectángulo_44054" data-name="Rectángulo 44054" width="0.835" height="100.255" transform="translate(118.686)" fill="#e0dfe5"/>
                      <rect id="Rectángulo_44055" data-name="Rectángulo 44055" width="0.835" height="100.255" transform="translate(134.921)" fill="#e0dfe5"/>
                      <rect id="Rectángulo_44056" data-name="Rectángulo 44056" width="0.835" height="100.255" transform="translate(152.183)" fill="#e0dfe5"/>
                    </g>
                    <g id="Grupo_141069" data-name="Grupo 141069" transform="translate(73.381 56.053)">
                      <rect id="Rectángulo_44057" data-name="Rectángulo 44057" width="129.259" height="75.97" rx="4.64" fill="#c7bfce"/>
                      <g id="Grupo_141068" data-name="Grupo 141068" transform="translate(25.496 13.203)">
                        <rect id="Rectángulo_44058" data-name="Rectángulo 44058" width="7.6" height="20.869" transform="translate(0 28.619)" fill="#e0dfe5"/>
                        <rect id="Rectángulo_44059" data-name="Rectángulo 44059" width="7.6" height="20.869" transform="translate(69.54 28.619)" fill="#e0dfe5"/>
                        <rect id="Rectángulo_44060" data-name="Rectángulo 44060" width="7.6" height="31.534" transform="translate(17.387 17.871)" fill="#e0dfe5"/>
                        <rect id="Rectángulo_44061" data-name="Rectángulo 44061" width="7.6" height="40.612" transform="translate(34.774 8.794)" fill="#e0dfe5"/>
                        <rect id="Rectángulo_44062" data-name="Rectángulo 44062" width="7.6" height="49.581" transform="translate(52.161)" fill="#e0dfe5"/>
                      </g>
                    </g>
                    <path id="Trazado_191695" data-name="Trazado 191695" d="M74.724,220.442a4.042,4.042,0,1,1-4.042-4.042,4.04,4.04,0,0,1,4.042,4.042Z" transform="translate(-36.81 -186.478)" fill="#f7b369"/>
                    <path id="Trazado_191696" data-name="Trazado 191696" d="M94.674,261.052a4.042,4.042,0,1,1-4.042-4.042A4.045,4.045,0,0,1,94.674,261.052Z" transform="translate(-40.099 -193.174)" fill="#5c69a5"/>
                    <path id="Trazado_191697" data-name="Trazado 191697" d="M176.784,220.942a4.042,4.042,0,1,1-4.042-4.042A4.04,4.04,0,0,1,176.784,220.942Z" transform="translate(-53.638 -186.56)" fill="#92b4ea"/>
                  </g>
                  <path id="Trazado_191698" data-name="Trazado 191698" d="M356.815,194.61H284.06a3.9,3.9,0,1,1,0-7.8h72.755a3.9,3.9,0,1,1,0,7.8Z" transform="translate(-48.625 -142.282)" fill="#4dd0e1"/>
                  <path id="Trazado_191699" data-name="Trazado 191699" d="M356.815,211.95H284.06a3.9,3.9,0,1,1,0-7.8h72.755a3.9,3.9,0,1,1,0,7.8Z" transform="translate(-48.625 -145.141)" fill="#4dd0e1"/>
                  <path id="Trazado_191700" data-name="Trazado 191700" d="M356.815,229.2H284.06a3.9,3.9,0,1,1,0-7.8h72.755a3.9,3.9,0,1,1,0,7.8Z" transform="translate(-48.625 -147.985)" fill="#4dd0e1"/>
                  <path id="Trazado_191701" data-name="Trazado 191701" d="M361.011,260.96h-51.5a3.9,3.9,0,1,1,0-7.8h51.5a3.9,3.9,0,1,1,0,7.8Z" transform="translate(-52.821 -153.222)" fill="#0f2771"/>
                  <path id="Trazado_191702" data-name="Trazado 191702" d="M361.011,278.71h-51.5a3.9,3.9,0,1,1,0-7.8h51.5a3.9,3.9,0,0,1,0,7.8Z" transform="translate(-52.821 -156.149)" fill="#0f2771"/>
                  <path id="Trazado_191703" data-name="Trazado 191703" d="M361.011,310.46h-51.5a3.9,3.9,0,1,1,0-7.8h51.5a3.9,3.9,0,1,1,0,7.8Z" transform="translate(-52.821 -161.384)" fill="#f7b369"/>
                  <path id="Trazado_191704" data-name="Trazado 191704" d="M361.011,328.21h-51.5a3.9,3.9,0,1,1,0-7.8h51.5a3.9,3.9,0,1,1,0,7.8Z" transform="translate(-52.821 -164.311)" fill="#f7b369"/>
                </g>
                <g id="Grupo_141072" data-name="Grupo 141072" transform="translate(356.401 16.577)">
                  <path id="Trazado_191705" data-name="Trazado 191705" d="M537.017,156.572v59.995a3.217,3.217,0,0,1-3.215,3.215H432.9a3.021,3.021,0,0,1-1.136-.217,2.484,2.484,0,0,1-.476-.225,3.214,3.214,0,0,1-1.6-2.781V156.564a3.224,3.224,0,0,1,3.215-3.224H533.8a3.218,3.218,0,0,1,3.215,3.224Z" transform="translate(-429.68 -153.34)" fill="#e0dfe5"/>
                  <path id="Trazado_191706" data-name="Trazado 191706" d="M537.332,218.263v1.812a3.217,3.217,0,0,1-3.215,3.215H433.444a4.317,4.317,0,0,1-1.37-.217,3.051,3.051,0,0,1-.484-.184v-.042l.8-4.234,21.471-30.507,5.052,8.284,15.166-21.771L489.271,195.1l2.864-4.827,12.944,13.971,2.53-2.564,13.12,11.09,2.764-5.5,9.52,10.247,1.061-3.424,3.257,4.192Z" transform="translate(-429.995 -156.849)" fill="#0f2771"/>
                  <path id="Trazado_191707" data-name="Trazado 191707" d="M529.927,222.149H432.9a3.12,3.12,0,0,1-1.62-.443,3.183,3.183,0,0,1-1.6-2.773v-3.867l17.738-32.277,4.409,9.27,13.245-24.36,13.27,22.907,2.505-5.4,11.307,15.633,2.213-2.873,11.466,12.41,2.405-6.163,8.326,11.466.919-3.833,12.443,10.314Z" transform="translate(-429.68 -155.708)" fill="#c7bfce"/>
                  <path id="Trazado_191708" data-name="Trazado 191708" d="M453.092,185.956a2.706,2.706,0,1,1-2.706-2.706A2.705,2.705,0,0,1,453.092,185.956Z" transform="translate(-432.648 -158.272)" fill="#fff"/>
                  <path id="Trazado_191709" data-name="Trazado 191709" d="M509.892,203.406a2.706,2.706,0,1,1-2.706-2.706A2.705,2.705,0,0,1,509.892,203.406Z" transform="translate(-442.013 -161.149)" fill="#fff"/>
                  <path id="Trazado_191710" data-name="Trazado 191710" d="M493.122,186.636a2.706,2.706,0,1,1-2.706-2.706A2.705,2.705,0,0,1,493.122,186.636Z" transform="translate(-439.248 -158.384)" fill="#fff"/>
                  <path id="Trazado_191711" data-name="Trazado 191711" d="M474.232,167.166a2.706,2.706,0,1,1-2.706-2.706A2.705,2.705,0,0,1,474.232,167.166Z" transform="translate(-436.134 -155.174)" fill="#fff"/>
                  <path id="Trazado_191712" data-name="Trazado 191712" d="M526.262,210.876a2.706,2.706,0,1,1-2.706-2.706A2.705,2.705,0,0,1,526.262,210.876Z" transform="translate(-444.713 -162.381)" fill="#fff"/>
                </g>
                <g id="Grupo_141073" data-name="Grupo 141073" transform="translate(188.518 198.315)">
                  <path id="Trazado_191713" data-name="Trazado 191713" d="M234.663,406.521a20.888,20.888,0,0,1-1.2-28,19.8,19.8,0,0,1,1.395-1.537,20.789,20.789,0,0,1,14.055-6,18.452,18.452,0,0,1,1.921.042h.267c.251.017.5.042.76.075.426.05.852.109,1.269.184s.818.159,1.219.242c.05.017.092.025.15.042.326.083.651.167.977.267.025,0,.042,0,.05.017.192.05.376.117.568.184a.526.526,0,0,1,.225.084c.451.15.894.326,1.345.518.276.117.551.234.827.359.175.075.351.159.518.251s.342.167.5.259c.326.175.651.367.969.56.376.234.752.484,1.119.743a20.665,20.665,0,0,1,2.8,2.363,20.89,20.89,0,0,1,3.992,23.642,20.4,20.4,0,0,1-4.184,5.9,20.89,20.89,0,0,1-29.538-.192Z" transform="translate(-228.649 -370.962)" fill="#f7b369"/>
                  <path id="Trazado_191714" data-name="Trazado 191714" d="M272.517,401.143l-18.857-8.969,3.842-16.143,4.3-3.082a20.116,20.116,0,0,1,3.925,2.18,20.868,20.868,0,0,1,6.8,26.014Z" transform="translate(-232.773 -371.289)" fill="#0f2771"/>
                  <path id="Trazado_191715" data-name="Trazado 191715" d="M250.479,391.838,234.42,378.51a19.807,19.807,0,0,1,1.395-1.537,20.789,20.789,0,0,1,14.055-6,18.435,18.435,0,0,1,1.921.042Z" transform="translate(-229.6 -370.961)" fill="#40507f"/>
                  <path id="Trazado_191716" data-name="Trazado 191716" d="M253.53,391.84l-.61-20.861a18.435,18.435,0,0,1,1.921.042h.267c.251.017.5.042.76.075.426.05.852.109,1.269.184s.818.159,1.219.242c.05.017.092.025.15.042.326.084.651.167.977.267.025,0,.042,0,.05.017.192.05.376.117.568.184a.526.526,0,0,1,.225.084,18.733,18.733,0,0,1,2.171.877c.175.075.351.159.518.251s.342.167.5.259c.326.175.651.367.969.56.376.234.752.484,1.119.743L253.53,391.84Z" transform="translate(-232.651 -370.962)" fill="#92b4ea"/>
                </g>
                <g id="Grupo_141074" data-name="Grupo 141074" transform="translate(286.174 64.738)">
                  <path id="Trazado_191717" data-name="Trazado 191717" d="M400.859,438.242l4.326-6.3L390.127,421.79l-6.6,5.687,10.1,11.775Z" transform="translate(-351.843 -245.764)" fill="#f48462"/>
                  <path id="Trazado_191718" data-name="Trazado 191718" d="M439.3,434.969l-.209,10.965,19.391-.209-.827-11.775Z" transform="translate(-361.004 -247.769)" fill="#f48462"/>
                  <path id="Trazado_191719" data-name="Trazado 191719" d="M407.262,462.513a.777.777,0,0,1-.635-.919c.351-2.088,1.612-7.925,4.919-10.405,4.059-3.048,12.577-4.267,15.667-6.3s6.556-6.931,8.4-6,5.328,5.194,10.355,4.585,7.349-1.829,8.7-.61,2.13,18.272,1.545,19.291-7.666.075-8.284.242-2.355-3.9-3.516-3.29-2.58,2.514-4.284,3.391c-1.6.818-27.809.693-32.878.017Z" transform="translate(-355.649 -248.564)" fill="#0f2771"/>
                  <path id="Trazado_191720" data-name="Trazado 191720" d="M424.35,352.52l2.363-46.5,28.978-.2a137.044,137.044,0,0,1,4.535,23.55c.985,11.575,3.549,85.081,3.157,86.092s-32.528,2.23-34.5,1.019-4.535-63.961-4.535-63.961Z" transform="translate(-358.573 -226.642)" fill="#feca2e"/>
                  <path id="Trazado_191721" data-name="Trazado 191721" d="M345.832,427.507a.76.76,0,0,1-.008-1.111c1.487-1.537,5.862-5.67,10.038-5.879,5.128-.259,12.944,3.474,16.686,3.516s9.428-2.088,10.447-.292,1.5,7.266,6.055,9.57,7.19,2.58,7.625,4.343-8.618,16.318-9.687,16.836-6.455-4.209-7.065-4.418.242-4.543-1.069-4.685-3.583.643-5.512.418c-1.8-.209-23.65-14.923-27.509-18.306Z" transform="translate(-345.586 -245.552)" fill="#0f2771"/>
                  <path id="Trazado_191722" data-name="Trazado 191722" d="M414.383,305.57s-34.106,92.389-33.714,94.418,26.423,16.443,27.993,16.443,13.011-20.911,13.011-20.911l1.378-89.75-8.677-.2Z" transform="translate(-351.37 -226.601)" fill="#feca2e"/>
                  <path id="Trazado_191723" data-name="Trazado 191723" d="M438.1,447.891a.3.3,0,0,1-.167-.05l-4.71-3.257a.294.294,0,0,1,.334-.484l4.71,3.257a.293.293,0,0,1-.167.534Z" transform="translate(-360.016 -249.434)" fill="#fff"/>
                  <path id="Trazado_191724" data-name="Trazado 191724" d="M432.671,450.261a.277.277,0,0,1-.175-.058l-3.7-2.806a.286.286,0,0,1-.058-.409.294.294,0,0,1,.409-.058l3.7,2.806a.286.286,0,0,1,.058.409A.293.293,0,0,1,432.671,450.261Z" transform="translate(-359.287 -249.9)" fill="#fff"/>
                  <path id="Trazado_191725" data-name="Trazado 191725" d="M382.266,429.936a.291.291,0,0,1-.242-.134L378.9,425a.3.3,0,0,1,.083-.409.3.3,0,0,1,.409.083l3.123,4.8a.3.3,0,0,1-.083.409.275.275,0,0,1-.159.05Z" transform="translate(-351.071 -246.219)" fill="#fff"/>
                  <path id="Trazado_191726" data-name="Trazado 191726" d="M374.926,428.425a.284.284,0,0,1-.251-.142l-2.363-4a.292.292,0,1,1,.5-.3l2.363,4a.3.3,0,0,1-.1.4.34.34,0,0,1-.15.042Z" transform="translate(-349.986 -246.102)" fill="#fff"/>
                  <path id="Trazado_191727" data-name="Trazado 191727" d="M458.886,320.7c-5.253,0-8.468-6.531-8.5-6.606a.293.293,0,0,1,.526-.259c.033.075,3.674,7.441,9.362,6.1a.284.284,0,0,1,.351.217.29.29,0,0,1-.217.351,6.565,6.565,0,0,1-1.52.184Z" transform="translate(-362.862 -227.938)" fill="#40507f"/>
                  <path id="Trazado_191728" data-name="Trazado 191728" d="M426.453,401.981a.29.29,0,0,1-.292-.309l3.591-75.453-7.858-5.186a.3.3,0,1,1,.326-.493l7.992,5.278a.321.321,0,0,1,.134.259l-3.6,75.62a.287.287,0,0,1-.292.276Z" transform="translate(-358.146 -229.061)" fill="#40507f"/>
                  <path id="Trazado_191729" data-name="Trazado 191729" d="M435.439,246.619s-7.942.359-11.09,6.723-5.528,44.278-5.528,44.278a56.536,56.536,0,0,0,21.654,3.725c12.852-.167,17.2-3.5,17.2-3.5l2.472-23.383s-1.036-24.644-4.234-26.373-15.149-2.839-20.469-1.47Z" transform="translate(-357.661 -216.78)" fill="#68b6d8"/>
                  <path id="Trazado_191730" data-name="Trazado 191730" d="M438.432,220.505s-4.034-7.817-.225-9.22,8,3,8,3,8.268,1.228,11.157,5.862-5.328,11.976-5.328,11.976l-13.612-11.616Z" transform="translate(-360.588 -211.009)"/>
                  <path id="Trazado_191731" data-name="Trazado 191731" d="M451.162,238.208l.025,7.683s-1.378,2.213-5.871,2.589c-3.349.284-4.526-.468-4.526-.468l.459-3.892.451-3.8,8.109-1.812,1.361-.309Z" transform="translate(-361.284 -215.493)" fill="#f48462"/>
                  <path id="Trazado_191732" data-name="Trazado 191732" d="M449.89,238.578a2.648,2.648,0,0,1-.217.743c-1.712,3.842-6.405,4.685-8.343,4.86l.451-3.8,8.109-1.812Z" transform="translate(-361.373 -215.554)"/>
                  <path id="Trazado_191733" data-name="Trazado 191733" d="M439.212,219.213s-4,9.646-2.4,14.99,6.489,4.409,9.4,3.315a9.651,9.651,0,0,0,4.234-2.915,4.126,4.126,0,0,0,4.535-1.7c1.787-2.581.6-5.478-.969-6.121a4.3,4.3,0,0,0-3.416.518l1.4-2.806s-6.389-14.022-12.794-5.286Z" transform="translate(-360.566 -211.888)" fill="#f48462"/>
                  <path id="Trazado_191734" data-name="Trazado 191734" d="M453.691,233.811a.3.3,0,0,1-.175-.534l3.457-2.5a.293.293,0,0,1,.342.476l-3.457,2.5a.315.315,0,0,1-.175.058Z" transform="translate(-363.362 -214.26)"/>
                  <path id="Trazado_191735" data-name="Trazado 191735" d="M457.022,234.13a.323.323,0,0,1-.075-.008l-2.28-.576a.294.294,0,0,1,.15-.568l2.28.576a.3.3,0,0,1-.075.585Z" transform="translate(-363.536 -214.63)"/>
                  <path id="Trazado_191736" data-name="Trazado 191736" d="M440.06,232.061a.3.3,0,0,1-.292-.251,4.51,4.51,0,0,1,1.378-4.134.291.291,0,0,1,.367.451,3.938,3.938,0,0,0-1.169,3.591.292.292,0,0,1-.242.334h-.042Z" transform="translate(-361.105 -213.747)"/>
                  <path id="Trazado_191737" data-name="Trazado 191737" d="M438.552,227.846a.323.323,0,0,1-.075-.008.291.291,0,0,1-.209-.359l.476-1.762a.294.294,0,0,1,.568.15l-.476,1.762A.286.286,0,0,1,438.552,227.846Z" transform="translate(-360.867 -213.398)"/>
                  <path id="Trazado_191738" data-name="Trazado 191738" d="M444.372,228.236a.323.323,0,0,1-.075-.008.291.291,0,0,1-.209-.359l.476-1.762a.294.294,0,1,1,.568.15l-.476,1.762A.286.286,0,0,1,444.372,228.236Z" transform="translate(-361.826 -213.463)"/>
                  <path id="Trazado_191739" data-name="Trazado 191739" d="M438.658,220.975a3.234,3.234,0,0,1,2.748-1.562,4.142,4.142,0,0,1,3.04,1.328s-.835,3.232,1.779,4.936a6.382,6.382,0,0,0,4.627,1.219l1.887-.676,1.378-2.764-5.487-5.879-7.09-3.716-3.6,3.282.71,3.833Z" transform="translate(-360.814 -211.479)"/>
                  <path id="Trazado_191740" data-name="Trazado 191740" d="M448.11,214.375s.234-4.251,4.71-2.388,4.125,7.666,4.125,7.666l-8.836-5.286Z" transform="translate(-362.491 -211.093)"/>
                  <path id="Trazado_191741" data-name="Trazado 191741" d="M438.312,222.676a.3.3,0,0,1-.292-.267.291.291,0,0,1,.267-.317l1.461-.142a.283.283,0,0,1,.317.267.291.291,0,0,1-.267.317l-1.461.142Z" transform="translate(-360.827 -212.813)"/>
                  <path id="Trazado_191742" data-name="Trazado 191742" d="M445.783,224.915a.281.281,0,0,1-.117-.025l-1.971-.86a.292.292,0,1,1,.234-.534l1.971.86a.287.287,0,0,1,.15.384.3.3,0,0,1-.267.175Z" transform="translate(-361.734 -213.064)"/>
                  <path id="Trazado_191743" data-name="Trazado 191743" d="M438.977,235.6a.305.305,0,0,1-.251-.134l-1.086-1.7a.3.3,0,1,1,.5-.317l1.086,1.7a.3.3,0,0,1-.092.409.275.275,0,0,1-.159.05Z" transform="translate(-360.757 -214.686)"/>
                  <path id="Trazado_191744" data-name="Trazado 191744" d="M422.07,245.53s4.936-16.193,6.99-15.951,6.146,4.359,6.982,5.862a4.36,4.36,0,0,1,0,3.424s.81,1.019,0,1.67-3.14-.735-3.14-.735,2.054,10.305-3.975,11.541-6.856-5.821-6.856-5.821Z" transform="translate(-358.197 -214.071)" fill="#f48462"/>
                  <path id="Trazado_191745" data-name="Trazado 191745" d="M422.265,277.728a48.465,48.465,0,0,0,3.608-10.272c1.161-5.42,2.781-13.512,2.781-13.512L417.99,246.01s-8.9,13.621-12.009,26.623-.8,16.978,5.829,16.176c7.85-.952,10.464-11.082,10.464-11.082Z" transform="translate(-355.319 -216.781)" fill="#68b6d8"/>
                  <path id="Trazado_191746" data-name="Trazado 191746" d="M422.887,284.621l-3.324,12.886c-2.647,0-9.779-.092-12.034-1.127-2.789-1.278-3.157-3.023-3.157-3.023s-1.912-1.821-1.8-2.8c.1-.994,1.194-5.428,1.194-5.428s-1.545-3.658-.134-3.858l3.842-.526s4.56-2,6.531-1.445,7.207,5.378,7.207,5.378l1.67-.058Z" transform="translate(-354.981 -222.254)" fill="#f48462"/>
                  <path id="Trazado_191747" data-name="Trazado 191747" d="M444.407,250.129c-2.981,0-4.134-.693-4.184-.735a.291.291,0,0,1,.309-.493c.008,0,1.461.852,5.32.593a7.6,7.6,0,0,0,5.637-2.839.294.294,0,0,1,.484.334,8.1,8.1,0,0,1-6.08,3.09c-.543.033-1.036.05-1.487.05Z" transform="translate(-361.168 -216.866)" fill="#5c69a5"/>
                  <path id="Trazado_191748" data-name="Trazado 191748" d="M415.279,282A.384.384,0,0,1,415.2,282l-4.977-1.47a.3.3,0,1,1,.167-.568l4.977,1.47a.3.3,0,0,1,.2.367A.288.288,0,0,1,415.279,282Z" transform="translate(-356.208 -222.376)"/>
                  <path id="Trazado_191749" data-name="Trazado 191749" d="M405.236,286.206a.3.3,0,0,1-.142-.033l-1.754-.952a.3.3,0,1,1,.284-.518l1.754.952a.3.3,0,0,1,.117.4.279.279,0,0,1-.259.15Z" transform="translate(-355.084 -223.155)"/>
                  <path id="Trazado_191750" data-name="Trazado 191750" d="M437.851,239.248a.3.3,0,0,1-.184-.058l-4.51-3.533a.292.292,0,0,1,.359-.459l4.51,3.533a.292.292,0,0,1,.05.409.285.285,0,0,1-.234.109Z" transform="translate(-360.007 -214.988)"/>
                  <path id="Trazado_191751" data-name="Trazado 191751" d="M437.184,235.213a.275.275,0,0,1-.159-.05l-3.841-2.48a.3.3,0,1,1,.326-.493l3.842,2.48a.3.3,0,0,1,.083.409.3.3,0,0,1-.242.134Z" transform="translate(-360.008 -214.494)"/>
                  <path id="Trazado_191752" data-name="Trazado 191752" d="M424.392,278.372l-2.322,15.683s34.24,9.93,41.48-7.516c7.266-17.512-1.036-35.133-7.107-38.073s-12.092,24.711-12.092,24.711l-19.959,5.194Z" transform="translate(-358.197 -217.15)" fill="#68b6d8"/>
                  <rect id="Rectángulo_44063" data-name="Rectángulo 44063" width="6.906" height="19.266" rx="1.61" transform="translate(64.992 58.993) rotate(6.44)" fill="#e6f4ff"/>
                  <rect id="Rectángulo_44064" data-name="Rectángulo 44064" width="6.906" height="17.07" rx="1.52" transform="matrix(0.559, -0.829, 0.829, 0.559, 58.272, 33.888)" fill="#e6f4ff"/>
                  <path id="Trazado_191753" data-name="Trazado 191753" d="M437.942,281.42a.3.3,0,0,1-.134-.56c.075-.042,7.883-3.808,15.558-4.451a.293.293,0,1,1,.05.585c-7.566.635-15.274,4.359-15.349,4.393a.35.35,0,0,1-.125.033Z" transform="translate(-360.766 -221.793)" fill="#5c69a5"/>
                  <path id="Trazado_191754" data-name="Trazado 191754" d="M448.693,277.584a.281.281,0,0,1-.234-.117.288.288,0,0,1,0-.342c.267-.384,2.681-3.75,4.468-3.917a1.251,1.251,0,0,1,1.027.351.9.9,0,0,1,.292.9c-.351,1.461-4.61,2.856-5.462,3.115a.3.3,0,0,1-.084.017Zm4.368-3.8h-.084c-1.027.092-2.555,1.762-3.482,2.923,1.787-.635,3.992-1.645,4.176-2.4a.332.332,0,0,0-.134-.342.63.63,0,0,0-.476-.192Z" transform="translate(-362.539 -221.264)" fill="#5c69a5"/>
                  <path id="Trazado_191755" data-name="Trazado 191755" d="M428.332,430.607a.294.294,0,0,1-.292-.284.3.3,0,0,1,.284-.309l35.7-1.395a.283.283,0,0,1,.309.284.3.3,0,0,1-.284.309l-35.7,1.395h-.008Z" transform="translate(-359.182 -246.89)" fill="#40507f"/>
                  <path id="Trazado_191756" data-name="Trazado 191756" d="M413,427.685a.3.3,0,0,1-.142-.033l-30.114-16.2a.289.289,0,0,1-.117-.4.3.3,0,0,1,.4-.117l30.114,16.2a.3.3,0,0,1-.142.56Z" transform="translate(-351.687 -243.968)" fill="#40507f"/>
                </g>
                <g id="Grupo_141075" data-name="Grupo 141075" transform="translate(401.436 64.802)">
                  <path id="Trazado_191757" data-name="Trazado 191757" d="M500.328,264.633s-15.7-19.834-16.677-18.506,14.18,19.775,14.18,19.775l2.505-1.269Z" transform="translate(-483.606 -216.854)" fill="#5c69a5"/>
                  <path id="Trazado_191758" data-name="Trazado 191758" d="M516.338,279.942s-5.721.092-8.243-2.146,2.764-7.416,2.764-7.416l5.478,3.716Z" transform="translate(-487.531 -220.863)" fill="#f48462"/>
                  <path id="Trazado_191759" data-name="Trazado 191759" d="M505.931,266.968a5.182,5.182,0,0,0-2.33-.852c-2.814-.367-10.882,0-11.867,2.831-.952,2.714,3.541,2.656,3.541,2.656s-3.608.777-2.238,3.048a3.565,3.565,0,0,0,3.491,1.512s-3.674,1.161-.994,3.349,10.948,1.094,13.479-.309-1.027-3.833-1.027-3.833,2.53-1.871,1.737-3.4c-.835-1.62-3.324-1.119-3.324-1.119a2.471,2.471,0,0,0-.468-3.883Z" transform="translate(-484.924 -220.141)" fill="#f48462"/>
                  <path id="Trazado_191760" data-name="Trazado 191760" d="M516.714,264.953s-10.28-5.019-12.193-4.735-9.069,6.347-7.316,8.017,7.316-2.631,7.316-2.631,5.712,9.6,9.462,8.51S516.714,264.953,516.714,264.953Z" transform="translate(-485.803 -219.186)" fill="#f48462"/>
                  <path id="Trazado_191761" data-name="Trazado 191761" d="M495.932,272.84a.293.293,0,0,1-.292-.276.3.3,0,0,1,.276-.309l10.222-.526a.269.269,0,0,1,.309.276.3.3,0,0,1-.276.309l-10.222.526Z" transform="translate(-485.59 -221.086)"/>
                  <path id="Trazado_191762" data-name="Trazado 191762" d="M497.432,278.276a.293.293,0,0,1-.017-.585l10.247-.651a.281.281,0,0,1,.309.276.291.291,0,0,1-.276.309l-10.247.651Z" transform="translate(-485.837 -221.961)"/>
                  <path id="Trazado_191763" data-name="Trazado 191763" d="M513.562,275.5a.383.383,0,0,1-.083-.008,12.1,12.1,0,0,1-7.8-8.81.3.3,0,0,1,.225-.351.292.292,0,0,1,.351.226,11.5,11.5,0,0,0,7.4,8.376.3.3,0,0,1,.2.367.288.288,0,0,1-.284.209Z" transform="translate(-487.244 -220.194)"/>
                  <path id="Trazado_191764" data-name="Trazado 191764" d="M551.008,432.14v10.172l-18.5-.718V432.14Z" transform="translate(-491.669 -247.535)" fill="#f7b369"/>
                  <path id="Trazado_191765" data-name="Trazado 191765" d="M602.42,430.76v10.18l-17.12-.718V430.76Z" transform="translate(-500.374 -247.308)" fill="#f7b369"/>
                  <path id="Trazado_191766" data-name="Trazado 191766" d="M553.245,297.094s-11.257,20.5-19.166,55.56a403.673,403.673,0,0,0-8.769,58.425h31.208s3.474-26.072,4.393-36.386a232.387,232.387,0,0,1,4-24.126s4.284,59.5,5.3,60.512,30.9.225,30.574-1.144-11.341-100.782-12.151-107.287c-2.489-20-35.4-5.545-35.4-5.545Z" transform="translate(-490.482 -224.437)" fill="#0f2771"/>
                  <path id="Trazado_191767" data-name="Trazado 191767" d="M580.21,456.947c0,1.8.585,3.85,1.779,4.368s10.848,1.6,19.291.835c8.084-.735,9.762-1.353,10.364-2.113.292-.384-.276-2.188-.927-3.925-.042-.084-.067-.184-.109-.276-.334-.877-.676-1.72-.927-2.33a9.761,9.761,0,0,0-.919-1.654,28.893,28.893,0,0,1-3.048-5.169c-.585-1.779-1.47-5.629-2.063-7.441a3.237,3.237,0,0,0-2.054-2.155s-16.635-1.177-17.821-.142c-1.177,1.019-1.779,9.5-1.779,10.773V449a32.883,32.883,0,0,1-1.3,5.5c-.142.493-.25.952-.334,1.361a5.8,5.8,0,0,0-.142,1.077Z" transform="translate(-499.535 -248.257)" fill="#4dd0e1"/>
                  <path id="Trazado_191768" data-name="Trazado 191768" d="M498.3,460.76c1.052.476,45.923,1.812,46.967,0a16.46,16.46,0,0,0,.685-4.727c.367-5.487.367-13.654.367-13.654a36.936,36.936,0,0,0,.267-4.084c-.05-1.278-21.638-.793-21.638-.793l-14.03,12.059a24.847,24.847,0,0,0-8.059,0c-2.23.384-3.666,3.366-4.376,6.163-.635,2.489-.685,4.8-.184,5.027Z" transform="translate(-485.973 -248.405)" fill="#4dd0e1"/>
                  <path id="Trazado_191769" data-name="Trazado 191769" d="M570.378,356.09a.293.293,0,0,1-.292-.276c-.008-.125-.985-12.944-1.269-18.631-.242-4.852-.284-7.549-.292-8.259l-9.938-4.585a.3.3,0,0,1,.251-.534l10.113,4.66a.3.3,0,0,1,.167.267c0,.025.008,2.747.292,8.418s1.253,18.489,1.269,18.615a.3.3,0,0,1-.267.317h-.025Z" transform="translate(-495.941 -229.668)" fill="#fff"/>
                  <path id="Trazado_191770" data-name="Trazado 191770" d="M602.6,446.751a.324.324,0,0,1-.075-.008c-.067-.017-6.564-1.8-9.821-1.228l-3.366.6a.3.3,0,0,1-.317-.159.307.307,0,0,1,.067-.351c.25-.217,6.088-5.328,9.587-3.775a.292.292,0,1,1-.234.534c-2.413-1.069-6.355,1.628-8.092,2.973l2.255-.4c3.4-.61,9.813,1.161,10.08,1.236a.3.3,0,0,1,.209.359.286.286,0,0,1-.284.217Z" transform="translate(-500.983 -249.085)" fill="#0f2771"/>
                  <path id="Trazado_191771" data-name="Trazado 191771" d="M516.952,447.863a.29.29,0,0,1-.292-.259.3.3,0,0,1,.259-.326l7.867-.835-2.589-3.157a.291.291,0,0,1,.451-.367l2.931,3.574a.3.3,0,0,1,.042.3.308.308,0,0,1-.242.184l-8.41.894h-.033Z" transform="translate(-489.056 -249.295)" fill="#0f2771"/>
                  <path id="Trazado_191772" data-name="Trazado 191772" d="M599.612,322.763a.294.294,0,0,1-.175-.058c-5.386-3.892-7.583-10.673-7.6-10.74a.293.293,0,1,1,.56-.175c.025.067,2.163,6.673,7.391,10.439a.293.293,0,0,1,.067.409A.317.317,0,0,1,599.612,322.763Z" transform="translate(-501.449 -227.657)" fill="#fff"/>
                  <path id="Trazado_191773" data-name="Trazado 191773" d="M577.016,240.438a30.756,30.756,0,0,1,16.652,6.873c7.407,6.38,14.974,27.534,10.806,34.173s-9.47,7.1-9.47,7.1l.309,7.716-40.5.376s3.34-49.13,4.969-52.779,17.245-3.466,17.245-3.466Z" transform="translate(-495.346 -215.925)" fill="#feca2e"/>
                  <path id="Trazado_191774" data-name="Trazado 191774" d="M567.829,213.6s-3.315,3.641-1.578,7.742S570.075,214,570.075,214l-2.246-.4Z" transform="translate(-497.15 -211.501)"/>
                  <path id="Trazado_191775" data-name="Trazado 191775" d="M579.158,233.64l.025,7.324s-1.311,2.113-5.6,2.472c-3.19.267-4.318-.451-4.318-.451l.434-3.708.426-3.616,7.733-1.72,1.294-.292Z" transform="translate(-497.731 -214.805)" fill="#f48462"/>
                  <path id="Trazado_191776" data-name="Trazado 191776" d="M577.908,233.99c-.017.2,1.169.843,1.052,1.119-1.628,3.666-7.524,5.437-9.37,5.6l.593-4.994,7.733-1.72Z" transform="translate(-497.783 -214.863)"/>
                  <path id="Trazado_191777" data-name="Trazado 191777" d="M569.04,213.856a6.9,6.9,0,0,0-2.171,3.14c-.994,2.814-3.023,9.378-1.812,13.445,1.57,5.278,6.322,4.359,9.153,3.29a9.476,9.476,0,0,0,4.125-2.873,3.99,3.99,0,0,0,4.418-1.67c1.737-2.539.576-5.412-.952-6.046a4.136,4.136,0,0,0-3.324.509l1.361-2.773s-5.178-11.483-10.806-7.032Z" transform="translate(-496.974 -211.373)" fill="#f48462"/>
                  <path id="Trazado_191778" data-name="Trazado 191778" d="M581.561,229.464a.3.3,0,0,1-.175-.534l3.29-2.38a.293.293,0,1,1,.342.476l-3.29,2.38a.315.315,0,0,1-.175.058Z" transform="translate(-499.708 -213.627)"/>
                  <path id="Trazado_191779" data-name="Trazado 191779" d="M584.733,229.765a.323.323,0,0,1-.075-.008l-2.171-.551a.294.294,0,0,1,.15-.568l2.171.551a.3.3,0,0,1-.075.585Z" transform="translate(-499.874 -213.979)"/>
                  <path id="Trazado_191780" data-name="Trazado 191780" d="M568.507,227.683a.292.292,0,0,1-.267-.167c-1.044-2.171.534-4.409.6-4.51a.293.293,0,1,1,.476.342c-.017.017-1.445,2.063-.551,3.908a.3.3,0,0,1-.134.392A.35.35,0,0,1,568.507,227.683Z" transform="translate(-497.502 -213.032)"/>
                  <path id="Trazado_191781" data-name="Trazado 191781" d="M567.122,223.773a.324.324,0,0,1-.075-.008.291.291,0,0,1-.209-.359l.451-1.679a.294.294,0,0,1,.568.15l-.451,1.679a.286.286,0,0,1-.284.217Z" transform="translate(-497.328 -212.805)"/>
                  <path id="Trazado_191782" data-name="Trazado 191782" d="M558.825,248.709,557.7,297.956H546.749l1.3-21.529a105.623,105.623,0,0,1-17.629,1.6c-9.838.075-13.863-.935-13.863-.935l1.7-17.262s12.009-.6,22-6.664,13.713-12.3,20.034-12.151-1.461,7.691-1.461,7.691Z" transform="translate(-489.039 -216.02)" fill="#feca2e"/>
                  <path id="Trazado_191783" data-name="Trazado 191783" d="M572.672,224.153a.323.323,0,0,1-.075-.008.291.291,0,0,1-.209-.359l.451-1.679a.294.294,0,1,1,.568.15l-.451,1.679a.286.286,0,0,1-.284.217Z" transform="translate(-498.243 -212.868)"/>
                  <path id="Trazado_191784" data-name="Trazado 191784" d="M567.122,220.128a.3.3,0,0,1-.292-.267.291.291,0,0,1,.267-.317l1.395-.134a.282.282,0,0,1,.317.267.291.291,0,0,1-.267.317l-1.395.134Z" transform="translate(-497.328 -212.459)"/>
                  <path id="Trazado_191785" data-name="Trazado 191785" d="M574.021,220.973a.281.281,0,0,1-.117-.025l-1.879-.818a.292.292,0,1,1,.234-.534l1.879.818a.287.287,0,0,1,.15.384.3.3,0,0,1-.267.175Z" transform="translate(-498.156 -212.485)"/>
                  <path id="Trazado_191786" data-name="Trazado 191786" d="M578.884,223.366s-.8,3.04-1.378,2.656-1.061-4.777-.6-6.739.793-2.948.793-2.948-7.984-.827-10.071-2.756,2.388-3.09,6.931-2.171,6.313,2.664,6.313,2.664,2.856-.384,3.9,1.37-1.478,8.334-1.478,8.334-.693-1.67-4.418-.418Z" transform="translate(-497.373 -211.087)"/>
                  <path id="Trazado_191787" data-name="Trazado 191787" d="M570.872,231.932a.293.293,0,0,1-.167-.534l1.963-1.328a.294.294,0,1,1,.334.484l-1.963,1.328A.3.3,0,0,1,570.872,231.932Z" transform="translate(-497.946 -214.208)"/>
                  <path id="Trazado_191788" data-name="Trazado 191788" d="M563.994,282.253a.305.305,0,0,1-.276-.192c-2.013-5.253-5.37-14.155-5.228-14.723a37.448,37.448,0,0,1,3.558-4.627c-1.211-1-4.117-3.466-4.259-4.159-.142-.727,4.109-8.56,5.946-11.892a.3.3,0,0,1,.518.284c-2.255,4.092-5.837,10.84-5.879,11.525a29.393,29.393,0,0,0,4.276,3.975.32.32,0,0,1,.109.2.336.336,0,0,1-.067.217,45.279,45.279,0,0,0-3.624,4.618c.033.626,3.132,8.944,5.211,14.364a.29.29,0,0,1-.167.376.229.229,0,0,1-.109.017Z" transform="translate(-495.837 -216.927)" fill="#5c69a5"/>
                  <path id="Trazado_191789" data-name="Trazado 191789" d="M565.77,298.546h14.1l-3.549-46.816H566.58Z" transform="translate(-497.154 -217.788)" fill="#5c69a5"/>
                  <path id="Trazado_191790" data-name="Trazado 191790" d="M578.4,259.12s3.307,42.006,3.516,41.823,17.654-.484,17.654-.484l-.576-12.251L578.408,259.12Z" transform="translate(-499.236 -219.007)" fill="#feca2e"/>
                  <path id="Trazado_191791" data-name="Trazado 191791" d="M582.552,282.256a.363.363,0,0,1-.109-.017.29.29,0,0,1-.167-.376c2.079-5.428,5.178-13.746,5.2-14.414a51.03,51.03,0,0,0-3.624-4.568.3.3,0,0,1-.067-.217.258.258,0,0,1,.109-.2c2.013-1.654,4.167-3.6,4.284-4.009-.042-.651-3.633-7.4-5.888-11.491a.3.3,0,1,1,.518-.284c1.837,3.332,6.088,11.166,5.946,11.892-.142.693-3.048,3.157-4.259,4.159a36.846,36.846,0,0,1,3.558,4.627c.142.568-3.215,9.47-5.228,14.723a.3.3,0,0,1-.276.192Z" transform="translate(-499.872 -216.93)" fill="#5c69a5"/>
                  <path id="Trazado_191792" data-name="Trazado 191792" d="M573.3,240.74s-11.132-6.965-12.376-6.163,4.835,5.9,4.835,5.9a24.879,24.879,0,0,0-2.914,2.781c-.15.443-.81,1.537-1.32,2.731s-.284,1.988.869,3.232,8.66,4.86,10.322,4.977l1.662.117,4.944-8.485S579.6,238.4,578,237.5s-2.355,4.885-2.355,4.885l-2.338-1.645Z" transform="translate(-496.327 -214.949)" fill="#f48462"/>
                  <path id="Trazado_191793" data-name="Trazado 191793" d="M577.6,243.221a.345.345,0,0,1-.159-.042l-4.652-2.923a.293.293,0,1,1,.317-.493l4.284,2.7c.083-.434.25-1.236.551-2.514.551-2.363,2-2.2,2.054-2.188a.295.295,0,0,1-.075.585c-.058,0-.985-.067-1.411,1.737-.493,2.088-.618,2.9-.626,2.906a.268.268,0,0,1-.167.217.335.335,0,0,1-.125.025Z" transform="translate(-498.289 -215.484)"/>
                  <path id="Trazado_191794" data-name="Trazado 191794" d="M567.935,242.978a.294.294,0,0,1-.192-.075l-1.253-1.086a.3.3,0,0,1,.384-.451l1.253,1.086a.293.293,0,0,1-.192.518Z" transform="translate(-497.255 -216.068)"/>
                  <path id="Trazado_191795" data-name="Trazado 191795" d="M542.511,263.808a1.07,1.07,0,0,1-.718-.292c-1.169-1.061-1.244-4.91-1.253-5.345a.288.288,0,0,1,.209-.284.293.293,0,0,1,.334.117c.459.7,2.714,4.242,2.155,5.386a.736.736,0,0,1-.635.409h-.092Zm-1.328-4.526c.109,1.361.384,3.232,1,3.8a.475.475,0,0,0,.359.142c.117-.008.142-.05.159-.084C542.953,262.631,542.085,260.818,541.183,259.282Z" transform="translate(-492.993 -218.801)" fill="#5c69a5"/>
                  <path id="Trazado_191796" data-name="Trazado 191796" d="M554.2,283.052h-.042a.3.3,0,0,1-.251-.334l.451-3.048a.3.3,0,0,1,.334-.251.3.3,0,0,1,.251.334l-.451,3.048a.3.3,0,0,1-.292.251Z" transform="translate(-495.198 -222.354)" fill="#5c69a5"/>
                  <path id="Trazado_191797" data-name="Trazado 191797" d="M582.482,246.87,575.2,258.286s6.364,27.818,21.671,31.016,12.042-14.4,12.042-14.4Z" transform="translate(-498.708 -216.987)" fill="#feca2e"/>
                  <path id="Trazado_191798" data-name="Trazado 191798" d="M603.414,265.936a.293.293,0,0,1-.242-.125c-3.6-5.311-13.779-15.1-13.88-15.191a.3.3,0,1,1,.409-.426c.1.1,10.322,9.921,13.955,15.291a.3.3,0,0,1-.075.409.3.3,0,0,1-.167.05Z" transform="translate(-501.017 -217.522)" fill="#5c69a5"/>
                  <path id="Trazado_191799" data-name="Trazado 191799" d="M604.957,264.377c-1.687,0-5.094-3.057-5.8-3.708a.293.293,0,0,1-.058-.359.3.3,0,0,1,.334-.142c.568.15,5.545,1.486,6.347,2.864a.792.792,0,0,1,.1.635.889.889,0,0,1-.626.676,1.153,1.153,0,0,1-.309.042Zm-4.418-3.282c1.645,1.386,3.791,2.9,4.56,2.672.083-.025.167-.075.217-.259.017-.067.083-.651-2.8-1.737-.693-.267-1.4-.493-1.979-.668Z" transform="translate(-502.644 -219.178)" fill="#5c69a5"/>
                </g>
                <g id="Grupo_141077" data-name="Grupo 141077" transform="translate(57.649 51.429)">
                  <g id="Grupo_141076" data-name="Grupo 141076" transform="translate(93.047 1.96)" opacity="0.56">
                    <circle id="Elipse_4919" data-name="Elipse 4919" cx="36.661" cy="36.661" r="36.661" fill="#e0dfe5"/>
                  </g>
                  <path id="Trazado_191800" data-name="Trazado 191800" d="M220.992,272.92a38.687,38.687,0,1,1,.017,0Zm-.117-73.665a47.422,47.422,0,1,1,.008.008Z" transform="translate(-90.089 -195.073)" fill="#35456d"/>
                  <path id="Trazado_191801" data-name="Trazado 191801" d="M173.352,278.439l-7.942,14.18s11.274,2.915,21.571-6.764c8.351-7.85-13.629-7.416-13.629-7.416Z" transform="translate(-87.353 -208.818)" fill="#f48462"/>
                  <path id="Trazado_191802" data-name="Trazado 191802" d="M89.145,229.476c-.292-.284-9.4,3.683-11.241,15.809s7.934,14.331,7.934,14.331l13.445-7.566-5.178-23.1-4.961.534Z" transform="translate(-72.887 -200.659)"/>
                  <path id="Trazado_191803" data-name="Trazado 191803" d="M125.1,252.248s5.27,7.858,17.345,14.89c8.668,5.052,22.08,3.207,22.08,3.207l1.144,18.2S136.5,298.58,125.239,285.9c-14.523-16.352-.134-33.655-.134-33.655Z" transform="translate(-79.66 -204.499)" fill="#0f2771"/>
                  <path id="Trazado_191804" data-name="Trazado 191804" d="M122.223,424.51s5.771,8.1,6,9.679-4.192,4.443-4.192,4.443l10.639,13.237H111.091l-1.161-25.546,12.285-1.812Z" transform="translate(-78.206 -232.904)" fill="#35456d"/>
                  <path id="Trazado_191805" data-name="Trazado 191805" d="M103.312,216.19s-8.994-4.159-13.019,3.224c-3.908,7.165,1.879,13.829,1.879,13.829l9.938-10.339,1.211-6.714Z" transform="translate(-74.744 -198.362)"/>
                  <rect id="Rectángulo_44065" data-name="Rectángulo 44065" width="17.78" height="20.444" transform="translate(18.854 195.149) rotate(1.31)" fill="#f48462"/>
                  <path id="Trazado_191806" data-name="Trazado 191806" d="M91.062,312.806s-3.265,11.616-3.449,34.432c-.159,19.7-3.8,63.4-2.313,65.481s31.7.885,32.887.292,1.478-14.222,1.478-14.222,20.143-33.772,22.815-39.409-14.815-54.7-14.815-54.7l-36.6,8.126Z" transform="translate(-74.086 -213.145)" fill="#4dd0e1"/>
                  <path id="Trazado_191807" data-name="Trazado 191807" d="M97.427,247.939s-14.222,5.194-16,13.136,10.664,39.668,13.921,40.762,29.329-4.652,31.7-6.564-.292-21.613-.885-24.352-2.965-13.679-6.222-18.331-5.929-4.961-9.186-4.961S97.427,247.939,97.427,247.939Z" transform="translate(-73.477 -203.739)" fill="#0f2771"/>
                  <path id="Trazado_191808" data-name="Trazado 191808" d="M96.423,247.06s-2.689.877-3.5,2.13c-.91,1.4.793,5.094,5.654,7.959a27.224,27.224,0,0,0,6.547,2.839s3.09-4.276,3.683-6.873-1.587-6-1.587-6l-10.8-.05Z" transform="translate(-75.363 -203.645)" fill="#feca2e"/>
                  <path id="Trazado_191809" data-name="Trazado 191809" d="M97.35,241.12l.76,7.742s1.612,2.088,6.18,2.013c3.4-.058,4.51-.935,4.51-.935l-.852-3.875-.835-3.775-8.351-1-1.4-.167Z" transform="translate(-76.131 -202.665)" fill="#f48462"/>
                  <path id="Trazado_191810" data-name="Trazado 191810" d="M99.03,241.32a2.488,2.488,0,0,0,.3.727c2.113,3.7,6.931,4.067,8.894,4.05l-.835-3.775-8.351-1Z" transform="translate(-76.408 -202.698)"/>
                  <path id="Trazado_191811" data-name="Trazado 191811" d="M105.93,220.7s5.011,9.312,3.942,14.857-6.088,5.1-9.128,4.292a9.833,9.833,0,0,1-4.568-2.505,4.188,4.188,0,0,1-4.743-1.253c-2.063-2.413-1.161-5.462.359-6.263a4.376,4.376,0,0,1,3.491.175l-1.7-2.689s5.011-14.765,12.351-6.622Z" transform="translate(-74.957 -198.894)" fill="#f48462"/>
                  <path id="Trazado_191812" data-name="Trazado 191812" d="M94.858,463.393a2.575,2.575,0,0,1-2.388-2.622c-.017-5.562.058-18.431,1.086-18.431,1.311,0,13.679,3.917,13.679,3.917s.351-7.708,5.787-6.339c4.167,1.052,9.011,5.938,11.04,8.151a4.707,4.707,0,0,0,2.363,1.411c3.883.944,14.573,4.059,14.74,9.721.209,6.915-2.606,6.13-3.917,6.13-1.127,0-33.3-1.512-42.4-1.946Z" transform="translate(-75.326 -235.417)" fill="#40507f"/>
                  <path id="Trazado_191813" data-name="Trazado 191813" d="M95.759,229.7s4.217.535,6.764-4.292,2.146-6.714,2.146-6.714l3.224,4.568s.4-3.357-1.077-5.37-2.823-1.478-2.823-1.478L95,219.374,93.12,226.89l2.631,2.823Z" transform="translate(-75.434 -198.582)"/>
                  <path id="Trazado_191814" data-name="Trazado 191814" d="M127.182,398.8a.29.29,0,0,1-.292-.292l.225-68.838a.33.33,0,0,1,.084-.209l6.764-6.781a.3.3,0,0,1,.418.418l-6.673,6.7-.217,68.722a.3.3,0,0,1-.292.292Z" transform="translate(-81.002 -216.099)" fill="#fff"/>
                  <path id="Trazado_191815" data-name="Trazado 191815" d="M93.932,335.471a.3.3,0,0,1-.292-.251.3.3,0,0,1,.251-.334,9.185,9.185,0,0,0,6.4-3.4,10.543,10.543,0,0,0,1.687-7.073.292.292,0,0,1,.576-.092,10.922,10.922,0,0,1-1.787,7.508,9.718,9.718,0,0,1-6.789,3.633h-.042Z" transform="translate(-75.519 -216.344)" fill="#fff"/>
                  <path id="Trazado_191816" data-name="Trazado 191816" d="M110.5,224.809h-.05l-1.294-.225a.3.3,0,1,1,.1-.585l1.294.225a.294.294,0,0,1-.05.585Z" transform="translate(-78.037 -199.842)"/>
                  <path id="Trazado_191817" data-name="Trazado 191817" d="M104,225.249a.294.294,0,0,1-.284-.225.284.284,0,0,1,.217-.351l2.2-.534a.292.292,0,1,1,.134.568l-2.2.534s-.05.008-.067.008Z" transform="translate(-77.18 -199.864)"/>
                  <path id="Trazado_191818" data-name="Trazado 191818" d="M104.927,230.8a.3.3,0,0,1-.292-.242l-.276-1.57a.306.306,0,0,1,.117-.292l1.094-.768a.294.294,0,0,1,.334.484l-.944.66.242,1.386a.305.305,0,0,1-.242.342h-.05Z" transform="translate(-77.286 -200.482)"/>
                  <path id="Trazado_191819" data-name="Trazado 191819" d="M111.267,229.4a.3.3,0,0,1-.292-.242l-.276-1.57a.306.306,0,0,1,.117-.292l1.094-.768a.294.294,0,0,1,.334.484l-.944.66.242,1.386a.305.305,0,0,1-.242.342h-.05Z" transform="translate(-78.332 -200.251)"/>
                  <path id="Trazado_191820" data-name="Trazado 191820" d="M109.845,234.173a.257.257,0,0,1-.092-.017.286.286,0,0,1-.184-.367c.593-1.812-.618-4.059-.626-4.075a.3.3,0,0,1,.518-.284c.058.1,1.345,2.489.668,4.543a.293.293,0,0,1-.276.2Z" transform="translate(-78.037 -200.713)"/>
                  <path id="Trazado_191821" data-name="Trazado 191821" d="M107.642,239.433c-1.37,0-1.921-1.553-1.946-1.62a.279.279,0,0,1,.042-.267.3.3,0,0,1,.242-.125h3.34a.317.317,0,0,1,.242.125.3.3,0,0,1,.042.267c-.025.067-.585,1.62-1.946,1.62ZM106.44,238a1.283,1.283,0,0,0,2.405,0H106.44Z" transform="translate(-77.505 -202.055)"/>
                  <path id="Trazado_191822" data-name="Trazado 191822" d="M95.943,237.023a.277.277,0,0,1-.175-.058l-3.491-2.589a.292.292,0,0,1,.351-.468l3.491,2.589a.286.286,0,0,1,.058.409.293.293,0,0,1-.234.117Z" transform="translate(-75.275 -201.466)"/>
                  <path id="Trazado_191823" data-name="Trazado 191823" d="M92.452,237.752a.3.3,0,0,1-.259-.15.3.3,0,0,1,.117-.4l2.3-1.278a.3.3,0,0,1,.284.518l-2.3,1.278a.274.274,0,0,1-.142.033Z" transform="translate(-75.275 -201.803)"/>
                  <path id="Trazado_191824" data-name="Trazado 191824" d="M97.379,246.74s4.242,3.85,7.307,3.883a2.726,2.726,0,0,0,2.973-2.814l1.219,4.3-3.783,3.833-6.764-2.722L94.54,248.97l2.848-2.23Z" transform="translate(-75.668 -203.592)" fill="#f7b369"/>
                  <path id="Trazado_191825" data-name="Trazado 191825" d="M104.006,258.338a17.471,17.471,0,0,0-2.756,8.059c-.468,4.919,2.388,10.456,2.388,10.456s4.585-5.194,5.186-9.119-1.495-9.487-1.495-9.487a44.765,44.765,0,0,1,2.589,7.616c.509,2.889,1.219,6.606,1.219,6.606a13.4,13.4,0,0,0,2.2-7.641c-.167-4.376-4.451-7.666-4.451-7.666L104,258.346Z" transform="translate(-76.766 -205.31)" fill="#feca2e"/>
                  <path id="Trazado_191826" data-name="Trazado 191826" d="M104.8,258.952a3.092,3.092,0,0,1-.827-.092c-1.4-.409-1.628-3.683-1.361-5.019a.291.291,0,0,1,.342-.225.3.3,0,0,1,.225.351c-.284,1.378.084,4.084.944,4.334a8.732,8.732,0,0,0,3.29-.326c-.351-.919-1.2-3.424-.509-4.56a1.2,1.2,0,0,1,.977-.576,1,1,0,0,1,.969.4c.843,1.169-.593,4.66-.76,5.052a.249.249,0,0,1-.134.142c-.017.008-.042.017-.058.025a14.1,14.1,0,0,1-3.107.5Zm3.215-5.545h-.075a.6.6,0,0,0-.518.3c-.443.727.017,2.5.409,3.641.5-1.378.969-3.207.551-3.783a.393.393,0,0,0-.367-.167Z" transform="translate(-76.983 -204.596)" fill="#40507f"/>
                  <path id="Trazado_191827" data-name="Trazado 191827" d="M105.234,266.74a.9.9,0,0,1-.768-.393c-.919-1.311.743-5.979.935-6.506a.292.292,0,0,1,.292-.192.277.277,0,0,1,.267.225c.117.526,1.119,5.161.067,6.472a1,1,0,0,1-.793.392Zm.367-5.662c-.585,1.871-1.119,4.267-.651,4.936a.3.3,0,0,0,.284.142.4.4,0,0,0,.342-.167c.593-.743.317-3.24.033-4.9Z" transform="translate(-77.259 -205.721)" fill="#40507f"/>
                  <path id="Trazado_191828" data-name="Trazado 191828" d="M128.245,283.008a.286.286,0,0,1-.284-.234l-1.4-6.439a.3.3,0,0,1,.025-.192,16.521,16.521,0,0,0,1.345-7.407c-.075-1.086-4.977-10.6-3.7-8.827a.293.293,0,0,1,.476-.342c.142.2,3.533,4.961,3.808,9.128a16.924,16.924,0,0,1-1.353,7.608l1.378,6.339a.3.3,0,0,1-.225.351h-.067Z" transform="translate(-80.528 -205.687)" fill="#feca2e"/>
                  <path id="Trazado_191829" data-name="Trazado 191829" d="M141.062,290.5l-18.322,5.654s14.89,18.74,21.153,8.81-2.839-14.464-2.839-14.464Z" transform="translate(-80.318 -210.807)" fill="#f48462"/>
                  <path id="Trazado_191830" data-name="Trazado 191830" d="M146.038,292.74s10.147-.008,9.629,2.722-6.43,1.428-6.43,1.428l-3.207-4.151Z" transform="translate(-84.158 -211.177)" fill="#f48462"/>
                  <path id="Trazado_191831" data-name="Trazado 191831" d="M183.953,273.621s-2.8-9.746-.033-10.013,3.14,5.787,3.14,5.787Z" transform="translate(-90.204 -206.372)" fill="#f48462"/>
                  <rect id="Rectángulo_44066" data-name="Rectángulo 44066" width="4.643" height="62.775" rx="2.18" transform="matrix(0.61, 0.792, -0.792, 0.61, 100.88, 59.467)" fill="#35456d"/>
                  <rect id="Rectángulo_44067" data-name="Rectángulo 44067" width="4.643" height="62.775" rx="2.18" transform="matrix(0.61, 0.792, -0.792, 0.61, 100.254, 58.66)" fill="#5c69a5"/>
                  <path id="Trazado_191832" data-name="Trazado 191832" d="M219.642,272.92a38.687,38.687,0,1,1,.017,0Zm-.117-73.665a17.113,17.113,0,1,1,0,.008Z" transform="translate(-89.867 -195.073)" fill="#5c69a5"/>
                  <path id="Trazado_191833" data-name="Trazado 191833" d="M190.751,231.992a.318.318,0,0,1-.217-.092.293.293,0,0,1,.017-.418l27.425-25.738a.3.3,0,1,1,.4.434l-27.425,25.738a.308.308,0,0,1-.2.084Z" transform="translate(-91.483 -196.819)" fill="#fff"/>
                  <path id="Trazado_191834" data-name="Trazado 191834" d="M173.738,276.15a5.237,5.237,0,0,0,.468,2.439c1.127,2.606,5.57,9.345,8.51,8.744,2.814-.576.468-4.4.468-4.4s2.514,2.7,3.766.359a3.583,3.583,0,0,0-.493-3.775s3.29,4.61,3.8,1.194-5.078-12.026-7.583-13.479-2.764,2.848-2.764,2.848-2.906-1.211-3.808.251c-.96,1.545.743,3.424.743,3.424a2.467,2.467,0,0,0-3.09,2.4Z" transform="translate(-88.725 -206.921)" fill="#f48462"/>
                  <path id="Trazado_191835" data-name="Trazado 191835" d="M183.86,284.653a.272.272,0,0,1-.242-.134l-5.687-8.51a.3.3,0,1,1,.493-.326l5.687,8.51a.3.3,0,0,1-.242.459Z" transform="translate(-89.41 -208.343)"/>
                  <path id="Trazado_191836" data-name="Trazado 191836" d="M187.754,280.572a.293.293,0,0,1-.242-.125l-5.812-8.468a.294.294,0,0,1,.484-.334L188,280.113a.3.3,0,0,1-.075.409.3.3,0,0,1-.167.05Z" transform="translate(-90.031 -207.677)"/>
                  <path id="Trazado_191837" data-name="Trazado 191837" d="M151.1,302.28a5.168,5.168,0,0,0-.443-2.422c-1.094-2.606-5.462-9.37-8.393-8.844-2.806.5-.5,4.334-.5,4.334s-2.472-2.731-3.741-.443a3.543,3.543,0,0,0,.451,3.741s-2.848-2.6-3.374.768,4.56,9.963,7.032,11.458,2.781-2.748,2.781-2.748,2.881,1.269,3.8-.159c.969-1.5-.71-3.4-.71-3.4a2.422,2.422,0,0,0,3.1-2.3Z" transform="translate(-82.35 -210.887)" fill="#f48462"/>
                  <path id="Trazado_191838" data-name="Trazado 191838" d="M148.727,304.835a.305.305,0,0,1-.251-.134l-5.545-8.6a.3.3,0,0,1,.084-.409.3.3,0,0,1,.409.084l5.545,8.6a.3.3,0,0,1-.084.409A.275.275,0,0,1,148.727,304.835Z" transform="translate(-83.639 -211.655)"/>
                  <path id="Trazado_191839" data-name="Trazado 191839" d="M144.863,308.823a.291.291,0,0,1-.242-.134l-5.67-8.56a.3.3,0,0,1,.493-.326l5.67,8.56a.3.3,0,0,1-.242.459Z" transform="translate(-82.982 -212.32)"/>
                  <path id="Trazado_191840" data-name="Trazado 191840" d="M80.859,260.48S65.9,277.809,74.73,296.707c7.858,16.828,26.373,17.287,35.86,14.322s14.1-7.65,14.1-7.65l-2.664-15.7s-17.262-.075-26.74-.96S80.859,260.48,80.859,260.48Z" transform="translate(-71.942 -205.857)" fill="#0f2771"/>
                  <path id="Trazado_191841" data-name="Trazado 191841" d="M92.791,292.3c-1.228,0-2.171-.159-2.405-.618-.267-.526.292-1.061.476-1.228,2.99-2.839,8.919.3,9.17.434a.3.3,0,0,1,.15.3.293.293,0,0,1-.234.242A45.351,45.351,0,0,1,92.791,292.3Zm1.42-2.439a4.149,4.149,0,0,0-2.948,1.019c-.351.334-.376.5-.359.534.3.585,4.234.276,8.034-.393a12.722,12.722,0,0,0-4.735-1.161Z" transform="translate(-74.971 -210.605)" fill="#feca2e"/>
                  <path id="Trazado_191842" data-name="Trazado 191842" d="M109.428,292.192l-7.992-.56a.3.3,0,0,1,.033-.593l7.967.56a.3.3,0,0,1,.276.317.293.293,0,0,1-.292.276Z" transform="translate(-76.759 -210.896)" fill="#feca2e"/>
                </g>
                <path id="Trazado_191843" data-name="Trazado 191843" d="M536.958,160.345H429.612a.292.292,0,0,1,0-.585H536.958a.292.292,0,0,1,0,.585Z" transform="translate(-73.219 -137.822)" fill="#fff"/>
                <path id="Trazado_191844" data-name="Trazado 191844" d="M550.751,157.707a.3.3,0,0,1-.225-.1.293.293,0,0,1,.033-.418l2.781-2.363a.3.3,0,0,1,.384.451l-2.781,2.363A.285.285,0,0,1,550.751,157.707Z" transform="translate(-93.192 -136.996)" fill="#fff"/>
                <path id="Trazado_191845" data-name="Trazado 191845" d="M553.532,157.707a.334.334,0,0,1-.192-.067l-2.781-2.363a.3.3,0,0,1,.384-.451l2.781,2.363a.293.293,0,0,1,.033.418A.3.3,0,0,1,553.532,157.707Z" transform="translate(-93.192 -136.996)" fill="#fff"/>
                <g id="Grupo_141078" data-name="Grupo 141078" transform="translate(437.149 3.524)">
                  <path id="Trazado_191846" data-name="Trazado 191846" d="M580.385,170.513H532.124a5.76,5.76,0,0,1-5.754-5.754v-21.3a5.76,5.76,0,0,1,5.754-5.754h48.261a5.76,5.76,0,0,1,5.754,5.754v21.3A5.76,5.76,0,0,1,580.385,170.513Zm-48.261-32.227a5.179,5.179,0,0,0-5.169,5.169v21.3a5.179,5.179,0,0,0,5.169,5.169h48.261a5.179,5.179,0,0,0,5.169-5.169v-21.3a5.179,5.179,0,0,0-5.169-5.169Z" transform="translate(-526.37 -137.71)" fill="#40507f"/>
                  <path id="Trazado_191847" data-name="Trazado 191847" d="M585.847,146.735H526.662a.292.292,0,0,1,0-.585h59.185a.292.292,0,0,1,0,.585Z" transform="translate(-526.37 -139.102)" fill="#40507f"/>
                  <path id="Trazado_191848" data-name="Trazado 191848" d="M580.435,141.773a1.2,1.2,0,1,1-1.2-1.2A1.2,1.2,0,0,1,580.435,141.773Z" transform="translate(-534.888 -138.182)" fill="#40507f"/>
                  <path id="Trazado_191849" data-name="Trazado 191849" d="M585.925,141.773a1.2,1.2,0,1,1-1.2-1.2A1.2,1.2,0,0,1,585.925,141.773Z" transform="translate(-535.793 -138.182)" fill="#40507f"/>
                  <path id="Trazado_191850" data-name="Trazado 191850" d="M591.665,141.773a1.2,1.2,0,1,1-1.2-1.2A1.2,1.2,0,0,1,591.665,141.773Z" transform="translate(-536.74 -138.182)" fill="#40507f"/>
                </g>
              </g>
            </g>
          </g>
        </g>
      </g>
    </g>
  </g>
</svg>
