<svg xmlns="http://www.w3.org/2000/svg" width="327" height="312.363" viewBox="0 0 327 312.363">
  <g id="Grupo_222373" data-name="Grupo 222373" transform="translate(-988 -21595.012)">
    <g id="Grupo_222372" data-name="Grupo 222372">
      <g id="Grupo_222371" data-name="Grupo 222371">
        <g id="Grupo_184301" data-name="Grupo 184301" transform="translate(0 19871.012)">
          <rect id="Rect치ngulo_40611" data-name="Rect치ngulo 40611" width="327" height="311.958" rx="19" transform="translate(988 1724.406)" fill="#ffe595"/>
          <text id="Mapa_de_documentos:_las_entradas_y_salidas_de_un_proceso." data-name="Mapa de documentos: las entradas y salidas de un proceso." transform="translate(1009 1925.406)" fill="#12263f" font-size="16" font-family="Roboto-Bold, Roboto" font-weight="700"><tspan x="12.891" y="17">Mapa de documentos: </tspan><tspan y="17" font-family="Roboto-Regular, Roboto" font-weight="400">las entradas y </tspan><tspan x="64.238" y="41" font-family="Roboto-Regular, Roboto" font-weight="400">salidas de un proceso.</tspan></text>
          <path id="Rect치ngulo_44884" data-name="Rect치ngulo 44884" d="M20,0H307a20,20,0,0,1,20,20V178a0,0,0,0,1,0,0H0a0,0,0,0,1,0,0V20A20,20,0,0,1,20,0Z" transform="translate(988 1724)" fill="#4dd0e1"/>
          <g id="Grupo_222245" data-name="Grupo 222245" transform="translate(1074.533 1736.033)">
            <path id="Trazado_225960" data-name="Trazado 225960" d="M157.336,337.931v28.221a17.959,17.959,0,0,1-17.959,17.959H26.492A17.959,17.959,0,0,1,8.533,366.152V337.931a5.131,5.131,0,1,1,10.262,0v28.221a7.7,7.7,0,0,0,7.7,7.7H139.377a7.7,7.7,0,0,0,7.7-7.7V337.931a5.131,5.131,0,1,1,10.262,0Z" transform="translate(-5.968 -232.743)" fill="#c4dcf2"/>
            <path id="Trazado_225961" data-name="Trazado 225961" d="M69.165,52.146H58.11a7,7,0,0,1-5.365-11.381l23.926-29.65a6.77,6.77,0,0,1,10.642,0l23.926,29.65a7,7,0,0,1-5.365,11.381H94.821v64.139a5.131,5.131,0,0,1-5.131,5.131H74.3a5.131,5.131,0,0,1-5.131-5.131Z" transform="translate(-35.813 -5.966)" fill="#feca2e"/>
            <path id="Trazado_225962" data-name="Trazado 225962" d="M299.62,77.8h11.055a7,7,0,0,1,5.365,11.381l-23.926,29.65a6.771,6.771,0,0,1-10.642,0l-23.926-29.65A7,7,0,0,1,262.91,77.8h11.055V13.664A5.131,5.131,0,0,1,279.1,8.533h15.393a5.131,5.131,0,0,1,5.131,5.131Z" transform="translate(-179.039 -5.968)" fill="#feca2e"/>
            <g id="Grupo_222245-2" data-name="Grupo 222245">
              <path id="Trazado_225963" data-name="Trazado 225963" d="M146.237,324.267a7.7,7.7,0,0,0-7.7,7.7v28.221a5.131,5.131,0,0,1-5.131,5.131H20.525a5.131,5.131,0,0,1-5.131-5.131V331.964a7.7,7.7,0,1,0-15.393,0v28.221a20.548,20.548,0,0,0,20.525,20.525H133.409a20.548,20.548,0,0,0,20.525-20.525V331.964A7.7,7.7,0,0,0,146.237,324.267Zm2.565,35.918a15.408,15.408,0,0,1-15.393,15.393H20.525A15.408,15.408,0,0,1,5.131,360.185V331.964a2.565,2.565,0,1,1,5.131,0v28.221a10.262,10.262,0,0,0,10.262,10.262H133.409a10.262,10.262,0,0,0,10.262-10.262V331.964a2.565,2.565,0,1,1,5.131,0Z" transform="translate(0 -226.776)"/>
              <path id="Trazado_225964" data-name="Trazado 225964" d="M83.327,3.543a9.341,9.341,0,0,0-14.642,0L44.756,33.2A9.521,9.521,0,0,0,43.617,43.36a9.374,9.374,0,0,0,8.5,5.388h8.489v61.573a7.7,7.7,0,0,0,7.7,7.7H83.7a7.7,7.7,0,0,0,7.7-7.7V48.748h8.489a9.374,9.374,0,0,0,8.5-5.388,9.52,9.52,0,0,0-1.142-10.17Zm20.437,37.6a4.226,4.226,0,0,1-3.877,2.471H88.833a2.566,2.566,0,0,0-2.566,2.565v64.139a2.566,2.566,0,0,1-2.565,2.566H68.308a2.566,2.566,0,0,1-2.565-2.566V46.182a2.566,2.566,0,0,0-2.566-2.565H52.122a4.226,4.226,0,0,1-3.877-2.471,4.441,4.441,0,0,1,.513-4.733L72.67,6.76a4.207,4.207,0,0,1,6.647,0l23.937,29.648a4.447,4.447,0,0,1,.511,4.739Z" transform="translate(-29.825 -0.002)"/>
              <path id="Trazado_225965" data-name="Trazado 225965" d="M293.631,17.959a2.565,2.565,0,0,0,2.565-2.565V7.7A7.7,7.7,0,0,0,288.5,0H273.107a7.7,7.7,0,0,0-7.7,7.7V69.27h-8.49a9.375,9.375,0,0,0-8.5,5.388,9.52,9.52,0,0,0,1.142,10.17l23.924,29.648a9.341,9.341,0,0,0,14.642,0l23.929-29.653a9.521,9.521,0,0,0,1.139-10.167,9.374,9.374,0,0,0-8.5-5.385H296.2V25.655a2.566,2.566,0,0,0-5.131,0v46.18a2.566,2.566,0,0,0,2.566,2.566h11.055a4.225,4.225,0,0,1,3.877,2.47,4.441,4.441,0,0,1-.513,4.733l-23.911,29.653a4.332,4.332,0,0,1-6.647,0L253.554,81.61a4.446,4.446,0,0,1-.513-4.739,4.225,4.225,0,0,1,3.879-2.47h11.055a2.566,2.566,0,0,0,2.566-2.566V7.7a2.565,2.565,0,0,1,2.565-2.565H288.5A2.565,2.565,0,0,1,291.065,7.7v7.7a2.566,2.566,0,0,0,2.566,2.565Z" transform="translate(-173.05)"/>
            </g>
          </g>
        </g>
      </g>
    </g>
  </g>
</svg>
