<svg xmlns="http://www.w3.org/2000/svg" xmlns:xlink="http://www.w3.org/1999/xlink" width="190" height="115" viewBox="0 0 190 115">
  <defs>
    <clipPath id="clip-path">
      <rect id="Rectángulo_45293" data-name="Rectángulo 45293" width="100" height="100" fill="#0f2771"/>
    </clipPath>
  </defs>
  <g id="Grupo_222367" data-name="Grupo 222367" transform="translate(-180 -4793)">
    <g id="Grupo_222366" data-name="Grupo 222366">
      <g id="Grupo_222365" data-name="Grupo 222365">
        <g id="Grupo_222364" data-name="Grupo 222364">
          <path id="Trazado_226426" data-name="Trazado 226426" d="M0,0H190V115H0Z" transform="translate(180 4793)" fill="none"/>
          <g id="Grupo_146383" data-name="Grupo 146383" transform="translate(0 4399)">
            <rect id="Rectángulo_41430" data-name="Rectángulo 41430" width="85" height="28" rx="14" transform="translate(285 407)" fill="#feca2e" opacity="0.2"/>
            <rect id="Rectángulo_41431" data-name="Rectángulo 41431" width="85" height="28" rx="14" transform="translate(180 468)" fill="#4dd0e1" opacity="0.2"/>
          </g>
          <g id="Grupo_147209" data-name="Grupo 147209" transform="translate(225 4801)">
            <g id="Grupo_147210" data-name="Grupo 147210" clip-path="url(#clip-path)">
              <path id="Trazado_206254" data-name="Trazado 206254" d="M89.512.489A1.664,1.664,0,0,0,88.334,0H75a1.667,1.667,0,0,0-1.666,1.667V28.334A1.666,1.666,0,0,0,75,30H85v5H51.667V30h10a1.667,1.667,0,0,0,1.667-1.666V11.667a1.664,1.664,0,0,0-.489-1.178l-10-10A1.664,1.664,0,0,0,51.667,0H38.334a1.667,1.667,0,0,0-1.667,1.667V28.334A1.666,1.666,0,0,0,38.334,30h10v5H15V30H25a1.666,1.666,0,0,0,1.667-1.666V11.667a1.667,1.667,0,0,0-.488-1.178l-10-10A1.668,1.668,0,0,0,15,0H1.667A1.668,1.668,0,0,0,0,1.667V28.334A1.667,1.667,0,0,0,1.667,30h10v6.667a1.667,1.667,0,0,0,1.667,1.667h35v5H36.667A1.667,1.667,0,0,0,35,45V58.334A1.667,1.667,0,0,0,36.667,60H63.334A1.666,1.666,0,0,0,65,58.334v-5H78.334a8.333,8.333,0,0,1,0,16.666H70.69l2.155-2.155-2.356-2.356-5,5a1.663,1.663,0,0,0,0,2.356l5,5,2.356-2.356L70.69,73.334h7.644a11.667,11.667,0,0,0,0-23.334H65V45a1.666,1.666,0,0,0-1.666-1.666H51.667v-5h35a1.668,1.668,0,0,0,1.667-1.667V30h10A1.666,1.666,0,0,0,100,28.334V11.667a1.663,1.663,0,0,0-.488-1.178ZM40,3.334H50.977L57.644,10h-4.31V6.667H50v5a1.668,1.668,0,0,0,1.667,1.667H60V26.667H40Zm-36.666,0H14.31L20.977,10h-4.31V6.667H13.334v5A1.667,1.667,0,0,0,15,13.334h8.334V26.667h-20ZM61.667,56.667H38.334v-10H61.667Zm15-30V3.334H87.644L94.31,10H90V6.667H86.667v5a1.667,1.667,0,0,0,1.667,1.667h8.333V26.667Z" fill="#0f2771"/>
              <path id="Trazado_206255" data-name="Trazado 206255" d="M63.333,63.333H36.667A1.667,1.667,0,0,0,35,65v5H21.667a11.667,11.667,0,1,0,0,23.333H29.31l-2.155,2.155,2.357,2.357,5-5a1.667,1.667,0,0,0,0-2.357l-5-5-2.357,2.357L29.31,90H21.667a8.333,8.333,0,1,1,0-16.667H35v5A1.667,1.667,0,0,0,36.667,80H63.333A1.667,1.667,0,0,0,65,78.333V65A1.667,1.667,0,0,0,63.333,63.333ZM61.667,76.667H38.334v-10H61.667Z" fill="#0f2771"/>
              <path id="Trazado_206256" data-name="Trazado 206256" d="M36.667,100H63.333A1.667,1.667,0,0,0,65,98.333V85a1.667,1.667,0,0,0-1.667-1.667H36.667A1.667,1.667,0,0,0,35,85V98.333A1.667,1.667,0,0,0,36.667,100m1.666-13.333H61.666v10H38.333Z" fill="#0f2771"/>
            </g>
          </g>
        </g>
      </g>
    </g>
  </g>
</svg>
