<svg xmlns="http://www.w3.org/2000/svg" width="169.101" height="169.101" viewBox="0 0 169.101 169.101">
  <g id="Grupo_222364" data-name="Grupo 222364" transform="translate(7182 -660.959)">
    <g id="Grupo_222363" data-name="Grupo 222363">
      <g id="Grupo_222075" data-name="Grupo 222075" transform="translate(-7182 660.959)">
        <g id="Elipse_4774" data-name="Elipse 4774">
          <circle id="Elipse_4775" data-name="Elipse 4775" cx="84.551" cy="84.551" r="84.551" fill="#0f2771"/>
          <circle id="Elipse_4776" data-name="Elipse 4776" cx="83.89" cy="83.89" r="83.89" transform="translate(0.66 0.661)" fill="#0f2771"/>
          <g id="Grupo_222071" data-name="Grupo 222071" transform="translate(18.453 24.691)">
            <path id="Trazado_225439" data-name="Trazado 225439" d="M2079.034,4334.308a11.148,11.148,0,0,0,1.582-2.762,9.71,9.71,0,0,0,.316-6.26l-5.22-18.167a1.818,1.818,0,0,0-.275-.561,8.972,8.972,0,0,0-11.4-13.142h0l-10.272-2.411-2.092-9.622a1.8,1.8,0,1,0-3.514.764l2.333,10.73a1.8,1.8,0,0,0,1.346,1.369l8.86,2.08a8.951,8.951,0,0,0-1.21,2.495l-7.247-1.563a1.8,1.8,0,1,0-.759,3.515l7.673,1.656a8.945,8.945,0,0,0,2.35,5.112l-7.858.8-4.852-5.643a1.778,1.778,0,0,0-.422-.36,5.173,5.173,0,0,0-8.9-1.812l-6.6,7.815-7.848-.8a8.979,8.979,0,1,0-13.936-.982,1.8,1.8,0,0,0-.275.561l-5.22,18.167a9.716,9.716,0,0,0,.316,6.259,11.167,11.167,0,0,0,1.582,2.762,6,6,0,0,0,.566,11.976h20.727a1.8,1.8,0,0,0,0-3.6H2008.06a2.405,2.405,0,0,1,0-4.811h15.314a1.8,1.8,0,1,0,0-3.6h-8.763a5.988,5.988,0,0,1-5.36-4.07,6.1,6.1,0,0,1-.2-3.931l4.907-17.08a8.911,8.911,0,0,0,2.309.941,1.812,1.812,0,0,0,.628.186l16.557,1.69a1.794,1.794,0,0,0,1.557-.629l7.208-8.54a1.584,1.584,0,1,1,2.405,2.063l-9.966,11.434-15.6-1.291a1.8,1.8,0,1,0-.3,3.584l14.467,1.2,4.642,20.821a1.638,1.638,0,0,1-3.179.79l-4.456-16.2a1.8,1.8,0,0,0-2.645-1.073l-6.226,3.66a1.8,1.8,0,1,0,1.823,3.1l4.2-2.471,3.834,13.936a5.235,5.235,0,0,0,10.156-2.527l-4.576-20.521,6.255-7.176,6.66,7.179-4.575,20.518a5.235,5.235,0,0,0,10.156,2.528l3.834-13.936,4.2,2.471a1.8,1.8,0,1,0,1.822-3.1l-6.226-3.66a1.8,1.8,0,0,0-2.645,1.073l-4.456,16.2a1.638,1.638,0,0,1-3.179-.792l4.642-20.82,14.467-1.2a1.8,1.8,0,0,0-.3-3.584l-15.633,1.294-6.4-6.9,1.9-2.177c.11-.127.213-.259.308-.393l3.886,4.52a1.8,1.8,0,0,0,1.363.625,1.769,1.769,0,0,0,.183-.009l16.555-1.69a1.812,1.812,0,0,0,.629-.186,8.916,8.916,0,0,0,2.31-.941l4.907,17.08a6.1,6.1,0,0,1-.2,3.931,5.988,5.988,0,0,1-5.36,4.07h-8.763a1.8,1.8,0,1,0,0,3.6h15.313a2.405,2.405,0,1,1,0,4.811h-20.727a1.8,1.8,0,0,0,0,3.6h20.727a6,6,0,0,0,.566-11.976Zm-65.961-32.875a5.382,5.382,0,1,1,5.382,5.382A5.388,5.388,0,0,1,2013.073,4301.433Zm55,5.382a5.382,5.382,0,1,1,5.382-5.382A5.388,5.388,0,0,1,2068.073,4306.814Z" transform="translate(-1973.931 -4226.562)" fill="#fff"/>
            <path id="Trazado_225440" data-name="Trazado 225440" d="M2128.969,4213.933a8.976,8.976,0,0,0,12.288-11.247,1.809,1.809,0,0,0,.044-.395v-14.757a1.8,1.8,0,0,0-3.6,0v10.756a8.971,8.971,0,0,0-11.6,13.464l-.116.15a15.208,15.208,0,0,0-3.142,10.242l.655,10.518a1.8,1.8,0,0,0,1.793,1.686l.113,0a1.8,1.8,0,0,0,1.683-1.906l-.655-10.518a11.615,11.615,0,0,1,2.4-7.82Zm3.882-13.478a5.383,5.383,0,1,1-5.383,5.382A5.388,5.388,0,0,1,2132.851,4200.456Z" transform="translate(-2055.051 -4163.264)" fill="#fff"/>
            <path id="Trazado_225441" data-name="Trazado 225441" d="M1966.974,4167.991a1.8,1.8,0,0,0,2.534-.026l35.222-35.728a1.447,1.447,0,0,1,.783,1.284v44.724a1.8,1.8,0,0,0,3.6,0v-44.724a5.033,5.033,0,0,0-1.823-3.877l1.265-1.283,1.648,2.136a1.8,1.8,0,0,0,1.423.7,1.63,1.63,0,0,0,.168-.008,1.8,1.8,0,0,0,1.435-.977l5.241-10.325a1.8,1.8,0,0,0-1.984-2.571l-11.317,2.452a1.8,1.8,0,0,0-1.043,2.855l2.21,2.865-3.007,3.051a5.047,5.047,0,0,0-4.254,4.314l-30.871,31.315-8.681-8.44a1.831,1.831,0,0,0-1.286-.509,1.8,1.8,0,0,0-1.267.555l-40.1,41.946a1.8,1.8,0,1,0,2.6,2.485l38.847-40.635Zm46.575-46.361-2.242,4.416-2.6-3.367Z" transform="translate(-1916.368 -4117.274)" fill="#fff"/>
          </g>
        </g>
      </g>
    </g>
  </g>
</svg>
