<svg xmlns="http://www.w3.org/2000/svg" width="169.101" height="169.101" viewBox="0 0 169.101 169.101">
  <g id="Grupo_222362" data-name="Grupo 222362" transform="translate(-1090 -12360.959)">
    <g id="Grupo_222361" data-name="Grupo 222361">
      <g id="Grupo_222074" data-name="Grupo 222074" transform="translate(1090 12360.959)">
        <g id="Elipse_4774" data-name="Elipse 4774">
          <circle id="Elipse_4775" data-name="Elipse 4775" cx="84.551" cy="84.551" r="84.551" fill="#0f2771"/>
          <circle id="Elipse_4776" data-name="Elipse 4776" cx="83.89" cy="83.89" r="83.89" transform="translate(0.66 0.661)" fill="#0f2771"/>
          <g id="Grupo_222077" data-name="Grupo 222077" transform="translate(30.421 34.243)">
            <path id="Trazado_225455" data-name="Trazado 225455" d="M1461.275,4289.951c-1.88-2.275-4.021-5.806-4.284-7.87l-.333-2.615a15.716,15.716,0,0,0-1.536-5.051l-.323-.647a12.449,12.449,0,0,1-1.308-5.541v-11.78a1.679,1.679,0,0,0-3.359,0v11.78a15.829,15.829,0,0,0,1.663,7.042l.323.648a12.351,12.351,0,0,1,1.209,3.974l.333,2.614c.385,3.02,2.919,6.909,4.621,9.08a1.673,1.673,0,0,0-.087.4l-.966,11.243-28.878,9.283a15.984,15.984,0,0,0-11.2,15.294,1.679,1.679,0,1,0,3.358,0,12.641,12.641,0,0,1,8.86-12.095l29.948-9.626a1.679,1.679,0,0,0,1.159-1.455l1.062-12.356a25.161,25.161,0,0,0-.264-2.325Z" transform="translate(-1415.988 -4226.017)" fill="#fff"/>
            <path id="Trazado_225456" data-name="Trazado 225456" d="M1642.038,4312.165l-28.885-9.285-.966-11.243c0-.007,0-.014,0-.021,1.9-2.3,4.529-6.368,4.923-9.461l.274-2.149a12.334,12.334,0,0,1,1.588-4.677,15.764,15.764,0,0,0,2.146-7.936v-11.47a1.679,1.679,0,0,0-3.358,0v11.47a12.4,12.4,0,0,1-1.688,6.243,15.66,15.66,0,0,0-2.019,5.944l-.274,2.149c-.276,2.167-2.563,5.917-4.524,8.15a6.464,6.464,0,0,0-.412,2.045l1.062,12.356a1.678,1.678,0,0,0,1.159,1.455l29.955,9.629a12.638,12.638,0,0,1,8.853,12.092,1.679,1.679,0,1,0,3.358,0A15.982,15.982,0,0,0,1642.038,4312.165Z" transform="translate(-1544.751 -4225.665)" fill="#fff"/>
            <path id="Trazado_225457" data-name="Trazado 225457" d="M1662.122,4307.155l-.377-4.387a11.06,11.06,0,0,0,2.292-4.634l.13-1.016a4.942,4.942,0,0,1,.637-1.876,8.337,8.337,0,0,0,1.135-4.2v-4.893a10.864,10.864,0,0,0-21.728,0v5.12a8.373,8.373,0,0,0,.88,3.726l.152.3a4.951,4.951,0,0,1,.485,1.595l.158,1.236a10.942,10.942,0,0,0,2.129,4.412l-.4,4.609-13.092,4.208a1.679,1.679,0,1,0,1.028,3.2l14.156-4.55a1.68,1.68,0,0,0,1.159-1.455l.5-5.84a4.005,4.005,0,0,0-.325-1.739,9.171,9.171,0,0,1-1.829-3.268l-.157-1.235a8.315,8.315,0,0,0-.813-2.673l-.153-.305a4.994,4.994,0,0,1-.525-2.223v-5.12a7.505,7.505,0,0,1,15.011,0v4.893a4.979,4.979,0,0,1-.677,2.5,8.278,8.278,0,0,0-1.068,3.144l-.13,1.016a8.933,8.933,0,0,1-1.925,3.38,2.926,2.926,0,0,0-.412,1.627l.5,5.84a1.68,1.68,0,0,0,1.159,1.455l6.827,2.195a1.679,1.679,0,0,0,1.028-3.2Z" transform="translate(-1561.226 -4239.801)" fill="#fff"/>
            <path id="Trazado_225458" data-name="Trazado 225458" d="M1415.8,4312.5l7.74-2.488a1.68,1.68,0,0,0,1.159-1.455l.5-5.84a1.639,1.639,0,0,0,0-.236,1.673,1.673,0,0,0-.327-1.5,9.169,9.169,0,0,1-1.829-3.268l-.158-1.235a8.314,8.314,0,0,0-.813-2.672l-.153-.306a4.994,4.994,0,0,1-.525-2.223v-5.12a7.505,7.505,0,0,1,15.011,0v4.893a4.979,4.979,0,0,1-.677,2.5,8.293,8.293,0,0,0-1.068,3.144l-.129,1.016a8.933,8.933,0,0,1-1.925,3.38,2.926,2.926,0,0,0-.412,1.627l.5,5.84a1.679,1.679,0,0,0,1.16,1.455l14.156,4.55a1.679,1.679,0,1,0,1.028-3.2l-13.093-4.208-.377-4.387a11.061,11.061,0,0,0,2.293-4.634l.13-1.016a4.932,4.932,0,0,1,.637-1.876,8.341,8.341,0,0,0,1.134-4.2v-4.893a10.864,10.864,0,0,0-21.728,0v5.12a8.373,8.373,0,0,0,.88,3.726l.152.305a4.957,4.957,0,0,1,.485,1.595l.157,1.236a10.942,10.942,0,0,0,2.129,4.412l-.4,4.609-6.677,2.146a1.679,1.679,0,1,0,1.028,3.2Z" transform="translate(-1413.608 -4239.801)" fill="#fff"/>
            <path id="Trazado_225459" data-name="Trazado 225459" d="M1566.539,4268.379a20.575,20.575,0,0,0-.141-2.4,1.679,1.679,0,1,0-3.335.394,17.237,17.237,0,0,1,.117,2.009c0,7.686-5.093,13.939-11.354,13.939s-11.354-6.253-11.354-13.939a17.173,17.173,0,0,1,.1-1.83,1.679,1.679,0,0,0-3.34-.357,20.609,20.609,0,0,0-.116,2.187c0,9.538,6.6,17.3,14.712,17.3S1566.539,4277.917,1566.539,4268.379Z" transform="translate(-1496.573 -4232.55)" fill="#fff"/>
            <path id="Trazado_225460" data-name="Trazado 225460" d="M1572.6,4280.794a2.757,2.757,0,0,1-5.254-.049,1.679,1.679,0,0,0-3.037,1.435,6.092,6.092,0,0,0,11.31.086,1.679,1.679,0,0,0-3.019-1.472Z" transform="translate(-1514.736 -4242.821)" fill="#fff"/>
            <path id="Trazado_225461" data-name="Trazado 225461" d="M1424.821,4179.44l10.04,6.212a1.676,1.676,0,0,0,1.641.071l4.635-2.345,33.74,21.055a1.67,1.67,0,0,0,.888.255l.048,0,.047,0a1.668,1.668,0,0,0,.887-.255l33.741-21.055,4.635,2.345a1.676,1.676,0,0,0,1.642-.071l10.04-6.212a1.679,1.679,0,0,0-.126-2.926l-4.365-2.208v-5.447a1.679,1.679,0,0,0-2.555-1.433l-10.076,6.154a1.679,1.679,0,0,0-.8,1.433v5.41l-14.088,8.792a21.118,21.118,0,0,0-37.891.043l-14.073-8.782v-5.462a1.679,1.679,0,0,0-.8-1.433l-10.076-6.154a1.679,1.679,0,0,0-2.555,1.433v5.4l-4.449,2.251a1.679,1.679,0,0,0-.125,2.926Zm55.825,18.6a5.926,5.926,0,0,0-9.6.038l-4.592-2.865c2.105-3.813,5.643-6.147,9.408-6.147s7.276,2.312,9.384,6.1Zm-4.833,3.015-1.892-1.182a2.517,2.517,0,0,1,3.843-.036ZM1515.8,4182.3l-1.979-1,6.662-4.157,2.01,1.018Zm-3.56-6.347,6.717-4.1v2.283l-6.717,4.192Zm-36.381,4.851a17.658,17.658,0,0,1,16.068,10.2l-3.831,2.391c-2.713-4.777-7.281-7.683-12.237-7.683s-9.549,2.929-12.259,7.726l-3.828-2.389A17.668,17.668,0,0,1,1475.859,4180.805Zm-36.389-4.851v2.424l-6.717-4.191v-2.335Zm-8.326,1.188,6.662,4.157-1.979,1-6.693-4.142Z" transform="translate(-1420.606 -4167.179)" fill="#fff"/>
          </g>
        </g>
      </g>
    </g>
  </g>
</svg>
