<svg xmlns="http://www.w3.org/2000/svg" width="1030" height="320" viewBox="0 0 1030 320">
  <g id="Grupo_222346" data-name="Grupo 222346" transform="translate(-285 -15818)">
    <g id="Grupo_222345" data-name="Grupo 222345">
      <g id="Grupo_222344" data-name="Grupo 222344">
        <g id="Grupo_222343" data-name="Grupo 222343">
          <g id="Grupo_222342" data-name="Grupo 222342">
            <path id="Trazado_226381" data-name="Trazado 226381" d="M0,0H1030V320H0Z" transform="translate(285 15818)" fill="none"/>
            <g id="Grupo_152094" data-name="Grupo 152094" transform="translate(1082.54 15871.771)">
              <g id="Grupo_152089" data-name="Grupo 152089" transform="translate(0.828 179.779)">
                <path id="Trazado_199254" data-name="Trazado 199254" d="M723.007,148.017c-2.143,10.012-5.428,25.056-7.275,33.493a8.035,8.035,0,0,1-7.851,6.319h-127.8a8.038,8.038,0,0,1-8-7.224L569.159,151.8a8.037,8.037,0,0,1,7.726-8.844L714.878,138.3A8.037,8.037,0,0,1,723.007,148.017Z" transform="translate(-569.117 -138.296)" fill="#feca2e"/>
                <text id="Plantilla_" data-name="Plantilla " transform="translate(127.868 35.513)" fill="#12263f" font-size="28" font-family="Roboto-Black, Roboto" font-weight="800"><tspan x="-111.111" y="0">Plantilla </tspan></text>
              </g>
              <g id="Grupo_152093" data-name="Grupo 152093" transform="translate(0)">
                <path id="Trazado_199255" data-name="Trazado 199255" d="M659.632,136.549a40.938,40.938,0,0,1-32.791,11.308c-2.233-.247-3.954-3.262-1.854-4.929a25.29,25.29,0,0,0,8-27.881c-.877-2.4-2.525-4.619-2.281-7.3.3-3.329,3.177-5.095,6.093-5.97,10.794-3.235,22.972-2.777,33.77.109,2.4.643,2.425,3.337,1.1,4.73A41.009,41.009,0,0,1,659.632,136.549Z" transform="translate(-526.487 11.98)" fill="#4dd0e1"/>
                <g id="Grupo_152090" data-name="Grupo 152090" transform="translate(13.624 4.139)">
                  <path id="Trazado_199256" data-name="Trazado 199256" d="M751.087,83.342c-7.64,23.178-12.4,46.972-20.5,70.083a14.328,14.328,0,0,1-12.465,9.5c-31.2,2.351-62.378,4.912-93.575,7.258a14.418,14.418,0,0,1-14.2-8.459c-15.776-34.946-30.269-69.416-33.9-107.534a14.358,14.358,0,0,1,15.78-15.549C643.916,43.8,693.5,46.93,742.478,65.357A14.4,14.4,0,0,1,751.087,83.342Z" transform="translate(-576.383 -38.566)" fill="#4dd0e1"/>
                </g>
                <g id="Grupo_152091" data-name="Grupo 152091" transform="translate(0 9.404)">
                  <path id="Trazado_199257" data-name="Trazado 199257" d="M584.585,65.2c3.549-.261,5.324-.372,8.876-.585a13.255,13.255,0,0,1-3.614-10.479,14.3,14.3,0,0,1,12.192-12.4c8.686-1.3,16.44,4.656,17.307,12.8a12.988,12.988,0,0,1-2.1,8.608A215.665,215.665,0,0,0,641.4,60.307a1.464,1.464,0,0,1,1.744,1.145c1.173,7.177,1.828,10.761,3.126,17.941a18.1,18.1,0,0,1,9.487-3.469c6.83-.509,13.136,3.089,15.1,9.167,2.682,8.29-3.364,17.354-12.488,18.969a16.347,16.347,0,0,1-7.842-.52c1.634,9.935,2.4,14.92,3.422,24.973a1.594,1.594,0,0,1-1.414,1.663c-9.479,1.353-14.227,1.948-23.724,3.1a13.065,13.065,0,0,1,3.114,9.991,14.793,14.793,0,0,1-10.2,12.316,15.624,15.624,0,0,1-19.859-11.708,12.855,12.855,0,0,1,.724-7.5c-3.221.379-4.832.569-8.052.958-9.531,1.148-18.966-5.1-20.62-14.126A364.1,364.1,0,0,1,568.7,83.093C567.976,74.087,575.241,65.883,584.585,65.2Z" transform="translate(-568.647 -41.555)" fill="#0f2771"/>
                </g>
                <g id="Grupo_152092" data-name="Grupo 152092" transform="translate(112.312 4.139)">
                  <path id="Trazado_199258" data-name="Trazado 199258" d="M640.187,54.427a140.745,140.745,0,0,1,3.193-14.332,2.14,2.14,0,0,1,2.429-1.493q35.177,6.694,70.356,13.386a1.711,1.711,0,0,1,1.337,2.281c-2.45,7.446-3.535,11.194-5.546,18.712a15.344,15.344,0,0,1,10.255-.583,12.569,12.569,0,0,1,8.815,14.4c-1.434,8.559-9.681,14.956-17.805,13.79a12.352,12.352,0,0,1-7.073-3.543c-2.3,10.393-3.332,15.6-5.507,25.994a2.066,2.066,0,0,1-2.209,1.685c-8.219-1.161-12.293-1.853-20.466-3.427a15.337,15.337,0,0,1-.685,10.857,14.572,14.572,0,0,1-13.448,8.806c-9.035-.31-14.411-9.054-12.423-17.818a15.807,15.807,0,0,1,3.434-6.861c-8.267-1.978-12.427-3.054-20.9-5.34a2.1,2.1,0,0,1-1.485-2.4c1.656-8.542,2.194-12.9,3.283-21.62a1.671,1.671,0,0,1,1.876-1.515c7.008.829,13.133-4.147,14.193-11.641a15.777,15.777,0,0,0-10.283-17.1A2.009,2.009,0,0,1,640.187,54.427Z" transform="translate(-632.419 -38.566)" fill="#feca2e"/>
                </g>
                <path id="Trazado_199259" data-name="Trazado 199259" d="M677.476,36.276l12.3,2.923c3.128.743,7.078,1.191,9.161,3.95,2.291,3.034.648,7.453.019,10.8q-1.16,6.176-2.321,12.353c-.46,2.452-4.2,1.412-3.742-1.032l2.018-10.741q.5-2.684,1.009-5.37c.233-1.247.729-2.906-.28-3.931a6.969,6.969,0,0,0-3.313-1.435c-1.634-.414-3.281-.782-4.92-1.173q-5.479-1.3-10.96-2.606C674.015,39.439,675.044,35.7,677.476,36.276Z" transform="translate(-487.653 -36.216)" fill="#4dd0e1"/>
                <path id="Trazado_199260" data-name="Trazado 199260" d="M582.94,107.486a1.993,1.993,0,0,1,1.941-1.941,1.957,1.957,0,0,1,1.941,1.941,16.927,16.927,0,0,0,5.187,13.769,16.713,16.713,0,0,0,13.936,4.177,2,2,0,0,1,2.386,1.356,1.955,1.955,0,0,1-1.354,2.386,20.868,20.868,0,0,1-17.464-4.947A20.618,20.618,0,0,1,582.94,107.486Z" transform="translate(-557.819 16.554)" fill="#4dd0e1"/>
              </g>
            </g>
            <g id="Grupo_152101" data-name="Grupo 152101" transform="translate(728.07 15848.029)">
              <g id="Grupo_152095" data-name="Grupo 152095" transform="translate(20.46 209.513)">
                <path id="Trazado_199261" data-name="Trazado 199261" d="M299.519,155.624,303.224,181a8.642,8.642,0,0,0,8.3,7.388l143.94,4.19a8.642,8.642,0,0,0,8.8-7.369l4.769-32.143a8.642,8.642,0,0,0-8.693-9.908l-152.415,2.577A8.642,8.642,0,0,0,299.519,155.624Z" transform="translate(-298.957 -143.157)" fill="#feca2e"/>
                <text id="Reglas_" data-name="Reglas " transform="translate(84.469 34.795)" fill="#12263f" font-size="28" font-family="Roboto-Black, Roboto" font-weight="800"><tspan x="-46.744" y="0">Reglas </tspan></text>
              </g>
              <g id="Grupo_152100" data-name="Grupo 152100">
                <path id="Trazado_199262" data-name="Trazado 199262" d="M490.342,125.023c0,49.441-62.193,78-111.634,78s-75.463-40.08-75.463-89.521S359.45,40.581,408.891,40.581,490.342,75.58,490.342,125.023Z" transform="translate(-276.06 -11.72)" fill="#4dd0e1"/>
                <g id="Grupo_152097" data-name="Grupo 152097" transform="translate(0 18.238)">
                  <g id="Grupo_152096" data-name="Grupo 152096">
                    <path id="Trazado_199263" data-name="Trazado 199263" d="M430.965,149.916,356.243,189.5a3.45,3.45,0,0,1-4.642-1.4c-19.477-35.607-42.41-69.114-63.3-103.885a3.453,3.453,0,0,1,.932-4.572,346.6,346.6,0,0,1,84.854-44.881,3.451,3.451,0,0,1,4.088,1.395c21.965,34.621,39.515,71.295,54.395,109.462A3.454,3.454,0,0,1,430.965,149.916Z" transform="translate(-287.809 -34.549)" fill="#0f2771"/>
                  </g>
                </g>
                <g id="Grupo_152098" data-name="Grupo 152098" transform="translate(24.385 45.05)">
                  <path id="Trazado_199264" data-name="Trazado 199264" d="M302.19,70.8c1.212,2.085,3.241,2.682,5.838,1.611a3.965,3.965,0,0,0,1.918-5.725,4.187,4.187,0,0,0-5.852-1.654C301.91,66.3,300.98,68.714,302.19,70.8Z" transform="translate(-301.655 -38.613)" fill="#feca2e"/>
                  <path id="Trazado_199265" data-name="Trazado 199265" d="M307.92,79.28c1.21,2.087,3.241,2.682,5.838,1.613a3.968,3.968,0,0,0,1.918-5.725,4.187,4.187,0,0,0-5.852-1.655C307.64,74.779,306.708,77.193,307.92,79.28Z" transform="translate(-297.295 -32.159)" fill="#feca2e"/>
                  <path id="Trazado_199266" data-name="Trazado 199266" d="M313.453,87.834c1.21,2.087,3.24,2.682,5.838,1.613a3.968,3.968,0,0,0,1.918-5.725,4.187,4.187,0,0,0-5.852-1.655C313.173,83.333,312.241,85.747,313.453,87.834Z" transform="translate(-293.083 -25.648)" fill="#feca2e"/>
                  <path id="Trazado_199267" data-name="Trazado 199267" d="M345.706,51.161a2.983,2.983,0,0,0-3.982-1.044,160.533,160.533,0,0,0-30.735,17.958,3,3,0,0,0-1.044,3.982,2.933,2.933,0,0,0,3.984,1.044,160.464,160.464,0,0,1,30.734-17.958A2.93,2.93,0,0,0,345.706,51.161Z" transform="translate(-295.644 -49.773)" fill="#4dd0e1"/>
                  <path id="Trazado_199268" data-name="Trazado 199268" d="M356.945,58.069a159.137,159.137,0,0,0-39.689,19.748c-3.068,2.11-.16,7.156,2.938,5.026a153.636,153.636,0,0,1,38.3-19.161C362.026,62.5,360.511,56.875,356.945,58.069Z" transform="translate(-290.773 -43.584)" fill="#4dd0e1"/>
                  <path id="Trazado_199269" data-name="Trazado 199269" d="M362.046,67.987a159.2,159.2,0,0,0-39.689,19.748c-3.068,2.11-.16,7.157,2.938,5.026a153.63,153.63,0,0,1,38.3-19.16C367.127,72.418,365.612,66.793,362.046,67.987Z" transform="translate(-286.891 -36.035)" fill="#4dd0e1"/>
                </g>
                <path id="Trazado_199270" data-name="Trazado 199270" d="M410.557,99.071c-.106-1.8-1.964-3.512-3.945-2.277-8.9,5.541-17.018,13.587-21.72,23.052-1.272,2.557-1.9,5.657.181,8,1.677,1.884,4.253,2.179,6.458,3.115A23.719,23.719,0,0,1,405.5,154.308c-.2,2.506,2.962,3.26,4.563,1.89a37.808,37.808,0,0,0,.5-57.126Z" transform="translate(-214.808 30.747)" fill="#4dd0e1"/>
                <path id="Trazado_199271" data-name="Trazado 199271" d="M327.265,44.227c4.646,28.664,10.829,56.952,18.254,85.035,12.858,8.4,25.655,16.875,38.226,25.7,16.745-3.013,33.472-6.085,50.272-8.767a4.471,4.471,0,0,0,3.753-4.776c-3.031-38.19-11.363-75.683-17.451-113.46a4.467,4.467,0,0,0-5.113-3.711c-28.15,4.54-56.082,10.324-84.232,14.866A4.464,4.464,0,0,0,327.265,44.227Z" transform="translate(-257.822 -24.193)" fill="#feca2e"/>
                <path id="Trazado_199272" data-name="Trazado 199272" d="M337.049,48.753c.511,3.369,2.869,5.206,6.839,5.146a5.6,5.6,0,0,0,5.486-6.532,5.913,5.913,0,0,0-6.833-5.208C339.014,42.693,336.54,45.382,337.049,48.753Z" transform="translate(-250.381 -10.576)" fill="#4dd0e1"/>
                <path id="Trazado_199273" data-name="Trazado 199273" d="M340.586,62.886c.511,3.369,2.869,5.2,6.839,5.144a5.6,5.6,0,0,0,5.486-6.53,5.913,5.913,0,0,0-6.833-5.208C342.551,56.826,340.077,59.515,340.586,62.886Z" transform="translate(-247.689 0.181)" fill="#4dd0e1"/>
                <path id="Trazado_199274" data-name="Trazado 199274" d="M342.323,77.351c.509,3.369,2.867,5.206,6.837,5.144a5.6,5.6,0,0,0,5.486-6.53,5.913,5.913,0,0,0-6.833-5.208C344.286,71.291,341.812,73.98,342.323,77.351Z" transform="translate(-246.367 11.191)" fill="#4dd0e1"/>
                <path id="Trazado_199275" data-name="Trazado 199275" d="M337.6,85.668c12.858,8.4,25.655,16.875,38.226,25.7q-3-13.224-6.044-26.435a4.461,4.461,0,0,0-5.072-3.408Q351.181,83.733,337.6,85.668Z" transform="translate(-249.907 19.401)" fill="#32547c"/>
                <g id="Grupo_152099" data-name="Grupo 152099" transform="translate(162.824 73.516)">
                  <path id="Trazado_199276" data-name="Trazado 199276" d="M381.3,96.588c4.049,13.082,14.519,18.959,30.253,16.338,14.121-2.351,21.926-16.157,17.879-29.239S412.841,62.866,399.153,67.1,377.25,83.5,381.3,96.588Z" transform="translate(-380.263 -65.937)" fill="#0f2771"/>
                  <path id="Trazado_199277" data-name="Trazado 199277" d="M384.419,95.657s11.439-2.166,13.5-1.7c0,0,3.413-17.294,15.676-24.427,0,0-11.035,25.938-11.208,32.122Z" transform="translate(-377.099 -63.199)" fill="#feca2e"/>
                </g>
                <path id="Trazado_199278" data-name="Trazado 199278" d="M384.394,37.814,352.1,44.131c-3.674.717-2.119,6.33,1.546,5.613q16.149-3.159,32.3-6.315C389.614,42.71,388.059,37.1,384.394,37.814Z" transform="translate(-240.472 -13.874)" fill="#0f2771"/>
                <path id="Trazado_199279" data-name="Trazado 199279" d="M392.4,55.371a2.979,2.979,0,0,0-3.58-2.032L355.857,58.69a2.933,2.933,0,0,0-2.034,3.58A2.981,2.981,0,0,0,357.4,64.3l32.963-5.352A2.932,2.932,0,0,0,392.4,55.371Z" transform="translate(-237.632 -2.051)" fill="#0f2771"/>
                <path id="Trazado_199280" data-name="Trazado 199280" d="M395.73,69.683a2.978,2.978,0,0,0-3.58-2.032l-33.633,5.62a2.933,2.933,0,0,0-2.032,3.58,2.979,2.979,0,0,0,3.58,2.032l33.633-5.62A2.933,2.933,0,0,0,395.73,69.683Z" transform="translate(-235.607 8.842)" fill="#0f2771"/>
                <path id="Trazado_199281" data-name="Trazado 199281" d="M412.46,58.826c-1.154-2.217-4.5-.257-3.35,1.958A133.793,133.793,0,0,1,424.1,117.094c.1,2.489,3.982,2.5,3.882,0A138.323,138.323,0,0,0,412.46,58.826Z" transform="translate(-195.663 1.425)" fill="#4dd0e1"/>
                <path id="Trazado_199282" data-name="Trazado 199282" d="M308.506,118.9a67.809,67.809,0,0,1-9.146-29.4c-.176-2.478-4.058-2.5-3.88,0a72.154,72.154,0,0,0,9.674,31.357C306.416,123.01,309.772,121.061,308.506,118.9Z" transform="translate(-281.975 24.094)" fill="#4dd0e1"/>
              </g>
            </g>
            <g id="Grupo_152106" data-name="Grupo 152106" transform="translate(315 15866.986)">
              <g id="Grupo_152102" data-name="Grupo 152102" transform="translate(0 183.847)">
                <path id="Trazado_199283" data-name="Trazado 199283" d="M104.778,141.781,112.3,165.8c1.382,4.413,6.768,7.6,13.093,7.742l181.09,4.107c6.571.148,12.385-3.02,13.923-7.591l10.237-30.424c2.119-6.3-4.644-12.335-13.706-12.229L118.087,129.7C109.3,129.805,102.859,135.651,104.778,141.781Z" transform="translate(-104.438 -127.407)" fill="#feca2e"/>
                <text id="Funcionalidad" transform="translate(105.04 35.502)" fill="#12263f" font-size="28" font-family="Roboto-Black, Roboto" font-weight="800"><tspan x="-88.484" y="0">Funcionalidad</tspan></text>
              </g>
              <g id="Grupo_152105" data-name="Grupo 152105" transform="translate(46.204)">
                <g id="Grupo_152103" data-name="Grupo 152103" transform="translate(6.837)">
                  <path id="Trazado_199284" data-name="Trazado 199284" d="M249.822,109.858c1.309-1.5,1.168-4.278-1.344-4.838-11.278-2.511-23.879-2.453-34.888,1.36-2.975,1.03-5.865,2.982-6.034,6.433-.137,2.776,1.663,5,2.673,7.437a26.144,26.144,0,0,1-7.046,29.15c-2.094,1.814-.185,4.854,2.131,5.01a41.677,41.677,0,0,0,44.508-44.553Z" transform="translate(-83.005 38.089)" fill="#4dd0e1"/>
                  <path id="Trazado_199285" data-name="Trazado 199285" d="M342.448,97.227c-8.755-14.544-23.319-24.637-38.368-32.488S273.037,50.8,258.631,41.819c-10.352-6.453-20.118-14.5-31.947-17.478-11.116-2.8-22.9-.787-33.86,2.577-13.187,4.047-25.968,10.167-36.065,19.568-23.441,21.824-28.273,59.629-14.728,88.649s42.938,48.918,74.338,55.226,64.4.139,93.7-12.791c13.677-6.037,32.562-15.537,36.408-31.443C350.47,129.633,351.505,112.276,342.448,97.227Z" transform="translate(-134.555 -23.017)" fill="#4dd0e1"/>
                </g>
                <g id="Grupo_152104" data-name="Grupo 152104" transform="translate(26.795 40.496)">
                  <path id="Trazado_199286" data-name="Trazado 199286" d="M149.937,104.058l4.088.38a1.585,1.585,0,0,1,1.294.933,37.5,37.5,0,0,0,2.962,5.308,1.589,1.589,0,0,1,.113,1.59l-1.825,3.681a2.669,2.669,0,0,0,.736,3.276l1.722,1.363,7.58,6,1.722,1.361a2.665,2.665,0,0,0,3.357-.039l3.161-2.622a1.587,1.587,0,0,1,1.574-.255,37.508,37.508,0,0,0,5.849,1.661,1.586,1.586,0,0,1,1.2,1.044l1.312,3.89a2.666,2.666,0,0,0,2.835,1.8l2.182-.255,9.6-1.12,2.18-.254a2.668,2.668,0,0,0,2.346-2.4l.382-4.088a1.587,1.587,0,0,1,.932-1.294,37.515,37.515,0,0,0,5.31-2.962,1.589,1.589,0,0,1,1.59-.113l3.679,1.823a2.668,2.668,0,0,0,3.278-.734l1.361-1.722,6-7.58L227.825,111a2.669,2.669,0,0,0-.039-3.359l-2.622-3.159a1.587,1.587,0,0,1-.255-1.574,37.5,37.5,0,0,0,1.659-5.849,1.586,1.586,0,0,1,1.046-1.2l3.89-1.312a2.667,2.667,0,0,0,1.8-2.837l-.254-2.18-1.12-9.6-.254-2.18a2.669,2.669,0,0,0-2.4-2.348l-4.089-.38a1.589,1.589,0,0,1-1.294-.932,37.5,37.5,0,0,0-2.96-5.31,1.585,1.585,0,0,1-.114-1.59l1.825-3.679a2.668,2.668,0,0,0-.734-3.277l-1.722-1.361-7.582-6-1.722-1.363a2.667,2.667,0,0,0-3.357.039l-3.161,2.622a1.584,1.584,0,0,1-1.573.255,37.558,37.558,0,0,0-5.849-1.659,1.591,1.591,0,0,1-1.206-1.046l-1.312-3.89a2.668,2.668,0,0,0-2.835-1.8l-2.182.255-9.6,1.12-2.182.254a2.668,2.668,0,0,0-2.346,2.4l-.38,4.089a1.591,1.591,0,0,1-.933,1.294,37.307,37.307,0,0,0-5.308,2.96,1.588,1.588,0,0,1-1.592.114l-3.679-1.825a2.665,2.665,0,0,0-3.276.734l-1.363,1.722-6,7.582-1.361,1.721a2.667,2.667,0,0,0,.039,3.359l2.621,3.159a1.592,1.592,0,0,1,.257,1.574,37.371,37.371,0,0,0-1.661,5.849,1.592,1.592,0,0,1-1.044,1.206l-3.892,1.31a2.669,2.669,0,0,0-1.8,2.837l.254,2.18,1.12,9.6.255,2.18A2.668,2.668,0,0,0,149.937,104.058Zm32.821-31.984a18.934,18.934,0,1,1-10.806,24.5A18.935,18.935,0,0,1,182.758,72.074Z" transform="translate(-145.888 -46.011)" fill="#0f2771"/>
                  <path id="Trazado_199287" data-name="Trazado 199287" d="M198.254,105.943l3.494.326a1.36,1.36,0,0,1,1.106.8,32.166,32.166,0,0,0,2.533,4.538,1.359,1.359,0,0,1,.1,1.36l-1.56,3.144a2.284,2.284,0,0,0,.629,2.8l1.472,1.164,6.481,5.127,1.471,1.164a2.282,2.282,0,0,0,2.871-.033l2.7-2.24a1.357,1.357,0,0,1,1.346-.22,31.92,31.92,0,0,0,5,1.419,1.358,1.358,0,0,1,1.03.893l1.12,3.327a2.282,2.282,0,0,0,2.425,1.536l1.865-.217,8.207-.958,1.863-.217a2.278,2.278,0,0,0,2.006-2.054l.326-3.5a1.357,1.357,0,0,1,.8-1.106,32.155,32.155,0,0,0,4.538-2.531,1.354,1.354,0,0,1,1.36-.1l3.144,1.559a2.282,2.282,0,0,0,2.8-.629l1.164-1.472,5.127-6.479,1.164-1.472a2.282,2.282,0,0,0-.033-2.871l-2.242-2.7a1.357,1.357,0,0,1-.218-1.346,31.9,31.9,0,0,0,1.42-5,1.355,1.355,0,0,1,.893-1.03l3.327-1.122a2.279,2.279,0,0,0,1.536-2.425l-.217-1.863-.958-8.207-.218-1.865a2.28,2.28,0,0,0-2.052-2.006l-3.5-.326a1.355,1.355,0,0,1-1.106-.8,31.974,31.974,0,0,0-2.531-4.538,1.35,1.35,0,0,1-.1-1.36l1.559-3.145a2.279,2.279,0,0,0-.629-2.8L258.3,67.312l-6.479-5.125-1.472-1.166a2.282,2.282,0,0,0-2.871.033l-2.7,2.242a1.357,1.357,0,0,1-1.346.218,32.141,32.141,0,0,0-5-1.419,1.352,1.352,0,0,1-1.03-.893l-1.122-3.325a2.281,2.281,0,0,0-2.425-1.537l-1.863.218-8.207.956-1.865.218a2.281,2.281,0,0,0-2.006,2.053l-.326,3.494a1.359,1.359,0,0,1-.8,1.108,31.867,31.867,0,0,0-4.537,2.531,1.359,1.359,0,0,1-1.36.1l-3.145-1.559a2.279,2.279,0,0,0-2.8.627l-1.166,1.472-5.125,6.481-1.166,1.471a2.282,2.282,0,0,0,.033,2.871l2.242,2.7a1.358,1.358,0,0,1,.218,1.346,32.163,32.163,0,0,0-1.419,5,1.355,1.355,0,0,1-.893,1.03l-3.325,1.12A2.281,2.281,0,0,0,194.808,92l.218,1.865.956,8.207.218,1.863A2.278,2.278,0,0,0,198.254,105.943ZM226.309,78.6a16.184,16.184,0,1,1-9.237,20.942A16.185,16.185,0,0,1,226.309,78.6Z" transform="translate(-108.664 -38.16)" fill="#feca2e"/>
                </g>
                <path id="Trazado_199288" data-name="Trazado 199288" d="M272.007,88.366c-.255-2.46-4.139-2.487-3.882,0a44.812,44.812,0,0,1-18.392,40.815c-2.027,1.427-.092,4.792,1.958,3.351A48.659,48.659,0,0,0,272.007,88.366Z" transform="translate(-40.704 25.311)" fill="#4dd0e1"/>
                <path id="Trazado_199289" data-name="Trazado 199289" d="M158.369,26.471A38.381,38.381,0,0,0,130.74,53.935c-.608,2.422,3.133,3.455,3.742,1.03A34.479,34.479,0,0,1,159.4,30.214C161.824,29.62,160.8,25.878,158.369,26.471Z" transform="translate(-130.673 -20.435)" fill="#4dd0e1"/>
              </g>
            </g>
          </g>
        </g>
      </g>
    </g>
  </g>
</svg>
