<svg xmlns="http://www.w3.org/2000/svg" width="366" height="238" viewBox="0 0 366 238">
  <g id="Grupo_222345" data-name="Grupo 222345" transform="translate(-1054 -14931)">
    <g id="Grupo_222344" data-name="Grupo 222344">
      <g id="Grupo_222343" data-name="Grupo 222343">
        <g id="Grupo_222117" data-name="Grupo 222117" transform="translate(0 -7)">
          <rect id="Rectángulo_295776" data-name="Rectángulo 295776" width="366" height="238" rx="13" transform="translate(1054 14938)" fill="#4dd0e1"/>
          <g id="Grupo_222116" data-name="Grupo 222116" transform="translate(912.777 14893.366)">
            <rect id="Rectángulo_295540" data-name="Rectángulo 295540" width="346.657" height="224.459" rx="13" transform="translate(148.72 51.104)" fill="#fff"/>
            <rect id="Rectángulo_295541" data-name="Rectángulo 295541" width="121.72" height="121.72" transform="translate(148.72 87.539)" fill="#f5f5f5"/>
            <path id="Rectángulo_295542" data-name="Rectángulo 295542" d="M15,0H331.657a15,15,0,0,1,15,15V36.435a0,0,0,0,1,0,0H0a0,0,0,0,1,0,0V15A15,15,0,0,1,15,0Z" transform="translate(148.72 51.104)" fill="#4dd0e1"/>
            <g id="Grupo_215042" data-name="Grupo 215042" transform="translate(161.382 65.431)">
              <path id="Trazado_223295" data-name="Trazado 223295" d="M164.688,63.479a4.54,4.54,0,1,1-4.54-4.54A4.54,4.54,0,0,1,164.688,63.479Z" transform="translate(-155.609 -58.939)" fill="#fff"/>
              <path id="Trazado_223296" data-name="Trazado 223296" d="M172.394,63.479a4.54,4.54,0,1,1-4.54-4.54A4.54,4.54,0,0,1,172.394,63.479Z" transform="translate(-149.586 -58.939)" fill="#fff"/>
              <path id="Trazado_223297" data-name="Trazado 223297" d="M180.1,63.479a4.54,4.54,0,1,1-4.54-4.54A4.54,4.54,0,0,1,180.1,63.479Z" transform="translate(-143.563 -58.939)" fill="#fff"/>
            </g>
            <g id="Grupo_215130" data-name="Grupo 215130" transform="translate(156.967 102.867)">
              <g id="Grupo_215129" data-name="Grupo 215129">
                <g id="Grupo_215128" data-name="Grupo 215128">
                  <g id="Grupo_215121" data-name="Grupo 215121" transform="translate(25.836)">
                    <path id="Trazado_223305" data-name="Trazado 223305" d="M213.718,91.321a16.033,16.033,0,0,0-7.955-9.494,20.223,20.223,0,0,0-13.64-1.252,42.847,42.847,0,0,0-12.706,5.682,21.021,21.021,0,0,0-6.008,4.969c-2.861,3.82-5.621,10.038-5.771,14.807-.121,3.857,1.628,13.455,3.355,16.906a8.67,8.67,0,0,0,3.789,3.228,32.743,32.743,0,0,0,7.237,9.027q1.229-3.918,2.457-7.834Z" transform="translate(-167.633 -79.952)" fill="#263238"/>
                    <path id="Trazado_223306" data-name="Trazado 223306" d="M195.524,84.205,187.9,83.063c4.431,9.761,6.2,32.322,8.871,42.7,2.681-4.139,8.826-16.687,8.338-21.593S204.518,83.109,195.524,84.205Z" transform="translate(-151.794 -77.52)" fill="#263238"/>
                    <path id="Trazado_223307" data-name="Trazado 223307" d="M172.264,101.08a12.965,12.965,0,0,1,9.412-12.215l17.349-4.958c7.529-1.032,12.838,8.115,13.549,15.682.789,8.407,1.381,17.285.577,23.6-1.618,12.7-11.254,14.6-11.254,14.6,0-.018.169,6.013.269,9.7l-2.827,16.54L176.462,144.51l-4.237-43.277C172.214,101.018,172.252,101.367,172.264,101.08Z" transform="translate(-164.045 -76.923)" fill="#ffbe9d"/>
                    <g id="Grupo_215056" data-name="Grupo 215056" transform="translate(41.381 31.149)">
                      <g id="Grupo_215055" data-name="Grupo 215055">
                        <g id="Grupo_215054" data-name="Grupo 215054">
                          <g id="Grupo_215053" data-name="Grupo 215053">
                            <g id="Grupo_215052" data-name="Grupo 215052">
                              <g id="Grupo_215051" data-name="Grupo 215051">
                                <g id="Grupo_215050" data-name="Grupo 215050">
                                  <path id="Trazado_223308" data-name="Trazado 223308" d="M194.091,98.851a1.621,1.621,0,0,1-1.513,1.684,1.55,1.55,0,0,1-1.716-1.409,1.623,1.623,0,0,1,1.511-1.684A1.552,1.552,0,0,1,194.091,98.851Z" transform="translate(-190.859 -97.436)" fill="#263238"/>
                                </g>
                              </g>
                            </g>
                          </g>
                        </g>
                      </g>
                    </g>
                    <g id="Grupo_215064" data-name="Grupo 215064" transform="translate(40.364 26.064)">
                      <g id="Grupo_215063" data-name="Grupo 215063">
                        <g id="Grupo_215062" data-name="Grupo 215062">
                          <g id="Grupo_215061" data-name="Grupo 215061">
                            <g id="Grupo_215060" data-name="Grupo 215060">
                              <g id="Grupo_215059" data-name="Grupo 215059">
                                <g id="Grupo_215058" data-name="Grupo 215058">
                                  <g id="Grupo_215057" data-name="Grupo 215057">
                                    <path id="Trazado_223309" data-name="Trazado 223309" d="M196.7,96.19c-.194.217-1.45-.654-3.194-.6-1.742.032-2.995.969-3.191.763-.1-.093.1-.481.643-.9a4.448,4.448,0,0,1,2.546-.871,4.254,4.254,0,0,1,2.549.738C196.6,95.716,196.794,96.092,196.7,96.19Z" transform="translate(-190.289 -94.581)" fill="#263238"/>
                                  </g>
                                </g>
                              </g>
                            </g>
                          </g>
                        </g>
                      </g>
                    </g>
                    <g id="Grupo_215071" data-name="Grupo 215071" transform="translate(25.772 31.57)">
                      <g id="Grupo_215070" data-name="Grupo 215070">
                        <g id="Grupo_215069" data-name="Grupo 215069">
                          <g id="Grupo_215068" data-name="Grupo 215068">
                            <g id="Grupo_215067" data-name="Grupo 215067">
                              <g id="Grupo_215066" data-name="Grupo 215066">
                                <g id="Grupo_215065" data-name="Grupo 215065">
                                  <path id="Trazado_223310" data-name="Trazado 223310" d="M185.33,99.089a1.623,1.623,0,0,1-1.513,1.684,1.552,1.552,0,0,1-1.716-1.411,1.621,1.621,0,0,1,1.511-1.684A1.553,1.553,0,0,1,185.33,99.089Z" transform="translate(-182.098 -97.672)" fill="#263238"/>
                                </g>
                              </g>
                            </g>
                          </g>
                        </g>
                      </g>
                    </g>
                    <g id="Grupo_215079" data-name="Grupo 215079" transform="translate(23.801 26.536)">
                      <g id="Grupo_215078" data-name="Grupo 215078">
                        <g id="Grupo_215077" data-name="Grupo 215077">
                          <g id="Grupo_215076" data-name="Grupo 215076">
                            <g id="Grupo_215075" data-name="Grupo 215075">
                              <g id="Grupo_215074" data-name="Grupo 215074">
                                <g id="Grupo_215073" data-name="Grupo 215073">
                                  <g id="Grupo_215072" data-name="Grupo 215072">
                                    <path id="Trazado_223311" data-name="Trazado 223311" d="M187.4,96.455c-.194.217-1.452-.652-3.194-.6-1.742.034-2.995.969-3.191.763-.1-.091.1-.479.643-.9a4.443,4.443,0,0,1,2.546-.873,4.287,4.287,0,0,1,2.549.738C187.3,95.981,187.5,96.357,187.4,96.455Z" transform="translate(-180.992 -94.846)" fill="#263238"/>
                                  </g>
                                </g>
                              </g>
                            </g>
                          </g>
                        </g>
                      </g>
                    </g>
                    <g id="Grupo_215087" data-name="Grupo 215087" transform="translate(34.792 27.181)">
                      <g id="Grupo_215086" data-name="Grupo 215086">
                        <g id="Grupo_215085" data-name="Grupo 215085">
                          <g id="Grupo_215084" data-name="Grupo 215084">
                            <g id="Grupo_215083" data-name="Grupo 215083">
                              <g id="Grupo_215082" data-name="Grupo 215082">
                                <g id="Grupo_215081" data-name="Grupo 215081">
                                  <g id="Grupo_215080" data-name="Grupo 215080">
                                    <path id="Trazado_223312" data-name="Trazado 223312" d="M188.422,109.714a11.614,11.614,0,0,1,2.817-.6c.444-.061.862-.162.928-.469a2.254,2.254,0,0,0-.337-1.309q-.679-1.6-1.422-3.351c-1.978-4.771-3.424-8.7-3.23-8.778s1.951,3.725,3.928,8.5q.716,1.764,1.366,3.371a2.578,2.578,0,0,1,.285,1.742,1.119,1.119,0,0,1-.713.673,2.978,2.978,0,0,1-.752.128A11.25,11.25,0,0,1,188.422,109.714Z" transform="translate(-187.161 -95.208)" fill="#263238"/>
                                  </g>
                                </g>
                              </g>
                            </g>
                          </g>
                        </g>
                      </g>
                    </g>
                    <path id="Trazado_223313" data-name="Trazado 223313" d="M179.4,111.863s4.361,8.562,16.973,6.991l-.082-2.974A31.848,31.848,0,0,1,179.4,111.863Z" transform="translate(-158.437 -55.01)" fill="#eb996e"/>
                    <g id="Grupo_215091" data-name="Grupo 215091" transform="translate(21.548 20.651)">
                      <g id="Grupo_215090" data-name="Grupo 215090">
                        <g id="Grupo_215089" data-name="Grupo 215089">
                          <g id="Grupo_215088" data-name="Grupo 215088">
                            <path id="Trazado_223314" data-name="Trazado 223314" d="M187.662,92.751c-.157.479-1.906.308-3.944.616-2.043.269-3.675.919-3.961.5-.126-.2.146-.656.8-1.135a6.948,6.948,0,0,1,6.022-.853C187.34,92.161,187.73,92.523,187.662,92.751Z" transform="translate(-179.727 -91.543)" fill="#263238"/>
                          </g>
                        </g>
                      </g>
                    </g>
                    <g id="Grupo_215095" data-name="Grupo 215095" transform="translate(40.103 20.639)">
                      <g id="Grupo_215094" data-name="Grupo 215094">
                        <g id="Grupo_215093" data-name="Grupo 215093">
                          <g id="Grupo_215092" data-name="Grupo 215092">
                            <path id="Trazado_223315" data-name="Trazado 223315" d="M196.091,93.252c-.294.4-1.507.03-2.954.055-1.445-.025-2.66.349-2.954-.057-.13-.2.052-.6.574-.992a4.282,4.282,0,0,1,4.76,0C196.041,92.651,196.221,93.054,196.091,93.252Z" transform="translate(-190.142 -91.536)" fill="#263238"/>
                          </g>
                        </g>
                      </g>
                    </g>
                    <path id="Trazado_223316" data-name="Trazado 223316" d="M210.1,90.233a5.559,5.559,0,0,0-5-3.007,10.786,10.786,0,0,0-5.781,1.865c-7.4,4.564-10.971,15.185-18.279,19.9-1.8,1.16-4.208.214-5.723,1.725s-2.455,3.882-1.539,5.815a17.7,17.7,0,0,1-2.7-4.29,5.976,5.976,0,0,1,.068-4.933c.613-1.133,1.725-2.015,2-3.273.242-1.108-.223-2.245-.208-3.378A7.387,7.387,0,0,1,174,97.4a32.833,32.833,0,0,1,11.719-13.054,21.386,21.386,0,0,1,11.009-3.186A16.378,16.378,0,0,1,207.4,85.045c1.707,1.5,3.5,3.059,2.7,5.188" transform="translate(-165.333 -79.01)" fill="#263238"/>
                    <g id="Grupo_215105" data-name="Grupo 215105" transform="translate(3.52 32.658)">
                      <g id="Grupo_215104" data-name="Grupo 215104">
                        <g id="Grupo_215103" data-name="Grupo 215103">
                          <g id="Grupo_215102" data-name="Grupo 215102">
                            <g id="Grupo_215101" data-name="Grupo 215101">
                              <g id="Grupo_215100" data-name="Grupo 215100">
                                <g id="Grupo_215099" data-name="Grupo 215099">
                                  <g id="Grupo_215098" data-name="Grupo 215098">
                                    <g id="Grupo_215097" data-name="Grupo 215097">
                                      <g id="Grupo_215096" data-name="Grupo 215096">
                                        <path id="Trazado_223317" data-name="Trazado 223317" d="M176.3,98.887c-.144-.358-6.8-2.549-6.692,4.459.11,6.811,6.939,5.275,6.948,5.079S176.3,98.887,176.3,98.887Z" transform="translate(-169.608 -98.283)" fill="#ffbe9d"/>
                                      </g>
                                    </g>
                                  </g>
                                </g>
                              </g>
                            </g>
                          </g>
                        </g>
                      </g>
                    </g>
                    <g id="Grupo_215116" data-name="Grupo 215116" transform="translate(5.23 34.899)">
                      <g id="Grupo_215115" data-name="Grupo 215115">
                        <g id="Grupo_215114" data-name="Grupo 215114">
                          <g id="Grupo_215113" data-name="Grupo 215113">
                            <g id="Grupo_215112" data-name="Grupo 215112">
                              <g id="Grupo_215111" data-name="Grupo 215111">
                                <g id="Grupo_215110" data-name="Grupo 215110">
                                  <g id="Grupo_215109" data-name="Grupo 215109">
                                    <g id="Grupo_215108" data-name="Grupo 215108">
                                      <g id="Grupo_215107" data-name="Grupo 215107">
                                        <g id="Grupo_215106" data-name="Grupo 215106">
                                          <path id="Trazado_223318" data-name="Trazado 223318" d="M173.657,104.9c-.03-.02-.118.086-.315.182a1.189,1.189,0,0,1-.887.036,2.94,2.94,0,0,1-1.407-2.608,3.9,3.9,0,0,1,.3-1.7,1.368,1.368,0,0,1,.875-.928.6.6,0,0,1,.706.312c.094.189.055.324.091.337.02.016.144-.118.084-.4a.758.758,0,0,0-.276-.422.9.9,0,0,0-.659-.16,1.668,1.668,0,0,0-1.219,1.08,4.011,4.011,0,0,0-.374,1.906,3.077,3.077,0,0,0,1.785,2.906,1.266,1.266,0,0,0,1.081-.2C173.648,105.068,173.68,104.915,173.657,104.9Z" transform="translate(-170.568 -99.54)" fill="#eb996e"/>
                                        </g>
                                      </g>
                                    </g>
                                  </g>
                                </g>
                              </g>
                            </g>
                          </g>
                        </g>
                      </g>
                    </g>
                    <path id="Trazado_223319" data-name="Trazado 223319" d="M171.789,107.128a2.829,2.829,0,0,0,.4-.241c.255-.173.65-.406,1.121-.759a23.4,23.4,0,0,0,3.579-3.449,65.921,65.921,0,0,0,4.328-5.967,53.531,53.531,0,0,1,5.418-7.157,21.415,21.415,0,0,1,3.544-2.968,17.753,17.753,0,0,1,3.864-1.888,19.4,19.4,0,0,1,7.187-1.09,18.492,18.492,0,0,1,4.857.809c.565.153.983.33,1.274.431a2.45,2.45,0,0,0,.451.144,2.974,2.974,0,0,0-.426-.2,11.8,11.8,0,0,0-1.261-.488,17.683,17.683,0,0,0-4.885-.914,19.3,19.3,0,0,0-7.29,1.04,17.747,17.747,0,0,0-3.936,1.9,21.444,21.444,0,0,0-3.6,3.007,52.136,52.136,0,0,0-5.432,7.212,69.512,69.512,0,0,1-4.258,5.984,25.29,25.29,0,0,1-3.485,3.5c-.456.365-.837.611-1.081.8A2.534,2.534,0,0,0,171.789,107.128Z" transform="translate(-164.384 -77.286)" fill="#fff"/>
                    <path id="Trazado_223320" data-name="Trazado 223320" d="M172.79,102.108a10.508,10.508,0,0,0,.823,5.455c.907,1.627,3.105,2.69,4.7,1.719,1.3-.791,1.643-2.491,1.824-4,.52-4.354.691-8.746,1.251-13.095Z" transform="translate(-163.619 -70.388)" fill="#263238"/>
                    <path id="Trazado_223321" data-name="Trazado 223321" d="M206.543,84.573c-.005.039-.6-.1-1.7-.1a11.666,11.666,0,0,0-4.483.951,14.782,14.782,0,0,0-2.779,1.534,30.648,30.648,0,0,0-2.849,2.305,35.067,35.067,0,0,0-5.525,6.309c-.83,1.238-1.561,2.508-2.357,3.688a17.354,17.354,0,0,1-2.642,3.148,30.365,30.365,0,0,1-5.642,4.012c-1.716.971-3.153,1.657-4.144,2.131-.469.216-.85.392-1.151.529a1.851,1.851,0,0,1-.412.16,1.937,1.937,0,0,1,.378-.23l1.119-.593c.969-.515,2.386-1.236,4.075-2.231a31.546,31.546,0,0,0,5.537-4.037,17.126,17.126,0,0,0,2.571-3.1c.784-1.167,1.513-2.439,2.35-3.691A34.369,34.369,0,0,1,194.5,89a29.959,29.959,0,0,1,2.9-2.305,14.823,14.823,0,0,1,2.858-1.523,11.259,11.259,0,0,1,4.586-.85,8.143,8.143,0,0,1,1.265.139A1.965,1.965,0,0,1,206.543,84.573Z" transform="translate(-163.545 -76.541)" fill="#455a64"/>
                    <path id="Trazado_223322" data-name="Trazado 223322" d="M175.958,99.191a2.984,2.984,0,0,1-.59.422l-1.694,1.062-.572.349a1.814,1.814,0,0,1-.738.267.707.707,0,0,1-.463-.094.6.6,0,0,1-.269-.442,1.525,1.525,0,0,1,.3-.869l1.91-3.262.276.244a7.128,7.128,0,0,1-4.584,1.509,2.06,2.06,0,0,1-.62-.087.834.834,0,0,1-.542-.445.738.738,0,0,1,.094-.691,2.84,2.84,0,0,1,.376-.436,14.39,14.39,0,0,0,2.234-2.991,24.09,24.09,0,0,0,1.384-3.177,3.432,3.432,0,0,1-.187.923,12.8,12.8,0,0,1-.959,2.384,13.767,13.767,0,0,1-2.22,3.105c-.246.248-.49.533-.387.743.087.212.477.306.836.3a6.886,6.886,0,0,0,4.344-1.431l.795-.616-.518.861c-.7,1.154-1.352,2.243-1.951,3.237a1.282,1.282,0,0,0-.271.672.325.325,0,0,0,.4.28,3.493,3.493,0,0,0,1.208-.54q1.042-.575,1.753-.964A2.876,2.876,0,0,1,175.958,99.191Z" transform="translate(-167.095 -71.67)" fill="#fff"/>
                    <path id="Trazado_223323" data-name="Trazado 223323" d="M184.214,106.052a2.279,2.279,0,0,1,2.3-1.8,2.382,2.382,0,0,1,1.867,1.249,2.924,2.924,0,0,1,.169,2.273l-.032.166a2.592,2.592,0,0,1-2.9.7A2.424,2.424,0,0,1,184.214,106.052Z" transform="translate(-154.702 -60.959)" fill="#eb996e"/>
                    <path id="Trazado_223324" data-name="Trazado 223324" d="M189.508,108.445c-.005-.265-1.766-.13-3.134-1.539s-1.322-3.3-1.57-3.294c-.112-.016-.31.445-.269,1.238a4.393,4.393,0,0,0,1.21,2.758,3.838,3.838,0,0,0,2.621,1.178C189.107,108.794,189.528,108.564,189.508,108.445Z" transform="translate(-154.426 -61.46)" fill="#263238"/>
                    <g id="Grupo_215117" data-name="Grupo 215117" transform="translate(27.389 39.976)">
                      <path id="Trazado_223325" data-name="Trazado 223325" d="M183.149,104.656c-.075.005-.18-.226-.13-.618a1.939,1.939,0,0,1,2.279-1.612c.387.086.57.26.54.328-.048.151-.914-.068-1.68.476S183.306,104.662,183.149,104.656Z" transform="translate(-183.006 -102.39)" fill="#eb996e"/>
                    </g>
                    <g id="Grupo_215118" data-name="Grupo 215118" transform="translate(19.496 31.75)">
                      <path id="Trazado_223326" data-name="Trazado 223326" d="M178.576,98.033c-.02-.159.5-.346,1.133-.219s1.046.49.969.629-.54.053-1.081-.05S178.592,98.2,178.576,98.033Z" transform="translate(-178.576 -97.773)" fill="#eb996e"/>
                    </g>
                    <g id="Grupo_215119" data-name="Grupo 215119" transform="translate(47.126 32.818)">
                      <path id="Trazado_223327" data-name="Trazado 223327" d="M194.114,98.867c-.1-.123.068-.422.438-.485s.629.166.57.315-.262.226-.474.267S194.216,99,194.114,98.867Z" transform="translate(-194.084 -98.372)" fill="#eb996e"/>
                    </g>
                    <g id="Grupo_215120" data-name="Grupo 215120" transform="translate(19.929 30.843)">
                      <path id="Trazado_223328" data-name="Trazado 223328" d="M178.819,97.418c.014-.16.47-.239.964-.018s.738.615.629.732-.469-.016-.871-.194S178.8,97.582,178.819,97.418Z" transform="translate(-178.819 -97.264)" fill="#eb996e"/>
                    </g>
                  </g>
                  <g id="Grupo_215127" data-name="Grupo 215127" transform="translate(0 65.685)">
                    <g id="Grupo_215124" data-name="Grupo 215124">
                      <path id="Trazado_223329" data-name="Trazado 223329" d="M170.136,117.832l12.106-1.012s6.681,8.8,15.764,8.124,10.073-6.781,10.073-6.781,16.2,3.12,25.008,12.436l.2.253,11.655,26.674H164.524Z" transform="translate(-144.226 -116.82)" fill="#4dd0e1"/>
                      <g id="Grupo_215123" data-name="Grupo 215123" transform="translate(0 0.926)">
                        <g id="Grupo_215122" data-name="Grupo 215122">
                          <path id="Trazado_223330" data-name="Trazado 223330" d="M179.267,117.34s-6.33,1.042-10.128,3.276c-8.553,5.031-16.008,36.5-16.008,36.5h23.845s6.608-10.013,9.359-18.552c.645-2-.823-12.021-.821-11.939C185.514,126.629,179.269,117.541,179.267,117.34Z" transform="translate(-153.131 -117.34)" fill="#4dd0e1"/>
                        </g>
                      </g>
                    </g>
                    <g id="Grupo_215125" data-name="Grupo 215125" transform="translate(81.807 27.891)">
                      <path id="Trazado_223331" data-name="Trazado 223331" d="M201.023,140.838c-.182,0-.187-1.946-.741-4.231s-1.379-4.051-1.211-4.13a9.235,9.235,0,0,1,1.785,3.991A8.563,8.563,0,0,1,201.023,140.838Z" transform="translate(-199.049 -132.475)" fill="#263238"/>
                    </g>
                    <g id="Grupo_215126" data-name="Grupo 215126" transform="translate(23.845 16.729)">
                      <path id="Trazado_223332" data-name="Trazado 223332" d="M166.531,148.838a25.287,25.287,0,0,1,.592-3.292,80,80,0,0,0,1.13-7.955c.274-3.129.33-5.974.337-8.035a23.379,23.379,0,0,1,.075-3.346,16.009,16.009,0,0,1,.342,3.337,60.977,60.977,0,0,1-.167,8.1,54.285,54.285,0,0,1-1.308,7.992A15.142,15.142,0,0,1,166.531,148.838Z" transform="translate(-166.515 -126.21)" fill="#263238"/>
                    </g>
                  </g>
                </g>
              </g>
            </g>
            <g id="Grupo_215139" data-name="Grupo 215139" transform="translate(148.326 209.259)">
              <path id="Rectángulo_295543" data-name="Rectángulo 295543" d="M0,0H348.431a0,0,0,0,1,0,0V51.3a15,15,0,0,1-15,15H15a15,15,0,0,1-15-15V0A0,0,0,0,1,0,0Z" fill="#ebebeb"/>
              <g id="Grupo_215131" data-name="Grupo 215131" transform="translate(15.428 17.628)">
                <path id="Trazado_223333" data-name="Trazado 223333" d="M182.8,150.026c0,.257-5.788.465-12.929.465s-12.929-.208-12.929-.465,5.788-.463,12.929-.463S182.8,149.771,182.8,150.026Z" transform="translate(-156.94 -149.563)" fill="#263238"/>
              </g>
              <g id="Grupo_215132" data-name="Grupo 215132" transform="translate(15.171 27.058)">
                <path id="Trazado_223334" data-name="Trazado 223334" d="M238.625,155.319c0,.257-18.32.465-40.913.465s-40.916-.208-40.916-.465,18.315-.463,40.916-.463S238.625,155.064,238.625,155.319Z" transform="translate(-156.796 -154.856)" fill="#263238"/>
              </g>
              <g id="Grupo_215133" data-name="Grupo 215133" transform="translate(15.171 37.689)">
                <path id="Trazado_223335" data-name="Trazado 223335" d="M238.625,161.286c0,.257-18.32.465-40.913.465s-40.916-.208-40.916-.465,18.315-.463,40.916-.463S238.625,161.031,238.625,161.286Z" transform="translate(-156.796 -160.823)" fill="#263238"/>
              </g>
              <g id="Grupo_215134" data-name="Grupo 215134" transform="translate(15.171 48.32)">
                <path id="Trazado_223336" data-name="Trazado 223336" d="M214.037,167.255c0,.255-12.815.463-28.62.463s-28.622-.208-28.622-.463,12.812-.465,28.622-.465S214.037,167,214.037,167.255Z" transform="translate(-156.796 -166.79)" fill="#263238"/>
              </g>
              <g id="Grupo_215135" data-name="Grupo 215135" transform="translate(203.244 17.628)">
                <path id="Trazado_223337" data-name="Trazado 223337" d="M250.241,150.026c0,.257-5.788.465-12.927.465s-12.929-.208-12.929-.465,5.787-.463,12.929-.463S250.241,149.771,250.241,150.026Z" transform="translate(-224.385 -149.563)" fill="#263238"/>
              </g>
              <g id="Grupo_215136" data-name="Grupo 215136" transform="translate(242.709 27.058)">
                <path id="Trazado_223338" data-name="Trazado 223338" d="M306.071,155.319c0,.257-18.32.465-40.913.465s-40.918-.208-40.918-.465,18.317-.463,40.918-.463S306.071,155.064,306.071,155.319Z" transform="translate(-224.24 -154.856)" fill="#263238"/>
              </g>
              <g id="Grupo_215137" data-name="Grupo 215137" transform="translate(242.709 37.689)">
                <path id="Trazado_223339" data-name="Trazado 223339" d="M306.071,161.286c0,.257-18.32.465-40.913.465s-40.918-.208-40.918-.465,18.317-.463,40.918-.463S306.071,161.031,306.071,161.286Z" transform="translate(-224.24 -160.823)" fill="#263238"/>
              </g>
              <g id="Grupo_215138" data-name="Grupo 215138" transform="translate(214.387 48.32)">
                <path id="Trazado_223340" data-name="Trazado 223340" d="M281.481,167.255c0,.255-12.815.463-28.62.463s-28.622-.208-28.622-.463,12.813-.465,28.622-.465S281.481,167,281.481,167.255Z" transform="translate(-224.24 -166.79)" fill="#263238"/>
              </g>
            </g>
            <g id="Grupo_215140" data-name="Grupo 215140" transform="translate(148.223 50.633)">
              <path id="Trazado_223341" data-name="Trazado 223341" d="M474.391,275.564c-.005-.052,1.157.007,3.352-.246a28.075,28.075,0,0,0,9.051-2.564c3.506-1.7,7.26-4.716,8.655-9.024.763-2.134.45-4.531.5-7.071q-.012-3.816-.031-8.121c-.049-22.963-.121-56.163-.211-97.183-.026-20.517-.054-42.988-.082-67.111q-.008-9.046-.018-18.4a14.076,14.076,0,0,0-.45-4.581,10.693,10.693,0,0,0-2.581-4.19,19.423,19.423,0,0,0-10.7-5.19,37.7,37.7,0,0,0-6.792-.371l-7.028,0-14.205.005q-14.3,0-28.982.009l-254.657.036a35.7,35.7,0,0,0-8.175.563,20.942,20.942,0,0,0-6.925,2.849c-4.005,2.6-5.866,6.4-5.5,10.205q0,11.6,0,23.033,0,22.871-.01,45.032c-.013,29.525-.026,58-.039,85.131q-.015,20.345-.028,39.643c.023,1.6-.054,3.23.049,4.78a9.919,9.919,0,0,0,1.488,4.477,16.839,16.839,0,0,0,8.889,6.5,24.491,24.491,0,0,0,6.211,1.292c2.128.146,4.388.082,6.594.1l13.164.007,96.837.055c59.187.062,107.086.114,140.217.148l38.123.087,9.915.046c2.231.016,3.375.048,3.375.048s-1.144.03-3.375.046l-9.915.046-38.123.087c-33.131.034-81.03.086-140.217.148l-96.837.055q-6.528.005-13.164.007c-2.218-.016-4.411.057-6.725-.1a26.073,26.073,0,0,1-6.591-1.365c-4.139-1.431-7.581-3.889-9.442-6.891a10.574,10.574,0,0,1-1.594-4.755c-.105-1.636-.031-3.207-.057-4.823q-.011-19.279-.028-39.643c-.013-27.129-.026-55.606-.039-85.131q0-22.141-.01-45.032,0-11.435,0-23.033c-.4-3.895,1.612-8.131,5.915-10.875a22.528,22.528,0,0,1,7.45-3.064,37.651,37.651,0,0,1,8.576-.606l254.657.037,28.982.009,14.205.005,7.028,0a39.387,39.387,0,0,1,7.072.4,20.658,20.658,0,0,1,11.385,5.535,11.381,11.381,0,0,1,2.743,4.463,14.609,14.609,0,0,1,.468,4.755q-.008,9.351-.016,18.4c-.031,24.123-.057,46.594-.082,67.111-.09,41.02-.162,74.22-.213,97.183q-.015,4.3-.031,8.121c-.072,2.526.224,4.946-.573,7.132-1.465,4.381-5.313,7.419-8.889,9.117a27.992,27.992,0,0,1-9.182,2.5,22.58,22.58,0,0,1-2.522.144C474.679,275.57,474.391,275.564,474.391,275.564Z" transform="translate(-148.223 -50.633)" fill="#263238"/>
            </g>
          </g>
          <text id="Como_Rol_de_usuario_Quiero_Objetivo_Para_Beneficio_Criterio_de_aceptación_outcome_" data-name="Como  &lt;&lt;Rol de usuario&gt;&gt; 
Quiero &lt;&lt;Objetivo&gt;&gt;
Para  &lt;&lt;Beneficio&gt;&gt; 
Criterio de aceptación &lt;&lt;outcome&gt;&gt; " transform="translate(1189 15030)" fill="#12263f" font-size="13" font-family="Roboto-Regular, Roboto"><tspan x="0" y="0" xml:space="preserve">Como  &lt;&lt;Rol de usuario&gt;&gt; </tspan><tspan x="0" y="16">Quiero &lt;&lt;Objetivo&gt;&gt;</tspan><tspan x="0" y="32" xml:space="preserve">Para  &lt;&lt;Beneficio&gt;&gt; </tspan><tspan x="0" y="48">Criterio de aceptación &lt;&lt;outcome&gt;&gt; </tspan></text>
        </g>
      </g>
    </g>
  </g>
</svg>
