<svg xmlns="http://www.w3.org/2000/svg" width="169.101" height="169.101" viewBox="0 0 169.101 169.101">
  <g id="Grupo_222366" data-name="Grupo 222366" transform="translate(6860 -660.959)">
    <g id="Grupo_222365" data-name="Grupo 222365">
      <g id="Grupo_222076" data-name="Grupo 222076" transform="translate(-6860 660.959)">
        <g id="Elipse_4774" data-name="Elipse 4774">
          <circle id="Elipse_4775" data-name="Elipse 4775" cx="84.551" cy="84.551" r="84.551" fill="#0f2771"/>
          <circle id="Elipse_4776" data-name="Elipse 4776" cx="83.89" cy="83.89" r="83.89" transform="translate(0.66 0.661)" fill="#0f2771"/>
          <g id="Grupo_222078" data-name="Grupo 222078" transform="translate(24.22 35.582)">
            <path id="Trazado_225442" data-name="Trazado 225442" d="M2579.887,4273.591h-18.468a8.1,8.1,0,0,0,1.226-4.281v-1.492h13.822a1.94,1.94,0,0,0,0-3.88h-15.762a1.94,1.94,0,0,0-1.94,1.94v3.432a4.281,4.281,0,1,1-8.562,0v-77.921a7.885,7.885,0,0,0-1.132-4.066H2609.8a5.888,5.888,0,0,1,5.881,5.881v30.7a1.94,1.94,0,1,0,3.88,0v-30.7a9.772,9.772,0,0,0-9.761-9.761h-67.65c-.037,0-.072.009-.109.011a7.95,7.95,0,0,0-7.73,7.935v18.574h-11.962a1.94,1.94,0,0,0-1.94,1.94v6.951a8.9,8.9,0,0,0,8.891,8.891h17.023v41.566a8.169,8.169,0,0,0,8.161,8.16h25.4a1.939,1.939,0,1,0,0-3.879Zm-55.6-54.738v-5.011h10.022v5.011a5.011,5.011,0,0,1-10.022,0Zm12.349,5.011a8.839,8.839,0,0,0,1.553-5.011v-27.464a4.066,4.066,0,0,1,8.132,0v32.475Z" transform="translate(-2520.411 -4183.443)" fill="#fff"/>
            <path id="Trazado_225443" data-name="Trazado 225443" d="M2774.993,4233.5h-3.362a1.94,1.94,0,0,0,0,3.88h3.362a1.94,1.94,0,1,0,0-3.88Z" transform="translate(-2687.865 -4217.07)" fill="#fff"/>
            <path id="Trazado_225444" data-name="Trazado 225444" d="M2693.687,4237.383a1.94,1.94,0,0,0,0-3.88h-30a1.94,1.94,0,0,0,0,3.88Z" transform="translate(-2615.352 -4217.07)" fill="#fff"/>
            <path id="Trazado_225445" data-name="Trazado 225445" d="M2635.319,4237.383h3.879a1.94,1.94,0,1,0,0-3.88h-3.879a1.94,1.94,0,0,0,0,3.88Z" transform="translate(-2596.297 -4217.07)" fill="#fff"/>
            <path id="Trazado_225446" data-name="Trazado 225446" d="M2764.936,4264.233h-8.276a1.94,1.94,0,1,0,0,3.88h8.276a1.94,1.94,0,0,0,0-3.88Z" transform="translate(-2677.807 -4237.713)" fill="#fff"/>
            <path id="Trazado_225447" data-name="Trazado 225447" d="M2635.319,4268.113h33.106a1.94,1.94,0,1,0,0-3.88h-33.106a1.94,1.94,0,0,0,0,3.88Z" transform="translate(-2596.297 -4237.713)" fill="#fff"/>
            <path id="Trazado_225448" data-name="Trazado 225448" d="M2730.885,4295.326a1.94,1.94,0,0,0-1.94-1.939h-25.864a1.94,1.94,0,0,0,0,3.879h25.864A1.94,1.94,0,0,0,2730.885,4295.326Z" transform="translate(-2641.816 -4257.297)" fill="#fff"/>
            <path id="Trazado_225449" data-name="Trazado 225449" d="M2635.319,4297.266h10.346a1.94,1.94,0,1,0,0-3.879h-10.346a1.94,1.94,0,1,0,0,3.879Z" transform="translate(-2596.297 -4257.297)" fill="#fff"/>
            <path id="Trazado_225450" data-name="Trazado 225450" d="M2665.45,4325.267a1.94,1.94,0,0,0-1.94-1.94h-28.192a1.94,1.94,0,0,0,0,3.88h28.192A1.94,1.94,0,0,0,2665.45,4325.267Z" transform="translate(-2596.297 -4277.41)" fill="#fff"/>
            <path id="Trazado_225451" data-name="Trazado 225451" d="M2651.1,4383.21h-15.777a1.94,1.94,0,0,0,0,3.88H2651.1a1.94,1.94,0,1,0,0-3.88Z" transform="translate(-2596.297 -4317.636)" fill="#fff"/>
            <path id="Trazado_225452" data-name="Trazado 225452" d="M2654.846,4355.209a1.94,1.94,0,0,0-1.94-1.939h-17.588a1.939,1.939,0,1,0,0,3.879h17.588A1.94,1.94,0,0,0,2654.846,4355.209Z" transform="translate(-2596.297 -4297.524)" fill="#fff"/>
            <path id="Trazado_225453" data-name="Trazado 225453" d="M2731.981,4320.355a30.635,30.635,0,1,0,30.635,30.634A30.669,30.669,0,0,0,2731.981,4320.355Zm0,57.39a26.755,26.755,0,1,1,26.755-26.755A26.786,26.786,0,0,1,2731.981,4377.745Z" transform="translate(-2641.954 -4275.413)" fill="#fff"/>
            <path id="Trazado_225454" data-name="Trazado 225454" d="M2766.065,4359.179a1.94,1.94,0,0,0-1.94,1.939v14.226H2754.3a1.94,1.94,0,1,0,0,3.879h11.768a1.94,1.94,0,0,0,1.939-1.94v-16.165A1.94,1.94,0,0,0,2766.065,4359.179Z" transform="translate(-2676.22 -4301.493)" fill="#fff"/>
          </g>
        </g>
      </g>
    </g>
  </g>
</svg>
