<svg xmlns="http://www.w3.org/2000/svg" xmlns:xlink="http://www.w3.org/1999/xlink" width="450" height="340" viewBox="0 0 450 340">
  <defs>
    <clipPath id="clip-path">
      <rect id="Rectángulo_44881" data-name="Rectángulo 44881" width="450" height="285.528" fill="none"/>
    </clipPath>
    <clipPath id="clip-path-3">
      <rect id="Rectángulo_44869" data-name="Rectángulo 44869" width="8.084" height="8.084" fill="none"/>
    </clipPath>
    <clipPath id="clip-path-4">
      <rect id="Rectángulo_44870" data-name="Rectángulo 44870" width="29.32" height="15.569" fill="none"/>
    </clipPath>
    <clipPath id="clip-path-5">
      <rect id="Rectángulo_44873" data-name="Rectángulo 44873" width="45.961" height="37.178" fill="none"/>
    </clipPath>
    <clipPath id="clip-path-6">
      <rect id="Rectángulo_44874" data-name="Rectángulo 44874" width="29.699" height="32.199" fill="none"/>
    </clipPath>
    <clipPath id="clip-path-7">
      <rect id="Rectángulo_44875" data-name="Rectángulo 44875" width="84.793" height="101.229" fill="none"/>
    </clipPath>
    <clipPath id="clip-path-8">
      <rect id="Rectángulo_44876" data-name="Rectángulo 44876" width="103.003" height="24.149" fill="none"/>
    </clipPath>
    <clipPath id="clip-path-9">
      <rect id="Rectángulo_44877" data-name="Rectángulo 44877" width="31.495" height="40.818" fill="none"/>
    </clipPath>
    <clipPath id="clip-path-10">
      <rect id="Rectángulo_44878" data-name="Rectángulo 44878" width="21.715" height="15.456" fill="none"/>
    </clipPath>
    <clipPath id="clip-path-11">
      <rect id="Rectángulo_44879" data-name="Rectángulo 44879" width="29.242" height="20.524" fill="none"/>
    </clipPath>
  </defs>
  <g id="Grupo_222390" data-name="Grupo 222390" transform="translate(9763 6461)">
    <g id="Grupo_222389" data-name="Grupo 222389">
      <g id="Grupo_222388" data-name="Grupo 222388">
        <g id="Grupo_222290" data-name="Grupo 222290">
          <rect id="Rectángulo_295915" data-name="Rectángulo 295915" width="450" height="340" transform="translate(-9763 -6461)" fill="none"/>
          <g id="Grupo_210501" data-name="Grupo 210501" transform="translate(-9763 -6433.764)">
            <g id="Grupo_146741" data-name="Grupo 146741" clip-path="url(#clip-path)">
              <rect id="Rectángulo_44860" data-name="Rectángulo 44860" width="72.128" height="55.632" transform="translate(19.455 137.116)" fill="#f5f5f5"/>
              <g id="Grupo_146740" data-name="Grupo 146740">
                <g id="Grupo_146739" data-name="Grupo 146739" clip-path="url(#clip-path)">
                  <path id="Trazado_202638" data-name="Trazado 202638" d="M54.108,253.168c.1,0,.18-12.4.18-27.693s-.08-27.7-.18-27.7-.18,12.4-.18,27.7.08,27.693.18,27.693" transform="translate(-16.582 -60.814)" fill="#ebebeb"/>
                  <rect id="Rectángulo_44861" data-name="Rectángulo 44861" width="5.53" height="6.251" transform="translate(25.57 180.085)" fill="#fafafa"/>
                  <rect id="Rectángulo_44862" data-name="Rectángulo 44862" width="8.192" height="11.87" transform="translate(61.386 137.259)" fill="#ebebeb"/>
                  <rect id="Rectángulo_44863" data-name="Rectángulo 44863" width="8.192" height="11.87" transform="translate(61.386 180.712)" fill="#ebebeb"/>
                  <rect id="Rectángulo_44864" data-name="Rectángulo 44864" width="119.069" height="91.837" transform="translate(0 193.53)" fill="#ebebeb"/>
                  <path id="Trazado_202639" data-name="Trazado 202639" d="M128.754,370.537c-.13,0-.236-20.47-.236-45.716s.106-45.721.236-45.721.236,20.466.236,45.721-.106,45.716-.236,45.716" transform="translate(-39.517 -85.819)" fill="#e0e0e0"/>
                  <rect id="Rectángulo_44865" data-name="Rectángulo 44865" width="9.129" height="10.319" transform="translate(99.844 264.463)" fill="#fafafa"/>
                  <rect id="Rectángulo_44866" data-name="Rectángulo 44866" width="13.525" height="19.596" transform="translate(36.325 193.767)" fill="#e0e0e0"/>
                  <rect id="Rectángulo_44867" data-name="Rectángulo 44867" width="13.525" height="19.595" transform="translate(36.325 265.498)" fill="#e0e0e0"/>
                  <path id="Trazado_202640" data-name="Trazado 202640" d="M304.731,45.778a8.414,8.414,0,0,1-3.463,0,8.413,8.413,0,0,1,3.463,0" transform="translate(-92.635 -14.021)" fill="#ebebeb"/>
                  <path id="Trazado_202641" data-name="Trazado 202641" d="M314.731,45.778a8.414,8.414,0,0,1-3.463,0,8.413,8.413,0,0,1,3.463,0" transform="translate(-95.71 -14.021)" fill="#ebebeb"/>
                  <path id="Trazado_202642" data-name="Trazado 202642" d="M324.731,45.778a8.414,8.414,0,0,1-3.463,0,8.413,8.413,0,0,1,3.463,0" transform="translate(-98.785 -14.021)" fill="#ebebeb"/>
                  <path id="Trazado_202643" data-name="Trazado 202643" d="M334.731,45.778a8.413,8.413,0,0,1-3.463,0,8.413,8.413,0,0,1,3.463,0" transform="translate(-101.86 -14.021)" fill="#ebebeb"/>
                  <path id="Trazado_202644" data-name="Trazado 202644" d="M344.731,45.778a8.414,8.414,0,0,1-3.463,0,8.413,8.413,0,0,1,3.463,0" transform="translate(-104.935 -14.021)" fill="#ebebeb"/>
                  <path id="Trazado_202645" data-name="Trazado 202645" d="M354.731,45.778a8.414,8.414,0,0,1-3.463,0,8.413,8.413,0,0,1,3.463,0" transform="translate(-108.009 -14.021)" fill="#ebebeb"/>
                  <path id="Trazado_202646" data-name="Trazado 202646" d="M364.731,45.778a8.414,8.414,0,0,1-3.463,0,8.413,8.413,0,0,1,3.463,0" transform="translate(-111.084 -14.021)" fill="#ebebeb"/>
                  <path id="Trazado_202647" data-name="Trazado 202647" d="M374.731,45.778a8.414,8.414,0,0,1-3.463,0,8.413,8.413,0,0,1,3.463,0" transform="translate(-114.159 -14.021)" fill="#ebebeb"/>
                  <path id="Trazado_202648" data-name="Trazado 202648" d="M384.731,45.778a8.414,8.414,0,0,1-3.463,0,8.414,8.414,0,0,1,3.463,0" transform="translate(-117.234 -14.021)" fill="#ebebeb"/>
                  <path id="Trazado_202649" data-name="Trazado 202649" d="M394.731,45.778a8.414,8.414,0,0,1-3.463,0,8.413,8.413,0,0,1,3.463,0" transform="translate(-120.309 -14.021)" fill="#ebebeb"/>
                  <path id="Trazado_202650" data-name="Trazado 202650" d="M404.731,45.778a8.414,8.414,0,0,1-3.463,0,8.413,8.413,0,0,1,3.463,0" transform="translate(-123.384 -14.021)" fill="#ebebeb"/>
                  <path id="Trazado_202651" data-name="Trazado 202651" d="M414.731,45.778a8.414,8.414,0,0,1-3.463,0,8.414,8.414,0,0,1,3.463,0" transform="translate(-126.458 -14.021)" fill="#ebebeb"/>
                  <path id="Trazado_202652" data-name="Trazado 202652" d="M424.731,45.778a8.414,8.414,0,0,1-3.463,0,8.413,8.413,0,0,1,3.463,0" transform="translate(-129.533 -14.021)" fill="#ebebeb"/>
                  <path id="Trazado_202653" data-name="Trazado 202653" d="M434.731,45.778a8.414,8.414,0,0,1-3.463,0,8.413,8.413,0,0,1,3.463,0" transform="translate(-132.608 -14.021)" fill="#ebebeb"/>
                  <path id="Trazado_202654" data-name="Trazado 202654" d="M444.731,45.778a8.414,8.414,0,0,1-3.463,0,8.413,8.413,0,0,1,3.463,0" transform="translate(-135.683 -14.021)" fill="#ebebeb"/>
                  <path id="Trazado_202655" data-name="Trazado 202655" d="M454.731,45.778a8.414,8.414,0,0,1-3.463,0,8.414,8.414,0,0,1,3.463,0" transform="translate(-138.758 -14.021)" fill="#ebebeb"/>
                  <path id="Trazado_202656" data-name="Trazado 202656" d="M464.731,45.778a8.414,8.414,0,0,1-3.463,0,8.413,8.413,0,0,1,3.463,0" transform="translate(-141.833 -14.021)" fill="#ebebeb"/>
                  <path id="Trazado_202657" data-name="Trazado 202657" d="M474.731,45.778a8.414,8.414,0,0,1-3.463,0,8.413,8.413,0,0,1,3.463,0" transform="translate(-144.908 -14.021)" fill="#ebebeb"/>
                  <path id="Trazado_202658" data-name="Trazado 202658" d="M484.731,45.778a8.414,8.414,0,0,1-3.463,0,8.414,8.414,0,0,1,3.463,0" transform="translate(-147.982 -14.021)" fill="#ebebeb"/>
                  <path id="Trazado_202659" data-name="Trazado 202659" d="M494.731,45.778a8.414,8.414,0,0,1-3.463,0,8.413,8.413,0,0,1,3.463,0" transform="translate(-151.057 -14.021)" fill="#ebebeb"/>
                  <path id="Trazado_202660" data-name="Trazado 202660" d="M504.731,45.778a8.414,8.414,0,0,1-3.463,0,8.414,8.414,0,0,1,3.463,0" transform="translate(-154.132 -14.021)" fill="#ebebeb"/>
                  <path id="Trazado_202661" data-name="Trazado 202661" d="M514.73,45.778a8.413,8.413,0,0,1-3.462,0,8.413,8.413,0,0,1,3.462,0" transform="translate(-157.207 -14.021)" fill="#ebebeb"/>
                  <path id="Trazado_202662" data-name="Trazado 202662" d="M524.731,45.778a8.414,8.414,0,0,1-3.463,0,8.414,8.414,0,0,1,3.463,0" transform="translate(-160.282 -14.021)" fill="#ebebeb"/>
                  <path id="Trazado_202663" data-name="Trazado 202663" d="M528.751,51.758a4.309,4.309,0,0,1-.18-1.731,4.309,4.309,0,0,1,.18-1.731,4.315,4.315,0,0,1,.18,1.731,4.315,4.315,0,0,1-.18,1.731" transform="translate(-162.527 -14.85)" fill="#ebebeb"/>
                  <path id="Trazado_202664" data-name="Trazado 202664" d="M528.751,61.758a4.309,4.309,0,0,1-.18-1.731,4.309,4.309,0,0,1,.18-1.731,4.315,4.315,0,0,1,.18,1.731,4.315,4.315,0,0,1-.18,1.731" transform="translate(-162.527 -17.925)" fill="#ebebeb"/>
                  <path id="Trazado_202665" data-name="Trazado 202665" d="M528.751,71.758a4.309,4.309,0,0,1-.18-1.731,4.309,4.309,0,0,1,.18-1.731,4.315,4.315,0,0,1,.18,1.731,4.315,4.315,0,0,1-.18,1.731" transform="translate(-162.527 -21)" fill="#ebebeb"/>
                  <path id="Trazado_202666" data-name="Trazado 202666" d="M528.751,81.758a4.309,4.309,0,0,1-.18-1.731,4.309,4.309,0,0,1,.18-1.731,4.315,4.315,0,0,1,.18,1.731,4.315,4.315,0,0,1-.18,1.731" transform="translate(-162.527 -24.074)" fill="#ebebeb"/>
                  <path id="Trazado_202667" data-name="Trazado 202667" d="M528.751,91.758a8.414,8.414,0,0,1,0-3.463,8.419,8.419,0,0,1,0,3.463" transform="translate(-162.527 -27.149)" fill="#ebebeb"/>
                  <path id="Trazado_202668" data-name="Trazado 202668" d="M530.1,100.407a3.1,3.1,0,0,1-1.35.176l-.174,0,0-.18,0-.381a4.309,4.309,0,0,1,.18-1.731,4.315,4.315,0,0,1,.18,1.731c0,.127,0,.251,0,.381l-.176-.176a3.1,3.1,0,0,1,1.35.176" transform="translate(-162.527 -30.224)" fill="#ebebeb"/>
                  <path id="Trazado_202669" data-name="Trazado 202669" d="M539.244,101.265a8.414,8.414,0,0,1-3.463,0,8.414,8.414,0,0,1,3.463,0" transform="translate(-164.744 -31.082)" fill="#ebebeb"/>
                  <path id="Trazado_202670" data-name="Trazado 202670" d="M549.244,101.265a8.413,8.413,0,0,1-3.463,0,8.413,8.413,0,0,1,3.463,0" transform="translate(-167.819 -31.082)" fill="#ebebeb"/>
                  <path id="Trazado_202671" data-name="Trazado 202671" d="M559.243,101.265a8.413,8.413,0,0,1-3.463,0,8.413,8.413,0,0,1,3.463,0" transform="translate(-170.894 -31.082)" fill="#ebebeb"/>
                  <path id="Trazado_202672" data-name="Trazado 202672" d="M569.244,101.265a8.414,8.414,0,0,1-3.463,0,8.414,8.414,0,0,1,3.463,0" transform="translate(-173.969 -31.082)" fill="#ebebeb"/>
                  <path id="Trazado_202673" data-name="Trazado 202673" d="M579.244,101.265a8.413,8.413,0,0,1-3.463,0,8.413,8.413,0,0,1,3.463,0" transform="translate(-177.044 -31.082)" fill="#ebebeb"/>
                  <path id="Trazado_202674" data-name="Trazado 202674" d="M589.244,101.265a8.414,8.414,0,0,1-3.463,0,8.414,8.414,0,0,1,3.463,0" transform="translate(-180.119 -31.082)" fill="#ebebeb"/>
                  <path id="Trazado_202675" data-name="Trazado 202675" d="M599.244,101.265a8.414,8.414,0,0,1-3.463,0,8.414,8.414,0,0,1,3.463,0" transform="translate(-183.193 -31.082)" fill="#ebebeb"/>
                  <path id="Trazado_202676" data-name="Trazado 202676" d="M609.244,101.265a8.413,8.413,0,0,1-3.463,0,8.413,8.413,0,0,1,3.463,0" transform="translate(-186.268 -31.082)" fill="#ebebeb"/>
                  <path id="Trazado_202677" data-name="Trazado 202677" d="M614.589,105.92a8.414,8.414,0,0,1,0-3.463,8.408,8.408,0,0,1,0,3.463" transform="translate(-188.921 -31.504)" fill="#ebebeb"/>
                  <path id="Trazado_202678" data-name="Trazado 202678" d="M614.589,115.92a8.413,8.413,0,0,1,0-3.463,8.408,8.408,0,0,1,0,3.463" transform="translate(-188.921 -34.579)" fill="#ebebeb"/>
                  <path id="Trazado_202679" data-name="Trazado 202679" d="M614.589,125.92a8.414,8.414,0,0,1,0-3.463,8.408,8.408,0,0,1,0,3.463" transform="translate(-188.921 -37.654)" fill="#ebebeb"/>
                  <path id="Trazado_202680" data-name="Trazado 202680" d="M614.589,135.92a8.414,8.414,0,0,1,0-3.463,8.408,8.408,0,0,1,0,3.463" transform="translate(-188.921 -40.728)" fill="#ebebeb"/>
                  <path id="Trazado_202681" data-name="Trazado 202681" d="M614.589,145.92a8.414,8.414,0,0,1,0-3.463,8.408,8.408,0,0,1,0,3.463" transform="translate(-188.921 -43.803)" fill="#ebebeb"/>
                  <path id="Trazado_202682" data-name="Trazado 202682" d="M614.589,155.92a8.413,8.413,0,0,1,0-3.463,8.408,8.408,0,0,1,0,3.463" transform="translate(-188.921 -46.878)" fill="#ebebeb"/>
                  <path id="Trazado_202683" data-name="Trazado 202683" d="M614.589,165.92a8.414,8.414,0,0,1,0-3.463,8.408,8.408,0,0,1,0,3.463" transform="translate(-188.921 -49.953)" fill="#ebebeb"/>
                  <path id="Trazado_202684" data-name="Trazado 202684" d="M614.589,175.92a8.413,8.413,0,0,1,0-3.463,8.408,8.408,0,0,1,0,3.463" transform="translate(-188.921 -53.028)" fill="#ebebeb"/>
                  <path id="Trazado_202685" data-name="Trazado 202685" d="M614.589,185.92a8.413,8.413,0,0,1,0-3.463,8.408,8.408,0,0,1,0,3.463" transform="translate(-188.921 -56.103)" fill="#ebebeb"/>
                  <path id="Trazado_202686" data-name="Trazado 202686" d="M614.589,195.92a8.414,8.414,0,0,1,0-3.463,8.408,8.408,0,0,1,0,3.463" transform="translate(-188.921 -59.178)" fill="#ebebeb"/>
                  <path id="Trazado_202687" data-name="Trazado 202687" d="M614.589,205.92a8.413,8.413,0,0,1,0-3.463,8.408,8.408,0,0,1,0,3.463" transform="translate(-188.921 -62.252)" fill="#ebebeb"/>
                  <path id="Trazado_202688" data-name="Trazado 202688" d="M628.2,221.124a24.332,24.332,0,1,0-45.306,12.293h-.014l.069.091c.933,1.572,2.1,2.7,3.283,4.349l14.128,18.714a4.394,4.394,0,0,0,7.014,0l13.893-18.406a52.47,52.47,0,0,0,3.534-4.682l.05-.066h-.01a24.184,24.184,0,0,0,3.359-12.293m-24.332,10.594a10.708,10.708,0,1,1,10.708-10.708,10.708,10.708,0,0,1-10.708,10.708" transform="translate(-178.197 -60.51)" fill="#f5f5f5"/>
                  <path id="Trazado_202689" data-name="Trazado 202689" d="M483.908,75.2V103.82a1.115,1.115,0,0,0,1.115,1.115h60a1.115,1.115,0,0,0,1.115-1.129L546,93.327a1.11,1.11,0,0,0-.221-.653l-8.606-11.505a1.115,1.115,0,0,0-.884-.447l-9.916-.076a1.114,1.114,0,0,1-1.107-1.115V75.2a1.115,1.115,0,0,0-1.116-1.115h-39.13a1.115,1.115,0,0,0-1.115,1.115" transform="translate(-148.794 -22.781)" fill="#f5f5f5"/>
                  <path id="Trazado_202690" data-name="Trazado 202690" d="M547.661,86.794v9.183a.639.639,0,0,0,.65.639l13.245-.237a.639.639,0,0,0,.518-1l-6.192-9.136a.642.642,0,0,0-.546-.28l-7.053.19a.64.64,0,0,0-.622.639" transform="translate(-168.397 -26.433)" fill="#ebebeb"/>
                  <rect id="Rectángulo_44868" data-name="Rectángulo 44868" width="64.635" height="1.994" transform="translate(333.906 83.026)" fill="#f5f5f5"/>
                  <path id="Trazado_202691" data-name="Trazado 202691" d="M507.354,118.153a6.393,6.393,0,1,1-6.393-6.393,6.393,6.393,0,0,1,6.393,6.393" transform="translate(-152.072 -34.364)" fill="#ebebeb"/>
                  <path id="Trazado_202692" data-name="Trazado 202692" d="M505.891,119.321a3.763,3.763,0,1,1-3.763-3.763,3.763,3.763,0,0,1,3.763,3.763" transform="translate(-153.24 -35.532)" fill="#fafafa"/>
                  <path id="Trazado_202693" data-name="Trazado 202693" d="M543.43,104.935c-.161,0-.292-6.906-.292-15.423s.13-15.425.292-15.425.292,6.905.292,15.425-.13,15.423-.292,15.423" transform="translate(-167.006 -22.781)" fill="#ebebeb"/>
                  <path id="Trazado_202694" data-name="Trazado 202694" d="M557.66,118.153a6.393,6.393,0,1,1-6.393-6.393,6.393,6.393,0,0,1,6.393,6.393" transform="translate(-167.54 -34.364)" fill="#ebebeb"/>
                  <path id="Trazado_202695" data-name="Trazado 202695" d="M556.2,119.321a3.763,3.763,0,1,1-3.763-3.763,3.763,3.763,0,0,1,3.763,3.763" transform="translate(-168.708 -35.532)" fill="#fafafa"/>
                  <path id="Trazado_202696" data-name="Trazado 202696" d="M552.313,103.829c0,.161-.915.292-2.044.292s-2.044-.13-2.044-.292.915-.292,2.044-.292,2.044.13,2.044.292" transform="translate(-168.57 -31.836)" fill="#ebebeb"/>
                  <path id="Trazado_202697" data-name="Trazado 202697" d="M216.94,285.366H120.561a21.86,21.86,0,0,1-21.438-21.627L100.15,21A21.092,21.092,0,0,1,121.338,0l96.823.447a21.091,21.091,0,0,1,20.994,21.181l-1.026,242.736a21.091,21.091,0,0,1-21.188,21" transform="translate(-30.479 0)" fill="#263238"/>
                  <path id="Trazado_202698" data-name="Trazado 202698" d="M220.878,13.767l-18.772-.087a4.663,4.663,0,0,0-4.578,4.744l-.015,3.405a4.663,4.663,0,0,1-4.578,4.744l-36.591-.17a4.667,4.667,0,0,1-4.538-4.786l.015-3.405a4.669,4.669,0,0,0-4.539-4.787l-6.6-.03-16.431-.075A14.771,14.771,0,0,0,109.41,28.029l-1,236.928a14.771,14.771,0,0,0,14.7,14.834l96.629.446a14.771,14.771,0,0,0,14.839-14.708l1-236.93a14.771,14.771,0,0,0-14.7-14.833" transform="translate(-33.334 -4.096)" fill="#f5f5f5"/>
                  <path id="Trazado_202699" data-name="Trazado 202699" d="M211.462,333.766c-.111,2.861-.215,5.544-.3,7.774h13.88l-1.7-8.526Z" transform="translate(-64.928 -102.397)" fill="#f5f5f5"/>
                  <path id="Trazado_202700" data-name="Trazado 202700" d="M130.138,337.707l.121,4.206h54.6c.092-2.362.195-4.983.3-7.687Z" transform="translate(-40.015 -102.769)" fill="#f5f5f5"/>
                  <path id="Trazado_202701" data-name="Trazado 202701" d="M229.756,332.193l1.708,8.57h25.59l-.308-10.277Z" transform="translate(-70.646 -101.619)" fill="#f5f5f5"/>
                  <path id="Trazado_202702" data-name="Trazado 202702" d="M210.119,147.085l4.839-28.054-12.674-.939v28.993Z" transform="translate(-62.199 -36.312)" fill="#f5f5f5"/>
                  <path id="Trazado_202703" data-name="Trazado 202703" d="M122.364,316.763l-13.754,5.388-.042,9.743,14.206-.9Z" transform="translate(-33.383 -97.4)" fill="#f5f5f5"/>
                  <path id="Trazado_202704" data-name="Trazado 202704" d="M122.324,297.906l-.752-26.129h-.01v-9.215l-12.753,1.35-.166,39.337,13.676-5.358Z" transform="translate(-33.406 -80.734)" fill="#f5f5f5"/>
                  <path id="Trazado_202705" data-name="Trazado 202705" d="M121.639,232.116l-12.654-1.67-.091,21.5,12.744-1.35Z" transform="translate(-33.483 -70.859)" fill="#f5f5f5"/>
                  <path id="Trazado_202706" data-name="Trazado 202706" d="M256.612,262.956l-.533,7.488-14.944,1.611,1.156,5.925,16.965-1.279-.255-8.5,1.353-5.627Z" transform="translate(-74.145 -80.739)" fill="#f5f5f5"/>
                  <path id="Trazado_202707" data-name="Trazado 202707" d="M224.111,279.889l11.919-.9-2.6-13.3-10.4,1.05Z" transform="translate(-68.579 -81.696)" fill="#f5f5f5"/>
                  <path id="Trazado_202708" data-name="Trazado 202708" d="M224.754,287.2l.911,11.091,1.616,15.21.663,3.33,27.221-1.722-.9-30.132Z" transform="translate(-69.108 -87.625)" fill="#f5f5f5"/>
                  <path id="Trazado_202709" data-name="Trazado 202709" d="M142.323,197.324l1.047,1.8-20.994,12.244v29.046l22.156-1.568,42.7-4.309-1.564-19.039-40.795-5.329.269-2.06,40.352,5.271-2.646-32.222-39.939,3.84-.132-1.379,39.958-3.842-1.381-16.813H142.94L109.2,169.1l-.163,38.5,12.775,1.686Zm-17.8,40.313s.159-23.951,0-24.845l17.13-9.113,2.22,32.733Z" transform="translate(-33.528 -50.107)" fill="#f5f5f5"/>
                  <path id="Trazado_202710" data-name="Trazado 202710" d="M254.572,263.328l-15.521,1.566,1.177,6.028,13.911-1.5Z" transform="translate(-73.505 -80.969)" fill="#f5f5f5"/>
                  <path id="Trazado_202711" data-name="Trazado 202711" d="M211.817,326.69c-.048,1.257-.1,2.51-.143,3.74l11.552-.731-.594-2.979Z" transform="translate(-65.086 -100.452)" fill="#f5f5f5"/>
                  <path id="Trazado_202712" data-name="Trazado 202712" d="M155.453,145.468l2.037-9.226H173V116.424L124.5,112.832V131.44l-15.146,3.425-.071,16.706,33.542-6.1Z" transform="translate(-33.604 -34.694)" fill="#f5f5f5"/>
                  <path id="Trazado_202713" data-name="Trazado 202713" d="M215.985,65.568l-.413-1.7,18.518-7.328L222.044,32.364a4.4,4.4,0,0,1-.665.053l-20.464-.095.557,33.839Z" transform="translate(-61.778 -9.939)" fill="#f5f5f5"/>
                  <path id="Trazado_202714" data-name="Trazado 202714" d="M254.287,46.918,254.266,13.9l-13.477-.062a4.663,4.663,0,0,0-4.577,4.744l-.015,3.406a4.819,4.819,0,0,1-1.982,3.908l12.053,24.194Z" transform="translate(-72.017 -4.256)" fill="#f5f5f5"/>
                  <path id="Trazado_202715" data-name="Trazado 202715" d="M151.045,48.179l-1.561-34.761-3.751-.017-14.646-.068-6.24,31.085Zm-3.338-31.238.5,28.309L128.739,42.4,133,16.941Z" transform="translate(-38.389 -4.1)" fill="#f5f5f5"/>
                  <path id="Trazado_202716" data-name="Trazado 202716" d="M163,48.319l0,.3c.033,2.713.089,7.595.13,12.816l25.5-1.042-.557-33.87-15.435-.071a4.668,4.668,0,0,1-4.538-4.787l.015-3.405a4.668,4.668,0,0,0-4.539-4.786l-2.159-.01,1.566,34.858Z" transform="translate(-49.635 -4.139)" fill="#f5f5f5"/>
                  <path id="Trazado_202717" data-name="Trazado 202717" d="M118.148,44.126l6.179-30.782a14.763,14.763,0,0,0-14.5,14.693l-.065,15.345.065-.452Z" transform="translate(-33.75 -4.103)" fill="#f5f5f5"/>
                  <path id="Trazado_202718" data-name="Trazado 202718" d="M122.462,112.183l-12.971-.961-.089,21.016,13.059-2.954Z" transform="translate(-33.639 -34.199)" fill="#f5f5f5"/>
                  <path id="Trazado_202719" data-name="Trazado 202719" d="M117.948,58.249,109.7,57.064,109.551,91.1l1.777.132Z" transform="translate(-33.685 -17.546)" fill="#f5f5f5"/>
                  <path id="Trazado_202720" data-name="Trazado 202720" d="M149.916,300.893l.218-27.325-21.823,1.544.771,26.769Z" transform="translate(-39.454 -84.118)" fill="#f5f5f5"/>
                  <path id="Trazado_202721" data-name="Trazado 202721" d="M164.82,292.661l30.906,14.805c.368-9.675.7-18.722.666-19.3l.67-.036.328-.652c.439.22.439.22.209,6.814-.129,3.68-.312,8.577-.5,13.475h10.688l-1.578-14.848-2.1-25.614-40.38,4.075Z" transform="translate(-50.344 -82.193)" fill="#f5f5f5"/>
                  <path id="Trazado_202722" data-name="Trazado 202722" d="M258.092,236.836l-.349-3.6L220.7,237.087l1.56,18.983,31.985-3.228Z" transform="translate(-67.861 -71.716)" fill="#f5f5f5"/>
                  <path id="Trazado_202723" data-name="Trazado 202723" d="M194.44,149.636H180.6l-1.578,7.149H194.44Z" transform="translate(-55.047 -46.011)" fill="#f5f5f5"/>
                  <path id="Trazado_202724" data-name="Trazado 202724" d="M250.42,152.055l-34.658-2.4-1.412,8.188,1.458,17.77,36.551-3.515Zm-33.383,5.775,1.859-5.167,30.1,1.9,1.742,14.782-32.685,3.876Z" transform="translate(-65.909 -46.018)" fill="#f5f5f5"/>
                  <path id="Trazado_202725" data-name="Trazado 202725" d="M254.713,199.774l-1.522-15.717-36.571,3.517,1.373,16.725Z" transform="translate(-66.607 -56.595)" fill="#f5f5f5"/>
                  <path id="Trazado_202726" data-name="Trazado 202726" d="M122.805,339.3l-14.188.9-.058-.924-.018,4.188h14.384Z" transform="translate(-33.375 -104.323)" fill="#f5f5f5"/>
                  <path id="Trazado_202727" data-name="Trazado 202727" d="M283.219,39.143l.209.528.046-10.881a14.771,14.771,0,0,0-14.7-14.833l-4.6-.021.021,32.738Z" transform="translate(-81.228 -4.285)" fill="#f5f5f5"/>
                  <path id="Trazado_202728" data-name="Trazado 202728" d="M185.158,310.061l-31.547-15.113L152.5,273.292l-1.321.134-.224,28.043-21.5,1.02.018.625,0,.012,0,0,.416,14.458L185,314.1c.051-1.341.1-2.693.154-4.038m-54.354-5.79,30.095-2.112,19.58,9.084L130.8,313.932Z" transform="translate(-39.805 -84.033)" fill="#f5f5f5"/>
                  <path id="Trazado_202729" data-name="Trazado 202729" d="M270.669,90.825l1.29-7.655c-11.312-4.037-12.1-15.834-12.062-19.4l-7.384,2.922,11.118,22.319Z" transform="translate(-77.644 -19.607)" fill="#f5f5f5"/>
                  <path id="Trazado_202730" data-name="Trazado 202730" d="M219.96,229.066l15.381-1.6-3.031-13.584-13.46,1.659Z" transform="translate(-67.293 -65.765)" fill="#f5f5f5"/>
                  <path id="Trazado_202731" data-name="Trazado 202731" d="M251.259,119.7l-28.728,0-2.384-.177L216.9,138.333l34.1,2.359-.792-8.179,3.356-12.082Z" transform="translate(-66.694 -36.751)" fill="#f5f5f5"/>
                  <path id="Trazado_202732" data-name="Trazado 202732" d="M252.871,100.734l.359-8.978L241.94,69.092,224.434,76.02l6.019,24.714ZM241.259,71.849,251.6,91.531l-1.494,6.134L232.408,97l-4.426-18.616Z" transform="translate(-69.01 -21.245)" fill="#f5f5f5"/>
                  <path id="Trazado_202733" data-name="Trazado 202733" d="M271.952,267.877l.529,17.636,12.447-.7.039.691-12.464.7.634,21.108,11.767-.744.087,1.382-11.813.747.315,10.5H284.96l.249-58.856-11.729,1.184Z" transform="translate(-83.621 -80.05)" fill="#f5f5f5"/>
                  <path id="Trazado_202734" data-name="Trazado 202734" d="M148.08,62.985,121.723,59.2l-6.591,32.84L148.2,94.491c.132-5.056.017-20.565-.116-31.506" transform="translate(-35.401 -18.204)" fill="#f5f5f5"/>
                  <path id="Trazado_202735" data-name="Trazado 202735" d="M218.06,104.5h3.988L216.4,81.321l-14.668.6.352,21.392Z" transform="translate(-62.031 -25.005)" fill="#f5f5f5"/>
                  <path id="Trazado_202736" data-name="Trazado 202736" d="M108.429,369.67l-.021,4.86c0,.15.017.3.021.444Z" transform="translate(-33.334 -113.668)" fill="#f5f5f5"/>
                  <path id="Trazado_202737" data-name="Trazado 202737" d="M163.852,101.621l25.894,1.918-.351-21.312-25.51,1.042c.054,7.208.076,14.895-.033,18.352" transform="translate(-50.382 -25.284)" fill="#f5f5f5"/>
                  <path id="Trazado_202738" data-name="Trazado 202738" d="M261.882,209.739l-22.6,2.785,3.035,13.6,20.94-2.179Z" transform="translate(-73.576 -64.491)" fill="#f5f5f5"/>
                  <path id="Trazado_202739" data-name="Trazado 202739" d="M275.66,78.972l1.448-8.591,6.238.485.078-18.5-19.242,7.616C263.79,73,271.966,77.578,275.66,78.972" transform="translate(-81.228 -16.102)" fill="#f5f5f5"/>
                  <path id="Trazado_202740" data-name="Trazado 202740" d="M270.064,133.688l.785,8.114,14.1.975.071-16.708-11.8-3.727Z" transform="translate(-83.04 -37.618)" fill="#f5f5f5"/>
                  <path id="Trazado_202741" data-name="Trazado 202741" d="M278.108,237.043l-3.7,15.393,11.56-1.167.069-16.142c-3.548-.934-6.644-1.7-8.307-2.016Z" transform="translate(-84.376 -71.678)" fill="#f5f5f5"/>
                  <path id="Trazado_202742" data-name="Trazado 202742" d="M268.485,111.55l16.062,5.072.039-9.134-15.775-4.075Z" transform="translate(-82.555 -31.798)" fill="#f5f5f5"/>
                  <path id="Trazado_202743" data-name="Trazado 202743" d="M277.523,215.264c1.294.2,3.748.717,8.521,1.971l.15-35.294-11.787,1.134Z" transform="translate(-84.376 -55.944)" fill="#f5f5f5"/>
                  <path id="Trazado_202744" data-name="Trazado 202744" d="M273.377,172.941l11.926-1.147.073-17.364-13.884-.961Z" transform="translate(-83.48 -47.19)" fill="#f5f5f5"/>
                  <path id="Trazado_202745" data-name="Trazado 202745" d="M282.685,88.064c2.26.687,4.364,1.219,6.312,1.609l.037-8.763-5.077-.4Z" transform="translate(-86.921 -24.757)" fill="#f5f5f5"/>
                  <path id="Trazado_202746" data-name="Trazado 202746" d="M280.675,99.98l7.668,1.982.033-7.919c-1.983-.4-4.124-.937-6.425-1.634Z" transform="translate(-86.303 -28.414)" fill="#f5f5f5"/>
                  <path id="Trazado_202747" data-name="Trazado 202747" d="M122.812,239.078l.12,4.162h.693l-.121-4.206,55.022-3.481c-.1,2.7-.207,5.324-.3,7.686h1.386c.087-2.231.192-4.913.3-7.774l11.879-.751,1.7,8.525h.706l-1.708-8.57,26.989-1.707.309,10.277h3.464l-.315-10.5L234.751,232l-.087-1.382-11.767.744-.634-21.108,12.465-.7-.039-.691-12.446.7-.53-17.636,1.528-6.355,11.729-1.184,0-.7-11.56,1.166,3.7-15.393-.381-3.931c1.664.321,4.76,1.082,8.307,2.016l.009-2.159c-4.773-1.255-7.226-1.776-8.521-1.972l-3.117-32.19,11.787-1.133.006-1.393-11.926,1.147-1.886-19.472,13.885.961.009-2.082-14.1-.976-.785-8.114,3.151-11.345,11.8,3.726.015-3.626-16.062-5.072.325-8.138,15.775,4.075.009-2.143-7.668-1.981,1.276-7.572q3.452,1.045,6.425,1.634l0-.712c-1.948-.391-4.051-.922-6.312-1.609l1.272-7.549,5.077.4.006-1.389-6.238-.485-1.448,8.591c-3.694-1.394-11.87-5.972-11.478-18.988l19.242-7.616,0-.88-.209-.528-19.03,7.53-.021-32.738-.693,0,.022,33.016-8.021,3.174L195.579,25.738a4.415,4.415,0,0,1-1.931.783L205.693,50.7l-18.518,7.328.413,1.7-14.512.593-.557-33.839-.693,0,.557,33.87-25.5,1.042c-.04-5.222-.1-10.1-.13-12.816l0-.3h-.009l-1.566-34.858-.693,0,1.561,34.761-26.2-3.761,6.24-31.085-1.784-.008c-.114,0-.224.014-.337.016l-6.179,30.782-8.323-1.2-.065.452v.238l8.253,1.185-6.62,32.981-1.777-.132-.015,3.471,12.971.961v17.1l-13.059,2.954-.009,2.132,15.146-3.425V82.234l48.493,3.592v19.818H157.268l-2.037,9.226H142.607l-33.541,6.1-.009,2.114,33.738-6.14h38.417l1.381,16.812L142.634,137.6l.132,1.379,39.939-3.841,2.645,32.223L145,162.092l-.269,2.06,40.794,5.33,1.564,19.039-42.7,4.31L122.23,194.4V165.352l20.994-12.245-1.046-1.795-20.51,11.962-12.774-1.686-.009,2.095,12.654,1.67v18.483l-12.744,1.35-.009,2.089,12.753-1.351v9.215h.01l.752,26.129,0-.014-13.676,5.358-.01,2.235,13.754-5.388.41,14.233-14.2.9,0,.461.058.924Zm57.157-5c.047-1.23.095-2.483.143-3.74l10.814.029.593,2.98Zm12.249-.775-.663-3.33-1.616-15.21-.911-11.091,29.507-2.224.9,30.133Zm6.71-45.278,15.521-1.566-.433,6.094-13.911,1.5Zm-.692.07,2.6,13.3-11.919.9-1.08-13.148Zm20.256,11.968-16.965,1.279-1.156-5.924,14.944-1.612.533-7.488,3.743-.377-1.353,5.627ZM198.4,152.213,201.43,165.8l-15.381,1.6-1.11-13.525Zm3.724,13.512-3.034-13.6,22.6-2.785,1.375,14.2Zm15.566-57.688-34.1-2.359,3.244-18.811,2.384.177,28.728,0,2.307.728L216.9,99.858Zm-2.053-59.783c-.033,3.571.75,15.368,12.062,19.4l-1.29,7.655L219.37,73.5,208.252,51.177Zm-9.323,3.69L217.6,74.607l-.359,8.979H194.824l-6.018-24.714Zm-18.557,8.468L193.4,83.586h-3.988L173.439,82.4l-.353-21.391Zm-15.361.627.35,21.312-25.893-1.918c.108-3.456.086-11.144.033-18.351ZM119.7,45.094l26.356,3.783c.133,10.942.249,26.45.116,31.506l-33.064-2.449Zm66.436,41.722L181.3,114.87h-7.834V85.877Zm-27.2,20.9h13.838v7.149H157.359Zm22.886,8.2,1.413-8.188,34.657,2.4,1.94,20.046-36.551,3.515Zm38.144,15.634,1.522,15.717-36.72,4.524L183.4,135.075Zm-33.747,37.909,37.045-3.853.348,3.6-3.849,16.006-31.985,3.228Zm3.03,45.357,1.578,14.849H180.138c.186-4.9.369-9.8.5-13.475.23-6.6.23-6.6-.209-6.815l-.327.652-.67.036c.031.576-.3,9.623-.666,19.3l-30.906-14.805-1.091-21.279,40.379-4.075Zm-45.187-21.278-.218,27.325-20.834.988-.771-26.769Zm-21.014,29.644,0,0-.006-.012-.018-.625,21.5-1.02.224-28.043,1.321-.134,1.112,21.656,31.546,15.113c-.051,1.345-.1,2.7-.154,4.038l-55.115,3.486Z" transform="translate(-33.382 -4.096)" fill="#fff"/>
                  <path id="Trazado_202748" data-name="Trazado 202748" d="M161.5,314.976,131.4,317.088v9.661l49.674-2.688Z" transform="translate(-40.404 -96.85)" fill="#ebebeb"/>
                  <path id="Trazado_202749" data-name="Trazado 202749" d="M250.192,155.9l-30.1-1.9-1.86,5.167,1.019,15.4,32.685-3.876Z" transform="translate(-67.102 -47.352)" fill="#ebebeb"/>
                  <path id="Trazado_202750" data-name="Trazado 202750" d="M123.12,381.878l96.629.446a14.771,14.771,0,0,0,14.839-14.708l.094-22.29H108.509l-.071,16.859v5.3a14.761,14.761,0,0,0,14.682,14.39" transform="translate(-33.343 -106.182)" fill="#ebebeb"/>
                  <path id="Trazado_202751" data-name="Trazado 202751" d="M149.934,46.851l-.5-28.309h-14.7L130.467,44Z" transform="translate(-40.117 -5.702)" fill="#ebebeb"/>
                  <path id="Trazado_202752" data-name="Trazado 202752" d="M251.685,98.889l1.494-6.134L242.834,73.074l-13.277,6.533,4.426,18.617Z" transform="translate(-70.585 -22.469)" fill="#ebebeb"/>
                  <path id="Trazado_202753" data-name="Trazado 202753" d="M131.4,230.873c.159.894,0,24.845,0,24.845l19.35-1.224-2.22-32.733Z" transform="translate(-40.404 -68.188)" fill="#ebebeb"/>
                  <path id="Trazado_202754" data-name="Trazado 202754" d="M224.142,254.52l-1.024-14.843,33.188-4.265v2.559l-4.013,13.649Z" transform="translate(-68.606 -72.386)" fill="#ebebeb"/>
                  <path id="Trazado_202755" data-name="Trazado 202755" d="M185.558,83.476a4.042,4.042,0,1,1-4.042-4.042,4.042,4.042,0,0,1,4.042,4.042" transform="translate(-54.571 -24.425)" fill="#4dd0e1"/>
                  <g id="Grupo_146714" data-name="Grupo 146714" transform="translate(122.903 55.009)" opacity="0.6">
                    <g id="Grupo_146713" data-name="Grupo 146713">
                      <g id="Grupo_146712" data-name="Grupo 146712" clip-path="url(#clip-path-3)">
                        <path id="Trazado_202756" data-name="Trazado 202756" d="M185.554,83.3a4.042,4.042,0,1,1-4.211-3.865,4.042,4.042,0,0,1,4.211,3.865" transform="translate(-177.474 -79.434)" fill="#fff"/>
                      </g>
                    </g>
                  </g>
                  <path id="Trazado_202757" data-name="Trazado 202757" d="M184.805,83.876a2.689,2.689,0,1,1-2.688-2.688,2.689,2.689,0,0,1,2.688,2.688" transform="translate(-55.171 -24.964)" fill="#4dd0e1"/>
                  <path id="Trazado_202758" data-name="Trazado 202758" d="M272,317.651a1.727,1.727,0,1,1-1.727-1.727A1.727,1.727,0,0,1,272,317.651" transform="translate(-82.574 -97.142)" fill="#4dd0e1"/>
                  <path id="Trazado_202759" data-name="Trazado 202759" d="M233.822,245.954l-.417-9.68-29.175,1.418a4.4,4.4,0,0,1-2.2-.468l-41.38-20.9A3.006,3.006,0,0,1,159,213.8l-5.633-109.235a1.828,1.828,0,0,1,1.96-1.917l17.734,1.314V84.579h2.078v19.656a1.828,1.828,0,0,1-1.963,1.823l-17.719-1.313L161.079,213.7a.923.923,0,0,0,.5.774l41.379,20.9a2.306,2.306,0,0,0,1.167.248l29.417-1.43a1.835,1.835,0,0,1,1.924,1.755l.427,9.922Z" transform="translate(-47.158 -26.007)" fill="#4dd0e1"/>
                  <path id="Trazado_202760" data-name="Trazado 202760" d="M161.176,179.608a5.236,5.236,0,1,1-5.236-5.236,5.236,5.236,0,0,1,5.236,5.236" transform="translate(-46.339 -53.617)" fill="#4dd0e1"/>
                  <path id="Trazado_202761" data-name="Trazado 202761" d="M160.287,180.318a3.637,3.637,0,1,1-3.637-3.637,3.637,3.637,0,0,1,3.637,3.637" transform="translate(-47.049 -54.327)" fill="#fafafa"/>
                  <path id="Trazado_202762" data-name="Trazado 202762" d="M156.534,184.1a3.9,3.9,0,1,1,3.9-3.9,3.9,3.9,0,0,1-3.9,3.9m0-7.274a3.377,3.377,0,1,0,3.377,3.378,3.382,3.382,0,0,0-3.377-3.378" transform="translate(-46.933 -54.211)" fill="#4dd0e1"/>
                  <path id="Trazado_202763" data-name="Trazado 202763" d="M190.758,150.218H165.827a2.195,2.195,0,0,0-2.195,2.194v9.029a2.195,2.195,0,0,0,2.195,2.195h.29v2.152l2.5-2.152h22.145a2.195,2.195,0,0,0,2.195-2.195v-9.029a2.195,2.195,0,0,0-2.195-2.194" transform="translate(-50.314 -46.19)" fill="#4dd0e1"/>
                  <g id="Grupo_146717" data-name="Grupo 146717" transform="translate(113.318 104.028)" opacity="0.4">
                    <g id="Grupo_146716" data-name="Grupo 146716">
                      <g id="Grupo_146715" data-name="Grupo 146715" clip-path="url(#clip-path-4)">
                        <path id="Trazado_202764" data-name="Trazado 202764" d="M190.758,150.218H165.827a2.195,2.195,0,0,0-2.195,2.194v9.029a2.195,2.195,0,0,0,2.195,2.195h.29v2.152l2.5-2.152h22.145a2.195,2.195,0,0,0,2.195-2.195v-9.029a2.195,2.195,0,0,0-2.195-2.194" transform="translate(-163.632 -150.218)" fill="#fff"/>
                      </g>
                    </g>
                  </g>
                  <path id="Trazado_202765" data-name="Trazado 202765" d="M171.727,159.063a1.5,1.5,0,1,1,1.5,1.441,1.433,1.433,0,0,1-1.5-1.441m2.593,0a1.1,1.1,0,1,0-1.091,1.083,1.058,1.058,0,0,0,1.091-1.083" transform="translate(-52.803 -48.466)" fill="#fff"/>
                  <path id="Trazado_202766" data-name="Trazado 202766" d="M179.071,159.344a1.039,1.039,0,0,1-1.079,1.091.9.9,0,0,1-.761-.362v.339h-.371v-2.988h.386V158.6a.909.909,0,0,1,.745-.342,1.036,1.036,0,0,1,1.079,1.087m-.391,0a.719.719,0,1,0-.721.753.7.7,0,0,0,.721-.753" transform="translate(-54.382 -48.405)" fill="#fff"/>
                  <path id="Trazado_202767" data-name="Trazado 202767" d="M179.761,161.061l.125-.3a.488.488,0,0,0,.314.1c.206,0,.319-.129.319-.375v-2.238h.386v2.23a.637.637,0,0,1-.681.708.759.759,0,0,1-.463-.129m.688-3.47a.254.254,0,0,1,.261-.253.252.252,0,1,1-.261.253" transform="translate(-55.274 -48.379)" fill="#fff"/>
                  <path id="Trazado_202768" data-name="Trazado 202768" d="M184.309,159.843h-1.731a.723.723,0,0,0,.773.624.8.8,0,0,0,.616-.258l.213.25a1.164,1.164,0,0,1-1.989-.745,1.045,1.045,0,0,1,1.071-1.087,1.029,1.029,0,0,1,1.055,1.1c0,.032,0,.08-.008.116m-1.731-.278h1.369a.689.689,0,0,0-1.369,0" transform="translate(-56.021 -48.775)" fill="#fff"/>
                  <path id="Trazado_202769" data-name="Trazado 202769" d="M185.749,159.714a1.066,1.066,0,0,1,1.127-1.087.952.952,0,0,1,.87.455l-.294.189a.665.665,0,0,0-.58-.306.751.751,0,0,0,0,1.5.664.664,0,0,0,.58-.306l.294.186a.955.955,0,0,1-.87.458,1.069,1.069,0,0,1-1.127-1.091" transform="translate(-57.115 -48.775)" fill="#fff"/>
                  <path id="Trazado_202770" data-name="Trazado 202770" d="M190.459,160.458a.732.732,0,0,1-.467.149.609.609,0,0,1-.676-.668v-1.172h-.362v-.318h.362v-.467h.386v.467h.612v.318H189.7v1.156a.314.314,0,0,0,.334.358.486.486,0,0,0,.3-.1Z" transform="translate(-58.1 -48.577)" fill="#fff"/>
                  <path id="Trazado_202771" data-name="Trazado 202771" d="M191.7,157.59a.254.254,0,0,1,.262-.253.25.25,0,0,1,.262.245.262.262,0,0,1-.524.008m.069.66h.386v2.134h-.386Z" transform="translate(-58.945 -48.379)" fill="#fff"/>
                  <path id="Trazado_202772" data-name="Trazado 202772" d="M195.145,158.656l-.934,2.134h-.395l-.934-2.134h.4l.733,1.711.749-1.711Z" transform="translate(-59.308 -48.784)" fill="#fff"/>
                  <path id="Trazado_202773" data-name="Trazado 202773" d="M198.419,159.843h-1.731a.723.723,0,0,0,.773.624.8.8,0,0,0,.616-.258l.213.25a1.164,1.164,0,0,1-1.989-.745,1.045,1.045,0,0,1,1.071-1.087,1.029,1.029,0,0,1,1.055,1.1c0,.032,0,.08-.008.116m-1.731-.278h1.369a.689.689,0,0,0-1.369,0" transform="translate(-60.36 -48.775)" fill="#fff"/>
                  <path id="Trazado_202774" data-name="Trazado 202774" d="M186.306,63.358a5.183,5.183,0,1,0-9.65,2.619h0l.015.019c.2.334.447.574.7.926l3.009,3.987a.937.937,0,0,0,1.494,0l2.959-3.921a11.25,11.25,0,0,0,.753-1l.01-.014h0a5.151,5.151,0,0,0,.715-2.619m-5.183,2.257a2.281,2.281,0,1,1,2.281-2.281,2.281,2.281,0,0,1-2.281,2.281" transform="translate(-54.099 -17.888)" fill="#4dd0e1"/>
                  <path id="Trazado_202775" data-name="Trazado 202775" d="M142.022,360.374h-.966v-.35h2.331v.35h-.966v2.467h-.4Z" transform="translate(-43.373 -110.702)" fill="#263238"/>
                  <path id="Trazado_202776" data-name="Trazado 202776" d="M144.37,362.07a1.109,1.109,0,1,1,1.111,1.091,1.062,1.062,0,0,1-1.111-1.091m1.828,0a.719.719,0,1,0-1.437,0,.719.719,0,1,0,1.437,0" transform="translate(-44.392 -110.997)" fill="#263238"/>
                  <path id="Trazado_202777" data-name="Trazado 202777" d="M149.411,362.813a.732.732,0,0,1-.467.15.609.609,0,0,1-.676-.669v-1.171H147.9V360.8h.362v-.467h.386v.467h.612v.318h-.612v1.155a.314.314,0,0,0,.334.359.49.49,0,0,0,.3-.1Z" transform="translate(-45.478 -110.798)" fill="#263238"/>
                  <path id="Trazado_202778" data-name="Trazado 202778" d="M152.371,361.849v1.288H152v-.282a.791.791,0,0,1-.7.307c-.483,0-.789-.258-.789-.629,0-.342.222-.624.857-.624h.612v-.076c0-.326-.19-.515-.572-.515a1.072,1.072,0,0,0-.676.23l-.161-.29a1.42,1.42,0,0,1,.882-.274c.584,0,.914.282.914.866m-.386.636v-.3h-.6c-.383,0-.492.149-.492.33,0,.214.177.346.471.346a.619.619,0,0,0,.616-.378" transform="translate(-46.281 -110.997)" fill="#263238"/>
                  <rect id="Rectángulo_44871" data-name="Rectángulo 44871" width="0.386" height="2.987" transform="translate(106.806 249.153)" fill="#263238"/>
                  <path id="Trazado_202779" data-name="Trazado 202779" d="M159.34,359.78v2.987h-.371v-.338a.9.9,0,0,1-.761.362,1.089,1.089,0,0,1,0-2.178.909.909,0,0,1,.745.342V359.78Zm-.382,1.92a.72.72,0,1,0-.717.753.7.7,0,0,0,.717-.753" transform="translate(-48.315 -110.627)" fill="#263238"/>
                  <path id="Trazado_202780" data-name="Trazado 202780" d="M161.281,359.946a.255.255,0,0,1,.262-.254.252.252,0,1,1-.262.254m.069.66h.386v2.134h-.386Z" transform="translate(-49.591 -110.6)" fill="#263238"/>
                  <path id="Trazado_202781" data-name="Trazado 202781" d="M162.613,362.912l.161-.306a1.374,1.374,0,0,0,.749.222c.358,0,.507-.109.507-.29,0-.479-1.348-.064-1.348-.913,0-.383.342-.641.889-.641a1.546,1.546,0,0,1,.777.193l-.165.306a1.115,1.115,0,0,0-.616-.17c-.339,0-.5.125-.5.294,0,.5,1.352.093,1.352.922,0,.387-.354.632-.922.632a1.542,1.542,0,0,1-.882-.249" transform="translate(-50.001 -110.997)" fill="#263238"/>
                  <path id="Trazado_202782" data-name="Trazado 202782" d="M166.979,362.813a.733.733,0,0,1-.467.15.609.609,0,0,1-.676-.669v-1.171h-.362V360.8h.362v-.467h.386v.467h.611v.318h-.611v1.155a.314.314,0,0,0,.334.359.49.49,0,0,0,.3-.1Z" transform="translate(-50.88 -110.798)" fill="#263238"/>
                  <path id="Trazado_202783" data-name="Trazado 202783" d="M169.939,361.849v1.288h-.366v-.282a.791.791,0,0,1-.7.307c-.483,0-.79-.258-.79-.629,0-.342.222-.624.857-.624h.612v-.076c0-.326-.189-.515-.572-.515a1.072,1.072,0,0,0-.676.23l-.161-.29a1.42,1.42,0,0,1,.882-.274c.584,0,.914.282.914.866m-.386.636v-.3h-.6c-.383,0-.492.149-.492.33,0,.214.177.346.471.346a.619.619,0,0,0,.616-.378" transform="translate(-51.683 -110.997)" fill="#263238"/>
                  <path id="Trazado_202784" data-name="Trazado 202784" d="M173.823,361.908v1.228h-.386v-1.184c0-.418-.209-.624-.576-.624a.634.634,0,0,0-.677.709v1.1H171.8V361h.37v.322a.916.916,0,0,1,.769-.342.827.827,0,0,1,.886.925" transform="translate(-52.825 -110.997)" fill="#263238"/>
                  <path id="Trazado_202785" data-name="Trazado 202785" d="M175.49,362.07a1.066,1.066,0,0,1,1.127-1.087.952.952,0,0,1,.87.455l-.294.189a.665.665,0,0,0-.58-.306.751.751,0,0,0,0,1.5.664.664,0,0,0,.58-.307l.294.186a.955.955,0,0,1-.87.459,1.069,1.069,0,0,1-1.127-1.091" transform="translate(-53.96 -110.997)" fill="#263238"/>
                  <path id="Trazado_202786" data-name="Trazado 202786" d="M180.881,362.2h-1.731a.723.723,0,0,0,.773.625.8.8,0,0,0,.616-.258l.213.249a1.163,1.163,0,0,1-1.989-.745,1.045,1.045,0,0,1,1.071-1.087,1.029,1.029,0,0,1,1.055,1.1,1.173,1.173,0,0,1-.008.117m-1.731-.278h1.369a.689.689,0,0,0-1.369,0" transform="translate(-54.967 -110.996)" fill="#263238"/>
                  <path id="Trazado_202787" data-name="Trazado 202787" d="M144.816,368.656v6.724H143.26v-5.475h-1.345v-1.249Z" transform="translate(-43.637 -113.356)" fill="#263238"/>
                  <path id="Trazado_202788" data-name="Trazado 202788" d="M149.595,376.707a2.243,2.243,0,0,1-.259.96l-.548,1.383h-.952l.423-1.527a.834.834,0,0,1-.519-.816.927.927,0,0,1,1.854,0" transform="translate(-45.428 -115.548)" fill="#263238"/>
                  <path id="Trazado_202789" data-name="Trazado 202789" d="M153.665,368.656v6.724h-1.556v-5.475h-1.345v-1.249Z" transform="translate(-46.358 -113.356)" fill="#263238"/>
                  <path id="Trazado_202790" data-name="Trazado 202790" d="M156.645,371.967c0-2.219,1.229-3.477,2.882-3.477s2.882,1.258,2.882,3.477-1.22,3.477-2.882,3.477-2.882-1.258-2.882-3.477m4.2,0c0-1.527-.537-2.161-1.316-2.161s-1.307.634-1.307,2.161.538,2.161,1.307,2.161,1.316-.634,1.316-2.161" transform="translate(-48.166 -113.305)" fill="#263238"/>
                  <path id="Trazado_202791" data-name="Trazado 202791" d="M166.063,371.967c0-2.219,1.229-3.477,2.882-3.477s2.882,1.258,2.882,3.477-1.22,3.477-2.882,3.477-2.882-1.258-2.882-3.477m4.2,0c0-1.527-.537-2.161-1.316-2.161s-1.307.634-1.307,2.161.538,2.161,1.307,2.161,1.316-.634,1.316-2.161" transform="translate(-51.062 -113.305)" fill="#263238"/>
                  <path id="Trazado_202792" data-name="Trazado 202792" d="M188.6,373.078v2.958h-1.5v-2.728c0-.835-.375-1.22-.98-1.22-.672,0-1.143.432-1.143,1.354v2.593h-1.5v-2.728c0-.835-.355-1.22-.98-1.22-.663,0-1.133.432-1.133,1.354v2.593h-1.5V370.87H181.3v.595a2.091,2.091,0,0,1,1.623-.672,1.928,1.928,0,0,1,1.7.846,2.325,2.325,0,0,1,1.864-.846,2,2,0,0,1,2.114,2.286" transform="translate(-55.305 -114.013)" fill="#263238"/>
                  <path id="Trazado_202793" data-name="Trazado 202793" d="M131.038,365.325a5.8,5.8,0,1,1-5.8-5.8,5.8,5.8,0,0,1,5.8,5.8" transform="translate(-36.725 -110.548)" fill="#4dd0e1"/>
                  <path id="Trazado_202794" data-name="Trazado 202794" d="M124.36,367.771a8.9,8.9,0,0,1,1.489-.092c.947-.026,2.3-.049,3.923-.064l-.119.258-1.479-1.709-.093-.108.09-.113,1.461-1.825.141.292h-.659l-4.753-.019.161-.161c-.015,1.759-.037,3.238-.065,4.278a10.292,10.292,0,0,1-.1,1.639,10.3,10.3,0,0,1-.1-1.639c-.028-1.04-.051-2.519-.065-4.278v-.161h.163l4.753-.019h1.037l-.238.293-1.472,1.816,0-.22,1.454,1.73.22.262-.339,0c-1.623-.015-2.976-.038-3.923-.064a8.9,8.9,0,0,1-1.489-.092" transform="translate(-38.189 -111.94)" fill="#fafafa"/>
                  <path id="Trazado_202795" data-name="Trazado 202795" d="M253.961,353.614H236.434a3.353,3.353,0,0,0-3.353,3.353v13.8a3.353,3.353,0,0,0,3.353,3.353h.445v3.289l3.814-3.289h13.268a3.353,3.353,0,0,0,3.353-3.353v-13.8a3.353,3.353,0,0,0-3.353-3.353" transform="translate(-71.669 -108.731)" fill="#4dd0e1"/>
                  <path id="Trazado_202796" data-name="Trazado 202796" d="M240.337,362.63V369.7a.275.275,0,0,0,.276.276h14.833a.276.276,0,0,0,.276-.28l-.034-2.59a.278.278,0,0,0-.055-.162l-2.127-2.844a.277.277,0,0,0-.219-.11l-2.452-.019a.276.276,0,0,1-.274-.276v-1.07a.275.275,0,0,0-.276-.276h-9.673a.275.275,0,0,0-.276.276" transform="translate(-73.9 -111.418)" fill="#fafafa"/>
                  <path id="Trazado_202797" data-name="Trazado 202797" d="M256.1,365.495v2.27a.158.158,0,0,0,.161.158l3.274-.058a.158.158,0,0,0,.128-.247l-1.53-2.259a.159.159,0,0,0-.135-.069l-1.744.047a.157.157,0,0,0-.154.158" transform="translate(-78.746 -112.321)" fill="#4dd0e1"/>
                  <rect id="Rectángulo_44872" data-name="Rectángulo 44872" width="15.978" height="0.493" transform="translate(166.139 258.777)" fill="#fafafa"/>
                  <path id="Trazado_202798" data-name="Trazado 202798" d="M246.133,373.247a1.58,1.58,0,1,1-1.58-1.58,1.581,1.581,0,0,1,1.58,1.58" transform="translate(-74.71 -114.282)" fill="#4dd0e1"/>
                  <path id="Trazado_202799" data-name="Trazado 202799" d="M245.772,373.536a.93.93,0,1,1-.93-.93.93.93,0,0,1,.93.93" transform="translate(-74.999 -114.571)" fill="#fafafa"/>
                  <path id="Trazado_202800" data-name="Trazado 202800" d="M255.051,369.98c-.04,0-.072-1.707-.072-3.813s.032-3.813.072-3.813.072,1.707.072,3.813-.032,3.813-.072,3.813" transform="translate(-78.402 -111.418)" fill="#4dd0e1"/>
                  <path id="Trazado_202801" data-name="Trazado 202801" d="M258.569,373.247a1.58,1.58,0,1,1-1.58-1.58,1.58,1.58,0,0,1,1.58,1.58" transform="translate(-78.534 -114.282)" fill="#4dd0e1"/>
                  <path id="Trazado_202802" data-name="Trazado 202802" d="M258.207,373.536a.931.931,0,1,1-.931-.93.93.93,0,0,1,.931.93" transform="translate(-78.822 -114.571)" fill="#fafafa"/>
                  <path id="Trazado_202803" data-name="Trazado 202803" d="M257.247,369.706c0,.04-.226.072-.505.072s-.506-.032-.506-.072.226-.072.506-.072.505.032.505.072" transform="translate(-78.789 -113.657)" fill="#4dd0e1"/>
                  <path id="Trazado_202804" data-name="Trazado 202804" d="M495.956,202.01s11.174,1.888,12.073,2.127,4.438,1.919,4.618,3a32.381,32.381,0,0,1,0,4.258s-.639.521-1.039-.519a10.674,10.674,0,0,1-.34-3.1l-1.979-.762,1.08,1.919.18,4.5s-1.382-.126-1.651-1.2a10.734,10.734,0,0,1-.264-2.276l-1.444-1.222,1.08,1.463.364,3.238s-1.053.34-1.385-.378a11.192,11.192,0,0,1-.359-2.86l-4.071-1.422-2.7,1.5-5.037-2.848Z" transform="translate(-152.231 -62.115)" fill="#ffbe9d"/>
                  <path id="Trazado_202805" data-name="Trazado 202805" d="M437.4,162.138c.051.222,13.462,18.682,13.462,18.682L477.8,189.2l-1.227,10.118-33.016-6.648-11.717-13.447Z" transform="translate(-132.785 -49.855)" fill="#feca2e"/>
                  <g id="Grupo_146720" data-name="Grupo 146720" transform="translate(299.058 112.283)" opacity="0.2">
                    <g id="Grupo_146719" data-name="Grupo 146719">
                      <g id="Grupo_146718" data-name="Grupo 146718" clip-path="url(#clip-path-5)">
                        <path id="Trazado_202806" data-name="Trazado 202806" d="M437.4,162.138c.051.222,13.462,18.682,13.462,18.682L477.8,189.2l-1.227,10.118-33.016-6.648-11.717-13.447Z" transform="translate(-431.843 -162.138)"/>
                      </g>
                    </g>
                  </g>
                  <path id="Trazado_202807" data-name="Trazado 202807" d="M346.738,209.558H291.694a2.111,2.111,0,0,1-2.111-2.111v-6.506a2.111,2.111,0,0,1,2.111-2.111h55.043a2.111,2.111,0,0,1,2.11,2.111v6.506a2.111,2.111,0,0,1-2.11,2.111" transform="translate(-89.042 -61.137)" fill="#f5f5f5"/>
                  <path id="Trazado_202808" data-name="Trazado 202808" d="M346.655,209.478c0-.012.12,0,.346-.05a2.095,2.095,0,0,0,1.7-1.819c.025-.65,0-1.427,0-2.286s-.01-1.823-.016-2.87q-.005-.787-.01-1.64a2.019,2.019,0,0,0-.711-1.48,1.963,1.963,0,0,0-.782-.407,3.4,3.4,0,0,0-.932-.068l-2.023.007-4.4.013-48.206.053a1.924,1.924,0,0,0-1.429.633,1.993,1.993,0,0,0-.5,1.488q0,1.744,0,3.463,0,.859,0,1.713v.852a2.748,2.748,0,0,0,.069.794,1.94,1.94,0,0,0,.927,1.184,1.9,1.9,0,0,0,.725.231c.244.021.544.008.815.012l12.8.01,21.672.039,14.611.058,3.973.034,1.033.017c.233.006.353.019.353.019s-.12.012-.353.019l-1.033.018-3.973.033-14.611.057-21.672.039-12.8.01c-.284,0-.54.012-.853-.014a2.242,2.242,0,0,1-.86-.273,2.3,2.3,0,0,1-1.1-1.4,3.035,3.035,0,0,1-.082-.888v-2.564q0-1.719,0-3.463a2.367,2.367,0,0,1,.6-1.731,2.292,2.292,0,0,1,1.7-.751l48.206.053,4.4.013,2.023.007a3.563,3.563,0,0,1,.987.082,2.157,2.157,0,0,1,.858.456,2.211,2.211,0,0,1,.767,1.629q0,.855,0,1.644c-.005,1.048-.011,2.007-.016,2.87s.006,1.623-.033,2.3a2.151,2.151,0,0,1-.839,1.445,2.057,2.057,0,0,1-.956.4,1.28,1.28,0,0,1-.353.013" transform="translate(-88.96 -61.057)" fill="#263238"/>
                  <path id="Trazado_202809" data-name="Trazado 202809" d="M545.077,358.437a28.316,28.316,0,1,0,28.721-27.9,28.316,28.316,0,0,0-28.721,27.9" transform="translate(-167.602 -101.632)" fill="#263238"/>
                  <path id="Trazado_202810" data-name="Trazado 202810" d="M545.082,370.722c0,.025,0,.049,0,.073a28.316,28.316,0,0,0,56.626.817c0-.025,0-.048,0-.073Z" transform="translate(-167.602 -113.991)" fill="#263238"/>
                  <path id="Trazado_202811" data-name="Trazado 202811" d="M557.258,362.3a19.88,19.88,0,1,0,20.164-19.591A19.88,19.88,0,0,0,557.258,362.3" transform="translate(-171.347 -105.378)" fill="#fafafa"/>
                  <path id="Trazado_202812" data-name="Trazado 202812" d="M577.423,342.713A19.879,19.879,0,0,0,557.259,362.3l39.755.573a19.88,19.88,0,0,0-19.591-20.165" transform="translate(-171.348 -105.378)" fill="#e0e0e0"/>
                  <path id="Trazado_202813" data-name="Trazado 202813" d="M568.477,365.867a12.11,12.11,0,1,0,12.283-11.934,12.109,12.109,0,0,0-12.283,11.934" transform="translate(-174.798 -108.828)" fill="#263238"/>
                  <path id="Trazado_202814" data-name="Trazado 202814" d="M557.813,310.966S586.8,302.2,598.8,333.694l-60.667,18.791Z" transform="translate(-165.466 -95.272)" fill="#4dd0e1"/>
                  <path id="Trazado_202815" data-name="Trazado 202815" d="M292.79,358.437a28.316,28.316,0,1,0,28.721-27.9,28.316,28.316,0,0,0-28.721,27.9" transform="translate(-90.027 -101.632)" fill="#263238"/>
                  <path id="Trazado_202816" data-name="Trazado 202816" d="M292.795,370.722c0,.025,0,.049,0,.073a28.316,28.316,0,0,0,56.626.817c0-.025,0-.048,0-.073Z" transform="translate(-90.027 -113.991)" fill="#263238"/>
                  <path id="Trazado_202817" data-name="Trazado 202817" d="M304.971,362.3a19.88,19.88,0,1,0,20.164-19.591A19.88,19.88,0,0,0,304.971,362.3" transform="translate(-93.773 -105.378)" fill="#fafafa"/>
                  <path id="Trazado_202818" data-name="Trazado 202818" d="M325.136,342.713A19.879,19.879,0,0,0,304.972,362.3l39.755.573a19.88,19.88,0,0,0-19.591-20.165" transform="translate(-93.774 -105.378)" fill="#e0e0e0"/>
                  <path id="Trazado_202819" data-name="Trazado 202819" d="M316.19,365.867a12.11,12.11,0,1,0,12.283-11.934,12.11,12.11,0,0,0-12.283,11.934" transform="translate(-97.223 -108.828)" fill="#263238"/>
                  <path id="Trazado_202820" data-name="Trazado 202820" d="M370.371,353.991c-.157.08-14.9-2.28-14.9-2.28a9.024,9.024,0,0,1-6.726,3.521c-6.368.305-12.6.585-17.989.827a9.132,9.132,0,0,0-8.715,9.51v.007a9.142,9.142,0,0,0,8.774,8.749l31.357,1.235c5.156.2,12.011-2.931,15.231-6.964Z" transform="translate(-99.019 -108.146)" fill="#455a64"/>
                  <path id="Trazado_202821" data-name="Trazado 202821" d="M280.588,303.615s-1.349-27.6,24.585-33.345v-3.538h90.85v8.437s-13.335,16.056-8.981,29.39,5.715,14.7,5.715,14.7h51.706a35.383,35.383,0,0,0,6.532-19.594c.272-11.7-4.591-31.712-8.22-44.5-3.3-11.631-5.387-21.355-5.387-21.355l15.512-5.17s28.7,37.529,29.875,39.639,5.159,7.035,4.221,17.821-26.731,44.083-33.531,47.835-12.9,3.986-18.993,4.924c-5.292.814-44.436.276-54.675.12a20.053,20.053,0,0,1-10.109-2.807c-3.062-1.857-5.365-4.929-7.906-9.974l-5.393-10.552Z" transform="translate(-86.273 -70.301)" fill="#4dd0e1"/>
                  <path id="Trazado_202822" data-name="Trazado 202822" d="M285.351,334.136,273.907,352.06a2.794,2.794,0,0,0,3.4,4.1,13.194,13.194,0,0,0,3.838-2.6c5.234-4.979,14.563-18.095,14.563-18.095Z" transform="translate(-84.084 -102.742)" fill="#455a64"/>
                  <path id="Trazado_202823" data-name="Trazado 202823" d="M374.314,324.925a1.569,1.569,0,0,1,.067-.261l.23-.753a19.637,19.637,0,0,0,.6-2.958,20.874,20.874,0,0,0-1.771-10.816,22.641,22.641,0,0,0-4.216-6.34,27.714,27.714,0,0,0-6.954-5.3,35.164,35.164,0,0,0-9.075-3.377,47.509,47.509,0,0,0-10.365-1.071,78.455,78.455,0,0,0-10.423.765c-3.351.451-6.569,1.007-9.6,1.7a56.661,56.661,0,0,0-15.41,5.7,38.311,38.311,0,0,0-8.807,6.72c-.913.943-1.569,1.727-2.007,2.262l-.492.615a1.514,1.514,0,0,1-.177.2,23.213,23.213,0,0,1,2.575-3.177,37.364,37.364,0,0,1,8.782-6.844,56.171,56.171,0,0,1,15.462-5.8c3.038-.7,6.263-1.267,9.623-1.724a78.189,78.189,0,0,1,10.471-.775,47.617,47.617,0,0,1,10.442,1.087,35.319,35.319,0,0,1,9.156,3.431,27.9,27.9,0,0,1,7.013,5.392,22.783,22.783,0,0,1,4.231,6.441,20.741,20.741,0,0,1,1.677,10.936,17.9,17.9,0,0,1-.669,2.962c-.112.313-.2.56-.265.744a1.5,1.5,0,0,1-.1.249" transform="translate(-90.991 -90.303)" fill="#263238"/>
                  <path id="Trazado_202824" data-name="Trazado 202824" d="M392.567,321.248c-.039-.015.152-.436.343-1.228a8.963,8.963,0,0,0,.1-3.431,14.189,14.189,0,0,0-1.688-4.81,17.041,17.041,0,0,0-1.674-2.519,15.381,15.381,0,0,0-2.251-2.332,19.858,19.858,0,0,0-5.4-3.161,25.228,25.228,0,0,0-4.958-1.355,32.857,32.857,0,0,0-3.457-.393,10.308,10.308,0,0,1-1.278-.1,1.162,1.162,0,0,1,.332-.031c.217,0,.539-.023.952-.011a26.248,26.248,0,0,1,3.491.282,24.03,24.03,0,0,1,5.039,1.3,19.651,19.651,0,0,1,5.515,3.194,15.431,15.431,0,0,1,2.3,2.389,16.878,16.878,0,0,1,1.69,2.58,14.019,14.019,0,0,1,1.648,4.935,8.555,8.555,0,0,1-.22,3.5,4.957,4.957,0,0,1-.329.9,1.153,1.153,0,0,1-.15.3" transform="translate(-114.478 -92.822)" fill="#f5f5f5"/>
                  <g id="Grupo_146723" data-name="Grupo 146723" transform="translate(260.298 204.251)" opacity="0.4">
                    <g id="Grupo_146722" data-name="Grupo 146722">
                      <g id="Grupo_146721" data-name="Grupo 146721" clip-path="url(#clip-path-6)">
                        <path id="Trazado_202825" data-name="Trazado 202825" d="M375.873,294.94a36.354,36.354,0,0,1,13.681,5.569,24.165,24.165,0,0,1,9.164,11.383c1.813,4.668,1.542,10.85-.366,14.716l6.419.531c2.162-7.206-.192-16.052-5.385-21.694a31.868,31.868,0,0,0-23.512-10.5" transform="translate(-375.873 -294.94)"/>
                      </g>
                    </g>
                  </g>
                  <path id="Trazado_202826" data-name="Trazado 202826" d="M345.347,262.092H289.188a5.941,5.941,0,0,1-5.941-5.941V219.479a5.941,5.941,0,0,1,5.941-5.941h56.159a5.941,5.941,0,0,1,5.941,5.941v36.671a5.941,5.941,0,0,1-5.941,5.941" transform="translate(-87.094 -65.66)" fill="#455a64"/>
                  <path id="Trazado_202827" data-name="Trazado 202827" d="M351.159,229.1c0,.1-15.3.18-34.164.18s-34.167-.08-34.167-.18,15.294-.18,34.167-.18,34.164.08,34.164.18" transform="translate(-86.965 -70.391)" fill="#263238"/>
                  <path id="Trazado_202828" data-name="Trazado 202828" d="M406.721,288.211c0,.1-20.419.18-45.6.18s-45.606-.08-45.606-.18,20.415-.18,45.606-.18,45.6.08,45.6.18" transform="translate(-97.016 -88.565)" fill="#263238"/>
                  <path id="Trazado_202829" data-name="Trazado 202829" d="M428.508,279.563a7.86,7.86,0,0,0,1.642-4.07c.143-2.282-.9-5.134-3.352-5.134H395.426a9.2,9.2,0,0,0-9.2,9.2Z" transform="translate(-118.757 -83.131)" fill="#455a64"/>
                  <path id="Trazado_202830" data-name="Trazado 202830" d="M504.307,222.431l-5.456-11.378a6.966,6.966,0,0,1,2.758-8.9l16.314-9.731a5.506,5.506,0,0,1,2.821-.778h3.526l1.412,23-5.439,2.08,3.442,5.6Z" transform="translate(-153.192 -58.928)" fill="#4dd0e1"/>
                  <path id="Trazado_202831" data-name="Trazado 202831" d="M535.914,192.85s5.582,1.28,6.284,9.885-4.923,11.283-4.923,11.283Z" transform="translate(-164.785 -59.298)" fill="#ebebeb"/>
                  <path id="Trazado_202832" data-name="Trazado 202832" d="M503.553,212.841s-11.284,5.348-12.661,6.225a2.625,2.625,0,0,0-1.026,3.55c1.278,3.2,6.555.19,6.555.19l10.5-5.251s4.039-1.907,2.549-4.291c-1.67-2.67-5.916-.423-5.916-.423" transform="translate(-150.536 -65.174)" fill="#263238"/>
                  <path id="Trazado_202833" data-name="Trazado 202833" d="M486.413,210.417s10.6,1.817,11.5,2.057,4.438,1.92,4.618,3a32.393,32.393,0,0,1,0,4.258s-.638.521-1.039-.519a10.691,10.691,0,0,1-.341-3.1l-1.979-.762,1.079,1.919.18,4.5s-1.382-.126-1.651-1.2a10.749,10.749,0,0,1-.264-2.276l-1.443-1.222,1.079,1.463.364,3.238s-1.053.341-1.384-.378a11.166,11.166,0,0,1-.359-2.86l-4.071-1.422-2.7,1.5-4.239-2.323Z" transform="translate(-149.365 -64.7)" fill="#ffbe9d"/>
                  <path id="Trazado_202834" data-name="Trazado 202834" d="M506.626,185.653c0,4.29-1.973,7.769-4.406,7.769s-4.406-3.479-4.406-7.769,1.973-7.769,4.406-7.769,4.406,3.479,4.406,7.769" transform="translate(-153.07 -54.697)" fill="#263238"/>
                  <path id="Trazado_202835" data-name="Trazado 202835" d="M505.222,196.127l2.42,8.388a2.171,2.171,0,0,0,1.126-2.476c-.607-2.873-.95-4.919-1.617-7.435-.081-.255-1.929,1.524-1.929,1.524" transform="translate(-155.348 -59.83)" fill="#263238"/>
                  <g id="Grupo_146726" data-name="Grupo 146726" transform="translate(298.728 159.706)" opacity="0.4">
                    <g id="Grupo_146725" data-name="Grupo 146725">
                      <g id="Grupo_146724" data-name="Grupo 146724" clip-path="url(#clip-path-7)">
                        <path id="Trazado_202836" data-name="Trazado 202836" d="M434.6,308.754c-.24-.691-.483-1.4-.715-2.125-.216-.677-.47-1.379-.654-2.051a22.152,22.152,0,0,1-.605-3.161c-4.084,16.633,2.152,28.345,12.862,29.168,15.647,1.2,34.724,2.078,42.441.053,14.065-3.692,19.226-15.418,20.457-17.352s12.42-22.381,5.563-42.073-18.806-40.6-18.806-40.6l-11.392,3.8s2.087,9.725,5.387,21.355c3.629,12.791,8.492,32.8,8.22,44.5a35.385,35.385,0,0,1-6.531,19.594H439.123s-1.107-1.111-4.519-11.111" transform="translate(-431.367 -230.617)"/>
                      </g>
                    </g>
                  </g>
                  <path id="Trazado_202837" data-name="Trazado 202837" d="M277.6,328.906l.364-3.945,94.377,10.873a9.323,9.323,0,0,1,8.094,10.884l-.424,2.392-97.677-14.194a5.556,5.556,0,0,1-4.734-6.01" transform="translate(-85.349 -99.92)" fill="#4dd0e1"/>
                  <g id="Grupo_146729" data-name="Grupo 146729" transform="translate(192.224 225.041)" opacity="0.6">
                    <g id="Grupo_146728" data-name="Grupo 146728">
                      <g id="Grupo_146727" data-name="Grupo 146727" clip-path="url(#clip-path-8)">
                        <path id="Trazado_202838" data-name="Trazado 202838" d="M277.6,328.906l.364-3.945,94.377,10.873a9.323,9.323,0,0,1,8.094,10.884l-.424,2.392-97.677-14.194a5.556,5.556,0,0,1-4.734-6.01" transform="translate(-277.573 -324.961)"/>
                      </g>
                    </g>
                  </g>
                  <g id="Grupo_146732" data-name="Grupo 146732" transform="translate(375.75 214.571)" opacity="0.3">
                    <g id="Grupo_146731" data-name="Grupo 146731">
                      <g id="Grupo_146730" data-name="Grupo 146730" clip-path="url(#clip-path-9)">
                        <path id="Trazado_202839" data-name="Trazado 202839" d="M542.587,350.66s20.776-22.851,25.059-40.817a40.445,40.445,0,0,1,6.435.477s-12.286,33.4-31.494,40.34" transform="translate(-542.587 -309.843)"/>
                      </g>
                    </g>
                  </g>
                  <path id="Trazado_202840" data-name="Trazado 202840" d="M566.88,298.216a3.6,3.6,0,0,1,.113.577c.054.382.167.942.237,1.672a25.771,25.771,0,0,1-.161,6.2,31.658,31.658,0,0,1-2.741,8.781,99.644,99.644,0,0,1-5.5,9.832,131.1,131.1,0,0,1-12.161,16.445c-1.692,2-3.087,3.59-4.057,4.686l-1.125,1.255a3.625,3.625,0,0,1-.411.422,3.561,3.561,0,0,1,.355-.469l1.073-1.3,3.968-4.758a141.607,141.607,0,0,0,12.048-16.468,104.126,104.126,0,0,0,5.508-9.787,32.122,32.122,0,0,0,2.79-8.68,27.346,27.346,0,0,0,.273-6.152c-.048-.728-.138-1.289-.169-1.672a3.547,3.547,0,0,1-.041-.588" transform="translate(-166.372 -91.697)" fill="#263238"/>
                  <path id="Trazado_202841" data-name="Trazado 202841" d="M523.633,365.76a55.7,55.7,0,0,1-6.4-6.269,55.691,55.691,0,0,1,6.4,6.269" transform="translate(-159.04 -110.537)" fill="#263238"/>
                  <path id="Trazado_202842" data-name="Trazado 202842" d="M437.439,365.1a13.863,13.863,0,0,1,3.708-5.466c.078.071-.869,1.206-1.886,2.712s-1.729,2.8-1.822,2.754" transform="translate(-134.503 -110.581)" fill="#263238"/>
                  <path id="Trazado_202843" data-name="Trazado 202843" d="M375.41,377.214a13.982,13.982,0,0,0,2.834-3.6,12.432,12.432,0,0,0,1.389-4.74,11,11,0,0,0-4.97-10.418,12.446,12.446,0,0,0-4.558-1.9,13.991,13.991,0,0,0-4.581-.062,1.084,1.084,0,0,1,.309-.093,7.2,7.2,0,0,1,.911-.177,10.867,10.867,0,0,1,3.408.082,12.358,12.358,0,0,1,4.7,1.878,11.168,11.168,0,0,1,5.116,10.724,12.365,12.365,0,0,1-1.495,4.831,10.859,10.859,0,0,1-2.082,2.7,7.17,7.17,0,0,1-.71.6,1.094,1.094,0,0,1-.267.181" transform="translate(-112.393 -109.502)" fill="#263238"/>
                  <path id="Trazado_202844" data-name="Trazado 202844" d="M329.859,373.17a30.986,30.986,0,0,1-.318-6.674,30.986,30.986,0,0,1,.318,6.674" transform="translate(-101.304 -112.692)" fill="#263238"/>
                  <path id="Trazado_202845" data-name="Trazado 202845" d="M333.255,373.171a31.567,31.567,0,0,1-.854-6.687,31.572,31.572,0,0,1,.854,6.687" transform="translate(-102.197 -112.688)" fill="#263238"/>
                  <path id="Trazado_202846" data-name="Trazado 202846" d="M367.1,283.57c0,.1-11.475.18-25.627.18s-25.629-.08-25.629-.18,11.472-.18,25.629-.18,25.627.08,25.627.18" transform="translate(-97.116 -87.138)" fill="#263238"/>
                  <path id="Trazado_202847" data-name="Trazado 202847" d="M336.117,257.534c-.1,0-.18-13.143-.18-29.35s.08-29.354.18-29.354.18,13.14.18,29.354-.08,29.35-.18,29.35" transform="translate(-103.295 -61.137)" fill="#263238"/>
                  <path id="Trazado_202848" data-name="Trazado 202848" d="M326.045,257.487c-.1,0,.392-13.14,1.1-29.335s1.358-29.326,1.458-29.322-.391,13.137-1.1,29.338-1.358,29.323-1.458,29.319" transform="translate(-100.25 -61.137)" fill="#263238"/>
                  <path id="Trazado_202849" data-name="Trazado 202849" d="M299.789,382a1.906,1.906,0,0,1-.3-.305c-.185-.212-.48-.509-.809-.932a26.863,26.863,0,0,1-2.555-3.755,28.718,28.718,0,0,1,.119-28.721,26.807,26.807,0,0,1,2.587-3.734c.332-.42.629-.715.816-.926a.216.216,0,1,1,.055.048c-.169.226-.447.533-.761.966a30.448,30.448,0,0,0-2.474,3.771,29.168,29.168,0,0,0-.118,28.472,30.562,30.562,0,0,0,2.443,3.792c.31.434.587.744.753.972a2.042,2.042,0,0,1,.249.353" transform="translate(-89.887 -105.567)" fill="#455a64"/>
                  <path id="Trazado_202850" data-name="Trazado 202850" d="M441.818,322.986l-.216.407-4.167,7.848-5.845,5.628,11.681,15.551L453,350.8s-1.093-2.222-5.977-2.651l-1.868-9.295,6.864-10.637" transform="translate(-132.707 -99.313)" fill="#455a64"/>
                  <path id="Trazado_202851" data-name="Trazado 202851" d="M431.59,342.5l11.681,15.55L453,356.438l-1.339-1.281-7.987.878L432.833,341.3Z" transform="translate(-132.707 -104.946)" fill="#e0e0e0"/>
                  <path id="Trazado_202852" data-name="Trazado 202852" d="M451.53,352.969c-.055.111-.67-.114-1.419.033-.753.125-1.249.551-1.341.466-.1-.058.348-.733,1.264-.893s1.573.3,1.5.395" transform="translate(-137.986 -108.4)" fill="#263238"/>
                  <path id="Trazado_202853" data-name="Trazado 202853" d="M450.705,349.462c-.086.085-.615-.418-1.416-.44s-1.362.436-1.443.346c-.04-.038.044-.22.294-.415a1.845,1.845,0,0,1,2.3.076c.235.21.308.4.265.433" transform="translate(-137.703 -107.185)" fill="#263238"/>
                  <path id="Trazado_202854" data-name="Trazado 202854" d="M450.2,345.087c-.1.071-.523-.436-1.24-.557s-1.289.2-1.356.1c-.034-.044.067-.2.319-.346a1.711,1.711,0,0,1,2.1.369c.188.224.229.4.182.435" transform="translate(-137.629 -105.798)" fill="#263238"/>
                  <path id="Trazado_202855" data-name="Trazado 202855" d="M453.472,340.992c-.109.06-.474-.448-1.144-.739-.661-.31-1.284-.248-1.311-.369-.052-.107.675-.4,1.49-.026s1.08,1.1.965,1.134" transform="translate(-138.68 -104.444)" fill="#263238"/>
                  <path id="Trazado_202856" data-name="Trazado 202856" d="M454.717,336.775c-.044.041-.43-.3-1.019-.877l-1.018-1.033a3.152,3.152,0,0,1-.582-.711.8.8,0,0,1-.039-.6.616.616,0,0,1,.537-.405,1.831,1.831,0,0,1,.987.321,3.3,3.3,0,0,1,1.448,1.9,1.834,1.834,0,0,1,0,1.366,10.924,10.924,0,0,0-.292-1.268,3.4,3.4,0,0,0-.743-1.142,3.137,3.137,0,0,0-.63-.487,1.577,1.577,0,0,0-.733-.255.176.176,0,0,0-.169.119.38.38,0,0,0,.02.28,3.237,3.237,0,0,0,.489.615l.949,1.1c.531.633.838,1.044.794,1.085" transform="translate(-138.989 -102.437)" fill="#263238"/>
                  <path id="Trazado_202857" data-name="Trazado 202857" d="M456.45,337.7c-.046,0-.094-.513.335-1.186a2.467,2.467,0,0,1,2.8-1,.456.456,0,0,1,.209.323.552.552,0,0,1-.066.328,1.512,1.512,0,0,1-.3.364,4.365,4.365,0,0,1-.622.508,4.27,4.27,0,0,1-1.221.571,1.99,1.99,0,0,1-1.221.087c-.006-.069.455-.112,1.122-.377a4.89,4.89,0,0,0,1.089-.607,4.56,4.56,0,0,0,.551-.481,1.236,1.236,0,0,0,.215-.261c.034-.093.025-.066.006-.09a.792.792,0,0,0-.3-.057,2.2,2.2,0,0,0-.371,0,2.439,2.439,0,0,0-.683.165,2.407,2.407,0,0,0-.962.707,9.173,9.173,0,0,0-.582,1" transform="translate(-140.325 -103.128)" fill="#263238"/>
                  <path id="Trazado_202858" data-name="Trazado 202858" d="M441.7,340.308a1.17,1.17,0,1,1-1.347-.962,1.17,1.17,0,0,1,1.347.962" transform="translate(-135.1 -104.339)" fill="#e0e0e0"/>
                  <path id="Trazado_202859" data-name="Trazado 202859" d="M497.56,332.971l3.123,20.28,25.251-3.757c-.507-2.39-14.291-5.289-14.291-5.289l-1.467-13.076Z" transform="translate(-152.992 -101.817)" fill="#455a64"/>
                  <path id="Trazado_202860" data-name="Trazado 202860" d="M506.122,350.071a1.043,1.043,0,0,0-.538,1.283,1,1,0,0,0,1.267.545,1.1,1.1,0,0,0,.562-1.362,1.039,1.039,0,0,0-1.381-.42" transform="translate(-155.44 -107.615)" fill="#e0e0e0"/>
                  <path id="Trazado_202861" data-name="Trazado 202861" d="M501.966,360.9l-.235-2.056,24.3-2.833s1.2.322,1.188,1.132Z" transform="translate(-154.275 -109.469)" fill="#e0e0e0"/>
                  <path id="Trazado_202862" data-name="Trazado 202862" d="M517.528,349.706c.014.124-.593.272-1.141.758s-.794,1.053-.915,1.021c-.117-.007-.043-.771.631-1.349s1.435-.547,1.425-.43" transform="translate(-158.486 -107.508)" fill="#263238"/>
                  <path id="Trazado_202863" data-name="Trazado 202863" d="M521.88,350.734c.046.116-.457.4-.8.988-.359.573-.38,1.153-.5,1.166-.113.037-.305-.673.132-1.391s1.15-.881,1.17-.764" transform="translate(-160.026 -107.835)" fill="#263238"/>
                  <path id="Trazado_202864" data-name="Trazado 202864" d="M525.268,354c-.108.043-.371-.548-.155-1.27s.753-1.077.82-.982c.085.091-.235.509-.4,1.105s-.141,1.116-.261,1.147" transform="translate(-161.439 -108.152)" fill="#263238"/>
                  <path id="Trazado_202865" data-name="Trazado 202865" d="M516.343,345.359c-.035.12-.626.034-1.316.185s-1.2.452-1.28.356c-.084-.079.377-.614,1.192-.78s1.451.134,1.4.24" transform="translate(-157.966 -106.103)" fill="#263238"/>
                  <path id="Trazado_202866" data-name="Trazado 202866" d="M514.184,340.591a2.4,2.4,0,0,1-1.266.181,5.715,5.715,0,0,1-1.383-.209,6.1,6.1,0,0,1-.784-.278,1.572,1.572,0,0,1-.426-.24.544.544,0,0,1-.154-.647.689.689,0,0,1,.5-.363,1.7,1.7,0,0,1,.484,0,4.567,4.567,0,0,1,.825.153,4.506,4.506,0,0,1,1.281.592c.667.455.935.886.9.916-.05.049-.393-.295-1.055-.654a5.1,5.1,0,0,0-1.222-.468,4.788,4.788,0,0,0-.758-.116c-.279-.03-.506,0-.557.131-.018.049-.019.067.048.137a1.3,1.3,0,0,0,.314.176,6.648,6.648,0,0,0,.724.282,6.991,6.991,0,0,0,1.293.287,8.912,8.912,0,0,1,1.242.125" transform="translate(-156.853 -104.242)" fill="#263238"/>
                  <path id="Trazado_202867" data-name="Trazado 202867" d="M515.532,339.732c-.041.026-.351-.38-.515-1.172a4.136,4.136,0,0,1,.174-2.226,1.057,1.057,0,0,1,.711-.759.6.6,0,0,1,.581.274,1.737,1.737,0,0,1,.2.445,2.834,2.834,0,0,1,.127.851,2.939,2.939,0,0,1-.346,1.387c-.4.728-.889.952-.905.911a10.452,10.452,0,0,0,.628-1.043,2.929,2.929,0,0,0,.224-1.248,2.638,2.638,0,0,0-.132-.727c-.079-.263-.212-.464-.308-.422-.126.017-.31.251-.381.481a4.173,4.173,0,0,0-.211.732,4.6,4.6,0,0,0-.058,1.3c.075.746.276,1.188.212,1.217" transform="translate(-158.336 -103.182)" fill="#263238"/>
                  <path id="Trazado_202868" data-name="Trazado 202868" d="M459.253,264.562,437.6,311.749l14.3,8.587,29.944-56.779" transform="translate(-134.554 -81.04)" fill="#263238"/>
                  <path id="Trazado_202869" data-name="Trazado 202869" d="M482.618,314.031l-15.54,2.492-9.3-55.5-45.946,3.331a11.144,11.144,0,0,1-3.623-.35c-12.906-3.537-11.159-19.989-9.915-22.627l63.582-1.826a13.538,13.538,0,0,1,13.8,11.655Z" transform="translate(-122.207 -73.658)" fill="#263238"/>
                  <path id="Trazado_202870" data-name="Trazado 202870" d="M395.718,216.5l.231-23.464s-3.028-15.256-3.924-21.253c-1.392-9.312-3.3-13.731,11.954-20.351l3.332-1.286,5.16.069c6.154.463,12.636,6.024,12.785,9.713l5.938,52.871Z" transform="translate(-120.26 -46.169)" fill="#feca2e"/>
                  <path id="Trazado_202871" data-name="Trazado 202871" d="M397.564,159.885s-4.3,9.264-3.443,17.7l16.042,15.4c3.6,4.006,8.1,5.707,13.848,6.056l33.2,3.629.922-8.686-31.583-8.951c-1.256-.231-1.884-1.544-2.847-2.384Z" transform="translate(-121.151 -49.162)" fill="#feca2e"/>
                  <path id="Trazado_202872" data-name="Trazado 202872" d="M395.4,163.217a2.322,2.322,0,0,1,.636-.426,7.653,7.653,0,0,1,2.145-.6,10.977,10.977,0,0,1,3.587.01,3.718,3.718,0,0,1,1.055.362,9.236,9.236,0,0,1,.976.668,24.341,24.341,0,0,1,1.94,1.7c1.333,1.24,2.588,2.812,4.064,4.4s3.091,3.3,4.845,5.1,3.644,3.672,5.672,5.61c1.017.965,2.067,1.947,3.174,2.911.562.46,1.118,1,1.651,1.506a3.963,3.963,0,0,0,1.864,1.092h.009l.008,0,31.588,8.931.146.042-.016.151c-.065.614-.136,1.279-.206,1.945-.245,2.309-.488,4.594-.716,6.741l-.019.179-.179-.02-14.052-1.542-6.65-.732-6.363-.643c-2.068-.226-4.08-.465-6.026-.749a27.025,27.025,0,0,1-5.578-1.3,20.6,20.6,0,0,1-4.7-2.524c-1.4-.976-2.682-2-3.881-3-4.744-4.05-8.228-7.668-10.645-10.134-1.2-1.242-2.118-2.218-2.734-2.883l-.695-.762c-.154-.173-.226-.269-.226-.269s.089.08.252.244l.719.738,2.779,2.837c2.445,2.436,5.956,6.027,10.706,10.04,1.2.988,2.478,2,3.876,2.964a20.379,20.379,0,0,0,4.648,2.473,26.828,26.828,0,0,0,5.523,1.264c1.941.277,3.951.51,6.016.731l6.362.629,6.652.722,14.055,1.53-.2.159c.228-2.147.47-4.432.715-6.741.071-.666.141-1.33.207-1.945l.13.192-31.577-8.97.017,0a4.258,4.258,0,0,1-2.022-1.175c-.558-.53-1.066-1.031-1.641-1.506-1.112-.972-2.16-1.96-3.177-2.93-2.024-1.948-3.909-3.837-5.657-5.639s-3.361-3.514-4.825-5.127-2.713-3.181-4.026-4.421a24.375,24.375,0,0,0-1.913-1.7,9.143,9.143,0,0,0-.951-.665,3.579,3.579,0,0,0-1.005-.355,11.038,11.038,0,0,0-3.543-.054,8,8,0,0,0-2.138.547,5.476,5.476,0,0,0-.658.38" transform="translate(-121.578 -49.827)" fill="#263238"/>
                  <path id="Trazado_202873" data-name="Trazado 202873" d="M407.346,115.84l1.612,22.84a7.121,7.121,0,0,0,14.209-.967c-.143-2.174-.272-3.954-.272-3.954s5.53-.859,5.6-6.388c.039-3.193-.511-10.439-.983-15.99a7.25,7.25,0,0,0-7.227-6.633h-3.339a10.231,10.231,0,0,0-9.6,11.093" transform="translate(-125.241 -32.208)" fill="#ffbe9d"/>
                  <path id="Trazado_202874" data-name="Trazado 202874" d="M426.63,145.614a12.857,12.857,0,0,1-7.207-2.048s1.7,3.979,7.22,3.481Z" transform="translate(-128.966 -44.144)" fill="#eb996e"/>
                  <path id="Trazado_202875" data-name="Trazado 202875" d="M433.984,124.267a.789.789,0,0,1-.761.8.755.755,0,0,1-.814-.712.789.789,0,0,1,.76-.8.756.756,0,0,1,.814.713" transform="translate(-132.959 -37.991)" fill="#263238"/>
                  <path id="Trazado_202876" data-name="Trazado 202876" d="M433.717,121.963c-.1.1-.7-.34-1.546-.337s-1.472.427-1.564.323c-.045-.046.055-.231.326-.429a2.168,2.168,0,0,1,1.252-.386,2.082,2.082,0,0,1,1.231.4c.261.2.35.387.3.433" transform="translate(-132.402 -37.246)" fill="#263238"/>
                  <path id="Trazado_202877" data-name="Trazado 202877" d="M422.465,124.267a.79.79,0,0,1-.761.8.755.755,0,0,1-.814-.712.79.79,0,0,1,.76-.8.756.756,0,0,1,.814.713" transform="translate(-129.417 -37.991)" fill="#263238"/>
                  <path id="Trazado_202878" data-name="Trazado 202878" d="M421.659,122.192c-.1.1-.7-.339-1.546-.337s-1.472.427-1.564.323c-.045-.046.053-.231.326-.429a2.168,2.168,0,0,1,1.252-.386,2.078,2.078,0,0,1,1.23.4c.261.2.35.387.3.433" transform="translate(-128.694 -37.317)" fill="#263238"/>
                  <path id="Trazado_202879" data-name="Trazado 202879" d="M427.32,128.515a5.62,5.62,0,0,1,1.38-.249c.217-.023.422-.066.459-.214a1.1,1.1,0,0,0-.145-.643l-.642-1.652a28.44,28.44,0,0,1-1.44-4.321,28.5,28.5,0,0,1,1.785,4.195c.214.58.42,1.133.614,1.662a1.252,1.252,0,0,1,.113.851.545.545,0,0,1-.357.317,1.446,1.446,0,0,1-.368.051,5.521,5.521,0,0,1-1.4,0" transform="translate(-131.272 -37.34)" fill="#263238"/>
                  <path id="Trazado_202880" data-name="Trazado 202880" d="M423.826,132.506c.138-.008.14.914.929,1.569s1.771.553,1.778.682c.013.057-.219.179-.634.19a2.3,2.3,0,0,1-1.484-.517,2,2,0,0,1-.72-1.315c-.035-.386.068-.614.131-.609" transform="translate(-130.277 -40.743)" fill="#263238"/>
                  <path id="Trazado_202881" data-name="Trazado 202881" d="M421.641,117.469c-.084.231-.932.122-1.929.242-1,.1-1.8.392-1.935.185-.06-.1.081-.316.405-.54a3.38,3.38,0,0,1,2.945-.325c.365.148.549.329.514.438" transform="translate(-128.456 -35.924)" fill="#263238"/>
                  <path id="Trazado_202882" data-name="Trazado 202882" d="M433.368,118.389c-.15.193-.735-.007-1.438-.017-.7-.034-1.3.13-1.437-.072-.06-.1.034-.292.294-.474a2.084,2.084,0,0,1,2.316.072c.249.2.33.4.265.491" transform="translate(-132.364 -36.132)" fill="#263238"/>
                  <path id="Trazado_202883" data-name="Trazado 202883" d="M408.421,126.68c-.094-.041-3.8-1.123-3.678,2.656s3.891,2.879,3.893,2.77-.215-5.426-.215-5.426" transform="translate(-124.451 -38.898)" fill="#ffbe9d"/>
                  <path id="Trazado_202884" data-name="Trazado 202884" d="M407.863,131.26c-.017-.012-.064.048-.174.1a.66.66,0,0,1-.492.026,1.629,1.629,0,0,1-.8-1.438,2.18,2.18,0,0,1,.154-.949.758.758,0,0,1,.479-.521.334.334,0,0,1,.394.168c.054.1.033.18.053.186s.08-.066.044-.221a.419.419,0,0,0-.156-.232A.5.5,0,0,0,407,128.3a.925.925,0,0,0-.669.608,2.231,2.231,0,0,0-.195,1.061,1.709,1.709,0,0,0,1.012,1.6.7.7,0,0,0,.6-.12c.114-.1.131-.182.118-.188" transform="translate(-124.879 -39.448)" fill="#eb996e"/>
                  <path id="Trazado_202885" data-name="Trazado 202885" d="M406.722,119.527a1.987,1.987,0,0,1,1.819.932c.246.54.3,1.152.545,1.692a1.337,1.337,0,0,0,1.376.892,1.165,1.165,0,0,0,.788-.863,3.205,3.205,0,0,0,.011-1.219c-.223-1.765-.594-3.515-.665-5.293a9.076,9.076,0,0,1,1.116-5.139,4.967,4.967,0,0,1,4.421-2.485c1.175.095,2.252.707,3.419.87a4.616,4.616,0,0,0,3.836-1.28c.127-.126.717-.515.717-.515a2.179,2.179,0,0,0-.4-1.169c-2.315-2.141-6.487-2.738-9.545-1.969a11.029,11.029,0,0,0-7.24,5.794c-1.316,2.866-.926,6.852-.2,9.752" transform="translate(-124.856 -31.874)" fill="#263238"/>
                  <path id="Trazado_202886" data-name="Trazado 202886" d="M426.926,109.73s-14.5-4.666-20.777,7.882a23.525,23.525,0,0,1-.938-4.823,10.761,10.761,0,0,1,7.562-9.926s10.379-3.961,14.153,6.868" transform="translate(-124.596 -31.411)" fill="#feca2e"/>
                  <path id="Trazado_202887" data-name="Trazado 202887" d="M418.448,112.392a3.155,3.155,0,0,0,5.022.457,1.86,1.86,0,0,0,3.516-.185,4.2,4.2,0,0,0,1.411,1.03,1.44,1.44,0,0,0,1.611-.337,1.407,1.407,0,0,0-.1-1.663,3.428,3.428,0,0,0-1.47-.99,10.624,10.624,0,0,0-5.473-.83,7.372,7.372,0,0,0-4.8,2.613" transform="translate(-128.58 -33.761)" fill="#263238"/>
                  <g id="Grupo_146735" data-name="Grupo 146735" transform="translate(280.615 70.745)" opacity="0.4">
                    <g id="Grupo_146734" data-name="Grupo 146734">
                      <g id="Grupo_146733" data-name="Grupo 146733" clip-path="url(#clip-path-10)">
                        <path id="Trazado_202888" data-name="Trazado 202888" d="M426.926,109.73a6.74,6.74,0,0,0-4.612-2.094,18.219,18.219,0,0,0-16.165,9.976,23.525,23.525,0,0,1-.938-4.823,10.761,10.761,0,0,1,7.562-9.926s10.379-3.961,14.153,6.868" transform="translate(-405.211 -102.156)"/>
                      </g>
                    </g>
                  </g>
                  <path id="Trazado_202889" data-name="Trazado 202889" d="M407.44,116.279a27.31,27.31,0,0,1,8.449-8.093,53.33,53.33,0,0,1,12.646-5.152,8.276,8.276,0,0,1,3.492-.366,3.15,3.15,0,0,1,2.59,2.119c.362,1.433-2.181,3.643-3.375,4.512a39.2,39.2,0,0,1-3.631,2.144s.033-2.657-4.219-3.2c-5.784-.744-15.952,8.04-15.952,8.04" transform="translate(-125.281 -31.547)" fill="#feca2e"/>
                  <g id="Grupo_146738" data-name="Grupo 146738" transform="translate(277.054 131.856)" opacity="0.3">
                    <g id="Grupo_146737" data-name="Grupo 146737">
                      <g id="Grupo_146736" data-name="Grupo 146736" clip-path="url(#clip-path-11)">
                        <path id="Trazado_202890" data-name="Trazado 202890" d="M400.069,190.4c1.494,3.61,3,8.059,5.17,11.311a20.134,20.134,0,0,0,8.669,7.639,18.692,18.692,0,0,0,14.379.256c.367-.158,1.086-.359,1.02-.753,0,0-1.492-.168-1.95-.245-9.1-1.535-10.085-2.658-14.44-6.1-2.714-2.145-8.732-8.633-12.848-12.108" transform="translate(-400.069 -190.402)"/>
                      </g>
                    </g>
                  </g>
                  <path id="Trazado_202891" data-name="Trazado 202891" d="M432.711,228.341a3.674,3.674,0,0,1-.378.843,10.573,10.573,0,0,1-1.471,2.051,15.866,15.866,0,0,1-7.046,4.311,32.06,32.06,0,0,1-8.2,1.229c-1.06.039-1.918.048-2.51.045a4.45,4.45,0,0,1-.921-.042,4.625,4.625,0,0,1,.917-.1l2.5-.159a35.781,35.781,0,0,0,8.107-1.319,16.452,16.452,0,0,0,6.967-4.141,17.783,17.783,0,0,0,2.036-2.721" transform="translate(-126.74 -70.211)" fill="#263238"/>
                  <path id="Trazado_202892" data-name="Trazado 202892" d="M481.881,327.637a1.043,1.043,0,0,1-.055-.215c-.032-.163-.073-.373-.125-.636-.107-.585-.256-1.408-.446-2.456-.376-2.159-.912-5.242-1.573-9.042l-5.057-29.855c-.88-5.273-1.721-10.318-2.489-14.921l.179.141L452.437,272.1l-5.709.388-1.521.089-.392.016a.468.468,0,0,1-.134,0,.477.477,0,0,1,.132-.024l.39-.044,1.517-.143,5.7-.484,19.869-1.584.154-.012.026.153c.775,4.6,1.624,9.645,2.511,14.916,1.933,11.655,3.682,22.207,4.953,29.873.613,3.808,1.112,6.9,1.461,9.062.161,1.053.289,1.879.379,2.467.037.267.066.479.09.643a1,1,0,0,1,.018.221" transform="translate(-136.733 -83.114)" fill="#455a64"/>
                  <path id="Trazado_202893" data-name="Trazado 202893" d="M489.084,263.418c.065.082-1.145,1.122-2.518,2.521s-2.4,2.622-2.481,2.558a16.627,16.627,0,0,1,5-5.08" transform="translate(-148.847 -80.996)" fill="#455a64"/>
                  <path id="Trazado_202894" data-name="Trazado 202894" d="M423.478,152.992c.012,0,.04.074.084.226a3.907,3.907,0,0,1,.132.679,5.641,5.641,0,0,1-.337,2.517,6.481,6.481,0,0,1-2.281,3,6.9,6.9,0,0,1-4.443,1.186,7.986,7.986,0,0,1-4.314-1.616,9.316,9.316,0,0,1-2.452-2.86,10,10,0,0,1-.938-2.356,6.355,6.355,0,0,1-.136-.674c-.023-.156-.029-.238-.017-.24a15.739,15.739,0,0,0,1.313,3.143,9.42,9.42,0,0,0,2.43,2.722,7.8,7.8,0,0,0,4.139,1.523,6.677,6.677,0,0,0,4.228-1.1,6.376,6.376,0,0,0,2.234-2.815,5.964,5.964,0,0,0,.436-2.416c-.024-.587-.113-.907-.076-.916" transform="translate(-125.69 -46.999)" fill="#263238"/>
                  <path id="Trazado_202895" data-name="Trazado 202895" d="M443.151,188.486a2.9,2.9,0,0,1-.148-.722q-.115-.82-.28-1.981l-.85-6.546c-.314-2.56-.56-4.883-.711-6.566-.076-.842-.13-1.524-.158-2a2.9,2.9,0,0,1-.008-.737,2.875,2.875,0,0,1,.148.722l.271,1.983c.219,1.765.5,4.037.816,6.551.314,2.558.585,4.877.746,6.56.081.841.137,1.524.166,2a2.882,2.882,0,0,1,.008.737" transform="translate(-135.594 -52.253)" fill="#263238"/>
                </g>
              </g>
            </g>
          </g>
        </g>
      </g>
    </g>
  </g>
</svg>
