<svg xmlns="http://www.w3.org/2000/svg" width="170" height="170" viewBox="0 0 170 170">
  <g id="Grupo_222364" data-name="Grupo 222364" transform="translate(7244.714 -6168)">
    <g id="Grupo_222363" data-name="Grupo 222363">
      <g id="Grupo_222362" data-name="Grupo 222362">
        <g id="Grupo_222232" data-name="Grupo 222232" transform="translate(-8201.629 -11842.139)">
          <g id="Grupo_109192" data-name="Grupo 109192" transform="translate(956.915 18010.139)">
            <circle id="Elipse_4809" data-name="Elipse 4809" cx="85" cy="85" r="85" fill="#0f2771"/>
          </g>
          <g id="Grupo_210383" data-name="Grupo 210383" transform="translate(984.29 18042.576)">
            <path id="Trazado_221537" data-name="Trazado 221537" d="M279.569,159.4a28.243,28.243,0,1,1,28.242-28.242A28.275,28.275,0,0,1,279.569,159.4Zm0-52.517a24.275,24.275,0,1,0,24.275,24.275A24.3,24.3,0,0,0,279.569,106.879Z" transform="translate(-221.457 -78.582)" fill="#fff"/>
            <path id="Trazado_221538" data-name="Trazado 221538" d="M275.794,148.431a21.051,21.051,0,1,1,0-42.1,1.984,1.984,0,0,1,0,3.969,17.077,17.077,0,1,0,10.178,3.361,1.983,1.983,0,1,1,2.365-3.184,21.052,21.052,0,0,1-12.544,37.957Z" transform="translate(-217.682 -74.808)" fill="#fff"/>
            <path id="Trazado_221539" data-name="Trazado 221539" d="M263.244,133.408a1.988,1.988,0,0,1-1.984-1.984V112.994a1.984,1.984,0,0,1,2.967-1.723l16.15,9.215a1.984,1.984,0,0,1,0,3.445l-16.148,9.217A2,2,0,0,1,263.244,133.408Zm1.984-17v11.6l10.162-5.8Z" transform="translate(-210.485 -69.638)" fill="#fff"/>
            <path id="Trazado_221540" data-name="Trazado 221540" d="M281.095,121.348a1.983,1.983,0,0,1-1.982-1.982v-4.937h-.739a6.073,6.073,0,0,1-6.067-6.067V97.416a6.073,6.073,0,0,1,6.067-6.067H308.44a6.075,6.075,0,0,1,6.069,6.067v10.947a6.075,6.075,0,0,1-6.069,6.067H289.577l-7.157,6.414A1.988,1.988,0,0,1,281.095,121.348Zm-2.721-26.03a2.1,2.1,0,0,0-2.1,2.1v10.947a2.1,2.1,0,0,0,2.1,2.1H281.1a1.987,1.987,0,0,1,1.984,1.984v2.477l4.413-3.954a1.984,1.984,0,0,1,1.324-.507H308.44a2.1,2.1,0,0,0,2.1-2.1V97.416a2.1,2.1,0,0,0-2.1-2.1Z" transform="translate(-198.286 -91.349)" fill="#fff"/>
            <path id="Trazado_221541" data-name="Trazado 221541" d="M286.046,98.26a2.435,2.435,0,1,1-2.435-2.435A2.435,2.435,0,0,1,286.046,98.26Z" transform="translate(-188.491 -86.406)" fill="#fff"/>
            <path id="Trazado_221542" data-name="Trazado 221542" d="M290.433,98.26A2.435,2.435,0,1,1,288,95.825,2.435,2.435,0,0,1,290.433,98.26Z" transform="translate(-183.647 -86.406)" fill="#fff"/>
            <path id="Trazado_221543" data-name="Trazado 221543" d="M276.791,98.26a2.435,2.435,0,1,0,2.435-2.435A2.435,2.435,0,0,0,276.791,98.26Z" transform="translate(-193.335 -86.406)" fill="#fff"/>
            <path id="Trazado_221544" data-name="Trazado 221544" d="M270.545,121.348a1.988,1.988,0,0,1-1.326-.505l-7.155-6.414H243.2a6.075,6.075,0,0,1-6.069-6.067V97.416a6.075,6.075,0,0,1,6.069-6.067h30.066a6.075,6.075,0,0,1,6.069,6.067v10.947a6.075,6.075,0,0,1-6.069,6.067h-.736v4.937a1.986,1.986,0,0,1-1.984,1.982ZM243.2,95.318a2.1,2.1,0,0,0-2.1,2.1v10.947a2.1,2.1,0,0,0,2.1,2.1h19.623a1.986,1.986,0,0,1,1.326.507l4.413,3.954v-2.477a1.985,1.985,0,0,1,1.984-1.984h2.721a2.1,2.1,0,0,0,2.1-2.1V97.416a2.1,2.1,0,0,0-2.1-2.1Z" transform="translate(-237.131 -91.349)" fill="#fff"/>
            <path id="Trazado_221545" data-name="Trazado 221545" d="M246,98.26a2.435,2.435,0,1,0,2.435-2.435A2.435,2.435,0,0,0,246,98.26Z" transform="translate(-227.335 -86.406)" fill="#fff"/>
            <path id="Trazado_221546" data-name="Trazado 221546" d="M241.616,98.26a2.434,2.434,0,1,0,2.435-2.435A2.435,2.435,0,0,0,241.616,98.26Z" transform="translate(-232.178 -86.406)" fill="#fff"/>
            <path id="Trazado_221547" data-name="Trazado 221547" d="M255.256,98.26a2.434,2.434,0,1,1-2.433-2.435A2.434,2.434,0,0,1,255.256,98.26Z" transform="translate(-222.49 -86.406)" fill="#fff"/>
            <path id="Trazado_221548" data-name="Trazado 221548" d="M273.266,157.058H243.2a6.076,6.076,0,0,1-6.069-6.069V140.045a6.076,6.076,0,0,1,6.069-6.069h18.865l7.155-6.412a1.985,1.985,0,0,1,3.31,1.477v4.935h.736a6.076,6.076,0,0,1,6.069,6.069V150.99A6.076,6.076,0,0,1,273.266,157.058ZM243.2,137.945a2.1,2.1,0,0,0-2.1,2.1V150.99a2.1,2.1,0,0,0,2.1,2.1h30.066a2.1,2.1,0,0,0,2.1-2.1V140.045a2.1,2.1,0,0,0-2.1-2.1h-2.721a1.984,1.984,0,0,1-1.984-1.984v-2.477l-4.413,3.956a1.994,1.994,0,0,1-1.326.505Z" transform="translate(-237.131 -51.915)" fill="#fff"/>
            <path id="Trazado_221549" data-name="Trazado 221549" d="M246,136.959a2.435,2.435,0,1,1,2.435,2.435A2.435,2.435,0,0,1,246,136.959Z" transform="translate(-227.335 -43.671)" fill="#fff"/>
            <path id="Trazado_221550" data-name="Trazado 221550" d="M241.616,136.959a2.434,2.434,0,1,1,2.435,2.435A2.435,2.435,0,0,1,241.616,136.959Z" transform="translate(-232.178 -43.671)" fill="#fff"/>
            <path id="Trazado_221551" data-name="Trazado 221551" d="M255.256,136.959a2.434,2.434,0,1,0-2.433,2.435A2.434,2.434,0,0,0,255.256,136.959Z" transform="translate(-222.49 -43.671)" fill="#fff"/>
            <path id="Trazado_221552" data-name="Trazado 221552" d="M308.44,157.058H278.374a6.075,6.075,0,0,1-6.067-6.069V140.045a6.075,6.075,0,0,1,6.067-6.069h.739v-4.935a1.983,1.983,0,0,1,3.308-1.477l7.157,6.412H308.44a6.076,6.076,0,0,1,6.069,6.069V150.99A6.076,6.076,0,0,1,308.44,157.058Zm-30.066-19.113a2.1,2.1,0,0,0-2.1,2.1V150.99a2.1,2.1,0,0,0,2.1,2.1H308.44a2.1,2.1,0,0,0,2.1-2.1V140.045a2.1,2.1,0,0,0-2.1-2.1H288.817a1.993,1.993,0,0,1-1.324-.505l-4.413-3.956v2.477a1.985,1.985,0,0,1-1.984,1.984Z" transform="translate(-198.286 -51.915)" fill="#fff"/>
            <path id="Trazado_221553" data-name="Trazado 221553" d="M286.046,136.959a2.435,2.435,0,1,0-2.435,2.435A2.435,2.435,0,0,0,286.046,136.959Z" transform="translate(-188.491 -43.671)" fill="#fff"/>
            <path id="Trazado_221554" data-name="Trazado 221554" d="M290.433,136.959A2.435,2.435,0,1,0,288,139.393,2.435,2.435,0,0,0,290.433,136.959Z" transform="translate(-183.647 -43.671)" fill="#fff"/>
            <path id="Trazado_221555" data-name="Trazado 221555" d="M276.791,136.959a2.435,2.435,0,1,1,2.435,2.435A2.435,2.435,0,0,1,276.791,136.959Z" transform="translate(-193.335 -43.671)" fill="#fff"/>
          </g>
        </g>
      </g>
    </g>
  </g>
</svg>
