<svg xmlns="http://www.w3.org/2000/svg" width="327" height="312.406" viewBox="0 0 327 312.406">
  <g id="Grupo_222375" data-name="Grupo 222375" transform="translate(7367 -9895.012)">
    <g id="Grupo_222374" data-name="Grupo 222374">
      <g id="Grupo_184305" data-name="Grupo 184305" transform="translate(-7652 8171.012)">
        <rect id="Rectángulo_40609" data-name="Rectángulo 40609" width="327" height="311.958" rx="19" transform="translate(285 1724.406)" fill="#ffe595"/>
        <text id="Mapa_de_proceso_de_alto_nivel:_representación_de_un_proceso_que_involucra_las_interacciones_entre_proveedor_entradas_procesos_salidas_y_clientes." data-name="Mapa de proceso de alto nivel: representación de un proceso que involucra las interacciones entre proveedor, entradas, procesos, salidas y clientes." transform="translate(304 1913.406)" fill="#12263f" font-size="16" font-family="Roboto-Bold, Roboto" font-weight="700"><tspan x="34.48" y="17">Mapa de proceso de alto nivel: </tspan><tspan x="23.289" y="41" font-family="Roboto-Regular, Roboto" font-weight="400">representación de un proceso que </tspan><tspan x="29.488" y="65" font-family="Roboto-Regular, Roboto" font-weight="400">involucra las interacciones entre </tspan><tspan x="2.887" y="89" font-family="Roboto-Regular, Roboto" font-weight="400">proveedor, entradas, procesos, salidas y </tspan><tspan x="114.195" y="113" font-family="Roboto-Regular, Roboto" font-weight="400">clientes.</tspan></text>
        <path id="Rectángulo_44883" data-name="Rectángulo 44883" d="M20,0H307a20,20,0,0,1,20,20V178a0,0,0,0,1,0,0H0a0,0,0,0,1,0,0V20A20,20,0,0,1,20,0Z" transform="translate(285 1724)" fill="#4dd0e1"/>
        <g id="Grupo_222268" data-name="Grupo 222268" transform="translate(372 1735.619)">
          <path id="Trazado_226044" data-name="Trazado 226044" d="M196.916,191.375l4.824-14.5,6,2.264a9.788,9.788,0,0,1,6.4,9.205v10.41H160v-10.41a9.788,9.788,0,0,1,6.4-9.205l6-2.264,4.824,14.5,9.844-4.922Z" transform="translate(-110.778 -122.464)" fill="#0f2771"/>
          <path id="Trazado_226045" data-name="Trazado 226045" d="M262.668,170.732l-4.824,14.5L248,180.305,255.383,168Z" transform="translate(-171.706 -116.317)" fill="#e6e9ed"/>
          <path id="Trazado_226046" data-name="Trazado 226046" d="M207.6,168l7.383,12.305-9.844,4.922-4.824-14.5Z" transform="translate(-138.694 -116.317)" fill="#e6e9ed"/>
          <g id="Grupo_222264" data-name="Grupo 222264" transform="translate(56.605 19.689)">
            <path id="Trazado_226047" data-name="Trazado 226047" d="M231.383,154.461c1.526,0,2.978-.27,7.383-2.461v4.922l-7.383,12.305L224,156.922V152A12.164,12.164,0,0,0,231.383,154.461Z" transform="translate(-211.695 -124.928)" fill="#f0d0b4"/>
            <path id="Trazado_226048" data-name="Trazado 226048" d="M294.829,87.383a7.373,7.373,0,0,1-7.383,7.383l-.246-.024a11.323,11.323,0,0,0,.246-2.437V80a7.393,7.393,0,0,1,7.383,7.383Z" transform="translate(-255.451 -75.078)" fill="#f0d0b4"/>
            <path id="Trazado_226049" data-name="Trazado 226049" d="M232.611,68.922V81.228a11.323,11.323,0,0,1-.246,2.437,12.3,12.3,0,0,1-3.347,6.275,11.55,11.55,0,0,1-1.329,1.132c-4.405,2.191-5.857,2.461-7.383,2.461a12.164,12.164,0,0,1-7.383-2.461,12.34,12.34,0,0,1-4.676-7.407A11.322,11.322,0,0,1,208,81.228V68.922h.418A16.824,16.824,0,0,0,220.305,64a16.824,16.824,0,0,0,11.887,4.922Z" transform="translate(-200.617 -64)" fill="#f0d0b4"/>
            <path id="Trazado_226050" data-name="Trazado 226050" d="M191.383,92.305a11.323,11.323,0,0,0,.246,2.437l-.246.024a7.383,7.383,0,1,1,0-14.767Z" transform="translate(-184 -75.078)" fill="#f0d0b4"/>
          </g>
          <path id="Trazado_226051" data-name="Trazado 226051" d="M223.378,27.689v9.844a7.393,7.393,0,0,0-7.383-7.383h-.418a16.824,16.824,0,0,1-11.887-4.922A16.824,16.824,0,0,1,191.8,30.15h-.418A7.373,7.373,0,0,0,184,37.533V27.689a19.689,19.689,0,1,1,39.378,0Z" transform="translate(-127.395 -5.539)" fill="#feca2e"/>
          <path id="Trazado_226052" data-name="Trazado 226052" d="M343.988,304.611v14.767l-6.5,1.649c-.32.886-.688,1.747-1.083,2.609l3.421,5.759-10.435,10.435-5.759-3.421c-.862.394-1.723.763-2.609,1.083l-1.649,6.5H304.611l-1.649-6.5c-.886-.32-1.747-.688-2.609-1.083l-5.759,3.421-10.435-10.435,3.421-5.759c-.394-.862-.763-1.723-1.083-2.609l-6.5-1.649V304.611l6.5-1.649c.32-.886.688-1.747,1.083-2.609l-3.421-5.759,10.435-10.435,5.759,3.421c.862-.394,1.723-.763,2.609-1.083l1.649-6.5h14.767l1.649,6.5c.886.32,1.747.688,2.609,1.083l5.759-3.421,10.435,10.435-3.421,5.759c.394.862.763,1.723,1.083,2.609Zm-14.767,7.383a17.228,17.228,0,1,0-17.228,17.228A17.215,17.215,0,0,0,329.222,311.994Z" transform="translate(-193.862 -193.862)" fill="#feca2e"/>
          <path id="Trazado_226053" data-name="Trazado 226053" d="M345.228,328A17.228,17.228,0,1,1,328,345.228,17.215,17.215,0,0,1,345.228,328Zm7.383,17.228a7.383,7.383,0,1,0-7.383,7.383A7.373,7.373,0,0,0,352.611,345.228Z" transform="translate(-227.095 -227.095)" fill="#ffeaa7"/>
          <path id="Trazado_226054" data-name="Trazado 226054" d="M8,296H52.3v59.066H8Z" transform="translate(-5.539 -204.939)" fill="#e8e8e8"/>
          <path id="Trazado_226055" data-name="Trazado 226055" d="M340.911,315.748V297.16l-7.12-1.819c-.049-.12-.1-.24-.15-.359l3.748-6.317L324.244,275.52l-6.317,3.748c-.121-.052-.242-.1-.359-.15L315.748,272H297.16l-1.819,7.12c-.12.049-.24.1-.359.15l-6.317-3.748L275.52,288.667l3.748,6.317c-.052.121-.1.241-.15.359L272,297.163v18.588l7.12,1.819c.049.12.1.24.15.359l-3.748,6.317,13.144,13.144,6.317-3.748c.121.052.241.1.359.15l1.819,7.118h18.588l1.819-7.12c.12-.049.24-.1.359-.15l6.317,3.748,13.144-13.144-3.748-6.317c.052-.121.1-.242.15-.359Zm-9.7,7.721-7.738,7.738-5.26-3.121-1.184.566a24.583,24.583,0,0,1-2.346.972l-1.24.44-1.51,5.924H300.984l-1.51-5.924-1.24-.44a23.271,23.271,0,0,1-2.346-.972l-1.183-.566-5.26,3.121-7.738-7.738,3.121-5.26-.566-1.184a24.661,24.661,0,0,1-.972-2.346l-.44-1.24-5.927-1.51V300.984l5.924-1.51.44-1.24a23.25,23.25,0,0,1,.972-2.346l.566-1.183-3.121-5.26,7.738-7.738,5.26,3.121,1.184-.566a24.663,24.663,0,0,1,2.346-.972l1.24-.44,1.51-5.927h10.945l1.51,5.924,1.24.44a23.184,23.184,0,0,1,2.346.972l1.184.566,5.26-3.121,7.738,7.738-3.121,5.26.566,1.184a24.655,24.655,0,0,1,.972,2.346l.44,1.24,5.927,1.51v10.945l-5.924,1.51-.44,1.24a23.2,23.2,0,0,1-.972,2.346l-.566,1.184Z" transform="translate(-188.323 -188.323)"/>
          <path id="Trazado_226056" data-name="Trazado 226056" d="M339.689,320a19.689,19.689,0,1,0,19.689,19.689A19.711,19.711,0,0,0,339.689,320Zm0,34.455a14.767,14.767,0,1,1,14.767-14.767A14.781,14.781,0,0,1,339.689,354.455Z" transform="translate(-221.556 -221.556)"/>
          <path id="Trazado_226057" data-name="Trazado 226057" d="M361.844,352a9.844,9.844,0,1,0,9.844,9.844A9.854,9.854,0,0,0,361.844,352Zm0,14.767a4.922,4.922,0,1,1,4.922-4.922A4.927,4.927,0,0,1,361.844,366.767Z" transform="translate(-243.712 -243.712)"/>
          <path id="Trazado_226058" data-name="Trazado 226058" d="M167.567,41.672a14.788,14.788,0,0,0,4.122,6.221V49.98l-11.7,4.388A12.359,12.359,0,0,0,152,65.888V78.755h59.066V65.888a12.366,12.366,0,0,0-7.984-11.523l-11.7-4.388V47.893a14.76,14.76,0,0,0,4.122-6.221,9.841,9.841,0,0,0,8.184-9.677V22.15a22.15,22.15,0,1,0-44.3,0v9.844A9.841,9.841,0,0,0,167.567,41.672ZM186.455,51l-4.922,8.2L176.611,51v-.18a14.489,14.489,0,0,0,9.844,0Zm-13.362,3.706,4.962,8.267-4.929,2.464-3.185-9.549Zm33.051,11.181v7.944H156.922V65.888a7.417,7.417,0,0,1,4.791-6.914l3.618-1.355,4.92,14.762,11.282-5.641,11.282,5.641,4.92-14.762,3.621,1.358A7.413,7.413,0,0,1,206.144,65.888Zm-13.019-10L189.94,65.44l-4.929-2.464,4.962-8.269Zm-11.592-9.128a9.854,9.854,0,0,1-9.844-9.844V26.9a19.051,19.051,0,0,0,9.844-3.928,19.03,19.03,0,0,0,9.844,3.928V36.916A9.854,9.854,0,0,1,181.533,46.761ZM196.3,36.233V27.758a4.878,4.878,0,0,1,0,8.474ZM181.533,4.922A17.249,17.249,0,0,1,198.761,22.15v1.369a9.737,9.737,0,0,0-4.922-1.369h-.423a14.243,14.243,0,0,1-10.142-4.2l-1.74-1.742-1.74,1.742a14.247,14.247,0,0,1-10.142,4.2h-.423a9.737,9.737,0,0,0-4.922,1.369V22.15A17.249,17.249,0,0,1,181.533,4.922ZM166.767,27.756V36.23a4.878,4.878,0,0,1,0-8.474Z" transform="translate(-105.239)"/>
          <path id="Trazado_226059" data-name="Trazado 226059" d="M0,351.988H49.222V288H0Zm4.922-59.066H44.3v54.144H4.922Z" transform="translate(0 -199.401)"/>
          <path id="Trazado_226060" data-name="Trazado 226060" d="M32,320H61.533v4.922H32Z" transform="translate(-22.156 -221.556)"/>
          <path id="Trazado_226061" data-name="Trazado 226061" d="M32,352h4.922v4.922H32Z" transform="translate(-22.156 -243.712)"/>
          <path id="Trazado_226062" data-name="Trazado 226062" d="M64,352H83.689v4.922H64Z" transform="translate(-44.311 -243.712)"/>
          <path id="Trazado_226063" data-name="Trazado 226063" d="M32,384H61.533v4.922H32Z" transform="translate(-22.156 -265.867)"/>
          <path id="Trazado_226064" data-name="Trazado 226064" d="M32,416H61.533v4.922H32Z" transform="translate(-22.156 -288.023)"/>
          <path id="Trazado_226065" data-name="Trazado 226065" d="M112,448h4.922v4.922H112Z" transform="translate(-77.545 -310.179)"/>
          <path id="Trazado_226066" data-name="Trazado 226066" d="M32,448H51.689v4.922H32Z" transform="translate(-22.156 -310.179)"/>
          <path id="Trazado_226067" data-name="Trazado 226067" d="M179.752,349.824l-3.48-3.48-11.585,11.584,11.585,11.584,3.48-3.48-5.643-5.643h18.67v-4.922h-18.67Z" transform="translate(-114.023 -239.796)"/>
          <path id="Trazado_226068" data-name="Trazado 226068" d="M76.922,90.851a2.464,2.464,0,0,1,2.461-2.461H90.67l-5.643,5.643,3.48,3.48,11.584-11.584L88.507,74.344l-3.48,3.48,5.643,5.643H79.383A7.393,7.393,0,0,0,72,90.851v44.3h4.922Z" transform="translate(-49.85 -51.473)"/>
          <path id="Trazado_226069" data-name="Trazado 226069" d="M350.767,111.383v30.975l-5.643-5.643-3.48,3.48,11.584,11.585L364.812,140.2l-3.48-3.48-5.643,5.643V111.383A7.393,7.393,0,0,0,348.305,104H336v4.922h12.305A2.464,2.464,0,0,1,350.767,111.383Z" transform="translate(-232.634 -72.006)"/>
        </g>
      </g>
    </g>
  </g>
</svg>
