<svg xmlns="http://www.w3.org/2000/svg" width="169.101" height="169.101" viewBox="0 0 169.101 169.101">
  <g id="Grupo_222360" data-name="Grupo 222360" transform="translate(-760 -12360.959)">
    <g id="Grupo_222359" data-name="Grupo 222359">
      <g id="Grupo_109058" data-name="Grupo 109058" transform="translate(760 12360.959)">
        <g id="Elipse_4774" data-name="Elipse 4774">
          <circle id="Elipse_4775" data-name="Elipse 4775" cx="84.551" cy="84.551" r="84.551" fill="#0f2771"/>
          <circle id="Elipse_4776" data-name="Elipse 4776" cx="83.89" cy="83.89" r="83.89" transform="translate(0.66 0.661)" fill="#0f2771"/>
          <g id="Grupo_222070" data-name="Grupo 222070" transform="translate(30.542 26.281)">
            <path id="Trazado_225421" data-name="Trazado 225421" d="M965.692,4319.773a9.332,9.332,0,1,0-9.332-9.331A9.342,9.342,0,0,0,965.692,4319.773Zm0-15.072a5.741,5.741,0,1,1-5.741,5.741A5.748,5.748,0,0,1,965.692,4304.7Z" transform="translate(-952.032 -4238.185)" fill="#fff"/>
            <path id="Trazado_225422" data-name="Trazado 225422" d="M956.836,4361.55a13.675,13.675,0,0,0-13.66,13.66v6.239a1.8,1.8,0,1,0,3.591,0v-6.239a10.069,10.069,0,1,1,20.138,0v6.239a1.8,1.8,0,1,0,3.591,0v-6.239A13.675,13.675,0,0,0,956.836,4361.55Z" transform="translate(-943.176 -4278.785)" fill="#fff"/>
            <path id="Trazado_225423" data-name="Trazado 225423" d="M981.521,4375.788a1.8,1.8,0,0,0-1.8,1.795v.479a1.8,1.8,0,1,0,3.591,0v-.479A1.8,1.8,0,0,0,981.521,4375.788Z" transform="translate(-967.728 -4288.35)" fill="#fff"/>
            <path id="Trazado_225424" data-name="Trazado 225424" d="M981.521,4390.374a1.8,1.8,0,0,0-1.8,1.8v8.379a1.8,1.8,0,1,0,3.591,0v-8.379A1.8,1.8,0,0,0,981.521,4390.374Z" transform="translate(-967.728 -4298.147)" fill="#fff"/>
            <path id="Trazado_225425" data-name="Trazado 225425" d="M1202.2,4310.442a9.332,9.332,0,1,0,9.332-9.332A9.342,9.342,0,0,0,1202.2,4310.442Zm15.073,0a5.741,5.741,0,1,1-5.741-5.741A5.747,5.747,0,0,1,1217.269,4310.442Z" transform="translate(-1117.172 -4238.185)" fill="#fff"/>
            <path id="Trazado_225426" data-name="Trazado 225426" d="M1202.672,4361.55a13.675,13.675,0,0,0-13.66,13.66v6.239a1.8,1.8,0,0,0,3.591,0v-6.239a10.069,10.069,0,1,1,20.137,0v6.239a1.8,1.8,0,1,0,3.591,0v-6.239A13.675,13.675,0,0,0,1202.672,4361.55Z" transform="translate(-1108.316 -4278.785)" fill="#fff"/>
            <path id="Trazado_225427" data-name="Trazado 225427" d="M1225.83,4375.788a1.8,1.8,0,0,0-1.8,1.795v.479a1.8,1.8,0,1,0,3.591,0v-.479A1.8,1.8,0,0,0,1225.83,4375.788Z" transform="translate(-1131.842 -4288.35)" fill="#fff"/>
            <path id="Trazado_225428" data-name="Trazado 225428" d="M1225.83,4390.374a1.8,1.8,0,0,0-1.8,1.8v8.379a1.8,1.8,0,1,0,3.591,0v-8.379A1.8,1.8,0,0,0,1225.83,4390.374Z" transform="translate(-1131.842 -4298.147)" fill="#fff"/>
            <path id="Trazado_225429" data-name="Trazado 225429" d="M1089.666,4128.077a9.332,9.332,0,1,0-9.332-9.332A9.342,9.342,0,0,0,1089.666,4128.077Zm0-15.073a5.741,5.741,0,1,1-5.742,5.741A5.748,5.748,0,0,1,1089.666,4113Z" transform="translate(-1035.312 -4109.413)" fill="#fff"/>
            <path id="Trazado_225430" data-name="Trazado 225430" d="M1068.946,4191.547a1.8,1.8,0,0,0,1.8-1.8v-6.239a10.069,10.069,0,1,1,20.137,0v6.239a1.8,1.8,0,1,0,3.591,0v-6.239a13.66,13.66,0,1,0-27.319,0v6.239A1.8,1.8,0,0,0,1068.946,4191.547Z" transform="translate(-1026.455 -4150.013)" fill="#fff"/>
            <path id="Trazado_225431" data-name="Trazado 225431" d="M1106.566,4185.052a1.8,1.8,0,1,0-3.591,0v1.2a1.8,1.8,0,1,0,3.591,0Z" transform="translate(-1050.521 -4159.017)" fill="#fff"/>
            <path id="Trazado_225432" data-name="Trazado 225432" d="M1104.77,4198.572a1.8,1.8,0,0,0-1.8,1.8v8.618a1.8,1.8,0,1,0,3.591,0v-8.618A1.8,1.8,0,0,0,1104.77,4198.572Z" transform="translate(-1050.521 -4169.305)" fill="#fff"/>
            <path id="Trazado_225433" data-name="Trazado 225433" d="M1157.246,4174.246a43.106,43.106,0,0,1,25.8,33.108,1.8,1.8,0,0,0,3.55-.542,46.7,46.7,0,0,0-27.948-35.875,1.8,1.8,0,0,0-1.4,3.308Z" transform="translate(-1086.241 -4150.646)" fill="#fff"/>
            <path id="Trazado_225434" data-name="Trazado 225434" d="M969.358,4209.96a1.8,1.8,0,0,0,2.038-1.514,43.1,43.1,0,0,1,24.9-32.925,1.8,1.8,0,1,0-1.477-3.273,46.694,46.694,0,0,0-26.974,35.674A1.8,1.8,0,0,0,969.358,4209.96Z" transform="translate(-959.734 -4151.515)" fill="#fff"/>
            <path id="Trazado_225435" data-name="Trazado 225435" d="M1083.63,4420.582a43.166,43.166,0,0,1-36.422-.157,1.8,1.8,0,1,0-1.535,3.246,46.745,46.745,0,0,0,39.465.17,1.8,1.8,0,1,0-1.507-3.259Z" transform="translate(-1011.337 -4318.218)" fill="#fff"/>
            <path id="Trazado_225436" data-name="Trazado 225436" d="M1178.515,4234.35a1.842,1.842,0,0,0,.241-.016,1.8,1.8,0,0,0,1.541-2.019,37.141,37.141,0,0,0-17.311-26.691,1.8,1.8,0,0,0-1.893,3.052,33.56,33.56,0,0,1,15.645,24.117A1.8,1.8,0,0,0,1178.515,4234.35Z" transform="translate(-1088.99 -4173.862)" fill="#fff"/>
            <path id="Trazado_225437" data-name="Trazado 225437" d="M1014.069,4204.9a37.133,37.133,0,0,0-17.659,26.547,1.8,1.8,0,1,0,3.554.515,33.553,33.553,0,0,1,15.96-23.987,1.8,1.8,0,0,0-1.855-3.075Z" transform="translate(-978.923 -4173.381)" fill="#fff"/>
            <path id="Trazado_225438" data-name="Trazado 225438" d="M1080.379,4381.048a33.683,33.683,0,0,1-42.844,0,1.8,1.8,0,1,0-2.286,2.769,37.274,37.274,0,0,0,47.415,0,1.8,1.8,0,1,0-2.286-2.769Z" transform="translate(-1004.588 -4291.607)" fill="#fff"/>
          </g>
        </g>
      </g>
    </g>
  </g>
</svg>
